<svg width="100" height="100" fill="none" xmlns="http://www.w3.org/2000/svg"><path d="M90.36 63.685L57.327 75.71 46.64 46.344l33.033-12.023 10.688 29.364z" fill="#F2C397"/><path d="M96.53 61.453l2.004 5.505-37.749 13.727a10.822 10.822 0 00-2.002-5.506l31.578-11.494 6.169-2.233z" fill="#CCD1D9"/><path d="M70.99 10.463l8.683 23.858-12.847 4.676-7.34 2.672-12.847 4.675-8.683-23.856L70.99 10.463z" fill="#F2C397"/><path d="M66.826 38.997l2.672 7.341-7.34 2.672-2.671-7.341 7.34-2.672zm-8.683-23.858l2.672 7.34-7.342 2.673-2.672-7.34 7.342-2.673z" fill="#1D9F3A"/><path d="M58.784 75.18a10.812 10.812 0 012.001 5.505c.344 4.674-2.421 9.195-7.04 10.876-5.576 2.03-11.74-.843-13.77-6.42-1.681-4.618.005-9.644 3.805-12.386a10.816 10.816 0 015.508-2.002 10.75 10.75 0 016.927 1.905c.98.682 1.852 1.529 2.569 2.521z" fill="#656D78"/><path d="M52.823 80.466a2.93 2.93 0 11-5.504 2.003 2.93 2.93 0 015.504-2.003zm-3.535-9.714v.002a10.82 10.82 0 00-5.508 2.002l-21.513-59.11-18.798 6.78-2.004-5.505 18.799-6.78a5.857 5.857 0 017.51 3.502l21.514 59.109z" fill="#CCD1D9"/><path d="M71.025 10.45l-5.506 2.003 8.683 23.859 5.506-2.004-8.683-23.859zm8.682 23.862l-5.506 2.004 10.69 29.366 5.507-2.005-10.69-29.365z" fill="#D39C72"/><path d="M96.53 61.458l-6.043 2.199 2.004 5.506 6.043-2.2-2.004-5.505z" fill="#AAB2BC"/><path d="M50.07 77.073a4.4 4.4 0 00-4.13 5.898 4.409 4.409 0 004.13 2.892 4.4 4.4 0 004.129-5.898 4.408 4.408 0 00-4.13-2.892zm.5 5.772a1.47 1.47 0 01-1.878-.875 1.467 1.467 0 011.377-1.967 1.466 1.466 0 01.502 2.842z" fill="#000"/><path d="M99.546 68.017c.03-.028.058-.057.085-.087l.016-.02c.025-.03.05-.06.073-.09l.007-.011a1.49 1.49 0 00.07-.108l.01-.02a1.48 1.48 0 00.055-.104l.018-.042c.012-.03.025-.058.036-.088.007-.02.012-.041.018-.062a.88.88 0 00.044-.182l.006-.029a1.455 1.455 0 00-.073-.717l-2.004-5.505a1.46 1.46 0 00-.749-.822l-.008-.005-.068-.028c-.02-.008-.041-.018-.063-.025l-.016-.005a1.455 1.455 0 00-.973.009l-4.79 1.742L81.05 33.82v-.002L77.042 22.81a1.47 1.47 0 00-1.877-.875 1.467 1.467 0 00-.877 1.877l3.508 9.635-18.812 6.846-.002.001-11.469 4.174-7.682-21.104 10.095-3.674 2.17 5.963c.21.577.762.965 1.376.965.172 0 .34-.029.502-.09l7.341-2.671a1.456 1.456 0 00.948-1.586v-.004a1.445 1.445 0 00-.023-.114l-.006-.032a1.453 1.453 0 00-.044-.141l-2.17-5.964 10.093-3.673 2.17 5.963c.212.576.764.965 1.378.965a1.467 1.467 0 001.377-1.967L72.367 9.96a1.472 1.472 0 00-1.877-.875L57.65 13.76l-.007.002-.012.005-7.317 2.663-.013.004-.021.009-12.826 4.668c-.367.133-.66.403-.826.756a1.45 1.45 0 00-.05 1.121l8.684 23.858 8.35 22.944a12.119 12.119 0 00-3.308-.527L29.15 11.142c-1.381-3.795-5.592-5.758-9.387-4.378l-.002.001L.967 13.543l-.004.002c-.034.012-.066.027-.098.041l-.037.016a1.018 1.018 0 00-.092.05l-.037.02c-.03.018-.056.037-.084.057-.012.009-.025.016-.036.025-.026.02-.05.04-.073.061-.012.01-.026.02-.037.032-.023.02-.044.043-.065.065-.011.012-.024.023-.035.036-.02.022-.038.046-.056.07l-.032.04a.89.89 0 00-.047.072c-.01.015-.021.03-.03.046-.015.024-.027.049-.04.073l-.026.051c-.012.024-.02.05-.031.074l-.023.056-.022.074-.019.061c-.006.024-.01.05-.015.074-.004.022-.01.043-.013.065l-.007.075c-.003.022-.006.044-.007.066v.077c0 .022-.002.045 0 .067 0 .026.004.052.007.078l.006.066c.004.026.01.052.016.078.004.022.007.044.013.066.006.026.016.052.024.078.006.02.012.042.02.064v.004l2.005 5.506c.015.041.035.079.053.118.015.03.026.063.042.092.023.041.05.078.077.116.017.024.03.05.049.074.031.04.067.076.102.112.017.017.031.037.048.053.04.037.084.07.127.102.015.012.03.026.046.037.046.032.096.06.146.085l.044.026c.05.025.105.044.158.063.016.005.03.013.046.018a1.4 1.4 0 00.17.04c.015.003.03.008.046.01a1.43 1.43 0 00.347.012c.009 0 .017-.002.026-.003.033-.003.066-.007.1-.013.014-.002.03-.007.045-.01.026-.005.053-.01.079-.017l.083-.026.039-.013h.002l.002-.001h.002L21.39 15.52l20.657 56.752c-3.685 3.223-5.22 8.5-3.447 13.37 1.749 4.806 6.359 8.035 11.471 8.035a12.17 12.17 0 004.174-.74 12.127 12.127 0 006.888-6.31 12.173 12.173 0 001.145-4.926l36.757-13.367.03-.012.109-.046.044-.024c.028-.015.057-.03.085-.047l.045-.03.075-.052.021-.018c.03-.024.06-.048.088-.074l.014-.015zM61.54 77.293a12.164 12.164 0 00-.585-1.346l34.7-12.618 1.002 2.753-34.7 12.619a12.436 12.436 0 00-.417-1.408zm1.493-30.16l-1.67-4.588 4.59-1.67 1.67 4.587-4.59 1.67zm-4.096-25.528l-4.588 1.67-1.67-4.588 4.59-1.67 1.668 4.588zM48.517 47.22l10.094-3.673 2.17 5.964c.21.576.762.964 1.378.964.17 0 .337-.03.5-.09L70 47.713a1.463 1.463 0 00.875-1.877l-2.17-5.963L78.798 36.2l9.689 26.619-29.226 10.628a12.286 12.286 0 00-1.818-1.697l-8.926-24.53zM23.644 13.145c-.009-.023-.02-.045-.03-.068-.009-.022-.017-.046-.028-.068l-.031-.058c-.013-.024-.025-.048-.04-.071l-.03-.046c-.017-.025-.033-.05-.051-.074l-.03-.036c-.02-.025-.04-.05-.063-.074l-.028-.028c-.024-.024-.048-.049-.074-.072l-.023-.018a1.398 1.398 0 00-.087-.07l-.014-.01a1.47 1.47 0 00-.104-.068l-.009-.004a1.469 1.469 0 00-.66-.197h-.007a1.416 1.416 0 00-.137 0l-.025.002a1.52 1.52 0 00-.118.012l-.057.011a.896.896 0 00-.087.018c-.032.008-.065.019-.098.03l-.043.012-.002.001h-.002l-.002.002-17.42 6.282-1-2.753L20.76 9.518l.004-.001a4.4 4.4 0 015.632 2.626L47.301 69.58c-.474.11-.944.249-1.407.417-.466.17-.913.368-1.345.587L23.644 13.145zM58.478 85.39a9.216 9.216 0 01-5.235 4.797 9.25 9.25 0 01-3.172.562 9.307 9.307 0 01-8.718-6.107c-1.75-4.807.737-10.141 5.544-11.89a9.25 9.25 0 013.172-.563 9.308 9.308 0 018.718 6.107 9.215 9.215 0 01-.31 7.094z" fill="#000"/></svg>