<svg width="170" height="170" fill="none" xmlns="http://www.w3.org/2000/svg"><path d="M161.552 110.889l-37.195-20.897c-1.059-.606-7.544-.606-8.604 0L24.39 147.36c-.909.606-.909 1.968 0 2.422l27.705 15.285c1.06.605 2.27.605 3.33 0l109.372-33.776c1.06-.605-2.336-19.949-3.245-20.403z" fill="url(#paint0_linear_222_58085)"/><path d="M53.912 164.16l8.024-13.167-1.817-1.059c-1.06-.606-2.422-.454-3.936.303-3.028 1.664-5.602 5.902-5.602 9.382 0 1.665.606 2.876 1.514 3.481h.152l1.665 1.06z" fill="#000"/><path d="M60.573 151.75l-3.33-1.968-.909.454c-3.028 1.665-5.602 5.903-5.602 9.383 0 .606 0 1.211.152 1.665l1.968 1.211c.454-.152.908-.303 1.514-.606.605-.302 1.06-.756 1.665-1.21l4.24-6.962c.15-.605.302-1.211.302-1.967z" fill="#1F1F1F"/><path d="M63.45 154.474c0 3.481-2.575 7.718-5.602 9.383-3.028 1.665-5.45.303-5.45-3.178s2.573-7.718 5.601-9.383c3.18-1.665 5.602-.303 5.45 3.178z" fill="#2A2A2A"/><path d="M63.298 154.625c0 3.33-2.423 7.416-5.45 8.929-2.877 1.665-5.3.303-5.3-3.027 0-3.329 2.423-7.415 5.45-8.929 3.029-1.664 5.3-.302 5.3 3.027z" fill="#1D1D1D"/><path d="M62.087 155.231c0 2.572-1.968 5.75-4.239 6.961-2.27 1.211-4.087.151-4.087-2.421 0-2.573 1.968-5.751 4.239-6.962 2.27-1.211 4.087-.151 4.087 2.422z" fill="#3B3B3B"/><path d="M61.784 155.382c0 2.421-1.816 5.297-3.936 6.507-2.12 1.211-3.785.152-3.785-2.118 0-2.422 1.817-5.297 3.936-6.508 2.12-1.211 3.785-.303 3.785 2.119z" fill="#575757"/><path d="M58 153.263c-2.12 1.211-3.785 4.086-3.937 6.508 0 .302 0 .605.152.908l2.725 1.664c.303-.151.605-.151.908-.454 2.12-1.21 3.785-3.934 3.936-6.356L58 153.263z" fill="#515151"/><path d="M55.88 155.231c-.757 1.059-1.363 2.118-1.666 3.329l4.542 2.724c.909-.757 1.666-1.816 2.271-3.027l-5.147-3.026z" fill="#E9EAE7"/><path d="M55.88 155.231c-.757 1.059-1.363 2.118-1.666 3.329l4.542 2.724c.909-.757 1.666-1.816 2.271-3.027l-5.147-3.026z" fill="#373737"/><path d="M61.178 155.533c0 2.119-1.514 4.54-3.33 5.6-1.817 1.059-3.331.151-3.331-1.816 0-2.119 1.514-4.541 3.33-5.6 1.817-1.059 3.331-.303 3.331 1.816z" fill="#434343"/><path d="M61.178 156.442c0 1.664-1.211 3.632-2.725 4.388-1.514.757-2.574.152-2.574-1.513 0-1.665 1.211-3.632 2.725-4.389 1.363-.757 2.574-.151 2.574 1.514z" fill="#000"/><path d="M56.486 148.572l1.06 11.048-2.12-1.514-4.693-6.507 5.753-3.027z" fill="#C4C4C4"/><path d="M58.605 150.085l1.06 7.567-2.12 1.967-4.693-6.507 5.753-3.027z" fill="#828282"/><path d="M24.541 147.058l8.024-13.166-1.817-1.059c-1.06-.606-2.422-.454-3.936.302-3.028 1.665-5.602 5.903-5.602 9.383 0 1.665.606 2.876 1.514 3.481h.152l1.665 1.059z" fill="#000"/><path d="M31.203 134.8l-3.33-1.967-.91.454c-3.027 1.665-5.6 5.902-5.6 9.383 0 .605 0 1.211.15 1.665l1.969 1.21c.454-.151.908-.302 1.514-.605.605-.303 1.06-.757 1.665-1.211l4.24-6.961c.15-.606.15-1.362.302-1.968z" fill="#1F1F1F"/><path d="M34.08 137.373c0 3.481-2.574 7.718-5.602 9.383-3.028 1.665-5.45.302-5.45-3.178 0-3.481 2.573-7.567 5.6-9.383 3.029-1.665 5.451-.303 5.451 3.178z" fill="#2A2A2A"/><path d="M33.776 137.524c0 3.33-2.422 7.416-5.45 8.929-2.876 1.665-5.299.303-5.299-3.027 0-3.329 2.423-7.415 5.45-8.929 3.028-1.664 5.45-.302 5.3 3.027z" fill="#1D1D1D"/><path d="M32.566 138.13c0 2.572-1.969 5.75-4.24 6.961-2.27 1.211-4.087.151-4.087-2.421 0-2.573 1.968-5.751 4.239-6.962 2.422-1.211 4.239-.151 4.087 2.422z" fill="#3B3B3B"/><path d="M32.414 138.281c0 2.421-1.817 5.297-3.937 6.507-2.119 1.211-3.784.152-3.784-2.118 0-2.422 1.816-5.297 3.936-6.508 2.12-1.211 3.785-.151 3.785 2.119z" fill="#585858"/><path d="M28.477 136.162c-2.12 1.211-3.785 4.086-3.936 6.507 0 .303 0 .606.151.909l2.726 1.664c.302-.151.605-.151.908-.454 2.12-1.21 3.785-3.935 3.936-6.356l-3.785-2.27z" fill="#313131"/><path d="M26.358 138.13c-.757 1.059-1.363 2.118-1.666 3.329l4.542 2.724c.908-.757 1.665-1.816 2.271-3.027l-5.147-3.026z" fill="#E9EAE7"/><path d="M26.358 138.13c-.757 1.059-1.363 2.118-1.666 3.329l4.542 2.724c.908-.757 1.665-1.816 2.271-3.027l-5.147-3.026z" fill="#373737"/><path d="M31.657 138.432c0 2.119-1.514 4.54-3.331 5.6-1.817 1.059-3.33.151-3.33-1.816 0-2.119 1.513-4.54 3.33-5.6 1.817-1.059 3.33-.151 3.33 1.816z" fill="#434343"/><path d="M31.657 139.34c0 1.665-1.212 3.633-2.725 4.389-1.514.757-2.574.152-2.574-1.513 0-1.665 1.211-3.632 2.725-4.389 1.363-.757 2.574-.151 2.574 1.513zm41.633-25.576l8.023-13.166-1.816-1.06c-1.06-.605-2.423-.453-3.936.303-3.028 1.665-5.602 5.902-5.602 9.383 0 1.665.605 2.876 1.514 3.481h.151l1.666 1.059z" fill="#000"/><path d="M79.8 101.355l-3.33-1.968-.909.454c-3.028 1.665-5.602 5.902-5.602 9.383 0 .606 0 1.211.152 1.665l1.968 1.211c.454-.152.908-.303 1.514-.606.605-.302 1.06-.756 1.665-1.21l4.24-6.962c.302-.605.302-1.362.302-1.967z" fill="#1F1F1F"/><path d="M82.828 103.927c0 3.481-2.574 7.567-5.602 9.383-3.028 1.665-5.45.303-5.45-3.178s2.574-7.718 5.602-9.383c3.027-1.664 5.45-.151 5.45 3.178z" fill="#2A2A2A"/><path d="M82.525 104.079c0 3.329-2.423 7.415-5.45 8.929-2.877 1.664-5.3.302-5.3-3.027s2.423-7.416 5.45-8.929c3.029-1.665 5.3-.303 5.3 3.027z" fill="#1D1D1D"/><path d="M81.314 104.835c0 2.573-1.968 5.751-4.24 6.962-2.27 1.211-4.087.151-4.087-2.421 0-2.573 1.968-5.751 4.239-6.962 2.27-1.211 4.239-.151 4.088 2.421z" fill="#3B3B3B"/><path d="M81.01 104.987c0 2.421-1.816 5.296-3.935 6.507-2.12 1.211-3.785.151-3.785-2.119 0-2.421 1.817-5.296 3.936-6.507 2.12-1.362 3.936-.303 3.785 2.119z" fill="#575757"/><path d="M77.226 102.717c-2.12 1.21-3.785 4.086-3.937 6.507 0 .303 0 .605.152.908l2.725 1.665c.303-.152.605-.152.908-.454 2.12-1.211 3.785-3.935 3.936-6.356l-3.784-2.27z" fill="#515151"/><path d="M75.107 104.684c-.757 1.059-1.363 2.119-1.665 3.33l4.541 2.724c.909-.757 1.666-1.816 2.271-3.027l-5.147-3.027z" fill="#E9EAE7"/><path d="M75.107 104.684c-.757 1.059-1.363 2.119-1.665 3.33l4.541 2.724c.909-.757 1.666-1.816 2.271-3.027l-5.147-3.027z" fill="#FFC123"/><path d="M80.406 104.987c0 2.118-1.514 4.54-3.331 5.599-1.817 1.06-3.33.152-3.33-1.816 0-2.119 1.513-4.54 3.33-5.599 1.817-1.06 3.33-.152 3.33 1.816z" fill="#434343"/><path d="M80.406 105.895c0 1.665-1.212 3.632-2.726 4.389-1.514.756-2.573.151-2.573-1.514 0-1.664 1.21-3.632 2.725-4.389 1.362-.756 2.574-.151 2.574 1.514z" fill="#D92800"/><path d="M112.047 135.859l8.024-13.166-1.817-1.059c-1.06-.606-2.422-.454-3.936.302-3.028 1.665-5.602 5.903-5.602 9.383 0 1.665.606 2.876 1.514 3.481h.152l1.665 1.059z" fill="#000"/><path d="M118.709 123.45l-3.331-1.968-.908.454c-3.028 1.665-5.602 5.903-5.602 9.383 0 .606 0 1.211.152 1.665l1.968 1.211c.454-.152.908-.303 1.514-.606.605-.302 1.059-.756 1.665-1.21l4.239-6.962c.151-.605.303-1.362.303-1.967z" fill="#1F1F1F"/><path d="M121.585 126.174c0 3.481-2.574 7.718-5.602 9.383-3.028 1.665-5.45.303-5.45-3.178s2.574-7.718 5.602-9.383c3.028-1.816 5.45-.303 5.45 3.178z" fill="#2A2A2A"/><path d="M121.434 126.174c0 3.329-2.423 7.416-5.451 8.929-2.876 1.665-5.298.303-5.298-3.027 0-3.329 2.422-7.415 5.45-8.929 2.876-1.664 5.299-.302 5.299 3.027z" fill="#1D1D1D"/><path d="M120.223 126.931c0 2.572-1.968 5.75-4.239 6.961-2.271 1.211-4.088.151-4.088-2.421 0-2.573 1.968-5.751 4.239-6.962 2.271-1.21 4.088-.151 4.088 2.422z" fill="#3B3B3B"/><path d="M119.919 127.082c0 2.421-1.816 5.297-3.936 6.507-2.119 1.211-3.785.152-3.785-2.118 0-2.422 1.817-5.297 3.937-6.508 2.119-1.362 3.784-.303 3.784 2.119z" fill="#585858"/><path d="M115.983 124.812c-2.12 1.21-3.785 4.086-3.936 6.507 0 .303 0 .606.151.908l2.725 1.665c.303-.151.606-.151.909-.454 2.119-1.211 3.784-3.935 3.936-6.356l-3.785-2.27z" fill="#313131"/><path d="M113.864 126.779c-.757 1.06-1.362 2.119-1.665 3.33l4.542 2.724c.908-.757 1.665-1.816 2.271-3.027l-5.148-3.027z" fill="#E9EAE7"/><path d="M113.864 126.779c-.757 1.06-1.362 2.119-1.665 3.33l4.542 2.724c.908-.757 1.665-1.816 2.271-3.027l-5.148-3.027z" fill="#373737"/><path d="M119.162 127.233c0 2.119-1.513 4.54-3.33 5.6-1.817 1.059-3.331.151-3.331-1.816 0-2.119 1.514-4.54 3.331-5.6 1.968-1.21 3.33-.302 3.33 1.816z" fill="#434343"/><path d="M119.162 127.99c0 1.665-1.211 3.632-2.725 4.389-1.514.756-2.573.151-2.573-1.514 0-1.664 1.211-3.632 2.725-4.388 1.514-.757 2.573 0 2.573 1.513z" fill="#000"/><path d="M114.772 120.272l1.059 10.896-2.119-1.362-4.693-6.507 5.753-3.027z" fill="#C4C4C4"/><path d="M116.891 121.785l1.06 7.567-2.119 1.816-4.694-6.356 5.753-3.027z" fill="#828282"/><path d="M27.115 129.655l1.968.756-3.028 9.837-4.693-6.356 5.753-4.237z" fill="#C4C4C4"/><path d="M29.084 131.168l1.211 8.778-2.12 1.816-4.693-6.356 5.602-4.238z" fill="#828282"/><path d="M51.035 153.566c1.211 0 2.574-.302 3.634-.756l61.314-28.755c1.06-.454 1.817-1.664 1.968-2.875 0-1.211-.606-2.421-1.665-3.027L82.374 98.479c-2.877-1.664-6.51-1.513-9.235.303l-50.263 34.354a3.442 3.442 0 00-1.514 2.875c0 1.211.606 2.119 1.665 2.724l23.77 13.772c1.21.757 2.724 1.059 4.238 1.059zm26.948-53.573c1.06 0 2.12.302 3.028.756l33.912 19.674c.303.152.303.454.303.606 0 .151 0 .302-.303.454l-61.314 28.754c-1.817.756-3.785.756-5.45-.303l-23.77-13.772c-.302-.151-.302-.302-.302-.454 0-.151 0-.302.303-.454l50.263-34.202c.908-.605 2.12-1.06 3.33-1.06z" fill="#C4C4C4"/><path d="M50.58 152.658c1.212 0 2.423-.302 3.483-.756l61.314-28.755c.908-.454 1.514-1.362 1.514-2.27 0-1.059-.454-1.967-1.363-2.421L81.616 98.782c-1.21-.757-2.573-1.06-4.087-1.06-1.666 0-3.18.455-4.542 1.363l-50.263 34.353c-.757.454-1.21 1.362-1.21 2.422 0 .908.605 1.816 1.362 2.27l23.768 13.772c1.06.454 2.423.756 3.937.756zm26.797-53.573c1.212 0 2.271.302 3.331.908l33.912 19.674c.454.302.606.605.606 1.059 0 .454-.303.908-.757 1.059l-61.315 28.754c-.908.454-1.816.606-2.876.606-1.211 0-2.27-.303-3.33-.908l-23.77-13.772c-.302-.151-.605-.605-.605-1.059 0-.454.151-.757.454-1.06l50.717-34.051c1.06-.756 2.27-1.21 3.633-1.21z" fill="#E0E0E0"/><path d="M77.984 99.084l1.06 7.719-2.12 1.816-4.693-6.357 5.753-3.178z" fill="#828282"/><path d="M47.553 152.658c1.817 0 3.331-2.119 4.845-4.086.757-1.059 1.817-2.573 2.422-2.724l57.227-26.938 2.876 1.665c.757.454 1.969 3.026 2.423 2.27 2.119-3.178-2.877-8.021-3.785-7.567l-1.514.454-29.825-17.253c-.756-.454-1.665-1.816-2.573-2.875-1.817-2.422-4.088-5.448-6.662-3.784l-50.262 34.203c-1.817 1.21-1.665 7.264-1.665 8.021.151 3.329.757 4.237 1.514 4.54l23.768 13.771c.455.152.757.303 1.212.303zm61.617-35.564l-55.56 26.181c-1.212.606-2.272 2.119-3.483 3.632-.757.908-1.968 2.724-2.574 2.876l-23.466-13.469c-.605-1.362-.302-6.811.303-8.173l50.263-34.05c.605 0 2.12 2.118 2.876 3.178 1.212 1.513 2.271 3.026 3.482 3.632l28.159 16.193z" fill="#C4C4C4"/><path d="M47.099 151.75c1.514 0 3.028-2.118 4.239-3.935 1.06-1.513 1.968-2.724 2.573-3.026l57.227-26.938c.606-.303 1.211-.152 1.514.302l1.06 1.211c.151.151 1.362 2.875 1.514 2.875.303 0 .908-.302 1.059-.605.757-.908-3.33-6.507-3.482-6.356l-1.211.757-29.976-17.253c-.757-.454-1.816-1.816-2.725-3.027-1.362-1.816-3.028-4.086-4.693-4.086-.454 0-.757.151-1.211.454l-50.263 34.354c-1.06.757-1.514 4.237-1.362 7.415.151 3.481.908 3.935 1.211 4.087l23.769 13.771h.757zm27.1-58.567c.605 0 1.513.908 3.33 3.48 1.06 1.514 2.12 2.876 3.18 3.481l29.369 16.799-56.62 26.635c-1.06.454-2.12 1.967-3.18 3.481-1.211 1.816-2.12 2.875-2.725 3.178l-.303.151-23.92-13.772-.151-.151c-.606-1.513-.455-7.264.302-8.626v-.151l50.414-34.354.303-.151z" fill="#E0E0E0"/><path d="M106.446 118.456s.454.605 1.514.302c1.362-.454 1.211-.908 1.211-.908l-3.482-14.831 4.39-1.967 3.179 14.68 1.363 1.816 1.817-.303-4.239-20.128-9.841 4.238 4.088 17.101z" fill="#828282"/><path d="M106.899 118.758h.303c.909-.302.757-1.059.757-1.059l-3.482-14.68 5.45-2.421 3.331 15.285 1.06 1.362.908-.151-4.087-18.918-8.781 3.784 3.936 16.647c.151 0 .303.151.605.151z" fill="#B8B8B8"/><path d="M69.808 101.355s.454.908 1.514.454c1.363-.454 1.06-1.816 1.06-1.816l-3.33-14.226 4.39-1.968 3.179 14.68 1.362 1.816 1.817-.302-4.239-20.128-9.84 4.237 4.087 17.253z" fill="#828282"/><path d="M76.319 40.82c.908-.455 1.817-.909 2.876-1.06l.606-11.048V27.35l-3.785-.151-.151 3.48-.606 10.746 1.06-.606zm-1.665 12.712l1.514-.908c.757-.454 1.514-.757 2.422-1.06l.606-9.837c-.606.152-1.211.455-1.817.757l-2.12 1.21-.605 9.838zm-.757 12.258l1.817-1.06c.151-.15.454-.15.757-.302l1.362-.454.606-10.14c-.454.152-.908.303-1.363.606l-2.573 1.513-.606 9.837zm-.606 10.745l3.785.152.605-10.745-.908.454-.303.151-2.573 1.513-.606 8.475z" fill="#B8B8B8"/><path d="M15.913 109.224l.151.151.303.152 5.753 3.329h.151l5.602 3.33s.151 0 .303.151h.151l5.299 3.027c.151.151.303.151.454.302l.454.152c1.211.605 2.725.908 4.088.908a8.83 8.83 0 002.876-.454c.152 0 .454-.152.606-.152l65.099-24.365c1.514-.605 2.725-1.967 3.028-3.48 0-.455.151-.909 0-1.363l-.152-1.967c0-.454 0-.757-.151-1.21l-2.725-1.514c0 1.06.151 1.967.303 3.026l.151 1.514v.303c0 .756-.303 1.816-1.362 2.27l-65.1 24.365c-1.06.454-2.27.605-3.482.454-.908-.151-1.665-.303-2.422-.757l-.303-.151c-.151 0-.151 0-.303-.151l-.454-.303-5.147-3.027-1.06-.605-4.996-2.876-1.362-.756-4.694-2.724-1.06 2.421z" fill="#828282"/><path d="M15.458 108.921l.303.152.152.151.15.151h.152l5.3 3.027 5.6 3.178c.152.152.455.152.606.303 0 0 .152 0 .303.151h.303l.303.152c1.21.454 2.422.605 3.633.605.606 0 1.363 0 1.968-.151.303 0 .606-.152.908-.303.152 0 .303-.151.606-.151l65.099-24.366c1.666-.605 2.725-1.967 3.028-3.632 0-.454.151-.908 0-1.21l-.151-1.817c0-.454-.152-.908-.152-1.362l-2.725-1.513c.152 1.06.152 2.119.303 3.178l.151 1.514v.454c0 .756-.302 1.816-1.362 2.27l-65.1 24.365c-1.059.454-2.119.605-3.33.454-.757 0-1.514-.303-2.27-.454v-.151l-.455-.152h-.151l-.455-.302-5.298-3.027-.909-.606-4.541-2.724-.606-.302h-.151v1.059l-1.212 1.059z" fill="#828282"/><path d="M15.308 108.77l.605.605.303.151 4.693 2.725c.303.151.454.302.757.302.152 0 .303.152.454.152h.455c1.06.454 2.27.605 3.482.605.605 0 1.362 0 1.968-.151.303 0 .454-.152.757-.152h.151c.151 0 .303-.151.454-.151l65.1-24.365c1.665-.606 2.725-1.968 3.027-3.633v-1.21l-.151-2.27c0-.303 0-.757-.151-1.06l-2.726-1.513c0 .908.152 1.967.303 2.875l.152 1.816v.454c0 .757-.303 1.816-1.363 2.27l-65.1 24.366c-1.059.454-2.119.605-3.33.454-.757 0-1.362-.151-2.12-.454h-.452c-.152 0-.303-.152-.455-.303l-.454-.303-4.542-2.572-.605-.303h-.152l-.454-.151v1.21l-1.21.606h.605z" fill="#828282"/><path d="M15.307 108.77l.455.605h.302v.152h.303c1.06.302 2.12.454 3.028.454.606 0 1.363 0 1.968-.152.303 0 .606-.151.909-.302.15 0 .302-.152.454-.152L87.825 85.01c1.665-.605 2.725-1.967 3.028-3.632v-1.21L90.7 78.35c0-.454-.151-.908-.151-1.513l-2.725-1.514c.151 1.06.151 2.12.303 3.178l.151 1.363v.454c0 .756-.303 1.816-1.363 2.27l-65.099 24.365a11.52 11.52 0 01-3.179.454c-.606 0-1.211-.151-1.665-.303l-.152-.151-.757-.151h-.757v1.21l-1.21.606 1.21.151z" fill="#828282"/><path d="M11.22 106.046c.757.151 1.514.303 2.27.303 1.06 0 2.12-.152 3.029-.454.15 0 .302-.152.454-.152l65.099-24.365c1.665-.605 2.725-1.967 3.028-3.784v-1.059l-.152-1.21c0-.606-.151-1.363-.151-1.968-.757-.303-1.665-.454-2.574-.605 0 .908.152 1.816.303 2.724l.151 1.06v.15c0 .757-.302 1.816-1.362 2.27l-65.1 24.366c-.908.303-1.967.454-3.027.454-.454 0-.909 0-1.211-.151h-.303v1.21l-.454 1.211z" fill="#828282"/><path d="M38.168 119.818c.908 0 1.816-.152 2.725-.454.151 0 .454-.152.605-.152l65.1-24.365c1.362-.454 2.422-1.665 2.573-3.027 0-.302.152-.756 0-1.21 0 0-.303-2.573-.303-2.876l-1.514-.908c0 .303.455 3.935.455 3.935.151 1.06-.455 2.27-1.817 2.875l-65.1 24.366a8.835 8.835 0 01-2.876.454h-.908c-.908-.152-1.817-.303-2.574-.757l-.303-.151c-.15 0-.15-.152-.302-.152l-17.108-9.837-.757 1.211 5.602 3.178h.151l.152.152 5.753 3.329.302.151h.152l5.299 3.027c.15 0 .454.303.454.303l.454.151c1.211.454 2.574.757 3.785.757z" fill="#E0E0E0"/><path d="M31.96 116.186c.606 0 1.212 0 1.969-.152.302 0 .605-.151.908-.151.303 0 .454-.151.606-.151l64.947-24.517c1.363-.454 2.423-1.665 2.574-3.178 0-.303.152-.757 0-1.21l-.151-1.817c0-.302-.152-.757-.152-1.06l-1.514-.907c0 .756.152 1.362.152 2.119l.151 1.967c.152 1.06-.454 2.27-1.817 2.875L34.534 114.37a8.594 8.594 0 01-2.725.454h-.757c-.757 0-1.665-.303-2.422-.606l-.757-.302-.606-.454-5.298-3.027-5.45-3.178v.605l-.606.606h.151l.152.151 5.299 3.027h.15v.151l5.451 3.027c.151.151.303.151.454.302l.303.152.151.151.455.151c1.21.454 2.27.606 3.482.606z" fill="#E0E0E0"/><path d="M25.603 112.554c.605 0 1.21 0 1.816-.152h.152c.151 0 .302-.151.605-.151h.303l.303-.151 65.1-24.366c1.362-.454 2.421-1.664 2.573-3.178v-1.06s-.303-2.723-.303-3.026l-1.514-.908c0 .606.303 3.48.303 3.48v.455c.151 1.06-.454 2.27-1.666 2.875l-65.099 24.366a8.595 8.595 0 01-2.725.454h-.757a6.09 6.09 0 01-2.27-.454l-.303-.152h-.152l-.151-.151-.152-.151c-.151 0-.302-.152-.454-.303l-.454-.303-4.996-2.875v.757l-.606.302.152.152-.152.151 5.148 3.027c.303.151.454.302.605.302h.152l.151.152h.152l.302.151h.152c1.665.605 2.725.757 3.785.757z" fill="#E0E0E0"/><path d="M19.244 109.073c.605 0 1.21 0 1.817-.151.454-.152.756-.152 1.06-.303.15 0 .302-.151.453-.151l65.1-24.366c1.362-.454 2.422-1.664 2.573-3.178v-1.06l-.302-3.026-1.514-.908.302 3.48v.455c.152 1.06-.454 2.27-1.816 2.875l-65.1 24.366a8.835 8.835 0 01-2.876.454h-.606c-.605 0-1.21-.152-1.816-.303h-.152l-.151-.151-.454-.152h-.152v.757l-.605.303.151.151-.151.151h.151l.151.152h.303c1.666.302 2.726.605 3.634.605z" fill="#E0E0E0"/><path d="M13.036 105.441a9.53 9.53 0 002.876-.454l.454-.152 65.1-24.365c1.362-.454 2.422-1.816 2.573-3.33v-1.059s-.302-2.27-.302-2.724c-.455-.151-.909-.303-1.363-.303 0 .454.151.909.151 1.362l.152 1.817c.151 1.21-.454 2.42-1.666 2.875l-65.099 24.365a8.566 8.566 0 01-2.725.454h-.454c-.303 0-.606 0-.908-.151v.605l-.152.757c.303.151.909.303 1.363.303z" fill="#E0E0E0"/><path d="M72.495 76.474l36.77 22.281-1.334 2.2-36.77-22.28 1.334-2.2zm-6.131 2.269l36.765 22.281-1.334 2.2-36.766-22.281 1.335-2.2zm-7.628 2.26l36.77 22.281-1.334 2.2-36.77-22.28 1.334-2.2zM53 83.917l36.77 22.276-1.334 2.2-36.77-22.276 1.334-2.2zm-7.118 2.054l36.765 22.281-1.334 2.2-36.766-22.28 1.335-2.2zm-6.258 2.589l36.77 22.28-1.335 2.2-36.77-22.28 1.335-2.2zm-6.159 3.385l36.765 22.281-1.334 2.2-36.766-22.28 1.335-2.2zm-7.167 2.041l36.77 22.281-1.334 2.2-36.77-22.28 1.334-2.2zm-6.911 2.168l36.766 22.281-1.334 2.2-36.766-22.281 1.334-2.2z" fill="#AEAEAE"/><path d="M72.748 76.78l35.868 21.72-.706 1.164-35.868-21.719.706-1.165zm-6.071 2.349l35.867 21.719-.706 1.165-35.867-21.72.706-1.164zM59.116 81.4l35.868 21.719-.706 1.165-35.868-21.72.706-1.164zm-5.766 2.881L89.218 106l-.706 1.165-35.868-21.719.706-1.165zm-7.076 1.949l35.867 21.718-.705 1.165-35.868-21.719.706-1.165zm-6.188 2.591l35.868 21.719-.706 1.165L39.38 89.986l.706-1.165zm-6.359 3.302l35.868 21.719-.706 1.165-35.868-21.72.706-1.164zm-6.974 2.147l35.867 21.718-.706 1.165-35.867-21.719.706-1.165zm-7.093 2.036l35.867 21.719-.706 1.165-35.867-21.719.706-1.165z" fill="#E0E0E0"/><path d="M64.661 80.016l1.968-.151-3.179-42.98-1.817.151 3.028 42.98zm-7.741-38.84l3.068 41.2-1.811.134-3.068-41.199 1.811-.135zm-6.758 4.31l3.087 39.376-1.81.142-3.088-39.376 1.811-.142zm-6.601 4.289l3.09 37.555-1.81.149-3.09-37.555 1.81-.15zm-6.75 4.282l3.084 35.734-1.81.156-3.084-35.734 1.81-.156zm-6.604 4.108l3.074 34.065-1.809.163-3.074-34.065 1.81-.163zM23.6 62.5l3.1 32.237-1.808.174-3.102-32.238 1.808-.173zm-6.72 4.327l3.044 30.417-1.808.181-3.044-30.417 1.807-.181zm-6.589 4.274l3.09 28.588-1.806.195-3.09-28.588 1.806-.195zM70.68 32.714l2.107 44.898-1.815.085-2.106-44.898 1.814-.085z" fill="#828282"/><path d="M62.57 37.556l2.99 41.815-.755.054-2.99-41.815.755-.054zm-3.662 44.276L55.88 41.879h-.757l3.028 40.104.757-.151zm-9.679-35.658l2.979 38.174-.755.059-2.979-38.174.755-.059zm-3.643 40.652l-3.028-36.472-.757.151 3.028 36.472.757-.151zm-6.661 2.572l-3.028-34.656h-.757L38.168 89.4h.757zm-6.662 2.422l-3.028-32.84-.757.151 3.028 32.84.757-.151zm-9.725-28.568l2.96 31.035-.754.072-2.96-31.035.754-.072zm-6.558 4.336l2.963 29.36-.753.077-2.964-29.36.753-.077zm-6.755 4.278l2.954 27.537-.753.08-2.953-27.536.752-.08zm62.4 5.274l-1.968-43.736H68.9l1.968 43.736h.757z" fill="#B8B8B8"/><path d="M33.626 89.853l4.239 2.421 24.828-9.231 14.383-9.383-43.45 16.193zm-20.893 7.869v.757l.152 2.421.151.908c.152-.151.303-.302.606-.454l19.681-7.264-4.239-2.421-16.35 6.053z" fill="#C4C4C4"/><path d="M79.043 65.185c2.27-.908 4.844-.757 6.964.454l26.948 15.588 1.514.907c.605.303 1.06.909 1.211 1.514v-1.362c.151-1.06 1.06-.606 1.06-.606a3.574 3.574 0 00-1.363-1.21l-2.271-1.21-26.19-15.135c-2.423-1.362-5.148-1.664-7.722-.756l-.151 1.816z" fill="#828282"/><path d="M114.318 81.226a2.11 2.11 0 01.454-.605c-.151-.151-.302-.151-.454-.303l-28.31-16.344c-1.363-.757-3.028-1.21-4.542-1.21-.757 0-1.666.15-2.423.302v.756c.757-.302 1.514-.302 2.423-.302 1.514 0 2.876.454 4.239 1.06l28.31 16.495c.152 0 .152.151.303.151z" fill="#C4C4C4"/><path d="M79.65 53.078c2.27-.908 4.844-.757 6.963.454l26.949 15.588 1.514.908a2.408 2.408 0 011.211 1.513v-1.362c.151-1.06 1.059-.605 1.059-.605a3.57 3.57 0 00-1.362-1.211l-2.271-1.21-26.191-15.135c-2.422-1.362-5.148-1.664-7.721-.756l-.152 1.816z" fill="#828282"/><path d="M114.924 69.12c.151-.303.303-.454.454-.606-.151-.151-.303-.151-.454-.302l-28.31-16.345c-1.363-.757-3.029-1.21-4.542-1.21-.757 0-1.666.15-2.423.302v.757c.757-.303 1.514-.303 2.423-.303 1.513 0 2.876.454 4.239 1.06l28.31 16.344.303.303z" fill="#C4C4C4"/><path d="M79.953 41.425c2.27-.908 4.844-.757 6.963.454l26.949 15.587 1.513.908c.606.303 1.06.908 1.212 1.514v-1.362c.151-1.06 1.059-.606 1.059-.606a3.57 3.57 0 00-1.362-1.21l-2.271-1.211-26.191-15.134c-2.422-1.362-5.148-1.665-7.721-.757l-.151 1.817z" fill="#828282"/><path d="M115.226 57.618a2.09 2.09 0 01.455-.605c-.152-.152-.303-.152-.455-.303l-28.31-16.345c-1.363-.756-3.028-1.21-4.542-1.21-.757 0-1.665.151-2.422.302v.757c.757-.303 1.514-.303 2.422-.303 1.514 0 2.877.454 4.24 1.06l28.31 16.344c.151.152.302.152.302.303zM28.78 113.159c.151 0 .151 0 0 0 .151-.152.151-.152 0 0l2.725 1.513c-.757 0-1.514-.303-2.271-.454v-.303l-1.06-.605c.151 0 .454-.151.606-.151zm0 0c.151 0 .151 0 0 0 .151-.152.151-.152 0 0l2.725 1.513c-.757 0-1.514-.303-2.271-.454v-.303l-1.06-.605c.151 0 .454-.151.606-.151zm0 0c.151 0 .151 0 0 0 .151-.152.151-.152 0 0l2.725 1.513c-.757 0-1.514-.303-2.271-.454v-.303l-1.06-.605c.151 0 .454-.151.606-.151zm0 0c.151 0 .151 0 0 0 .151-.152.151-.152 0 0l2.725 1.513c-.757 0-1.514-.303-2.271-.454v-.303l-1.06-.605c.151 0 .454-.151.606-.151zm0 0c.151 0 .151 0 0 0 .151-.152.151-.152 0 0l2.725 1.513c-.757 0-1.514-.303-2.271-.454v-.303l-1.06-.605c.151 0 .454-.151.606-.151zm0 0c.151 0 .151 0 0 0 .151-.152.151-.152 0 0l2.725 1.513c-.757 0-1.514-.303-2.271-.454v-.303l-1.06-.605c.151 0 .454-.151.606-.151zm4.844-23.306l4.24 2.421-4.543 1.665-4.239-2.421 4.542-1.665zm-4.844 23.306c.151 0 .151 0 0 0 .151-.152.151-.152 0 0l2.725 1.513c-.757 0-1.514-.303-2.271-.454v-.303l-1.06-.605c.151 0 .454-.151.606-.151zm0 0c.151 0 .151 0 0 0 .151-.152.151-.152 0 0l2.725 1.513c-.757 0-1.514-.303-2.271-.454v-.303l-1.06-.605c.151 0 .454-.151.606-.151zm0 0c.151 0 .151 0 0 0 .151-.152.151-.152 0 0l2.725 1.513c-.757 0-1.514-.303-2.271-.454v-.303l-1.06-.605c.151 0 .454-.151.606-.151zm0 0c.151 0 .151 0 0 0 .151-.152.151-.152 0 0l2.725 1.513c-.757 0-1.514-.303-2.271-.454v-.303l-1.06-.605c.151 0 .454-.151.606-.151z" fill="#C4C4C4"/><path d="M11.522 107.408l28.008 16.193a11.05 11.05 0 005.298 1.362c1.212 0 2.574-.151 3.785-.605l65.099-24.366c1.969-.756 3.18-2.421 3.482-4.54.152-2.118-.757-3.934-2.573-4.994l-4.693-2.724-2.725-1.513-3.634-2.12-2.725-1.513-3.633-2.118-2.725-1.514-3.634-2.118-2.725-1.514-1.817-1.059-1.817-.908h-.15l-5.602 3.632c1.21-.454 2.422-.454 3.633-.303.757.152 1.514.454 2.12.757l.302.151 3.785 2.27 2.574 1.514 3.785 2.119 2.573 1.513 3.785 2.27 2.422 1.362 3.785 2.27 2.423 1.362 2.422 1.362c.757.454.757 1.21.757 1.514 0 .302-.152 1.059-.909 1.362l-65.099 24.365c-1.968.757-4.087.605-5.753-.454l-3.633-2.119-2.574-1.513-3.633-2.119c-.757 0-1.514-.303-2.271-.454v-.303l-1.06-.605c.303 0 .454-.151.757-.151h.152l-3.634-2.119-2.574-1.513-3.633-2.119-2.725-1.513-3.028-1.817s-.151 0-.151-.151l-.152-.151c-.454-.454-.454-.908-.454-1.211 0-.151.151-.605.454-.908l-.151-.908-.152-2.421v-.757l-.302.151c-1.514.606-2.574 1.665-3.18 3.178-.15.454-.302.908-.302 1.362-.454 2.119.605 4.087 2.422 5.146z" fill="#C4C4C4"/><path d="M29.537 93.636l45.57-26.333 2.573-1.513.303-.151.909-.454.151-1.968-1.363.454c-.15.152-.454.152-.757.303l-1.816 1.06-46.78 27.089c-.152.151 1.06 1.664 1.21 1.513z" fill="#828282"/><path d="M77.832 64.73c.303-.15 1.06-.605 1.211-.756v-.757c-.151 0-1.363.757-1.363.757-.15 0-.302.151-.454.151L28.932 91.971c.151.152.303.454.454.606L77.832 64.73z" fill="#C4C4C4"/><path d="M77.681 40.062c.908-.454 1.817-.908 2.877-1.059l.605-11.048v-1.362l-3.785-.151-.151 3.48-.606 10.746 1.06-.606z" fill="#828282"/><path d="M76.62 40.668l.91-.605a5.596 5.596 0 011.665-.757l.605-10.594V27.35l-2.573-.151-.152 2.724-.454 10.745z" fill="#9E9E9E"/><path d="M76.016 52.775l1.513-.908c.757-.454 1.514-.757 2.423-1.06l.605-9.837c-.605.152-1.21.455-1.817.757l-2.119 1.21-.605 9.838z" fill="#828282"/><path d="M76.015 52.775l1.514-.908c.303-.151.757-.454 1.211-.605l.606-9.535c-.606.152-1.211.454-1.817.757l-.757.454-.757 9.837z" fill="#9E9E9E"/><path d="M75.258 65.033l1.817-1.06c.151-.15.454-.15.757-.302l1.363-.454.605-10.14c-.454.152-.908.303-1.362.606l-2.574 1.513-.606 9.837z" fill="#828282"/><path d="M75.259 65.033l1.817-1.06c.151-.15.454-.15.757-.302h.151l.606-9.837c-.455.152-.909.303-1.363.606l-1.362.756-.606 9.837z" fill="#9E9E9E"/><path d="M74.653 75.778l3.784.152.606-10.745-.908.454-.303.151-2.574 1.513-.605 8.475z" fill="#828282"/><path d="M74.653 75.778l2.573.151.606-9.988-.909.454-.302.151-1.363.757-.605 8.475zm32.55 10.442l2.725 1.514c-.303-3.481-.606-6.962-.303-10.291l3.482-36.018-2.574-.303-3.482 36.018c-.151 3.027 0 6.054.152 9.08zm-6.208-3.631l2.725 1.513c-.303-3.632-.605-7.113-.303-10.594l3.028-36.018-2.573-.151-3.18 36.018c-.151 3.027 0 6.205.303 9.232zm-6.358-3.633l2.725 1.514c-.303-3.632-.606-6.962-.303-10.442l3.179-36.019-2.573-.151-3.18 36.018c-.302 2.876-.151 6.054.152 9.08zm-6.358-3.632l2.725 1.514c-.303-3.481-.606-6.81-.152-10.14l3.634-36.17-2.574-.302-3.633 36.17c-.303 3.026-.152 5.902 0 8.928zm-6.209-2.572c.91 0 1.666.302 2.575.605 0-.908-.152-1.968 0-2.876L88.731 27.2l-2.573-.151L82.07 70.33v2.422z" fill="#9E9E9E"/><path d="M108.716 86.826c-.302-3.178-.454-6.205-.151-9.383l3.482-35.413-1.363-.151-3.482 35.413c-.302 3.027-.151 6.053.152 8.626l1.362.908zm-6.358-3.632c-.303-3.027-.455-6.356-.303-9.534l3.179-35.564-1.362-.152-3.18 35.565c-.302 3.178-.151 6.204.152 8.777l1.514.908zm-6.359-3.784c-.303-3.329-.454-6.355-.152-9.534l3.18-35.564-1.363-.151-3.18 35.564c-.15 2.573-.15 5.297.152 8.778L96 79.41zm-6.207-3.631c-.303-3.027-.454-6.054-.152-9.08l3.634-35.565-1.363-.151-3.633 35.564c-.303 3.027-.152 6.053 0 8.475l1.514.757zM83.434 72.6v-2.118l4.088-42.678-1.363-.15-4.087 42.676v1.968c.454.151.908.302 1.362.302z" fill="#B1B1B1"/><path d="M31.071 90.413l2.448 27.132-1.809.163-2.448-27.132 1.81-.163zm-8.674-5.128l2.448 27.132-1.81.163-2.448-27.131 1.81-.164zm-7.33-3.899l2.448 27.132-1.809.163-2.448-27.132 1.809-.163zm22.646 14.217l.606 6.811.151 2.421.757 9.08.152 2.27.302 4.238s.152 1.967 2.12 2.27c1.665.303 1.816-1.059 1.816-1.059l-.454-4.389-.151-1.968-.757-9.08-.151-1.967-.757-8.778-3.634.151zM7.131 78.351l1.212 13.772.605 6.205.303 2.573.151 2.118s.152 1.968 1.817 1.968a2.406 2.406 0 002.12-1.211l-.152-2.27-.151-.908-.152-2.422v-.756l-.454-5.902-.151-2.12-1.06-11.652-4.088.605z" fill="#9E9E9E"/><path d="M11.976 89.701l.152 2.12 63.737-36.776 2.573-1.513c.454-.303.909-.454 1.363-.606l.151-2.118c-.757.151-1.665.605-2.422 1.059l-1.514.908-64.04 36.926z" fill="#828282"/><path d="M78.135 52.624c.303-.152 1.514-.757 1.968-.908v-.908c-.454.151-1.968.908-2.422 1.21l-1.514.908-63.585 36.775.151.908 65.402-37.985z" fill="#C4C4C4"/><path d="M12.582 77.746l1.968 1.06 61.92-35.868 2.12-1.21c.605-.303 1.21-.606 1.816-.757l.151-2.119c-1.06.151-1.968.605-2.876 1.06l-.909.605-64.19 37.229z" fill="#828282"/><path d="M76.318 42.181l2.12-1.21c.454-.303 1.665-.606 2.12-.908v-.908c-.758.151-1.969.605-2.575 1.059l-.908.605-63.282 36.473.757.454L76.318 42.18z" fill="#C4C4C4"/><path d="M7.434 80.621v.606s1.211 1.21 1.211 2.42c0 1.212 2.574-2.723 2.574-2.723v-.152l-.152-2.118v-.303l-3.633 2.27z" fill="#9E9E9E"/><path d="M102.358 101.506c.908.151 1.059-.908 1.059-.908l-2.876-40.408-1.817.152 2.877 40.407c0-.151-.152.454.757.757zm-6.51 2.27c.757-.151 1.06-.908 1.06-.908l-2.877-38.44-1.817.151 2.877 38.44c-.152 0-.152.757.757.757zm-6.813 2.421c.757.152 1.06-.908 1.06-.908l-2.876-36.624-1.817.152 2.876 36.624s0 .605.757.756zm-6.661 2.724c.908.303 1.211-.756 1.211-.756l-2.876-35.262-1.817.151 2.876 34.808c-.151.151-.302.757.606 1.059zm-6.814 2.573c1.363.303 1.212-.757 1.212-.757L73.895 77.14l-1.816.152 2.876 33.143c0 .151 0 .908.606 1.059zm-6.509 2.422c.757.151 1.06-.757 1.06-.757l-2.877-31.63-1.816.152 2.876 31.629s0 .454.757.606zm-6.51 2.269c1.06 0 .908-.908.908-.908l-2.876-29.51-1.817.15 2.877 29.512s0 .756.908.756zm-6.964 2.725c1.363.151 1.211-1.06 1.211-1.06l-2.725-27.694-1.817.15 2.725 27.696c-.15-.152 0 .756.606.908zm-6.662 2.572c1.06.152 1.212-.908 1.212-.908L47.25 94.242l-1.817.151 2.725 26.03c0 .151.152 1.059.757 1.059zm60.104-22.549c.454 0 .606-.757.606-.757l-1.968-42.223-1.817.151 1.968 42.375c0-.151.303.454 1.211.454z" fill="#828282"/><path d="M102.358 100.9c.151 0 .302-.454.302-.454l-2.876-39.65h-.757l2.876 39.802c0 .151.152.302.455.302zm-6.965 2.27c.454 0 .606-.454.606-.454l-2.877-37.683h-.757l2.877 37.835v.151l.151.151zm-6.51 2.573c.151 0 .303-.151.303-.454l-2.877-36.018h-.757l2.877 36.169c.151.152.151.152.454.303zm-6.51 2.724c.152 0 .303-.302.303-.454l-2.877-34.505h-.757l2.877 34.354c0 .303 0 .454.454.605zm-6.66 2.573h.151l-2.725-33.143h-.757l2.876 32.689s0 .454.303.454h.152zm-6.813 2.27c.151 0 .303-.151.454-.303l-2.725-30.873h-.757l2.725 31.176h.303zm-6.662 2.421h.303v-.151l-2.725-29.057h-.757l2.725 28.906c.151.151.303.302.454.302zm-6.661 2.573c.15 0 .302 0 .302-.151.152-.151.152-.303.152-.303l-2.725-27.24h-.757l2.725 27.089s0 .454.151.454l.152.151zm-6.662 2.724c.303 0 .455-.302.455-.302l-2.725-25.728-.758.151 2.726 25.425c-.152 0 0 .454.302.454zm59.802-22.7v-.303l-1.969-41.467h-.757l1.969 41.618c.302 0 .454.151.757.151z" fill="#B8B8B8"/><path d="M8.191 70.481l68.733-44.644c3.482-2.27 7.872-2.422 11.506-.303l29.219 16.95c1.665.908 2.574 2.573 2.725 4.54 0 1.968-.908 3.632-2.422 4.692l-4.845 3.178-1.817 1.21-26.645 17.404-5.601 3.632L49.37 96.511a10.92 10.92 0 01-6.056 1.817c-1.817 0-3.785-.454-5.45-1.514l-4.542-2.573-4.24-2.421-18.318-10.594-1.968-1.059-.454-.151c-1.665-.908-2.574-2.724-2.725-4.54.151-2.27 1.06-3.935 2.573-4.995zm2.12 5.903l2.27 1.362 1.969 1.059 19.076 11.048 4.239 2.421 1.816 1.06c2.423 1.361 5.3 1.21 7.57-.152l15.442-10.14 14.534-9.383 30.43-19.825 1.817-1.21 6.51-4.238c.756-.454.756-1.06.756-1.362 0-.303-.151-.908-.756-1.362l-29.22-16.95c-1.665-.908-3.481-1.21-5.298-.756-.757.15-1.514.454-2.271.908l-1.665 1.059-67.068 43.585c-.757.454-.757 1.06-.757 1.362-.151.454-.15 1.06.606 1.514zM7.283 94.998c0 1.362.606 2.573 1.514 3.48.151.152.454.304.606.455l3.33 1.967 25.737 14.831.908.454a8.826 8.826 0 003.937.908l-.152-1.967c-1.21 0-2.573-.454-3.633-1.059l-.303-.152-26.645-15.436-2.12-1.21c-.757-.455-1.21-1.212-1.21-2.12 0-.15 0-.454.15-.605 0-1.21-1.06-2.119-1.06-2.119-.605.454-1.059 1.514-1.059 2.573z" fill="#C4C4C4"/><path d="M42.709 114.975c-1.211-.152-2.27-.454-3.33-1.06L10.31 97.117c-.909-.606-1.514-1.514-1.514-2.724 0-.303 0-.606.151-.757 0-.454-.151-.757-.454-1.06a4.188 4.188 0 00-.454 1.968c0 1.21.454 2.27 1.363 3.027.15.151.302.303.605.454l3.33 1.967 25.738 14.831c.302.152.605.303.757.454.908.454 1.968.757 3.027.757l-.151-1.059z" fill="#E0E0E0"/><path d="M6.678 83.8c0 1.664.757 3.026 2.271 3.934l29.37 16.95s.152 0 .152.151c1.211.606 2.574 1.06 3.936 1.211l-.151-1.968c-1.06-.151-1.968-.454-2.877-1.059l-1.06-.605L9.858 86.069c-.757-.454-1.212-1.21-1.212-2.118 0-1.211-1.21-2.422-1.21-2.422-.455.454-.758 1.362-.758 2.27z" fill="#C4C4C4"/><path d="M41.65 103.927a6.8 6.8 0 01-2.726-1.059l-29.37-16.95c-.909-.605-1.514-1.513-1.514-2.724 0-.605-.303-1.06-.606-1.514-.151.455-.302.909-.302 1.514 0 1.362.756 2.724 1.968 3.48l29.37 16.95h.151c.909.455 1.968.909 3.028 1.06v-.757z" fill="#E0E0E0"/><path d="M112.199 87.431l.605-6.356.152-2.118V78.2l.151-2.422.606-6.507.151-2.119v-.605l.151-2.421.606-6.205.151-2.12.303-2.875 2.422-1.513c.757-.454 1.363-1.06 1.666-1.816l-.909 8.929-.454 5.448-.454 5.6-.606 6.356-.454 5.6-.605 5.75-.909 8.324s-.454 2.421-2.119 2.421c-1.211 0-1.665-1.21-1.665-1.21l.605-7.114.606-2.27z" fill="#828282"/><path d="M112.653 97.722c1.059 0 1.513-1.967 1.665-1.967l.908-8.324 3.331-35.715c-.152.151-.454.302-.757.454l-2.12 1.362-.302 2.573-.152 2.118-.908 9.08-.152 2.12-.908 9.685-.151 2.118-.757 8.627-.606 6.961c0 .303.303.908.909.908z" fill="#B8B8B8"/><path d="M67.538 113.31c.151 0 1.514-.454 2.12-.151.605.303.757.757.757.757l41.633-24.215 3.179-1.816c.303-.15.605-.302.757-.605.908-.757 1.362-1.967 1.362-3.178 0-.908-.302-1.816-.757-2.573 0 0-1.059-.302-1.059.606v1.816c0 .908-.454 1.664-1.211 2.118l-2.12 1.211-44.661 26.03z" fill="#828282"/><path d="M114.772 86.977a2.06 2.06 0 00.605-.454c.757-.756 1.212-1.664 1.212-2.724 0-.757-.152-1.513-.606-1.967-.151 0-.151 0-.151.151V83.8c0 1.06-.606 2.119-1.514 2.573l-2.12 1.21-42.693 24.669c.303.151.454.302.606.454l44.661-25.728z" fill="#C4C4C4"/><path d="M43.163 114.975l.152 1.967h.151c1.665 0 3.482-.454 4.996-1.362l64.494-37.229 3.482-1.967c.151-.152.454-.303.605-.454 1.06-.757 1.666-2.119 1.666-3.481 0-1.06-.303-2.119-1.06-2.875 0 0-1.06-.303-1.06.605v1.21c.151.303.151.606.151 1.06 0 .908-.454 1.665-1.211 2.119l-2.271 1.21-65.553 38.138c-1.362.756-3.028 1.21-4.542 1.059z" fill="#828282"/><path d="M42.709 115.731c1.514 0 4.088-.302 5.45-1.059l67.824-39.196c.152-.152.303-.303.606-.303.908-.757 1.362-1.816 1.362-3.027 0-.908-.302-1.665-.756-2.27-.152 0-.152 0-.152.151v1.06c.152.151.152.605.152 1.06 0 1.058-.606 2.118-1.514 2.723l-67.825 39.197c-1.21.756-3.633.908-5.147.908v.756z" fill="#C4C4C4"/><path d="M42.255 103.927l.151 1.968h1.06c1.666 0 3.482-.454 4.996-1.362l65.705-37.986 3.028-1.665c.454-.303.757-.454 1.059-.908.757-.757 1.212-1.816 1.212-3.027 0-.908-.152-1.664-.606-2.421 0 0-1.211-.454-1.211.605-.151 1.06 0 1.665 0 1.665 0 .908-.454 1.816-1.211 2.27l-1.817 1.06-67.218 38.893c-1.514.908-3.331 1.211-5.148.908z" fill="#828282"/><path d="M43.315 104.986c1.665 0 3.33-.454 4.844-1.21l68.581-39.802c.303-.151.757-.454.909-.757.605-.756 1.06-1.664 1.06-2.724 0-.605-.152-1.362-.455-1.816h-.151c-.151 0-.151 0-.151.151-.152.908 0 1.514 0 1.514 0 1.21-.606 2.27-1.514 2.875l-68.733 39.651c-1.362.756-2.876 1.21-4.39 1.21-.152 0-1.363-.302-1.514-.302v.908c.151 0 1.362.302 1.514.302z" fill="#C4C4C4"/><path d="M43.163 96.209c1.968 0 3.785-.606 5.45-1.665l29.673-19.371 39.06-25.425c1.362-.908 2.119-2.27 1.968-3.935 0-1.513-.909-3.026-2.271-3.783l-29.22-16.95c-1.513-.908-3.33-1.362-4.995-1.362-1.968 0-3.785.605-5.45 1.665L8.645 70.028c-1.362.907-2.12 2.27-1.968 3.783 0 1.513.908 2.875 2.27 3.783l29.22 16.95c1.514 1.21 3.33 1.665 4.996 1.665zm39.816-70.22c1.363 0 2.725.302 3.937 1.059l29.218 16.95c1.212.756 1.212 1.815 1.212 2.118 0 .605-.303 1.665-1.212 2.27l-6.509 4.238-1.817 1.21L77.68 73.508l-14.533 9.383-15.442 10.14c-1.363.908-2.877 1.362-4.39 1.362-1.363 0-2.877-.454-4.088-1.06l-1.817-1.059-4.24-2.421-23.314-13.47c-.757-.453-1.21-1.21-1.21-2.118 0-1.06.453-1.816 1.21-2.27L78.59 27.35c.908-.454 1.665-.908 2.574-1.06.454-.302 1.06-.302 1.816-.302z" fill="#E0E0E0"/><path d="M78.135 27.35c2.574-.302 3.028-2.572 3.028-2.572l3.179-6.205 11.203-5.6.757-6.658-14.382 9.231-.454.454-5.148 10.442s-.151 1.211 1.817.909z" fill="#828282"/><path d="M131.122 36.128l2.877-4.843L95.545 9.04c-.909-.454-2.12-.152-2.574.756l-.303.454c-.908 1.514-.302 3.633 1.212 4.54l37.242 21.34z" fill="url(#paint1_linear_222_58085)"/><path d="M122.796 40.97l1.06-1.815-39.363-22.7c-.302-.152-.757-.152-.908.302l-.151.151c-.303.605-.152 1.362.454 1.665l38.908 22.398z" fill="url(#paint2_linear_222_58085)"/><path d="M96.453 6.315l-2.12-1.362L81.466 16l1.363.908L96.453 6.315z" fill="#E0E0E0"/><path d="M78.135 27.35l4.693-10.593-1.514-.908-5.148 10.442c.152.151 0 1.362 1.969 1.06z" fill="#B8B8B8"/><path d="M116.892 47.327c0 .303 0 1.21 1.362 1.06h.303c1.06.15 1.06 1.815 1.06 1.815l4.239-8.777 11.203-5.6.757-6.659-14.383 9.232-.454.454-.151.303-3.936 8.172z" fill="#828282"/><path d="M135.967 29.318l-2.119-1.513-12.869 11.199 1.363.756 13.625-10.442z" fill="#E0E0E0"/><path d="M116.891 47.327c0 .303 0 1.21 1.363 1.06h.303l3.784-8.475-1.514-.908-3.936 8.323z" fill="#B8B8B8"/><rect width="23.191" height="23.191" rx="11.596" transform="matrix(.86603 -.5 0 1 49 37.596)" fill="#114510"/><path fill="#fff" d="M58.038 38.562l2.008-1.16v10.823l-2.008 1.16z"/><path fill="#fff" d="M63.728 39.528v2.32l-9.373 5.41V44.94z"/><path d="M51.938 55.685l2.396 1.16 12.794-25.24-1.43-.735-13.76 24.815z" fill="#114510"/><rect width="23.191" height="23.191" rx="11.596" transform="matrix(.86603 -.5 0 1 50.531 38.369)" fill="#1D9F3A"/><path fill="#fff" d="M59.569 39.335l2.008-1.16V49l-2.008 1.159z"/><path fill="#fff" d="M65.26 40.301v2.32l-9.373 5.41v-2.318z"/><defs><linearGradient id="paint0_linear_222_58085" x1="173.782" y1="61.498" x2="-392.254" y2="543.715" gradientUnits="userSpaceOnUse"><stop stop-color="#D7D4D2"/><stop offset=".549" stop-color="#BAAEA8"/><stop offset=".916" stop-color="#B3A7A1"/></linearGradient><linearGradient id="paint1_linear_222_58085" x1="113.872" y1="19.574" x2="111.024" y2="24.508" gradientUnits="userSpaceOnUse"><stop offset=".126" stop-color="#24B35F"/><stop offset=".214" stop-color="#37A665"/><stop offset=".469" stop-color="#128742"/><stop offset=".495" stop-color="#2B9155"/><stop offset=".797" stop-color="#128742"/><stop offset=".833" stop-color="#0E602F"/></linearGradient><linearGradient id="paint2_linear_222_58085" x1="103.88" y1="27.699" x2="102.833" y2="29.512" gradientUnits="userSpaceOnUse"><stop offset=".126" stop-color="#E7E8E9"/><stop offset=".127" stop-color="#DBDBDB"/><stop offset=".438" stop-color="#DBDBDB"/><stop offset=".441" stop-color="#A9AAAB"/><stop offset=".837" stop-color="#A9AAAB"/><stop offset=".839" stop-color="#7E7F80"/></linearGradient></defs></svg>