<svg width="170" height="170" fill="none" xmlns="http://www.w3.org/2000/svg"><path fill-rule="evenodd" clip-rule="evenodd" d="M112.039 136.85c-.426 0-.851 0-1.063-.212-.638-.426-1.276-.851-1.489-.851-17.007-10.417-39.754-23.172-53.573-30.613-1.488-.638-1.488-2.551 0-3.402l10.417-5.527c1.063-.638 2.126-.85 3.19-.85.85 0 1.912.212 2.763.425 15.306 7.228 35.503 19.346 50.172 29.763 1.488 1.063 2.976 1.913 2.976 3.401 0 .638-.425 1.063-1.063 1.488l-11.48 6.166c-.213.212-.638.212-.85.212z" fill="#000" fill-opacity=".302"/><path fill-rule="evenodd" clip-rule="evenodd" d="M112.464 135.362c-.425 0-.638-.213-1.063-.425-.638-.425-1.276-.638-1.488-.851-17.008-10.417-39.542-23.172-53.148-30.613-1.489-.638-1.489-2.551 0-3.401l9.779-5.528c1.063-.638 2.126-.85 3.189-.85.85 0 1.7.212 2.55.638 15.095 7.015 35.291 19.133 49.96 29.55 1.488 1.063 2.976 1.913 2.976 3.401 0 .638-.425 1.063-.85 1.489l-11.055 6.165c-.212.212-.638.425-.85.425z" fill="#D9D9D9"/><path fill-rule="evenodd" clip-rule="evenodd" d="M109.062 131.748c-15.944-9.779-38.054-22.322-50.384-28.913-.213-1.063-.213-2.126.85-2.551 14.244 6.165 36.354 19.133 50.81 29.338.638 1.063 1.275 2.338 1.063 3.614-.638-.425-1.914-1.063-2.339-1.488z" fill="#E5E5E5"/><path fill-rule="evenodd" clip-rule="evenodd" d="M122.881 126.646l-11.48 6.59c.212-1.275-.425-2.551-1.063-3.614l9.141-5.102 2.551-1.488c.638 1.063 1.276 2.338.851 3.614z" fill="#BFBFBF"/><path fill-rule="evenodd" clip-rule="evenodd" d="M122.03 123.032l-2.551 1.488-9.141 5.102c-14.456-10.204-36.566-23.173-50.81-29.338l11.693-6.803c14.243 6.378 36.353 19.134 50.809 29.551z" fill="#D1D1D1"/><path fill-rule="evenodd" clip-rule="evenodd" d="M96.732 116.229l-16.37-9.354V93.906l16.37 9.355v12.968z" fill="#B2B2B2"/><path fill-rule="evenodd" clip-rule="evenodd" d="M99.92 114.528l-3.188 1.701v-12.968l3.189-1.701v12.968z" fill="#999"/><path fill-rule="evenodd" clip-rule="evenodd" d="M48.899 8.444c-.85-.425-1.701-.637-2.339-.212L43.796 9.72c.638-.213 1.489-.213 2.339.212l84.824 49.11 2.764-1.701L48.899 8.444z" fill="#A3A3A3"/><path fill-rule="evenodd" clip-rule="evenodd" d="M133.723 57.34l-2.764 1.701c1.701.85 3.189 3.614 3.189 5.528l2.764-1.488c0-2.126-1.488-4.678-3.189-5.74z" fill="#CCC"/><path fill-rule="evenodd" clip-rule="evenodd" d="M134.148 64.569v56.762c0 1.063-.212 1.701-.85 2.126l2.551-1.488c.638-.426 1.063-1.063 1.063-2.126V63.081l-2.764 1.488z" fill="#999"/><path fill-rule="evenodd" clip-rule="evenodd" d="M46.135 74.348c-1.7-1.063-3.189-3.614-3.189-5.74V11.846c0-1.913 1.488-2.976 3.189-1.913l84.824 49.108c1.701.85 3.189 3.614 3.189 5.528v56.762c0 2.126-1.488 2.976-3.189 1.913L46.135 74.348z" fill="#C2C2C2"/><path fill-rule="evenodd" clip-rule="evenodd" d="M130.959 59.68L46.135 10.782c-1.488-.85-2.551-.213-2.551 1.488v56.762c0 1.701 1.063 3.614 2.55 4.465l84.825 48.896c1.488.85 2.551.212 2.551-1.488v-56.55c0-1.7-1.063-3.826-2.551-4.677z" fill="#333"/><path fill-rule="evenodd" clip-rule="evenodd" d="M47.623 69.246V15.46l82.273 47.62v53.786l-82.273-47.62z" fill="#1D9F3A"/><path fill-rule="evenodd" clip-rule="evenodd" d="M47.623 15.46l-.425-.213v54.424l.425-.425V15.46z" fill="gray"/><path fill-rule="evenodd" clip-rule="evenodd" d="M47.623 69.246l-.425.425 82.698 47.621v-.425L47.623 69.246z" fill="#C2C2C2"/><path fill-rule="evenodd" clip-rule="evenodd" d="M89.291 37.995c0 .638-.212.85-.638.638-.637-.426-.85-1.064-.85-1.489 0-.425.213-.637.85-.425.426.213.638.85.638 1.276z" fill="#666"/><path fill-rule="evenodd" clip-rule="evenodd" d="M96.732 161.298c-.213 0-.425 0-.638-.212L16.16 114.953c-.213-.213-.213-.638 0-.85l23.172-13.394h1.7l79.723 46.133c.425.212.425.638 0 .85l-23.173 13.394c-.212.212-.637.212-.85.212z" fill="#000" fill-opacity=".302"/><path fill-rule="evenodd" clip-rule="evenodd" d="M117.991 142.803c.213.212.425.212.425.425 0 .212-.425.212-.425.212l-.425-.425.425-.212z" fill="gray"/><path fill-rule="evenodd" clip-rule="evenodd" d="M97.157 158.109l1.488-.85v-.425l-1.913 1.063v.425l.425.212v-.425z" fill="#333"/><path fill-rule="evenodd" clip-rule="evenodd" d="M98.858 157.472l-1.7 1.063v-.426l1.7-1.063v.426z" fill="#4D4D4D"/><path fill-rule="evenodd" clip-rule="evenodd" d="M115.44 147.48l1.488-.851v-.425l-1.913 1.063v.425h.212l.213.213v-.425z" fill="#333"/><path fill-rule="evenodd" clip-rule="evenodd" d="M117.141 147.055l-1.488.85h-.213v-.425l1.913-1.063v.425l-.212.213z" fill="#4D4D4D"/><path fill-rule="evenodd" clip-rule="evenodd" d="M96.732 157.046l-78.021-44.219v1.063l77.383 44.644.638-1.488z" fill="#BFBFBF"/><path fill-rule="evenodd" clip-rule="evenodd" d="M96.307 157.472l.425-.426c-.425.213-1.063.213-1.488 0l.85.638c0-.212 0-.212.213-.212z" fill="#B3B3B3"/><path fill-rule="evenodd" clip-rule="evenodd" d="M118.204 145.992l-21.897 12.543h-.213v-.851c0-.212 0-.212.213-.212l21.897-14.244c0-.213.212 0 .212 0v2.338c0 .213-.212.213-.212.426z" fill="gray"/><path fill-rule="evenodd" clip-rule="evenodd" d="M19.136 112.402l21.046-13.606c.213-.213.85-.213 1.276 0l76.321 43.794c.425.213.425.638 0 .85l-21.047 13.606c-.425.213-1.063.213-1.488 0l-76.108-43.581c-.425-.425-.425-.638 0-1.063z" fill="#B3B3B3"/><path fill-rule="evenodd" clip-rule="evenodd" d="M87.165 135.149l.213.638s0 .213.213.213l1.275.85c.425.213-1.063 1.276-1.063 1.276l-2.338 1.275v.425s0 .213.212.213l2.976 1.701c.213.212.638.212.85 0l7.016-4.465c.213 0 .213-.212.213-.212v-.425l-9.567-1.489z" fill="#D6D6D6"/><path fill-rule="evenodd" clip-rule="evenodd" d="M96.52 136.212l-5.528-2.976c-.213-.212-.638-.212-.85 0l-2.764 1.701c-.213.212-.213.425 0 .638l1.488.85c.213 0 .213.213 0 .425l-3.401 2.126c-.213.213-.213.425.212.638l2.976 1.701c.213.212.638.212.85 0l7.016-4.465c.213-.212.213-.425 0-.638z" fill="#F7F7F7"/><path fill-rule="evenodd" clip-rule="evenodd" d="M72.284 141.952v.638s0 .213.212.213l7.654 4.464c.425.213.637.213.85 0l2.976-1.701v-.85l-11.692-2.764z" fill="#D6D6D6"/><path fill-rule="evenodd" clip-rule="evenodd" d="M83.764 144.503l-7.653-4.464c-.213-.213-.638-.213-.85 0l-2.977 1.701c-.213.212-.213.425.212.637l7.654 4.465H81l2.764-1.913c.425 0 .212-.426 0-.426z" fill="#F7F7F7"/><path fill-rule="evenodd" clip-rule="evenodd" d="M29.128 107.087v.425s0 .213.212.213l7.654 4.464c.425.213.637.213 1.063 0l2.763-1.7c0-.213.213-.213 0-.425v-.426l-11.692-2.551z" fill="#D6D6D6"/><path fill-rule="evenodd" clip-rule="evenodd" d="M40.608 109.426l-7.654-4.465c-.212-.212-.638-.212-.85 0l-2.764 1.701c-.425.213-.212.425 0 .638l7.653 4.464h.85l2.977-1.913c.213 0 .213-.425-.212-.425z" fill="#F7F7F7"/><path fill-rule="evenodd" clip-rule="evenodd" d="M20.624 112.402v.425c0 .213.213.213.213.425l7.865 4.465h.85l2.764-1.914.213-.212-.213-.425-11.692-2.764z" fill="#D6D6D6"/><path fill-rule="evenodd" clip-rule="evenodd" d="M32.316 114.74l-7.865-4.464h-.85l-2.764 1.913c-.213.213-.213.426 0 .426l7.653 4.464c.425.213.85.213 1.063 0l2.763-1.701c.213-.212.213-.425 0-.638z" fill="#F7F7F7"/><path fill-rule="evenodd" clip-rule="evenodd" d="M36.993 121.756v.638l.213.212 26.574 15.307h.85L67.394 136c.213 0 .213-.213.213-.213v-.425l-30.614-13.606z" fill="#D6D6D6"/><path fill-rule="evenodd" clip-rule="evenodd" d="M63.78 137.275l-26.574-15.094c-.212-.212-.212-.425 0-.638l2.764-1.7c.212-.213.638-.213.85 0l26.574 15.094c.213.212.213.425 0 .637l-2.764 1.701c-.212.213-.637.213-.85 0z" fill="#F7F7F7"/><path fill-rule="evenodd" clip-rule="evenodd" d="M78.874 140.677v.425c0 .213 0 .213.213.425l5.315 2.976c.212.213.637.213.85 0l2.976-1.7v-.851l-9.354-1.275z" fill="#D6D6D6"/><path fill-rule="evenodd" clip-rule="evenodd" d="M88.016 141.74l-5.315-3.189h-.85l-2.977 1.913c-.212 0-.212.425.213.425l5.315 3.189c.212.213.637.213.85 0l2.764-1.913c.212 0 .212-.213 0-.425z" fill="#F7F7F7"/><path fill-rule="evenodd" clip-rule="evenodd" d="M65.268 138.126v.425s0 .212.213.212l5.315 3.189h.85l2.976-1.913v-.638l-9.354-1.275z" fill="#D6D6D6"/><path fill-rule="evenodd" clip-rule="evenodd" d="M74.41 139.189L69.095 136c-.425-.213-.638-.213-.85 0l-2.977 1.701c-.212.212-.212.425.213.637l5.315 2.977c.212.212.637.212.85 0l2.764-1.701c.212-.213.212-.425 0-.425z" fill="#F7F7F7"/><path fill-rule="evenodd" clip-rule="evenodd" d="M33.38 104.323v.426c0 .212 0 .212.212.212l5.315 3.189c.425.213.638.213.85 0l2.977-1.701v-.85l-9.355-1.276z" fill="#D6D6D6"/><path fill-rule="evenodd" clip-rule="evenodd" d="M42.521 105.386l-5.315-3.188c-.212-.213-.638-.213-.85 0l-2.977 1.913c-.212 0-.212.212.213.425l5.315 3.189h.85l2.764-1.913c.213-.213.213-.426 0-.426z" fill="#F7F7F7"/><path fill-rule="evenodd" clip-rule="evenodd" d="M24.876 109.638v.638s0 .213.212.213l5.528 3.188h.85l2.764-1.913.212-.212-.212-.638-9.354-1.276z" fill="#D6D6D6"/><path fill-rule="evenodd" clip-rule="evenodd" d="M34.017 110.701l-5.315-2.976c-.212-.213-.637-.213-.85 0l-2.764 1.701c-.212.212-.212.425 0 .637l5.315 2.977c.425.212.638.212.85 0l2.977-1.701c.212-.213.212-.425-.213-.638z" fill="#F7F7F7"/><path fill-rule="evenodd" clip-rule="evenodd" d="M29.978 117.717v.638l.213.212 5.527 3.189h.85l2.764-1.913c.213 0 .213-.213.213-.213v-.425l-9.567-1.488z" fill="#D6D6D6"/><path fill-rule="evenodd" clip-rule="evenodd" d="M39.332 118.78l-5.527-2.977c-.213-.212-.638-.212-.85 0l-2.764 1.701c-.213.213-.213.425 0 .638l5.527 2.976c.213.213.638.213.85 0l2.764-1.7c.213-.213.213-.426 0-.638z" fill="#F7F7F7"/><path fill-rule="evenodd" clip-rule="evenodd" d="M99.283 154.07v-.638h-7.016v.638s0 .213.213.213l2.976 1.7c.213.213.638.213.85 0l2.764-1.7.213-.213z" fill="#D6D6D6"/><path fill-rule="evenodd" clip-rule="evenodd" d="M95.456 155.558l-2.976-1.701c-.425-.212-.425-.425-.213-.637l2.764-1.701c.425-.213.638-.213 1.063 0l2.976 1.701c.213.212.213.425 0 .425l-2.763 1.913c-.213.213-.638.213-.85 0z" fill="#F7F7F7"/><path fill-rule="evenodd" clip-rule="evenodd" d="M94.606 151.306v-.425h-7.015v.425s0 .213.212.213l2.976 1.913h.85l2.764-1.913c.213 0 .213-.213.213-.213z" fill="#D6D6D6"/><path fill-rule="evenodd" clip-rule="evenodd" d="M90.78 152.795l-3.19-1.701c-.212-.213-.212-.425 0-.638l2.764-1.701c.213-.212.638-.212 1.063 0l2.977 1.701c.212.213.212.425 0 .638l-2.764 1.701c-.213.212-.638.212-.85 0z" fill="#F7F7F7"/><path fill-rule="evenodd" clip-rule="evenodd" d="M89.929 148.543v-.426h-7.228l.212.426c0 .212 0 .212.213.425l2.976 1.701c.213.212.638.212.85 0l2.764-1.914c.213 0 .213 0 .213-.212z" fill="#D6D6D6"/><path fill-rule="evenodd" clip-rule="evenodd" d="M86.102 150.243l-3.189-1.913c-.212 0-.212-.425 0-.425l2.764-1.913h.85l3.19 1.913c.212 0 .212.212 0 .425l-2.764 1.913h-.85z" fill="#F7F7F7"/><path fill-rule="evenodd" clip-rule="evenodd" d="M98.858 148.543v-.426H91.63l.212.426c0 .212 0 .212.213.212l2.976 1.914h.85l2.764-1.914c.213 0 .213 0 .213-.212z" fill="#D6D6D6"/><path fill-rule="evenodd" clip-rule="evenodd" d="M95.031 150.031l-3.189-1.701c-.212-.213-.212-.425 0-.425l2.764-1.913h.85l3.19 1.913c.212 0 .212.212 0 .425l-2.764 1.701c-.213.212-.638.212-.85 0z" fill="#F7F7F7"/><path fill-rule="evenodd" clip-rule="evenodd" d="M112.039 145.779v-.425h-7.229v.425c0 .213.213.213.213.425l3.189 1.701c.213.212.638.212.85 0l2.764-1.913c.213 0 .213 0 .213-.213z" fill="#D6D6D6"/><path fill-rule="evenodd" clip-rule="evenodd" d="M108.212 147.48l-3.189-1.914c-.213 0-.213-.425 0-.425l2.764-1.913h.85l3.189 1.913c.213 0 .213.213 0 .425l-2.764 1.914h-.85z" fill="#F7F7F7"/><path fill-rule="evenodd" clip-rule="evenodd" d="M107.362 143.228v-.638h-7.229v.638l.213.212 3.189 1.701c.212.213.638.213.85 0l2.764-1.701.213-.212z" fill="#D6D6D6"/><path fill-rule="evenodd" clip-rule="evenodd" d="M103.535 144.716l-3.189-1.701c-.213-.212-.213-.425 0-.637l2.764-1.701c.212-.213.637-.213.85 0l3.189 1.701c.212.212.212.425 0 .425l-2.764 1.913c-.212.213-.638.213-.85 0z" fill="#F7F7F7"/><path fill-rule="evenodd" clip-rule="evenodd" d="M102.685 140.464v-.425h-7.228v.425l.212.213 3.189 1.913h.85l2.764-1.913c.213 0 .213-.213.213-.213z" fill="#D6D6D6"/><path fill-rule="evenodd" clip-rule="evenodd" d="M98.858 141.952l-3.189-1.7c-.213-.213-.213-.426 0-.638l2.764-1.701c.212-.212.637-.212.85 0l3.189 1.701c.213.212.213.425 0 .638l-2.764 1.7c-.212.213-.638.213-.85 0z" fill="#F7F7F7"/><path fill-rule="evenodd" clip-rule="evenodd" d="M116.29 143.015v-.425h-7.228v.638l.213.212 3.189 1.701c.212.213.638.213.85 0l2.764-1.701c.212-.212.212-.212.212-.425z" fill="#D6D6D6"/><path fill-rule="evenodd" clip-rule="evenodd" d="M112.464 144.716l-3.189-1.701c-.213-.212-.213-.425 0-.637l2.764-1.701c.212-.213.637-.213.85 0l3.189 1.701c.212.212.212.425 0 .425l-2.764 1.913h-.85z" fill="#F7F7F7"/><path fill-rule="evenodd" clip-rule="evenodd" d="M111.613 140.464v-.638l-7.228.213v.425l.213.213 3.189 1.701c.212.212.637.212.85 0l2.764-1.701.212-.213z" fill="#D6D6D6"/><path fill-rule="evenodd" clip-rule="evenodd" d="M107.787 141.952l-3.189-1.7c-.213-.213-.213-.426 0-.638l2.764-1.701c.212-.212.637-.212.85 0l3.189 1.701c.212.212.212.425 0 .638l-2.764 1.7c-.212.213-.638.213-.85 0z" fill="#F7F7F7"/><path fill-rule="evenodd" clip-rule="evenodd" d="M106.936 137.7l-.212-.425h-7.016v.425c0 .213.213.213.213.426l3.189 1.7h.85l2.764-1.913s.212 0 .212-.213z" fill="#D6D6D6"/><path fill-rule="evenodd" clip-rule="evenodd" d="M102.897 139.189l-2.976-1.701c-.213-.213-.213-.425 0-.425l2.763-1.914h.851l2.976 1.914c.425 0 .425.212.213.425l-2.764 1.701c-.425.212-.638.212-1.063 0z" fill="#F7F7F7"/><path fill-rule="evenodd" clip-rule="evenodd" d="M100.984 134.299v-.425h-7.228l.212.425c0 .213 0 .213.213.425l2.976 1.701c.213.213.638.213.85 0l2.764-1.913c.213 0 .213 0 .213-.213z" fill="#D6D6D6"/><path fill-rule="evenodd" clip-rule="evenodd" d="M97.157 136l-3.189-1.914c-.212 0-.212-.425 0-.425l2.764-1.913h.85l3.189 1.913c.213 0 .213.213 0 .425L98.007 136h-.85z" fill="#F7F7F7"/><path fill-rule="evenodd" clip-rule="evenodd" d="M96.307 131.748v-.638h-7.228l.212.638v.212l3.19 1.701c.212.213.637.213.85 0l2.763-1.701.213-.212z" fill="#D6D6D6"/><path fill-rule="evenodd" clip-rule="evenodd" d="M92.48 133.236l-3.189-1.701c-.212-.212-.212-.425 0-.637l2.764-1.701c.212-.213.638-.213.85 0l3.19 1.701c.212.212.212.425 0 .425l-2.764 1.913c-.213.213-.638.213-.85 0z" fill="#F7F7F7"/><path fill-rule="evenodd" clip-rule="evenodd" d="M91.63 128.984v-.425h-7.228v.425c0 .213.212.213.212.213l3.189 1.913h.85l2.764-1.913c.213 0 .213-.213.213-.213z" fill="#D6D6D6"/><path fill-rule="evenodd" clip-rule="evenodd" d="M87.803 130.472l-3.189-1.7c-.212-.213-.212-.426 0-.638l2.764-1.701c.213-.213.638-.213.85 0l3.19 1.701c.212.212.212.425 0 .638l-2.765 1.7c-.212.213-.637.213-.85 0z" fill="#F7F7F7"/><path fill-rule="evenodd" clip-rule="evenodd" d="M86.953 126.22v-.425h-7.228v.425c0 .213.212.213.212.426l3.19 1.7c.212.213.637.213.85 0l2.763-1.913c.213 0 .213 0 .213-.213z" fill="#D6D6D6"/><path fill-rule="evenodd" clip-rule="evenodd" d="M83.126 127.921l-3.189-1.913c-.212 0-.212-.425 0-.425l2.764-1.914h.85l3.19 1.914c.212 0 .212.212 0 .425l-2.764 1.913h-.85z" fill="#F7F7F7"/><path fill-rule="evenodd" clip-rule="evenodd" d="M82.276 123.67v-.638h-7.228v.638l.212.212 3.189 1.701c.213.212.638.212.85 0l2.764-1.701.213-.212z" fill="#D6D6D6"/><path fill-rule="evenodd" clip-rule="evenodd" d="M78.449 125.158l-3.189-1.701c-.212-.213-.212-.425 0-.638l2.764-1.701c.212-.212.638-.212.85 0l3.19 1.701c.212.213.212.425 0 .425l-2.765 1.914c-.212.212-.637.212-.85 0z" fill="#F7F7F7"/><path fill-rule="evenodd" clip-rule="evenodd" d="M77.599 120.906l-.213-.426h-7.015v.426l.212.212 3.189 1.914h.85l2.764-1.914.213-.212z" fill="#D6D6D6"/><path fill-rule="evenodd" clip-rule="evenodd" d="M73.56 122.394l-2.977-1.701c-.212-.213-.212-.425 0-.638l2.764-1.7c.212-.213.638-.213.85 0l3.189 1.7c.213.213.213.425 0 .638l-2.764 1.701c-.425.212-.637.212-1.063 0z" fill="#F7F7F7"/><path fill-rule="evenodd" clip-rule="evenodd" d="M72.922 118.142l-.213-.425h-7.016v.425c0 .213.213.213.213.425l3.189 1.701c.213.212.638.212.85 0l2.764-1.913s.213 0 .213-.213z" fill="#D6D6D6"/><path fill-rule="evenodd" clip-rule="evenodd" d="M68.882 119.843l-2.976-1.914c-.213 0-.213-.425 0-.425l2.764-1.913h.85l2.977 1.913c.425 0 .425.213.212.425l-2.976 1.914h-.85z" fill="#F7F7F7"/><path fill-rule="evenodd" clip-rule="evenodd" d="M68.245 115.591l-.213-.638h-7.016v.638s0 .212.213.212l3.189 1.701c.212.213.638.213.85 0l2.764-1.701c0-.212.213-.212.213-.212z" fill="#D6D6D6"/><path fill-rule="evenodd" clip-rule="evenodd" d="M64.205 117.079l-2.976-1.701c-.213-.212-.213-.425 0-.637l2.764-1.701c.212-.213.637-.213.85 0l2.976 1.701c.426.212.426.425.213.425l-2.976 1.913c-.213.213-.425.213-.85 0z" fill="#F7F7F7"/><path fill-rule="evenodd" clip-rule="evenodd" d="M63.355 112.827v-.425H56.34v.425s0 .213.212.213l2.976 1.913h1.063l2.764-1.913v-.213z" fill="#D6D6D6"/><path fill-rule="evenodd" clip-rule="evenodd" d="M59.528 114.315l-2.976-1.7c-.213-.213-.213-.426 0-.638l2.764-1.701c.212-.212.637-.212.85 0l2.976 1.701c.425.212.425.425.213.638l-2.976 1.7c-.213.213-.638.213-.85 0z" fill="#F7F7F7"/><path fill-rule="evenodd" clip-rule="evenodd" d="M58.678 110.063v-.425h-7.016v.425c0 .213 0 .213.213.426l2.976 1.7c.425.213.638.213.85 0l2.977-1.913v-.213z" fill="#D6D6D6"/><path fill-rule="evenodd" clip-rule="evenodd" d="M54.851 111.764l-2.976-1.913c-.213 0-.425-.425 0-.425l2.764-1.914h.85l2.976 1.914c.213 0 .426.212 0 .425l-2.763 1.913h-.85z" fill="#F7F7F7"/><path fill-rule="evenodd" clip-rule="evenodd" d="M54.001 107.512v-.637h-7.016v.637s0 .213.213.213l2.976 1.701c.425.212.638.212.85 0l2.977-1.701v-.213z" fill="#D6D6D6"/><path fill-rule="evenodd" clip-rule="evenodd" d="M50.174 109.001l-2.976-1.701c-.213-.213-.425-.425-.213-.638l2.977-1.701c.212-.212.637-.212.85 0l2.976 1.701c.213.213.213.425 0 .425l-2.763 1.914c-.213.212-.638.212-.85 0z" fill="#F7F7F7"/><path fill-rule="evenodd" clip-rule="evenodd" d="M49.324 104.749v-.426h-7.016v.426s0 .212.213.212l2.976 1.914h.85l2.977-1.914v-.212z" fill="#D6D6D6"/><path fill-rule="evenodd" clip-rule="evenodd" d="M45.497 106.237l-2.976-1.701c-.425-.213-.425-.425-.213-.638l2.977-1.7c.212-.213.637-.213.85 0l2.976 1.7c.213.213.213.425 0 .638l-2.763 1.701c-.213.212-.638.212-.85 0z" fill="#F7F7F7"/><path fill-rule="evenodd" clip-rule="evenodd" d="M44.647 101.985v-.425H37.63v.425c0 .213 0 .213.213.425l2.976 1.701c.213.213.638.213.85 0l2.764-1.913c.213 0 .213 0 .213-.213z" fill="#D6D6D6"/><path fill-rule="evenodd" clip-rule="evenodd" d="M40.82 103.686l-2.976-1.914c-.425 0-.425-.425-.213-.425l2.977-1.913h.85l2.976 1.913c.213 0 .213.213 0 .425l-2.763 1.914h-.85z" fill="#F7F7F7"/><path fill-rule="evenodd" clip-rule="evenodd" d="M89.716 133.023v-.425h-7.228l.213.425c0 .213 0 .213.212.213l2.977 1.913h.85l2.764-1.913c.212 0 .212-.213.212-.213z" fill="#D6D6D6"/><path fill-rule="evenodd" clip-rule="evenodd" d="M85.89 134.512l-3.19-1.701c-.212-.213-.212-.425 0-.425l2.765-1.914c.212-.212.637-.212.85 0l3.189 1.701c.212.213.212.425 0 .638l-2.764 1.701c-.212.212-.638.212-.85 0z" fill="#F7F7F7"/><path fill-rule="evenodd" clip-rule="evenodd" d="M85.04 130.26v-.425h-7.23l.213.425v.425l3.189 1.701c.212.212.638.212.85 0l2.764-1.701c.212-.213.212-.213.212-.425z" fill="#D6D6D6"/><path fill-rule="evenodd" clip-rule="evenodd" d="M81.213 131.96l-3.19-1.913c-.212 0-.212-.212 0-.425l2.764-1.913h.85l3.19 1.913c.212 0 .212.425 0 .425l-2.764 1.913h-.85z" fill="#F7F7F7"/><path fill-rule="evenodd" clip-rule="evenodd" d="M80.362 127.709v-.638h-7.228v.638l.213.212 3.189 1.701c.212.212.638.212.85 0l2.764-1.701c.212 0 .212-.212.212-.212z" fill="#D6D6D6"/><path fill-rule="evenodd" clip-rule="evenodd" d="M76.536 129.197l-3.19-1.701c-.212-.213-.212-.425 0-.638l2.764-1.701c.213-.212.638-.212.85 0l3.19 1.701c.212.213.212.425 0 .638l-2.764 1.701c-.212.212-.638.212-.85 0z" fill="#F7F7F7"/><path fill-rule="evenodd" clip-rule="evenodd" d="M75.685 124.945v-.425h-7.228v.425c0 .212.213.212.213.212l3.189 1.914h.85l2.764-1.914c.212 0 .212-.212.212-.212z" fill="#D6D6D6"/><path fill-rule="evenodd" clip-rule="evenodd" d="M71.859 126.433l-3.19-1.701c-.212-.212-.212-.425 0-.425l2.764-1.913c.213-.213.638-.213.85 0l3.19 1.701c.212.212.212.425 0 .637l-2.764 1.701c-.213.213-.638.213-.85 0z" fill="#F7F7F7"/><path fill-rule="evenodd" clip-rule="evenodd" d="M71.008 122.181v-.425H63.78v.425c0 .213.213.213.213.425l3.189 1.701c.212.213.637.213.85 0l2.764-1.701c.212-.212.212-.212.212-.425z" fill="#D6D6D6"/><path fill-rule="evenodd" clip-rule="evenodd" d="M67.182 123.882l-3.19-1.913c-.212 0-.212-.213 0-.426l2.765-1.913h.85l3.189 1.913c.212 0 .212.426 0 .426l-2.764 1.913h-.85z" fill="#F7F7F7"/><path fill-rule="evenodd" clip-rule="evenodd" d="M66.331 119.63l-.212-.638h-7.016v.638l.213.213 3.189 1.7c.212.213.637.213.85 0l2.764-1.7.212-.213z" fill="#D6D6D6"/><path fill-rule="evenodd" clip-rule="evenodd" d="M62.292 121.118l-2.976-1.7c-.213-.213-.213-.426 0-.638l2.763-1.701c.213-.213.638-.213.85 0l3.19 1.701c.212.212.212.425 0 .638l-2.764 1.7c-.425.213-.638.213-1.063 0z" fill="#F7F7F7"/><path fill-rule="evenodd" clip-rule="evenodd" d="M61.654 116.866l-.212-.425h-7.016v.425c0 .213.213.213.213.213l3.189 1.913h.85l2.764-1.913.212-.213z" fill="#D6D6D6"/><path fill-rule="evenodd" clip-rule="evenodd" d="M57.615 118.355l-2.976-1.701c-.213-.213-.213-.425 0-.425l2.764-1.914c.212-.212.637-.212.85 0l2.976 1.701c.425.213.425.425.213.638l-2.764 1.701c-.425.212-.638.212-1.063 0z" fill="#F7F7F7"/><path fill-rule="evenodd" clip-rule="evenodd" d="M56.977 114.103l-.212-.426h-7.016v.426c0 .212 0 .212.213.425l3.188 1.701c.213.212.638.212.85 0l2.765-1.701c0-.213.212-.213.212-.425z" fill="#D6D6D6"/><path fill-rule="evenodd" clip-rule="evenodd" d="M52.938 115.803l-2.976-1.913c-.213 0-.213-.212 0-.425l2.763-1.913h.85l2.977 1.913c.425 0 .425.425.212.425l-2.976 1.913h-.85z" fill="#F7F7F7"/><path fill-rule="evenodd" clip-rule="evenodd" d="M52.088 111.552v-.638h-7.016v.638s0 .212.213.212l2.976 1.701c.425.213.638.213 1.063 0l2.764-1.701v-.212z" fill="#D6D6D6"/><path fill-rule="evenodd" clip-rule="evenodd" d="M48.26 113.04l-2.975-1.701c-.213-.213-.213-.425 0-.638L48.048 109c.213-.212.638-.212.85 0l2.977 1.701c.425.213.425.425.213.638l-2.977 1.701c-.212.212-.637.212-.85 0z" fill="#F7F7F7"/><path fill-rule="evenodd" clip-rule="evenodd" d="M47.41 108.788v-.425h-7.015v.425c0 .213 0 .213.213.213l2.976 1.913h.85l2.977-1.913v-.213z" fill="#D6D6D6"/><path fill-rule="evenodd" clip-rule="evenodd" d="M43.584 110.276l-2.977-1.701c-.212-.212-.425-.425 0-.425l2.764-1.913c.213-.213.638-.213.85 0l2.977 1.7c.212.213.425.426 0 .638l-2.764 1.701c-.212.213-.638.213-.85 0z" fill="#F7F7F7"/><path fill-rule="evenodd" clip-rule="evenodd" d="M87.803 137.063v-.425h-7.016v.425c0 .212 0 .212.213.425l2.976 1.701h.85l2.765-1.914c.212 0 .212 0 .212-.212z" fill="#D6D6D6"/><path fill-rule="evenodd" clip-rule="evenodd" d="M83.976 138.551l-3.189-1.701c-.212-.213-.212-.425 0-.425l2.764-1.914h1.063l2.977 1.914c.212 0 .212.212 0 .425l-2.764 1.701c-.213.212-.638.212-.85 0z" fill="#F7F7F7"/><path fill-rule="evenodd" clip-rule="evenodd" d="M83.126 134.299v-.425h-7.228l.212.638.213.212 2.976 1.701c.213.213.638.213.85 0l2.764-1.701c.213-.212.213-.212.213-.425z" fill="#D6D6D6"/><path fill-rule="evenodd" clip-rule="evenodd" d="M79.3 136l-3.19-1.913c-.212 0-.212-.213 0-.426l2.764-1.7c.213-.213.638-.213.85 0l3.19 1.7c.212.213.212.426 0 .426L80.15 136h-.85z" fill="#F7F7F7"/><path fill-rule="evenodd" clip-rule="evenodd" d="M78.449 131.748v-.638l-7.228.213.212.425s0 .212.213.212l2.976 1.701c.213.213.638.213.85 0l2.764-1.701c.213 0 .213-.212.213-.212z" fill="#D6D6D6"/><path fill-rule="evenodd" clip-rule="evenodd" d="M74.622 133.236l-3.189-1.701c-.212-.212-.212-.425 0-.637l2.764-1.701c.213-.213.638-.213.85 0l3.19 1.701c.212.212.212.425 0 .637l-2.764 1.701c-.213.213-.638.213-.85 0z" fill="#F7F7F7"/><path fill-rule="evenodd" clip-rule="evenodd" d="M73.772 128.984v-.425h-7.228l.212.425v.213l3.19 1.913h.85l2.763-1.913c.213 0 .213 0 .213-.213z" fill="#D6D6D6"/><path fill-rule="evenodd" clip-rule="evenodd" d="M69.945 130.472l-3.189-1.7c-.212-.213-.212-.426 0-.426l2.764-1.913h.85l3.19 1.913c.212 0 .212.213 0 .426l-2.764 1.7c-.213.213-.638.213-.85 0z" fill="#F7F7F7"/><path fill-rule="evenodd" clip-rule="evenodd" d="M69.095 126.22v-.425h-7.228v.638s.212 0 .212.213l3.19 1.7c.212.213.637.213.85 0l2.763-1.7c.213-.213.213-.213.213-.426z" fill="#D6D6D6"/><path fill-rule="evenodd" clip-rule="evenodd" d="M65.268 127.921l-3.188-1.913c-.213 0-.213-.213 0-.425l2.763-1.701c.213-.212.638-.212.85 0l3.19 1.701c.212.212.212.425 0 .425l-2.764 1.913h-.85z" fill="#F7F7F7"/><path fill-rule="evenodd" clip-rule="evenodd" d="M64.418 123.67v-.638l-7.228.212v.426l.212.212 3.19 1.701c.212.212.637.212.85 0l2.763-1.701c.213 0 .213-.212.213-.212z" fill="#D6D6D6"/><path fill-rule="evenodd" clip-rule="evenodd" d="M60.591 125.158l-3.189-1.701c-.212-.213-.212-.425 0-.638l2.764-1.701c.213-.212.638-.212.85 0l3.19 1.701c.212.213.212.425 0 .638l-2.764 1.701c-.213.212-.638.212-.85 0z" fill="#F7F7F7"/><path fill-rule="evenodd" clip-rule="evenodd" d="M59.74 120.906v-.426h-7.227v.426c0 .212.212.212.212.212l3.19 1.914h.85l2.763-1.914c.213 0 .213 0 .213-.212z" fill="#D6D6D6"/><path fill-rule="evenodd" clip-rule="evenodd" d="M55.914 122.394l-3.189-1.701c-.212-.212-.212-.425 0-.425l2.764-1.913h.85l3.19 1.7c.212.213.212.426 0 .638l-2.764 1.701c-.213.212-.638.212-.85 0z" fill="#F7F7F7"/><path fill-rule="evenodd" clip-rule="evenodd" d="M55.064 118.142l-.213-.425h-7.015v.638s.212 0 .212.212l3.19 1.701c.212.212.637.212.85 0l2.763-1.701c0-.212.213-.212.213-.425z" fill="#D6D6D6"/><path fill-rule="evenodd" clip-rule="evenodd" d="M51.025 119.843l-2.977-1.914c-.212 0-.212-.212 0-.425l2.764-1.701c.213-.212.638-.212.85 0l3.19 1.701c.212.213.212.425 0 .425l-2.764 1.914h-1.063z" fill="#F7F7F7"/><path fill-rule="evenodd" clip-rule="evenodd" d="M50.387 115.591l-.213-.638-7.015.213v.425l.212.212 3.19 1.701c.212.213.637.213.85 0l2.763-1.701.213-.212z" fill="#D6D6D6"/><path fill-rule="evenodd" clip-rule="evenodd" d="M46.348 117.079l-2.977-1.701c-.212-.212-.212-.425 0-.637l2.764-1.701c.213-.213.638-.213.85 0l2.977 1.701c.425.212.425.425.212.637l-2.764 1.701c-.425.213-.637.213-1.062 0z" fill="#F7F7F7"/><path fill-rule="evenodd" clip-rule="evenodd" d="M45.71 112.827l-.213-.425h-7.015v.425c0 .213 0 .213.212.213l3.19 1.913h.85l2.763-1.913s.213 0 .213-.213z" fill="#D6D6D6"/><path fill-rule="evenodd" clip-rule="evenodd" d="M41.67 114.315l-2.976-1.7c-.212-.213-.212-.426 0-.426l2.764-1.913c.213 0 .638-.213.85 0l2.977 1.701c.425.212.425.425.212.638l-2.976 1.7c-.213.213-.425.213-.85 0z" fill="#F7F7F7"/><path fill-rule="evenodd" clip-rule="evenodd" d="M81.213 138.551v-.638h-7.016v.638s0 .212.213.212l2.976 1.701c.213.213.638.213.85 0L81 138.763l.213-.212z" fill="#D6D6D6"/><path fill-rule="evenodd" clip-rule="evenodd" d="M77.386 140.039l-2.976-1.701c-.425-.212-.425-.425-.213-.637L77.173 136c.213-.213.426-.213.85 0L81 137.701c.213.212.213.425 0 .425l-2.764 1.913c-.212.213-.637.213-.85 0z" fill="#F7F7F7"/><path fill-rule="evenodd" clip-rule="evenodd" d="M76.536 135.787v-.425H69.52v.425s0 .213.213.213l2.976 1.913h.85L76.323 136c.213 0 .213-.213.213-.213z" fill="#D6D6D6"/><path fill-rule="evenodd" clip-rule="evenodd" d="M72.71 137.275l-3.19-1.7c-.212-.213-.212-.426 0-.638l2.764-1.701c.425-.212.638-.212 1.063 0l2.976 1.701c.213.212.213.425 0 .638l-2.764 1.7c-.212.213-.637.213-.85 0z" fill="#F7F7F7"/><path fill-rule="evenodd" clip-rule="evenodd" d="M71.859 133.023v-.425H64.63l.212.425c0 .213 0 .213.213.426l2.976 1.7c.213.213.638.213.85 0l2.764-1.913c.213 0 .213 0 .213-.213z" fill="#D6D6D6"/><path fill-rule="evenodd" clip-rule="evenodd" d="M68.032 134.724l-3.189-1.913c-.213 0-.213-.425 0-.425l2.764-1.914h.85l3.19 1.914c.212 0 .212.212 0 .425l-2.765 1.913h-.85z" fill="#F7F7F7"/><path fill-rule="evenodd" clip-rule="evenodd" d="M67.182 130.472v-.637h-7.229l.213.637s0 .213.213.213l2.976 1.701c.213.212.638.212.85 0l2.764-1.701.213-.213z" fill="#D6D6D6"/><path fill-rule="evenodd" clip-rule="evenodd" d="M63.355 131.961l-3.189-1.701c-.213-.213-.213-.425 0-.638l2.764-1.701c.212-.212.638-.212.85 0l3.189 1.701c.213.213.213.425 0 .425l-2.764 1.914c-.212.212-.637.212-.85 0z" fill="#F7F7F7"/><path fill-rule="evenodd" clip-rule="evenodd" d="M62.505 127.709v-.426h-7.229l.213.426v.212l3.189 1.914h.85l2.764-1.914c.213 0 .213-.212.213-.212z" fill="#D6D6D6"/><path fill-rule="evenodd" clip-rule="evenodd" d="M58.678 129.197l-3.189-1.701c-.212-.213-.212-.425 0-.638l2.764-1.701c.212-.212.638-.212.85 0l3.189 1.701c.213.213.213.425 0 .638l-2.764 1.701c-.212.212-.637.212-.85 0z" fill="#F7F7F7"/><path fill-rule="evenodd" clip-rule="evenodd" d="M57.828 124.945v-.425h-7.229v.425c0 .212.213.212.213.425l3.189 1.701c.212.212.638.212.85 0l2.764-1.914c.212 0 .212 0 .212-.212z" fill="#D6D6D6"/><path fill-rule="evenodd" clip-rule="evenodd" d="M54 126.646l-3.188-1.914c-.213 0-.213-.425 0-.425l2.764-1.913h.85l3.189 1.913c.212 0 .212.213 0 .425l-2.764 1.914h-.85z" fill="#F7F7F7"/><path fill-rule="evenodd" clip-rule="evenodd" d="M53.15 122.394v-.638h-7.228v.638l.213.212 3.189 1.701c.212.213.638.213.85 0l2.764-1.701.213-.212z" fill="#D6D6D6"/><path fill-rule="evenodd" clip-rule="evenodd" d="M49.324 123.882l-3.189-1.701c-.213-.212-.213-.425 0-.638l2.764-1.7c.212-.213.637-.213.85 0l3.189 1.7c.213.213.213.426 0 .426l-2.764 1.913c-.212.213-.638.213-.85 0z" fill="#F7F7F7"/><path fill-rule="evenodd" clip-rule="evenodd" d="M48.474 119.63v-.638l-7.229.213v.425l.213.213 3.189 1.913h.85l2.764-1.913c.212 0 .212-.213.212-.213z" fill="#D6D6D6"/><path fill-rule="evenodd" clip-rule="evenodd" d="M44.647 121.118l-3.189-1.7c-.213-.213-.213-.426 0-.638l2.764-1.701c.212-.213.637-.213.85 0l3.189 1.701c.212.212.212.425 0 .638l-2.764 1.7c-.212.213-.638.213-.85 0z" fill="#F7F7F7"/><path fill-rule="evenodd" clip-rule="evenodd" d="M43.797 116.866l-.213-.425h-7.016v.425c0 .213.213.213.213.426l3.189 1.7c.212.213.638.213.85 0l2.764-1.913s.212 0 .212-.213z" fill="#D6D6D6"/><path fill-rule="evenodd" clip-rule="evenodd" d="M39.757 118.567l-2.976-1.913c-.213 0-.213-.425 0-.425l2.764-1.914h.85l3.189 1.914c.212 0 .212.212 0 .425l-2.764 1.913h-1.063z" fill="#F7F7F7"/><path fill-rule="evenodd" clip-rule="evenodd" d="M39.12 114.315l-.213-.638H31.89v.638l.213.213 3.189 1.701c.212.212.638.212.85 0l2.764-1.701c0-.213.212-.213.212-.213z" fill="#D6D6D6"/><path fill-rule="evenodd" clip-rule="evenodd" d="M35.08 115.803l-2.976-1.7c-.213-.213-.213-.425 0-.638l2.764-1.701c.212-.212.637-.212.85 0l2.976 1.701c.425.213.425.425.213.425l-2.764 1.913c-.425.213-.638.213-1.063 0z" fill="#F7F7F7"/><path fill-rule="evenodd" clip-rule="evenodd" d="M125.007 162.786c-.851 0-1.701-.212-2.339-.637l-6.378-3.615c-1.275-.85-1.275-2.125 0-2.976l3.615-1.913c-1.489 1.063-2.552 1.701-2.764 2.551v-.213.213c-.213.213-.213.213-.213.425 0 .638.213 1.276.851 1.488l3.614 2.126c.637.425 1.488.638 2.126.638h.212l.213.213.425.212h.638v-.212.212h.425l16.369-9.354c.426-.213.426-.425.426-.85v-.213a.457.457 0 00.425-.425h.212c1.276.85 1.276 2.126 0 2.976l-15.306 8.717c-.638.425-1.488.637-2.551.637z" fill="#E5E5E5"/><path fill-rule="evenodd" clip-rule="evenodd" d="M142.439 149.393c.213.213.213.638-.212.85l-4.89 1.914c-1.913.637-3.827 1.7-5.527 2.976l-5.74 4.252c-1.276.85-3.189 1.063-4.677.212l-3.614-2.126c-.638-.425-.851-1.063-.638-1.488-.425.851-.213 1.701.638 2.126l3.614 2.126c1.488.851 3.401.851 4.677-.212l5.74-4.252c1.7-1.276 3.614-2.339 5.527-2.977l4.89-1.913c.637-.213.85-1.275.212-1.488z" fill="#C7C7C7"/><path fill-rule="evenodd" clip-rule="evenodd" d="M142.227 150.243l-4.89 1.914c-1.913.637-3.827 1.7-5.527 2.976l-5.74 4.252c-1.276.85-3.189 1.063-4.677.212l-3.614-2.125c-2.339-1.276 1.063-2.977 6.165-6.803 2.338-1.701 10.417-5.953 12.968-4.465l5.315 2.976c.425.426.425.851 0 1.063z" fill="#EDEDED"/><path fill-rule="evenodd" clip-rule="evenodd" d="M123.519 160.873l.85.425h.638v-.638c-.425 0-1.063.213-1.488.213z" fill="#737373"/><path fill-rule="evenodd" clip-rule="evenodd" d="M142.227 150.881l-4.89 1.913c-1.913.638-3.827 1.701-5.527 2.977l-5.74 4.252c-.213.212-.638.425-1.063.637v.638h.425l16.369-9.354c.426-.213.426-.425.426-.85v-.213z" fill="gray"/><path fill-rule="evenodd" clip-rule="evenodd" d="M123.944 161.086l-.213-.213.213.213z" fill="#C3C3C3"/><path fill-rule="evenodd" clip-rule="evenodd" d="M124.582 161.298c-.213 0-.426-.212-.638-.212l-.213-.213h-.212c.425 0 1.063-.213 1.488-.213v.426c-.213 0-.425.212-.425.212z" fill="#626262"/><path fill-rule="evenodd" clip-rule="evenodd" d="M125.007 161.086v-.426c.425-.212.85-.425 1.063-.637l5.74-4.252c1.7-1.276 3.614-2.339 5.527-2.977l4.89-1.913v.213l-4.677 1.913c-1.914.638-3.827 1.701-5.528 2.976l-5.527 4.252c-.425.213-1.063.638-1.488.851z" fill="#6D6D6D"/><path fill-rule="evenodd" clip-rule="evenodd" d="M139.25 147.48c-2.126.425-5.102 1.488-7.015 2.551v.212h.212c1.914-1.063 4.89-2.338 7.016-2.551l-.213-.212z" fill="#B8B8B8"/><path fill-rule="evenodd" clip-rule="evenodd" d="M132.235 150.243h.212c1.914-1.063 4.89-2.338 7.016-2.551-2.339.213-5.315 1.488-7.228 2.551z" fill="#fff"/><path fill-rule="evenodd" clip-rule="evenodd" d="M80.15 67.332l8.078 4.465c2.126 1.276 5.528 1.276 7.44 0 1.064-.425 1.702-1.276 1.702-2.126v11.693c0 .637-.638 1.488-1.701 2.126-1.913 1.063-5.315 1.063-7.44 0l-8.08-4.677c-.85-.638-1.487-1.489-1.487-2.126V64.994c0 .85.637 1.7 1.488 2.338z" fill="#3E4651"/><path fill-rule="evenodd" clip-rule="evenodd" d="M87.59 62.868l8.079 4.677c2.126 1.276 2.126 3.19 0 4.252-1.913 1.276-5.315 1.276-7.44 0l-8.08-4.464c-1.913-1.276-1.913-3.19 0-4.465 2.127-1.063 5.528-1.063 7.441 0z" fill="#5C6D7F"/><path fill-rule="evenodd" clip-rule="evenodd" d="M81 58.404c0-2.126 1.063-4.04 2.976-5.103 1.914-1.063 4.04-1.063 5.74 0 3.19 1.914 5.103 5.315 5.103 8.93v7.44c0 .425-.213.85-.85 1.275-1.064.638-2.764.638-4.04 0-.425-.425-.85-.85-.85-1.275v-7.44c0-1.489-.85-2.977-2.126-3.827v6.59c0 .425-.426.85-.85 1.275-1.276.638-2.977.638-4.253 0-.425-.425-.85-.85-.85-1.275v-6.59z" fill="#F5B659"/><path fill-rule="evenodd" clip-rule="evenodd" d="M84.401 59.892c0-1.276 1.489-2.126 2.552-1.489v6.59c0 .426-.426.851-.85 1.276-.426.213-1.064.426-1.701.426v-6.803zm-2.763 13.393l1.063-1.063v3.402h-1.063l-.425-.85.425-1.489z" fill="#E69245"/><path fill-rule="evenodd" clip-rule="evenodd" d="M79.937 72.435L81 71.159l1.7 1.063-1.062 1.063-.425 1.488.425.85-1.7-1.062-.426-.638.425-1.488z" fill="#F5C959"/><path fill-rule="evenodd" clip-rule="evenodd" d="M81.213 74.773l-1.701-.85.425.638 1.7 1.063-.424-.85z" fill="#F5B659"/><path fill-rule="evenodd" clip-rule="evenodd" d="M84.401 74.773l1.063-1.063v3.614l-1.063-.212-.637-.638.638-1.7z" fill="#E69245"/><path fill-rule="evenodd" clip-rule="evenodd" d="M82.488 73.923l1.276-1.276 1.7 1.063-1.063 1.063-.637 1.7.637.639-1.913-1.063-.425-.638.425-1.488z" fill="#F5C959"/><path fill-rule="evenodd" clip-rule="evenodd" d="M83.764 76.474l-1.701-1.063.425.638 1.913 1.063-.637-.638z" fill="#F5B659"/><path fill-rule="evenodd" clip-rule="evenodd" d="M86.953 76.474l1.063-1.276v3.614l-1.063-.212-.425-.638.425-1.488z" fill="#E69245"/><path fill-rule="evenodd" clip-rule="evenodd" d="M85.252 75.41l1.063-1.275 1.7 1.063-1.062 1.276-.426 1.488.426.638-1.701-1.063-.425-.638.425-1.488z" fill="#F5C959"/><path fill-rule="evenodd" clip-rule="evenodd" d="M86.527 77.962l-1.7-1.063.425.638 1.7 1.063-.425-.638z" fill="#F5B659"/><path fill-rule="evenodd" clip-rule="evenodd" d="M90.78 84.127v-11.48c1.062.213 2.55.213 3.613-.212v11.48c-1.063.425-2.55.425-3.614.212zm4.039-.212V72.222c.425 0 .637-.212.85-.425.425 0 .638-.213.85-.425v11.692c-.212 0-.425.213-.85.426-.213 0-.425.212-.85.425z" fill="#4A5461"/><path fill-rule="evenodd" clip-rule="evenodd" d="M92.905 68.608c.425 0 .85-.425.85-1.063V62.23c0-.425-.425-.85-.85-.85-.638 0-1.063.425-1.063.85v5.315c0 .638.425 1.063 1.063 1.063zm-1.275-9.354c.212 0 .425 0 .425-.212.638-.213.638-.85.425-1.276-.85-1.063-1.7-1.913-2.764-2.551-.425-.425-1.063-.213-1.275.212-.425.638-.213 1.276.212 1.489.85.425 1.488 1.063 2.126 1.913.213.212.425.425.85.425z" fill="#F5C959"/><path fill-rule="evenodd" clip-rule="evenodd" d="M129.896 89.867l-19.771-11.48v2.339l-.85-.213-2.339-10.417 22.96 13.18v6.591z" fill="#fff"/><path fill-rule="evenodd" clip-rule="evenodd" d="M129.896 77.112l-19.771-11.693v-2.126l-.85-.85-2.339 7.866 22.96 13.393v-6.59zM47.623 48.837l20.622 11.905v-2.126l.85.213 2.126 10.417-23.598-13.819v-6.59z" fill="#fff"/><path fill-rule="evenodd" clip-rule="evenodd" d="M47.623 61.593L68.245 73.71v2.339l.85.638 2.126-7.654-23.598-14.03v6.59z" fill="#fff"/></svg>