<svg width="170" height="170" fill="none" xmlns="http://www.w3.org/2000/svg"><g clip-path="url(#clip0_514_10191)"><g clip-path="url(#clip1_514_10191)" fill-rule="evenodd" clip-rule="evenodd"><path opacity=".1" d="M37.338 172.736L8.375 155.499l8.896-4.953 3.438-2.022 15.72 9.048.303-.152 1.92 1.112v-2.224l67.026-38.719 13.546 7.835-81.886 47.312z" fill="#000"/><path d="M17.22 146.097v11.828l-2.223 1.264v-11.777l2.224-1.315z" fill="#FCC53E"/><path d="M14.997 147.412v11.777l-1.82-1.011V146.35l1.82 1.062z" fill="#DC9A3D"/><path d="M93.142 24.229v36.798l-2.224 1.314V25.543l2.224-1.314z" fill="#FCC53E"/><path d="M90.918 25.543v36.798l-1.82-1.061V24.482l1.82 1.061z" fill="#DC9A3D"/><path d="M90.918 25.543l-1.82-1.062 2.225-1.263 1.82 1.01-2.225 1.315z" fill="#FCE05E"/><path d="M114.524 36.613V73.41l-2.224 1.264V37.877l2.224-1.264z" fill="#FCC53E"/><path d="M112.3 37.876v36.799l-1.82-1.011V36.865l1.82 1.011z" fill="#DC9A3D"/><path d="M112.3 37.877l-1.82-1.011 2.275-1.315 1.819 1.062-2.274 1.264z" fill="#FCE05E"/><path d="M114.574 34.338v2.275l-2.274 1.263v-2.224l2.274-1.314z" fill="#FCC53E"/><path d="M112.299 35.652v2.224l-23.2-13.394v-2.225l23.2 13.395z" fill="#DC9A3D"/><path d="M112.299 35.652l-23.2-13.395 2.224-1.314 23.251 13.395-2.275 1.314z" fill="#FCE05E"/><path d="M93.142 102.324v11.828l-2.224 1.264v-11.778l2.224-1.314z" fill="#FCC53E"/><path d="M90.918 103.638v11.777l-1.82-1.01v-11.828l1.82 1.061z" fill="#DC9A3D"/><path d="M90.918 103.638l-1.82-1.061 2.225-1.315 1.82 1.062-2.225 1.314z" fill="#FCE05E"/><path d="M114.524 114.708v11.777L112.3 127.8v-11.828l2.224-1.264z" fill="#FCC53E"/><path d="M112.3 115.972V127.8l-1.82-1.062V114.91l1.82 1.062z" fill="#DC9A3D"/><path d="M112.3 115.971l-1.82-1.061 2.275-1.264 1.819 1.062-2.274 1.263z" fill="#FCE05E"/><path d="M114.574 112.433v2.275l-2.274 1.263v-2.224l2.274-1.314z" fill="#FCC53E"/><path d="M112.299 113.747v2.224l-23.2-13.394v-2.225l23.2 13.395z" fill="#DC9A3D"/><path d="M112.299 113.747l-23.2-13.395 2.224-1.314 23.251 13.395-2.275 1.314z" fill="#FCE05E"/><path d="M112.3 113.747v2.225l-73.647 42.56v-2.224l73.647-42.561z" fill="#FCC53E"/><path d="M38.653 156.308v2.224l-23.201-13.395v-2.224l23.2 13.395z" fill="#DC9A3D"/><path d="M38.653 156.308l-23.201-13.395 73.647-42.561 23.201 13.395-73.647 42.561z" fill="#FCE05E"/><path d="M38.653 158.532v11.828l-2.224 1.264v-11.778l2.224-1.314z" fill="#FCC53E"/><path d="M36.429 159.846v11.778l-1.82-1.011v-11.828l1.82 1.061z" fill="#DC9A3D"/><path d="M36.429 159.846l-1.82-1.061 2.224-1.314 1.82 1.061-2.224 1.314z" fill="#FCE05E"/><path d="M38.653 156.308v2.224l-2.224 1.314v-2.274l2.224-1.264z" fill="#FCC53E"/><path d="M36.429 157.572v2.274l-23.202-13.395v-2.274l23.202 13.395z" fill="#DC9A3D"/><path d="M36.429 157.572l-23.202-13.395 2.225-1.264 23.2 13.395-2.223 1.264z" fill="#FCE05E"/><path d="M93.142 63.302V100.1l-2.224 1.263V64.565l2.224-1.263z" fill="#FCC53E"/><path d="M90.918 64.565v36.798l-1.82-1.01V63.554l1.82 1.011z" fill="#DC9A3D"/><path d="M90.918 64.565l-1.82-1.01 2.225-1.315 1.82 1.061-2.225 1.264z" fill="#FCE05E"/><path d="M114.524 75.635v36.798l-2.224 1.314V76.949l2.224-1.314z" fill="#FCC53E"/><path d="M112.3 76.95v36.797l-1.82-1.061V75.888l1.82 1.061z" fill="#DC9A3D"/><path d="M112.3 76.95l-1.82-1.062 2.275-1.315 1.819 1.062-2.274 1.314z" fill="#FCE05E"/><path d="M114.574 73.41v2.225l-2.274 1.314v-2.274l2.274-1.264z" fill="#FCC53E"/><path d="M112.299 74.675v2.274l-23.2-13.395V61.28l23.2 13.395z" fill="#DC9A3D"/><path d="M112.299 74.675l-23.2-13.395 2.224-1.264 23.251 13.395-2.275 1.264z" fill="#FCE05E"/><path d="M92.94 121.178h-4.701l-6.369-3.69 2.325-1.365 8.745 5.055z" fill="#BDB751"/><path d="M92.94 121.178l14.052-8.138v-10.11l-14.052 8.138v10.11z" fill="#DFAD61"/><path d="M92.94 121.178l-14.103-8.138v-10.11l14.103 8.138v10.11z" fill="#B38052"/><path d="M92.94 111.068l-14.103-8.138 14.103-8.087 14.052 8.087-14.052 8.138z" fill="#E2BB84"/><path d="M86.874 113.95l-2.274-1.315v-6.369l2.275 1.315v6.369z" fill="#9D7753"/><path d="M100.219 99.038l-1.516-.859 1.516.86z" fill="#EBF0FA"/><path d="M86.874 107.581l-2.274-1.314.455-.253 2.274 1.314-.454.253zm6.066-3.488v-2.628l5.762-3.286 1.517.86.708.404-7.987 4.65z" fill="#F0CBA5"/><path d="M78.837 102.93l14.103 8.138-7.582-4.043-6.52-4.095z" fill="#8A6547"/><path d="M85.813 106.974l14.103-8.138-.152-.05-14.103 8.087.152.101z" fill="#8D5A2F"/><path d="M74.642 131.742h-4.7l-6.37-3.69 2.325-1.364 8.745 5.054z" fill="#BDB751"/><path d="M74.642 131.742l14.052-8.138v-10.109l-14.052 8.138v10.109z" fill="#DFAD61"/><path d="M74.642 131.742l-14.103-8.138v-10.109l14.103 8.138v10.109z" fill="#B38052"/><path d="M74.642 121.633l-14.103-8.138 14.103-8.088 14.052 8.088-14.052 8.138z" fill="#E2BB84"/><path d="M68.576 124.514l-2.274-1.264v-6.419l2.274 1.314v6.369z" fill="#9D7753"/><path d="M82.628 110.007l-2.224-1.264 2.224 1.264z" fill="#C9A684"/><path d="M68.576 118.145l-1.112-.657-1.162-.657.455-.253 2.274 1.314-.455.253zm6.066-3.488v-2.578l5.762-3.336 2.224 1.264-7.986 4.65z" fill="#F0CBA5"/><path d="M60.54 113.495l14.102 8.138-7.633-4.044-6.47-4.094z" fill="#8A6547"/><path d="M67.515 117.538l14.103-8.087-.152-.101-14.103 8.087.152.101z" fill="#8D5A2F"/><path d="M56.293 142.306h-4.65l-6.42-3.689 2.376-1.365 8.694 5.054z" fill="#BDB751"/><path d="M56.294 142.306l14.102-8.138v-10.059l-14.102 8.088v10.109z" fill="#DFAD61"/><path d="M56.294 142.306l-14.052-8.138v-10.059l14.052 8.088v10.109z" fill="#B38052"/><path d="M56.294 132.197l-14.052-8.087 14.052-8.139 14.102 8.139-14.102 8.087z" fill="#E2BB84"/><path d="M50.279 135.078l-2.275-1.264v-6.419l2.275 1.314v6.369z" fill="#9D7753"/><path d="M64.33 120.622l-1.112-.657 1.112.657z" fill="#C9A684"/><path d="M50.279 128.709l-1.365-.758-.91-.556.455-.253 2.274 1.315-.454.252zm6.015-3.487v-2.578l5.813-3.336 1.111.657 1.113.657-8.037 4.6z" fill="#F0CBA5"/><path d="M42.242 124.109l14.052 8.088-7.582-4.044-6.47-4.044z" fill="#8A6547"/><path d="M49.217 128.103l14.103-8.088-.203-.101-14.052 8.138.152.051z" fill="#8D5A2F"/><path d="M37.995 152.871h-4.65l-14.052-8.138 4.65-2.679v2.679l14.052 8.138z" fill="#BDB751"/><path d="M37.996 152.871l14.102-8.138v-10.059l-14.102 8.087v10.11z" fill="#DFAD61"/><path d="M37.995 152.871l-14.052-8.138v-10.059l14.052 8.087v10.11z" fill="#B38052"/><path d="M37.995 142.761l-14.052-8.087 14.052-8.138 14.103 8.138-14.103 8.087z" fill="#E2BB84"/><path d="M31.98 145.643l-2.274-1.264v-6.42l2.274 1.315v6.369z" fill="#9D7753"/><path d="M44.061 130.024l-.303-.152.303.152zm-12.081 9.25l-2.274-1.315 2.274 1.315z" fill="#C9A684"/><path d="M31.98 139.274l-2.274-1.315.455-.252 2.274 1.314-.455.253zm6.015-3.488v-2.578l5.763-3.336.303.152 1.971 1.162-8.036 4.6z" fill="#F0CBA5"/><path d="M23.943 134.674l14.052 8.087-7.582-4.043-6.47-4.044z" fill="#8A6547"/><path d="M30.919 138.667l14.052-8.087-.152-.102-14.052 8.139.152.05z" fill="#8D5A2F"/><path d="M92.94 110.563l14.052-8.138v-10.11l-14.052 8.139v10.109z" fill="#DFAD61"/><path d="M92.94 110.563l-14.103-8.138v-10.11l14.103 8.139v10.109z" fill="#B38052"/><path d="M92.94 100.454l-14.103-8.138 14.103-8.088 14.052 8.088-14.052 8.138z" fill="#E2BB84"/><path d="M86.874 103.335l-2.274-1.264v-6.42l2.275 1.315v6.369z" fill="#9D7753"/><path d="M100.32 88.474l-1.617-.91 1.617.91z" fill="#EBF0FA"/><path d="M86.874 96.966l-2.021-1.163-.253-.151 14.102-8.088 1.618.91.607.354-14.053 8.138z" fill="#F0CBA5"/><path d="M86.874 96.966L84.6 95.652l.253.151 2.022 1.163z" fill="#BD9E7B"/><path d="M78.837 92.316l14.103 8.138-7.582-4.044-6.52-4.094z" fill="#8A6547"/><path d="M85.813 96.36l14.103-8.088-.152-.101-14.103 8.087.152.101z" fill="#8D5A2F"/><path d="M74.642 121.127l14.052-8.138V102.93l-14.052 8.088v10.109z" fill="#DFAD61"/><path d="M74.642 121.127l-14.103-8.138V102.93l14.103 8.088v10.109z" fill="#B38052"/><path d="M74.642 111.018l-14.103-8.088 14.103-8.138 14.052 8.138-14.052 8.088z" fill="#E2BB84"/><path d="M68.576 113.899l-2.274-1.264v-6.419l2.274 1.314v6.369z" fill="#9D7753"/><path d="M82.628 99.443l-2.224-1.315 2.224 1.315z" fill="#C9A684"/><path d="M68.576 107.53l-.758-.455-1.516-.859 14.102-8.088 2.224 1.315-14.052 8.087z" fill="#F0CBA5"/><path d="M68.576 107.53l-2.274-1.314 1.516.859.758.455z" fill="#BD9E7B"/><path d="M60.54 102.93l14.102 8.088-7.633-4.044-6.47-4.044z" fill="#8A6547"/><path d="M67.515 106.924l14.103-8.088-.152-.101-14.103 8.138.152.051z" fill="#8D5A2F"/><path d="M56.294 131.692l14.102-8.138v-10.059l-14.102 8.087v10.11z" fill="#DFAD61"/><path d="M56.294 131.692l-14.052-8.138v-10.059l14.052 8.087v10.11z" fill="#B38052"/><path d="M56.294 121.582l-14.052-8.087 14.052-8.138 14.102 8.138-14.102 8.087z" fill="#E2BB84"/><path d="M50.279 124.463l-2.275-1.263v-6.42l2.275 1.314v6.369z" fill="#9D7753"/><path d="M64.33 110.007l-1.112-.657 1.112.657zm-14.052 8.087l-1.567-.909 1.567.909z" fill="#C9A684"/><path d="M50.279 118.094l-1.567-.909-.708-.405 14.102-8.087 1.112.657 1.113.657-14.053 8.087z" fill="#F0CBA5"/><path d="M50.279 118.094l-2.275-1.314.708.405 1.566.909z" fill="#BD9E7B"/><path d="M42.242 113.495l14.052 8.087-7.582-4.043-6.47-4.044z" fill="#8A6547"/><path d="M49.217 117.488L63.32 109.4l-.203-.101-14.052 8.138.152.051z" fill="#8D5A2F"/><path d="M37.996 142.256l14.102-8.138v-10.059l-14.102 8.088v10.109z" fill="#DFAD61"/><path d="M37.995 142.256l-14.052-8.138v-10.059l14.052 8.088v10.109z" fill="#B38052"/><path d="M37.995 132.147l-14.052-8.088 14.052-8.138 14.103 8.138-14.103 8.088z" fill="#E2BB84"/><path d="M31.98 135.078l-2.274-1.314v-6.369l2.274 1.264v6.419z" fill="#9D7753"/><path d="M44.466 119.611l-.708-.354.708.354zm-12.486 9.048l-2.274-1.264 2.274 1.264z" fill="#C9A684"/><path d="M31.98 128.659l-2.274-1.264 14.052-8.138.707.354 1.567.96-14.052 8.088z" fill="#F0CBA5"/><path d="M23.943 124.059l14.052 8.088-7.582-4.044-6.47-4.044z" fill="#8A6547"/><path d="M30.919 128.052l14.052-8.087-.152-.101-14.052 8.138.152.05z" fill="#8D5A2F"/><path d="M112.3 74.675v2.274L38.653 119.51v-2.275l73.647-42.56z" fill="#FCC53E"/><path d="M38.653 117.235v2.275l-23.201-13.395v-2.275l23.2 13.395z" fill="#DC9A3D"/><path d="M38.653 117.235L15.452 103.84l73.647-42.56L112.3 74.675l-73.647 42.56z" fill="#FCE05E"/><path d="M17.271 107.126v36.798l-2.224 1.314V108.44l2.224-1.314z" fill="#FCC53E"/><path d="M15.047 108.44v36.798l-1.82-1.061v-36.799l1.82 1.062z" fill="#DC9A3D"/><path d="M15.047 108.44l-1.82-1.061 2.225-1.264 1.82 1.011-2.225 1.314z" fill="#FCE05E"/><path d="M38.653 119.51v36.798l-2.224 1.264v-36.799l2.224-1.263z" fill="#FCC53E"/><path d="M36.429 120.774v36.798l-1.82-1.011v-36.798l1.82 1.011z" fill="#DC9A3D"/><path d="M36.429 120.773l-1.82-1.011 2.224-1.314 1.82 1.062-2.224 1.263z" fill="#FCE05E"/><path d="M38.653 117.235v2.275l-2.224 1.263v-2.224l2.224-1.314z" fill="#FCC53E"/><path d="M36.429 118.549v2.224l-23.202-13.394v-2.225l23.202 13.395z" fill="#DC9A3D"/><path d="M36.429 118.549l-23.202-13.395 2.225-1.314 23.2 13.395-2.223 1.314z" fill="#FCE05E"/><path d="M92.94 81.347h-4.701l-6.369-3.69 2.325-1.365 8.745 5.055z" fill="#BDB751"/><path d="M92.94 81.347l14.052-8.138v-10.11L92.94 71.238v10.109z" fill="#DFAD61"/><path d="M92.94 81.347l-14.103-8.138v-10.11l14.103 8.139v10.109z" fill="#B38052"/><path d="M92.94 71.237L78.837 63.1l14.103-8.087 14.052 8.087-14.052 8.138z" fill="#E2BB84"/><path d="M86.874 74.119L84.6 72.805v-6.37l2.275 1.315v6.369z" fill="#9D7753"/><path d="M86.874 67.75L84.6 66.436l.455-.253 2.274 1.314-.454.253zm6.066-3.488v-2.628l5.762-3.337 2.225 1.315-7.987 4.65z" fill="#F0CBA5"/><path d="M78.837 63.1l14.103 8.137-7.582-4.043-6.52-4.095z" fill="#8A6547"/><path d="M85.813 67.143l14.103-8.138-.152-.05-14.103 8.087.152.101z" fill="#8D5A2F"/><path d="M74.642 91.911H69.94l-14.052-8.138 4.65-2.679v2.679l14.103 8.138z" fill="#BDB751"/><path d="M74.642 91.911l14.052-8.138v-10.11l-14.052 8.139v10.11z" fill="#DFAD61"/><path d="M74.642 91.911l-14.103-8.138v-10.11l14.103 8.139v10.11z" fill="#B38052"/><path d="M74.642 81.802l-14.103-8.138 14.103-8.088 14.052 8.088-14.052 8.138z" fill="#E2BB84"/><path d="M68.576 84.683l-2.274-1.314v-6.37l2.274 1.315v6.369z" fill="#9D7753"/><path d="M68.576 78.314L66.302 77l2.274 1.314z" fill="#C9A684"/><path d="M68.576 78.314L66.302 77l.455-.253 2.274 1.314-.455.253z" fill="#F0CBA5"/><path d="M82.628 70.176l-2.022-1.163 2.022 1.163z" fill="#C9A684"/><path d="M74.642 74.826v-2.628l5.762-3.286.203.101 2.022 1.163-7.987 4.65z" fill="#F0CBA5"/><path d="M60.54 73.664l14.102 8.138-7.633-4.044-6.47-4.094z" fill="#8A6547"/><path d="M67.515 77.707l14.103-8.138-.152-.05-14.103 8.087.152.102z" fill="#8D5A2F"/><path d="M37.995 113.04h-4.65l-14.052-8.138 4.65-2.679v2.679l14.052 8.138z" fill="#BDB751"/><path d="M37.996 113.04l14.102-8.138v-10.06l-14.102 8.088v10.11z" fill="#DFAD61"/><path d="M37.995 113.04l-14.052-8.138v-10.06l14.052 8.088v10.11z" fill="#B38052"/><path d="M37.995 102.93l-14.052-8.087 14.052-8.138 14.103 8.138-14.103 8.087z" fill="#E2BB84"/><path d="M31.98 105.812l-2.274-1.264v-6.42l2.274 1.315v6.369z" fill="#9D7753"/><path d="M45.376 90.95l-1.618-.91 1.618.91z" fill="#FCEA86"/><path d="M31.98 99.443l-.505-.304-1.77-1.01.456-.253 2.274 1.314-.455.253zm6.015-3.488v-2.578l5.763-3.336 1.617.91.657.404-8.036 4.6z" fill="#F0CBA5"/><path d="M31.98 99.443l-2.274-1.315 1.769 1.011.505.304z" fill="#BD9E7B"/><path d="M23.943 94.843l14.052 8.087-7.582-4.043-6.47-4.044z" fill="#8A6547"/><path d="M30.919 98.836l14.052-8.087-.152-.102-14.052 8.088.152.101z" fill="#8D5A2F"/><path d="M92.94 70.732l14.052-8.138v-10.11L92.94 60.623v10.109z" fill="#DFAD61"/><path d="M92.94 70.732l-14.103-8.138v-10.11l14.103 8.139v10.109z" fill="#B38052"/><path d="M92.94 60.623l-14.103-8.139 14.103-8.087 14.052 8.087-14.052 8.139z" fill="#E2BB84"/><path d="M86.874 63.504L84.6 62.19v-6.37l2.275 1.315v6.369z" fill="#9D7753"/><path d="M100.219 48.593l-1.516-.86 1.516.86z" fill="#FEFEFE"/><path d="M86.874 57.135L84.6 55.82l14.102-8.088 1.517.86.708.404-14.053 8.138z" fill="#F0CBA5"/><path d="M78.837 52.484l14.103 8.139-7.582-4.044-6.52-4.095z" fill="#8A6547"/><path d="M85.813 56.528l14.103-8.138-.152-.05-14.103 8.087.152.101z" fill="#8D5A2F"/><path d="M74.642 81.296l14.052-8.138v-10.11l-14.052 8.139v10.11z" fill="#DFAD61"/><path d="M74.642 81.296l-14.103-8.138v-10.11l14.103 8.139v10.11z" fill="#B38052"/><path d="M74.642 71.187l-14.103-8.138 14.103-8.088 14.052 8.088-14.052 8.138z" fill="#E2BB84"/><path d="M68.576 74.068l-2.274-1.264v-6.42l2.274 1.315v6.37z" fill="#9D7753"/><path d="M82.628 59.561l-2.224-1.264 2.224 1.264z" fill="#C9A684"/><path d="M68.576 67.7l-2.274-1.315 14.102-8.088 2.224 1.264L68.576 67.7z" fill="#F0CBA5"/><path d="M60.54 63.049l14.102 8.138-7.633-4.044-6.47-4.094z" fill="#8A6547"/><path d="M67.515 67.093l14.103-8.088-.152-.1-14.103 8.087.152.1z" fill="#8D5A2F"/><path d="M37.996 102.425l14.102-8.138V84.228l-14.102 8.088v10.109z" fill="#DFAD61"/><path d="M37.995 102.425l-14.052-8.138V84.228l14.052 8.088v10.109z" fill="#B38052"/><path d="M37.995 92.316l-14.052-8.088 14.052-8.138 14.103 8.138-14.103 8.088z" fill="#E2BB84"/><path d="M31.98 95.197l-2.274-1.264v-6.42l2.274 1.315v6.369z" fill="#9D7753"/><path d="M45.325 80.285l-1.567-.859 1.567.86z" fill="#FEFEFE"/><path d="M31.98 88.828l-.758-.405-1.516-.91 14.052-8.087 1.567.86.707.454-14.052 8.088z" fill="#F0CBA5"/><path d="M31.98 88.828l-2.274-1.315 1.516.91.758.405z" fill="#BD9E7B"/><path d="M23.943 84.228l14.052 8.088-7.582-4.044-6.47-4.044z" fill="#8A6547"/><path d="M30.919 88.221l14.052-8.087-.152-.101-14.052 8.138.152.05z" fill="#8D5A2F"/><path d="M112.3 35.652v2.224L38.653 80.438v-2.224l73.647-42.56z" fill="#FCC53E"/><path d="M38.653 78.213v2.224L15.452 67.042v-2.224l23.2 13.395z" fill="#DC9A3D"/><path d="M38.653 78.213L15.452 64.818l73.647-42.56L112.3 35.651l-73.647 42.56z" fill="#FCE05E"/><path d="M17.271 68.103v36.799l-2.224 1.263V69.367l2.224-1.264z" fill="#FCC53E"/><path d="M15.047 69.367v36.798l-1.82-1.011V68.356l1.82 1.011z" fill="#DC9A3D"/><path d="M15.047 69.367l-1.82-1.01 2.225-1.315 1.82 1.062-2.225 1.263z" fill="#FCE05E"/><path d="M38.653 80.437v36.798l-2.224 1.314V81.751l2.224-1.314z" fill="#FCC53E"/><path d="M36.429 81.751v36.798l-1.82-1.061V80.69l1.82 1.061z" fill="#DC9A3D"/><path d="M36.429 81.751l-1.82-1.061 2.224-1.314 1.82 1.061-2.224 1.314z" fill="#FCE05E"/><path d="M38.653 78.213v2.224l-2.224 1.314v-2.274l2.224-1.264z" fill="#FCC53E"/><path d="M36.429 79.477v2.274L13.227 68.356v-2.274L36.43 79.477z" fill="#DC9A3D"/><path d="M36.429 79.477L13.227 66.082l2.225-1.264 23.2 13.395-2.223 1.264z" fill="#FCE05E"/><path d="M92.94 42.224h-4.701l-6.369-3.69 2.325-1.365 8.745 5.055z" fill="#BDB751"/><path d="M92.94 42.224l14.052-8.138v-10.06L92.94 32.115v10.11z" fill="#DFAD61"/><path d="M92.94 42.224l-14.103-8.138v-10.06l14.103 8.088v10.11z" fill="#B38052"/><path d="M92.94 32.114l-14.103-8.087 14.103-8.138 14.052 8.138-14.052 8.087z" fill="#E2BB84"/><path d="M86.874 34.995L84.6 33.732v-6.42l2.275 1.314v6.37z" fill="#9D7753"/><path d="M86.874 28.627L84.6 27.311l14.102-8.087 2.225 1.314-14.053 8.087z" fill="#F0CBA5"/><path d="M78.837 24.027l14.103 8.087-7.582-4.044-6.52-4.043z" fill="#8A6547"/><path d="M85.813 28.02l14.103-8.088-.152-.1-14.103 8.137.152.05z" fill="#8D5A2F"/><path d="M74.642 52.788h-4.7l-6.37-3.69 2.325-1.365 8.745 5.055z" fill="#BDB751"/><path d="M74.642 52.788l14.052-8.138V34.59l-14.052 8.088v10.11z" fill="#DFAD61"/><path d="M74.642 52.788L60.539 44.65V34.59l14.103 8.088v10.11z" fill="#B38052"/><path d="M74.642 42.678l-14.103-8.087 14.103-8.138 14.052 8.138-14.052 8.087z" fill="#E2BB84"/><path d="M68.576 45.56l-2.274-1.264v-6.42l2.274 1.315v6.369z" fill="#9D7753"/><path d="M82.628 31.103l-2.022-1.213 2.022 1.213z" fill="#C9A684"/><path d="M68.576 39.19l-1.112-.656-1.162-.657.455-.253 2.274 1.314-.455.253zm6.066-3.487v-2.578l5.762-3.336.203.101 2.021 1.213-7.986 4.6z" fill="#F0CBA5"/><path d="M68.576 39.19l-2.274-1.313 1.162.657 1.112.657z" fill="#BD9E7B"/><path d="M60.54 34.59l14.102 8.088-7.633-4.043-6.47-4.044z" fill="#8A6547"/><path d="M67.515 38.584l14.103-8.088-.152-.1-14.103 8.137.152.051z" fill="#8D5A2F"/><path d="M56.293 63.352h-4.65l-6.42-3.69 2.376-1.364 8.694 5.054z" fill="#BDB751"/><path d="M56.294 63.352l14.102-8.138V45.155l-14.102 8.088v10.11z" fill="#DFAD61"/><path d="M56.294 63.352l-14.052-8.138V45.155l14.052 8.088v10.11z" fill="#B38052"/><path d="M56.294 53.243l-14.052-8.088 14.052-8.138 14.102 8.138-14.102 8.088z" fill="#E2BB84"/><path d="M50.279 56.175l-2.275-1.315v-6.369l2.275 1.264v6.42z" fill="#9D7753"/><path d="M64.33 41.667l-.758-.454.758.454zm-14.052 8.088l-1.516-.86 1.516.86z" fill="#C9A684"/><path d="M50.279 49.755l-1.517-.86-.758-.404 14.102-8.138 1.466.86.759.455-14.053 8.087z" fill="#F0CBA5"/><path d="M50.279 49.755l-2.275-1.264.758.405 1.517.859z" fill="#BD9E7B"/><path d="M42.242 45.155l14.052 8.088-7.582-4.044-6.47-4.044z" fill="#8A6547"/><path d="M49.217 49.148l14.103-8.087-.203-.101-14.052 8.138.152.05z" fill="#8D5A2F"/><path d="M37.995 73.916h-4.65l-14.052-8.138 4.65-2.679v2.68l14.052 8.138z" fill="#BDB751"/><path d="M37.996 73.916l14.102-8.138V55.72l-14.102 8.088v10.11z" fill="#DFAD61"/><path d="M37.995 73.916l-14.052-8.138V55.72l14.052 8.088v10.11z" fill="#B38052"/><path d="M37.995 63.807L23.943 55.72l14.052-8.138 14.103 8.138-14.103 8.088z" fill="#E2BB84"/><path d="M31.98 66.739l-2.274-1.314v-6.37l2.274 1.264v6.42z" fill="#9D7753"/><path d="M44.567 51.373l-.809-.455.809.455z" fill="#C9A684"/><path d="M31.98 60.32l-2.274-1.264 14.052-8.138.809.455 1.465.859-14.052 8.087z" fill="#F0CBA5"/><path d="M23.943 55.72l14.052 8.087-7.582-4.044-6.47-4.044z" fill="#8A6547"/><path d="M30.919 59.713l14.052-8.088-.152-.1-14.052 8.137.152.05z" fill="#8D5A2F"/><path d="M74.642 42.173l14.052-8.138V23.976l-14.052 8.088v10.11z" fill="#DFAD61"/><path d="M74.642 42.173l-14.103-8.138V23.976l14.103 8.088v10.11z" fill="#B38052"/><path d="M74.642 32.064l-14.103-8.088 14.103-8.138 14.052 8.138-14.052 8.088z" fill="#E2BB84"/><path d="M68.576 34.995l-2.274-1.314v-6.369l2.274 1.264v6.42z" fill="#9D7753"/><path d="M82.628 20.488l-2.224-1.314 2.224 1.314z" fill="#FEFEFE"/><path d="M68.576 28.576l-2.274-1.264 2.274 1.264z" fill="#C9A684"/><path d="M68.576 28.576l-2.274-1.264 14.102-8.138 2.224 1.314-14.052 8.088z" fill="#F0CBA5"/><path d="M60.54 23.976l14.102 8.088-7.633-4.044-6.47-4.044z" fill="#8A6547"/><path d="M67.515 27.97l14.103-8.088-.152-.101-14.103 8.138.152.05z" fill="#8D5A2F"/><path opacity=".1" d="M126.603 143.369c8.57 0 15.5 3.914 15.5 8.675 0 4.761-6.93 8.623-15.5 8.623s-15.5-3.862-15.5-8.623c0-4.761 6.93-8.675 15.5-8.675z" fill="#000"/><path opacity=".1" d="M136.125 136.756c8.57 0 15.5 3.862 15.5 8.623 0 4.761-6.93 8.676-15.5 8.676s-15.5-3.915-15.5-8.676 6.93-8.623 15.5-8.623z" fill="#000"/><path d="M129.248 81.74s-2.275.317-2.91 2.327c-.634 2.01-.74 8.04-.952 9.257-.211 1.217-.688 2.487-.74 2.645-.106.106-.477.424.476 1.693.952 1.323 2.222 2.01 2.856 1.323.582-.635 1.217-5.82 1.27-8.041.106-2.222 0-9.205 0-9.205z" fill="#F6BDBE"/><path d="M115.441 109.142l.529.74c.106.053.423.424.687.371.265-.053.477-.371.477-.371s.423.424.74.424c.265 0 .529-.212.529-.212s.423 0 .582-.159l.159-.106s.476-.158.582-.37c.158-.264-.106-1.058-.106-1.058s.423-.952.476-1.322c.053-.212 0-.424 0-.582l-.053-.159s7.089-5.819 7.671-7.036c.37-.846-.794-1.851-1.64-2.433-.423-.265-.741-.476-.741-.476s-.635-.318-.846-.212c-.212.106-1.111.794-2.063 2.434-1.005 1.639-2.751 3.544-3.862 4.972-1.111 1.428-3.174 4.179-3.28 4.444-.106.317.159 1.111.159 1.111z" fill="#F6BDBE"/><path d="M123.587 102.688l.423.264c1.746-1.481 3.439-3.068 3.703-3.65.371-.846-.793-1.851-1.639-2.433-.106 1.375-.318 2.645-.477 3.332-.105.477-1.005 1.482-2.01 2.487z" fill="#F3A4B6"/><path d="M123.587 102.688l.37.317.053-.053-.423-.264zm0 0l.37.317-.37-.317z" fill="#F3A4B6"/><path d="M123.535 102.741l.423.317v-.053l-.37-.317-.053.053zm0 0l.37.317h.053l-.423-.317zm-.054.053l.424.264-.371-.317-.053.053zm0 0l.371.317.053-.053-.424-.264z" fill="#F3A4B6"/><path d="M123.429 102.847l.423.264-.37-.317-.053.053z" fill="#F3A4B6"/><path d="M123.429 102.846l.37.318.053-.053-.423-.265zm0 0l.37.318-.37-.318z" fill="#F3A4B6"/><path d="M123.376 102.899l.37.265h.053l-.37-.318-.053.053z" fill="#F3A4B6"/><path d="M123.376 102.899l.37.318v-.053l-.37-.265zm-.053.053l.37.265h.053l-.37-.318-.053.053zm0 0l.37.318v-.053l-.37-.265zm-.053 0l.37.318h.053l-.37-.318h-.053zm0 .053l.37.265-.37-.318v.053zm0 0l.37.318v-.053l-.37-.265zm-.053.053l.371.265h.052l-.37-.318-.053.053zm0 0l.371.318v-.053l-.371-.265zm-.053.053l.37.265h.053l-.37-.318-.053.053zm0 0l.37.265-.37-.265z" fill="#F3A4B6"/><path d="M123.111 103.111l.371.317.053-.052-.371-.265h-.053z" fill="#F3A4B6"/><path d="M123.111 103.164l.371.264-.371-.317v.053z" fill="#F3A4B6"/><path d="M123.058 103.164l.371.317.053-.053-.371-.264h-.053z" fill="#F3A4B6"/><path d="M123.058 103.217l.371.264-.371-.317v.053z" fill="#F3A4B6"/><path d="M123.058 103.217l.318.264h.053l-.371-.264z" fill="#F3A4B6"/><path d="M123.006 103.27l.37.264v-.053l-.317-.264-.053.053zm0 0l.317.264h.053l-.37-.264zm-.054 0l.371.317v-.053l-.318-.264h-.053z" fill="#F3A4B6"/><path d="M122.952 103.323l.371.264-.371-.317v.053z" fill="#F3A4B6"/><path d="M122.9 103.323l.37.264h.053l-.37-.264h-.053zm0 .052l.37.265v-.053l-.37-.264v.052zm0 .001l.317.264h.053l-.37-.264z" fill="#F3A4B6"/><path d="M122.847 103.429l.37.264v-.053l-.317-.264-.053.053z" fill="#F3A4B6"/><path d="M122.847 103.428l.317.265h.053l-.37-.265z" fill="#F3A4B6"/><path d="M122.794 103.428l.37.265-.317-.265h-.053zm0 .053l.317.265.053-.053-.37-.265v.053z" fill="#F3A4B6"/><path d="M122.741 103.481l.37.265-.317-.265h-.053zm0 .053l.317.265.053-.053-.37-.265v.053z" fill="#F3A4B6"/><path d="M122.688 103.534l.371.265-.318-.265h-.053zm0 0l.318.265h.053l-.371-.265z" fill="#F3A4B6"/><path d="M122.688 103.587l.318.265v-.053l-.318-.265v.053zm-.053 0l.317.265h.053l-.317-.265h-.053z" fill="#F3A4B6"/><path d="M122.635 103.64l.317.265v-.053l-.317-.265v.053z" fill="#F3A4B6"/><path d="M122.583 103.64l.37.265-.318-.265h-.052zm0 .053l.317.212h.053l-.37-.265v.053z" fill="#F3A4B6"/><path d="M122.529 103.693l.371.264v-.052l-.318-.212h-.053zm0 0l.318.264h.053l-.371-.264z" fill="#F3A4B6"/><path d="M122.529 103.746l.318.264v-.053l-.318-.264v.053z" fill="#F3A4B6"/><path d="M122.477 103.746l.317.264h.053l-.318-.264h-.052zm0 .053l.317.211-.317-.264v.053zm-.053 0l.317.264.053-.053-.318-.211h-.052zm0 0l.317.264-.317-.264zm-.053.053l.317.264.053-.053-.317-.264-.053.053zm0 0l.317.264-.317-.264zm-.053.053l.317.211h.053l-.317-.264-.053.053zm0 0l.317.264v-.053l-.317-.211zm0 .052l.264.212h.053l-.317-.264v.052z" fill="#F3A4B6"/><path d="M122.265 103.957l.318.265v-.053l-.265-.212h-.053zm0 0l.318.265-.318-.265zm-.053.053l.317.212h.053l-.317-.265-.053.053zm0 0l.317.265v-.053l-.317-.212zm-.053.053l.318.212h.052l-.317-.265-.053.053zm0 0l.318.265v-.053l-.318-.212zm-.053 0l.318.265h.053l-.318-.265h-.053z" fill="#F3A4B6"/><path d="M122.106 104.116l.318.212-.318-.265v.053z" fill="#F3A4B5"/><path d="M122.106 104.116l.265.265.053-.053-.318-.212z" fill="#F3A4B5"/><path d="M122.053 104.169l.318.212-.265-.265-.053.053zm0 0l.265.265.053-.053-.318-.212z" fill="#F3A4B5"/><path d="M122 104.169l.318.265-.265-.265H122z" fill="#F3A4B5"/><path d="M122 104.222l.265.212h.053l-.318-.265v.053z" fill="#F3A4B5"/><path d="M121.948 104.222l.317.264v-.052l-.264-.212h-.053zm0 .053l.264.211h.053l-.317-.264v.053zm-.053 0l.317.264v-.053l-.265-.211h-.052zm0 .053l.317.211-.317-.264v.053zm0 0l.264.211h.053l-.317-.211zm-.053 0l.317.264v-.053l-.264-.211h-.053zm0 .053l.264.211h.053l-.317-.264v.053zm-.053 0l.317.264v-.053l-.264-.211h-.053zm0 .053l.264.211h.053l-.317-.264v.053zm-.053 0l.317.211-.264-.211h-.053zm0 0l.265.264.052-.053-.317-.211zm-.053.052l.317.212-.264-.264-.053.052zM121.683 104.486l.264.212H122l-.317-.212z" fill="#F3A4B5"/><path d="M121.683 104.539l.264.212v-.053l-.264-.212v.053z" fill="#F3A4B5"/><path d="M121.63 104.539l.265.212h.053l-.265-.212h-.053z" fill="#F3A4B5"/><path d="M121.63 104.539l.265.265v-.053l-.265-.212z" fill="#F3A7B6"/><path d="M121.577 104.592l.265.212h.053l-.265-.265-.053.053zm0 0l.265.212-.265-.212z" fill="#F3A7B6"/><path d="M121.524 104.645l.318.212v-.053l-.265-.212-.053.053zm0 0l.265.212h.053l-.318-.212z" fill="#F3A7B6"/><path d="M121.471 104.698l.318.212v-.053l-.265-.212-.053.053zm0 0l.265.212h.053l-.318-.212z" fill="#F3A7B6"/><path d="M121.419 104.698l.317.212-.264-.212h-.053zm0 .053l.264.212.053-.053-.317-.212v.053zm0 0l.264.212-.264-.212zm-.054.053l.265.211.053-.052-.265-.212-.053.053zm0 0l.265.211-.265-.211z" fill="#F3A7B6"/><path d="M121.313 104.804l.265.211h.052l-.264-.211h-.053zm0 .053l.264.211v-.053l-.264-.211v.053z" fill="#F3A7B6"/><path d="M121.26 104.857l.264.211h.053l-.264-.211h-.053z" fill="#F3A7B6"/><path d="M121.26 104.91l.264.211v-.053l-.264-.211v.053zm-.053 0l.264.211h.053l-.264-.211h-.053zm0 0l.264.211-.264-.211zm0 .053l.211.211.053-.053-.264-.211v.053z" fill="#F3A7B6"/><path d="M121.154 104.963l.265.211-.212-.211h-.053zm0 .052l.265.212v-.053l-.265-.211v.052zm-.053.001l.265.211h.052l-.264-.211h-.053z" fill="#F3A7B6"/><path d="M121.101 105.068l.265.159-.265-.211v.052z" fill="#F3A7B6"/><path d="M121.048 105.068l.265.212.053-.053-.265-.159h-.053zm0 0l.265.212-.265-.212z" fill="#F3A7B6"/><path d="M120.995 105.121l.265.212.053-.053-.265-.212-.053.053zm0 0l.265.212-.265-.212zm0 .053l.212.159h.053l-.265-.212v.053zm-.053 0l.265.212v-.053l-.212-.159h-.053zm0 0l.212.212h.053l-.265-.212zm-.053.053l.265.159-.212-.212-.053.053zm0 0l.212.212.053-.053-.265-.159z" fill="#F3A7B6"/><path d="M120.837 105.28l.264.159-.211-.212-.053.053zm0 0l.211.212.053-.053-.264-.159z" fill="#F3A7B6"/><path d="M120.784 105.28l.264.212-.211-.212h-.053z" fill="#F3A7B6"/><path d="M120.784 105.333l.211.159h.053l-.264-.212v.053z" fill="#F4A8B7"/><path d="M120.731 105.333l.264.211v-.052l-.211-.159h-.053z" fill="#F4A8B7"/><path d="M120.731 105.386l.211.158h.053l-.264-.211v.053z" fill="#F4A8B7"/><path d="M120.731 105.386l.211.211v-.052l-.211-.159zm-.053 0l.264.211-.211-.211h-.053z" fill="#F4A8B7"/><path d="M120.678 105.439l.212.158h.052l-.264-.211v.053zm-.053 0l.264.211v-.053l-.211-.158h-.053zm0 .053l.212.158h.052l-.264-.211v.053zm-.053 0l.265.211v-.053l-.212-.158h-.053zm0 0l.212.211h.053l-.265-.211zm-.053.052l.265.159-.212-.211-.053.052z" fill="#F4A8B7"/><path d="M120.466 105.544l.265.212.053-.053-.265-.159h-.053zm0 0l.265.212-.265-.212z" fill="#F4A8B7"/><path d="M120.413 105.597l.265.212.053-.053-.265-.212-.053.053zm0 0l.265.212-.265-.212z" fill="#F4A8B7"/><path d="M120.361 105.597l.264.212h.053l-.265-.212h-.052zm0 .053l.264.212v-.053l-.264-.212v.053zm-.053 0l.264.212h.053l-.264-.212h-.053zm-.053 0l.317.212-.264-.212h-.053zm0 0l.264.265.053-.053-.317-.212zm-.053.053l.317.212-.264-.265-.053.053zm0 0l.317.265v-.053l-.317-.212zm-.053 0l.317.265h.053l-.317-.265h-.053zm-.053 0l.37.265-.317-.265h-.053zm0 .053l.317.265.053-.053-.37-.265v.053z" fill="#F4A8B7"/><path d="M120.043 105.756l.371.265-.318-.265h-.053z" fill="#F4A8B7"/><path d="M119.99 105.756l.37.317.053-.052-.37-.265h-.053z" fill="#F4A8B7"/><path d="M119.937 105.756l.423.317-.37-.317h-.053zm0 0l.371.317h.052l-.423-.317zm-.053.053l.423.317v-.053l-.37-.317-.053.053z" fill="#F4A8B7"/><path d="M119.832 105.809l.423.317h.053l-.424-.317h-.052zm-.053 0l.476.37v-.053l-.424-.317h-.052z" fill="#F4A8B7"/><path d="M119.779 105.809l.423.37h.053l-.476-.37z" fill="#F4A8B7"/><path d="M119.726 105.809l.476.37-.423-.37h-.053z" fill="#F4A8B7"/><path d="M119.673 105.809l.476.423.053-.053-.476-.37h-.053z" fill="#F4A8B7"/><path d="M119.62 105.862l.529.37-.476-.423-.053.053zm-.053 0l.529.37h.053l-.529-.37h-.053zm0 0l.529.423v-.053l-.529-.37zm-.053 0l.529.423h.053l-.529-.423h-.053z" fill="#F4A8B7"/><path d="M119.461 105.862l.159.106c.159.106.264.211.317.264l.106.106v-.053l-.529-.423h-.053z" fill="#F4A8B7"/><path d="M119.408 105.862l.106.053c0 .053.053.053.106.053l-.159-.106h-.053zm.635.476l-.106-.106.106.106z" fill="#F4A8B7"/><path d="M119.355 105.862l.053.053h.106l-.106-.053h-.053z" fill="#F4A8B7"/><path d="M119.302 105.862l.053.053h.053l-.053-.053h-.053z" fill="#F4A8B7"/><path d="M119.25 105.862l.105.053-.053-.053h-.052z" fill="#F4A8B7"/><path d="M119.62 108.401s-.053-.211-.265-.264c-.264-.053-.37-.053-.37-.053s-.106-.159-.37-.159c-.265-.053-.371.053-.371.053s-.317-.053-.476.053l-.899.317.529 1.64-.476.106-.265-.846-.105-.265-.265.159h-.106s-.264-.476-.264-.635c.053-.159.158-.582.158-.582s.424.106.582.106c.159 0 1.376-.318 1.376-.318l.74-.264.265-.529.053.899.264.212s.318.053.265.37z" fill="#F2969A"/><path d="M130.888 80.046s-3.545-.37-4.444 3.28c-.529 2.063-1.481 7.83-1.481 7.83s1.534 1.586 3.809 1.64c2.222.052 2.116-12.75 2.116-12.75z" fill="#148B2E"/><path d="M127.766 145.432s-1.904.846-2.274 1.164c-.371.317-2.698 2.274-2.857 2.592-.159.264-.899.899-.899 1.587-.053.635.793 1.269 1.481 1.269.688 0 2.91-.74 3.756-1.587.899-.899 1.428-1.481 1.587-1.534.159-.053.159.053.529.106.423.053 2.01-.688 2.222-1.111.159-.423.582-2.222.317-2.698-.211-.529-3.862.212-3.862.212z" fill="#474747"/><path d="M127.502 144.85s-1.798 1.798-1.957 2.222c-.159.37.635.793 1.746.846 1.111.053 2.486-1.111 2.486-1.111s1.164-1.693.635-2.592c-.476-.846-2.91.635-2.91.635z" fill="#F6BDBE"/><path d="M125.227 117.394c.212 6.348.106 8.147.212 10.104.159 1.905 1.217 17.034 1.217 17.775 0 .741 1.639 1.164 2.645 1.111h.052c1.006-.053 1.905-.952 1.958-1.481 0-.529 1.164-13.331.317-17.616-.211-1.27 2.222-9.787 2.222-9.787s.053-.317.053-.741c.212-1.692.529-6.03.106-7.141-.582-1.376-7.935-.159-7.935-.159s-1.058 1.534-.847 7.935z" fill="#5A8AC3"/><path d="M129.301 146.384h.053c1.005-.053 1.904-.952 1.957-1.481 0-.371.635-7.459.635-12.855 0-1.958-.106-3.65-.318-4.761v-.212c0-1.005.635-3.703 1.27-6.031-.582-1.481-.899-1.745-.899-1.745l-1.429-1.852c0 .529-.105 1.217-.317 2.01-.741 2.328.476 7.089.37 7.777-.053.688.794.952.582 6.083-.211 4.232-.106 10.633-1.904 13.067z" fill="#3E699D"/><path d="M142.05 141.253s-1.27 1.798-1.429 2.116c-.158.317-1.957 3.279-2.01 3.65-.106.423 0 .74.265 1.058.317.264 1.375.635 2.169.476.74-.212 1.904-.847 2.539-1.534.635-.635 1.322-2.434 1.322-2.434s.794-.846 1.005-1.269c.159-.424.688-.953.741-1.534.053-.582.106-.953-.423-1.429-.582-.476-4.179.9-4.179.9z" fill="#474747"/><path d="M141.997 140.829s-.635 1.852-.688 2.275c0 .37.899.741 1.746.635.846-.106 1.217-.899 1.428-1.164.265-.264 1.27-1.957 1.005-2.539-.264-.582-3.491.793-3.491.793z" fill="#F6BDBE"/><path d="M129.195 114.379c-.053 1.058.846 2.328.846 2.328l1.958 2.592s1.216 1.111 3.121 10.421c1.534 2.963 6.348 11.638 6.348 11.638s1.375 1.429 3.015.635a4.612 4.612 0 001.429-1.111c.37-.423.476-.793.476-.952 0-.635-3.122-8.358-3.545-9.469-.423-1.111-2.01-3.809-2.01-3.809s0-4.126.106-5.555c.264-2.486 2.433-8.781 1.693-9.998-.106-.212-.476-.317-1.005-.423-3.122-.635-12.115-.159-12.115-.159s-.211 2.804-.317 3.862z" fill="#799FCD"/><path d="M145.753 140.882l.317-.053c-2.38-8.094-4.179-10.421-5.237-11.849-.37-.477-.635-.794-.793-1.217-1.323-3.492.423-9.893.74-11.109.847-2.91.476-4.814.476-4.92l-.317.053c0 .053.37 1.957-.423 4.761-.371 1.269-2.116 7.723-.741 11.321.159.476.423.793.794 1.322 1.058 1.376 2.856 3.65 5.184 11.691z" fill="#A0ABCD"/><path d="M146.017 140.724c.265-.371.371-.635.371-.741v-.053c0-.635-3.122-8.358-3.545-9.469-.423-1.111-2.01-3.809-2.01-3.809v-.37c0-1.005 0-4.021.106-5.185.211-2.116 1.851-7.035 1.851-9.204 0-.159 0-.371-.053-.529-.158.158-.423.317-.634.529a2.884 2.884 0 00-.371.211c0 .529-.158 1.376-.423 2.539-.846 3.598-1.904 9.523-1.111 12.644 1.058 1.111 2.116 3.438 3.016 5.66a33.088 33.088 0 011.534 3.809c.476 1.217.899 2.275 1.058 3.28.053.211.158.423.211.688z" fill="#3E699D"/><path d="M145.912 140.882c.052-.053.052-.105.105-.158-.053-.265-.158-.476-.211-.688a4.1 4.1 0 01.106.846zm-1.164-4.126a33.088 33.088 0 00-1.534-3.809c.37.847.687 1.693 1.005 2.487.158.476.37.899.529 1.322z" fill="#948CA2"/><path d="M125.598 110.041c.476.635 3.597 2.169 7.406 2.857 1.164.211 2.433.37 3.703.37.635 0 1.217 0 1.851-.053 1.482-.159 2.698-.793 3.545-1.322.74-.529 1.216-1.006 1.216-1.006s-2.116-6.242-.423-13.33c.212-.794.371-1.535.529-2.222 1.164-5.343 1.058-7.248.318-9.205-.635-1.852-3.809-3.068-5.396-4.39-1.64-1.323-3.333-1.218-4.497-1.112-.317.053-.793-.053-1.375-.106-1.481-.211-3.386-.423-4.603 1.217-.899 1.164-1.798 6.295-1.587 9.205.212 2.856 0 7.3 0 10.104 0 2.857-.687 8.993-.687 8.993z" fill="#1D9F3A"/><path d="M132.052 114.379s3.914-.846 4.655-1.111c-1.27 0-2.539-.159-3.703-.37l-.952 1.481z" fill="#68749F"/><path d="M136.707 113.268c.74-.265 1.005-1.64 2.539-2.592 1.534-1.005 1.904-1.746 1.904-1.746s.688 1.164.953 2.963c.74-.529 1.216-1.006 1.216-1.006s-1.058-3.174-1.058-7.564c0-1.799.159-3.756.635-5.767.212-.793.37-1.534.529-2.221-1.375-2.54-2.962-4.391-4.655-4.444 0 0-2.645.9-2.063 4.444.582 3.544 0 6.883 0 6.883l-3.703 10.68c1.163.211 2.433.37 3.703.37z" fill="#148B2E"/><path d="M131.311 82.11c0 1.163-.106 1.587.159 1.957.211.37 1.957.688 2.803.37.318-.159.635-.264.9-.37 1.481-.74 2.169-1.64 2.327-1.957a.694.694 0 00-.053-.741s-.846-.794-1.058-2.804c0-.159.053-2.645.106-3.491v-.265s-.741-1.534-1.481-1.428c-.37 0-1.481 1.058-2.486 2.01-.794.846-1.535 1.587-1.535 1.587s.212 3.227.265 4.708c.053.159.053.318.053.423z" fill="#F4ABB7"/><path d="M131.258 76.713l6.295 4.973c0-.159-.106-.317-.106-.317s-.846-.794-1.058-2.804c0-.159.053-2.645.106-3.492-1.534.265-2.856.265-3.967.318-.529.529-1.005 1.058-1.27 1.322zm0 .001l6.295 5.025v-.053l-6.295-4.972z" fill="#F3A4B6"/><path d="M131.205 76.766l6.348 5.026v-.053l-6.295-5.025-.053.052zm0 0l6.348 5.026-6.348-5.026z" fill="#F3A4B6"/><path d="M131.205 76.766l6.348 5.079v-.053l-6.348-5.026zm-.053.054l6.401 5.025-6.348-5.079-.053.053z" fill="#F3A4B6"/><path d="M131.152 76.82l6.401 5.078v-.053l-6.401-5.026z" fill="#F3A4B6"/><path d="M131.152 76.82l6.401 5.078-6.401-5.079z" fill="#F3A4B6"/><path d="M131.099 76.872l6.454 5.079v-.053l-6.401-5.079-.053.053zm0 0l6.454 5.079-6.454-5.079zm0 0l6.454 5.132v-.053l-6.454-5.079z" fill="#F3A4B6"/><path d="M131.099 76.925l6.454 5.079-6.454-5.132v.053z" fill="#F3A4B6"/><path d="M131.047 76.925l6.454 5.079h.052l-6.453-5.079h-.053zm0 0l6.454 5.132v-.053l-6.454-5.079z" fill="#F3A4B6"/><path d="M131.047 76.978l6.454 5.079-6.454-5.132v.053zm-.054 0l6.507 5.132v-.053l-6.454-5.079h-.053zm0 0l6.507 5.132-6.507-5.132z" fill="#F3A4B6"/><path d="M130.993 77.031l6.454 5.131.053-.053-6.507-5.13v.052z" fill="#F3A4B6"/><path d="M130.993 77.084l6.454 5.078-6.454-5.131v.053zm0 0l6.454 5.078-6.454-5.078z" fill="#F3A4B6"/><path d="M130.993 77.137l6.454 5.078v-.053l-6.454-5.078v.053zm0 0l6.454 5.078-6.454-5.078zm0 .053l6.401 5.025h.053l-6.454-5.078v.053z" fill="#F3A4B6"/><path d="M130.993 77.243l6.401 5.025v-.053l-6.401-5.025v.053zm0 0l6.401 5.025-6.401-5.025zm0 .053l6.401 5.025v-.053l-6.401-5.025v.053z" fill="#F3A4B6"/><path d="M131.046 77.296l6.296 5.025h.052l-6.401-5.025h.053z" fill="#F3A4B6"/><path d="M131.047 77.348l6.295 4.973-6.295-5.025v.052z" fill="#F3A4B6"/><path d="M131.047 77.401l6.295 4.973v-.053l-6.295-4.973v.053z" fill="#F3A4B6"/><path d="M131.047 77.401l4.02 3.227c.053 0 .053 0 .106.053l2.169 1.693-6.295-4.973z" fill="#F3A4B6"/><path d="M131.047 77.454l3.914 3.121c.053 0 .106 0 .106.053l-4.02-3.227v.053zm4.232 3.333l2.01 1.587h.053l-2.169-1.693.106.106z" fill="#F3A4B6"/><path d="M131.047 77.454l3.861 3.068c.053 0 .053.053.053.053l-3.914-3.12zm4.285 3.386l1.957 1.587v-.053l-2.01-1.587.053.053z" fill="#F3A4B6"/><path d="M131.047 77.507l3.808 3.015h.053l-3.861-3.068v.053zm4.338 3.439l1.904 1.48-1.957-1.586.053.106z" fill="#F3A4B6"/><path d="M131.047 77.56l3.808 2.962-3.808-3.015v.053zm4.338 3.439l1.851 1.428h.053l-1.904-1.481v.053z" fill="#F3A4B6"/><path d="M131.047 77.56l3.756 2.962h.052l-3.808-2.962zm4.39 3.491l1.799 1.429v-.053l-1.852-1.428.053.052z" fill="#F3A4B6"/><path d="M131.047 77.613l3.703 2.91h.053l-3.756-2.963v.053zm4.39 3.491l1.799 1.376-1.799-1.429v.053z" fill="#F3A4B6"/><path d="M131.047 77.613l3.703 2.91-3.703-2.91zm4.443 3.491l1.746 1.376-1.799-1.376h.053z" fill="#F3A4B6"/><path d="M131.047 77.666l3.65 2.856h.053l-3.703-2.91v.054zm4.443 3.491l1.693 1.376.053-.053-1.746-1.376v.053z" fill="#F3A4B6"/><path d="M131.047 77.719l3.597 2.856.053-.053-3.65-2.856v.053zm4.443 3.491l1.693 1.323-1.693-1.376v.053zm-4.443-3.491l3.597 2.856-3.597-2.856zm4.496 3.544l1.64 1.322v-.052l-1.693-1.323.053.053z" fill="#F3A4B6"/><path d="M131.047 77.772l3.544 2.803h.053l-3.597-2.856v.053zm4.496 3.544l1.587 1.27h.053l-1.64-1.323v.053z" fill="#F3A4B6"/><path d="M131.047 77.772l3.544 2.803-3.544-2.803zm4.496 3.597l1.587 1.216-1.587-1.27v.054z" fill="#F3A4B6"/><path d="M131.047 77.824l3.491 2.751h.053l-3.544-2.803v.052zm4.549 3.545l1.534 1.27v-.053l-1.587-1.217h.053z" fill="#F3A4B6"/><path d="M131.047 77.877l3.491 2.698-3.491-2.75v.052zm4.549 3.545l1.534 1.216-1.534-1.27v.054z" fill="#F3A4B6"/><path d="M131.047 77.877l3.438 2.698h.053l-3.491-2.698zm4.549 3.598l1.481 1.163h.053l-1.534-1.216v.053z" fill="#F3A4B6"/><path d="M131.047 77.93l3.438 2.698v-.053l-3.438-2.698v.053zm4.549 3.597l1.481 1.164v-.053l-1.481-1.163v.053z" fill="#F3A4B6"/><path d="M131.047 77.93l3.385 2.698h.053l-3.438-2.698zm4.602 3.597l1.428 1.164-1.481-1.163h.053z" fill="#F3A4B6"/><path d="M131.047 77.983l3.385 2.645-3.385-2.698v.053zm4.602 3.597l1.375 1.111h.053l-1.428-1.163v.052z" fill="#F3A4B6"/><path d="M131.047 77.983l3.332 2.645h.053l-3.385-2.645zm4.602 3.65l1.375 1.111v-.053l-1.375-1.11v.052z" fill="#F3A4B6"/><path d="M131.047 78.036l3.332 2.592-3.332-2.645v.053zm4.602 3.597l1.375 1.111-1.375-1.11z" fill="#F3A4B6"/><path d="M131.047 78.089l3.279 2.592.053-.053-3.332-2.592v.053zm4.602 3.597l1.323 1.058h.052l-1.375-1.11v.052z" fill="#F3A4B6"/><path d="M131.1 78.089l3.226 2.592-3.279-2.592h.053zm4.549 3.65l1.323 1.005-1.323-1.058v.053z" fill="#F3A4B6"/><path d="M131.099 78.142l3.174 2.54h.053l-3.227-2.593v.053zm4.55 3.65l1.322 1.005v-.053l-1.322-1.005v.053z" fill="#F3A4B6"/><path d="M131.099 78.142l3.174 2.539-3.174-2.54zm4.603 3.65l1.269 1.005-1.322-1.005h.053z" fill="#F3A4B6"/><path d="M131.099 78.195l3.122 2.486h.052l-3.174-2.54v.054zm4.603 3.65l1.216.952h.053l-1.269-1.005v.053z" fill="#F3A4B6"/><path d="M131.099 78.248l3.122 2.486v-.053l-3.122-2.486v.053zm4.603 3.597l1.216 1.005v-.053l-1.216-.952zm-4.603-3.597l3.122 2.486-3.122-2.486zm4.603 3.65l1.216.952-1.216-1.005v.053z" fill="#F3A4B6"/><path d="M131.099 78.3l3.069 2.434h.053l-3.122-2.486v.052zm4.603 3.65l1.164.9h.052l-1.216-.952v.053z" fill="#F3A4B6"/><path d="M131.099 78.3l3.069 2.434-3.069-2.433zm4.603 3.65l1.164.953v-.053l-1.164-.9z" fill="#F3A4B6"/><path d="M131.099 78.353l3.016 2.38h.053l-3.069-2.433v.053zm4.603 3.65l1.164.9-1.164-.952v.053z" fill="#F3A4B6"/><path d="M131.099 78.406l3.016 2.38v-.052l-3.016-2.38v.052zm4.603 3.65l1.111.847h.053l-1.164-.9v.053z" fill="#F3A4B6"/><path d="M131.099 78.406l2.963 2.38h.053l-3.016-2.38zm4.603 3.65l1.111.9v-.053l-1.111-.847z" fill="#F3A4B6"/><path d="M131.099 78.46l2.963 2.327-2.963-2.38v.052zm4.603 3.65l1.111.846-1.111-.9v.053z" fill="#F3A4B6"/><path d="M131.099 78.46l2.963 2.327-2.963-2.328zm4.603 3.65l1.058.846h.053l-1.111-.847z" fill="#F3A4B6"/><path d="M131.099 78.512l2.91 2.328.053-.053-2.963-2.328v.053zm4.603 3.65l1.058.847v-.053l-1.058-.847v.053z" fill="#F3A4B6"/><path d="M131.099 78.565l2.91 2.275-2.91-2.328v.053zm4.603 3.65l1.058.794-1.058-.847v.053z" fill="#F3A4B5"/><path d="M131.099 78.565l2.857 2.275h.053l-2.91-2.275zm4.603 3.65l1.005.794h.053l-1.058-.794z" fill="#F3A4B5"/><path d="M131.099 78.618l2.857 2.222-2.857-2.275v.053zm4.656 3.65l.952.74-1.005-.793.053.053z" fill="#F3A4B5"/><path d="M131.099 78.618l2.804 2.222h.053l-2.857-2.222zm4.656 3.65l.952.793v-.052l-.952-.741zm-4.656-3.598l2.804 2.223v-.053l-2.804-2.222v.053zm4.656 3.65l.899.742h.053l-.952-.794v.053z" fill="#F3A4B5"/><path d="M131.099 78.724l2.804 2.169-2.804-2.222v.053zm4.656 3.65l.899.688-.899-.741v.053z" fill="#F3A4B5"/><path d="M131.099 78.724l2.751 2.169h.053l-2.804-2.17zm4.656 3.65l.899.74v-.052l-.899-.688z" fill="#F3A4B5"/><path d="M131.099 78.777l2.751 2.116-2.751-2.17v.054zm4.656 3.65l.846.688h.053l-.899-.741v.053z" fill="#F3A4B5"/><path d="M131.099 78.777l2.698 2.168.053-.052-2.751-2.116zm4.656 3.65l.846.687-.846-.687z" fill="#F3A4B5"/><path d="M131.099 78.83l2.698 2.115-2.698-2.168v.052zm4.656 3.65l.846.687v-.053l-.846-.687v.053z" fill="#F3A4B5"/><path d="M131.099 78.882l2.645 2.063h.053l-2.698-2.115v.052zm4.603 3.598l.846.687h.053l-.846-.687h-.053zm-4.603-3.598l2.645 2.063-2.645-2.063zm4.603 3.65l.846.635-.846-.687v.052z" fill="#F3A4B5"/><path d="M131.152 78.935l2.592 2.063v-.053l-2.645-2.063.053.053zm4.55 3.597l.846.635-.846-.635zm-4.55-3.597l2.54 2.063h.052l-2.592-2.063zm4.55 3.65l.793.635.053-.053-.846-.635v.053z" fill="#F3A4B5"/><path d="M131.152 78.988l2.54 2.01-2.54-2.063v.053zm4.55 3.65l.793.582-.793-.635v.053z" fill="#F3A4B5"/><path d="M131.152 79.041l2.487 1.957h.053l-2.54-2.01v.053zm4.55 3.597l.74.582h.053l-.793-.582zm-4.55-3.597L133.639 81l-2.487-1.958zm4.55 3.65l.74.582v-.053l-.74-.582v.053z" fill="#F3A4B5"/><path d="M131.152 79.094l2.434 1.957.053-.052-2.487-1.958v.053zm4.55 3.597l.74.582-.74-.582zm-4.55-3.597l2.434 1.957-2.434-1.957zm4.55 3.65l.688.53h.052l-.74-.583v.053zm-4.55-3.597l2.434 1.904-2.434-1.957v.053zm4.55 3.597l.688.53-.688-.53z" fill="#F3A4B5"/><path d="M131.152 79.2l2.381 1.851h.053l-2.434-1.904v.053zm4.55 3.597l.688.53v-.054l-.688-.529v.053z" fill="#F3A4B5"/><path d="M131.152 79.2l2.381 1.904v-.053l-2.381-1.851zm4.55 3.597l.635.53h.053l-.688-.53z" fill="#F3A7B6"/><path d="M131.152 79.253l2.328 1.851h.053l-2.381-1.904v.053zm4.55 3.597l.635.476-.635-.529v.053zm-4.55-3.597l2.328 1.851-2.328-1.851zm4.55 3.597l.635.476-.635-.476z" fill="#F3A7B6"/><path d="M131.152 79.306l2.328 1.798-2.328-1.851v.053zm4.55 3.597l.582.476.053-.053-.635-.476v.053zm-4.55-3.544l2.275 1.798.053-.053-2.328-1.798v.053zm4.55 3.544l.582.476-.582-.476z" fill="#F3A7B6"/><path d="M131.152 79.359l2.275 1.798-2.275-1.798zm4.55 3.597l.529.423h.053l-.582-.476v.053zm-4.55-3.545l2.222 1.746h.053l-2.275-1.798v.052zm4.497 3.545l.582.476v-.053l-.529-.423h-.053zm-4.497-3.545l2.222 1.746-2.222-1.746zm4.497 3.598l.582.423-.582-.476v.053zm-4.497-3.545l2.169 1.746.053-.053-2.222-1.746v.053zm4.497 3.545l.529.423h.053l-.582-.423zm-4.497-3.492l2.169 1.693-2.169-1.746v.053zm4.497 3.545l.529.37-.529-.423v.053zm-4.497-3.545l2.169 1.693-2.169-1.693zm4.497 3.545l.529.423v-.053l-.529-.37zm-4.497-3.492l2.116 1.64h.053l-2.169-1.693v.053zm4.497 3.545l.476.37h.053l-.529-.423v.053zm-4.497-3.545l2.116 1.64-2.116-1.64zm4.497 3.545l.476.37-.476-.37zm-4.497-3.492l2.063 1.64.053-.053-2.116-1.64v.053zm4.497 3.544l.423.318h.053l-.476-.37v.052zm-4.497-3.491l2.063 1.587-2.063-1.64v.053zm4.497 3.491l.423.37v-.052l-.423-.318zm-4.497-3.491l2.011 1.587h.052l-2.063-1.587zm4.444 3.491l.476.37-.423-.37h-.053zM131.152 79.729l2.011 1.534-2.011-1.587v.053zm4.444 3.491l.423.318h.053l-.476-.37v.052z" fill="#F3A7B6"/><path d="M131.152 79.729l2.011 1.587v-.053l-2.011-1.534zm4.444 3.491l.423.37v-.052l-.423-.318z" fill="#F3A7B6"/><path d="M131.205 79.782l1.905 1.534h.053l-2.011-1.587.053.053zm4.391 3.491l.37.318h.053l-.423-.37v.052zm-4.391-3.491l1.905 1.534-1.905-1.534zm4.391 3.491l.37.318-.37-.318z" fill="#F3A7B6"/><path d="M131.205 79.835l1.852 1.48h.053l-1.905-1.533v.053zm4.391 3.491l.37.265-.37-.318v.053zm-4.391-3.438l1.852 1.428-1.852-1.481v.053zm4.391 3.438l.317.318.053-.053-.37-.265z" fill="#F3A7B6"/><path d="M131.205 79.888l1.799 1.48.053-.052-1.852-1.428zm4.338 3.491l.37.264-.317-.317-.053.053zm-4.338-3.439l1.799 1.429-1.799-1.481v.052zm4.338 3.439l.37.264-.37-.264z" fill="#F3A7B6"/><path d="M131.205 79.94l1.746 1.429h.053l-1.799-1.428zm4.338 3.44l.317.264h.053l-.37-.265z" fill="#F3A7B6"/><path d="M131.205 79.993l1.746 1.376-1.746-1.428v.052zm4.338 3.439l.317.264v-.052l-.317-.265v.053zm-4.338-3.386l1.746 1.376v-.053l-1.746-1.376v.053zm4.338 3.386l.264.264h.053l-.317-.264zm-4.338-3.386l1.693 1.376h.053l-1.746-1.376zm4.285 3.439l.317.212-.264-.265-.053.053z" fill="#F3A7B6"/><path d="M131.205 80.1l1.693 1.322-1.693-1.376v.053zm4.285 3.385l.317.212-.317-.212z" fill="#F3A7B6"/><path d="M131.205 80.1l1.64 1.322h.053l-1.693-1.323zm4.285 3.438l.265.211.052-.052-.317-.212v.053z" fill="#F3A7B6"/><path d="M131.205 80.152l1.64 1.27-1.64-1.323v.053zm4.285 3.386l.265.211-.265-.211zm-4.285-3.333l1.587 1.27.053-.053-1.64-1.27v.053zm4.285 3.333l.212.211h.053l-.265-.211z" fill="#F3A7B6"/><path d="M131.205 80.205l1.587 1.27-1.587-1.27zm4.285 3.386l.212.158-.212-.211v.053z" fill="#F3A7B6"/><path d="M131.205 80.258l1.534 1.217h.053l-1.587-1.27v.053zm4.232 3.333l.212.211.053-.053-.212-.158h-.053z" fill="#F3A7B6"/><path d="M131.205 80.258l1.534 1.217-1.534-1.217zm4.232 3.386l.212.158-.212-.211v.053z" fill="#F3A7B6"/><path d="M131.205 80.31l1.481 1.165h.053l-1.534-1.217v.053zm4.232 3.334l.212.158-.212-.158z" fill="#F4A8B7"/><path d="M131.205 80.364l1.481 1.163v-.052l-1.481-1.164v.053zm4.232 3.28l.159.158h.053l-.212-.159z" fill="#F4A8B7"/><path d="M131.205 80.364l1.428 1.163h.053l-1.481-1.163zm4.232 3.332l.159.106-.159-.158v.052z" fill="#F4A8B7"/><path d="M131.205 80.417l1.428 1.11-1.428-1.163v.053zm4.179 3.28l.159.158.053-.053-.159-.106h-.053z" fill="#F4A8B7"/><path d="M131.205 80.417l1.428 1.11-1.428-1.11zm4.179 3.332l.159.106-.159-.159v.053zm-4.179-3.279l1.376 1.058h.052l-1.428-1.111v.052zm4.179 3.28l.159.105-.159-.106z" fill="#F4A8B7"/><path d="M131.205 80.522l1.376 1.058v-.052l-1.376-1.059v.053zm4.179 3.227l.106.106h.053l-.159-.106z" fill="#F4A8B7"/><path d="M131.205 80.522l1.323 1.058h.053l-1.376-1.058zm4.126 3.28l.159.106v-.053l-.106-.106-.053.053z" fill="#F4A8B7"/><path d="M131.205 80.575l1.323 1.005-1.323-1.058v.053zm4.126 3.227l.106.106h.053l-.159-.106z" fill="#F4A8B7"/><path d="M131.205 80.575l1.27 1.005h.053l-1.323-1.005zm4.126 3.28l.106.053-.106-.106v.053z" fill="#F4A8B7"/><path d="M131.205 80.628l1.27.952-1.27-1.005v.053zm4.126 3.227l.053.053h.053l-.106-.053z" fill="#F4A8B7"/><path d="M131.205 80.628l1.217.952h.053l-1.27-.952zm4.073 3.227l.106.106v-.053l-.053-.053h-.053z" fill="#F4A8B7"/><path d="M131.205 80.681l1.217.952v-.053l-1.217-.952v.053zm4.073 3.227l.106.053-.106-.106v.053z" fill="#F4A8B7"/><path d="M131.205 80.734l1.164.9h.053l-1.217-.953v.053zm4.073 3.174l.053.053h.053l-.106-.053z" fill="#F4A8B7"/><path d="M131.258 80.734l1.111.9-1.164-.9h.053zm4.02 3.174l.053.053-.053-.053z" fill="#F4A8B7"/><path d="M131.258 80.787l1.058.846h.053l-1.111-.9v.054zm3.968 3.174l.053.053.052-.053-.052-.053-.053.053zm-3.968-3.174l1.058.846-1.058-.846zm3.968 3.174l.053.053-.053-.053z" fill="#F4A8B7"/><path d="M131.258 80.84l1.005.793h.053l-1.058-.846v.053zm3.968 3.12v.054h.053l-.053-.053z" fill="#F4A8B7"/><path d="M131.258 80.893l.952.793.053-.053-1.005-.793v.053zm3.968 3.12v-.052.053zm-3.968-3.12l.952.793-.952-.793zm3.915 3.12h.053-.053z" fill="#F4A8B7"/><path d="M131.258 80.945l.899.741h.053l-.952-.793v.052zm3.915 3.122l.053-.053h-.053v.053zm-3.915-3.121l.899.74-.899-.74zm0 .053l.846.687h.053l-.899-.74v.053z" fill="#F4A8B7"/><path d="M131.258 81.051l.846.635-.846-.688v.053z" fill="#F4A8B7"/><path d="M131.258 81.051l.794.635h.052l-.846-.635z" fill="#F4A8B7"/><path d="M131.258 81.104l.794.582-.794-.635v.053zm0 0l.741.635.053-.053-.794-.582z" fill="#F4A8B7"/><path d="M131.258 81.157l.688.582h.053l-.741-.635v.053z" fill="#F4A8B7"/><path d="M131.258 81.21l.688.53-.688-.583v.053z" fill="#F4A8B7"/><path d="M131.258 81.21l.635.529h.053l-.688-.529zm0 .053l.635.476-.635-.529v.053zm0 0l.582.476h.053l-.635-.476zm0 .053l.529.423h.053l-.582-.476v.053zm0 0l.529.423-.529-.423zm0 .053l.476.37h.053l-.529-.423v.053z" fill="#F4A8B7"/><path d="M131.258 81.422l.423.317h.053l-.476-.37v.053zm0 0l.423.317-.423-.317z" fill="#F4A8B7"/><path d="M131.258 81.475l.37.264h.053l-.423-.317v.053z" fill="#F4A8B7"/><path d="M131.258 81.475l.317.264h.053l-.37-.264zm0 .053l.317.211-.317-.264v.053z" fill="#F4A8B7"/><path d="M131.258 81.58l.265.159h.052l-.317-.212v.053z" fill="#F4A8B7"/><path d="M131.258 81.58l.212.16h.053l-.265-.16z" fill="#F4A8B7"/><path d="M131.258 81.633l.159.106h.053l-.212-.159v.053z" fill="#F4A8B7"/><path d="M131.258 81.633l.106.106h.053l-.159-.106zm0 .053h.053l.053.053-.106-.106v.053z" fill="#F4A8B7"/><path d="M135.754 74.703s-.158 3.597-.529 4.391c-.317.74-2.909 2.698-5.343 2.38-.687-.37-1.692-2.168-1.798-3.808-.106-1.587 0-2.17-.053-2.328 0-.159-.529-1.11-.423-1.587.053-.423.211-3.015 1.058-4.126.899-1.111 3.333-1.799 5.501-.9 2.169.9 1.587 5.978 1.587 5.978z" fill="#F6BDBE"/><path d="M135.014 75.973s-.212-1.428.688-1.693c.899-.264.529 1.746.529 1.746l.105 2.169.053.37s.847-1.852 1.164-2.433c.317-.582.476-.794.582-1.429.106-.635.582-3.28.476-4.232-.106-.952-1.746-2.38-2.962-2.433-.582-.794-1.746-1.164-2.857-1.164-1.111 0-1.904.053-3.227 1.11-1.322 1.059-1.375 1.852-1.481 2.117-.106.264-.106 1.27-.106 1.27l.106-.53s.529.37 2.169.212c1.693-.159 2.592-.793 2.592-.793s-.317 1.163-.265 1.587c.053.423.318 1.745.318 1.745s.846.53 1.164.74c.264.16.37.636.37.636l.106 1.164.476-.16z" fill="#774B59"/><path d="M135.543 75.126l-.053.106v-.106h.053z" fill="#F6B9B9"/><path d="M135.543 75.073l-.053.16.053-.107v-.053z" fill="#F6B9B9"/><path d="M135.543 75.02v.265l-.053-.053.053-.158v-.053zm.053-.052l-.053.317v-.264l.053-.053zm0 0l-.053.317.053-.317zm.053-.053l-.106.423v-.053l.053-.317.053-.053z" fill="#F6B9B9"/><path d="M135.649 74.862l-.106.476.106-.423v-.053z" fill="#F6B9B9"/><path d="M135.649 74.862l-.053.476h-.053l.106-.476zm.053-.052l-.106.581v-.053l.053-.476.053-.053z" fill="#F6B9B9"/><path d="M135.702 74.81l-.106.581.106-.582z" fill="#F6B9B9"/><path d="M135.702 74.756l-.106.635.106-.582v-.053zm-.318 2.116l-.053.106c0-.053.053-.106.053-.106z" fill="#F6B9B9"/><path d="M135.755 74.756l-.106.688-.053-.053.106-.635h.053zm-.371 2.116l-.053.159v-.053l.053-.106z" fill="#F6B9B9"/><path d="M135.755 74.703l-.106.74.106-.687v-.053zm-.371 2.116l-.053.265v-.053l.053-.159v-.053z" fill="#F6B9B9"/><path d="M135.755 74.703l-.106.794v-.053l.106-.74zm-.318 2.063l-.053.37-.053-.052.053-.265.053-.053z" fill="#F6B9B9"/><path d="M135.807 74.65l-.158.847.106-.794.052-.053zm-.37 2.063l-.053.477v-.053l.053-.37v-.053z" fill="#F6B9B9"/><path d="M135.807 74.65l-.158.9v-.053l.158-.847zm-.317 2.01l-.106.583v-.053l.053-.477.053-.052z" fill="#F6B9B9"/><path d="M135.807 74.65l-.158.953v-.053l.158-.9zm-.317 2.01l-.106.583.106-.582zm.37-2.063l-.158 1.006h-.053l.158-.953.053-.053zm-.317 2.01l-.159.688v-.052l.106-.582.053-.053z" fill="#F6B9B9"/><path d="M135.86 74.597l-.158 1.059v-.053l.158-1.005zm-.317 1.905l-.106.793h-.053l.159-.687v-.106z" fill="#F6BABC"/><path d="M135.86 74.597l-.158 1.111v-.052l.158-1.059zm-.317 1.852l-.106.846.106-.793v-.053z" fill="#F6BABC"/><path d="M135.913 74.545l-.211 1.216v-.053l.158-1.11.053-.053zm-.317 1.851l-.159.952v-.052l.106-.847.053-.053zm.317-1.851l-.211 1.322v-.106l.211-1.216zm-.264 1.745l-.212 1.058.159-.952.053-.106z" fill="#F6BABC"/><path d="M135.913 74.545l-.476 2.803.212-1.058c0-.158.053-.264.053-.423l.211-1.322z" fill="#F6BABC"/><path d="M135.966 74.492l-.476 2.91-.053-.054.476-2.803.053-.053zm0 0l-.476 2.91.476-2.91z" fill="#F6BABC"/><path d="M135.966 74.492l-.476 2.91.476-2.91zm.053 0l-.529 2.91.476-2.91h.053z" fill="#F6BDBE"/><path d="M136.019 74.492l-.476 2.962-.053-.053.529-2.91z" fill="#F6BDBE"/><path d="M136.019 74.439l-.476 3.015.476-2.962v-.053z" fill="#F6BDBE"/><path d="M136.072 74.439l-.529 3.015.476-3.015h.053zm0 0l-.529 3.015.529-3.015zm0 0l-.476 3.015h-.053l.529-3.015z" fill="#F6BDBE"/><path d="M136.125 74.439l-.529 3.015.476-3.015h.053z" fill="#F7BEBF"/><path d="M136.125 74.386l-.529 3.068.529-3.015v-.053z" fill="#F7BEBF"/><path d="M136.125 74.386l-.529 3.121v-.053l.529-3.068z" fill="#F7BEBF"/><path d="M136.178 74.386l-.529 3.121h-.053l.529-3.121h.053zm0 0l-.529 3.121.529-3.121z" fill="#F7BEBF"/><path d="M136.178 74.386l-.529 3.121.529-3.121zm0 0l-.529 3.121.529-3.121z" fill="#F7C1C0"/><path d="M136.231 74.386l-.529 3.121h-.053l.529-3.121h.053z" fill="#F7C1C2"/><path d="M136.231 74.333l-.529 3.174.529-3.121v-.053zm0 0l-.529 3.174.529-3.174z" fill="#F7C1C2"/><path d="M136.284 74.333l-.529 3.174h-.053l.529-3.174h.053zm-.001 0l-.529 3.174.529-3.174z" fill="#F7C1C2"/><path d="M136.283 74.333l-.529 3.174.529-3.174zm.053 0l-.582 3.174.529-3.174h.053z" fill="#F7C3C3"/><path d="M136.336 74.333l-.529 3.174h-.053l.582-3.174zm.001 0l-.529 3.174.529-3.174zm0 0l-.529 3.174.529-3.174z" fill="#F7C3C4"/><path d="M136.39 74.333l-.582 3.174.529-3.174h.053zm0 0l-.529 3.174h-.053l.582-3.174zm-.001 0l-.529 3.174.529-3.174z" fill="#F7C5C5"/><path d="M136.442 74.333l-.582 3.174.529-3.174h.053zm0 0l-.529 3.174h-.053l.582-3.174z" fill="#F7C5C5"/><path d="M136.442 74.333l-.529 3.174.529-3.174zm0-.053l-.529 3.227.529-3.174v-.053z" fill="#F8C7C8"/><path d="M136.495 74.28l-.582 3.227.529-3.227h.053zm0 0l-.529 3.227h-.053l.582-3.227zm0 0l-.529 3.227.529-3.227z" fill="#F8C7C8"/><path d="M136.548 74.28l-.582 3.227.529-3.227h.053z" fill="#F8C7C8"/><path d="M136.548 74.28l-.529 3.227h-.053l.582-3.227z" fill="#F8C9C9"/><path d="M136.548 74.333l-.529 3.121v.053l.529-3.227v.053zm0 0l-.529 3.121.529-3.121z" fill="#F8C9C9"/><path d="M136.601 74.333l-.529 3.121h-.053l.529-3.121h.053z" fill="#F8C9C9"/><path d="M136.601 74.333l-.529 3.121.529-3.121zm0 0l-.529 3.121.529-3.121z" fill="#F8C9CB"/><path d="M136.601 74.333l-.529 3.068v.053l.529-3.121z" fill="#F8CBCC"/><path d="M136.654 74.333l-.529 3.068h-.053l.529-3.068h.053zm0 0l-.529 3.068.529-3.068zm0 0l-.529 3.068.529-3.068z" fill="#F8CBCC"/><path d="M136.707 74.333l-.529 3.068h-.053l.529-3.068h.053z" fill="#F8CBCC"/><path d="M136.707 74.333l-.53 3.015v.053l.53-3.068z" fill="#F8CBCC"/><path d="M136.707 74.333l-.53 3.015.53-3.015z" fill="#F8CDCD"/><path d="M136.707 74.333l-.477 3.015h-.053l.53-3.015z" fill="#F8CDCF"/><path d="M136.76 74.333l-.529 2.963v.052l.476-3.015h.053zm0 0l-.529 2.963.529-2.963z" fill="#F8CDCF"/><path d="M136.76 74.333l-.476 2.963h-.053l.529-2.963z" fill="#F8CDCF"/><path d="M136.76 74.333l-.477 2.91v.053l.477-2.963z" fill="#F8CDCF"/><path d="M136.812 74.333l-.529 2.91.477-2.91h.052zm0 .053l-.476 2.857h-.053l.529-2.91v.053z" fill="#F8CDCF"/><path d="M136.813 74.386l-.477 2.804v.053l.477-2.857zm0 0l-.477 2.804.477-2.804z" fill="#F9CFD0"/><path d="M136.865 74.386l-.476 2.804h-.053l.477-2.804h.052z" fill="#F9CFD0"/><path d="M136.866 74.386l-.476 2.75v.054l.476-2.804zm0 0l-.476 2.75.476-2.75z" fill="#F9D1D1"/><path d="M136.866 74.386l-.423 2.698-.053.053.476-2.751z" fill="#F9D1D2"/><path d="M136.919 74.386l-.477 2.698.424-2.698h.053zm0 0l-.477 2.698.477-2.698zm0 .053l-.424 2.592-.053.053.477-2.698v.053zm0 0l-.424 2.592.424-2.592z" fill="#F9D1D2"/><path d="M136.971 74.439l-.423 2.539-.053.053.424-2.592h.052z" fill="#F9D3D3"/><path d="M136.971 74.439l-.423 2.539.423-2.54z" fill="#F9D3D3"/><path d="M136.971 74.439l-.423 2.486v.053l.423-2.54z" fill="#F9D3D3"/><path d="M136.971 74.439l-.37 2.486h-.053l.423-2.486z" fill="#F9D3D3"/><path d="M137.024 74.439l-.423 2.433v.053l.37-2.486h.053z" fill="#F9D3D3"/><path d="M137.024 74.492l-.423 2.38.423-2.433v.053zm0 0l-.37 2.327-.053.053.423-2.38z" fill="#F9D3D3"/><path d="M137.024 74.492l-.37 2.327.37-2.327zm.053 0l-.37 2.274-.053.053.37-2.327h.053z" fill="#F9D4D6"/><path d="M137.077 74.492l-.37 2.221v.053l.37-2.274z" fill="#F9D4D6"/><path d="M137.077 74.545l-.37 2.168.37-2.221v.053z" fill="#F9D4D6"/><path d="M137.077 74.545l-.317 2.116-.053.053.37-2.17z" fill="#FAD7D7"/><path d="M137.13 74.545l-.37 2.116.317-2.116h.053z" fill="#FAD7D7"/><path d="M137.13 74.545l-.37 2.063v.053l.37-2.116z" fill="#FAD7D7"/><path d="M137.13 74.597l-.317 1.958-.053.053.37-2.063v.052z" fill="#FAD7D7"/><path d="M137.13 74.597l-.317 1.905v.053l.317-1.958z" fill="#FAD7D7"/><path d="M137.183 74.597l-.317 1.905h-.053l.317-1.904h.053z" fill="#FAD7D7"/><path d="M137.183 74.65l-.318 1.799v.053l.318-1.904v.052z" fill="#FAD8D8"/><path d="M137.183 74.65l-.318 1.746v.053l.318-1.799z" fill="#FAD8D8"/><path d="M137.183 74.703l-.265 1.64-.053.053.318-1.746v.053zm0 0l-.265 1.64.265-1.64z" fill="#FAD8D9"/><path d="M137.236 74.703l-.265 1.587-.053.053.265-1.64h.053z" fill="#FAD8D9"/><path d="M137.236 74.756l-.265 1.481v.053l.265-1.587v.053z" fill="#FAD8D9"/><path d="M137.236 74.756l-.212 1.428-.053.053.265-1.48z" fill="#FADADA"/><path d="M137.236 74.81l-.212 1.322v.052l.212-1.428v.053z" fill="#FADADA"/><path d="M137.236 74.862l-.212 1.217v.053l.212-1.323v.053z" fill="#FADADA"/><path d="M137.289 74.915l-.212 1.058-.053.106.212-1.217.053.053z" fill="#FADADA"/><path d="M137.289 74.915l-.212 1.005v.053l.212-1.058z" fill="#FADADA"/><path d="M137.289 74.968l-.159.9-.053.052.212-1.005v.053z" fill="#FADADC"/><path d="M137.289 75.074l-.106.687-.053.106.159-.9v.107z" fill="#FADCDD"/><path d="M137.289 75.126l-.106.53v.105l.106-.688v.053z" fill="#FADCDD"/><path d="M137.236 75.338v.053c0 .106 0 .159-.053.264l.106-.529c0 .106 0 .16-.053.212z" fill="#FADEDE"/><path opacity=".1" d="M100.364 175.162l27.191-15.394-13.437-7.777-27.244 15.395 13.49 7.776z" fill="#000"/><path d="M125.28 156.541l-8.094-4.655c.794 1.005 1.852 1.904 3.28 2.75 1.428.794 3.068 1.429 4.814 1.905z" fill="#7D97AE"/><path d="M120.836 108.401l-5.342 1.587-.424-1.746 5.185-1.587.581 1.746z" fill="#5F686B"/><path d="M119.937 107.026c-.053.423.106.952.423 1.216.265.318.582.212.688-.211.106-.37-.053-.952-.37-1.217-.318-.264-.635-.159-.741.212zm13.014 7.565c-.106.37.106.899.423 1.216.265.265.582.159.688-.264.053-.37-.106-.9-.423-1.217-.265-.264-.582-.159-.688.265z" fill="#5F686B"/><path d="M114.859 107.713l.476-.105v-.053h.053c.211 0 .423.053.635.264.476.423.74 1.323.635 1.958-.106.317-.265.476-.424.529h-.053l-.423.158-.106-.264-.158-.106c-.476-.423-.741-1.323-.582-1.957l.053-.106-.106-.318z" fill="#414A4E"/><path d="M114.436 108.295c-.159.635.105 1.534.581 1.958.477.423 1.006.264 1.164-.371.106-.582-.158-1.481-.635-1.904-.476-.476-.952-.317-1.11.317z" fill="#5F686B"/><path d="M114.753 108.613c-.106.37.053.952.37 1.216.318.265.635.159.741-.211.053-.423-.106-.952-.423-1.217-.265-.317-.582-.211-.688.212z" fill="#9E261F"/><path d="M112.372 144.374c0 2.274-1.587 5.025-3.597 6.189-1.957 1.164-3.544.212-3.544-2.063 0-2.275 1.587-5.026 3.544-6.19 2.01-1.11 3.597-.211 3.597 2.064z" fill="#414A4E"/><path d="M111.209 141.993l1.692.952-5.184 8.729-1.64-.952 1.428-5.925 3.704-2.804z" fill="#414A4E"/><path d="M113.906 145.273c0 2.275-1.587 5.026-3.597 6.189-1.957 1.111-3.544.212-3.544-2.063 0-2.274 1.587-5.025 3.544-6.189 2.01-1.164 3.597-.212 3.597 2.063z" fill="#5F686B"/><path d="M112.584 146.014c0 1.428-1.005 3.174-2.275 3.914-1.216.741-2.221.159-2.221-1.269 0-1.482 1.005-3.174 2.221-3.915 1.27-.741 2.275-.159 2.275 1.27z" fill="#FCC53E"/><path d="M104.861 152.838l5.977-5.872-.529-.265-5.448 1.429v4.708z" fill="#F8F090"/><path d="M105.39 153.155l5.448-4.92v-1.269l-5.448 1.428v4.761z" fill="#FCE05E"/><path d="M87.35 153.79l13.755 7.935v.741l-13.754-7.988v-.688z" fill="#9E261F"/><path d="M105.389 152.679l3.756-36.554c.212-2.91.9-3.651 1.958-4.444.899-.794 2.169-1.375 3.068-1.64l1.217-.37-.265-1.005-1.217.423c-.529.106-2.221.688-3.438 1.798-1.376 1.058-2.116 2.064-2.381 5.132l-3.703 36.554 1.005.106z" fill="#C24038"/><path d="M106.13 138.978l-.053-.159c0-.106.106-.317.212-.37h.158l13.86 7.988-.264.529-13.913-7.988zm1.64-13.649l-.053-.158c0-.106.106-.318.212-.371h.158l13.86 7.988-.264.529-13.913-7.988z" fill="#C24038"/><path d="M110.045 147.601l-.053-.265c0-.211.159-.529.37-.635h.265v-.053.053l12.537 7.248-.476.952-12.59-7.3h-.053z" fill="#9E261F"/><path d="M118.138 160.508l5.449-4.866v-1.27l-5.449 1.428v4.708z" fill="#E1625A"/><path d="M101.105 161.725l17.563-1.64-13.807-7.935-17.51 1.64 13.754 7.935z" fill="#C24038"/><path d="M119.091 156.065l-.423 4.02-13.807-7.935.476-4.073 13.754 7.988z" fill="#9E261F"/><path d="M118.668 160.826l5.449-4.92v-1.27l-5.449 1.429v4.761z" fill="#C24038"/><path d="M101.104 161.725l17.564-1.64v.741l-17.564 1.64v-.741z" fill="#9E261F"/><path d="M127.714 153.261c0 2.275-1.64 5.026-3.597 6.189-1.958 1.111-3.598.212-3.598-2.063 0-2.274 1.64-5.025 3.598-6.189 1.957-1.164 3.597-.212 3.597 2.063z" fill="#414A4E"/><path d="M121.471 159.609l1.64.952 1.746-3.756 3.439-4.919-1.693-1.005-5.132 8.728z" fill="#414A4E"/><path d="M129.248 154.107c0 2.275-1.587 5.079-3.597 6.19-1.958 1.164-3.598.264-3.598-2.01 0-2.275 1.64-5.079 3.598-6.19 2.01-1.164 3.597-.264 3.597 2.01z" fill="#5F686B"/><path d="M127.925 154.901c0 1.428-1.005 3.174-2.275 3.862-1.269.74-2.274.158-2.274-1.27s1.005-3.174 2.274-3.862c1.27-.74 2.275-.158 2.275 1.27z" fill="#C24038"/><path d="M126.18 155.853c0 .37-.212.794-.529.952-.318.212-.529.053-.529-.264 0-.37.211-.794.529-.952.317-.212.529-.053.529.264z" fill="#5F686B"/><path d="M103.802 160.985l-12.008-6.93 1.217-12.961 12.008 6.93-1.217 12.961z" fill="#DFAD61"/><path d="M103.802 160.985l13.226-1.27 1.164-12.961-13.173 1.27-1.217 12.961z" fill="#B38052"/><path d="M105.019 148.024l13.173-1.27-12.009-6.93-13.172 1.27 12.008 6.93z" fill="#8A6547"/><path d="M98.989 151.039l-2.487-1.428.794-6.031 2.433 1.429-.74 6.03z" fill="#D9B085"/><path d="M99.73 145.008l13.224-1.269-2.433-1.429-13.225 1.27 2.433 1.428z" fill="#E8C9A9"/><path d="M98.618 144.321l13.226-1.27-.159-.053-13.225 1.27.158.053z" fill="#8D5A2F"/><path d="M118.191 146.754l-13.172 1.27 5.29-.106 7.882-1.164z" fill="#8A6547"/><path d="M105.019 147.706l-12.008-6.93 1.217-12.96 11.955 6.93-1.164 12.96z" fill="#DFAD61"/><path d="M105.019 147.706l13.225-1.269 1.164-12.908-13.225 1.217-1.164 12.96z" fill="#B38052"/><path d="M106.183 134.746l13.225-1.217-12.008-6.93-13.173 1.217 11.956 6.93z" fill="#E2BB84"/><path d="M100.205 137.814l-2.486-1.428.794-6.084 2.433 1.428-.741 6.084z" fill="#D9B085"/><path d="M100.946 131.73l13.225-1.269-2.433-1.429-13.225 1.27 2.433 1.428z" fill="#E8C9A9"/><path d="M99.835 131.096l13.225-1.27-.159-.106-13.225 1.27.159.106z" fill="#8D5A2F"/><path d="M119.408 133.529l-13.225 1.217 5.343-.106 7.882-1.111z" fill="#8A6547"/><path d="M144.378 102.529c-.212 1.27-.794 2.328-2.116 3.915-1.323 1.587-6.931 5.713-7.301 6.877-.423 1.217-.159 2.539-.37 3.015-.212.476-.688 1.164-.952 1.323l-.159.106c-.37.105-.846.158-.846.158l-.688-.053-1.376.159s-.634-.053-.687-.264c-.106-.212-.053-.582-.053-.582s-.212.211-.476.317v.053a.983.983 0 01-.371.106c-.264-.106-.158-.529-.053-.9.159-.37.582-2.01.794-2.221.212-.212 3.068-2.222 3.809-3.333.74-1.111 6.877-8.993 6.877-8.993s.582-1.746.159-2.857c-.424-1.11-3.703-12.167.74-14.072 1.587-.211 2.698.953 3.016 4.02.37 3.122.317 12.009.053 13.226z" fill="#F6BDBE"/><path d="M133.48 117.765a6.255 6.255 0 01-.847.158l-.687-.053-1.376.159s-.635-.053-.687-.264c-.106-.212-.053-.582-.053-.582s-.212.211-.476.317c.211-.212.423-.476.423-.476s.106-.529.211-.741l.741-.74c.159 0 .37.952.37.952l-.106.635-.634-.212s-.053-.317 0-.476c.053-.106.423-.582.423-.582l-.635.37s-.159.371-.212.582c-.105.212.053.953.053.953s.159.105.635.052a31.272 31.272 0 001.481-.264l.212.106.741.053.423.053z" fill="#F2969A"/><path d="M130.585 115.343l-2.554.517.529 1.693 2.473-.644c.268-1.111.057-1.327-.448-1.566z" fill="#5F686B"/><path d="M127.872 115.331l.476-.159h.053c.159-.053.424 0 .635.212.476.423.794 1.323.635 1.957a.727.727 0 01-.423.582l-.476.159-.106-.265-.106-.105c-.476-.476-.793-1.323-.635-1.958l.053-.158-.106-.265z" fill="#414A4E"/><path d="M127.449 115.913c-.158.635.159 1.481.635 1.957.476.424.952.265 1.111-.37.106-.635-.159-1.534-.635-1.957-.476-.423-1.005-.265-1.111.37z" fill="#5F686B"/><path d="M127.766 116.178c-.105.423.106.952.371 1.216.317.318.634.212.74-.211.053-.371-.106-.953-.423-1.217-.317-.265-.635-.159-.688.212z" fill="#9E261F"/><path d="M119.196 160.614l3.704-36.554.211-1.27c.265-2.116.37-2.592 1.164-3.386.529-.74 1.587-1.375 3.068-1.851l1.217-.37-.318-1.006-1.216.424c-1.746.529-2.91 1.269-3.545 2.116-1.005 1.005-1.111 1.745-1.428 3.967l-.159 1.27-3.756 36.554 1.058.106z" fill="#C24038"/><path d="M141.627 95.97c-.9.105-2.117.317-2.117.317s-.793-3.227-.74-5.026c.053-1.798-.053-4.972 2.328-6.03 2.38-1.058 3.174 2.592 3.279 3.28.053.687.476 6.824.476 6.824s-1.163.317-3.226.634z" fill="#1D9F3A"/><path d="M118.086 110.253s.423-.318.211-.635c-.211-.265-.529-.847-.529-.847l.053-.952s.899-.211 1.058-1.005c.159-.741-.476-1.587-.899-1.481-.423.053-1.693 1.851-1.746 1.957l.529 1.746.582.899c.106.159.423.582.741.318z" fill="#F7C5C5"/><path d="M127.714 71.106l.264.265s4.338 1.27 4.761 1.428c.212.053.529.158.953.317.634.212 1.481.423 2.645.53l1.957.158s.635-1.904.317-3.65c-.211-1.323-1.692-2.487-3.438-3.069h-.053c-.529-.158-1.111-.317-1.693-.37-2.38-.211-4.02.794-4.814 1.958a6.61 6.61 0 00-.899 2.433z" fill="#1D9F3A"/><path d="M138.294 73.804s.423-1.217.423-2.645c0-.318-.053-.635-.106-1.005-.211-1.323-1.692-2.487-3.438-3.069.159.106 1.746.9 1.746 2.381-.053 1.534-.953 3.333-3.227 3.65.634.212 1.481.423 2.645.53 1.745.158 1.957.158 1.957.158z" fill="#148B2E"/><path d="M133.797 73.116s-3.491 3.016-4.708 1.799c-.846-.847-2.909-1.64-3.809-1.376l-.952.265s-.159-.053-.159-.264c.053-.212 3.545-2.434 3.545-2.434s1.375-1.481 6.083 2.01z" fill="#474747"/><path d="M108.246 152.044l-2.909.265.264-3.28 2.91-.317-.265 3.332zm-3.121.529l3.28-.37.053-.053.264-3.65-3.28.317-.052.106-.265 3.65z" fill="#8A6547"/><path d="M106.5 151.833l.741-.053.106-1.852-.741.053-.106 1.852z" fill="#8A6547"/><path d="M105.919 150.775l2.116-.212-1.058-1.375-1.058 1.587zm3.597-11.956l-2.91.318.265-3.333 2.909-.265-.264 3.28zm-3.121.529l3.279-.317.053-.106.265-3.65-3.28.37-.053.053-.264 3.65z" fill="#8A6547"/><path d="M107.77 138.66l.741-.105.106-1.799-.741.053-.106 1.851z" fill="#8A6547"/><path d="M107.188 137.602l2.116-.264-1.058-1.323-1.058 1.587z" fill="#8A6547"/></g></g><defs><clipPath id="clip0_514_10191"><path fill="#fff" d="M0 0h170v170H0z"/></clipPath><clipPath id="clip1_514_10191"><path fill="#fff" transform="translate(8.375 15.82)" d="M0 0h143.25v159.359H0z"/></clipPath></defs></svg>