<svg width="170" height="170" fill="none" xmlns="http://www.w3.org/2000/svg"><path opacity=".1" d="M5 106.405L70 143.5l27.5 2 68-39.095-25.243-11.216L89.695 70 78.48 72.206 55.498 83.79l-13.973 2.943L5 106.405z" fill="#000"/><path opacity=".3" d="M69.5 142.5L74 144l65.5-38.5-7-3.5-59.176-28.65-63.024 28.7-5.018 4.416L69.5 142.5z" fill="#000"/><path fill-rule="evenodd" clip-rule="evenodd" d="M96.994 111.005c5.26 3.049 5.286 7.983.064 11.027-5.223 3.044-13.724 3.049-18.984 0-5.26-3.044-5.286-7.983-.063-11.027 5.228-3.044 13.73-3.044 18.983 0z" fill="#33B550"/><path fill-rule="evenodd" clip-rule="evenodd" d="M107.763 109.794l-31.717 18.484-9.709-5.625 31.717-18.479 9.709 5.62z" fill="#ECBD7A"/><path fill-rule="evenodd" clip-rule="evenodd" d="M76.02 128.284l-.048 9.014-9.71-5.625.049-9.009 9.708 5.62z" fill="#AE7836"/><path fill-rule="evenodd" clip-rule="evenodd" d="M97.783 100.716c5.26 3.044 5.286 7.978.064 11.027-5.223 3.044-13.724 3.044-18.983 0-5.26-3.049-5.287-7.983-.064-11.027 5.228-3.043 13.729-3.043 18.983 0z" fill="#33B550"/><path fill-rule="evenodd" clip-rule="evenodd" d="M108.552 99.5l-31.717 18.484-9.709-5.619L98.843 93.88l9.709 5.62z" fill="#ECBD7A"/><path fill-rule="evenodd" clip-rule="evenodd" d="M76.809 117.995l-.048 9.009-9.709-5.62.048-9.014 9.709 5.625z" fill="#AE7836"/><path fill-rule="evenodd" clip-rule="evenodd" d="M96.205 90.815c5.26 3.05 5.286 7.984.064 11.027-5.223 3.044-13.724 3.049-18.984 0-5.26-3.043-5.286-7.983-.063-11.027 5.222-3.043 13.724-3.043 18.983 0z" fill="#33B550"/><path fill-rule="evenodd" clip-rule="evenodd" d="M77.285 101.842c5.26 3.049 13.761 3.044 18.984 0 5.222-3.043 5.196-7.978-.064-11.027-5.26-3.043-13.76-3.043-18.983 0-5.223 3.044-5.197 7.984.063 11.027zm43.205-.52c-3.993 2.332-3.972 6.103.048 8.435l-10.572 6.161c-4.026-2.326-10.52-2.326-14.513 0L53 91.336c3.999-2.327 3.972-6.103-.048-8.43l10.572-6.161c4.02 2.326 10.52 2.332 14.519 0l42.447 24.577z" fill="#4FCD6B"/><path fill-rule="evenodd" clip-rule="evenodd" d="M109.966 115.918l10.572-6.161c-4.02-2.332-4.041-6.103-.048-8.435L78.043 76.745c-4 2.332-10.499 2.326-14.519 0l-10.572 6.161c4.02 2.327 4.047 6.103.048 8.435l42.453 24.577c3.994-2.326 10.487-2.326 14.513 0zM70.739 68.639l63.729 36.9-31.716 18.485-63.73-36.9 31.717-18.485z" fill="#33B550"/><path fill-rule="evenodd" clip-rule="evenodd" d="M106.973 89.604L75.257 108.09l-9.71-5.625 31.717-18.48 9.709 5.62z" fill="#ECBD7A"/><path fill-rule="evenodd" clip-rule="evenodd" d="M75.23 108.094l-.048 9.014-9.709-5.625.048-9.009 9.71 5.62z" fill="#AE7836"/><path fill-rule="evenodd" clip-rule="evenodd" d="M70.739 59.137L39.022 77.62l-.048 9.009 63.735 36.9 31.717-18.485.042-9.008-63.73-36.9z" fill="#137A2A"/><path fill-rule="evenodd" clip-rule="evenodd" d="M96.205 81.318c5.26 3.044 5.286 7.978.064 11.027-5.223 3.044-13.724 3.044-18.984 0-5.26-3.049-5.286-7.983-.063-11.027 5.222-3.043 13.724-3.043 18.983 0z" fill="#33B550"/><path fill-rule="evenodd" clip-rule="evenodd" d="M77.285 92.345c5.26 3.044 13.761 3.044 18.984 0 5.222-3.049 5.196-7.983-.064-11.027-5.26-3.043-13.76-3.043-18.983 0-5.223 3.044-5.197 7.978.063 11.027zm43.205-.52c-3.993 2.326-3.972 6.097.048 8.429l-10.572 6.162c-4.026-2.327-10.52-2.327-14.513 0L53 81.839c3.999-2.332 3.972-6.103-.048-8.435l10.572-6.162c4.02 2.332 10.52 2.332 14.519 0l42.447 24.583z" fill="#4FCD6B"/><path fill-rule="evenodd" clip-rule="evenodd" d="M109.966 106.416l10.572-6.162c-4.02-2.332-4.041-6.103-.048-8.43L78.043 67.243c-4 2.332-10.499 2.332-14.519 0l-10.572 6.162c4.02 2.332 4.047 6.103.048 8.435l42.453 24.577c3.994-2.327 10.487-2.327 14.513 0zm-39.227-47.28l63.729 36.9-31.716 18.485-63.73-36.9 31.717-18.484z" fill="#33B550"/><path fill-rule="evenodd" clip-rule="evenodd" d="M106.973 80.102L75.257 98.586l-9.71-5.62 31.717-18.484 9.709 5.62z" fill="#ECBD7A"/><path fill-rule="evenodd" clip-rule="evenodd" d="M75.23 98.597l-.048 9.009-9.709-5.62.048-9.014 9.71 5.625z" fill="#AE7836"/><path fill-rule="evenodd" clip-rule="evenodd" d="M102.752 114.521v9.009l31.674-18.485v-9.008l-31.674 18.484z" fill="#1D9F3A"/><path fill-rule="evenodd" clip-rule="evenodd" d="M72.317 48.051L40.6 66.536l-.047 9.008 63.735 36.9 31.716-18.484.043-9.009-63.73-36.9z" fill="#137A2A"/><path fill-rule="evenodd" clip-rule="evenodd" d="M97.783 70.233c5.26 3.043 5.286 7.983.064 11.027-5.223 3.043-13.724 3.043-18.983 0-5.26-3.044-5.287-7.984-.064-11.027 5.228-3.044 13.729-3.044 18.983 0z" fill="#33B550"/><path fill-rule="evenodd" clip-rule="evenodd" d="M78.864 81.26c5.26 3.043 13.76 3.043 18.983 0 5.223-3.044 5.196-7.984-.063-11.027-5.255-3.044-13.756-3.044-18.984 0-5.222 3.043-5.196 7.983.064 11.027zm43.21-.52c-3.999 2.326-3.978 6.102.043 8.429l-10.573 6.161c-4.02-2.326-10.519-2.326-14.513 0L54.578 70.753c4-2.332 3.973-6.103-.047-8.43l10.572-6.16c4.02 2.326 10.52 2.326 14.518 0l42.453 24.576z" fill="#4FCD6B"/><path fill-rule="evenodd" clip-rule="evenodd" d="M111.544 95.33l10.572-6.161c-4.02-2.327-4.041-6.103-.042-8.43L79.621 56.162c-3.999 2.327-10.498 2.327-14.518 0L54.53 62.324c4.02 2.326 4.046 6.097.047 8.43L97.031 95.33c3.994-2.326 10.493-2.326 14.513 0zM72.317 48.051l63.73 36.9-31.717 18.485-63.73-36.9L72.317 48.05z" fill="#33B550"/><path fill-rule="evenodd" clip-rule="evenodd" d="M108.552 69.016L76.835 87.501l-9.709-5.62 31.717-18.484 9.709 5.62z" fill="#ECBD7A"/><path fill-rule="evenodd" clip-rule="evenodd" d="M76.809 87.512l-.048 9.008-9.709-5.62.048-9.008 9.709 5.62z" fill="#AE7836"/><path fill-rule="evenodd" clip-rule="evenodd" d="M104.33 103.436v9.008l31.674-18.484v-9.009l-31.674 18.485z" fill="#1D9F3A"/><path fill-rule="evenodd" clip-rule="evenodd" d="M73.895 38.028L42.18 56.513l-.043 9.008 63.73 36.895 31.717-18.48.042-9.008-63.73-36.9z" fill="#137A2A"/><path fill-rule="evenodd" clip-rule="evenodd" d="M99.362 60.204c5.259 3.044 5.286 7.984.063 11.027-5.222 3.044-13.723 3.044-18.983 0-5.254-3.043-5.286-7.983-.058-11.027 5.222-3.043 13.724-3.043 18.978 0z" fill="#33B550"/><path fill-rule="evenodd" clip-rule="evenodd" d="M80.442 71.231c5.26 3.044 13.76 3.044 18.984 0 5.222-3.043 5.196-7.983-.064-11.027-5.254-3.043-13.756-3.043-18.978 0-5.228 3.044-5.196 7.984.058 11.027zm43.211-.52c-3.994 2.326-3.973 6.103.042 8.43l-10.572 6.16c-4.02-2.326-10.52-2.326-14.513.006L56.157 60.725c3.999-2.327 3.972-6.103-.048-8.43l10.572-6.161c4.02 2.326 10.52 2.326 14.519 0l42.453 24.577z" fill="#4FCD6B"/><path fill-rule="evenodd" clip-rule="evenodd" d="M113.123 85.302l10.572-6.162c-4.015-2.326-4.036-6.103-.042-8.43L81.199 46.135c-3.999 2.326-10.498 2.326-14.518 0l-10.571 6.16c4.02 2.327 4.047 6.103.048 8.43L98.61 85.307c3.993-2.332 10.492-2.332 14.513-.005zM73.895 38.028l63.73 36.9-31.716 18.48-63.73-36.895 31.716-18.485z" fill="#33B550"/><path fill-rule="evenodd" clip-rule="evenodd" d="M110.13 58.993l-31.711 18.48-9.71-5.62 31.712-18.485 9.709 5.625z" fill="#ECBD7A"/><path fill-rule="evenodd" clip-rule="evenodd" d="M78.387 77.483l-.042 9.009-9.71-5.62.043-9.009 9.709 5.62z" fill="#AE7836"/><path fill-rule="evenodd" clip-rule="evenodd" d="M105.909 93.407v9.009l31.674-18.48v-9.008l-31.674 18.48z" fill="#1D9F3A"/><path fill-rule="evenodd" clip-rule="evenodd" d="M70.739 28L39.022 46.484l-.048 9.009 63.735 36.9 31.717-18.484.042-9.01L70.738 28z" fill="#137A2A"/><path fill-rule="evenodd" clip-rule="evenodd" d="M96.205 50.176c5.26 3.049 5.286 7.983.064 11.027-5.223 3.043-13.724 3.049-18.984 0-5.26-3.044-5.286-7.984-.063-11.027 5.222-3.044 13.724-3.044 18.983 0z" fill="#33B550"/><path fill-rule="evenodd" clip-rule="evenodd" d="M77.285 61.203c5.26 3.049 13.761 3.043 18.984 0 5.222-3.044 5.196-7.978-.064-11.027-5.26-3.044-13.76-3.044-18.983 0-5.223 3.043-5.197 7.983.063 11.027zm43.205-.52c-3.993 2.331-3.972 6.102.048 8.434l-10.572 6.162c-4.026-2.327-10.52-2.327-14.513 0L53 50.697c3.999-2.327 3.972-6.104-.048-8.43l10.572-6.162c4.02 2.327 10.52 2.332 14.519 0l42.447 24.577z" fill="#4FCD6B"/><path fill-rule="evenodd" clip-rule="evenodd" d="M109.966 75.279l10.572-6.162c-4.02-2.331-4.041-6.103-.048-8.435L78.043 36.105c-4 2.332-10.499 2.327-14.519 0l-10.572 6.162c4.02 2.326 4.047 6.103.048 8.43l42.453 24.582c3.994-2.327 10.487-2.327 14.513 0zm-39.227-47.28l63.729 36.9-31.716 18.486-63.73-36.9L70.739 28z" fill="#33B550"/><path fill-rule="evenodd" clip-rule="evenodd" d="M106.973 48.965L75.257 67.449l-9.71-5.625 31.717-18.479 9.709 5.62z" fill="#ECBD7A"/><path fill-rule="evenodd" clip-rule="evenodd" d="M75.23 67.455l-.048 9.014-9.709-5.625.048-9.009 9.71 5.62z" fill="#AE7836"/><path fill-rule="evenodd" clip-rule="evenodd" d="M102.752 83.384v9.009l31.674-18.485V64.9l-31.674 18.484z" fill="#1D9F3A"/><path fill-rule="evenodd" clip-rule="evenodd" d="M59.653 111.207c5.26 3.043 5.286 7.978.058 11.027-5.223 3.043-13.719 3.043-18.978 0-5.26-3.049-5.286-7.984-.064-11.027 5.223-3.044 13.724-3.044 18.984 0z" fill="#33B550"/><path fill-rule="evenodd" clip-rule="evenodd" d="M40.733 122.234c5.26 3.043 13.755 3.043 18.978 0 5.228-3.049 5.201-7.984-.058-11.027-5.26-3.044-13.761-3.044-18.984 0-5.222 3.043-5.196 7.978.064 11.027zm43.205-.521c-3.994 2.327-3.973 6.098.042 8.43l-10.572 6.161c-4.02-2.326-10.52-2.326-14.513 0l-42.448-24.577c3.994-2.331 3.973-6.103-.047-8.434l10.572-6.162c4.02 2.332 10.52 2.332 14.513 0l42.453 24.582z" fill="#4FCD6B"/><path fill-rule="evenodd" clip-rule="evenodd" d="M36.946 78.338L5.229 96.823l-.042 9.008 63.73 36.9 31.716-18.484.043-9.009-63.73-36.9z" fill="#137A2A"/><path fill-rule="evenodd" clip-rule="evenodd" d="M62.412 100.514c5.26 3.049 5.286 7.984.064 11.027-5.223 3.044-13.724 3.049-18.984 0-5.254-3.043-5.286-7.983-.058-11.027 5.223-3.043 13.724-3.043 18.978 0z" fill="#33B550"/><path fill-rule="evenodd" clip-rule="evenodd" d="M43.492 111.541c5.26 3.049 13.761 3.044 18.984 0 5.222-3.043 5.196-7.978-.064-11.027-5.254-3.043-13.755-3.043-18.978 0-5.228 3.044-5.196 7.984.058 11.027zm43.21-.52c-3.993 2.332-3.972 6.103.043 8.435l-10.572 6.161c-4.02-2.326-10.52-2.326-14.513 0l-42.453-24.582c3.999-2.326 3.972-6.103-.043-8.43l10.567-6.161c4.02 2.326 10.52 2.332 14.519 0l42.453 24.577z" fill="#4FCD6B"/><path fill-rule="evenodd" clip-rule="evenodd" d="M76.173 125.617l10.572-6.161c-4.015-2.332-4.036-6.103-.042-8.435L44.25 86.444c-4 2.332-10.498 2.326-14.519 0l-10.567 6.161c4.015 2.327 4.042 6.103.043 8.43l42.453 24.582c3.993-2.326 10.493-2.326 14.513 0zM36.945 78.338l63.73 36.9-31.716 18.485-63.73-36.9 31.716-18.485z" fill="#33B550"/><path fill-rule="evenodd" clip-rule="evenodd" d="M73.18 99.303l-31.71 18.485-9.709-5.625 31.717-18.48 9.703 5.62z" fill="#ECBD7A"/><path fill-rule="evenodd" clip-rule="evenodd" d="M41.437 117.793l-.042 9.014-9.71-5.625.043-9.008 9.709 5.619z" fill="#AE7836"/><path fill-rule="evenodd" clip-rule="evenodd" d="M68.959 133.723v9.008l31.674-18.484v-9.009l-31.674 18.485z" fill="#1D9F3A"/><path fill-rule="evenodd" clip-rule="evenodd" d="M35.764 68.443L4.048 86.927 4 95.936l63.73 36.9 31.717-18.485.047-9.008-63.73-36.9z" fill="#137A2A"/><path fill-rule="evenodd" clip-rule="evenodd" d="M61.23 90.619c5.26 3.043 5.287 7.983.06 11.027-5.223 3.043-13.72 3.043-18.979 0-5.26-3.044-5.286-7.984-.063-11.027 5.222-3.044 13.723-3.044 18.983 0z" fill="#33B550"/><path fill-rule="evenodd" clip-rule="evenodd" d="M42.311 101.646c5.26 3.043 13.755 3.043 18.978 0 5.228-3.044 5.201-7.984-.058-11.027-5.26-3.044-13.761-3.044-18.984 0-5.222 3.043-5.196 7.983.064 11.027zm43.205-.521c-3.994 2.327-3.972 6.103.048 8.43l-10.572 6.161c-4.026-2.326-10.52-2.326-14.513 0L18.026 91.139c3.993-2.326 3.972-6.103-.048-8.43l10.572-6.16c4.02 2.326 10.52 2.326 14.513 0l42.453 24.576z" fill="#4FCD6B"/><path fill-rule="evenodd" clip-rule="evenodd" d="M74.992 115.716l10.572-6.161c-4.02-2.327-4.041-6.103-.048-8.43L43.063 76.548c-3.994 2.327-10.493 2.327-14.513 0L17.978 82.71c4.02 2.326 4.041 6.103.048 8.43l42.453 24.582c3.993-2.332 10.487-2.332 14.513-.006zM35.764 68.443l63.73 36.9-31.716 18.479-63.73-36.895 31.716-18.484z" fill="#33B550"/><path fill-rule="evenodd" clip-rule="evenodd" d="M72 89.408l-31.718 18.479-9.708-5.62L62.29 83.783 72 89.408z" fill="#ECBD7A"/><path fill-rule="evenodd" clip-rule="evenodd" d="M40.256 107.898l-.048 9.008-9.709-5.619.048-9.009 9.709 5.62z" fill="#AE7836"/><path fill-rule="evenodd" clip-rule="evenodd" d="M67.778 123.822v9.014l31.669-18.485v-9.008l-31.67 18.479z" fill="#1D9F3A"/></svg>