<svg width="121" height="161" viewBox="0 0 121 161" fill="none" xmlns="http://www.w3.org/2000/svg">
<path opacity="0.3" d="M64.6776 123.426L113.036 96.3773V93.863L65.7281 70.0026L18.6075 91.4619L14.8558 94.7634L64.6776 123.426Z" fill="black"/>
<path opacity="0.1" d="M0.627932 95.4648L59.7119 130.536L120.628 95.4648L101.754 87.0794L63.9517 68.2463L55.5664 69.8959L38.3833 78.5561L27.936 80.7561L0.627932 95.4648Z" fill="black"/>
<path fill-rule="evenodd" clip-rule="evenodd" d="M85.5848 98.3707C89.5172 100.65 89.537 104.34 85.6323 106.615C81.7276 108.891 75.3715 108.895 71.4391 106.615C67.5067 104.34 67.4869 100.646 71.3916 98.3707C75.3003 96.0952 81.6563 96.0952 85.5848 98.3707Z" fill="#33B550"/>
<path fill-rule="evenodd" clip-rule="evenodd" d="M93.6358 97.4653L69.9224 111.285L62.6634 107.08L86.3768 93.2636L93.6358 97.4653Z" fill="#ECBD7A"/>
<path fill-rule="evenodd" clip-rule="evenodd" d="M69.9026 111.289L69.8669 118.029L62.608 113.823L62.6436 107.088L69.9026 111.289Z" fill="#AE7836"/>
<path fill-rule="evenodd" clip-rule="evenodd" d="M86.1748 90.6782C90.1073 92.9538 90.1271 96.6432 86.2223 98.9227C82.3176 101.198 75.9616 101.198 72.0292 98.9227C68.0967 96.6432 68.0769 92.9538 71.9816 90.6782C75.8903 88.4027 82.2464 88.4027 86.1748 90.6782Z" fill="#33B550"/>
<path fill-rule="evenodd" clip-rule="evenodd" d="M94.2258 89.7688L70.5124 103.589L63.2535 99.3873L86.9669 85.5671L94.2258 89.7688Z" fill="#ECBD7A"/>
<path fill-rule="evenodd" clip-rule="evenodd" d="M70.4926 103.597L70.457 110.332L63.198 106.131L63.2337 99.3913L70.4926 103.597Z" fill="#AE7836"/>
<path fill-rule="evenodd" clip-rule="evenodd" d="M84.9947 83.2756C88.9271 85.5552 88.9469 89.2445 85.0422 91.5201C81.1375 93.7957 74.7815 93.7997 70.849 91.5201C66.9166 89.2445 66.8968 85.5512 70.8015 83.2756C74.7062 81.0001 81.0623 81.0001 84.9947 83.2756Z" fill="#33B550"/>
<path fill-rule="evenodd" clip-rule="evenodd" d="M70.849 91.5201C74.7815 93.7997 81.1375 93.7957 85.0422 91.5201C88.9469 89.2446 88.9271 85.5552 84.9947 83.2757C81.0623 81.0001 74.7062 81.0001 70.8015 83.2757C66.8968 85.5512 66.9166 89.2446 70.849 91.5201ZM103.152 91.1309C100.166 92.8743 100.182 95.694 103.188 97.4374L95.2832 102.044C92.2735 100.305 87.4183 100.305 84.4324 102.044L52.6917 83.6648C55.6817 81.9254 55.6619 79.1018 52.6561 77.3624L60.5606 72.7556C63.5663 74.4951 68.4254 74.499 71.4153 72.7556L103.152 91.1309Z" fill="#4FCD6B"/>
<path fill-rule="evenodd" clip-rule="evenodd" d="M95.2832 102.044L103.188 97.4374C100.182 95.694 100.166 92.8744 103.152 91.131L71.4153 72.7557C68.4254 74.4991 63.5663 74.4951 60.5606 72.7557L52.6561 77.3624C55.6619 79.1018 55.6817 81.9255 52.6917 83.6689L84.4324 102.044C87.4183 100.305 92.2735 100.305 95.2832 102.044ZM65.9543 66.6954L113.603 94.2842L89.8895 108.104L42.2409 80.5156L65.9543 66.6954Z" fill="#33B550"/>
<path fill-rule="evenodd" clip-rule="evenodd" d="M93.0457 82.3702L69.3323 96.1905L62.0733 91.9848L85.7867 78.1686L93.0457 82.3702Z" fill="#ECBD7A"/>
<path fill-rule="evenodd" clip-rule="evenodd" d="M69.3125 96.1945L69.2769 102.934L62.0179 98.7282L62.0535 91.9928L69.3125 96.1945Z" fill="#AE7836"/>
<path fill-rule="evenodd" clip-rule="evenodd" d="M65.9543 59.5907L42.2409 73.4109L42.2053 80.1463L89.8578 107.735L113.571 93.9149L113.603 87.1795L65.9543 59.5907Z" fill="#137A2A"/>
<path fill-rule="evenodd" clip-rule="evenodd" d="M84.9947 76.175C88.9271 78.4506 88.9469 82.1399 85.0422 84.4195C81.1375 86.695 74.7815 86.695 70.849 84.4195C66.9166 82.1399 66.8968 78.4506 70.8015 76.175C74.7062 73.8994 81.0623 73.8994 84.9947 76.175Z" fill="#33B550"/>
<path fill-rule="evenodd" clip-rule="evenodd" d="M70.849 84.4195C74.7815 86.695 81.1375 86.695 85.0422 84.4195C88.9469 82.1399 88.9271 78.4506 84.9947 76.175C81.0623 73.8994 74.7062 73.8994 70.8015 76.175C66.8968 78.4506 66.9166 82.1399 70.849 84.4195ZM103.152 84.0303C100.166 85.7697 100.182 88.5894 103.188 90.3328L95.2832 94.9395C92.2735 93.2001 87.4183 93.2001 84.4324 94.9395L52.6917 76.5642C55.6817 74.8208 55.6619 72.0011 52.6561 70.2577L60.5606 65.651C63.5663 67.3944 68.4254 67.3944 71.4153 65.651L103.152 84.0303Z" fill="#4FCD6B"/>
<path fill-rule="evenodd" clip-rule="evenodd" d="M95.2832 94.9395L103.188 90.3327C100.182 88.5893 100.166 85.7697 103.152 84.0302L71.4153 65.6509C68.4254 67.3944 63.5663 67.3944 60.5606 65.6509L52.6561 70.2577C55.6619 72.0011 55.6817 74.8207 52.6917 76.5641L84.4324 94.9395C87.4183 93.2 92.2735 93.2 95.2832 94.9395ZM65.9543 59.5907L113.603 87.1795L89.8895 101L42.2409 73.4109L65.9543 59.5907Z" fill="#33B550"/>
<path fill-rule="evenodd" clip-rule="evenodd" d="M93.0457 75.2656L69.3323 89.0858L62.0733 84.8841L85.7867 71.0639L93.0457 75.2656Z" fill="#ECBD7A"/>
<path fill-rule="evenodd" clip-rule="evenodd" d="M69.3125 89.0938L69.2769 95.8291L62.0179 91.6275L62.0535 84.8881L69.3125 89.0938Z" fill="#AE7836"/>
<path fill-rule="evenodd" clip-rule="evenodd" d="M89.8895 101V107.735L113.571 93.9149V87.1795L89.8895 101Z" fill="#1D9F3A"/>
<path fill-rule="evenodd" clip-rule="evenodd" d="M67.1344 51.3026L43.421 65.1228L43.3854 71.8581L91.0379 99.4469L114.751 85.6267L114.783 78.8913L67.1344 51.3026Z" fill="#137A2A"/>
<path fill-rule="evenodd" clip-rule="evenodd" d="M86.1748 67.8869C90.1073 70.1624 90.1271 73.8558 86.2223 76.1313C82.3176 78.4069 75.9616 78.4069 72.0292 76.1313C68.0967 73.8558 68.0769 70.1624 71.9816 67.8869C75.8903 65.6113 82.2464 65.6113 86.1748 67.8869Z" fill="#33B550"/>
<path fill-rule="evenodd" clip-rule="evenodd" d="M72.0292 76.1313C75.9616 78.4068 82.3176 78.4068 86.2224 76.1313C90.1271 73.8557 90.1073 70.1624 86.1748 67.8868C82.2464 65.6112 75.8903 65.6112 71.9816 67.8868C68.0769 70.1624 68.0967 73.8557 72.0292 76.1313ZM104.336 75.7421C101.346 77.4815 101.362 80.3051 104.368 82.0446L96.4633 86.6513C93.4576 84.9119 88.5984 84.9119 85.6125 86.6513L53.8719 68.276C56.8618 66.5326 56.842 63.7129 53.8362 61.9735L61.7407 57.3668C64.7464 59.1062 69.6055 59.1062 72.5955 57.3668L104.336 75.7421Z" fill="#4FCD6B"/>
<path fill-rule="evenodd" clip-rule="evenodd" d="M96.4633 86.6513L104.368 82.0446C101.362 80.3051 101.346 77.4815 104.336 75.7421L72.5955 57.3668C69.6055 59.1062 64.7464 59.1062 61.7407 57.3668L53.8362 61.9735C56.842 63.7129 56.8618 66.5326 53.8719 68.276L85.6125 86.6513C88.5984 84.9119 93.4576 84.9119 96.4633 86.6513ZM67.1344 51.3026L114.783 78.8913L91.0696 92.7116L43.421 65.1228L67.1344 51.3026Z" fill="#33B550"/>
<path fill-rule="evenodd" clip-rule="evenodd" d="M94.2258 66.9774L70.5124 80.7976L63.2535 76.5959L86.9669 62.7757L94.2258 66.9774Z" fill="#ECBD7A"/>
<path fill-rule="evenodd" clip-rule="evenodd" d="M70.4926 80.8055L70.457 87.5409L63.198 83.3392L63.2337 76.6039L70.4926 80.8055Z" fill="#AE7836"/>
<path fill-rule="evenodd" clip-rule="evenodd" d="M91.0696 92.7116V99.447L114.751 85.6268V78.8914L91.0696 92.7116Z" fill="#1D9F3A"/>
<path fill-rule="evenodd" clip-rule="evenodd" d="M68.3145 43.8087L44.6011 57.6289L44.5695 64.3643L92.218 91.9491L115.931 78.1329L115.963 71.3975L68.3145 43.8087Z" fill="#137A2A"/>
<path fill-rule="evenodd" clip-rule="evenodd" d="M87.355 60.3889C91.2874 62.6645 91.3072 66.3578 87.4025 68.6334C83.4978 70.909 77.1417 70.909 73.2093 68.6334C69.2808 66.3578 69.2571 62.6645 73.1657 60.3889C77.0704 58.1134 83.4265 58.1134 87.355 60.3889Z" fill="#33B550"/>
<path fill-rule="evenodd" clip-rule="evenodd" d="M73.2093 68.6334C77.1417 70.909 83.4978 70.909 87.4025 68.6334C91.3072 66.3578 91.2874 62.6645 87.355 60.3889C83.4265 58.1134 77.0705 58.1134 73.1657 60.3889C69.2571 62.6645 69.2808 66.3578 73.2093 68.6334ZM105.516 68.2442C102.53 69.9837 102.546 72.8073 105.548 74.5467L97.6435 79.1534C94.6377 77.414 89.7786 77.414 86.7926 79.1574L55.052 60.7781C58.0419 59.0387 58.0221 56.2151 55.0164 54.4756L62.9208 49.8689C65.9266 51.6083 70.7857 51.6083 73.7756 49.8689L105.516 68.2442Z" fill="#4FCD6B"/>
<path fill-rule="evenodd" clip-rule="evenodd" d="M97.6434 79.1535L105.548 74.5468C102.546 72.8073 102.53 69.9837 105.516 68.2443L73.7756 49.869C70.7857 51.6084 65.9266 51.6084 62.9208 49.869L55.0163 54.4757C58.0221 56.2151 58.0419 59.0387 55.052 60.7782L86.7926 79.1575C89.7786 77.4141 94.6377 77.4141 97.6434 79.1535ZM68.3145 43.8087L115.963 71.3975L92.2497 85.2137L44.6011 57.6289L68.3145 43.8087Z" fill="#33B550"/>
<path fill-rule="evenodd" clip-rule="evenodd" d="M95.406 59.4835L71.6965 73.2997L64.4376 69.098L88.147 55.2778L95.406 59.4835Z" fill="#ECBD7A"/>
<path fill-rule="evenodd" clip-rule="evenodd" d="M71.6728 73.3077L71.6411 80.043L64.3821 75.8414L64.4138 69.106L71.6728 73.3077Z" fill="#AE7836"/>
<path fill-rule="evenodd" clip-rule="evenodd" d="M92.2497 85.2137V91.9491L115.931 78.1328V71.3975L92.2497 85.2137Z" fill="#1D9F3A"/>
<path fill-rule="evenodd" clip-rule="evenodd" d="M65.9543 36.3109L42.2409 50.1311L42.2053 56.8664L89.8578 84.4552L113.571 70.635L113.603 63.8996L65.9543 36.3109Z" fill="#137A2A"/>
<path fill-rule="evenodd" clip-rule="evenodd" d="M84.9947 52.8911C88.9271 55.1706 88.9469 58.86 85.0422 61.1355C81.1375 63.4111 74.7815 63.4151 70.849 61.1355C66.9166 58.86 66.8968 55.1666 70.8015 52.8911C74.7062 50.6155 81.0623 50.6155 84.9947 52.8911Z" fill="#33B550"/>
<path fill-rule="evenodd" clip-rule="evenodd" d="M70.849 61.1355C74.7815 63.4151 81.1375 63.4111 85.0422 61.1355C88.9469 58.86 88.9271 55.1706 84.9947 52.8911C81.0623 50.6155 74.7062 50.6155 70.8015 52.8911C66.8968 55.1666 66.9166 58.86 70.849 61.1355ZM103.152 60.7464C100.166 62.4898 100.182 65.3094 103.188 67.0528L95.2832 71.6596C92.2735 69.9201 87.4183 69.9201 84.4324 71.6596L52.6917 53.2803C55.6817 51.5408 55.6619 48.7172 52.6561 46.9778L60.5606 42.371C63.5663 44.1105 68.4254 44.1144 71.4153 42.371L103.152 60.7464Z" fill="#4FCD6B"/>
<path fill-rule="evenodd" clip-rule="evenodd" d="M95.2832 71.6596L103.188 67.0529C100.182 65.3095 100.166 62.4898 103.152 60.7464L71.4153 42.3711C68.4254 44.1145 63.5663 44.1105 60.5606 42.3711L52.6561 46.9778C55.6619 48.7173 55.6817 51.5409 52.6917 53.2803L84.4324 71.6596C87.4183 69.9202 92.2735 69.9202 95.2832 71.6596ZM65.9543 36.3109L113.603 63.8996L89.8895 77.7199L42.2409 50.1311L65.9543 36.3109Z" fill="#33B550"/>
<path fill-rule="evenodd" clip-rule="evenodd" d="M93.0457 51.9857L69.3323 65.8059L62.0733 61.6002L85.7867 47.784L93.0457 51.9857Z" fill="#ECBD7A"/>
<path fill-rule="evenodd" clip-rule="evenodd" d="M69.3125 65.8099L69.2769 72.5492L62.0179 68.3436L62.0535 61.6082L69.3125 65.8099Z" fill="#AE7836"/>
<path fill-rule="evenodd" clip-rule="evenodd" d="M89.8895 77.7198V84.4552L113.571 70.635V63.8996L89.8895 77.7198Z" fill="#1D9F3A"/>
<path fill-rule="evenodd" clip-rule="evenodd" d="M57.6657 98.5216C61.5981 100.797 61.6179 104.487 57.7092 106.766C53.8045 109.042 47.4525 109.042 43.52 106.766C39.5876 104.487 39.5678 100.797 43.4725 98.5216C47.3772 96.246 53.7333 96.246 57.6657 98.5216Z" fill="#33B550"/>
<path fill-rule="evenodd" clip-rule="evenodd" d="M43.52 106.766C47.4525 109.042 53.8045 109.042 57.7093 106.766C61.6179 104.487 61.5981 100.797 57.6657 98.5217C53.7333 96.2461 47.3772 96.2461 43.4725 98.5217C39.5678 100.797 39.5876 104.487 43.52 106.766ZM75.823 106.377C72.837 108.116 72.8529 110.936 75.8547 112.679L67.9502 117.286C64.9445 115.547 60.0853 115.547 57.0994 117.286L25.3627 98.9109C28.3487 97.1675 28.3328 94.3478 25.3271 92.6044L33.2315 87.9977C36.2373 89.7411 41.0964 89.7411 44.0824 87.9977L75.823 106.377Z" fill="#4FCD6B"/>
<path fill-rule="evenodd" clip-rule="evenodd" d="M40.6885 73.9471L16.9751 87.7673L16.9434 94.5027L64.592 122.091L88.3054 108.271L88.3371 101.536L40.6885 73.9471Z" fill="#137A2A"/>
<path fill-rule="evenodd" clip-rule="evenodd" d="M59.7289 90.5274C63.6614 92.8069 63.6812 96.4962 59.7764 98.7718C55.8717 101.047 49.5157 101.051 45.5833 98.7718C41.6548 96.4962 41.631 92.8029 45.5397 90.5274C49.4444 88.2518 55.8005 88.2518 59.7289 90.5274Z" fill="#33B550"/>
<path fill-rule="evenodd" clip-rule="evenodd" d="M45.5833 98.7718C49.5157 101.051 55.8717 101.047 59.7765 98.7718C63.6812 96.4963 63.6614 92.8069 59.7289 90.5274C55.8005 88.2518 49.4444 88.2518 45.5397 90.5274C41.631 92.8029 41.6548 96.4963 45.5833 98.7718ZM77.8902 98.3826C74.9042 100.126 74.9201 102.946 77.9219 104.689L70.0174 109.296C67.0117 107.556 62.1525 107.556 59.1666 109.296L27.426 90.9165C30.4159 89.1771 30.3961 86.3535 27.3943 84.6141L35.2948 80.0073C38.3005 81.7468 43.1596 81.7507 46.1496 80.0073L77.8902 98.3826Z" fill="#4FCD6B"/>
<path fill-rule="evenodd" clip-rule="evenodd" d="M70.0174 109.296L77.9219 104.689C74.9201 102.946 74.9042 100.126 77.8902 98.3826L46.1496 80.0073C43.1596 81.7507 38.3005 81.7468 35.2948 80.0073L27.3943 84.6141C30.3961 86.3535 30.4159 89.1771 27.426 90.9165L59.1666 109.296C62.1525 107.556 67.0117 107.556 70.0174 109.296ZM40.6885 73.9471L88.3371 101.536L64.6237 115.356L16.9751 87.7673L40.6885 73.9471Z" fill="#33B550"/>
<path fill-rule="evenodd" clip-rule="evenodd" d="M67.7799 89.6219L44.0705 103.442L36.8115 99.2365L60.5249 85.4202L67.7799 89.6219Z" fill="#ECBD7A"/>
<path fill-rule="evenodd" clip-rule="evenodd" d="M44.0467 103.446L44.015 110.185L36.7561 105.98L36.7878 99.2444L44.0467 103.446Z" fill="#AE7836"/>
<path fill-rule="evenodd" clip-rule="evenodd" d="M64.6237 115.356V122.091L88.3054 108.271V101.536L64.6237 115.356Z" fill="#1D9F3A"/>
<path fill-rule="evenodd" clip-rule="evenodd" d="M39.8054 66.5485L16.092 80.3687L16.0564 87.1041L63.7049 114.693L87.4183 100.873L87.454 94.1373L39.8054 66.5485Z" fill="#137A2A"/>
<path fill-rule="evenodd" clip-rule="evenodd" d="M58.8458 83.1287C62.7782 85.4043 62.798 89.0976 58.8894 91.3732C54.9847 93.6488 48.6326 93.6488 44.7001 91.3732C40.7677 89.0976 40.7479 85.4043 44.6526 83.1287C48.5573 80.8532 54.9134 80.8532 58.8458 83.1287Z" fill="#33B550"/>
<path fill-rule="evenodd" clip-rule="evenodd" d="M44.7001 91.3732C48.6326 93.6488 54.9847 93.6488 58.8894 91.3732C62.798 89.0976 62.7782 85.4043 58.8458 83.1287C54.9134 80.8532 48.5573 80.8532 44.6526 83.1287C40.7479 85.4043 40.7677 89.0976 44.7001 91.3732ZM77.0031 90.984C74.0172 92.7235 74.033 95.5471 77.0388 97.2865L69.1343 101.893C66.1246 100.154 61.2694 100.154 58.2835 101.893L26.5428 83.5179C29.5288 81.7785 29.513 78.9549 26.5072 77.2154L34.4117 72.6087C37.4174 74.3481 42.2765 74.3481 45.2625 72.6087L77.0031 90.984Z" fill="#4FCD6B"/>
<path fill-rule="evenodd" clip-rule="evenodd" d="M69.1343 101.893L77.0388 97.2866C74.033 95.5471 74.0172 92.7235 77.0031 90.9841L45.2625 72.6088C42.2765 74.3482 37.4174 74.3482 34.4117 72.6088L26.5072 77.2155C29.513 78.9549 29.5288 81.7786 26.5428 83.518L58.2835 101.897C61.2694 100.154 66.1246 100.154 69.1343 101.893ZM39.8054 66.5485L87.454 94.1373L63.7406 107.954L16.092 80.3687L39.8054 66.5485Z" fill="#33B550"/>
<path fill-rule="evenodd" clip-rule="evenodd" d="M66.8968 82.2233L43.1834 96.0396L35.9244 91.8379L59.6378 78.0177L66.8968 82.2233Z" fill="#ECBD7A"/>
<path fill-rule="evenodd" clip-rule="evenodd" d="M43.1636 96.0475L43.128 102.783L35.869 98.5813L35.9046 91.8459L43.1636 96.0475Z" fill="#AE7836"/>
<path fill-rule="evenodd" clip-rule="evenodd" d="M63.7406 107.954V114.693L87.4183 100.873V94.1373L63.7406 107.954Z" fill="#1D9F3A"/>
</svg>
