<svg width="120" height="161" viewBox="0 0 120 161" fill="none" xmlns="http://www.w3.org/2000/svg">
<path fill-rule="evenodd" clip-rule="evenodd" d="M88.2907 125.46C87.9163 125.46 87.5419 125.46 87.3547 125.273C86.7931 124.899 86.2315 124.524 86.0443 124.524C71.0682 115.352 51.0378 104.12 38.8697 97.5675C37.5593 97.0059 37.5593 95.3211 38.8697 94.5723L48.0426 89.7051C48.9786 89.1435 49.9146 88.9563 50.8506 88.9563C51.5994 88.9563 52.5354 89.1435 53.2842 89.3307C66.7626 95.6955 84.5467 106.366 97.4635 115.539C98.7739 116.475 100.084 117.224 100.084 118.534C100.084 119.096 99.7099 119.47 99.1483 119.844L89.0395 125.273C88.8523 125.46 88.4779 125.46 88.2907 125.46Z" fill="black" fill-opacity="0.301961"/>
<path fill-rule="evenodd" clip-rule="evenodd" d="M88.6651 124.15C88.2907 124.15 88.1035 123.963 87.7291 123.776C87.1675 123.401 86.6059 123.214 86.4187 123.027C71.4426 113.854 51.5994 102.622 39.6186 96.0699C38.3082 95.5083 38.3082 93.8235 39.6186 93.0747L48.2298 88.2075C49.1658 87.6459 50.1018 87.4587 51.0378 87.4587C51.7866 87.4587 52.5354 87.6459 53.2842 88.0203C66.5754 94.1979 84.3595 104.868 97.2763 114.041C98.5867 114.977 99.8971 115.726 99.8971 117.036C99.8971 117.598 99.5227 117.972 99.1483 118.347L89.4139 123.776C89.2267 123.963 88.8523 124.15 88.6651 124.15Z" fill="#D9D9D9"/>
<path fill-rule="evenodd" clip-rule="evenodd" d="M85.6699 120.968C71.6298 112.356 52.161 101.312 41.3034 95.5083C41.1162 94.5723 41.1162 93.6363 42.0522 93.2619C54.5946 98.6907 74.0634 110.11 86.7931 119.096C87.3547 120.032 87.9163 121.155 87.7291 122.278C87.1675 121.904 86.0443 121.342 85.6699 120.968Z" fill="#E5E5E5"/>
<path fill-rule="evenodd" clip-rule="evenodd" d="M97.8379 116.475L87.7291 122.278C87.9163 121.155 87.3547 120.032 86.7931 119.096L94.8427 114.603L97.0891 113.292C97.6507 114.228 98.2123 115.352 97.8379 116.475Z" fill="#BFBFBF"/>
<path fill-rule="evenodd" clip-rule="evenodd" d="M97.0891 113.292L94.8427 114.603L86.7931 119.096C74.0634 110.11 54.5946 98.6907 42.0522 93.2619L52.3482 87.2715C64.8906 92.8875 84.3595 104.12 97.0891 113.292Z" fill="#D1D1D1"/>
<path fill-rule="evenodd" clip-rule="evenodd" d="M74.8122 107.302L60.3978 99.0651V87.6459L74.8122 95.8827V107.302Z" fill="#B2B2B2"/>
<path fill-rule="evenodd" clip-rule="evenodd" d="M77.6203 105.804L74.8122 107.302V95.8827L77.6203 94.3851V105.804Z" fill="#999999"/>
<path fill-rule="evenodd" clip-rule="evenodd" d="M32.6921 12.3913C31.9433 12.0169 31.1945 11.8297 30.6329 12.2041L28.1993 13.5145C28.7609 13.3273 29.5097 13.3273 30.2585 13.7017L104.951 56.945L107.385 55.4474L32.6921 12.3913Z" fill="#A3A3A3"/>
<path fill-rule="evenodd" clip-rule="evenodd" d="M107.385 55.4474L104.952 56.945C106.449 57.6938 107.76 60.1274 107.76 61.8122L110.193 60.5018C110.193 58.6298 108.883 56.3834 107.385 55.4474Z" fill="#CCCCCC"/>
<path fill-rule="evenodd" clip-rule="evenodd" d="M107.76 61.8122V111.795C107.76 112.731 107.572 113.292 107.011 113.667L109.257 112.356C109.819 111.982 110.193 111.42 110.193 110.484V60.5018L107.76 61.8122Z" fill="#999999"/>
<path fill-rule="evenodd" clip-rule="evenodd" d="M30.2585 70.4235C28.7609 69.4875 27.4505 67.2411 27.4505 65.369V15.3865C27.4505 13.7017 28.7609 12.7657 30.2585 13.7017L104.952 56.945C106.449 57.6938 107.76 60.1274 107.76 61.8122V111.795C107.76 113.667 106.449 114.416 104.952 113.48L30.2585 70.4235Z" fill="#C2C2C2"/>
<path fill-rule="evenodd" clip-rule="evenodd" d="M104.952 57.5066L30.2585 14.4505C28.9481 13.7017 28.0121 14.2633 28.0121 15.7609V65.7434C28.0121 67.241 28.9481 68.9258 30.2585 69.6746L104.952 112.731C106.262 113.48 107.198 112.918 107.198 111.42V61.625C107.198 60.1274 106.262 58.2554 104.952 57.5066Z" fill="#333333"/>
<path fill-rule="evenodd" clip-rule="evenodd" d="M31.5689 65.9307V18.5689L104.016 60.5018V107.864L31.5689 65.9307Z" fill="#1D9F3A"/>
<path fill-rule="evenodd" clip-rule="evenodd" d="M31.5689 18.5689L31.1945 18.3817V66.305L31.5689 65.9306V18.5689Z" fill="#808080"/>
<path fill-rule="evenodd" clip-rule="evenodd" d="M31.5689 65.9306L31.1945 66.305L104.015 108.238V107.864L31.5689 65.9306Z" fill="#C2C2C2"/>
<path fill-rule="evenodd" clip-rule="evenodd" d="M68.2602 38.4122C68.2602 38.9738 68.073 39.161 67.6986 38.9738C67.137 38.5994 66.9498 38.0378 66.9498 37.6634C66.9498 37.289 67.137 37.1018 67.6986 37.289C68.073 37.4762 68.2602 38.0378 68.2602 38.4122Z" fill="#666666"/>
<path fill-rule="evenodd" clip-rule="evenodd" d="M74.8122 146.988C74.625 146.988 74.4378 146.988 74.2506 146.801L3.86328 106.179C3.67608 105.992 3.67608 105.617 3.86328 105.43L24.2681 93.6363C24.4553 93.6363 24.8297 93.6363 25.0169 93.6363C25.2041 93.6363 25.5785 93.6363 25.7657 93.6363L95.9659 134.259C96.3403 134.446 96.3403 134.82 95.9659 135.008L75.561 146.801C75.3738 146.988 74.9994 146.988 74.8122 146.988Z" fill="black" fill-opacity="0.301961"/>
<path fill-rule="evenodd" clip-rule="evenodd" d="M93.5323 130.702C93.7195 130.889 93.9067 130.889 93.9067 131.076C93.9067 131.264 93.5323 131.264 93.5323 131.264L93.1579 130.889L93.5323 130.702Z" fill="#808080"/>
<path fill-rule="evenodd" clip-rule="evenodd" d="M75.1866 144.18L76.4971 143.432V143.244V143.057L74.8122 143.993V144.18V144.368L75.1866 144.555V144.368V144.18Z" fill="#333333"/>
<path fill-rule="evenodd" clip-rule="evenodd" d="M76.6842 143.619L75.1866 144.555C75.1866 144.555 75.1866 144.555 75.1866 144.368V144.18L76.6842 143.244V143.432C76.6842 143.619 76.6842 143.619 76.6842 143.619Z" fill="#4D4D4D"/>
<path fill-rule="evenodd" clip-rule="evenodd" d="M91.2859 134.82L92.5963 134.072V133.697L90.9115 134.633V135.008H91.0987L91.2859 135.195V134.82Z" fill="#333333"/>
<path fill-rule="evenodd" clip-rule="evenodd" d="M92.7835 134.446L91.4731 135.195C91.2859 135.195 91.2859 135.195 91.2859 135.195V134.82L92.9707 133.884V134.259L92.7835 134.446Z" fill="#4D4D4D"/>
<path fill-rule="evenodd" clip-rule="evenodd" d="M74.8122 143.244L6.10968 104.307V104.494V105.056C6.10968 105.243 6.10968 105.243 6.10968 105.243L74.2506 144.555L74.8122 143.244Z" fill="#BFBFBF"/>
<path fill-rule="evenodd" clip-rule="evenodd" d="M74.4378 143.619L74.8122 143.244C74.4378 143.432 73.8762 143.432 73.5018 143.244L74.2506 143.806C74.2506 143.619 74.2506 143.619 74.4378 143.619Z" fill="#B3B3B3"/>
<path fill-rule="evenodd" clip-rule="evenodd" d="M93.7195 133.51L74.4378 144.555C74.2506 144.555 74.2506 144.555 74.2506 144.555V143.806C74.2506 143.619 74.2506 143.619 74.4378 143.619L93.7195 131.076C93.7195 130.889 93.9067 131.076 93.9067 131.076V133.136C93.9067 133.323 93.7195 133.323 93.7195 133.51Z" fill="#808080"/>
<path fill-rule="evenodd" clip-rule="evenodd" d="M6.48408 103.932L25.0169 91.9515C25.2041 91.7643 25.7657 91.7643 26.1401 91.9515L93.3451 130.515C93.7195 130.702 93.7195 131.076 93.3451 131.264L74.8122 143.244C74.4378 143.432 73.8762 143.432 73.5018 143.244L6.48408 104.868C6.10968 104.494 6.10968 104.307 6.48408 103.932Z" fill="#B3B3B3"/>
<path fill-rule="evenodd" clip-rule="evenodd" d="M66.3882 123.963L66.5754 124.524C66.5754 124.524 66.5754 124.712 66.7626 124.712L67.8858 125.46C68.2602 125.648 66.9498 126.584 66.9498 126.584L64.8906 127.707V128.081C64.8906 128.081 64.8906 128.268 65.0778 128.268L67.6986 129.766C67.8858 129.953 68.2602 129.953 68.4474 129.766L74.625 125.835C74.8122 125.835 74.8122 125.648 74.8122 125.648V125.273L66.3882 123.963Z" fill="#D6D6D6"/>
<path fill-rule="evenodd" clip-rule="evenodd" d="M74.625 124.899L69.7578 122.278C69.5706 122.091 69.1962 122.091 69.009 122.278L66.5754 123.776C66.3882 123.963 66.3882 124.15 66.5754 124.337L67.8858 125.086C68.073 125.086 68.073 125.273 67.8858 125.46L64.8906 127.332C64.7034 127.52 64.7034 127.707 65.0778 127.894L67.6986 129.392C67.8858 129.579 68.2602 129.579 68.4474 129.392L74.625 125.46C74.8122 125.273 74.8122 125.086 74.625 124.899Z" fill="#F7F7F7"/>
<path fill-rule="evenodd" clip-rule="evenodd" d="M53.2842 129.953V130.515C53.2842 130.515 53.2842 130.702 53.4714 130.702L60.2106 134.633C60.585 134.82 60.7722 134.82 60.9594 134.633L63.5802 133.136C63.5802 132.948 63.5802 132.948 63.5802 132.761V132.387L53.2842 129.953Z" fill="#D6D6D6"/>
<path fill-rule="evenodd" clip-rule="evenodd" d="M63.393 132.2L56.6538 128.268C56.4666 128.081 56.0922 128.081 55.905 128.268L53.2842 129.766C53.097 129.953 53.097 130.14 53.4714 130.328L60.2106 134.259C60.3978 134.259 60.7722 134.259 60.9594 134.259L63.393 132.574C63.7674 132.574 63.5802 132.2 63.393 132.2Z" fill="#F7F7F7"/>
<path fill-rule="evenodd" clip-rule="evenodd" d="M15.2825 99.2523V99.6267C15.2825 99.6267 15.2825 99.8139 15.4697 99.8139L22.2089 103.745C22.5833 103.932 22.7705 103.932 23.1449 103.745L25.5785 102.248C25.5785 102.06 25.7657 102.06 25.5785 101.873V101.499L15.2825 99.2523Z" fill="#D6D6D6"/>
<path fill-rule="evenodd" clip-rule="evenodd" d="M25.3913 101.312L18.6521 97.3803C18.4649 97.1931 18.0905 97.1931 17.9033 97.3803L15.4697 98.8779C15.0953 99.0651 15.2825 99.2523 15.4697 99.4395L22.2089 103.371C22.3961 103.371 22.7705 103.371 22.9577 103.371L25.5785 101.686C25.7657 101.686 25.7657 101.312 25.3913 101.312Z" fill="#F7F7F7"/>
<path fill-rule="evenodd" clip-rule="evenodd" d="M7.79449 103.932V104.307C7.79449 104.494 7.98169 104.494 7.98169 104.681L14.9081 108.612C15.0953 108.612 15.4697 108.612 15.6569 108.612L18.0905 106.928L18.2777 106.74L18.0905 106.366L7.79449 103.932Z" fill="#D6D6D6"/>
<path fill-rule="evenodd" clip-rule="evenodd" d="M18.0905 105.992L11.1641 102.06C10.9769 102.06 10.6025 102.06 10.4153 102.06L7.98168 103.745C7.79448 103.932 7.79448 104.12 7.98168 104.12L14.7209 108.051C15.0953 108.238 15.4697 108.238 15.6569 108.051L18.0905 106.553C18.2777 106.366 18.2777 106.179 18.0905 105.992Z" fill="#F7F7F7"/>
<path fill-rule="evenodd" clip-rule="evenodd" d="M22.2089 112.169V112.731L22.3961 112.918L45.7962 126.396C45.9834 126.396 46.3578 126.396 46.545 126.396L48.9786 124.712C49.1658 124.712 49.1658 124.524 49.1658 124.524V124.15L22.2089 112.169Z" fill="#D6D6D6"/>
<path fill-rule="evenodd" clip-rule="evenodd" d="M45.7962 125.835L22.3961 112.544C22.2089 112.356 22.2089 112.169 22.3961 111.982L24.8297 110.484C25.0169 110.297 25.3913 110.297 25.5785 110.484L48.9786 123.776C49.1658 123.963 49.1658 124.15 48.9786 124.337L46.545 125.835C46.3578 126.022 45.9834 126.022 45.7962 125.835Z" fill="#F7F7F7"/>
<path fill-rule="evenodd" clip-rule="evenodd" d="M59.0874 128.83V129.204C59.0874 129.392 59.0874 129.392 59.2746 129.579L63.9546 132.2C64.1418 132.387 64.5162 132.387 64.7034 132.2L67.3242 130.702C67.3242 130.515 67.3242 130.515 67.3242 130.515V129.953L59.0874 128.83Z" fill="#D6D6D6"/>
<path fill-rule="evenodd" clip-rule="evenodd" d="M67.137 129.766L62.457 126.958C62.0826 126.958 61.8954 126.958 61.7082 126.958L59.0874 128.643C58.9002 128.643 58.9002 129.017 59.2746 129.017L63.9546 131.825C64.1418 132.012 64.5162 132.012 64.7034 131.825L67.137 130.14C67.3242 130.14 67.3242 129.953 67.137 129.766Z" fill="#F7F7F7"/>
<path fill-rule="evenodd" clip-rule="evenodd" d="M47.1066 126.584V126.958C47.1066 126.958 47.1066 127.145 47.2938 127.145L51.9738 129.953C52.161 129.953 52.5354 129.953 52.7226 129.953L55.3434 128.268C55.3434 128.268 55.3434 128.268 55.3434 128.081V127.707L47.1066 126.584Z" fill="#D6D6D6"/>
<path fill-rule="evenodd" clip-rule="evenodd" d="M55.1562 127.52L50.4762 124.712C50.1018 124.524 49.9146 124.524 49.7274 124.712L47.1066 126.209C46.9194 126.396 46.9194 126.584 47.2938 126.771L51.9738 129.392C52.161 129.579 52.5354 129.579 52.7226 129.392L55.1562 127.894C55.3434 127.707 55.3434 127.52 55.1562 127.52Z" fill="#F7F7F7"/>
<path fill-rule="evenodd" clip-rule="evenodd" d="M19.0265 96.8187V97.1931C19.0265 97.3803 19.0265 97.3803 19.2137 97.3803L23.8937 100.188C24.2681 100.376 24.4553 100.376 24.6425 100.188L27.2633 98.6907C27.2633 98.5035 27.2633 98.5035 27.2633 98.3163V97.9419L19.0265 96.8187Z" fill="#D6D6D6"/>
<path fill-rule="evenodd" clip-rule="evenodd" d="M27.0761 97.7547L22.3961 94.9467C22.2089 94.7595 21.8345 94.7595 21.6473 94.9467L19.0265 96.6315C18.8393 96.6315 18.8393 96.8187 19.2137 97.0059L23.8937 99.8139C24.0809 99.8139 24.4553 99.8139 24.6425 99.8139L27.0761 98.1291C27.2633 97.9419 27.2633 97.7547 27.0761 97.7547Z" fill="#F7F7F7"/>
<path fill-rule="evenodd" clip-rule="evenodd" d="M11.5385 101.499V102.06C11.5385 102.06 11.5385 102.248 11.7257 102.248L16.5929 105.056C16.7801 105.056 17.1545 105.056 17.3417 105.056L19.7753 103.371L19.9625 103.184L19.7753 102.622L11.5385 101.499Z" fill="#D6D6D6"/>
<path fill-rule="evenodd" clip-rule="evenodd" d="M19.5881 102.435L14.9081 99.8139C14.7209 99.6267 14.3465 99.6267 14.1593 99.8139L11.7257 101.312C11.5385 101.499 11.5385 101.686 11.7257 101.873L16.4057 104.494C16.7801 104.681 16.9673 104.681 17.1545 104.494L19.7753 102.996C19.9625 102.809 19.9625 102.622 19.5881 102.435Z" fill="#F7F7F7"/>
<path fill-rule="evenodd" clip-rule="evenodd" d="M16.0313 108.612V109.174L16.2185 109.361L21.0857 112.169C21.2729 112.169 21.6473 112.169 21.8345 112.169L24.2681 110.484C24.4553 110.484 24.4553 110.297 24.4553 110.297V109.923L16.0313 108.612Z" fill="#D6D6D6"/>
<path fill-rule="evenodd" clip-rule="evenodd" d="M24.2681 109.548L19.4009 106.928C19.2137 106.74 18.8393 106.74 18.6521 106.928L16.2185 108.425C16.0313 108.612 16.0313 108.8 16.2185 108.987L21.0857 111.608C21.2729 111.795 21.6473 111.795 21.8345 111.608L24.2681 110.11C24.4553 109.923 24.4553 109.736 24.2681 109.548Z" fill="#F7F7F7"/>
<path fill-rule="evenodd" clip-rule="evenodd" d="M77.0586 140.624V140.062H70.881V140.624C70.881 140.624 70.881 140.811 71.0682 140.811L73.689 142.308C73.8762 142.496 74.2506 142.496 74.4378 142.308L76.8714 140.811C77.0586 140.624 77.0586 140.624 77.0586 140.624Z" fill="#D6D6D6"/>
<path fill-rule="evenodd" clip-rule="evenodd" d="M73.689 141.934L71.0682 140.436C70.6938 140.249 70.6938 140.062 70.881 139.875L73.3146 138.377C73.689 138.19 73.8762 138.19 74.2506 138.377L76.8714 139.875C77.0586 140.062 77.0586 140.249 76.8714 140.249L74.4378 141.934C74.2506 142.121 73.8762 142.121 73.689 141.934Z" fill="#F7F7F7"/>
<path fill-rule="evenodd" clip-rule="evenodd" d="M72.9402 138.19V137.816H66.7626V138.19C66.7626 138.19 66.7626 138.377 66.9498 138.377L69.5706 140.062C69.7578 140.062 70.1322 140.062 70.3194 140.062L72.753 138.377C72.9402 138.377 72.9402 138.19 72.9402 138.19Z" fill="#D6D6D6"/>
<path fill-rule="evenodd" clip-rule="evenodd" d="M69.5706 139.5L66.7626 138.003C66.5754 137.816 66.5754 137.628 66.7626 137.441L69.1962 135.944C69.3834 135.756 69.7578 135.756 70.1322 135.944L72.753 137.441C72.9402 137.628 72.9402 137.816 72.753 138.003L70.3194 139.5C70.1322 139.688 69.7578 139.688 69.5706 139.5Z" fill="#F7F7F7"/>
<path fill-rule="evenodd" clip-rule="evenodd" d="M68.8218 135.756V135.382H62.457L62.6442 135.756C62.6442 135.944 62.6442 135.944 62.8314 136.131L65.4522 137.628C65.6394 137.816 66.0138 137.816 66.201 137.628L68.6346 135.944C68.8218 135.944 68.8218 135.944 68.8218 135.756Z" fill="#D6D6D6"/>
<path fill-rule="evenodd" clip-rule="evenodd" d="M65.4522 137.254L62.6442 135.569C62.457 135.569 62.457 135.195 62.6442 135.195L65.0778 133.51C65.265 133.51 65.6394 133.51 65.8266 133.51L68.6346 135.195C68.8218 135.195 68.8218 135.382 68.6346 135.569L66.201 137.254C66.0138 137.254 65.6394 137.254 65.4522 137.254Z" fill="#F7F7F7"/>
<path fill-rule="evenodd" clip-rule="evenodd" d="M76.6842 135.756V135.382H70.3194L70.5066 135.756C70.5066 135.944 70.5066 135.944 70.6938 135.944L73.3146 137.628C73.5018 137.628 73.8762 137.628 74.0634 137.628L76.497 135.944C76.6842 135.944 76.6842 135.944 76.6842 135.756Z" fill="#D6D6D6"/>
<path fill-rule="evenodd" clip-rule="evenodd" d="M73.3146 137.067L70.5066 135.569C70.3194 135.382 70.3194 135.195 70.5066 135.195L72.9402 133.51C73.1274 133.51 73.5018 133.51 73.689 133.51L76.497 135.195C76.6842 135.195 76.6842 135.382 76.497 135.569L74.0634 137.067C73.8762 137.254 73.5018 137.254 73.3146 137.067Z" fill="#F7F7F7"/>
<path fill-rule="evenodd" clip-rule="evenodd" d="M88.2907 133.323V132.948H81.9258V133.323C81.9258 133.51 82.1131 133.51 82.1131 133.697L84.9211 135.195C85.1083 135.382 85.4827 135.382 85.6699 135.195L88.1035 133.51C88.2907 133.51 88.2907 133.51 88.2907 133.323Z" fill="#D6D6D6"/>
<path fill-rule="evenodd" clip-rule="evenodd" d="M84.9211 134.82L82.1131 133.136C81.9259 133.136 81.9259 132.761 82.1131 132.761L84.5467 131.076C84.7339 131.076 85.1083 131.076 85.2955 131.076L88.1035 132.761C88.2907 132.761 88.2907 132.948 88.1035 133.136L85.6699 134.82C85.4827 134.82 85.1083 134.82 84.9211 134.82Z" fill="#F7F7F7"/>
<path fill-rule="evenodd" clip-rule="evenodd" d="M84.1723 131.076V130.515H77.8074V131.076L77.9946 131.264L80.8026 132.761C80.9898 132.948 81.3642 132.948 81.5515 132.761L83.9851 131.264C84.1723 131.076 84.1723 131.076 84.1723 131.076Z" fill="#D6D6D6"/>
<path fill-rule="evenodd" clip-rule="evenodd" d="M80.8026 132.387L77.9946 130.889C77.8074 130.702 77.8074 130.515 77.9946 130.328L80.4282 128.83C80.6154 128.643 80.9898 128.643 81.177 128.83L83.9851 130.328C84.1723 130.515 84.1723 130.702 83.9851 130.702L81.5514 132.387C81.3642 132.574 80.9898 132.574 80.8026 132.387Z" fill="#F7F7F7"/>
<path fill-rule="evenodd" clip-rule="evenodd" d="M80.0539 128.643V128.268H73.689V128.643L73.8762 128.83L76.6842 130.515C76.8714 130.515 77.2458 130.515 77.433 130.515L79.8667 128.83C80.0539 128.83 80.0539 128.643 80.0539 128.643Z" fill="#D6D6D6"/>
<path fill-rule="evenodd" clip-rule="evenodd" d="M76.6842 129.953L73.8762 128.456C73.689 128.268 73.689 128.081 73.8762 127.894L76.3098 126.396C76.497 126.209 76.8714 126.209 77.0586 126.396L79.8667 127.894C80.0539 128.081 80.0539 128.268 79.8667 128.456L77.433 129.953C77.2458 130.14 76.8714 130.14 76.6842 129.953Z" fill="#F7F7F7"/>
<path fill-rule="evenodd" clip-rule="evenodd" d="M92.0347 130.889V130.515H85.6699V131.076L85.8571 131.264L88.6651 132.761C88.8523 132.948 89.2267 132.948 89.4139 132.761L91.8475 131.264C92.0347 131.076 92.0347 131.076 92.0347 130.889Z" fill="#D6D6D6"/>
<path fill-rule="evenodd" clip-rule="evenodd" d="M88.6651 132.387L85.8571 130.889C85.6699 130.702 85.6699 130.515 85.8571 130.328L88.2907 128.83C88.4779 128.643 88.8523 128.643 89.0395 128.83L91.8475 130.328C92.0347 130.515 92.0347 130.702 91.8475 130.702L89.4139 132.387C89.2267 132.387 88.8523 132.387 88.6651 132.387Z" fill="#F7F7F7"/>
<path fill-rule="evenodd" clip-rule="evenodd" d="M87.9163 128.643V128.081L81.5515 128.268V128.643L81.7387 128.83L84.5467 130.328C84.7339 130.515 85.1083 130.515 85.2955 130.328L87.7291 128.83L87.9163 128.643Z" fill="#D6D6D6"/>
<path fill-rule="evenodd" clip-rule="evenodd" d="M84.5467 129.953L81.7387 128.456C81.5515 128.268 81.5515 128.081 81.7387 127.894L84.1723 126.396C84.3595 126.209 84.7339 126.209 84.9211 126.396L87.7291 127.894C87.9163 128.081 87.9163 128.268 87.7291 128.456L85.2955 129.953C85.1083 130.14 84.7339 130.14 84.5467 129.953Z" fill="#F7F7F7"/>
<path fill-rule="evenodd" clip-rule="evenodd" d="M83.7979 126.209L83.6107 125.835H77.433V126.209C77.433 126.396 77.6202 126.396 77.6202 126.584L80.4283 128.081C80.6155 128.081 80.9899 128.081 81.1771 128.081L83.6107 126.396C83.6107 126.396 83.7979 126.396 83.7979 126.209Z" fill="#D6D6D6"/>
<path fill-rule="evenodd" clip-rule="evenodd" d="M80.241 127.52L77.6202 126.022C77.433 125.835 77.433 125.648 77.6202 125.648L80.0538 123.963C80.241 123.963 80.6154 123.963 80.8026 123.963L83.4234 125.648C83.7979 125.648 83.7979 125.835 83.6106 126.022L81.177 127.52C80.8026 127.707 80.6154 127.707 80.241 127.52Z" fill="#F7F7F7"/>
<path fill-rule="evenodd" clip-rule="evenodd" d="M78.5562 123.214V122.84H72.1914L72.3786 123.214C72.3786 123.401 72.3786 123.401 72.5658 123.588L75.1866 125.086C75.3738 125.273 75.7482 125.273 75.9354 125.086L78.369 123.401C78.5562 123.401 78.5562 123.401 78.5562 123.214Z" fill="#D6D6D6"/>
<path fill-rule="evenodd" clip-rule="evenodd" d="M75.1866 124.712L72.3786 123.027C72.1914 123.027 72.1914 122.652 72.3786 122.652L74.8122 120.968C74.9994 120.968 75.3738 120.968 75.561 120.968L78.369 122.652C78.5562 122.652 78.5562 122.84 78.369 123.027L75.9354 124.712C75.7482 124.712 75.3738 124.712 75.1866 124.712Z" fill="#F7F7F7"/>
<path fill-rule="evenodd" clip-rule="evenodd" d="M74.4378 120.968V120.406H68.073L68.2602 120.968V121.155L71.0682 122.652C71.2554 122.84 71.6298 122.84 71.817 122.652L74.2506 121.155C74.4378 120.968 74.4378 120.968 74.4378 120.968Z" fill="#D6D6D6"/>
<path fill-rule="evenodd" clip-rule="evenodd" d="M71.0682 122.278L68.2602 120.78C68.073 120.593 68.073 120.406 68.2602 120.219L70.6938 118.721C70.881 118.534 71.2554 118.534 71.4426 118.721L74.2506 120.219C74.4378 120.406 74.4378 120.593 74.2506 120.593L71.817 122.278C71.6298 122.465 71.2554 122.465 71.0682 122.278Z" fill="#F7F7F7"/>
<path fill-rule="evenodd" clip-rule="evenodd" d="M70.3194 118.534V118.16H63.9546V118.534C63.9546 118.721 64.1418 118.721 64.1418 118.721L66.9498 120.406C67.137 120.406 67.5114 120.406 67.6986 120.406L70.1322 118.721C70.3194 118.721 70.3194 118.534 70.3194 118.534Z" fill="#D6D6D6"/>
<path fill-rule="evenodd" clip-rule="evenodd" d="M66.9498 119.844L64.1418 118.347C63.9546 118.16 63.9546 117.972 64.1418 117.785L66.5754 116.288C66.7626 116.1 67.137 116.1 67.3242 116.288L70.1322 117.785C70.3194 117.972 70.3194 118.16 70.1322 118.347L67.6986 119.844C67.5114 120.032 67.137 120.032 66.9498 119.844Z" fill="#F7F7F7"/>
<path fill-rule="evenodd" clip-rule="evenodd" d="M66.201 116.1V115.726H59.8362V116.1C59.8362 116.288 60.0234 116.288 60.0234 116.475L62.8314 117.972C63.0186 118.16 63.393 118.16 63.5802 117.972L66.0138 116.288C66.201 116.288 66.201 116.288 66.201 116.1Z" fill="#D6D6D6"/>
<path fill-rule="evenodd" clip-rule="evenodd" d="M62.8314 117.598L60.0234 115.913C59.8362 115.913 59.8362 115.539 60.0234 115.539L62.457 113.854C62.6442 113.854 63.0186 113.854 63.2058 113.854L66.0138 115.539C66.201 115.539 66.201 115.726 66.0138 115.913L63.5802 117.598C63.393 117.598 63.0186 117.598 62.8314 117.598Z" fill="#F7F7F7"/>
<path fill-rule="evenodd" clip-rule="evenodd" d="M62.0826 113.854V113.292H55.7178V113.854L55.905 114.041L58.713 115.539C58.9002 115.726 59.2746 115.726 59.4618 115.539L61.8954 114.041C62.0826 113.854 62.0826 113.854 62.0826 113.854Z" fill="#D6D6D6"/>
<path fill-rule="evenodd" clip-rule="evenodd" d="M58.713 115.164L55.905 113.667C55.7178 113.48 55.7178 113.292 55.905 113.105L58.3386 111.608C58.5258 111.42 58.9002 111.42 59.0874 111.608L61.8954 113.105C62.0826 113.292 62.0826 113.48 61.8954 113.48L59.4618 115.164C59.2746 115.352 58.9002 115.352 58.713 115.164Z" fill="#F7F7F7"/>
<path fill-rule="evenodd" clip-rule="evenodd" d="M57.9642 111.42L57.777 111.046H51.5994V111.42L51.7866 111.608L54.5946 113.292C54.7818 113.292 55.1562 113.292 55.3434 113.292L57.777 111.608L57.9642 111.42Z" fill="#D6D6D6"/>
<path fill-rule="evenodd" clip-rule="evenodd" d="M54.4074 112.731L51.7866 111.233C51.5994 111.046 51.5994 110.859 51.7866 110.672L54.2202 109.174C54.4074 108.987 54.7818 108.987 54.969 109.174L57.777 110.672C57.9642 110.859 57.9642 111.046 57.777 111.233L55.3434 112.731C54.969 112.918 54.7818 112.918 54.4074 112.731Z" fill="#F7F7F7"/>
<path fill-rule="evenodd" clip-rule="evenodd" d="M53.8458 108.987L53.6586 108.612H47.481V108.987C47.481 109.174 47.6682 109.174 47.6682 109.361L50.4762 110.859C50.6634 111.046 51.0378 111.046 51.225 110.859L53.6586 109.174C53.6586 109.174 53.8458 109.174 53.8458 108.987Z" fill="#D6D6D6"/>
<path fill-rule="evenodd" clip-rule="evenodd" d="M50.289 110.484L47.6682 108.8C47.481 108.8 47.481 108.425 47.6682 108.425L50.1018 106.74C50.289 106.74 50.6634 106.74 50.8506 106.74L53.4714 108.425C53.8458 108.425 53.8458 108.612 53.6586 108.8L51.0378 110.484C50.8506 110.484 50.6634 110.484 50.289 110.484Z" fill="#F7F7F7"/>
<path fill-rule="evenodd" clip-rule="evenodd" d="M49.7274 106.74L49.5402 106.179H43.3626V106.74C43.3626 106.74 43.3626 106.928 43.5498 106.928L46.3578 108.425C46.545 108.612 46.9194 108.612 47.1066 108.425L49.5402 106.928C49.5402 106.74 49.7274 106.74 49.7274 106.74Z" fill="#D6D6D6"/>
<path fill-rule="evenodd" clip-rule="evenodd" d="M46.1706 108.051L43.5498 106.553C43.3626 106.366 43.3626 106.179 43.5498 105.992L45.9834 104.494C46.1706 104.307 46.545 104.307 46.7322 104.494L49.353 105.992C49.7274 106.179 49.7274 106.366 49.5402 106.366L46.9194 108.051C46.7322 108.238 46.545 108.238 46.1706 108.051Z" fill="#F7F7F7"/>
<path fill-rule="evenodd" clip-rule="evenodd" d="M45.4218 104.307V103.932H39.2442V104.307C39.2442 104.307 39.2442 104.494 39.4314 104.494L42.0522 106.179C42.4266 106.179 42.6138 106.179 42.9882 106.179L45.4218 104.494V104.307Z" fill="#D6D6D6"/>
<path fill-rule="evenodd" clip-rule="evenodd" d="M42.0522 105.617L39.4314 104.12C39.2442 103.932 39.2442 103.745 39.4314 103.558L41.865 102.06C42.0522 101.873 42.4266 101.873 42.6138 102.06L45.2346 103.558C45.609 103.745 45.609 103.932 45.4218 104.12L42.801 105.617C42.6138 105.804 42.2394 105.804 42.0522 105.617Z" fill="#F7F7F7"/>
<path fill-rule="evenodd" clip-rule="evenodd" d="M41.3034 101.873V101.499H35.1257V101.873C35.1257 102.06 35.1257 102.06 35.3129 102.248L37.9338 103.745C38.3082 103.932 38.4954 103.932 38.6826 103.745L41.3034 102.06C41.3034 102.06 41.3034 102.06 41.3034 101.873Z" fill="#D6D6D6"/>
<path fill-rule="evenodd" clip-rule="evenodd" d="M37.9338 103.371L35.3129 101.686C35.1257 101.686 34.9385 101.312 35.3129 101.312L37.7466 99.6267C37.9338 99.6267 38.3082 99.6267 38.4954 99.6267L41.1162 101.312C41.3034 101.312 41.4906 101.499 41.1162 101.686L38.6826 103.371C38.4954 103.371 38.121 103.371 37.9338 103.371Z" fill="#F7F7F7"/>
<path fill-rule="evenodd" clip-rule="evenodd" d="M37.185 99.6267V99.0651H31.0073V99.6267C31.0073 99.6267 31.0073 99.8139 31.1945 99.8139L33.8153 101.312C34.1897 101.499 34.3769 101.499 34.5641 101.312L37.185 99.8139C37.185 99.6267 37.185 99.6267 37.185 99.6267Z" fill="#D6D6D6"/>
<path fill-rule="evenodd" clip-rule="evenodd" d="M33.8153 100.937L31.1945 99.4395C31.0073 99.2523 30.8201 99.0651 31.0073 98.8779L33.6281 97.3803C33.8153 97.1931 34.1897 97.1931 34.377 97.3803L36.9978 98.8779C37.185 99.0651 37.185 99.2523 36.9978 99.2523L34.5642 100.937C34.377 101.124 34.0025 101.124 33.8153 100.937Z" fill="#F7F7F7"/>
<path fill-rule="evenodd" clip-rule="evenodd" d="M33.0665 97.1931V96.8187H26.8889V97.1931C26.8889 97.1931 26.8889 97.3803 27.0761 97.3803L29.6969 99.0651C29.8841 99.0651 30.2585 99.0651 30.4457 99.0651L33.0665 97.3803V97.1931Z" fill="#D6D6D6"/>
<path fill-rule="evenodd" clip-rule="evenodd" d="M29.6969 98.5035L27.0761 97.0059C26.7017 96.8187 26.7017 96.6315 26.8889 96.4443L29.5097 94.9467C29.6969 94.7595 30.0713 94.7595 30.2585 94.9467L32.8793 96.4443C33.0665 96.6315 33.0665 96.8187 32.8793 97.0059L30.4457 98.5035C30.2585 98.6907 29.8841 98.6907 29.6969 98.5035Z" fill="#F7F7F7"/>
<path fill-rule="evenodd" clip-rule="evenodd" d="M28.9481 94.7595V94.3851H22.7705V94.7595C22.7705 94.9467 22.7705 94.9467 22.9577 95.1339L25.5785 96.6315C25.7657 96.8187 26.1401 96.8187 26.3273 96.6315L28.7609 94.9467C28.9481 94.9467 28.9481 94.9467 28.9481 94.7595Z" fill="#D6D6D6"/>
<path fill-rule="evenodd" clip-rule="evenodd" d="M25.5785 96.2571L22.9577 94.5723C22.5833 94.5723 22.5833 94.1979 22.7705 94.1979L25.3913 92.5131C25.5785 92.5131 25.7657 92.5131 26.1401 92.5131L28.7609 94.1979C28.9481 94.1979 28.9481 94.3851 28.7609 94.5723L26.3273 96.2571C26.1401 96.2571 25.7657 96.2571 25.5785 96.2571Z" fill="#F7F7F7"/>
<path fill-rule="evenodd" clip-rule="evenodd" d="M68.6346 122.091V121.716H62.2698L62.457 122.091C62.457 122.278 62.457 122.278 62.6442 122.278L65.265 123.963C65.4522 123.963 65.8266 123.963 66.0138 123.963L68.4474 122.278C68.6346 122.278 68.6346 122.091 68.6346 122.091Z" fill="#D6D6D6"/>
<path fill-rule="evenodd" clip-rule="evenodd" d="M65.265 123.401L62.457 121.904C62.2698 121.716 62.2698 121.529 62.457 121.529L64.8906 119.844C65.0778 119.657 65.4522 119.657 65.6394 119.844L68.4474 121.342C68.6346 121.529 68.6346 121.716 68.4474 121.904L66.0138 123.401C65.8266 123.588 65.4522 123.588 65.265 123.401Z" fill="#F7F7F7"/>
<path fill-rule="evenodd" clip-rule="evenodd" d="M64.5162 119.657V119.283H58.1514L58.3386 119.657C58.3386 119.844 58.3386 119.844 58.3386 120.032L61.1466 121.529C61.3338 121.716 61.7082 121.716 61.8954 121.529L64.329 120.032C64.5162 119.844 64.5162 119.844 64.5162 119.657Z" fill="#D6D6D6"/>
<path fill-rule="evenodd" clip-rule="evenodd" d="M61.1466 121.155L58.3386 119.47C58.1514 119.47 58.1514 119.283 58.3386 119.096L60.7722 117.411C60.9594 117.411 61.3338 117.411 61.521 117.411L64.329 119.096C64.5162 119.096 64.5162 119.47 64.329 119.47L61.8954 121.155C61.7082 121.155 61.3338 121.155 61.1466 121.155Z" fill="#F7F7F7"/>
<path fill-rule="evenodd" clip-rule="evenodd" d="M60.3978 117.411V116.849H54.033V117.411L54.2202 117.598L57.0282 119.096C57.2154 119.283 57.5898 119.283 57.777 119.096L60.2106 117.598C60.3978 117.598 60.3978 117.411 60.3978 117.411Z" fill="#D6D6D6"/>
<path fill-rule="evenodd" clip-rule="evenodd" d="M57.0282 118.721L54.2202 117.224C54.033 117.036 54.033 116.849 54.2202 116.662L56.6538 115.164C56.841 114.977 57.2154 114.977 57.4026 115.164L60.2106 116.662C60.3978 116.849 60.3978 117.036 60.2106 117.224L57.777 118.721C57.5898 118.908 57.2154 118.908 57.0282 118.721Z" fill="#F7F7F7"/>
<path fill-rule="evenodd" clip-rule="evenodd" d="M56.2794 114.977V114.603H49.9146V114.977C49.9146 115.164 50.1018 115.164 50.1018 115.164L52.9098 116.849C53.097 116.849 53.4714 116.849 53.6586 116.849L56.0922 115.164C56.2794 115.164 56.2794 114.977 56.2794 114.977Z" fill="#D6D6D6"/>
<path fill-rule="evenodd" clip-rule="evenodd" d="M52.9098 116.288L50.1018 114.79C49.9146 114.603 49.9146 114.416 50.1018 114.416L52.5354 112.731C52.7226 112.544 53.097 112.544 53.2842 112.731L56.0922 114.228C56.2794 114.416 56.2794 114.603 56.0922 114.79L53.6586 116.288C53.4714 116.475 53.097 116.475 52.9098 116.288Z" fill="#F7F7F7"/>
<path fill-rule="evenodd" clip-rule="evenodd" d="M52.161 112.544V112.169H45.7962V112.544C45.7962 112.731 45.9834 112.731 45.9834 112.918L48.7914 114.416C48.9786 114.603 49.353 114.603 49.5402 114.416L51.9738 112.918C52.161 112.731 52.161 112.731 52.161 112.544Z" fill="#D6D6D6"/>
<path fill-rule="evenodd" clip-rule="evenodd" d="M48.7914 114.041L45.9834 112.356C45.7962 112.356 45.7962 112.169 45.9834 111.982L48.417 110.297C48.6042 110.297 48.9786 110.297 49.1658 110.297L51.9738 111.982C52.161 111.982 52.161 112.356 51.9738 112.356L49.5402 114.041C49.353 114.041 48.9786 114.041 48.7914 114.041Z" fill="#F7F7F7"/>
<path fill-rule="evenodd" clip-rule="evenodd" d="M48.0426 110.297L47.8554 109.736H41.6778V110.297L41.865 110.484L44.673 111.982C44.8602 112.169 45.2346 112.169 45.4218 111.982L47.8554 110.484L48.0426 110.297Z" fill="#D6D6D6"/>
<path fill-rule="evenodd" clip-rule="evenodd" d="M44.4858 111.608L41.865 110.11C41.6778 109.923 41.6778 109.736 41.865 109.548L44.2986 108.051C44.4858 107.864 44.8602 107.864 45.0474 108.051L47.8554 109.548C48.0426 109.736 48.0426 109.923 47.8554 110.11L45.4218 111.608C45.0474 111.795 44.8602 111.795 44.4858 111.608Z" fill="#F7F7F7"/>
<path fill-rule="evenodd" clip-rule="evenodd" d="M43.9242 107.864L43.737 107.489H37.5594V107.864C37.5594 108.051 37.7466 108.051 37.7466 108.051L40.5546 109.736C40.7418 109.736 41.1162 109.736 41.3034 109.736L43.737 108.051L43.9242 107.864Z" fill="#D6D6D6"/>
<path fill-rule="evenodd" clip-rule="evenodd" d="M40.3674 109.174L37.7466 107.676C37.5594 107.489 37.5594 107.302 37.7466 107.302L40.1802 105.617C40.3674 105.43 40.7418 105.43 40.929 105.617L43.5498 107.115C43.9242 107.302 43.9242 107.489 43.737 107.676L41.3034 109.174C40.929 109.361 40.7418 109.361 40.3674 109.174Z" fill="#F7F7F7"/>
<path fill-rule="evenodd" clip-rule="evenodd" d="M39.8058 105.43L39.6186 105.056H33.4409V105.43C33.4409 105.617 33.4409 105.617 33.6281 105.804L36.4361 107.302C36.6233 107.489 36.9977 107.489 37.1849 107.302L39.6186 105.804C39.6186 105.617 39.8058 105.617 39.8058 105.43Z" fill="#D6D6D6"/>
<path fill-rule="evenodd" clip-rule="evenodd" d="M36.2489 106.928L33.6281 105.243C33.4409 105.243 33.4409 105.056 33.6281 104.868L36.0617 103.184C36.2489 103.184 36.6233 103.184 36.8105 103.184L39.4313 104.868C39.8058 104.868 39.8058 105.243 39.6185 105.243L36.9977 106.928C36.8105 106.928 36.6233 106.928 36.2489 106.928Z" fill="#F7F7F7"/>
<path fill-rule="evenodd" clip-rule="evenodd" d="M35.5001 103.184V102.622H29.3225V103.184C29.3225 103.184 29.3225 103.371 29.5097 103.371L32.1305 104.868C32.5049 105.056 32.6921 105.056 33.0665 104.868L35.5001 103.371V103.184Z" fill="#D6D6D6"/>
<path fill-rule="evenodd" clip-rule="evenodd" d="M32.1305 104.494L29.5097 102.996C29.3225 102.809 29.3225 102.622 29.5097 102.435L31.9433 100.937C32.1305 100.75 32.5049 100.75 32.6921 100.937L35.3129 102.435C35.6873 102.622 35.6873 102.809 35.5001 102.996L32.8793 104.494C32.6921 104.681 32.3177 104.681 32.1305 104.494Z" fill="#F7F7F7"/>
<path fill-rule="evenodd" clip-rule="evenodd" d="M31.3817 100.75V100.376H25.2041V100.75C25.2041 100.937 25.2041 100.937 25.3913 100.937L28.0121 102.622C28.3865 102.622 28.5737 102.622 28.7609 102.622L31.3817 100.937V100.75Z" fill="#D6D6D6"/>
<path fill-rule="evenodd" clip-rule="evenodd" d="M28.0121 102.06L25.3913 100.563C25.2041 100.376 25.0169 100.188 25.3913 100.188L27.8249 98.5035C28.0121 98.3163 28.3865 98.3163 28.5737 98.5035L31.1945 100.001C31.3817 100.188 31.5689 100.376 31.1945 100.563L28.7609 102.06C28.5737 102.248 28.1993 102.248 28.0121 102.06Z" fill="#F7F7F7"/>
<path fill-rule="evenodd" clip-rule="evenodd" d="M66.9498 125.648V125.273H60.7722V125.648C60.7722 125.835 60.7722 125.835 60.9594 126.022L63.5802 127.52C63.7674 127.52 64.1418 127.52 64.329 127.52L66.7626 125.835C66.9498 125.835 66.9498 125.835 66.9498 125.648Z" fill="#D6D6D6"/>
<path fill-rule="evenodd" clip-rule="evenodd" d="M63.5802 126.958L60.7722 125.46C60.585 125.273 60.585 125.086 60.7722 125.086L63.2058 123.401C63.5802 123.401 63.7674 123.401 64.1418 123.401L66.7626 125.086C66.9498 125.086 66.9498 125.273 66.7626 125.46L64.329 126.958C64.1418 127.145 63.7674 127.145 63.5802 126.958Z" fill="#F7F7F7"/>
<path fill-rule="evenodd" clip-rule="evenodd" d="M62.8314 123.214V122.84H56.4666L56.6538 123.401C56.6538 123.401 56.6538 123.401 56.841 123.588L59.4618 125.086C59.649 125.273 60.0234 125.273 60.2106 125.086L62.6442 123.588C62.8314 123.401 62.8314 123.401 62.8314 123.214Z" fill="#D6D6D6"/>
<path fill-rule="evenodd" clip-rule="evenodd" d="M59.4618 124.712L56.6538 123.027C56.4666 123.027 56.4666 122.84 56.6538 122.652L59.0874 121.155C59.2746 120.968 59.649 120.968 59.8362 121.155L62.6442 122.652C62.8314 122.84 62.8314 123.027 62.6442 123.027L60.2106 124.712C60.0234 124.712 59.649 124.712 59.4618 124.712Z" fill="#F7F7F7"/>
<path fill-rule="evenodd" clip-rule="evenodd" d="M58.713 120.968V120.406L52.3482 120.593L52.5354 120.968C52.5354 120.968 52.5354 121.155 52.7226 121.155L55.3434 122.652C55.5306 122.84 55.905 122.84 56.0922 122.652L58.5258 121.155C58.713 121.155 58.713 120.968 58.713 120.968Z" fill="#D6D6D6"/>
<path fill-rule="evenodd" clip-rule="evenodd" d="M55.3434 122.278L52.5354 120.78C52.3482 120.593 52.3482 120.406 52.5354 120.219L54.969 118.721C55.1562 118.534 55.5306 118.534 55.7178 118.721L58.5258 120.219C58.713 120.406 58.713 120.593 58.5258 120.78L56.0922 122.278C55.905 122.465 55.5306 122.465 55.3434 122.278Z" fill="#F7F7F7"/>
<path fill-rule="evenodd" clip-rule="evenodd" d="M54.5946 118.534V118.16H48.2298L48.417 118.534C48.417 118.721 48.417 118.721 48.417 118.721L51.225 120.406C51.4122 120.406 51.7866 120.406 51.9738 120.406L54.4074 118.721C54.5946 118.721 54.5946 118.721 54.5946 118.534Z" fill="#D6D6D6"/>
<path fill-rule="evenodd" clip-rule="evenodd" d="M51.225 119.844L48.417 118.347C48.2298 118.16 48.2298 117.972 48.417 117.972L50.8506 116.288C51.0378 116.288 51.4122 116.288 51.5994 116.288L54.4074 117.972C54.5946 117.972 54.5946 118.16 54.4074 118.347L51.9738 119.844C51.7866 120.032 51.4122 120.032 51.225 119.844Z" fill="#F7F7F7"/>
<path fill-rule="evenodd" clip-rule="evenodd" d="M50.4762 116.1V115.726H44.1114V116.288C44.1114 116.288 44.2986 116.288 44.2986 116.475L47.1066 117.972C47.2938 118.16 47.6682 118.16 47.8554 117.972L50.289 116.475C50.4762 116.288 50.4762 116.288 50.4762 116.1Z" fill="#D6D6D6"/>
<path fill-rule="evenodd" clip-rule="evenodd" d="M47.1066 117.598L44.2986 115.913C44.1114 115.913 44.1114 115.726 44.2986 115.539L46.7322 114.041C46.9194 113.854 47.2938 113.854 47.481 114.041L50.289 115.539C50.4762 115.726 50.4762 115.913 50.289 115.913L47.8554 117.598C47.6682 117.598 47.2938 117.598 47.1066 117.598Z" fill="#F7F7F7"/>
<path fill-rule="evenodd" clip-rule="evenodd" d="M46.3578 113.854V113.292L39.993 113.48V113.854L40.1802 114.041L42.9882 115.539C43.1754 115.726 43.5498 115.726 43.737 115.539L46.1706 114.041C46.3578 114.041 46.3578 113.854 46.3578 113.854Z" fill="#D6D6D6"/>
<path fill-rule="evenodd" clip-rule="evenodd" d="M42.9882 115.164L40.1802 113.667C39.993 113.48 39.993 113.292 40.1802 113.105L42.6138 111.608C42.801 111.42 43.1754 111.42 43.3626 111.608L46.1706 113.105C46.3578 113.292 46.3578 113.48 46.1706 113.667L43.737 115.164C43.5498 115.352 43.1754 115.352 42.9882 115.164Z" fill="#F7F7F7"/>
<path fill-rule="evenodd" clip-rule="evenodd" d="M42.2394 111.42V111.046H35.8745V111.42C35.8745 111.608 36.0618 111.608 36.0618 111.608L38.8698 113.292C39.057 113.292 39.4314 113.292 39.6186 113.292L42.0522 111.608C42.2394 111.608 42.2394 111.608 42.2394 111.42Z" fill="#D6D6D6"/>
<path fill-rule="evenodd" clip-rule="evenodd" d="M38.8698 112.731L36.0617 111.233C35.8745 111.046 35.8745 110.859 36.0617 110.859L38.4954 109.174C38.6826 109.174 39.057 109.174 39.2442 109.174L42.0522 110.672C42.2394 110.859 42.2394 111.046 42.0522 111.233L39.6186 112.731C39.4314 112.918 39.057 112.918 38.8698 112.731Z" fill="#F7F7F7"/>
<path fill-rule="evenodd" clip-rule="evenodd" d="M38.121 108.987L37.9338 108.612H31.7561V109.174C31.7561 109.174 31.9433 109.174 31.9433 109.361L34.7513 110.859C34.9385 111.046 35.3129 111.046 35.5002 110.859L37.9338 109.361C37.9338 109.174 38.121 109.174 38.121 108.987Z" fill="#D6D6D6"/>
<path fill-rule="evenodd" clip-rule="evenodd" d="M34.5641 110.484L31.9433 108.8C31.7561 108.8 31.7561 108.612 31.9433 108.425L34.3769 106.928C34.5641 106.74 34.9385 106.74 35.1257 106.928L37.9338 108.425C38.121 108.612 38.121 108.8 37.9338 108.8L35.5001 110.484C35.1257 110.484 34.9385 110.484 34.5641 110.484Z" fill="#F7F7F7"/>
<path fill-rule="evenodd" clip-rule="evenodd" d="M34.0025 106.74L33.8153 106.179L27.6377 106.366V106.74L27.8249 106.928L30.6329 108.425C30.8201 108.612 31.1945 108.612 31.3817 108.425L33.8153 106.928L34.0025 106.74Z" fill="#D6D6D6"/>
<path fill-rule="evenodd" clip-rule="evenodd" d="M30.4457 108.051L27.8249 106.553C27.6377 106.366 27.6377 106.179 27.8249 105.992L30.2585 104.494C30.4457 104.307 30.8201 104.307 31.0073 104.494L33.6281 105.992C34.0025 106.179 34.0025 106.366 33.8153 106.553L31.3817 108.051C31.0073 108.238 30.8201 108.238 30.4457 108.051Z" fill="#F7F7F7"/>
<path fill-rule="evenodd" clip-rule="evenodd" d="M29.8841 104.307L29.6969 103.932H23.5193V104.307C23.5193 104.494 23.5193 104.494 23.7065 104.494L26.5145 106.179C26.7017 106.179 27.0761 106.179 27.2633 106.179L29.6969 104.494C29.6969 104.494 29.8841 104.494 29.8841 104.307Z" fill="#D6D6D6"/>
<path fill-rule="evenodd" clip-rule="evenodd" d="M26.3273 105.617L23.7065 104.12C23.5193 103.932 23.5193 103.745 23.7065 103.745L26.1401 102.06C26.3273 102.06 26.7017 101.873 26.8889 102.06L29.5097 103.558C29.8841 103.745 29.8841 103.932 29.6969 104.12L27.0761 105.617C26.8889 105.804 26.7017 105.804 26.3273 105.617Z" fill="#F7F7F7"/>
<path fill-rule="evenodd" clip-rule="evenodd" d="M61.1466 126.958V126.396H54.969V126.958C54.969 126.958 54.969 127.145 55.1562 127.145L57.777 128.643C57.9642 128.83 58.3386 128.83 58.5258 128.643L60.9594 127.145C61.1466 126.958 61.1466 126.958 61.1466 126.958Z" fill="#D6D6D6"/>
<path fill-rule="evenodd" clip-rule="evenodd" d="M57.777 128.268L55.1562 126.771C54.7818 126.584 54.7818 126.396 54.969 126.209L57.5898 124.712C57.777 124.524 57.9642 124.524 58.3386 124.712L60.9594 126.209C61.1466 126.396 61.1466 126.584 60.9594 126.584L58.5258 128.268C58.3386 128.456 57.9642 128.456 57.777 128.268Z" fill="#F7F7F7"/>
<path fill-rule="evenodd" clip-rule="evenodd" d="M57.0282 124.524V124.15H50.8506V124.524C50.8506 124.524 50.8506 124.712 51.0378 124.712L53.6586 126.396C53.8458 126.396 54.2202 126.396 54.4074 126.396L56.841 124.712C57.0282 124.712 57.0282 124.524 57.0282 124.524Z" fill="#D6D6D6"/>
<path fill-rule="evenodd" clip-rule="evenodd" d="M53.6586 125.835L50.8506 124.337C50.6634 124.15 50.6634 123.963 50.8506 123.776L53.2842 122.278C53.6586 122.091 53.8458 122.091 54.2202 122.278L56.841 123.776C57.0282 123.963 57.0282 124.15 56.841 124.337L54.4074 125.835C54.2202 126.022 53.8458 126.022 53.6586 125.835Z" fill="#F7F7F7"/>
<path fill-rule="evenodd" clip-rule="evenodd" d="M52.9098 122.091V121.716H46.545L46.7322 122.091C46.7322 122.278 46.7322 122.278 46.9194 122.465L49.5402 123.963C49.7274 124.15 50.1018 124.15 50.289 123.963L52.7226 122.278C52.9098 122.278 52.9098 122.278 52.9098 122.091Z" fill="#D6D6D6"/>
<path fill-rule="evenodd" clip-rule="evenodd" d="M49.5402 123.588L46.7322 121.904C46.545 121.904 46.545 121.529 46.7322 121.529L49.1658 119.844C49.353 119.844 49.7274 119.844 49.9146 119.844L52.7226 121.529C52.9098 121.529 52.9098 121.716 52.7226 121.904L50.289 123.588C50.1018 123.588 49.7274 123.588 49.5402 123.588Z" fill="#F7F7F7"/>
<path fill-rule="evenodd" clip-rule="evenodd" d="M48.7914 119.844V119.283H42.4266L42.6138 119.844C42.6138 119.844 42.6138 120.032 42.801 120.032L45.4218 121.529C45.609 121.716 45.9834 121.716 46.1706 121.529L48.6042 120.032C48.7914 119.844 48.7914 119.844 48.7914 119.844Z" fill="#D6D6D6"/>
<path fill-rule="evenodd" clip-rule="evenodd" d="M45.4218 121.155L42.6138 119.657C42.4266 119.47 42.4266 119.283 42.6138 119.096L45.0474 117.598C45.2346 117.411 45.609 117.411 45.7962 117.598L48.6042 119.096C48.7914 119.283 48.7914 119.47 48.6042 119.47L46.1706 121.155C45.9834 121.342 45.609 121.342 45.4218 121.155Z" fill="#F7F7F7"/>
<path fill-rule="evenodd" clip-rule="evenodd" d="M44.673 117.411V117.036H38.3082L38.4954 117.411V117.598L41.3034 119.283C41.4906 119.283 41.865 119.283 42.0522 119.283L44.4858 117.598C44.673 117.598 44.673 117.411 44.673 117.411Z" fill="#D6D6D6"/>
<path fill-rule="evenodd" clip-rule="evenodd" d="M41.3034 118.721L38.4954 117.224C38.3082 117.036 38.3082 116.849 38.4954 116.662L40.929 115.164C41.1162 114.977 41.4906 114.977 41.6778 115.164L44.4858 116.662C44.673 116.849 44.673 117.036 44.4858 117.224L42.0522 118.721C41.865 118.908 41.4906 118.908 41.3034 118.721Z" fill="#F7F7F7"/>
<path fill-rule="evenodd" clip-rule="evenodd" d="M40.5546 114.977V114.603H34.1898V114.977C34.1898 115.164 34.377 115.164 34.377 115.352L37.185 116.849C37.3722 117.036 37.7466 117.036 37.9338 116.849L40.3674 115.164C40.5546 115.164 40.5546 115.164 40.5546 114.977Z" fill="#D6D6D6"/>
<path fill-rule="evenodd" clip-rule="evenodd" d="M37.185 116.475L34.3769 114.79C34.1897 114.79 34.1897 114.416 34.3769 114.416L36.8106 112.731C36.9978 112.731 37.3722 112.731 37.5594 112.731L40.3674 114.416C40.5546 114.416 40.5546 114.603 40.3674 114.79L37.9338 116.475C37.7466 116.475 37.3722 116.475 37.185 116.475Z" fill="#F7F7F7"/>
<path fill-rule="evenodd" clip-rule="evenodd" d="M36.4361 112.731V112.169H30.0713V112.731L30.2585 112.918L33.0665 114.416C33.2537 114.603 33.6281 114.603 33.8153 114.416L36.2489 112.918C36.4361 112.731 36.4361 112.731 36.4361 112.731Z" fill="#D6D6D6"/>
<path fill-rule="evenodd" clip-rule="evenodd" d="M33.0665 114.041L30.2585 112.544C30.0713 112.356 30.0713 112.169 30.2585 111.982L32.6921 110.484C32.8793 110.297 33.2537 110.297 33.4409 110.484L36.2489 111.982C36.4361 112.169 36.4361 112.356 36.2489 112.356L33.8153 114.041C33.6281 114.228 33.2537 114.228 33.0665 114.041Z" fill="#F7F7F7"/>
<path fill-rule="evenodd" clip-rule="evenodd" d="M32.3177 110.297V109.736L25.9529 109.923V110.297L26.1401 110.484L28.9481 112.169C29.1353 112.169 29.5097 112.169 29.6969 112.169L32.1305 110.484C32.3177 110.484 32.3177 110.297 32.3177 110.297Z" fill="#D6D6D6"/>
<path fill-rule="evenodd" clip-rule="evenodd" d="M28.9481 111.608L26.1401 110.11C25.9529 109.923 25.9529 109.736 26.1401 109.548L28.5737 108.051C28.7609 107.864 29.1353 107.864 29.3225 108.051L32.1305 109.548C32.3177 109.736 32.3177 109.923 32.1305 110.11L29.6969 111.608C29.5097 111.795 29.1353 111.795 28.9481 111.608Z" fill="#F7F7F7"/>
<path fill-rule="evenodd" clip-rule="evenodd" d="M28.1993 107.864L28.0121 107.489H21.8345V107.864C21.8345 108.051 22.0217 108.051 22.0217 108.238L24.8297 109.736C25.0169 109.923 25.3913 109.923 25.5785 109.736L28.0121 108.051C28.0121 108.051 28.1993 108.051 28.1993 107.864Z" fill="#D6D6D6"/>
<path fill-rule="evenodd" clip-rule="evenodd" d="M24.6425 109.361L22.0217 107.676C21.8345 107.676 21.8345 107.302 22.0217 107.302L24.4553 105.617C24.6425 105.617 25.0169 105.617 25.2041 105.617L28.0121 107.302C28.1993 107.302 28.1993 107.489 28.0121 107.676L25.5785 109.361C25.2041 109.361 25.0169 109.361 24.6425 109.361Z" fill="#F7F7F7"/>
<path fill-rule="evenodd" clip-rule="evenodd" d="M24.0809 105.617L23.8937 105.056H17.7161V105.617L17.9033 105.804L20.7113 107.302C20.8985 107.489 21.2729 107.489 21.4601 107.302L23.8937 105.804C23.8937 105.617 24.0809 105.617 24.0809 105.617Z" fill="#D6D6D6"/>
<path fill-rule="evenodd" clip-rule="evenodd" d="M20.5241 106.928L17.9033 105.43C17.7161 105.243 17.7161 105.056 17.9033 104.868L20.3369 103.371C20.5241 103.184 20.8985 103.184 21.0857 103.371L23.7065 104.868C24.0809 105.056 24.0809 105.243 23.8937 105.243L21.4601 106.928C21.0857 107.115 20.8985 107.115 20.5241 106.928Z" fill="#F7F7F7"/>
<path fill-rule="evenodd" clip-rule="evenodd" d="M99.7099 148.299C98.9611 148.299 98.2123 148.112 97.6507 147.737L92.0347 144.555C90.9115 143.806 90.9115 142.683 92.0347 141.934L95.2171 140.249C93.9067 141.185 92.9707 141.747 92.7835 142.496C92.7835 142.308 92.7835 142.308 92.7835 142.308V142.496C92.5963 142.683 92.5963 142.683 92.5963 142.87C92.5963 143.432 92.7835 143.993 93.3451 144.18L96.5275 146.052C97.0891 146.427 97.8379 146.614 98.3995 146.614H98.5867L98.7739 146.801L99.1483 146.988C99.1483 146.988 99.3355 146.988 99.5227 146.988C99.5227 146.988 99.5227 146.988 99.7099 146.988V146.801V146.988C99.7099 146.988 99.8971 146.988 100.084 146.988L114.499 138.752C114.873 138.564 114.873 138.377 114.873 138.003V137.816C115.06 137.816 115.248 137.628 115.248 137.441H115.435C116.558 138.19 116.558 139.313 115.435 140.062L101.956 147.737C101.395 148.112 100.646 148.299 99.7099 148.299Z" fill="#E5E5E5"/>
<path fill-rule="evenodd" clip-rule="evenodd" d="M115.06 136.505C115.248 136.692 115.248 137.067 114.873 137.254L110.568 138.939C108.883 139.5 107.198 140.436 105.7 141.56L100.646 145.304C99.5227 146.052 97.8379 146.24 96.5275 145.491L93.3451 143.619C92.7835 143.244 92.5963 142.683 92.7835 142.308C92.4091 143.057 92.5963 143.806 93.3451 144.18L96.5275 146.052C97.8379 146.801 99.5227 146.801 100.646 145.865L105.7 142.121C107.198 140.998 108.883 140.062 110.568 139.5L114.873 137.816C115.435 137.628 115.622 136.692 115.06 136.505Z" fill="#C7C7C7"/>
<path fill-rule="evenodd" clip-rule="evenodd" d="M114.873 137.254L110.568 138.939C108.883 139.5 107.198 140.436 105.7 141.56L100.646 145.304C99.5227 146.052 97.8379 146.24 96.5275 145.491L93.3451 143.619C91.2859 142.496 94.2811 140.998 98.7739 137.628C100.833 136.131 107.947 132.387 110.193 133.697L114.873 136.318C115.248 136.692 115.248 137.067 114.873 137.254Z" fill="#EDEDED"/>
<path fill-rule="evenodd" clip-rule="evenodd" d="M98.3995 146.614L99.1483 146.988C99.3355 146.988 99.5227 146.988 99.7099 146.988V146.427C99.3355 146.427 98.7739 146.614 98.3995 146.614Z" fill="#737373"/>
<path fill-rule="evenodd" clip-rule="evenodd" d="M114.873 137.816L110.568 139.5C108.883 140.062 107.198 140.998 105.7 142.121L100.646 145.865C100.459 146.052 100.084 146.24 99.7099 146.427V146.988C99.7099 146.988 99.8971 146.988 100.084 146.988L114.499 138.752C114.873 138.564 114.873 138.377 114.873 138.003V137.816Z" fill="#808080"/>
<path fill-rule="evenodd" clip-rule="evenodd" d="M98.7739 146.801L98.5867 146.614L98.7739 146.801Z" fill="#C3C3C3"/>
<path fill-rule="evenodd" clip-rule="evenodd" d="M99.3355 146.988C99.1483 146.988 98.9611 146.801 98.7739 146.801L98.5867 146.614C98.3995 146.614 98.3995 146.614 98.3995 146.614C98.7739 146.614 99.3355 146.427 99.7099 146.427V146.801C99.5227 146.801 99.3355 146.988 99.3355 146.988Z" fill="#626262"/>
<path fill-rule="evenodd" clip-rule="evenodd" d="M99.7099 146.801V146.427C100.084 146.24 100.459 146.052 100.646 145.865L105.7 142.121C107.198 140.998 108.883 140.062 110.568 139.5L114.873 137.816V138.003L110.755 139.688C109.07 140.249 107.385 141.185 105.887 142.308L101.02 146.052C100.646 146.24 100.084 146.614 99.7099 146.801Z" fill="#6D6D6D"/>
<path fill-rule="evenodd" clip-rule="evenodd" d="M112.252 134.82C110.38 135.195 107.76 136.131 106.075 137.067V137.254H106.262C107.947 136.318 110.568 135.195 112.44 135.008L112.252 134.82Z" fill="#B8B8B8"/>
<path fill-rule="evenodd" clip-rule="evenodd" d="M106.075 137.254H106.262C107.947 136.318 110.568 135.195 112.44 135.008C110.38 135.195 107.76 136.318 106.075 137.254Z" fill="white"/>
<path fill-rule="evenodd" clip-rule="evenodd" d="M60.2106 64.2458L67.3242 68.177C69.1962 69.3002 72.1914 69.3002 73.8762 68.177C74.8122 67.8026 75.3738 67.0538 75.3738 66.305V76.6011C75.3738 77.1627 74.8122 77.9115 73.8762 78.4731C72.1914 79.4091 69.1962 79.4091 67.3242 78.4731L60.2106 74.3547C59.4618 73.7931 58.9002 73.0443 58.9002 72.4827V62.1866C58.9002 62.9354 59.4618 63.6842 60.2106 64.2458Z" fill="#3E4651"/>
<path fill-rule="evenodd" clip-rule="evenodd" d="M66.7626 60.3146L73.8762 64.4331C75.7482 65.5563 75.7482 67.2411 73.8762 68.1771C72.1914 69.3003 69.1962 69.3003 67.3242 68.1771L60.2106 64.2459C58.5258 63.1226 58.5258 61.4378 60.2106 60.3146C62.0826 59.3786 65.0778 59.3786 66.7626 60.3146Z" fill="#5C6D7F"/>
<path fill-rule="evenodd" clip-rule="evenodd" d="M60.9594 56.3834C60.9594 54.5114 61.8954 52.8266 63.5802 51.8906C65.265 50.9546 67.137 50.9546 68.6346 51.8906C71.4426 53.5754 73.1274 56.5706 73.1274 59.753V66.305C73.1274 66.6794 72.9402 67.0538 72.3786 67.4282C71.4426 67.9898 69.945 67.9898 68.8218 67.4282C68.4474 67.0538 68.073 66.6794 68.073 66.305V59.753C68.073 58.4426 67.3242 57.1322 66.201 56.3834V62.1866C66.201 62.561 65.8266 62.9354 65.4522 63.3098C64.329 63.8714 62.8314 63.8714 61.7082 63.3098C61.3338 62.9354 60.9594 62.561 60.9594 62.1866V56.3834Z" fill="#F5B659"/>
<path fill-rule="evenodd" clip-rule="evenodd" d="M63.9546 57.6938C63.9546 56.5706 65.265 55.8218 66.201 56.3834V62.1866C66.201 62.561 65.8266 62.9354 65.4522 63.3098C65.0778 63.497 64.5162 63.6842 63.9546 63.6842V57.6938Z" fill="#E69245"/>
<path fill-rule="evenodd" clip-rule="evenodd" d="M61.521 69.4874L62.457 68.5514V70.049V71.5466H61.521L61.1466 70.7978L61.521 69.4874Z" fill="#E69245"/>
<path fill-rule="evenodd" clip-rule="evenodd" d="M60.0234 68.7386L60.9594 67.6154L62.457 68.5514L61.521 69.4874L61.1466 70.7978L61.521 71.5466L60.0234 70.6106L59.649 70.049L60.0234 68.7386Z" fill="#F5C959"/>
<path fill-rule="evenodd" clip-rule="evenodd" d="M61.1466 70.7978L59.649 70.049L60.0234 70.6106L61.521 71.5466L61.1466 70.7978Z" fill="#F5B659"/>
<path fill-rule="evenodd" clip-rule="evenodd" d="M63.9546 70.7978L64.8906 69.8618V71.3595V73.0443L63.9546 72.8571L63.393 72.2955L63.9546 70.7978Z" fill="#E69245"/>
<path fill-rule="evenodd" clip-rule="evenodd" d="M62.2698 70.049L63.393 68.9258L64.8906 69.8618L63.9546 70.7978L63.393 72.2954L63.9546 72.857L62.2698 71.921L61.8954 71.3594L62.2698 70.049Z" fill="#F5C959"/>
<path fill-rule="evenodd" clip-rule="evenodd" d="M63.393 72.2955L61.8954 71.3595L62.2698 71.9211L63.9546 72.8571L63.393 72.2955Z" fill="#F5B659"/>
<path fill-rule="evenodd" clip-rule="evenodd" d="M66.201 72.2954L67.137 71.1722V72.857V74.3546L66.201 74.1674L65.8266 73.6058L66.201 72.2954Z" fill="#E69245"/>
<path fill-rule="evenodd" clip-rule="evenodd" d="M64.7034 71.3594L65.6394 70.2362L67.137 71.1722L66.201 72.2954L65.8266 73.6058L66.201 74.1674L64.7034 73.2314L64.329 72.6698L64.7034 71.3594Z" fill="#F5C959"/>
<path fill-rule="evenodd" clip-rule="evenodd" d="M65.8266 73.6059L64.329 72.6699L64.7034 73.2315L66.201 74.1675L65.8266 73.6059Z" fill="#F5B659"/>
<path fill-rule="evenodd" clip-rule="evenodd" d="M69.5706 79.0347V68.9258C70.5066 69.113 71.817 69.113 72.753 68.7386V78.8475C71.817 79.2219 70.5066 79.2219 69.5706 79.0347Z" fill="#4A5461"/>
<path fill-rule="evenodd" clip-rule="evenodd" d="M73.1274 78.8475V68.5514C73.5018 68.5514 73.689 68.3642 73.8762 68.177C74.2506 68.177 74.4378 67.9898 74.625 67.8026V78.0987C74.4378 78.0987 74.2506 78.2859 73.8762 78.4731C73.689 78.4731 73.5018 78.6603 73.1274 78.8475Z" fill="#4A5461"/>
<path fill-rule="evenodd" clip-rule="evenodd" d="M71.4426 65.369C71.817 65.369 72.1914 64.9946 72.1914 64.433V59.753C72.1914 59.3786 71.817 59.0042 71.4426 59.0042C70.881 59.0042 70.5066 59.3786 70.5066 59.753V64.433C70.5066 64.9946 70.881 65.369 71.4426 65.369Z" fill="#F5C959"/>
<path fill-rule="evenodd" clip-rule="evenodd" d="M70.3194 57.1322C70.5066 57.1322 70.6938 57.1322 70.6938 56.945C71.2554 56.7578 71.2554 56.1962 71.0682 55.8218C70.3194 54.8858 69.5706 54.137 68.6346 53.5754C68.2602 53.201 67.6986 53.3882 67.5114 53.7626C67.137 54.3242 67.3242 54.8858 67.6986 55.073C68.4474 55.4474 69.009 56.009 69.5706 56.7578C69.7578 56.945 69.945 57.1322 70.3194 57.1322Z" fill="#F5C959"/>
<path fill-rule="evenodd" clip-rule="evenodd" d="M104.016 84.0891L86.6059 73.9803V76.0395L85.8571 75.8523L83.7979 66.6794L104.016 78.2859V84.0891Z" fill="white"/>
<path fill-rule="evenodd" clip-rule="evenodd" d="M104.016 72.8571L86.6059 62.5611V60.689L85.8571 59.9402L83.7979 66.8667L104.016 78.6603V72.8571Z" fill="white"/>
<path fill-rule="evenodd" clip-rule="evenodd" d="M31.5689 47.9594L49.7274 58.4426V56.5706L50.4762 56.7578L52.3482 65.9307L31.5689 53.7626V47.9594Z" fill="white"/>
<path fill-rule="evenodd" clip-rule="evenodd" d="M31.5689 59.1915L49.7274 69.8619V71.9211L50.4762 72.4827L52.3482 65.7435L31.5689 53.3882V59.1915Z" fill="white"/>
</svg>
