<svg width="120" height="162" viewBox="0 0 120 162" fill="none" xmlns="http://www.w3.org/2000/svg">
<path opacity="0.1" d="M34.75 140.503L45.5 135.253L54.25 133.003L86 140.503L99.75 147.003L72.375 161.878L34.75 140.503Z" fill="black"/>
<path opacity="0.1" fill-rule="evenodd" clip-rule="evenodd" d="M21.7058 114.254C28.3878 114.254 33.7529 117.819 33.7529 122.202C33.7529 126.586 28.3878 130.151 21.7058 130.151C15.0726 130.151 9.70752 126.586 9.70752 122.202C9.70752 117.819 15.0726 114.254 21.7058 114.254Z" fill="black"/>
<path opacity="0.1" fill-rule="evenodd" clip-rule="evenodd" d="M33.0701 103.03C41.9469 103.03 49.1654 107.799 49.1654 113.676C49.1654 119.553 41.9469 124.322 33.0701 124.322C24.1933 124.322 16.9748 119.553 16.9748 113.676C16.9748 107.799 24.1933 103.03 33.0701 103.03Z" fill="black"/>
<path opacity="0.1" fill-rule="evenodd" clip-rule="evenodd" d="M86.6724 118.108C81.5511 118.108 76.4299 117 72.528 114.784C64.7242 110.304 64.7242 103.078 72.528 98.6463C74.9179 97.2975 77.698 96.3341 80.722 95.8042C81.1609 95.8524 81.6487 95.9006 82.0876 95.9006C83.307 95.9006 84.5751 95.7079 85.5506 95.3225C85.9408 95.2743 86.2822 95.2743 86.6724 95.2743C87.4527 95.2743 88.2819 95.3225 89.0623 95.3707C89.1111 95.5152 89.1111 95.6597 89.1111 95.8042C89.3061 97.4902 89.5012 99.0317 89.7451 100.381C89.9402 101.633 90.2328 102.693 90.5255 103.415C90.6718 103.849 91.2083 104.186 91.9399 104.331L92.0862 106.595C92.0862 106.595 90.9157 108.618 86.9162 111.364C85.6969 112.183 85.5993 115.458 89.4037 115.458C90.9157 115.458 95.2565 113.676 97.744 112.134C98.0366 111.942 98.2805 111.749 98.5244 111.604C99.0609 111.219 99.4023 110.834 99.5486 110.593C99.5486 109.87 99.4998 109.196 99.4023 108.618C99.3047 107.654 99.0609 106.835 98.7195 106.257L98.5244 104.523L98.4268 103.415C99.2072 102.934 99.7437 102.259 99.7437 101.537C99.6949 100.332 99.6462 99.1762 99.5974 98.0201C100.036 98.2128 100.427 98.4055 100.817 98.6463C108.621 103.078 108.621 110.304 100.817 114.784C96.9148 117 91.7936 118.108 86.6724 118.108Z" fill="black"/>
<path fill-rule="evenodd" clip-rule="evenodd" d="M65.5046 41.4668C70.9672 37.7575 72.089 38.2393 77.5029 32.9886C78.7222 31.5434 79.6489 30.3391 80.5269 29.0385C81.9901 26.9671 83.4045 24.7512 85.5993 21.2347C89.9402 14.6834 82.9168 11.5522 78.0394 17.0438C76.0885 19.2597 73.6498 24.0768 71.1135 28.6531C65.8948 33.663 70.1381 30.6763 62.3343 38.1911C61.31 39.6844 64.334 42.3338 65.5046 41.4668Z" fill="#1D9F3A"/>
<path fill-rule="evenodd" clip-rule="evenodd" d="M65.5046 41.4667C65.9436 38.9618 74.0888 35.8788 74.5277 33.3257C74.674 32.6032 77.5517 26.1963 78.3808 24.2213C78.2345 26.1482 78.1858 28.1714 78.1858 30.2428C78.1858 30.869 78.1858 31.4952 78.2345 32.1214C77.9907 32.4105 77.7468 32.6995 77.5029 32.9885C72.089 38.2392 70.9672 37.7575 65.5046 41.4667Z" fill="#148B2E"/>
<path fill-rule="evenodd" clip-rule="evenodd" d="M85.9408 93.3956L86.331 97.153C86.9162 98.1646 87.1113 99.7542 87.1601 101.488C86.5261 102.982 79.0149 106.402 76.9664 106.354C73.2108 106.354 73.3084 103.078 74.5277 102.259C78.5272 99.5134 79.6977 97.4902 79.6977 97.4902L79.4051 93.3956H85.9408Z" fill="#1E1D1F"/>
<path fill-rule="evenodd" clip-rule="evenodd" d="M79.5514 52.5943L77.7956 69.7916C77.698 73.1636 77.5517 76.6801 77.4542 79.9558C77.4542 80.8229 77.4054 81.6899 77.4054 82.557C77.4054 83.0387 77.4054 83.5205 77.4054 84.0503C77.3566 84.9656 77.3566 85.8327 77.3566 86.6998C77.3566 90.1681 77.5517 92.9139 77.9419 94.4072C78.5272 96.5268 87.0138 96.5268 87.3552 93.4438C87.5015 91.5169 87.5991 89.5901 87.6966 87.6632C87.7454 86.8443 87.7942 86.0735 87.7942 85.3028C87.8429 84.6766 87.8429 84.0985 87.8917 83.5205C87.8917 82.7497 87.8917 81.979 87.8917 81.2082C87.9405 77.4508 87.6966 74.0307 87.0626 71.2849C88.6233 65.7452 89.3549 60.35 89.4037 55.0993L79.5514 52.5943Z" fill="#232246"/>
<path fill-rule="evenodd" clip-rule="evenodd" d="M79.5514 52.5943L77.7956 69.7916C77.698 73.1636 77.5517 76.6801 77.4542 79.9558C77.4542 80.8229 77.4054 81.6899 77.4054 82.557C77.4054 83.0387 77.4054 83.5205 77.4054 84.0503C77.3566 84.9656 77.3566 85.8327 77.3566 86.6998C77.3566 90.1681 77.5517 92.9139 77.9419 94.4072C78.5272 96.5268 87.0138 96.5268 87.3552 93.4438C87.5015 91.5169 87.5991 89.5901 87.6966 87.6632C87.7454 86.8443 87.7942 86.0735 87.7942 85.3028C87.8429 84.6766 87.8429 84.0985 87.8917 83.5205C87.8917 82.7497 87.8917 81.979 87.8917 81.2082C87.9405 77.4508 87.6966 74.0307 87.0626 71.2849C88.6233 65.7452 89.3549 60.35 89.4037 55.0993L79.5514 52.5943Z" fill="#148B2E"/>
<path fill-rule="evenodd" clip-rule="evenodd" d="M89.4037 115.458C90.8669 115.458 95.2078 113.676 97.744 112.134C98.6707 111.508 99.3535 110.978 99.5486 110.593C99.4998 108.811 99.3048 107.269 98.7195 106.209L98.4268 103.415L98.3293 102.5H91.7936L91.9399 104.331L92.0863 106.595C92.0863 106.595 90.9157 108.618 86.9162 111.364C85.6969 112.183 85.5994 115.458 89.4037 115.458Z" fill="#1E1D1F"/>
<path fill-rule="evenodd" clip-rule="evenodd" d="M79.21 55.3883C79.649 58.6158 82.0876 60.2536 85.1604 61.2652L87.7942 78.9442C88.038 82.3162 88.2819 85.8327 88.5258 89.0602C88.5745 89.9755 88.6721 90.8425 88.7209 91.6615C88.7696 92.1432 88.8184 92.6731 88.8672 93.1548C88.916 94.07 89.0135 94.9371 89.1111 95.8042C89.3061 97.4902 89.5012 99.0317 89.7451 100.381C89.9402 101.633 90.2328 102.693 90.5255 103.415C90.6718 103.849 91.2083 104.186 91.9399 104.331C93.2568 104.668 95.3053 104.571 96.9148 104.042C97.5001 103.849 97.9879 103.656 98.3781 103.415C99.2072 102.934 99.7437 102.259 99.7437 101.537C99.6949 99.5616 99.5974 97.6347 99.4998 95.7079C99.4511 94.9371 99.4023 94.1182 99.3535 93.3475C99.3535 92.7694 99.256 92.1432 99.256 91.6133C99.1584 90.7944 99.1097 90.0236 99.0121 89.3011C98.6707 85.5437 98.1342 82.1717 97.1587 79.5222C98.1342 73.838 97.6952 67.7202 97.1587 62.5177C97.9391 60.1573 98.3293 57.1707 97.8903 53.8468C97.7928 53.2688 97.6952 52.6907 97.5977 52.1126L97.305 52.0645L96.7685 51.92L94.3298 51.2937L80.4293 47.8735L79.649 47.6809L79.3563 47.5845C79.3563 48.1626 79.3075 48.7406 79.3075 49.3187C79.2588 51.2456 79.3075 53.1242 79.21 55.3883Z" fill="#1D9F3A"/>
<path fill-rule="evenodd" clip-rule="evenodd" d="M79.2588 49.1742L79.3076 49.3187C80.2343 52.0163 87.5503 54.7621 92.9154 54.9548C95.0614 55.0511 96.8661 54.7139 97.8903 53.8468C97.9391 53.2688 97.8903 51.8718 97.8903 51.5346V51.4382C97.5489 51.6309 97.2075 51.7754 96.7685 51.92C95.9394 52.1608 94.9151 52.3535 93.8421 52.3535C89.4037 52.498 83.5509 50.7157 80.4293 47.8736C79.9904 47.4882 79.6002 47.0546 79.3076 46.6211L79.2588 47.0065C79.21 47.8736 79.3076 48.4998 79.2588 49.1742Z" fill="#663C1E"/>
<path fill-rule="evenodd" clip-rule="evenodd" d="M78.9662 45.7058C78.9662 46.1393 79.0637 46.5729 79.2588 47.0064C79.3563 47.2473 79.5027 47.4881 79.649 47.6808C81.9413 50.7638 89.1111 52.5943 93.647 52.6907C94.4274 52.6907 95.1102 52.6425 95.7443 52.5943C96.4271 52.4498 96.9149 52.3053 97.3051 52.0644C97.5489 51.9199 97.744 51.7272 97.8903 51.5345C98.5244 50.7638 98.7195 49.5595 98.9634 47.729C99.2072 45.2723 99.4511 43.0564 99.6462 41.0332C100.524 31.4952 100.573 26.0518 100.329 24.0286C98.2805 21.62 94.6713 19.067 91.6961 17.1883C87.6479 15.4059 83.9898 14.298 81.8438 14.5388C75.991 15.2132 78.9662 45.7058 78.9662 45.7058Z" fill="#533AAB"/>
<path fill-rule="evenodd" clip-rule="evenodd" d="M78.9662 45.7058C78.9662 46.1393 79.0637 46.5729 79.2588 47.0064C79.3563 47.2473 79.5027 47.4881 79.649 47.6808C81.9413 50.7638 89.1111 52.5943 93.647 52.6907C94.4274 52.6907 95.1102 52.6425 95.7443 52.5943C96.4271 52.4498 96.9149 52.3053 97.3051 52.0644C97.5489 51.9199 97.744 51.7272 97.8903 51.5345C98.5244 50.7638 98.7195 49.5595 98.9634 47.729C99.2072 45.2723 99.4511 43.0564 99.6462 41.0332C100.524 31.4952 100.573 26.0518 100.329 24.0286C98.2805 21.62 94.6713 19.067 91.6961 17.1883C87.6479 15.4059 83.9898 14.298 81.8438 14.5388C75.991 15.2132 78.9662 45.7058 78.9662 45.7058Z" fill="#533AAB"/>
<path fill-rule="evenodd" clip-rule="evenodd" d="M78.9662 45.7058C78.9662 46.1393 79.0637 46.5729 79.2588 47.0064C79.3563 47.2473 79.5027 47.4881 79.649 47.6808C81.9413 50.7638 89.1111 52.5943 93.647 52.6907C94.4274 52.6907 95.1102 52.6425 95.7443 52.5943C96.4271 52.4498 96.9149 52.3053 97.3051 52.0644C97.5489 51.9199 97.744 51.7272 97.8903 51.5345C98.5244 50.7638 98.7195 49.5595 98.9634 47.729C99.2072 45.2723 99.4511 43.0564 99.6462 41.0332C100.524 31.4952 100.573 26.0518 100.329 24.0286C98.2805 21.62 94.6713 19.067 91.6961 17.1883C87.6479 15.4059 83.9898 14.298 81.8438 14.5388C75.991 15.2132 78.9662 45.7058 78.9662 45.7058Z" fill="#323065"/>
<path fill-rule="evenodd" clip-rule="evenodd" d="M78.9662 45.7058C78.9662 46.1393 79.0637 46.5729 79.2588 47.0064C79.3563 47.2473 79.5027 47.4881 79.649 47.6808C81.9413 50.7638 89.1111 52.5943 93.647 52.6907C94.4274 52.6907 95.1102 52.6425 95.7443 52.5943C96.4271 52.4498 96.9149 52.3053 97.3051 52.0644C97.5489 51.9199 97.744 51.7272 97.8903 51.5345C98.5244 50.7638 98.7195 49.5595 98.9634 47.729C99.2072 45.2723 99.4511 43.0564 99.6462 41.0332C100.524 31.4952 100.573 26.0518 100.329 24.0286C98.2805 21.62 94.6713 19.067 91.6961 17.1883C87.6479 15.4059 83.9898 14.298 81.8438 14.5388C75.991 15.2132 78.9662 45.7058 78.9662 45.7058Z" fill="#1D9F3A"/>
<path fill-rule="evenodd" clip-rule="evenodd" d="M97.744 112.134C98.0366 111.942 98.2805 111.749 98.5244 111.604C98.2805 111.749 98.0366 111.942 97.744 112.134ZM99.4023 108.618C99.256 107.654 99.0609 106.835 98.7195 106.209L98.5244 104.523L98.7195 106.257C99.0609 106.835 99.3047 107.654 99.4023 108.618Z" fill="#3A8B97"/>
<path fill-rule="evenodd" clip-rule="evenodd" d="M97.744 112.134C97.2562 109.437 96.9636 106.739 96.9148 104.041C97.5001 103.849 97.9879 103.656 98.378 103.415C98.4268 103.415 98.4268 103.415 98.4268 103.415C98.4268 103.415 98.4268 103.415 98.378 103.415L98.5244 104.523L98.7195 106.209C99.0609 106.835 99.256 107.654 99.4023 108.618C99.4998 109.196 99.5486 109.87 99.5486 110.593C99.4023 110.834 99.0609 111.219 98.5244 111.604C98.2805 111.749 98.0366 111.942 97.744 112.134Z" fill="#08080A"/>
<path fill-rule="evenodd" clip-rule="evenodd" d="M96.9148 104.042V102.5C96.9636 101.392 97.0612 100.284 97.1587 99.128C97.305 97.5384 97.5489 95.9487 97.5489 94.3109C97.5977 89.7346 95.9394 85.3028 94.1835 81.0155C93.8421 80.1966 93.4519 79.3295 93.4031 78.4143C93.3056 77.788 93.4031 77.1136 93.5007 76.5356C93.9397 73.0672 95.9394 60.3981 91.1596 54.8102C91.7448 54.9066 92.3301 54.9547 92.9154 54.9547C93.1105 54.9547 93.3056 54.9547 93.5007 54.9547C95.3541 54.9547 96.9636 54.6175 97.8903 53.8468C98.0366 54.8102 98.0854 55.7255 98.0854 56.6407C98.0854 58.8566 97.744 60.8317 97.1587 62.5177C97.4514 65.4561 97.744 68.7318 97.744 72.0556C97.744 74.5606 97.5489 77.0655 97.1587 79.5222C98.1342 82.1716 98.6707 85.5437 99.0121 89.301C99.1097 90.0236 99.1584 90.7943 99.256 91.6133C99.256 92.1432 99.3535 92.7694 99.3535 93.3474C99.4023 94.1182 99.4511 94.9371 99.4999 95.7078C99.5974 97.6347 99.6949 99.5616 99.7437 101.537C99.7437 102.259 99.2072 102.934 98.4268 103.415C98.4268 103.415 98.4268 103.415 98.3781 103.415C97.9879 103.656 97.5001 103.849 96.9148 104.042Z" fill="#148B2E"/>
<path fill-rule="evenodd" clip-rule="evenodd" d="M93.5007 54.9548C93.3056 54.9548 93.1105 54.9548 92.9154 54.9548C92.3301 54.9548 91.7448 54.9066 91.1596 54.8102C89.8427 53.2688 88.0381 52.2571 85.5018 52.1126C85.6969 51.8718 85.9408 51.6791 86.1847 51.4382C88.7209 52.209 91.4522 52.6425 93.647 52.6907C93.7446 52.6907 93.8421 52.6907 93.9397 52.6907C94.6225 52.6907 95.2078 52.6425 95.7443 52.5944C96.4271 52.4498 96.9149 52.3053 97.305 52.0645C97.5489 51.9199 97.744 51.7273 97.8903 51.5346C97.8903 51.7273 97.9391 52.3535 97.9391 52.8834C97.9391 53.2688 97.8903 53.606 97.8903 53.8468C96.9636 54.6176 95.3541 54.9548 93.5007 54.9548Z" fill="#522F15"/>
<path fill-rule="evenodd" clip-rule="evenodd" d="M93.9397 52.6907C93.8421 52.6907 93.7446 52.6907 93.647 52.6907C91.4522 52.6425 88.7209 52.209 86.1846 51.4382C89.1598 48.5479 95.6467 46.6692 95.6467 42.8155C95.6467 38.4801 94.5737 32.3141 94.7688 27.9787C95.9394 31.6879 98.2805 36.6014 99.4023 40.3106C99.4999 40.5033 99.5486 40.7923 99.6462 41.0332C99.4511 43.0564 99.2072 45.2723 98.9633 47.729C98.7195 49.5595 98.5244 50.7638 97.8903 51.5346C97.744 51.7272 97.5489 51.9199 97.305 52.0644C96.9149 52.3053 96.4271 52.4498 95.7443 52.5943C95.2078 52.6425 94.6225 52.6907 93.9397 52.6907Z" fill="#148B2E"/>
<path fill-rule="evenodd" clip-rule="evenodd" d="M102.67 27.786C104.036 32.6995 104.914 37.4203 105.548 40.6959L98.1342 42.8155C96.5734 38.3355 94.9151 33.9038 94.6225 31.2543C93.8421 23.9323 100.719 20.2712 102.67 27.786Z" fill="#1D9F3A"/>
<path fill-rule="evenodd" clip-rule="evenodd" d="M85.2092 54.0395C84.819 54.2804 84.38 54.5694 83.8923 54.6658C83.5509 54.714 83.2094 54.714 82.8193 54.6658C81.9413 54.6176 81.0146 54.5694 80.1367 54.5213C79.8441 54.5213 79.5514 54.4731 79.3076 54.4249C78.6735 54.3286 78.137 53.9914 77.698 53.5578C77.5517 53.4133 77.4542 53.2206 77.4542 53.0279L77.6005 52.7871C77.8931 52.4499 78.4296 52.4017 78.8686 52.3054C79.6977 52.1609 80.4781 51.7273 81.2097 51.2456C81.8926 50.7639 82.5754 50.1858 83.307 49.7523C82.8193 50.1377 82.2827 50.4749 81.6487 50.6194C81.0146 50.7639 80.3318 50.6194 79.8928 50.1377L79.8441 49.945L79.8928 49.8005C80.0392 49.5114 80.3318 49.2706 80.6732 49.1742C80.9171 49.1261 81.2097 49.1261 81.4536 49.0297C81.795 48.9815 82.0389 48.7407 82.3315 48.5962C83.5021 47.8254 84.9653 47.5364 86.331 47.7772C86.5748 47.8254 86.8187 47.8736 87.0626 47.9699C87.6478 48.259 88.038 48.7889 88.3795 49.3187C88.477 49.4151 88.5258 49.5596 88.5745 49.6559V49.9931C88.4282 50.9084 87.9405 51.6791 87.3552 52.3535C86.7211 53.0279 85.9895 53.5097 85.2092 54.0395Z" fill="#FFAE75"/>
<path fill-rule="evenodd" clip-rule="evenodd" d="M64.9193 49.5596L74.2351 54.9066C74.4302 55.003 74.7228 55.003 74.9667 54.9066L88.1356 47.3437C88.6233 47.1029 88.6233 46.3803 88.1356 46.1394L78.8198 40.7924C78.6247 40.696 78.3321 40.696 78.0882 40.7924L64.9193 48.3553C64.4316 48.5962 64.4316 49.3187 64.9193 49.5596Z" fill="#878583"/>
<path fill-rule="evenodd" clip-rule="evenodd" d="M66.6752 48.307L75.2593 53.2205L86.965 46.5729L78.3808 41.6594L66.6752 48.307Z" fill="white"/>
<path fill-rule="evenodd" clip-rule="evenodd" d="M85.9408 48.6443C86.1359 50.2821 87.8429 51.2937 87.8429 51.2937C89.3062 51.6791 90.9645 51.3901 92.8666 50.7157C97.0124 48.9333 104.426 44.646 104.28 44.5979C105.694 43.5381 106.328 41.5149 105.304 40.0216C101.5 34.5782 98.2317 38.721 89.3062 45.5131C87.3552 47.44 85.7945 47.5363 85.9408 48.6443Z" fill="#1D9F3A"/>
<path fill-rule="evenodd" clip-rule="evenodd" d="M67.7482 50.1376L72.4792 52.8352C72.8207 53.0279 72.7231 53.3651 72.2841 53.4614L71.5038 53.6541C71.1623 53.7505 70.7722 53.7023 70.5283 53.5578L69.8455 53.1724L68.5286 53.2687L66.919 52.3535L67.1141 51.6309L66.4801 51.2455C66.2362 51.101 66.1387 50.8602 66.285 50.6675L66.6264 50.2339C66.8215 49.9931 67.4068 49.9449 67.7482 50.1376Z" fill="#DAD6D3"/>
<path fill-rule="evenodd" clip-rule="evenodd" d="M67.5531 51.2937V51.39L70.2844 52.9797H70.4795V52.8351L67.7482 51.2937H67.5531Z" fill="#535753"/>
<path fill-rule="evenodd" clip-rule="evenodd" d="M67.9433 51.101V51.1973L70.6746 52.7388H70.8697V52.6425L68.1384 51.101H67.9433Z" fill="#535753"/>
<path fill-rule="evenodd" clip-rule="evenodd" d="M68.3335 50.8602V50.9565L71.0648 52.498H71.2599V52.4017L68.5286 50.8602H68.3335Z" fill="#535753"/>
<path fill-rule="evenodd" clip-rule="evenodd" d="M71.7964 52.9315V53.1723H72.2354V52.9315H71.7964Z" fill="#878583"/>
<path fill-rule="evenodd" clip-rule="evenodd" d="M67.0654 50.2339V50.4747H67.4555V50.2339H67.0654Z" fill="#878583"/>
<path fill-rule="evenodd" clip-rule="evenodd" d="M79.8928 49.8005C80.0392 49.5114 80.3318 49.2706 80.6732 49.1742C80.9171 49.1261 81.2097 49.1261 81.4536 49.0297C81.795 48.9815 82.0389 48.7407 82.3315 48.5962C83.5021 47.8254 84.9653 47.5364 86.331 47.7772C86.5748 47.8254 86.8187 47.8736 87.0626 47.9699C87.6478 48.259 88.038 48.7889 88.3795 49.3187C88.477 49.4151 88.5258 49.5596 88.5745 49.6559V49.9931C88.4282 50.9084 87.9405 51.6791 87.3552 52.3535C86.7211 53.0279 85.9895 53.5097 85.2092 54.0395C84.9653 54.1841 84.7214 54.3286 84.4288 54.4731L83.2094 50.9566C83.2094 50.9566 82.8193 50.3785 82.5754 50.2822C82.2827 50.4267 81.9413 50.523 81.6487 50.6194C79.5026 51.1011 79.8441 49.8486 79.8928 49.8005Z" fill="#FFAE75"/>
<path fill-rule="evenodd" clip-rule="evenodd" d="M61.749 38.1428C62.9684 38.1428 63.8463 37.5648 64.773 38.5764C65.6021 39.4435 65.846 40.2624 64.9193 41.0813C64.3828 41.563 62.3343 44.2125 61.6027 44.3088C61.1637 44.357 60.8711 44.2606 60.4809 44.4051C60.1395 44.5497 59.7981 44.7423 59.5542 44.9832C59.3103 45.2241 58.9201 45.4167 58.6275 45.2241C58.53 45.1277 58.2373 44.4533 59.6517 43.2972C59.9444 43.0563 57.3594 44.4533 55.2621 46.0912C54.8719 46.3802 53.9452 46.1875 54.3842 45.2241C55.0183 44.3088 55.8474 43.7307 56.7741 43.0563C56.4815 42.6228 56.0425 41.6594 56.0913 41.1295C56.1888 40.5033 57.8471 38.5764 58.4812 38.2874C58.9689 37.9983 61.2125 38.1428 61.749 38.1428Z" fill="#FFAE75"/>
<path fill-rule="evenodd" clip-rule="evenodd" d="M92.2326 14.5389C92.2326 14.587 92.2326 14.7315 92.2326 14.9242C92.2326 15.2614 92.2813 15.7431 92.3301 16.2249C92.3789 16.6102 92.3789 17.0438 92.4276 17.3328C92.4764 17.6218 92.4764 17.8627 92.4764 17.959C92.4764 19.0188 91.5985 19.645 90.8669 20.0786C89.5012 20.9457 87.2576 21.7646 86.0383 21.0902L85.9408 20.9938L85.7944 20.8493L85.6969 20.753L85.5993 20.6085L85.4042 20.2713C85.4042 20.0304 85.2091 19.1633 85.1604 18.8261L84.9165 18.8743C84.2337 18.9706 83.6972 18.8261 83.2582 18.4889L83.0143 18.2962C82.5266 17.7663 82.2827 17.0919 82.0876 16.3694C81.9413 16.0322 81.8438 15.6468 81.7462 15.3096V15.2133C81.5999 14.6352 81.4536 14.009 81.3073 13.3827C81.0146 11.9858 80.7707 10.5888 80.6244 9.19181C80.4781 7.6985 80.4781 6.06066 81.4048 4.85638C81.5024 4.66369 81.5999 4.56735 81.6974 4.51917C82.2827 3.89295 83.1119 3.50757 83.941 3.17037C85.7944 2.4478 87.9405 2.20694 89.7451 3.1222C90.9644 3.7966 91.5497 4.76003 92.1838 6.06066C92.7691 7.31312 92.8178 9.19181 92.7691 10.5406C92.6715 13.19 92.3789 12.901 92.2326 14.5389Z" fill="#FFAE75"/>
<path fill-rule="evenodd" clip-rule="evenodd" d="M85.9896 21.042C85.7457 20.8975 85.5506 20.6085 85.4043 20.2713L85.5994 20.6085L85.6969 20.753L85.7945 20.8493L85.9408 20.9938L85.9896 21.042ZM85.258 19.5005C85.2092 19.2115 85.1604 18.9706 85.1604 18.8261C85.1604 18.9706 85.2092 19.2115 85.258 19.5005Z" fill="#A43A5E"/>
<path fill-rule="evenodd" clip-rule="evenodd" d="M86.0871 21.0902C86.0383 21.0902 86.0383 21.042 85.9896 21.042L85.9408 20.9938L85.7945 20.8493L85.6969 20.753L85.5994 20.6085L85.4043 20.2713C85.4043 20.1268 85.3555 19.7896 85.258 19.5005C85.2092 19.2115 85.1604 18.9706 85.1604 18.8261C85.5994 18.6816 85.9896 18.6334 86.4285 18.4889C88.0381 18.0072 89.4525 16.8993 90.2816 15.4059C90.4767 16.6584 90.1841 17.959 89.5013 18.9706C88.7697 19.9822 87.6479 20.753 86.4285 21.042L86.0871 21.0902Z" fill="#E89F6C"/>
<path fill-rule="evenodd" clip-rule="evenodd" d="M82.3803 4.56735C82.1364 5.09723 82.6729 5.67529 83.2094 5.77163C83.7459 5.86798 84.3312 5.62712 84.819 5.28992C85.2579 5.00089 85.6969 4.61552 86.2822 4.471C87.6478 4.03746 89.1598 5.1454 89.6476 6.54238C90.1841 7.89118 89.9402 9.3845 89.6963 10.8296C90.0865 10.8296 90.3304 10.4443 90.5255 10.1552C90.7694 9.81804 91.2083 9.57718 91.4522 9.81804C91.5985 9.91439 91.5985 10.1071 91.6473 10.2516C91.6961 10.926 91.6473 11.6004 91.5497 12.2266C91.501 12.5156 91.4034 12.8047 91.2571 12.9974C91.062 13.19 90.7694 13.2864 90.5255 13.1419C90.3792 14.009 91.1595 14.8279 92.0375 14.9242H92.2326C92.2326 14.7315 92.2326 14.587 92.2326 14.5389C92.3789 12.901 92.6715 13.19 92.7691 10.5406C92.8178 9.19181 92.7691 7.31312 92.1838 6.06066C91.5497 4.76003 90.9644 3.7966 89.7451 3.1222C87.9405 2.20694 85.7944 2.4478 83.941 3.17037C83.0143 3.50757 82.0876 3.98929 81.4536 4.76003C81.7462 4.51917 82.0389 4.42283 82.3803 4.56735Z" fill="black"/>
<path fill-rule="evenodd" clip-rule="evenodd" d="M85.0141 14.5388C83.7459 14.5388 82.5754 13.7681 81.3073 13.3827C81.0146 11.9857 80.7708 10.5888 80.6244 9.19179C80.5757 8.75824 80.5757 8.27653 80.5757 7.84298C80.5757 6.73504 80.722 5.67527 81.4048 4.85635C81.4536 4.76001 81.5024 4.66366 81.5511 4.61549C81.5511 4.66366 81.5024 4.71184 81.4536 4.76001C81.5511 4.66366 81.6975 4.61549 81.795 4.56732C81.9901 4.61549 82.1364 4.66366 82.3315 4.76001C82.2827 5.19355 82.7217 5.67527 83.2094 5.77161C83.307 5.77161 83.3558 5.77161 83.4533 5.77161C83.7947 5.77161 84.1361 5.67527 84.4288 5.53075C86.2822 6.20515 88.0868 6.92773 89.9402 7.6503C89.989 8.37287 89.9402 9.14362 89.8427 9.91436C89.4037 11.0223 88.7209 12.0821 87.8917 12.9973C87.2577 13.7199 86.3797 14.3943 85.4043 14.5388C85.2579 14.5388 85.1604 14.5388 85.0141 14.5388Z" fill="#E59C69"/>
<path fill-rule="evenodd" clip-rule="evenodd" d="M89.8426 9.91436C89.9402 9.14362 89.989 8.37287 89.9402 7.6503C90.0865 7.69847 90.2816 7.79481 90.4279 7.84299C90.3304 8.56556 90.1353 9.23996 89.8426 9.91436ZM83.4533 5.77161C83.3558 5.77161 83.307 5.77161 83.2094 5.77161C82.7217 5.67527 82.2827 5.19355 82.3315 4.76001C83.0143 5.00087 83.7459 5.24172 84.4288 5.53075C84.1361 5.67527 83.7947 5.77161 83.4533 5.77161ZM81.4536 4.76001C81.5024 4.71184 81.5511 4.66366 81.5511 4.61549C81.5999 4.56732 81.6487 4.56732 81.6975 4.51915C81.7462 4.51915 81.7462 4.51915 81.795 4.56732C81.6975 4.61549 81.5511 4.66366 81.4536 4.76001Z" fill="black"/>
<path fill-rule="evenodd" clip-rule="evenodd" d="M92.5252 6.44602C92.5252 6.68688 92.5252 6.92773 92.5252 7.21676L92.3301 7.45762C92.135 7.69848 91.9399 7.93934 91.7448 8.18019C91.4522 8.5174 91.1108 8.80642 90.7206 9.04728L90.3792 9.33631H90.2816L90.1353 9.48083L89.989 9.529C89.8427 9.62534 89.7451 9.67351 89.5988 9.72168L89.2574 9.8662L89.0623 9.96254L88.8672 10.0589H88.7696L88.5258 10.1552L88.3307 10.2034L88.1844 10.2516C88.038 10.2997 87.8429 10.2997 87.6966 10.3479H87.5991L87.2577 10.3961C86.526 9.96254 85.8432 9.57717 85.1604 9.23997C83.7459 8.46922 82.3803 7.98751 81.1122 7.74665C80.8683 7.69848 80.6732 7.65031 80.4781 7.65031L80.6244 5.91613L80.722 4.71185C80.7708 4.03744 81.0634 3.45939 81.5999 3.02584C84.38 0.906295 87.404 0.617266 90.6718 2.49595C91.9399 3.45939 92.5252 4.80819 92.5252 6.44602Z" fill="#1D9F3A"/>
<path fill-rule="evenodd" clip-rule="evenodd" d="M89.989 9.52897C89.989 9.52897 86.9162 11.5522 85.4043 12.7083C84.7702 13.19 83.5996 13.479 82.8193 12.901L82.6729 12.7565C82.0877 12.3711 81.2097 11.9375 80.283 11.6485L80.1855 11.6003C79.5027 11.4077 78.8198 11.3113 78.137 11.2631C77.6005 11.2631 77.064 11.3113 76.625 11.504L76.5762 11.3595C77.064 10.8296 78.5272 9.52897 78.9661 9.04726C79.6977 8.32468 80.283 7.74662 80.4781 7.65028C83.4533 5.81976 88.2819 9.72166 89.989 9.52897Z" fill="#148B2E"/>
<path fill-rule="evenodd" clip-rule="evenodd" d="M83.5509 19.2597C83.0631 19.067 82.6729 18.6334 82.4291 18.1999C82.1364 17.7182 81.9901 17.1883 81.795 16.7066C81.6487 16.2249 81.5024 15.6468 81.795 15.2133C82.0877 14.8279 82.6242 14.7797 83.0631 14.7797C83.746 14.8761 84.4288 15.1169 84.9653 15.5023C85.5994 15.9358 86.1846 16.6584 86.965 16.7548C87.7454 16.8511 88.5258 16.273 88.8672 15.5505C89.2086 14.8761 89.2574 14.0572 89.3062 13.2382C89.3062 12.4675 89.6476 11.4077 89.7939 10.3961C89.8427 10.0589 90.0378 10.2998 90.3792 10.2998C90.2329 12.1785 90.8181 14.1053 90.1841 15.8395C89.7939 16.8029 89.1111 17.6218 88.2819 18.1999C87.404 18.778 86.4285 19.1633 85.4043 19.356C84.819 19.4524 84.1362 19.5005 83.5509 19.2597Z" fill="black"/>
<path fill-rule="evenodd" clip-rule="evenodd" d="M83.0143 16.4175C83.3558 16.5139 83.6972 16.6102 84.0386 16.7066L84.2825 16.7548L84.4775 16.6584L84.3312 16.2249C83.9898 15.9358 83.5508 15.7431 83.1119 15.695L82.7705 15.7431L82.5754 15.984L82.7217 16.273L83.0143 16.4175Z" fill="#FFAE75"/>
<path fill-rule="evenodd" clip-rule="evenodd" d="M45.0197 60.7353V60.8798V61.0725V61.3133V62.4213L44.7271 63.6738C44.532 64.1555 44.3369 64.6372 43.9955 64.5408C43.459 64.3963 43.5565 64.011 43.8004 63.4811C43.7516 63.0957 43.7516 62.7585 43.8492 62.3731C43.7516 61.9877 43.7028 61.6505 43.7516 61.217C43.7516 61.0725 43.8004 60.8798 43.8004 60.7353H44.093H44.2393H44.5808H45.0197Z" fill="#FFAE75"/>
<path fill-rule="evenodd" clip-rule="evenodd" d="M40.8251 64.1555C40.5325 64.011 40.5325 63.6256 40.6788 63.1921C40.5325 62.8549 40.5325 62.4213 40.5813 62.036C40.3374 61.6988 40.0935 61.1689 40.0448 60.639V60.4945L40.2399 60.4463L41.3129 60.3018L41.508 61.1689L41.6543 61.8915V63.0957C41.6055 63.5775 41.4104 64.2037 41.069 64.2037L40.8251 64.1555Z" fill="#FFAE75"/>
<path fill-rule="evenodd" clip-rule="evenodd" d="M43.8004 60.8799L43.9467 62.5177L43.7516 63.8183C43.5565 64.3 43.4102 64.7817 43.0687 64.7336C42.5322 64.6854 42.581 64.2519 42.7761 63.722C42.7273 63.3366 42.6786 62.9994 42.7273 62.5659C42.581 62.1323 42.4835 61.6024 42.581 60.9762L43.8004 60.8799Z" fill="#FFAE75"/>
<path fill-rule="evenodd" clip-rule="evenodd" d="M41.6056 64.4445C41.508 64.2518 41.5568 63.9628 41.7031 63.5774L41.6543 63.2884C41.6056 62.9994 41.6056 62.7585 41.6543 62.4695C41.4592 61.9877 41.4105 61.4579 41.508 60.8316L42.6786 60.7353L42.8249 62.4213V63.1439L42.7761 63.4329V63.7219C42.6298 64.2036 42.3372 64.6854 41.9957 64.6372C41.8007 64.589 41.7031 64.5408 41.6056 64.4445Z" fill="#FFAE75"/>
<path fill-rule="evenodd" clip-rule="evenodd" d="M45.0685 60.8799C44.8246 60.9762 44.6295 61.0726 44.3856 61.1207C44.1905 61.1689 43.9467 61.1689 43.7516 61.2171C43.02 61.3134 42.1908 61.2652 41.508 61.1689C40.9715 61.1207 40.5325 60.9762 40.2886 60.8317L40.0448 60.639C39.3619 59.8201 38.923 58.4231 38.7767 57.0743C38.8742 56.4481 38.9718 55.9182 39.2156 55.6773L38.8742 53.6541C38.9718 53.9432 39.2156 54.184 39.6058 54.3767C40.6301 54.8584 42.4347 54.8584 42.7761 53.9432L42.9224 55.2438L43.8491 57.7006L45.0197 60.7354L45.0685 60.8799Z" fill="#FFAE75"/>
<path fill-rule="evenodd" clip-rule="evenodd" d="M40.8251 64.1555C40.6301 64.0591 40.5813 63.8664 40.5813 63.6737C40.5813 63.5292 40.6301 63.3365 40.6788 63.192C40.5813 62.9512 40.5325 62.6621 40.5325 62.4213C40.5325 62.2768 40.5325 62.1804 40.5813 62.0359C40.3374 61.6987 40.0935 61.1688 40.0448 60.6389L40.2886 60.8316C40.3374 61.3615 40.5813 61.8432 40.8739 62.1804C40.6301 62.5176 40.6788 62.8548 40.8251 63.2402C40.6788 63.4329 40.6301 63.8664 40.8251 64.1555Z" fill="#E89F6C"/>
<path fill-rule="evenodd" clip-rule="evenodd" d="M39.0693 58.6158C38.923 58.0859 38.8254 57.556 38.7767 57.0743C38.7767 56.8816 38.8254 56.7371 38.8742 56.5444C38.8254 56.7371 38.7767 56.8816 38.7767 57.0743C38.8254 57.556 38.923 58.0859 39.0693 58.6158Z" fill="#46ABBA"/>
<path fill-rule="evenodd" clip-rule="evenodd" d="M40.2886 60.8316L40.0448 60.6389C39.6058 60.1572 39.2644 59.3865 39.0693 58.6157C38.923 58.0859 38.8254 57.556 38.7767 57.0743C38.7767 56.8816 38.8254 56.7371 38.8742 56.5444C38.8742 56.3517 38.923 56.159 39.0205 56.0145C39.1668 56.159 39.3619 56.3035 39.6058 56.3517C39.3132 56.9297 39.2156 57.5078 39.3619 58.1822C39.5083 58.9048 39.7034 59.5792 40.0448 60.0609L43.2151 60.5908L40.2399 60.4463L40.2886 60.8316Z" fill="#E89F6C"/>
<path fill-rule="evenodd" clip-rule="evenodd" d="M44.093 64.5409C44.0442 64.5409 44.0442 64.5409 43.9955 64.5409C44.0442 64.0592 44.2881 63.5293 44.3856 63.1439C44.532 62.614 44.5807 61.9396 44.4832 61.4097L44.3856 61.1207C44.532 61.0725 44.6783 61.0244 44.8246 60.9762C44.8734 61.0244 44.9709 61.0725 45.0197 61.0725V61.3134V62.4213L44.7271 63.6738C44.532 64.1073 44.3369 64.5409 44.093 64.5409Z" fill="#E89F6C"/>
<path fill-rule="evenodd" clip-rule="evenodd" d="M44.3857 61.1207L44.093 60.7354L43.8491 60.35C43.7028 59.9164 43.8004 59.3384 43.5565 59.0012C43.3126 58.664 42.6786 58.5676 42.2884 58.3749C42.0445 58.2786 41.8007 58.1823 41.6543 57.9414C41.6543 57.8932 41.6056 57.7969 41.5568 57.7005H41.6543C42.1421 58.0859 42.9712 58.5195 43.7516 58.5195C43.8004 58.5195 43.8491 58.5195 43.8979 58.5195L44.2881 59.1457L44.3857 59.9646C44.3857 60.3018 44.4344 60.5427 44.5808 60.7354C44.6783 60.8317 44.7271 60.928 44.8246 60.9762C44.6783 61.0244 44.532 61.0726 44.3857 61.1207Z" fill="#E89F6C"/>
<path fill-rule="evenodd" clip-rule="evenodd" d="M44.5808 60.7353C44.4344 60.5426 44.3857 60.3018 44.3857 59.9646L44.2881 59.1456L43.8979 58.5194C42.8249 58.5676 41.508 57.7487 41.2154 57.2669C41.1178 57.0743 41.069 56.9297 41.069 56.7371C41.069 56.0627 41.8007 55.5328 42.8249 55.0511L43.459 55.5328L45.166 57.2669L45.5562 59.0011C45.3611 59.531 45.3611 60.1091 45.4587 60.6871C45.4587 60.928 45.3611 61.0725 45.2148 61.1207L45.0197 61.0725C44.8734 61.0243 44.7271 60.928 44.5808 60.7353Z" fill="#FFAE75"/>
<path fill-rule="evenodd" clip-rule="evenodd" d="M36.777 117.77C35.3625 117.819 31.2168 116.084 28.7781 114.591L28.4854 114.398C28.2416 114.254 28.0953 114.109 27.9002 114.013C27.7538 113.868 27.5587 113.724 27.4612 113.628C27.2661 113.435 27.1686 113.29 27.071 113.146C27.1198 112.423 27.1686 111.701 27.2661 111.075C27.3636 110.256 27.5587 109.533 27.8514 109.003L28.1928 106.306L28.2903 105.438H34.4846L34.3383 107.221L34.192 109.34C34.192 109.34 34.2407 109.437 34.3871 109.629C34.8748 110.304 36.2405 111.893 39.1181 113.917C40.2887 114.687 40.3862 117.77 36.777 117.77Z" fill="#393C39"/>
<path fill-rule="evenodd" clip-rule="evenodd" d="M37.0696 27.3525C37.9963 30.291 38.3377 35.927 38.8742 41.3222C41.8006 48.2589 38.9718 43.6826 43.3126 54.0395C43.7028 55.9182 39.7034 57.1707 38.923 55.9182C35.2162 50.0894 33.9481 50.1376 30.9241 42.8637C29.5585 37.9984 29.1683 35.2045 28.0465 28.3159C26.6808 20.2713 34.6797 20.0786 37.0696 27.3525Z" fill="#726B85"/>
<path fill-rule="evenodd" clip-rule="evenodd" d="M38.8742 55.87L37.7524 54.2803C37.8012 54.3285 37.85 54.3285 37.8987 54.3285C38.1914 54.762 38.5328 55.2919 38.8742 55.8218C38.8742 55.87 38.8742 55.87 38.8742 55.87Z" fill="#3D8B97"/>
<path fill-rule="evenodd" clip-rule="evenodd" d="M38.8742 55.8218C38.5328 55.292 38.1914 54.7621 37.8987 54.3285C38.1914 54.4249 38.484 54.473 38.8254 54.5694C38.8254 55.0029 38.8742 55.4365 38.8742 55.8218ZM37.1671 49.3187C37.0696 49.2224 36.972 49.126 36.8257 49.0297L35.6064 48.837C35.6552 48.5961 35.6552 48.3071 35.7039 48.0181H35.6552C35.9478 43.3936 36.1429 37.2276 35.7527 32.0733C35.8015 32.2178 35.899 32.3623 35.9478 32.6032C36.1917 33.3739 37.3135 45.7058 37.5085 46.5729C37.7036 47.7772 37.8012 48.4034 37.8987 49.0297C37.6549 49.0778 37.411 49.1742 37.1671 49.3187Z" fill="#585365"/>
<path fill-rule="evenodd" clip-rule="evenodd" d="M34.826 61.506L36.4356 81.4009C36.0454 92.0468 34.9236 96.7194 34.4846 109.003C34.3871 111.508 26.632 112.52 26.8271 110.641C26.2906 102.404 25.9004 92.1913 27.071 84.821C25.4615 79.0405 24.3397 70.0806 24.2909 64.6372L34.826 61.506Z" fill="#0A1214"/>
<path fill-rule="evenodd" clip-rule="evenodd" d="M23.7056 127.405C22.2912 127.453 18.1454 125.719 15.7067 124.274L15.4141 124.033C15.1702 123.888 15.0239 123.792 14.8288 123.647L14.5362 123.406L14.3898 123.262C14.1948 123.069 14.0484 122.925 13.9997 122.78C14.0484 122.058 14.0484 121.335 14.1948 120.709V120.612C14.2923 119.842 14.4874 119.167 14.78 118.637L15.0727 115.94L15.1702 115.073H21.4133L21.2669 116.855L21.1206 118.975C21.1206 118.975 21.1694 119.071 21.3157 119.264L21.4133 119.456C21.9985 120.179 23.3642 121.672 26.0468 123.551C27.2173 124.322 27.3149 127.405 23.7056 127.405Z" fill="#393C39"/>
<path fill-rule="evenodd" clip-rule="evenodd" d="M34.9236 64.878C34.4358 68.25 31.9484 69.936 28.7293 71.044L25.9492 89.4937C23.8032 100.236 23.0716 105.101 21.7059 118.686L21.6571 118.926C21.6571 119.119 21.5596 119.264 21.4133 119.456C20.6817 120.516 17.9991 121.383 15.9994 121.239C15.2678 121.191 14.6337 120.998 14.1948 120.612C14.0484 120.516 13.9509 120.372 13.8533 120.227C13.7558 120.034 13.6582 119.794 13.6582 119.505C13.8046 116.711 13.8046 104.282 14.1948 100.284C14.2435 100.043 14.2435 99.7542 14.2923 99.5134C14.3411 99.128 14.3899 98.7908 14.4386 98.4054V98.1164L14.4874 97.7792C14.5849 97.0084 14.7313 96.1895 14.8288 95.4188C14.8776 95.1779 14.9264 94.9852 14.9751 94.7444C15.0239 94.5517 15.0239 94.3108 15.0727 94.1181C15.1215 93.9255 15.1702 93.6846 15.219 93.4919C15.2678 93.2992 15.3165 93.1065 15.3653 92.8657C15.4141 92.6248 15.4629 92.384 15.5604 92.1431C15.7555 91.4205 15.9506 90.7461 16.1945 90.0717C15.1702 84.1466 15.6092 77.7398 16.1457 72.3446C15.9018 71.4775 15.658 70.5623 15.5116 69.5988L15.4629 69.358C15.3653 68.8281 15.3165 68.2982 15.2678 67.7683C15.219 66.9012 15.1702 65.986 15.219 65.0707C15.2678 64.3 15.3653 63.4811 15.5116 62.7103C15.5604 62.2768 15.658 61.8914 15.7067 61.4579L15.9994 61.4097L19.0721 60.6389L34.4358 56.8334L34.7285 56.7852C34.8748 59.4347 34.7772 61.7951 34.9236 64.878Z" fill="#191733"/>
<path fill-rule="evenodd" clip-rule="evenodd" d="M15.4141 60.7835C15.4141 60.8316 15.3653 62.614 15.4141 63.2884C19.2672 66.5641 33.7042 62.3731 34.826 58.4231C34.826 57.6042 34.9236 56.8334 34.826 55.7255C31.168 60.6871 19.9013 63.2884 15.4141 60.7835Z" fill="black"/>
<path fill-rule="evenodd" clip-rule="evenodd" d="M30.5827 61.3133L28.0465 62.2768V60.7353L30.5827 59.7719V61.3133Z" fill="white"/>
<path fill-rule="evenodd" clip-rule="evenodd" d="M35.6552 48.018C35.4601 51.9681 35.1674 54.7621 35.1674 54.7621V55.0029C35.1187 55.6773 34.8748 56.2554 34.4358 56.8334C32.0459 60.0609 24.5835 61.9878 19.8525 62.0841C19.0233 62.0841 18.2917 62.0359 17.6577 61.9396C16.9749 61.8433 16.4383 61.6506 15.9994 61.4097C14.8288 60.6871 14.6337 59.2902 14.2923 56.9298C14.0484 54.3767 13.8046 52.0163 13.6095 49.8967C12.8291 41.5631 12.634 36.216 12.7803 33.4702C12.7803 32.8922 12.8291 32.5068 12.8291 32.1214C15.0239 29.6165 18.7795 26.9671 21.901 25.0402C26.0955 23.1134 29.8999 21.9572 32.1435 22.2463C36.4355 22.728 36.1917 38.6246 35.6552 48.018Z" fill="#726B85"/>
<path fill-rule="evenodd" clip-rule="evenodd" d="M15.5604 92.1431C15.7067 91.4205 15.9506 90.7461 16.1945 90.0717C15.1215 84.1466 15.6092 77.7398 16.1457 72.3446C15.9018 71.4775 15.658 70.5623 15.5116 69.5988L15.4629 69.358C15.3653 68.8281 15.3165 68.2982 15.2678 67.7683C15.219 66.9494 15.1702 66.0823 15.219 65.1671C15.1702 66.0823 15.219 66.9494 15.2678 67.7683C15.3165 68.2982 15.3653 68.8281 15.4629 69.358L15.5116 69.5988C15.658 70.5623 15.9018 71.4775 16.1457 72.3446C15.6092 77.7398 15.1702 84.1466 16.1945 90.0717C15.9506 90.7461 15.7555 91.4205 15.5604 92.1431ZM15.219 65.1671V65.1189V65.1671ZM15.4141 60.8798C15.1702 60.5908 14.9751 60.2054 14.8288 59.7719C14.9751 60.2054 15.1702 60.5908 15.4141 60.8798Z" fill="#3D8B97"/>
<path fill-rule="evenodd" clip-rule="evenodd" d="M15.9994 121.239C15.2678 121.191 14.6337 120.998 14.1948 120.613C14.0484 120.516 13.9509 120.372 13.8533 120.227C13.7558 120.034 13.6582 119.794 13.6582 119.505C13.8046 116.711 13.8046 104.282 14.1948 100.284C14.2435 100.043 14.2435 99.7543 14.2923 99.5134C14.3411 99.128 14.3899 98.7908 14.4386 98.4055C14.4386 98.1646 14.4874 97.9719 14.4874 97.7792C14.5849 97.0085 14.7313 96.1896 14.8288 95.4188C14.8776 95.178 14.9264 94.9853 14.9751 94.7444C15.0239 94.5517 15.0239 94.3109 15.0727 94.1182C15.1215 93.9255 15.1702 93.6847 15.219 93.492C15.2678 93.2993 15.3165 93.1066 15.3653 92.8657C15.4141 92.6249 15.4629 92.384 15.5604 92.1432C15.7555 91.4206 15.9506 90.7462 16.1945 90.0718C15.1702 84.1467 15.6092 77.7399 16.1457 72.3447C15.9018 71.4776 15.658 70.5623 15.5116 69.5989L15.4629 69.358C15.3653 68.8281 15.3165 68.2983 15.2678 67.7684C15.219 66.9495 15.1702 66.0824 15.219 65.1671V65.1189V65.0708C15.2678 64.4445 15.3165 63.8665 15.4141 63.2884C16.3896 64.1073 18.0479 64.4445 19.9988 64.4445C20.1939 64.4445 20.389 64.4445 20.5841 64.4445C19.5111 65.9379 18.3893 68.0092 18.243 69.5989C17.4626 79.3295 19.0233 90.7462 19.0233 90.7462C18.8283 93.2511 15.7067 98.1164 15.7555 105.535C15.8043 107.51 16.292 110.304 16.3896 114.061C16.3896 114.398 16.3896 114.736 16.3896 115.073C16.3896 116.903 16.292 118.975 15.9994 121.239Z" fill="#1A192C"/>
<path fill-rule="evenodd" clip-rule="evenodd" d="M19.9988 64.4445C18.0479 64.4445 16.3896 64.1073 15.4141 63.2884C15.4141 63.0957 15.4629 62.9031 15.5116 62.7104C15.5604 62.2768 15.658 61.8915 15.7067 61.4579L15.9994 61.4097C15.7555 61.2652 15.5604 61.0725 15.4141 60.8799C15.5604 61.0725 15.7555 61.2652 15.9994 61.4097C16.4383 61.6506 16.9749 61.8433 17.6577 61.9396C18.1942 62.036 18.7795 62.0841 19.4135 62.0841C19.5599 62.0841 19.7062 62.0841 19.8525 62.0841C20.1451 62.6622 20.5353 63.2884 20.9743 63.8665C20.828 64.0592 20.7304 64.2519 20.5841 64.4445C20.389 64.4445 20.1939 64.4445 19.9988 64.4445Z" fill="#090908"/>
<path fill-rule="evenodd" clip-rule="evenodd" d="M35.6064 48.8369C35.6551 48.5961 35.6551 48.3071 35.6551 48.018C35.7039 48.018 35.6551 48.018 35.7039 48.018C35.6551 48.3071 35.6551 48.5961 35.6064 48.8369Z" fill="#46434F"/>
<path fill-rule="evenodd" clip-rule="evenodd" d="M19.4135 62.0841C18.7795 62.0841 18.1942 62.036 17.6577 61.9396C16.9748 61.8433 16.4383 61.6506 15.9994 61.4097C15.7555 61.2652 15.5604 61.0725 15.4141 60.8799C15.1702 60.5908 14.9751 60.2055 14.8288 59.7719C14.5849 59.0493 14.4874 58.0859 14.2923 56.9298C14.0484 54.3767 13.8046 52.0163 13.6095 49.8967C13.2193 45.6577 12.9754 42.2375 12.8291 39.4917C12.7315 36.8423 12.7315 34.8191 12.7803 33.4703C12.8291 34.8672 13.3656 36.7941 14.0484 38.8655C15.8531 37.902 19.0233 37.5167 20.828 36.5532C21.901 39.588 25.8517 45.0314 26.4369 45.5131C27.6075 46.5247 29.5097 46.6693 31.0217 46.9583C32.5336 47.2955 34.0944 47.6809 35.6552 48.0181C35.6552 48.3071 35.6552 48.5961 35.6064 48.837L22.0473 46.8619C21.9985 46.8619 21.9498 46.8619 21.901 46.8619C20.0476 46.8619 17.804 50.2339 17.804 50.2339C17.6089 52.0645 19.2672 54.3285 21.7547 54.5212L35.2162 54.3285C35.2162 54.6176 35.1674 54.7621 35.1674 54.7621V55.0029C35.1186 55.0029 35.0699 55.0029 35.0211 55.0029C30.8753 55.0029 26.6808 55.5328 22.535 55.5328C21.9498 55.5328 21.1206 55.3883 20.389 55.3883C19.316 55.3883 18.3405 55.6292 18.1942 56.7853C18.0966 57.9414 18.5356 59.3865 19.0721 60.639C19.316 61.1689 19.6086 61.6506 19.8525 62.0841C19.7062 62.0841 19.5599 62.0841 19.4135 62.0841Z" fill="#585365"/>
<path fill-rule="evenodd" clip-rule="evenodd" d="M12.1463 39.7325C14.2435 46.1393 15.7067 48.0662 18.3405 52.4016C18.6819 52.8352 19.0233 53.1724 19.3648 53.5577L25.6078 48.2589C23.7056 43.2972 21.8522 38.0465 20.1939 35.5416C15.9506 29.1348 9.21984 30.7244 12.1463 39.7325Z" fill="#726B85"/>
<path fill-rule="evenodd" clip-rule="evenodd" d="M19.8525 26.3409C19.7062 26.6299 19.8037 26.9671 19.9013 27.3043C20.1939 28.3159 20.7304 28.9421 21.5596 29.6166C22.8277 30.6282 24.3885 31.4952 25.7053 32.4105C26.4369 31.0135 26.8271 30.0983 27.3149 28.7976C28.0465 29.4239 29.217 30.291 29.9486 30.9172C30.095 29.8092 29.6072 28.3641 29.3634 27.2561C29.1683 26.1964 28.583 25.1366 27.6075 24.5104C26.7784 23.9805 25.7541 23.7878 24.7786 23.836C24.5835 23.8841 24.2421 23.7878 23.8519 23.7396C22.974 23.5469 21.8522 23.4024 21.3157 24.2695C20.9743 24.7994 20.1451 25.811 19.8525 26.3409Z" fill="#575266"/>
<path fill-rule="evenodd" clip-rule="evenodd" d="M34.9236 19.067C34.4846 21.4755 33.8018 22.9689 32.5825 25.0884C32.1923 25.7146 31.8021 26.3409 31.2168 26.7262L30.9241 26.8707C30.3876 27.1116 29.7048 27.1116 29.022 26.7744C28.8757 27.0634 28.4855 27.8823 28.3879 28.1232C28.2904 28.3159 28.0953 28.5086 27.949 28.6049L27.6075 28.7494C26.2906 29.1348 24.2909 27.8342 23.1691 26.7262C22.5839 26.1 21.8522 25.2811 22.0961 24.2695C22.1937 23.8841 23.1204 21.3792 23.1691 20.9938C23.3642 19.356 22.9253 20.5121 22.9253 17.3328C22.974 15.984 23.3155 14.2498 24.1446 13.1419C25.0713 11.9857 25.7541 11.0223 27.071 10.6851C29.022 10.1552 31.2656 10.3961 32.9239 11.5522C33.753 12.1303 34.2895 12.9973 34.7285 13.9126C35.3138 15.3096 35.3138 17.2364 34.9236 19.067Z" fill="#FFAE75"/>
<path fill-rule="evenodd" clip-rule="evenodd" d="M27.6075 28.7495L27.9489 28.6049C27.8026 28.6531 27.7051 28.7013 27.6075 28.7495ZM27.9489 28.6049C28.0465 28.5568 28.144 28.4604 28.1928 28.3641C28.144 28.4604 28.0465 28.5568 27.9489 28.6049Z" fill="#4E4A5B"/>
<path fill-rule="evenodd" clip-rule="evenodd" d="M27.6075 28.7494L27.2661 28.6049C26.0955 28.075 25.2176 27.0634 24.7786 25.9073C24.3397 24.7512 24.3397 23.4505 24.8274 22.2944C25.2664 23.8841 26.3882 25.3292 27.8514 26.1482C28.2903 26.389 28.583 26.5335 29.0219 26.7744C28.8756 27.0634 28.4854 27.8823 28.3879 28.1232C28.3391 28.2195 28.2903 28.3159 28.1928 28.364C28.144 28.4604 28.0465 28.5567 27.9489 28.6049L27.6075 28.7494Z" fill="#DD9868"/>
<path fill-rule="evenodd" clip-rule="evenodd" d="M28.8756 33.1812C28.8269 33.4703 28.6318 33.8556 28.3391 34.0001C28.0952 34.0965 27.9002 34.0001 27.9002 33.7111C27.9002 33.3739 28.144 33.0367 28.3879 32.8922C28.6805 32.7477 28.8756 32.8922 28.8756 33.1812Z" fill="#575266"/>
<path fill-rule="evenodd" clip-rule="evenodd" d="M29.217 41.2741C29.1683 41.5631 28.9732 41.9485 28.6805 42.093C28.4367 42.2375 28.2416 42.093 28.2416 41.804C28.2416 41.4668 28.4854 41.1296 28.7293 40.9851C29.0219 40.8405 29.217 40.9851 29.217 41.2741Z" fill="#575266"/>
<path fill-rule="evenodd" clip-rule="evenodd" d="M29.5585 49.3669C29.5097 49.6559 29.3146 50.0413 29.0219 50.1858C28.7781 50.3303 28.583 50.1858 28.583 49.8968C28.583 49.6077 28.8269 49.2224 29.0707 49.0779C29.3634 48.9333 29.5585 49.0779 29.5585 49.3669Z" fill="#130D4F"/>
<path fill-rule="evenodd" clip-rule="evenodd" d="M29.8999 57.4597C29.8999 57.7969 29.656 58.1341 29.3634 58.2786C29.1195 58.4231 28.9244 58.2786 28.9244 57.9896C28.9244 57.7005 29.1683 57.3152 29.4121 57.1707C29.7048 57.0743 29.8999 57.1707 29.8999 57.4597Z" fill="#575266"/>
<path fill-rule="evenodd" clip-rule="evenodd" d="M36.8257 49.0297C39.1181 50.812 37.8988 54.3285 35.9478 54.3285L21.7547 54.5212C19.2672 54.3285 17.6089 52.0645 17.804 50.234C17.804 50.234 20.1939 46.6693 22.0473 46.862L36.8257 49.0297Z" fill="#726B85"/>
<path fill-rule="evenodd" clip-rule="evenodd" d="M45.9464 51.9199L45.8489 52.1608C45.7026 52.5943 45.4587 52.9315 45.0685 53.2205C44.8246 53.4132 44.8246 53.365 44.5808 53.5096C43.8004 53.9431 43.1663 54.0394 42.386 54.4248C42.0933 54.6175 41.7519 54.762 41.4593 54.8584C41.0691 54.9065 40.7277 54.9065 40.3375 54.8584L39.996 54.8102C39.1181 54.6657 36.9233 54.0876 36.0942 53.7504C35.9478 53.7022 35.8503 53.5577 35.7527 53.3169C35.3625 52.4498 35.5576 50.5711 35.8991 50.1857C36.0454 49.993 36.2405 49.8485 36.4356 49.704C37.5574 48.9814 38.9718 48.6442 40.3375 48.8369C40.6301 48.8851 40.9715 48.9814 41.2642 48.8851L41.8494 48.7888C41.8494 48.7888 41.7031 49.2705 41.5568 49.8485C41.4593 50.1376 41.4105 50.5229 41.3617 50.7638C41.8494 51.0528 44.093 50.9565 44.9222 50.7638L45.1661 50.7156C45.5562 50.6193 45.9464 50.5229 46.2391 50.6674C46.7268 50.9083 46.044 51.5827 45.9464 51.9199Z" fill="#FFAE75"/>
<path fill-rule="evenodd" clip-rule="evenodd" d="M40.8739 54.9066C40.6788 54.9066 40.5325 54.9066 40.3374 54.8584L39.996 54.8103C39.7034 54.7621 39.2644 54.6658 38.8254 54.5694C38.5328 54.4731 38.1914 54.4249 37.8987 54.3286C37.5085 54.2322 37.1671 54.1359 36.8745 54.0395C36.5818 53.9432 36.2892 53.8468 36.0941 53.7505C35.9478 53.7023 35.8502 53.5578 35.7527 53.317C37.2647 53.8468 38.8254 54.2322 40.435 54.4249C40.4837 53.606 40.4837 52.8352 40.4837 52.0163C40.7764 52.3535 40.7276 52.8352 40.7276 53.2688C40.7764 53.7023 40.8739 54.184 41.2641 54.3286C41.3617 54.3767 41.4592 54.3767 41.508 54.3767C41.7031 54.3767 41.8982 54.3286 42.0445 54.2804C43.4589 53.7987 44.7271 53.0761 45.8488 52.1608C45.7025 52.5944 45.4587 52.9316 45.0685 53.2206C44.8246 53.4133 44.8246 53.3651 44.5807 53.5096C43.8004 53.9432 43.1663 54.0395 42.3859 54.4249C42.2884 54.5212 42.1908 54.5694 42.0933 54.6176C41.8982 54.7139 41.6543 54.8103 41.4592 54.8584C41.2641 54.9066 41.069 54.9066 40.8739 54.9066Z" fill="#E89F6C"/>
<path fill-rule="evenodd" clip-rule="evenodd" d="M42.6786 51.2455C42.4835 51.2455 42.2884 51.2455 42.0933 51.1973C40.8252 51.101 39.557 50.7156 38.3377 50.3303C38.6303 50.3784 38.8742 50.3784 39.1181 50.3784C39.9472 50.3784 40.8252 50.1857 41.5568 49.8485C41.4592 50.1376 41.4104 50.5229 41.3617 50.7638C41.6055 50.9083 42.2396 50.9565 42.9224 50.9565C43.7028 50.9565 44.4832 50.8601 44.9221 50.7638L45.166 50.7156C44.3856 51.0528 43.5565 51.2455 42.6786 51.2455Z" fill="#E89F6C"/>
<path fill-rule="evenodd" clip-rule="evenodd" d="M46.9503 48.736C46.3125 50.753 45.7958 51.2469 44.0641 51.2469C42.3324 51.2469 40.6006 51.0175 40.6006 48.736C40.6006 47.0248 42.3324 45.8841 44.0641 45.8841C45.7958 45.8841 46.9503 47.0248 46.9503 48.736Z" fill="#FF2C38"/>
<path opacity="0.2" d="M77.3214 157.544L40.3614 136.468L65.5014 122.018L102.461 143.095L77.3214 157.544Z" fill="black"/>
<path d="M100.061 143.372L77.9314 155.846L42.9914 135.994L65.2314 123.974L100.061 143.372Z" fill="#7A4100"/>
<path d="M43.5714 130.897V136.932L42.4014 136.26V130.226L43.5714 130.897Z" fill="#D29142"/>
<path d="M66.4014 117.88V123.915L43.5714 136.932V130.897L66.4014 117.88Z" fill="#DFAD61"/>
<path d="M65.2314 117.218L66.4014 117.88L43.5714 130.897L42.4014 130.226L65.2314 117.218Z" fill="#ECBD7A"/>
<path d="M43.5714 121.297V127.332L42.4014 126.66V120.626L43.5714 121.297Z" fill="#D29142"/>
<path d="M66.4014 108.28V114.315L43.5714 127.332V121.297L66.4014 108.28Z" fill="#DFAD61"/>
<path d="M65.2314 107.609L66.4014 108.28L43.5714 121.297L42.4014 120.626L65.2314 107.609Z" fill="#ECBD7A"/>
<path d="M47.9614 136.26L46.3614 137.169L45.5514 123.381V119.49L46.3614 118.917L47.9614 118.018V136.26Z" fill="#DFAD61"/>
<path d="M46.3614 137.169L44.7514 136.26V118.018L46.3614 118.917V137.169Z" fill="#D29142"/>
<path d="M47.9614 118.018L46.3614 118.917L44.7514 118.018L46.3614 117.1L47.9614 118.018Z" fill="#ECBD7A"/>
<path d="M98.4114 137.465V143.5L99.5814 142.838V136.804L98.4114 137.465Z" fill="#DFAD61"/>
<path d="M65.2314 118.552V124.586L98.4114 143.5V137.465L65.2314 118.552Z" fill="#D29142"/>
<path d="M66.4014 117.88L65.2314 118.552L98.4114 137.465L99.5814 136.804L66.4014 117.88Z" fill="#ECBD7A"/>
<path d="M98.4114 127.865V133.91L99.5814 133.238V127.204L98.4114 127.865Z" fill="#DFAD61"/>
<path d="M65.2314 108.952V114.986L98.4114 133.91V127.865L65.2314 108.952Z" fill="#D29142"/>
<path d="M66.4014 108.28L65.2314 108.952L98.4114 127.865L99.5814 127.204L66.4014 108.28Z" fill="#ECBD7A"/>
<path d="M98.4114 143.5L96.8014 144.418L96.0014 130.621V126.73L96.8014 126.176L98.4114 125.258V143.5Z" fill="#DFAD61"/>
<path d="M96.8014 144.418L95.2014 143.5V125.258L96.8014 126.176V144.418Z" fill="#D29142"/>
<path d="M98.4114 125.258L96.8014 126.176L95.2014 125.258L96.8014 124.339L98.4114 125.258Z" fill="#ECBD7A"/>
<path d="M66.8014 125.515L65.2014 126.433L64.4014 112.626V108.744L65.2014 108.181L66.8014 107.263V125.515Z" fill="#DFAD61"/>
<path d="M65.2114 126.433L63.5914 125.515V107.263L65.2014 108.181L65.2114 126.433Z" fill="#D29142"/>
<path d="M66.8014 107.263L65.2014 108.181L63.5914 107.263L65.2014 106.354L66.8014 107.263Z" fill="#ECBD7A"/>
<path d="M46.4514 131.776C46.0514 133.851 46.9714 135.944 49.0314 136.576C51.0914 137.199 53.0514 135.984 53.8914 134.048C54.8714 131.786 54.1714 129.939 51.2614 129.436C48.9314 127.925 46.9014 129.515 46.4514 131.776Z" fill="#FF3F4A"/>
<path d="M52.5014 136.093C53.1714 138.088 55.0314 139.47 57.1314 139.026C59.2314 138.572 60.3414 136.557 60.1114 134.463C59.8414 132.014 58.3114 130.739 55.5214 131.717C52.7414 131.52 51.7614 133.9 52.5014 136.093Z" fill="#9C251F"/>
<path d="M57.8314 138.996C58.7314 140.912 60.7314 142.068 62.7714 141.386C64.8114 140.705 65.6714 138.581 65.2114 136.527C64.6714 134.127 63.0014 133.041 60.3414 134.315C57.5614 134.433 56.8514 136.902 57.8314 138.996Z" fill="#E31B25"/>
<path d="M62.1314 140.991C61.7214 143.065 62.6514 145.159 64.7114 145.791C66.7714 146.423 68.7314 145.199 69.5714 143.273C70.5614 141.011 69.8514 139.164 66.9514 138.651C64.6114 137.12 62.5714 138.71 62.1314 140.991Z" fill="#FF3F4A"/>
<path d="M68.1814 145.297C68.8614 147.293 70.7114 148.675 72.8114 148.221C74.9114 147.776 76.0214 145.762 75.7914 143.668C75.5214 141.209 73.9914 139.944 71.2014 140.922C68.4214 140.725 67.4414 143.105 68.1814 145.297Z" fill="#9C251F"/>
<path d="M73.5114 148.201C74.4114 150.107 76.4114 151.273 78.4514 150.591C80.4914 149.91 81.3514 147.786 80.8914 145.732C80.3414 143.322 78.6814 142.236 76.0214 143.51C73.2314 143.648 72.5314 146.107 73.5114 148.201Z" fill="#E31B25"/>
<path d="M96.7914 137.623C97.1914 139.697 96.2714 141.791 94.2114 142.423C92.1514 143.046 90.1914 141.831 89.3514 139.895C88.3614 137.633 89.0714 135.786 91.9814 135.283C94.3014 133.772 96.3414 135.362 96.7914 137.623Z" fill="#FF3F4A"/>
<path d="M90.7414 141.949C90.0614 143.944 88.2114 145.317 86.1014 144.873C84.0014 144.418 82.9014 142.404 83.1314 140.31C83.4014 137.86 84.9314 136.586 87.7214 137.564C90.5014 137.377 91.4814 139.747 90.7414 141.949Z" fill="#9C251F"/>
<path d="M85.4014 144.843C84.5014 146.759 82.5014 147.915 80.4614 147.243C78.4214 146.562 77.5514 144.438 78.0214 142.374C78.5614 139.974 80.2314 138.888 82.8914 140.162C85.6814 140.28 86.3914 142.739 85.4014 144.843Z" fill="#E31B25"/>
<path d="M63.0614 117.189C63.9614 119.105 65.9614 120.27 68.0014 119.579C70.0314 118.907 70.9014 116.774 70.4414 114.73C69.8914 112.32 68.2314 111.233 65.5714 112.507C62.7814 112.626 62.0714 115.095 63.0614 117.189Z" fill="#E31B25"/>
<path d="M58.0314 117.218C57.6314 119.283 58.5514 121.386 60.6114 122.009C62.6614 122.641 64.6314 121.426 65.4714 119.49C66.4514 117.228 65.7514 115.372 62.8414 114.868C60.5114 113.357 58.4814 114.947 58.0314 117.218Z" fill="#FF3F4A"/>
<path d="M54.0614 122.512C54.7414 124.507 56.5914 125.88 58.7014 125.436C60.7914 124.981 61.9014 122.967 61.6714 120.873C61.4014 118.414 59.8714 117.149 57.0914 118.117C54.2914 117.939 53.3214 120.31 54.0614 122.512Z" fill="#9C251F"/>
<path d="M51.6014 125.643C52.5014 127.559 54.5014 128.715 56.5414 128.033C58.5814 127.352 59.4414 125.228 58.9814 123.174C58.4414 120.764 56.7714 119.678 54.1114 120.952C51.3314 121.08 50.6214 123.539 51.6014 125.643Z" fill="#E31B25"/>
<path d="M46.5814 125.653C46.1714 127.717 47.1014 129.821 49.1614 130.453C51.2114 131.075 53.1814 129.86 54.0214 127.925C55.0014 125.663 54.3014 123.816 51.3914 123.312C49.0514 121.791 47.0214 123.391 46.5814 125.653Z" fill="#FF3F4A"/>
<path d="M67.6514 119.362C68.3214 121.357 70.1814 122.73 72.2914 122.285C74.3914 121.831 75.4914 119.816 75.2614 117.722C74.9914 115.273 73.4614 113.999 70.6714 114.976C67.8914 114.789 66.9114 117.169 67.6514 119.362Z" fill="#9C251F"/>
<path d="M62.6614 123.421C63.5614 125.337 65.5614 126.493 67.6014 125.821C69.6414 125.139 70.5114 123.016 70.0414 120.952C69.4914 118.552 67.8214 117.465 65.1714 118.739C62.3914 118.858 61.6814 121.317 62.6614 123.421Z" fill="#E31B25"/>
<path d="M57.8114 124.497C57.4014 126.562 58.3414 128.665 60.3914 129.297C62.4414 129.92 64.4114 128.705 65.2514 126.769C66.2414 124.517 65.5314 122.66 62.6314 122.157C60.3014 120.636 58.2514 122.226 57.8114 124.497Z" fill="#FF3F4A"/>
<path d="M52.6214 129.969C53.3014 131.964 55.1514 133.347 57.2614 132.893C59.3514 132.438 60.4614 130.433 60.2314 128.33C59.9614 125.88 58.4314 124.606 55.6514 125.584C52.8614 125.396 51.8814 127.776 52.6214 129.969Z" fill="#9C251F"/>
<path d="M73.1114 123.352C74.0114 125.258 76.0114 126.423 78.0514 125.742C80.0814 125.06 80.9514 122.937 80.4914 120.883C79.9414 118.473 78.2714 117.386 75.6214 118.67C72.8314 118.779 72.1214 121.258 73.1114 123.352Z" fill="#E31B25"/>
<path d="M64.1114 128.665C64.7814 130.66 66.6414 132.033 68.7414 131.589C70.8414 131.134 71.9414 129.12 71.7214 127.026C71.4514 124.576 69.9114 123.302 67.1314 124.28C64.3414 124.093 63.3614 126.463 64.1114 128.665Z" fill="#9C251F"/>
<path d="M61.6514 131.796C62.5514 133.712 64.5514 134.868 66.5914 134.196C68.6314 133.515 69.4914 131.391 69.0314 129.337C68.4814 126.927 66.8214 125.841 64.1614 127.115C61.3714 127.233 60.6714 129.693 61.6514 131.796Z" fill="#E31B25"/>
<path d="M56.6214 131.816C56.2214 133.89 57.1414 135.984 59.2014 136.626C61.2514 137.248 63.2214 136.033 64.0614 134.097C65.0414 131.836 64.3414 129.989 61.4314 129.485C59.1014 127.954 57.0714 129.544 56.6214 131.816Z" fill="#FF3F4A"/>
<path d="M77.7014 125.515C78.3814 127.52 80.2314 128.893 82.3414 128.448C84.4314 127.994 85.5414 125.979 85.3114 123.885C85.0414 121.426 83.5114 120.152 80.7314 121.139C77.9414 120.942 76.9514 123.322 77.7014 125.515Z" fill="#9C251F"/>
<path d="M72.7114 129.584C73.6114 131.49 75.6114 132.656 77.6514 131.974C79.6914 131.293 80.5614 129.169 80.0914 127.115C79.5414 124.715 77.8714 123.618 75.2214 124.893C72.4314 125.021 71.7314 127.48 72.7114 129.584Z" fill="#E31B25"/>
<path d="M67.8614 130.651C67.4614 132.725 68.3914 134.818 70.4414 135.46C72.5014 136.083 74.4614 134.858 75.3014 132.932C76.2814 130.67 75.5814 128.814 72.6714 128.31C70.3414 126.799 68.3114 128.389 67.8614 130.651Z" fill="#FF3F4A"/>
<path d="M62.6814 136.122C63.3514 138.127 65.2114 139.5 67.3114 139.055C69.4014 138.601 70.5114 136.586 70.2914 134.493C70.0214 132.033 68.4814 130.769 65.7014 131.747C62.9114 131.549 61.9314 133.939 62.6814 136.122Z" fill="#9C251F"/>
<path d="M84.0014 129.258C84.9014 131.164 86.9014 132.33 88.9414 131.648C90.9814 130.967 91.8514 128.843 91.3814 126.789C90.8314 124.379 89.1714 123.293 86.5214 124.567C83.7114 124.685 83.0114 127.144 84.0014 129.258Z" fill="#E31B25"/>
<path d="M78.9614 129.268C78.5514 131.332 79.4814 133.426 81.5414 134.068C83.5914 134.69 85.5614 133.475 86.4014 131.539C87.3914 129.278 86.6814 127.421 83.7814 126.927C81.4514 125.406 79.4114 126.996 78.9614 129.268Z" fill="#FF3F4A"/>
<path d="M74.9914 134.562C75.6614 136.567 77.5214 137.939 79.6214 137.495C81.7214 137.041 82.8214 135.026 82.6014 132.932C82.3314 130.483 80.8014 129.209 78.0114 130.186C75.2314 129.999 74.2514 132.369 74.9914 134.562Z" fill="#9C251F"/>
<path d="M72.5414 137.702C73.4414 139.609 75.4414 140.774 77.4814 140.093C79.5214 139.411 80.3914 137.297 79.9214 135.233C79.3814 132.833 77.7114 131.747 75.0614 133.021C72.2614 133.13 71.5514 135.599 72.5414 137.702Z" fill="#E31B25"/>
<path d="M67.5114 137.712C67.1014 139.786 68.0314 141.88 70.0914 142.522C72.1514 143.144 74.1114 141.92 74.9514 139.994C75.9414 137.732 75.2414 135.875 72.3214 135.372C69.9914 133.86 67.9514 135.441 67.5114 137.712Z" fill="#FF3F4A"/>
<path d="M88.5814 131.421C89.2514 133.416 91.1114 134.799 93.2114 134.344C95.3114 133.89 96.4214 131.885 96.1914 129.791C95.9214 127.332 94.3914 126.058 91.6014 127.036C88.8214 126.848 87.8414 129.218 88.5814 131.421Z" fill="#9C251F"/>
<path d="M83.6014 135.48C84.5014 137.386 86.5014 138.552 88.5414 137.86C90.5814 137.189 91.4414 135.065 90.9714 133.011C90.4314 130.601 88.7614 129.515 86.1014 130.789C83.3114 130.917 82.6114 133.386 83.6014 135.48Z" fill="#E31B25"/>
<path d="M78.7514 136.557C78.3414 138.631 79.2714 140.725 81.3314 141.357C83.3814 141.989 85.3514 140.764 86.1914 138.838C87.1814 136.576 86.4714 134.72 83.5614 134.216C81.2314 132.695 79.1914 134.285 78.7514 136.557Z" fill="#FF3F4A"/>
<path d="M73.5614 142.028C74.2414 144.023 76.0914 145.396 78.2014 144.962C80.3014 144.507 81.4014 142.493 81.1814 140.389C80.9114 137.939 79.3814 136.675 76.5914 137.653C73.8014 137.465 72.8114 139.826 73.5614 142.028Z" fill="#9C251F"/>
<path d="M79.5314 154.255L77.9314 155.174L77.1314 141.376V137.495L77.9314 136.922L79.5314 136.013V154.255Z" fill="#DFAD61"/>
<path d="M77.9314 155.174L76.3314 154.255V136.013L77.9314 136.922V155.174Z" fill="#D29142"/>
<path d="M79.5314 136.013L77.9314 136.922L76.3314 136.013L77.9314 135.105L79.5314 136.013Z" fill="#ECBD7A"/>
<path d="M76.7614 149.811V155.846L77.9314 155.174V149.139L76.7614 149.811Z" fill="#DFAD61"/>
<path d="M43.5714 130.897V136.932L76.7614 155.846V149.811L43.5714 130.897Z" fill="#D29142"/>
<path d="M44.7514 130.226L43.5714 130.897L76.7614 149.811L77.9314 149.139L44.7514 130.226Z" fill="#ECBD7A"/>
<path d="M76.7614 140.211V146.246L77.9314 145.574V139.539L76.7614 140.211Z" fill="#DFAD61"/>
<path d="M43.5714 121.297V127.332L76.7614 146.246V140.211L43.5714 121.297Z" fill="#D29142"/>
<path d="M44.7514 120.626L43.5714 121.297L76.7614 140.211L77.9314 139.539L44.7514 120.626Z" fill="#ECBD7A"/>
<path d="M77.9314 150.483V156.517L76.7614 155.846V149.811L77.9314 150.483Z" fill="#D29142"/>
<path d="M100.751 137.465V143.5L77.9314 156.517V150.483L100.751 137.465Z" fill="#DFAD61"/>
<path d="M99.5814 136.804L100.751 137.465L77.9314 150.483L76.7614 149.811L99.5814 136.804Z" fill="#ECBD7A"/>
<path d="M77.9314 140.883V146.917L76.7614 146.246V140.211L77.9314 140.883Z" fill="#D29142"/>
<path d="M100.751 127.865V133.91L77.9314 146.917V140.883L100.751 127.865Z" fill="#DFAD61"/>
<path d="M99.5814 127.204L100.751 127.865L77.9314 140.883L76.7614 140.211L99.5814 127.204Z" fill="#ECBD7A"/>
</svg>
