<svg width="15" height="15" fill="none" xmlns="http://www.w3.org/2000/svg"><circle cx="7.5" cy="7.581" r="6.5" stroke="#919191"/><path d="M7.955 9.306H6.91l-.004-.275c0-.34.056-.618.168-.837.113-.219.337-.465.673-.738.336-.273.537-.453.603-.537a.738.738 0 00-.119-1.017c-.178-.162-.418-.243-.722-.243-.292 0-.537.084-.734.25-.197.167-.332.422-.406.764L5.31 6.54c.03-.49.238-.905.623-1.247.389-.341.897-.512 1.526-.512.662 0 1.188.173 1.58.52.39.345.586.747.586 1.207 0 .254-.073.494-.218.721-.142.227-.448.536-.918.927-.244.203-.396.365-.456.488-.057.123-.083.344-.078.66zm-1.046 1.55V9.704h1.153v1.152H6.909z" fill="#919191"/></svg>