<svg width="40" height="40" fill="none" xmlns="http://www.w3.org/2000/svg"><path fill-rule="evenodd" clip-rule="evenodd" d="M21.667 13.333c.92 0 1.667.746 1.667 1.667v6.667c0 .92-.746 1.666-1.667 1.666h-5a1.667 1.667 0 010-3.333h3.334v-5c0-.92.746-1.667 1.666-1.667z" fill="#FFCC4A"/><path fill-rule="evenodd" clip-rule="evenodd" d="M20 6.667c-7.363 0-13.333 5.97-13.333 13.333 0 7.364 5.97 13.333 13.334 13.333 7.363 0 13.333-5.97 13.333-13.333 0-7.364-5.97-13.333-13.333-13.333zM3.335 20c0-9.205 7.462-16.667 16.667-16.667 9.204 0 16.666 7.462 16.666 16.667 0 9.205-7.462 16.667-16.666 16.667-9.205 0-16.667-7.462-16.667-16.667z" fill="#FFCC4A"/></svg>