<svg width="44" height="44" fill="none" xmlns="http://www.w3.org/2000/svg"><path d="M0 22C0 9.85 9.85 0 22 0s22 9.85 22 22-9.85 22-22 22S0 34.15 0 22z" fill="#fff"/><circle cx="22" cy="22" r=".629" fill="#090909"/><path d="M17.679 29.464h8.643v1.965h-8.643v-1.965zm0-3.142h8.643v1.964h-8.643V26.32zm0-3.144h8.643v1.965h-8.643v-1.965z" fill="#090909"/><path d="M22 12.572c-5.201 0-9.428 4.227-9.428 9.428v8.054c0 .754.62 1.375 1.375 1.375H16.5v-8.84c0-.322.267-.589.59-.589h9.82c.323 0 .59.267.59.59v8.839h2.554c.754 0 1.375-.621 1.375-1.375V22c0-5.201-4.227-9.428-9.429-9.428z" fill="#090909"/></svg>