<svg width="16" height="17" fill="none" xmlns="http://www.w3.org/2000/svg"><path d="M12.05 1.536l2.782 2.9v11.028H4.439v.036h10.428V4.473L12.05 1.536z" fill="#909090"/><path d="M12.016 1.5H4.404v13.964h10.428V4.437L12.015 1.5" fill="#F4F4F4"/><path d="M4.328 2.25H1.133v3.413h10.05V2.25H4.328z" fill="#7A7B7C"/><path d="M11.236 5.606H1.197V2.19h10.039v3.416z" fill="#DD2025"/><path d="M4.527 2.767h-.654v2.4h.514v-.81l.114.007c.11-.002.22-.022.323-.058a.714.714 0 00.414-.373c.05-.146.068-.3.053-.454a1.119 1.119 0 00-.057-.322.587.587 0 00-.344-.325 1.075 1.075 0 00-.364-.065zm-.095 1.147h-.045v-.74h.097a.285.285 0 01.229.09.46.46 0 01.092.28c0 .123 0 .234-.111.313a.471.471 0 01-.262.057M6.266 2.76c-.056 0-.11.004-.148.006L6 2.769h-.39v2.4h.46c.175.005.35-.025.513-.088a.855.855 0 00.34-.245.97.97 0 00.187-.375c.04-.155.058-.314.057-.474a2.208 2.208 0 00-.044-.564.888.888 0 00-.467-.566c-.088-.04-.18-.07-.275-.089a.641.641 0 00-.114-.009v.001zm-.09 1.968h-.05V3.196h.006a.531.531 0 01.3.053.65.65 0 01.233.463c.004.11 0 .2 0 .275.002.086-.004.172-.017.256a.878.878 0 01-.084.25.565.565 0 01-.182.18.336.336 0 01-.208.053m2.541-1.957H7.5v2.4h.514v-.952h.65v-.446h-.65v-.556h.7v-.446" fill="#464648"/><path d="M10.89 10.627s1.594-.289 1.594.256c0 .545-.987.323-1.594-.255zm-1.178.042c-.253.056-.5.138-.737.245l.2-.45c.2-.45.408-1.064.408-1.064.239.402.516.779.829 1.126-.236.035-.47.083-.7.144v-.001zm-.631-3.25c0-.474.153-.604.273-.604.12 0 .254.058.258.47a5.394 5.394 0 01-.258 1.217A2.213 2.213 0 019.08 7.42zm-2.325 5.258c-.489-.293 1.026-1.193 1.3-1.222-.001 0-.788 1.528-1.3 1.222zm6.194-1.73c-.005-.05-.05-.603-1.035-.58a7.207 7.207 0 00-1.227.087 6.273 6.273 0 01-1.006-1.327 5.88 5.88 0 00.312-1.55c-.015-.6-.158-.944-.618-.94-.46.006-.527.408-.467 1.007.06.403.171.796.333 1.169 0 0-.213.662-.494 1.32a11.858 11.858 0 01-.473 1.003 4.806 4.806 0 00-1.362.7c-.412.383-.58.678-.363.972.187.254.842.312 1.427-.455.31-.396.595-.812.85-1.246 0 0 .892-.244 1.17-.311.277-.067.612-.12.612-.12s.815.819 1.6.79c.786-.029.748-.47.743-.518" fill="#DD2025"/><path d="M11.977 1.539v2.936h2.816l-2.816-2.936z" fill="#909090"/><path d="M12.016 1.5v2.936h2.816L12.016 1.5z" fill="#F4F4F4"/><path d="M4.487 2.729h-.653v2.4h.516v-.81l.114.007c.11-.002.22-.022.323-.058a.714.714 0 00.413-.373c.05-.146.068-.3.052-.454a1.118 1.118 0 00-.057-.322.586.586 0 00-.343-.325 1.074 1.074 0 00-.365-.065zm-.095 1.147h-.044v-.74h.097a.285.285 0 01.23.09.46.46 0 01.091.279c0 .123 0 .235-.111.313a.471.471 0 01-.262.057m1.834-1.153c-.055 0-.11.004-.147.006l-.118.003h-.39v2.4h.46c.175.004.35-.025.513-.088a.855.855 0 00.34-.245.97.97 0 00.187-.375c.039-.155.058-.315.057-.474a2.209 2.209 0 00-.044-.564.888.888 0 00-.467-.566 1.265 1.265 0 00-.275-.09.641.641 0 00-.114-.008l-.002.001zM6.138 4.69h-.05V3.158h.007a.531.531 0 01.3.053.65.65 0 01.233.463c.004.11 0 .2 0 .275.002.085-.004.171-.017.256a.878.878 0 01-.084.25.565.565 0 01-.182.18.337.337 0 01-.208.053M8.676 2.73H7.46v2.4h.514v-.95h.65v-.446h-.65v-.556h.7V2.73" fill="#fff"/></svg>