<svg width="68" height="68" fill="none" xmlns="http://www.w3.org/2000/svg"><path fill-rule="evenodd" clip-rule="evenodd" d="M17 19.833a2.833 2.833 0 012.834 2.834v31.166a2.833 2.833 0 002.833 2.834h22.667a2.833 2.833 0 002.833-2.834V22.667a2.833 2.833 0 115.667 0v31.166a8.5 8.5 0 01-8.5 8.5H22.667a8.5 8.5 0 01-8.5-8.5V22.667a2.833 2.833 0 012.834-2.834z" fill="#919191"/><path fill-rule="evenodd" clip-rule="evenodd" d="M28.334 22.667a2.833 2.833 0 012.833 2.833v22.667a2.833 2.833 0 11-5.666 0V25.5a2.833 2.833 0 012.833-2.833zm11.333 0a2.833 2.833 0 012.834 2.833v22.667a2.833 2.833 0 11-5.667 0V25.5a2.833 2.833 0 012.833-2.833z" fill="#919191"/><path d="M11.334 14.167a2.833 2.833 0 012.833-2.834h39.667a2.833 2.833 0 110 5.667H14.167a2.833 2.833 0 01-2.833-2.833zM22.667 8.5a2.833 2.833 0 012.834-2.833h17A2.833 2.833 0 0145.334 8.5v2.833H22.667V8.5z" fill="#919191"/></svg>