<svg width="40" height="40" fill="none" xmlns="http://www.w3.org/2000/svg"><path fill-rule="evenodd" clip-rule="evenodd" d="M26.18 15.488c.65.65.65 1.706 0 2.357l-6.668 6.667c-.65.65-1.706.65-2.357 0l-3.333-3.334a1.667 1.667 0 012.357-2.357l2.155 2.155 5.488-5.488a1.668 1.668 0 012.357 0z" fill="#46C269"/><path fill-rule="evenodd" clip-rule="evenodd" d="M20 6.667c-7.363 0-13.333 5.97-13.333 13.333 0 7.364 5.97 13.333 13.334 13.333 7.363 0 13.333-5.97 13.333-13.333 0-7.364-5.97-13.333-13.333-13.333zM3.335 20c0-9.205 7.462-16.667 16.667-16.667 9.204 0 16.666 7.462 16.666 16.667 0 9.205-7.462 16.667-16.666 16.667-9.205 0-16.667-7.462-16.667-16.667z" fill="#46C269"/></svg>