<svg width="13" height="10" viewBox="0 0 13 10" fill="none" xmlns="http://www.w3.org/2000/svg">
<path d="M12.2329 2.53662C12.2329 2.73844 12.1623 2.90999 12.021 3.05127L6.5415 8.53076L5.51221 9.56006C5.37093 9.70133 5.19938 9.77197 4.99756 9.77197C4.79574 9.77197 4.62419 9.70133 4.48291 9.56006L3.45361 8.53076L0.713867 5.79102C0.572591 5.64974 0.501953 5.47819 0.501953 5.27637C0.501953 5.07454 0.572591 4.90299 0.713867 4.76172L1.74316 3.73242C1.88444 3.59115 2.05599 3.52051 2.25781 3.52051C2.45964 3.52051 2.63118 3.59115 2.77246 3.73242L4.99756 5.96509L9.9624 0.992676C10.1037 0.8514 10.2752 0.780762 10.4771 0.780762C10.6789 0.780762 10.8504 0.8514 10.9917 0.992676L12.021 2.02197C12.1623 2.16325 12.2329 2.3348 12.2329 2.53662Z" fill="#737373"/>
</svg>
