<svg width="19" height="19" viewBox="0 0 19 19" fill="none" xmlns="http://www.w3.org/2000/svg">
<path d="M13.1702 9.18873C13.1706 9.41404 13.0921 9.63239 12.9484 9.80588L8.12694 15.5916C7.96326 15.7885 7.72806 15.9124 7.47308 15.9359C7.2181 15.9594 6.96422 15.8806 6.7673 15.7169C6.57037 15.5533 6.44653 15.3181 6.42303 15.0631C6.39952 14.8081 6.47826 14.5542 6.64194 14.3573L10.9619 9.18873L6.79622 4.02016C6.71613 3.92153 6.65631 3.80803 6.62021 3.68621C6.58412 3.56438 6.57246 3.43662 6.5859 3.31027C6.59934 3.18392 6.63762 3.06148 6.69854 2.94997C6.75945 2.83846 6.84181 2.74009 6.94087 2.66052C7.04002 2.57221 7.15633 2.50533 7.28253 2.46406C7.40873 2.4228 7.5421 2.40804 7.67426 2.42072C7.80643 2.43339 7.93456 2.47322 8.05062 2.53772C8.16667 2.60221 8.26816 2.68998 8.34872 2.79552L13.0062 8.58123C13.1273 8.75971 13.185 8.9736 13.1702 9.18873Z" fill="#919191"/>
</svg>
