<svg width="15" height="15" viewBox="0 0 15 15" fill="none" xmlns="http://www.w3.org/2000/svg">
<circle cx="7.5" cy="7.58105" r="6.5" stroke="#919191"/>
<path d="M7.95532 9.30576H6.90942C6.90669 9.15537 6.90532 9.06377 6.90532 9.03096C6.90532 8.69189 6.96138 8.41299 7.07349 8.19424C7.1856 7.97549 7.40981 7.72939 7.74614 7.45596C8.08247 7.18252 8.28345 7.00342 8.34907 6.91865C8.45024 6.78467 8.50083 6.63701 8.50083 6.47568C8.50083 6.25146 8.4106 6.06006 8.23013 5.90146C8.05239 5.74014 7.81177 5.65947 7.50825 5.65947C7.21567 5.65947 6.97095 5.74287 6.77407 5.90967C6.5772 6.07646 6.44185 6.33076 6.36802 6.67256L5.30981 6.54131C5.33989 6.05186 5.54771 5.63623 5.93325 5.29443C6.32153 4.95264 6.83013 4.78174 7.45903 4.78174C8.12075 4.78174 8.64712 4.95537 9.03813 5.30264C9.42915 5.64717 9.62466 6.04912 9.62466 6.5085C9.62466 6.76279 9.5522 7.00342 9.40728 7.23037C9.26509 7.45732 8.95884 7.76631 8.48853 8.15732C8.24517 8.35967 8.09341 8.52236 8.03325 8.64541C7.97583 8.76846 7.94985 8.98857 7.95532 9.30576ZM6.90942 10.8562V9.70361H8.06196V10.8562H6.90942Z" fill="#919191"/>
</svg>
