<svg width="40" height="40" viewBox="0 0 40 40" fill="none" xmlns="http://www.w3.org/2000/svg">
<path d="M21.6673 28.3333C21.6673 29.2537 20.9211 29.9999 20.0007 29.9999C19.0802 29.9999 18.334 29.2537 18.334 28.3333C18.334 27.4128 19.0802 26.6666 20.0007 26.6666C20.9211 26.6666 21.6673 27.4128 21.6673 28.3333Z" fill="#EB5151"/>
<path fill-rule="evenodd" clip-rule="evenodd" d="M20.0007 9.99992C20.9211 9.99992 21.6673 10.7461 21.6673 11.6666V21.6666C21.6673 22.5871 20.9211 23.3333 20.0007 23.3333C19.0802 23.3333 18.334 22.5871 18.334 21.6666V11.6666C18.334 10.7461 19.0802 9.99992 20.0007 9.99992Z" fill="#EB5151"/>
<path fill-rule="evenodd" clip-rule="evenodd" d="M20.0007 6.66659C12.6369 6.66659 6.66732 12.6361 6.66732 19.9999C6.66732 27.3637 12.6369 33.3333 20.0007 33.3333C27.3644 33.3333 33.334 27.3637 33.334 19.9999C33.334 12.6361 27.3644 6.66659 20.0007 6.66659ZM3.33398 19.9999C3.33398 10.7952 10.7959 3.33325 20.0007 3.33325C29.2054 3.33325 36.6673 10.7952 36.6673 19.9999C36.6673 29.2047 29.2054 36.6666 20.0007 36.6666C10.7959 36.6666 3.33398 29.2047 3.33398 19.9999Z" fill="#EB5151"/>
</svg>
