<svg width="40" height="40" viewBox="0 0 40 40" fill="none" xmlns="http://www.w3.org/2000/svg">
<path fill-rule="evenodd" clip-rule="evenodd" d="M21.6673 13.3333C22.5878 13.3333 23.334 14.0794 23.334 14.9999V21.6666C23.334 22.5871 22.5878 23.3333 21.6673 23.3333H16.6673C15.7468 23.3333 15.0007 22.5871 15.0007 21.6666C15.0007 20.7461 15.7468 19.9999 16.6673 19.9999H20.0007V14.9999C20.0007 14.0794 20.7468 13.3333 21.6673 13.3333Z" fill="#FFCC4A"/>
<path fill-rule="evenodd" clip-rule="evenodd" d="M20.0007 6.66659C12.6369 6.66659 6.66732 12.6361 6.66732 19.9999C6.66732 27.3637 12.6369 33.3333 20.0007 33.3333C27.3644 33.3333 33.334 27.3637 33.334 19.9999C33.334 12.6361 27.3644 6.66659 20.0007 6.66659ZM3.33398 19.9999C3.33398 10.7952 10.7959 3.33325 20.0007 3.33325C29.2054 3.33325 36.6673 10.7952 36.6673 19.9999C36.6673 29.2047 29.2054 36.6666 20.0007 36.6666C10.7959 36.6666 3.33398 29.2047 3.33398 19.9999Z" fill="#FFCC4A"/>
</svg>
