<svg width="44" height="44" viewBox="0 0 44 44" fill="none" xmlns="http://www.w3.org/2000/svg">
<path d="M0 22C0 9.84974 9.84974 0 22 0C34.1503 0 44 9.84974 44 22C44 34.1503 34.1503 44 22 44C9.84974 44 0 34.1503 0 22Z" fill="white"/>
<circle cx="21.9999" cy="21.9999" r="0.628571" fill="#090909"/>
<path d="M17.6787 29.4644H26.3216V31.4286H17.6787V29.4644Z" fill="#090909"/>
<path d="M17.6787 26.3215H26.3216V28.2858H17.6787V26.3215Z" fill="#090909"/>
<path d="M17.6787 23.1785H26.3216V25.1428H17.6787V23.1785Z" fill="#090909"/>
<path d="M22.0001 12.5715C16.7987 12.5715 12.5715 16.7987 12.5715 22.0001V30.0537C12.5715 30.808 13.1922 31.4287 13.9465 31.4287H16.5001V22.5894C16.5001 22.2672 16.7672 22.0001 17.0894 22.0001H26.9108C27.233 22.0001 27.5001 22.2672 27.5001 22.5894V31.4287H30.0537C30.808 31.4287 31.4287 30.808 31.4287 30.0537V22.0001C31.4287 16.7987 27.2015 12.5715 22.0001 12.5715Z" fill="#090909"/>
</svg>
