<svg width="24" height="24" viewBox="0 0 24 24" fill="none" xmlns="http://www.w3.org/2000/svg">
<path fill-rule="evenodd" clip-rule="evenodd" d="M16.9497 7.05033C17.3403 7.44086 17.3403 8.07402 16.9497 8.46455L8.46447 16.9498C8.07394 17.3404 7.44078 17.3404 7.05025 16.9498C6.65973 16.5593 6.65973 15.9261 7.05025 15.5356L15.5355 7.05033C15.9261 6.65981 16.5592 6.65981 16.9497 7.05033Z" fill="black"/>
<path fill-rule="evenodd" clip-rule="evenodd" d="M7.05025 7.05033C7.44078 6.65981 8.07394 6.65981 8.46447 7.05033L16.9497 15.5356C17.3403 15.9261 17.3403 16.5593 16.9497 16.9498C16.5592 17.3404 15.9261 17.3404 15.5355 16.9498L7.05025 8.46455C6.65973 8.07402 6.65973 7.44086 7.05025 7.05033Z" fill="black"/>
</svg>
