<svg width="16" height="17" viewBox="0 0 16 17" fill="none" xmlns="http://www.w3.org/2000/svg">
<path d="M12.05 1.53601L14.832 4.43601V15.464H4.43945V15.5H14.8675V4.47251L12.05 1.53601Z" fill="#909090"/>
<path d="M12.0158 1.5H4.4043V15.464H14.8323V4.4365L12.0153 1.5" fill="#F4F4F4"/>
<path d="M4.32781 2.25H1.13281V5.6635H11.1828V2.25H4.32781Z" fill="#7A7B7C"/>
<path d="M11.2358 5.60551H1.19727V2.18951H11.2358V5.60551Z" fill="#DD2025"/>
<path d="M4.52655 2.76703H3.87305V5.16703H4.38705V4.35753L4.50055 4.36403C4.61083 4.36213 4.72008 4.34238 4.82405 4.30553C4.9152 4.27418 4.99905 4.22468 5.07055 4.16003C5.1433 4.09844 5.20065 4.02071 5.23805 3.93303C5.28819 3.78728 5.30611 3.63238 5.29055 3.47903C5.28742 3.36948 5.26822 3.26099 5.23355 3.15703C5.20198 3.08198 5.15514 3.01433 5.096 2.95838C5.03686 2.90242 4.96672 2.85939 4.89005 2.83203C4.82375 2.80803 4.75525 2.79061 4.68555 2.78003C4.63276 2.77188 4.57946 2.76754 4.52605 2.76703H4.52655ZM4.43155 3.91403H4.38705V3.17403H4.48355C4.52614 3.17096 4.56887 3.1775 4.6086 3.19316C4.64832 3.20882 4.68402 3.23321 4.71305 3.26453C4.77321 3.34504 4.80534 3.44303 4.80455 3.54353C4.80455 3.66653 4.80455 3.77803 4.69355 3.85653C4.61358 3.90051 4.52256 3.92031 4.43155 3.91353" fill="#464648"/>
<path d="M6.26587 2.76047C6.21037 2.76047 6.15637 2.76447 6.11837 2.76597L5.99937 2.76897H5.60938V5.16897H6.06837C6.24379 5.17378 6.41843 5.14405 6.58238 5.08147C6.71433 5.02913 6.83118 4.94476 6.92237 4.83597C7.01106 4.7262 7.0747 4.59839 7.10887 4.46147C7.14816 4.3064 7.16731 4.14693 7.16587 3.98697C7.17557 3.79805 7.16095 3.60866 7.12238 3.42347C7.08577 3.28715 7.01721 3.16152 6.92237 3.05697C6.84797 2.97255 6.75689 2.90446 6.65487 2.85697C6.56726 2.81643 6.47511 2.78655 6.38037 2.76797C6.3427 2.76175 6.30455 2.7589 6.26638 2.75947L6.26587 2.76047ZM6.17537 4.72797H6.12537V3.19597H6.13188C6.23495 3.18411 6.33925 3.20271 6.43187 3.24947C6.49971 3.30363 6.55498 3.37187 6.59387 3.44947C6.63585 3.53114 6.66005 3.62077 6.66488 3.71247C6.66938 3.82247 6.66488 3.91247 6.66488 3.98697C6.66691 4.07279 6.66139 4.15862 6.64838 4.24347C6.63296 4.33058 6.60448 4.41487 6.56387 4.49347C6.51792 4.56655 6.45583 4.62812 6.38237 4.67347C6.32069 4.71337 6.24764 4.73198 6.17438 4.72647" fill="#464648"/>
<path d="M8.715 2.76898H7.5V5.16898H8.014V4.21698H8.664V3.77098H8.014V3.21498H8.714V2.76898" fill="#464648"/>
<path d="M10.8903 10.6275C10.8903 10.6275 12.4843 10.3385 12.4843 10.883C12.4843 11.4275 11.4968 11.206 10.8903 10.6275ZM9.71185 10.669C9.45859 10.725 9.21179 10.8069 8.97535 10.9135L9.17535 10.4635C9.37535 10.0135 9.58285 9.4 9.58285 9.4C9.8215 9.80167 10.0992 10.1788 10.4118 10.526C10.1761 10.5612 9.94237 10.6092 9.71185 10.67V10.669ZM9.08085 7.41901C9.08085 6.94451 9.23435 6.81501 9.35385 6.81501C9.47335 6.81501 9.60785 6.87251 9.61235 7.28451C9.57341 7.69879 9.48667 8.10717 9.35385 8.50151C9.17191 8.17042 9.07775 7.79828 9.08035 7.4205L9.08085 7.41901ZM6.75635 12.677C6.26735 12.3845 7.78185 11.484 8.05635 11.455C8.05485 11.4555 7.26835 12.983 6.75635 12.677ZM12.9498 10.9475C12.9448 10.8975 12.8998 10.344 11.9148 10.3675C11.5043 10.3609 11.0939 10.3898 10.6883 10.454C10.2955 10.0582 9.95716 9.61177 9.68235 9.12651C9.85548 8.62622 9.96026 8.10484 9.99385 7.57651C9.97935 6.97651 9.83585 6.6325 9.37585 6.6375C8.91585 6.6425 8.84885 7.04501 8.90935 7.64401C8.96861 8.04653 9.0804 8.43955 9.24185 8.813C9.24185 8.813 9.02935 9.4745 8.74835 10.1325C8.46735 10.7905 8.27535 11.1355 8.27535 11.1355C7.78671 11.2946 7.32671 11.5309 6.91285 11.8355C6.50085 12.219 6.33335 12.5135 6.55035 12.808C6.73735 13.062 7.39185 13.1195 7.97685 12.353C8.28767 11.9571 8.57164 11.5408 8.82685 11.107C8.82685 11.107 9.71885 10.8625 9.99635 10.7955C10.2738 10.7285 10.6093 10.6755 10.6093 10.6755C10.6093 10.6755 11.4238 11.495 12.2093 11.466C12.9948 11.437 12.9568 10.9965 12.9518 10.9485" fill="#DD2025"/>
<path d="M11.9766 1.53851V4.47501H14.7931L11.9766 1.53851Z" fill="#909090"/>
<path d="M12.0156 1.5V4.4365H14.8321L12.0156 1.5Z" fill="#F4F4F4"/>
<path d="M4.48748 2.72852H3.83398V5.12852H4.34998V4.31952L4.46398 4.32602C4.57427 4.32412 4.68352 4.30436 4.78748 4.26752C4.87863 4.23615 4.96248 4.18666 5.03398 4.12202C5.10619 4.06026 5.16302 3.98254 5.19998 3.89502C5.25013 3.74926 5.26804 3.59437 5.25248 3.44102C5.24936 3.33147 5.23016 3.22298 5.19548 3.11902C5.16392 3.04397 5.11708 2.97632 5.05794 2.92036C4.9988 2.86441 4.92866 2.82138 4.85198 2.79402C4.78538 2.76978 4.71655 2.7522 4.64648 2.74152C4.5937 2.73337 4.54039 2.72903 4.48698 2.72852H4.48748ZM4.39248 3.87552H4.34798V3.13552H4.44498C4.48757 3.13244 4.53031 3.13898 4.57003 3.15465C4.60976 3.17031 4.64545 3.1947 4.67448 3.22602C4.73464 3.30652 4.76678 3.40452 4.76598 3.50502C4.76598 3.62802 4.76598 3.73952 4.65498 3.81802C4.57502 3.862 4.484 3.8818 4.39298 3.87502" fill="white"/>
<path d="M6.22727 2.72202C6.17177 2.72202 6.11777 2.72602 6.07977 2.72752L5.96227 2.73052H5.57227V5.13052H6.03127C6.20668 5.13533 6.38132 5.1056 6.54527 5.04302C6.67722 4.99068 6.79407 4.90631 6.88527 4.79752C6.97395 4.68775 7.0376 4.55994 7.07177 4.42302C7.11105 4.26795 7.1302 4.10848 7.12877 3.94852C7.13846 3.7596 7.12384 3.57021 7.08527 3.38502C7.04866 3.2487 6.9801 3.12306 6.88527 3.01852C6.81086 2.9341 6.71978 2.866 6.61777 2.81852C6.53016 2.77798 6.438 2.7481 6.34327 2.72952C6.30559 2.7233 6.26744 2.72045 6.22927 2.72102L6.22727 2.72202ZM6.13827 4.68952H6.08827V3.15752H6.09477C6.19784 3.14566 6.30214 3.16426 6.39477 3.21102C6.4626 3.26518 6.51787 3.33342 6.55677 3.41102C6.59874 3.49269 6.62294 3.58232 6.62777 3.67402C6.63227 3.78402 6.62777 3.87402 6.62777 3.94852C6.6298 4.03434 6.62428 4.12017 6.61127 4.20502C6.59585 4.29213 6.56737 4.37642 6.52677 4.45502C6.48081 4.5281 6.41872 4.58967 6.34527 4.63502C6.28358 4.67492 6.21053 4.69353 6.13727 4.68802" fill="white"/>
<path d="M8.67594 2.73053H7.46094V5.13053H7.97494V4.17853H8.62494V3.73253H7.97494V3.17653H8.67494V2.73053" fill="white"/>
</svg>
