<svg width="31" height="30" viewBox="0 0 31 30" fill="none" xmlns="http://www.w3.org/2000/svg">
<path d="M28 18.17L22.48 12.62C22.0767 12.2182 21.5872 11.9135 21.0486 11.729C20.51 11.5444 19.9365 11.485 19.3715 11.5551C18.8065 11.6252 18.2649 11.8231 17.7877 12.1336C17.3106 12.4442 16.9104 12.8593 16.6175 13.3475L9.34 25H6.75C5.75544 25 4.80161 24.6049 4.09835 23.9017C3.39509 23.1984 3 22.2446 3 21.25V8.75C3 7.75544 3.39509 6.80161 4.09835 6.09835C4.80161 5.39509 5.75544 5 6.75 5H24.25C25.2446 5 26.1984 5.39509 26.9017 6.09835C27.6049 6.80161 28 7.75544 28 8.75V18.17ZM27.9863 21.575C27.9049 22.5098 27.4761 23.3802 26.7844 24.0143C26.0927 24.6484 25.1884 25.0001 24.25 25H12.55L18.7613 14.6337C18.8588 14.471 18.9921 14.3326 19.151 14.229C19.31 14.1254 19.4905 14.0594 19.6787 14.0359C19.867 14.0124 20.0582 14.0321 20.2377 14.0934C20.4173 14.1548 20.5805 14.2562 20.715 14.39L27.9863 21.575V21.575ZM10.5 16.25C11.4946 16.25 12.4484 15.8549 13.1517 15.1517C13.8549 14.4484 14.25 13.4946 14.25 12.5C14.25 11.5054 13.8549 10.5516 13.1517 9.84835C12.4484 9.14509 11.4946 8.75 10.5 8.75C9.50544 8.75 8.55161 9.14509 7.84835 9.84835C7.14509 10.5516 6.75 11.5054 6.75 12.5C6.75 13.4946 7.14509 14.4484 7.84835 15.1517C8.55161 15.8549 9.50544 16.25 10.5 16.25V16.25Z" fill="white"/>
</svg>
