<svg width="68" height="68" viewBox="0 0 68 68" fill="none" xmlns="http://www.w3.org/2000/svg">
<path fill-rule="evenodd" clip-rule="evenodd" d="M17.0007 19.8334C18.5655 19.8334 19.834 21.1019 19.834 22.6667V53.8334C19.834 55.3982 21.1025 56.6668 22.6673 56.6668H45.334C46.8988 56.6668 48.1673 55.3982 48.1673 53.8334V22.6667C48.1673 21.1019 49.4358 19.8334 51.0006 19.8334C52.5655 19.8334 53.834 21.1019 53.834 22.6667V53.8334C53.834 58.5278 50.0284 62.3334 45.334 62.3334H22.6673C17.9729 62.3334 14.1673 58.5278 14.1673 53.8334V22.6667C14.1673 21.1019 15.4358 19.8334 17.0007 19.8334Z" fill="#919191"/>
<path fill-rule="evenodd" clip-rule="evenodd" d="M28.334 22.6667C29.8988 22.6667 31.1673 23.9353 31.1673 25.5001V48.1668C31.1673 49.7316 29.8988 51.0001 28.334 51.0001C26.7692 51.0001 25.5006 49.7316 25.5006 48.1668V25.5001C25.5006 23.9353 26.7692 22.6667 28.334 22.6667Z" fill="#919191"/>
<path fill-rule="evenodd" clip-rule="evenodd" d="M39.6673 22.6667C41.2321 22.6667 42.5006 23.9353 42.5006 25.5001V48.1668C42.5006 49.7316 41.2321 51.0001 39.6673 51.0001C38.1025 51.0001 36.834 49.7316 36.834 48.1668V25.5001C36.834 23.9353 38.1025 22.6667 39.6673 22.6667Z" fill="#919191"/>
<path d="M11.334 14.1667C11.334 12.6019 12.6025 11.3334 14.1673 11.3334H53.834C55.3988 11.3334 56.6673 12.6019 56.6673 14.1667C56.6673 15.7316 55.3988 17.0001 53.834 17.0001H14.1673C12.6025 17.0001 11.334 15.7316 11.334 14.1667Z" fill="#919191"/>
<path d="M22.6673 8.50008C22.6673 6.93527 23.9358 5.66675 25.5006 5.66675H42.5006C44.0655 5.66675 45.334 6.93527 45.334 8.50008V11.3334H22.6673V8.50008Z" fill="#919191"/>
</svg>
