<svg width="14" height="15" viewBox="0 0 14 15" fill="none" xmlns="http://www.w3.org/2000/svg">
<path d="M7.00002 10.0627C6.82478 10.063 6.65496 10.002 6.52002 9.89021L2.02002 6.14021C1.86686 6.0129 1.77054 5.82997 1.75226 5.63165C1.73397 5.43333 1.79522 5.23587 1.92252 5.08271C2.04983 4.92954 2.23276 4.83323 2.43108 4.81494C2.6294 4.79666 2.82686 4.8579 2.98002 4.98521L7.00002 8.34521L11.02 5.10521C11.0967 5.04291 11.185 4.99638 11.2798 4.96831C11.3745 4.94024 11.4739 4.93117 11.5722 4.94162C11.6704 4.95207 11.7657 4.98185 11.8524 5.02923C11.9391 5.07661 12.0156 5.14066 12.0775 5.21771C12.1462 5.29482 12.1982 5.38529 12.2303 5.48345C12.2624 5.5816 12.2739 5.68533 12.264 5.78813C12.2542 5.89092 12.2232 5.99058 12.173 6.08085C12.1229 6.17111 12.0546 6.25005 11.9725 6.31271L7.47252 9.93521C7.33371 10.0293 7.16735 10.0742 7.00002 10.0627Z" fill="#595959"/>
</svg>
