<svg width="40" height="40" viewBox="0 0 40 40" fill="none" xmlns="http://www.w3.org/2000/svg">
<path fill-rule="evenodd" clip-rule="evenodd" d="M26.1792 15.4881C26.83 16.1389 26.83 17.1942 26.1792 17.8451L19.5125 24.5118C18.8616 25.1626 17.8063 25.1626 17.1555 24.5118L13.8221 21.1784C13.1713 20.5276 13.1713 19.4723 13.8221 18.8214C14.473 18.1705 15.5283 18.1705 16.1792 18.8214L18.334 20.9762L23.8221 15.4881C24.473 14.8372 25.5283 14.8372 26.1792 15.4881Z" fill="#46C269"/>
<path fill-rule="evenodd" clip-rule="evenodd" d="M20.0007 6.66659C12.6369 6.66659 6.66732 12.6361 6.66732 19.9999C6.66732 27.3637 12.6369 33.3333 20.0007 33.3333C27.3644 33.3333 33.334 27.3637 33.334 19.9999C33.334 12.6361 27.3644 6.66659 20.0007 6.66659ZM3.33398 19.9999C3.33398 10.7952 10.7959 3.33325 20.0007 3.33325C29.2054 3.33325 36.6673 10.7952 36.6673 19.9999C36.6673 29.2047 29.2054 36.6666 20.0007 36.6666C10.7959 36.6666 3.33398 29.2047 3.33398 19.9999Z" fill="#46C269"/>
</svg>
