<svg width="15" height="15" viewBox="0 0 15 15" fill="none" xmlns="http://www.w3.org/2000/svg">
<path d="M8.08366 7.29468V4.37801C8.08366 4.2233 8.0222 4.07493 7.9128 3.96553C7.80341 3.85614 7.65504 3.79468 7.50033 3.79468C7.34562 3.79468 7.19724 3.85614 7.08785 3.96553C6.97845 4.07493 6.91699 4.2233 6.91699 4.37801V7.87801C6.91699 8.03272 6.97845 8.18109 7.08785 8.29049C7.19724 8.39989 7.34562 8.46134 7.50033 8.46134H10.417C10.5717 8.46134 10.7201 8.39989 10.8295 8.29049C10.9389 8.18109 11.0003 8.03272 11.0003 7.87801C11.0003 7.7233 10.9389 7.57493 10.8295 7.46553C10.7201 7.35614 10.5717 7.29468 10.417 7.29468H8.08366ZM7.50033 13.7113C4.27858 13.7113 1.66699 11.0998 1.66699 7.87801C1.66699 4.65626 4.27858 2.04468 7.50033 2.04468C10.7221 2.04468 13.3337 4.65626 13.3337 7.87801C13.3337 11.0998 10.7221 13.7113 7.50033 13.7113Z" fill="#919191"/>
</svg>
