<svg width="19" height="19" fill="none" xmlns="http://www.w3.org/2000/svg"><path d="M10.723 6.73H4.098c-.73 0-1.325.62-1.325 1.385v6.927c0 .764.595 1.386 1.325 1.386h6.625c.73 0 1.324-.622 1.324-1.386V8.115c0-.764-.594-1.386-1.325-1.386z" fill="#919191"/><path d="M14.7 2.573H8.074c-.352 0-.688.146-.937.406a1.42 1.42 0 00-.388.98v1.385h5.3c.35 0 .688.146.936.406.249.26.388.612.388.98v5.541H14.7c.351 0 .688-.146.937-.406a1.42 1.42 0 00.388-.98V3.959c0-.367-.14-.72-.388-.98a1.296 1.296 0 00-.937-.405z" fill="#919191"/></svg>