<svg width="12" height="10" fill="none" xmlns="http://www.w3.org/2000/svg"><g clip-path="url(#clip0)"><path d="M6.08 2.813a2.167 2.167 0 00-.611.097 1.082 1.082 0 01-.534 1.538 1.082 1.082 0 01-.946-.058 2.182 2.182 0 102.09-1.577zm5.556 1.902C10.576 2.648 8.48 1.25 6.08 1.25S1.582 2.65.523 4.715a.632.632 0 000 .57C1.582 7.352 3.678 8.75 6.08 8.75c2.401 0 4.499-1.4 5.557-3.465a.632.632 0 000-.57zM6.08 7.813C4.152 7.813 2.386 6.737 1.432 5c.954-1.738 2.72-2.813 4.647-2.813S9.772 3.263 10.726 5c-.954 1.738-2.72 2.813-4.647 2.813z" fill="#919191"/></g><defs><clipPath id="clip0"><path fill="#fff" transform="translate(.454)" d="M0 0h11.25v10H0z"/></clipPath></defs></svg>