<svg width="15" height="15" fill="none" xmlns="http://www.w3.org/2000/svg"><path fill-rule="evenodd" clip-rule="evenodd" d="M2.5 3.5a.254.254 0 00-.25.25v7.5c0 .135.115.25.25.25h10c.135 0 .25-.115.25-.25v-7.5a.254.254 0 00-.25-.25h-10zm-2.25.25C.25 2.51 1.26 1.5 2.5 1.5h10c1.24 0 2.25 1.01 2.25 2.25v7.5c0 1.24-1.01 2.25-2.25 2.25h-10c-1.24 0-2.25-1.01-2.25-2.25v-7.5z" fill="#909090"/><path fill-rule="evenodd" clip-rule="evenodd" d="M.43 3.177a1 1 0 011.394-.246L7.5 6.904l5.677-3.973a1 1 0 011.147 1.638l-6.25 4.375a1 1 0 01-1.147 0L.677 4.57A1 1 0 01.43 3.177z" fill="#909090"/></svg>