<svg width="19" height="19" fill="none" xmlns="http://www.w3.org/2000/svg"><path d="M15.788 10.604a.144.144 0 01-.008.06c-.361 1.512-1.117 2.737-2.268 3.677-1.151.94-2.5 1.409-4.046 1.409-.824 0-1.62-.155-2.39-.466a6.46 6.46 0 01-2.062-1.328l-1.091 1.091a.52.52 0 01-.381.161.52.52 0 01-.381-.16.52.52 0 01-.161-.381v-3.792a.52.52 0 01.16-.38.52.52 0 01.382-.162h3.791a.52.52 0 01.381.161.52.52 0 01.161.381.52.52 0 01-.16.38l-1.16 1.16c.4.373.855.66 1.362.864a4.222 4.222 0 001.583.304c.756 0 1.461-.183 2.116-.55a4.267 4.267 0 001.574-1.515c.062-.096.212-.426.449-.99.045-.13.13-.195.254-.195h1.625a.26.26 0 01.19.08.26.26 0 01.08.191zM16 3.834v3.791a.52.52 0 01-.16.38.52.52 0 01-.382.162h-3.791a.52.52 0 01-.381-.161.52.52 0 01-.161-.381.52.52 0 01.16-.38l1.169-1.169A4.205 4.205 0 009.5 4.916c-.756 0-1.461.184-2.116.55A4.267 4.267 0 005.81 6.983c-.062.096-.212.426-.449.99-.045.13-.13.195-.254.195H3.423a.26.26 0 01-.19-.08.26.26 0 01-.08-.191v-.06C3.518 6.325 4.28 5.1 5.436 4.16 6.595 3.22 7.949 2.75 9.5 2.75c.824 0 1.625.157 2.404.47.778.313 1.47.754 2.073 1.324l1.1-1.092a.52.52 0 01.381-.16.52.52 0 01.381.16.52.52 0 01.161.381z" fill="#919191"/></svg>