<svg width="14" height="14" fill="none" xmlns="http://www.w3.org/2000/svg"><path d="M9.692 5.923c0-1.038-.368-1.925-1.106-2.663-.738-.737-1.625-1.106-2.663-1.106-1.038 0-1.925.369-2.663 1.106-.737.738-1.106 1.625-1.106 2.663 0 1.038.369 1.925 1.106 2.663.738.738 1.625 1.106 2.663 1.106 1.038 0 1.925-.368 2.663-1.106.738-.738 1.106-1.625 1.106-2.663zm4.308 7c0 .292-.107.544-.32.757-.213.213-.465.32-.757.32a1 1 0 01-.757-.32L9.28 10.803a5.761 5.761 0 01-3.357 1.043 5.82 5.82 0 01-2.301-.467 5.923 5.923 0 01-1.893-1.262A5.922 5.922 0 01.467 8.224 5.82 5.82 0 010 5.924c0-.803.156-1.57.467-2.302a5.922 5.922 0 011.262-1.893c.53-.53 1.161-.95 1.893-1.262A5.82 5.82 0 015.923 0c.802 0 1.57.156 2.301.467a5.922 5.922 0 011.893 1.262c.53.53.95 1.161 1.262 1.893a5.82 5.82 0 01.467 2.301 5.761 5.761 0 01-1.043 3.357l2.886 2.886c.207.207.311.46.311.757z" fill="#919191"/></svg>