<svg width="100" height="100" viewBox="0 0 100 100" fill="none" xmlns="http://www.w3.org/2000/svg">
<path d="M49.5966 13.5646L13.4684 33.0933L13.4645 33.0916L13.4626 33.0933L1.46472 20.998L37.4991 1.46716L49.5966 13.5646Z" fill="#E2AE83"/>
<path d="M97.7284 20.998L85.7305 33.0933L85.7286 33.0916L85.7247 33.0933L49.5966 13.5646L61.694 1.46716L97.7284 20.998Z" fill="#D39C72"/>
<path d="M49.5965 52.6225V98.535L13.4645 79.0041V33.0934L49.5965 52.6225Z" fill="#F2C397"/>
<path d="M85.7286 33.0934V79.0041L49.5966 98.535V52.6225L85.7286 33.0934Z" fill="#E2AE83"/>
<path d="M79.8687 36.2604V82.1717L85.7284 79.0041V33.0934L79.8687 36.2604Z" fill="#D39C72"/>
<path d="M85.7305 33.0934L97.7284 45.1889L85.7286 51.6928L61.694 64.72L49.5966 52.6225L85.7247 33.0934L85.7286 33.0955L85.7305 33.0934Z" fill="#F2C397"/>
<path d="M85.7305 33.0934L97.7284 45.1889L85.7286 51.6928L61.694 64.72L49.5966 52.6225L85.7247 33.0934L85.7286 33.0955L85.7305 33.0934Z" fill="#F2C397"/>
<path d="M80.6643 35.8287L92.6676 47.9319L97.7284 45.1889L85.7305 33.0934L85.7286 33.0955L85.7247 33.0934L80.6643 35.8287Z" fill="#E2AE83"/>
<path d="M49.5966 52.6225L37.4991 64.72L13.4645 51.6928L1.46472 45.1889L13.4626 33.0934L13.4645 33.0955L13.4684 33.0934L49.5966 52.6225Z" fill="#FFD2A6"/>
<path d="M85.7247 33.0934L49.5965 52.6225L13.4684 33.0934L49.5965 13.5647L85.7247 33.0934Z" fill="#C48D69"/>
<path d="M87.793 33.0936L98.7682 22.0293C99.093 21.7016 99.2445 21.2402 99.1774 20.784C99.11 20.3275 98.8317 19.9295 98.4262 19.7098L62.3918 0.178906C61.8217 -0.129883 61.1164 -0.0277344 60.658 0.430859L49.5957 11.4932L38.5342 0.431641C38.2588 0.154297 37.8897 0 37.501 0C37.2569 0 37.0166 0.0623047 36.8018 0.179688L25.2278 6.45078C24.884 6.63828 24.634 6.94687 24.5227 7.32187C24.4113 7.69687 24.4524 8.09336 24.6379 8.43711C24.8957 8.90977 25.3899 9.20488 25.927 9.20488C26.1692 9.20488 26.4113 9.14238 26.6242 9.02715L37.2354 3.27539L47.1707 13.2107L13.7321 31.2846L3.88068 21.3529L21.4721 11.8182C21.8178 11.6326 22.0678 11.324 22.1791 10.949C22.2904 10.574 22.2494 10.1775 22.0619 9.83379C21.8061 9.36113 21.3119 9.06621 20.7748 9.06621C20.5326 9.06621 20.2924 9.12852 20.0776 9.24375L0.767404 19.7105C0.363107 19.9271 0.081857 20.3297 0.0154507 20.7848C-0.0509555 21.2377 0.101584 21.7025 0.425607 22.0289L11.3996 33.0939L0.424826 44.158C0.100021 44.4857 -0.0515415 44.9471 0.015646 45.4033C0.0830288 45.8598 0.361349 46.2578 0.766818 46.4775L11.9998 52.5658V79.0002C11.9996 79.0508 12.0022 79.1012 12.0072 79.151C12.0094 79.1723 12.0135 79.193 12.0164 79.2141C12.0201 79.2396 12.0231 79.2652 12.0281 79.2904C12.0344 79.3223 12.043 79.3531 12.0512 79.3842C12.0551 79.3984 12.058 79.4129 12.0623 79.4271C12.0719 79.4586 12.0834 79.4893 12.0949 79.5201C12.1 79.5338 12.1043 79.5477 12.11 79.5611C12.1213 79.5889 12.1344 79.6152 12.1473 79.6418C12.1553 79.6584 12.1625 79.675 12.1711 79.6912C12.1828 79.7131 12.1959 79.734 12.2084 79.7551C12.2205 79.7752 12.2321 79.7955 12.2449 79.8152C12.2557 79.8314 12.2678 79.8469 12.2793 79.8627C12.2959 79.8855 12.3123 79.9088 12.3303 79.9311C12.3403 79.9434 12.3514 79.9547 12.3617 79.9666C12.3824 79.9904 12.4031 80.0143 12.4254 80.0367C12.4369 80.0482 12.4496 80.0588 12.4615 80.0703C12.4838 80.0912 12.5057 80.1123 12.5293 80.1318C12.5522 80.1508 12.5764 80.168 12.6002 80.1854C12.6143 80.1957 12.6274 80.2066 12.6418 80.2166C12.6838 80.2449 12.7274 80.2713 12.7723 80.2955L48.8924 99.8201C48.9444 99.8486 48.9986 99.8732 49.0543 99.8955C49.0664 99.9002 49.0787 99.9045 49.091 99.9088C49.1317 99.9238 49.1729 99.9371 49.2153 99.9482C49.2305 99.9523 49.2455 99.9565 49.2608 99.96C49.3018 99.9695 49.3434 99.9771 49.3856 99.9832C49.4 99.9852 49.4141 99.9879 49.4285 99.9896C49.4836 99.9959 49.5395 100 49.5963 100C49.6531 100 49.709 99.9959 49.7641 99.9896C49.7785 99.9879 49.7928 99.9852 49.8072 99.9832C49.8494 99.9771 49.891 99.9695 49.9319 99.96C49.9471 99.9565 49.9623 99.9523 49.9774 99.9482C50.0196 99.9369 50.061 99.9238 50.1014 99.9088C50.1137 99.9045 50.126 99.9002 50.1381 99.8955C50.1936 99.8732 50.2479 99.8486 50.2998 99.8201L86.4199 80.2955C86.4649 80.2713 86.5084 80.2449 86.5504 80.2166C86.5649 80.2066 86.5781 80.1955 86.592 80.1854C86.616 80.1678 86.6403 80.1506 86.6629 80.1318C86.6865 80.1123 86.7084 80.0912 86.7307 80.0703C86.7426 80.0588 86.7553 80.0484 86.7668 80.0367C86.7891 80.0143 86.8098 79.9904 86.8305 79.9666C86.8408 79.9547 86.852 79.9434 86.8619 79.9311C86.8799 79.909 86.8963 79.8857 86.9129 79.8627C86.9244 79.8469 86.9365 79.8314 86.9473 79.8152C86.9602 79.7955 86.9717 79.7754 86.9838 79.7551C86.9965 79.734 87.0096 79.7131 87.0211 79.6912C87.0297 79.675 87.0369 79.6584 87.0449 79.6418C87.0578 79.6152 87.0709 79.5889 87.0822 79.5611C87.0879 79.5477 87.0922 79.5338 87.0973 79.5201C87.1088 79.4895 87.1203 79.4588 87.1299 79.4271C87.1342 79.4131 87.1371 79.3986 87.141 79.3842C87.1492 79.3531 87.1578 79.3223 87.1641 79.2904C87.1692 79.2652 87.1721 79.2396 87.1758 79.2141C87.1787 79.193 87.183 79.1723 87.185 79.151C87.1901 79.101 87.1926 79.0506 87.1924 79.0002V52.5658L98.4248 46.4777C98.8291 46.259 99.1104 45.8566 99.1768 45.4035C99.2432 44.9484 99.0908 44.4836 98.7686 44.1574L87.793 33.0936ZM61.9567 3.27559L95.3115 21.3539L85.4604 31.2852L52.0221 13.2102L61.9567 3.27559ZM49.5973 15.2295L82.6455 33.0936L49.5965 50.958L16.5483 33.0939L49.5973 15.2295ZM13.7326 34.9021L47.1711 52.9771L37.2363 62.9117L14.1688 50.4092C14.1647 50.4068 14.1606 50.4047 14.1565 50.4025L3.88147 44.8334L13.7326 34.9021ZM36.8012 66.0082C37.0209 66.1272 37.2608 66.1852 37.4987 66.1852C37.8781 66.1852 38.2531 66.0379 38.535 65.7562L48.1317 56.1596V96.0783L14.9293 78.1309V54.1537L36.8012 66.0082ZM85.0424 50.3996C85.0344 50.4037 85.0266 50.408 85.0188 50.4123L77.7209 54.368C77.3752 54.5535 77.1252 54.8641 77.0139 55.2391C76.9026 55.6143 76.9436 56.0105 77.1291 56.3545C77.3869 56.8271 77.8811 57.1201 78.4182 57.1201C78.6604 57.1201 78.9026 57.0594 79.1154 56.9443L84.2635 54.1539V78.1313L51.0613 96.0785V56.159L60.6588 65.7564C60.9363 66.0338 61.3033 66.1861 61.694 66.1861C61.9361 66.1861 62.1764 66.1236 62.3912 66.0084L73.9652 59.7352C74.309 59.5496 74.559 59.2391 74.6703 58.8641C74.7817 58.4891 74.7406 58.0945 74.5551 57.7508C74.2973 57.2762 73.8031 56.9832 73.2641 56.9832C73.0238 56.9832 72.7817 57.0438 72.5688 57.1609L61.9576 62.9105L52.0223 52.9773L85.4612 34.9014L95.3125 44.833L85.0424 50.3996Z" fill="black"/>
</svg>
