<svg width="100" height="100" viewBox="0 0 100 100" fill="none" xmlns="http://www.w3.org/2000/svg">
<path d="M84.1762 47.7546C84.1762 47.7546 92.9008 47.2079 90.0568 61.4264L90.0529 61.4188L87.2131 55.7391C87.2131 55.7391 78.2931 58.5831 72.9943 58.5831C67.6953 58.5831 63.0412 55.7391 63.0412 55.7391L58.7795 61.4227L58.7754 61.4266C55.9316 38.6766 72.801 39.9423 84.176 39.9423C84.1761 45.6278 84.1762 47.7546 84.1762 47.7546Z" fill="#965353"/>
<path d="M84.1762 47.7546C84.1762 47.7546 84.1762 45.6278 84.1762 39.9421C82.3317 39.9421 80.3425 39.9093 78.3163 39.9505C78.3163 45.6298 78.3163 44.9225 78.3163 47.7546C78.3163 52.4421 84.1757 50.2936 84.1757 56.6214C85.6594 56.2083 87.2134 55.7389 87.2134 55.7389L90.0532 61.4186L90.0571 61.4262C92.9008 47.2079 84.1762 47.7546 84.1762 47.7546Z" fill="#864B4C"/>
<path d="M87.2133 55.7391L90.0531 61.4188L90.0355 61.4264V67.2897C90.0355 72.2254 87.7484 76.6239 84.1781 79.4852C81.5023 81.6297 78.1058 82.9108 74.4105 82.9108C70.715 82.9108 67.3185 81.6297 64.6449 79.4852C61.0726 76.6256 58.7855 72.2274 58.7855 67.2897V61.4264L58.7797 61.4225L63.0414 55.7389C63.0414 55.7389 67.6955 58.5828 72.9945 58.5828C78.2933 58.5828 87.2133 55.7391 87.2133 55.7391Z" fill="#FFDECF"/>
<path d="M87.2132 55.7391C87.2132 55.7391 85.9874 56.1298 84.1755 56.6216V67.2897C84.1755 72.2255 81.8884 76.6239 78.3181 79.4852C76.3677 81.0485 74.0333 82.1495 71.4806 82.6339C71.4816 82.6339 71.4825 82.6343 71.4833 82.6343C71.7181 82.6786 71.9546 82.7178 72.1927 82.752C72.1954 82.7524 72.1976 82.7528 72.2001 82.7532C72.4259 82.7852 72.6534 82.812 72.8823 82.8344C72.9011 82.8364 72.9197 82.8389 72.9386 82.8405C73.1478 82.8604 73.3585 82.8745 73.5704 82.8858C73.607 82.8878 73.6429 82.8915 73.6794 82.893C73.9218 82.9046 74.1654 82.9106 74.4105 82.9106C78.1058 82.9106 81.5023 81.6296 84.1781 79.485C87.7484 76.6237 90.0355 72.2253 90.0355 67.2895V61.4262L90.053 61.4186L87.2132 55.7391Z" fill="#FFCDBE"/>
<path d="M74.4105 82.9107V86.8169L69.5297 88.7681L64.6449 84.8638V79.4851C67.3185 81.6296 70.715 82.9107 74.4105 82.9107Z" fill="#E6E9ED"/>
<path d="M84.1781 79.4851L84.1761 84.8638L78.3187 88.7681L74.4105 86.8169V82.9107C78.1058 82.9107 81.5023 81.6296 84.1781 79.4851Z" fill="#E6E9ED"/>
<path d="M86.1312 98.5352H62.6918H61.2289H52.9261V90.7235C52.9261 87.483 55.5472 84.8639 58.7855 84.8639H64.6449L69.5297 88.7682L74.4105 86.817L78.3187 88.7682L84.1761 84.8639H90.0355C93.2736 84.8639 95.8949 87.483 95.8949 90.7235V98.5352H86.6195H86.1312Z" fill="#5D9CEC"/>
<path d="M86.1312 98.5352H62.6918H61.2289H52.9261V90.7235C52.9261 87.483 55.5472 84.8639 58.7855 84.8639H64.6449L69.5297 88.7682L74.4105 86.817L78.3187 88.7682L84.1761 84.8639H90.0355C93.2736 84.8639 95.8949 87.483 95.8949 90.7235V98.5352H86.6195H86.1312Z" fill="#2573D6"/>
<path d="M45.1207 63.379L41.2145 61.9847L17.777 53.6134L9.96449 57.5197C8.92347 44.7599 13.8707 41.8947 13.8707 41.8947L17.9723 43.8478C17.9723 43.8478 45.1207 28.2228 45.1207 63.379Z" fill="#656D78"/>
<path d="M41.2145 84.8635C44.4528 84.8635 47.0739 87.4846 47.0739 90.7231V98.5348H37.8004H37.3102H13.8707H12.4078H4.1051V90.7231C4.1051 87.4846 6.726 84.8635 9.96448 84.8635H41.2145Z" fill="#FF9D26"/>
<path d="M27.2959 40.6331C33.2287 41.7206 38.7441 46.7195 39.2256 61.2745L41.2146 61.9849L45.1209 63.3792C45.1207 42.0755 35.1521 39.4193 27.2959 40.6331Z" fill="#515760"/>
<path d="M33.4039 80.8226L33.4019 84.8636C33.4019 89.1782 29.9035 92.6763 25.5892 92.6763C21.2746 92.6763 17.7767 89.1782 17.7767 84.8636V80.8208C20.0756 82.1511 22.7435 82.9104 25.5892 82.9104C28.4347 82.9104 31.1027 82.1509 33.4019 80.8208L33.4039 80.8226Z" fill="#FFDECF"/>
<path d="M41.2144 61.9848V67.2915C41.2144 73.0764 38.0715 78.1233 33.4019 80.8208C31.1029 82.151 28.4347 82.9104 25.5892 82.9104C22.7435 82.9104 20.0756 82.1508 17.7767 80.8208C13.1066 78.1233 9.96423 73.0766 9.96423 67.2915V57.5198L17.7767 53.6135L41.2144 61.9848Z" fill="#FFDECF"/>
<path d="M35.3543 59.8147V67.2915C35.3543 73.0764 32.2113 78.1233 27.5418 80.8208C26.0522 81.6825 24.4066 82.3032 22.6592 82.6346C23.6084 82.8143 24.5873 82.9104 25.5893 82.9104C28.4348 82.9104 31.1027 82.1508 33.402 80.8208C38.0715 78.1233 41.2145 73.0766 41.2145 67.2915V61.9848L35.3543 59.8147Z" fill="#FFCDBE"/>
<path d="M72.4637 1.46484V32.717H52.9344L43.1669 36.6211V32.717H35.3544V1.46484H72.4637Z" fill="#1D9F3A"/>
<path d="M68.5583 92.6758H58.7931V98.5352H68.5583V92.6758Z" fill="#E6E9ED"/>
<path d="M35.3514 34.1816H41.699V36.6211C41.699 37.1074 41.9393 37.5605 42.3416 37.834C42.5857 37.998 42.8689 38.0859 43.1639 38.0859C43.3514 38.0859 43.535 38.0506 43.7068 37.9805L53.2107 34.1816H72.4609C72.8457 34.1816 73.2225 34.0254 73.4961 33.7539C73.7695 33.4807 73.9258 33.1037 73.9258 32.7168V1.46484C73.9258 1.07793 73.7695 0.701172 73.4961 0.429688C73.2227 0.15625 72.8457 0 72.4609 0H35.3516C34.9648 0 34.5879 0.15625 34.3164 0.429688C34.043 0.701172 33.8867 1.07793 33.8867 1.46484V8.07422C33.8867 8.88281 34.543 9.54102 35.3516 9.54102C36.1582 9.54102 36.8164 8.88281 36.8164 8.07422V2.92969H70.9961V31.252H52.9297C52.7441 31.252 52.5566 31.2891 52.3867 31.3574L44.6289 34.457V32.7168C44.6289 32.332 44.4727 31.9551 44.1992 31.6816C43.9277 31.4082 43.5488 31.252 43.1641 31.252H36.8164V13.9336C36.8164 13.127 36.1582 12.4707 35.3516 12.4707C34.543 12.4707 33.8867 13.127 33.8867 13.9336V32.7168C33.8867 33.1035 34.043 33.4805 34.3164 33.7539C34.5877 34.0254 34.9648 34.1816 35.3514 34.1816Z" fill="black"/>
<path d="M97.3633 90.7231C97.3633 86.6844 94.0775 83.3989 90.0389 83.3989H85.6451L85.6467 80.1557C89.2338 77.0216 91.5037 72.4167 91.5037 67.2913V61.6714C92.6482 55.9139 92.1232 51.6444 89.9408 48.9823C88.5652 47.3042 86.8602 46.6645 85.6443 46.4253V39.9421C85.6443 39.1329 84.9887 38.4772 84.1795 38.4772C83.6236 38.4772 83.0541 38.4741 82.4744 38.4712C81.8684 38.4678 81.251 38.4647 80.6266 38.4647C73.5598 38.4647 65.626 38.9118 60.9131 44.2503C57.523 48.0903 56.3492 53.7614 57.3238 61.5872V67.2915C57.3238 72.4182 59.5949 77.0243 63.1836 80.1585V83.3993H58.7891C54.7504 83.3993 51.4648 86.6848 51.4648 90.7235V98.5352C51.4648 99.3444 52.1205 100 52.9297 100H58.7891H68.5547H95.8982C96.7074 100 97.3631 99.3444 97.3631 98.5352V90.7307C97.3631 90.728 97.3633 90.7259 97.3633 90.7231ZM82.715 84.0794L78.2168 87.079L75.8787 85.911V84.312C78.343 84.1018 80.6594 83.3667 82.716 82.2192L82.715 84.0794ZM63.1098 46.1889C67.0154 41.7645 74.1996 41.394 80.627 41.394C81.2461 41.394 81.8582 41.3973 82.4592 41.4005C82.5447 41.4009 82.6299 41.4012 82.715 41.4018V47.7544C82.715 48.1587 82.875 48.5456 83.1697 48.8225C83.4647 49.0995 83.8539 49.2428 84.257 49.2171C84.3904 49.2093 86.3217 49.1884 87.6756 50.8395C88.6754 52.0593 89.1742 53.9307 89.1631 56.3571L88.5264 55.0841C88.2039 54.4385 87.4588 54.1239 86.7715 54.3434C86.6844 54.3712 78.0051 57.118 72.9984 57.118C68.1961 57.118 63.8508 54.5143 63.8092 54.4891C63.1652 54.095 62.327 54.2559 61.8736 54.86L59.9404 57.4378C59.8223 52.4848 60.8834 48.7106 63.1098 46.1889ZM60.2539 67.2911V61.9026L63.4609 57.6266C65.2672 58.5249 68.9305 60.0477 72.9984 60.0477C77.3371 60.0477 83.7965 58.2856 86.4592 57.5005L88.5742 61.7307V67.2911C88.5742 75.096 82.2221 81.4458 74.4141 81.4458C66.6061 81.4458 60.2539 75.096 60.2539 67.2911ZM72.9492 84.3122V85.8251L69.7811 87.0923L66.1137 84.1594V82.2202C68.1697 83.3673 70.4855 84.102 72.9492 84.3122ZM60.2541 97.0704V94.1407H67.0898V97.0704H60.2541ZM94.4334 97.0704H70.0195V92.6758C70.0195 91.8667 69.3639 91.211 68.5547 91.211H58.7895C57.9803 91.211 57.3246 91.8667 57.3246 92.6758V97.0704H54.3949V90.7231C54.3949 88.3001 56.3664 86.3286 58.7895 86.3286H64.1352L68.618 89.9132C68.6309 89.9235 68.6455 89.9303 68.6586 89.9403C68.7 89.971 68.7424 89.9995 68.7863 90.0257C68.8129 90.0415 68.8393 90.0569 68.8662 90.0708C68.9082 90.0921 68.9514 90.1104 68.9947 90.1276C69.0238 90.1391 69.0525 90.1516 69.082 90.1612C69.1303 90.1768 69.1797 90.188 69.2295 90.1985C69.2543 90.2038 69.2785 90.2112 69.3033 90.2153C69.3789 90.2274 69.4555 90.2344 69.533 90.2344C69.5842 90.2344 69.6352 90.2309 69.6867 90.2257C69.6957 90.2245 69.7047 90.2227 69.7139 90.2216C69.7541 90.2167 69.7941 90.21 69.8344 90.2016C69.8508 90.1981 69.867 90.1938 69.8834 90.1897C69.9148 90.1819 69.9463 90.1733 69.9775 90.1632C69.9979 90.1567 70.0182 90.1497 70.0385 90.1423C70.051 90.1378 70.0641 90.1343 70.0766 90.1292L74.3473 88.421L77.6678 90.0796C77.6902 90.0909 77.7135 90.0989 77.7361 90.1089C77.7627 90.1204 77.7887 90.1329 77.8154 90.1428C77.8521 90.1563 77.8889 90.1667 77.9258 90.177C77.9436 90.1819 77.9609 90.1885 77.9787 90.1926C78.0307 90.2052 78.0824 90.2143 78.1348 90.2212C78.1393 90.2216 78.1434 90.2227 78.1477 90.2235C78.2055 90.2303 78.2635 90.2342 78.3211 90.2342C78.39 90.2342 78.4582 90.2292 78.526 90.2196C78.5555 90.2153 78.5848 90.2071 78.6143 90.201C78.6516 90.1934 78.6893 90.187 78.7258 90.1766C78.7555 90.1678 78.7848 90.1557 78.8141 90.1454C78.8506 90.1323 78.8869 90.1198 78.9223 90.1042C78.948 90.0923 78.973 90.078 78.9984 90.0649C79.0365 90.045 79.0744 90.0249 79.1107 90.0016C79.1186 89.9966 79.1271 89.9932 79.135 89.988L84.623 86.3286H90.0391C92.4605 86.3286 94.4309 88.2973 94.4336 90.7182L94.4334 90.7231V97.0704Z" fill="black"/>
<path d="M41.2107 83.3988H34.8639L34.8648 81.6311C39.5619 78.5832 42.6756 73.294 42.6756 67.291V64.0629L44.6242 64.7588C44.7844 64.816 44.951 64.8441 45.1168 64.8441C45.415 64.8441 45.7105 64.7529 45.9607 64.5768C46.3502 64.3023 46.5818 63.8559 46.5818 63.3793C46.5818 54.5881 44.8893 48.0602 41.551 43.9775C38.8086 40.6234 35.0389 38.9229 30.3463 38.9229C24.8766 38.9229 19.7508 41.2727 17.9295 42.2068L14.4967 40.5725C14.0607 40.3648 13.5506 40.3854 13.1332 40.6271C12.5457 40.9672 7.43223 44.3291 8.4959 57.5744V67.291C8.4959 73.2947 11.6104 78.5844 16.3084 81.6322V83.3988H9.96094C5.92227 83.3988 2.63672 86.6844 2.63672 90.7231V98.5352C2.63672 99.3443 3.29258 100 4.10156 100H47.0699C47.8789 100 48.5348 99.3443 48.5348 98.5352V90.7307C48.5348 90.7279 48.5352 90.7258 48.5352 90.7231C48.535 86.6844 45.2494 83.3988 41.2107 83.3988ZM14.1057 43.6311L17.3391 45.1705C17.7729 45.3773 18.2814 45.357 18.6982 45.1182C18.7553 45.0854 24.4641 41.8525 30.3465 41.8525C38.7338 41.8525 43.1934 48.3895 43.6188 61.2887L18.266 52.2342C18.1063 52.1771 17.9396 52.149 17.7734 52.149C17.5482 52.149 17.3238 52.201 17.1184 52.3037L11.2982 55.2137C11.0848 47.875 13.1145 44.7232 14.1057 43.6311ZM11.4258 67.291V58.425L17.8695 55.2033L39.7461 63.0164V67.291C39.7461 75.0959 33.3939 81.4457 25.5859 81.4457C17.7779 81.4457 11.4258 75.0959 11.4258 67.291ZM25.5857 84.3754C27.8281 84.3754 29.9705 83.9404 31.9344 83.1524L31.9334 84.8629V84.8633V84.8635C31.9334 88.3637 29.0857 91.2111 25.5857 91.2111C22.0857 91.2111 19.2381 88.3637 19.2381 84.8635V83.1527C21.2018 83.9406 23.3439 84.3754 25.5857 84.3754ZM45.6049 97.0703H5.56641V90.7231C5.56641 88.3 7.5377 86.3285 9.96094 86.3285H16.4254C17.1301 90.7502 20.9689 94.1408 25.5859 94.1408C30.2029 94.1408 34.0418 90.7502 34.7465 86.3285H41.2109C43.6324 86.3285 45.6025 88.2973 45.6053 90.7182C45.6053 90.7182 45.6051 90.7215 45.6051 90.7231L45.6049 97.0703Z" fill="black"/>
</svg>
