<svg width="100" height="100" viewBox="0 0 100 100" fill="none" xmlns="http://www.w3.org/2000/svg">
<path d="M90.3605 63.6854L57.3261 75.7098L46.6396 46.3443L79.6734 34.3215L90.3605 63.6854Z" fill="#F2C397"/>
<path d="M96.53 61.4525L98.5339 66.9581L60.7854 80.6846C60.7153 79.7198 60.5122 78.7493 60.1645 77.7944C59.8167 76.8392 59.3479 75.9644 58.7837 75.179L90.3605 63.6851L96.53 61.4525Z" fill="#CCD1D9"/>
<path d="M70.9898 10.4631L79.6732 34.3214L66.826 38.9972L59.4864 41.6686L46.6394 46.3442L37.9561 22.4879L70.9898 10.4631Z" fill="#F2C397"/>
<path d="M66.8262 38.9972L69.4979 46.3384L62.1584 49.0103L59.4866 41.6687L66.8262 38.9972Z" fill="#1D9F3A"/>
<path d="M58.1431 15.1389L60.8147 22.4799L53.4729 25.1518L50.8013 17.8125L58.1431 15.1389Z" fill="#1D9F3A"/>
<path d="M58.7836 75.1792C59.3481 75.9645 59.8166 76.8393 60.1645 77.7946C60.5119 78.7497 60.715 79.7202 60.7854 80.6848C61.1293 85.3585 58.3637 89.8801 53.7445 91.5614C48.1686 93.5909 42.0049 90.7176 39.9756 85.1419C38.2939 80.5227 39.9795 75.4975 43.7799 72.7551C44.565 72.1909 45.44 71.7223 46.3951 71.3745C47.3502 71.027 48.3229 70.8237 49.2875 70.7534C51.7758 70.5698 54.219 71.2675 56.2152 72.6577C57.1957 73.3397 58.067 74.187 58.7836 75.1792Z" fill="#656D78"/>
<path d="M52.8229 80.4659C53.3756 81.9858 52.5924 83.6671 51.071 84.222C49.5514 84.7743 47.8698 83.9894 47.3172 82.4696C46.7623 80.9505 47.5479 79.2688 49.0672 78.7142C50.5885 78.1618 52.2704 78.947 52.8229 80.4659Z" fill="#CCD1D9"/>
<path d="M49.2877 70.7517V70.7538C48.323 70.8239 47.3502 71.0272 46.3953 71.3749C45.4402 71.7227 44.5652 72.1915 43.7801 72.7556L22.2675 13.6465L3.46879 20.4268L1.46509 14.9207L20.2638 8.1407C23.3066 7.03348 26.6659 8.60027 27.7733 11.6428L49.2877 70.7517Z" fill="#CCD1D9"/>
<path d="M71.0247 10.4494L65.519 12.4531L74.2023 36.3118L79.708 34.308L71.0247 10.4494Z" fill="#D39C72"/>
<path d="M79.7072 34.3117L74.2012 36.3162L84.8918 65.6818L90.3979 63.6773L79.7072 34.3117Z" fill="#D39C72"/>
<path d="M96.5302 61.4575L90.4873 63.6567L92.4911 69.1626L98.534 66.9633L96.5302 61.4575Z" fill="#AAB2BC"/>
<path d="M50.0695 77.0729C49.557 77.0729 49.0515 77.1623 48.5668 77.3385C46.29 78.1674 45.1121 80.6942 45.9404 82.9711C46.5701 84.701 48.2298 85.8631 50.0701 85.8631C50.5826 85.8631 51.088 85.7736 51.5726 85.5975C53.8496 84.7686 55.0275 82.242 54.199 79.9651C53.5695 78.2352 51.9099 77.0729 50.0695 77.0729ZM50.5709 82.8445C50.4085 82.9037 50.24 82.9336 50.0703 82.9336C49.4566 82.9336 48.9033 82.5461 48.6933 81.9692C48.4171 81.2102 48.8099 80.3678 49.5687 80.0916C49.731 80.0324 49.8996 80.0026 50.0693 80.0026C50.6828 80.0026 51.2361 80.3901 51.4461 80.9672C51.7224 81.726 51.3298 82.5682 50.5709 82.8445Z" fill="black"/>
<path d="M99.5457 68.0174C99.5752 67.9889 99.6041 67.9602 99.6313 67.9297C99.6367 67.9237 99.6412 67.9168 99.6467 67.9106C99.6721 67.8809 99.6969 67.8508 99.7197 67.8194C99.7223 67.8161 99.7242 67.8124 99.7266 67.8088C99.7514 67.7739 99.7752 67.7383 99.7969 67.7014C99.8008 67.6948 99.8039 67.6875 99.8078 67.6807C99.8272 67.6467 99.8457 67.6125 99.8623 67.5772C99.8688 67.5633 99.8738 67.5487 99.8797 67.5346C99.8922 67.5057 99.9049 67.4768 99.9156 67.4471C99.9229 67.4266 99.9281 67.4055 99.9344 67.3848C99.9418 67.3608 99.9502 67.337 99.9563 67.3125C99.9652 67.2764 99.9719 67.2397 99.9781 67.203C99.9797 67.1932 99.9824 67.1838 99.9838 67.1743C100.019 66.9407 99.9977 66.695 99.9111 66.4573L97.9069 60.9515C97.7697 60.5747 97.494 60.289 97.1584 60.1296C97.1555 60.1282 97.1526 60.1265 97.1496 60.1251C97.1278 60.1147 97.1049 60.1067 97.0824 60.0975C97.0613 60.089 97.0406 60.0792 97.0192 60.0716C97.0141 60.0696 97.0086 60.0685 97.0033 60.0669C96.6981 59.9624 96.3565 59.9567 96.0297 60.0759L91.2397 61.8179L81.0501 33.8204C81.0499 33.8196 81.0493 33.819 81.0491 33.8184L77.0425 22.8091C76.8316 22.2329 76.2789 21.846 75.6656 21.846C75.4957 21.846 75.3257 21.8753 75.1656 21.9339C74.4058 22.2093 74.0132 23.053 74.2886 23.8108L77.7966 33.4459L58.9852 40.2924C58.9856 40.2922 58.985 40.2924 58.9852 40.2924C58.9846 40.2926 58.9833 40.2932 58.9827 40.2932L47.5144 44.467L39.8316 23.3626L49.9267 19.6888L52.0977 25.6524C52.3067 26.2286 52.8595 26.6175 53.4727 26.6175C53.6446 26.6175 53.8126 26.5882 53.9747 26.5274L61.3162 23.8556C61.6834 23.7228 61.9764 23.4532 62.1424 23.0997C62.2651 22.8368 62.3051 22.5503 62.2643 22.2704C62.2641 22.2689 62.2641 22.2673 62.2639 22.2659C62.2582 22.2278 62.25 22.1896 62.2412 22.1519C62.2387 22.1411 62.2373 22.131 62.2348 22.1202C62.2229 22.0728 62.2084 22.0257 62.1914 21.9788L60.0211 16.015L70.114 12.3418L72.2847 18.3048C72.4957 18.881 73.0484 19.2697 73.6617 19.2697C73.8316 19.2697 74.0015 19.2404 74.1636 19.1798C74.9214 18.9044 75.314 18.0624 75.0386 17.3029L72.3668 9.96132C72.1822 9.45722 71.7361 9.09804 71.2164 9.01601C71.1422 9.00429 71.0664 8.99824 70.9898 8.99824C70.8199 8.99824 70.65 9.02754 70.4898 9.08613L57.6493 13.7601C57.6471 13.7609 57.6448 13.7611 57.6426 13.7619C57.6387 13.7633 57.6352 13.7652 57.6313 13.7666L50.314 16.4302C50.3097 16.4318 50.3054 16.4322 50.3011 16.4337C50.2938 16.4365 50.287 16.44 50.2798 16.4427L37.4539 21.1113C37.0867 21.2441 36.7937 21.5136 36.6277 21.8671C36.4617 22.2226 36.4441 22.6208 36.5789 22.9882L45.262 46.8465L53.6122 69.7901C52.5536 69.4666 51.4421 69.285 50.3038 69.2629L29.1498 11.1418C27.7686 7.34708 23.5577 5.38361 19.7626 6.76446C19.762 6.76466 19.7614 6.76505 19.7608 6.76525L0.967375 13.5433C0.96718 13.5435 0.966789 13.5435 0.966399 13.5437C0.965422 13.5441 0.964446 13.5443 0.963274 13.5447C0.929485 13.557 0.897454 13.5717 0.865227 13.5861C0.852923 13.5916 0.840032 13.5961 0.827923 13.6019C0.796282 13.617 0.766204 13.6345 0.736126 13.6517C0.723822 13.6588 0.710736 13.6648 0.698627 13.6724C0.669721 13.69 0.642768 13.7095 0.615424 13.7289C0.603315 13.7375 0.590424 13.7453 0.578706 13.7541C0.553315 13.7734 0.529682 13.7943 0.505659 13.8152C0.49355 13.8259 0.480464 13.8355 0.468745 13.8465C0.446089 13.8672 0.425386 13.89 0.404292 13.9121C0.392769 13.9244 0.380465 13.9355 0.369332 13.948C0.34941 13.9705 0.331246 13.9945 0.312691 14.0181C0.302145 14.0314 0.290621 14.0443 0.28066 14.0582C0.263864 14.0812 0.24902 14.1054 0.23359 14.1295C0.223629 14.1451 0.212692 14.1599 0.203317 14.1757C0.189255 14.1996 0.177145 14.2246 0.16445 14.2492C0.155661 14.2662 0.145896 14.2828 0.137692 14.3002C0.126364 14.3244 0.117185 14.3494 0.107029 14.3742C0.0994115 14.3931 0.0908178 14.4111 0.0841772 14.4302C0.0755835 14.4545 0.0689429 14.4795 0.0617164 14.5041C0.0556617 14.5244 0.0486305 14.5445 0.0433571 14.5652C0.0373024 14.5894 0.0332009 14.6144 0.0283181 14.639C0.0240213 14.6605 0.0187479 14.682 0.0154276 14.7037C0.0115213 14.7287 0.0101542 14.7541 0.00761512 14.7793C0.00546669 14.8011 0.0021464 14.823 0.000974529 14.8451C-0.00039265 14.8709 0.000583907 14.8966 0.000583907 14.9224C0.000583907 14.9445 -0.000587962 14.9666 0.000388595 14.9886C0.00156046 15.0148 0.00527138 15.0412 0.00781043 15.0673C0.00995885 15.089 0.0111307 15.1109 0.0142557 15.1328C0.0181619 15.1588 0.0244119 15.1847 0.0296853 15.2107C0.0341775 15.2328 0.0374978 15.255 0.0429665 15.2771C0.0494117 15.3031 0.0585914 15.3287 0.0665991 15.3545C0.0732397 15.3757 0.0785131 15.3974 0.0861303 15.4187C0.0863256 15.4191 0.0865209 15.4197 0.0867162 15.4201C0.0869115 15.4211 0.0871069 15.4218 0.0874975 15.4228L2.09159 20.9286C2.10663 20.97 2.12733 21.0077 2.14549 21.047C2.15975 21.0775 2.17127 21.1099 2.18749 21.139C2.21034 21.1802 2.23788 21.2169 2.26424 21.2554C2.28084 21.2794 2.29491 21.3058 2.31288 21.3286C2.34432 21.3691 2.38026 21.405 2.41541 21.4413C2.43182 21.4583 2.44627 21.4777 2.46346 21.4939C2.50311 21.5312 2.54666 21.5636 2.58983 21.596C2.60545 21.6079 2.61951 21.6218 2.63553 21.6327C2.68221 21.665 2.73221 21.6921 2.78221 21.7185C2.79705 21.7263 2.81072 21.7364 2.82576 21.7439C2.87693 21.7689 2.93064 21.7882 2.98436 21.807C2.99998 21.8124 3.01463 21.8202 3.03045 21.8253C3.08553 21.8427 3.14217 21.8538 3.1992 21.8648C3.21482 21.8677 3.23006 21.8732 3.24588 21.8755C3.31892 21.887 3.39334 21.8927 3.46834 21.8927C3.50974 21.8927 3.55134 21.8907 3.59314 21.8874C3.60174 21.8866 3.61013 21.8849 3.61873 21.8841C3.65193 21.8806 3.68494 21.8769 3.71814 21.8712C3.73338 21.8685 3.74861 21.8644 3.76384 21.8612C3.79021 21.8558 3.81658 21.8507 3.84275 21.8437C3.87068 21.8364 3.89822 21.8269 3.92595 21.8177C3.93904 21.8136 3.95212 21.8101 3.96501 21.8054L3.96658 21.8048C3.96736 21.8046 3.96814 21.8042 3.96892 21.804C3.96951 21.8038 3.97009 21.8034 3.97068 21.8032L21.3899 15.5205L42.0466 72.2727C38.3619 75.4957 36.8273 80.7738 38.5998 85.6431C40.349 90.4487 44.9589 93.6778 50.0712 93.6778C51.4935 93.6778 52.8977 93.4292 54.2452 92.9388C57.309 91.8235 59.7551 89.5823 61.1332 86.6273C61.8657 85.0564 62.2459 83.3843 62.2776 81.7019L99.0354 68.335C99.0451 68.3315 99.0547 68.3266 99.0643 68.3229C99.1016 68.3084 99.1385 68.2938 99.1738 68.2766C99.1889 68.2694 99.2027 68.2606 99.2176 68.2528C99.2465 68.2377 99.2754 68.2231 99.3029 68.2063C99.3186 68.1965 99.333 68.1852 99.3483 68.1752C99.3733 68.1584 99.3988 68.1422 99.4227 68.1243C99.4303 68.1184 99.4369 68.1118 99.4443 68.1059C99.4744 68.0819 99.5043 68.0579 99.5322 68.0319C99.5367 68.0268 99.541 68.0219 99.5457 68.0174ZM61.5403 77.2933C61.3715 76.8295 61.1752 76.3807 60.9553 75.9475L95.6547 63.3292L96.6569 66.0821L61.9569 78.7008C61.8455 78.2273 61.7092 77.7574 61.5403 77.2933ZM63.0326 47.1328L61.3631 42.5451L65.9522 40.875L67.6223 45.4625L63.0326 47.1328ZM58.9374 21.6048L54.3491 23.2747L52.6792 18.6871L57.2684 17.0169L58.9374 21.6048ZM48.5171 47.2201L58.6106 43.5469L60.7817 49.5105C60.9907 50.0867 61.5434 50.4751 62.1586 50.4751C62.3285 50.4751 62.4965 50.4441 62.6586 50.3853L70.0002 47.7134C70.7599 47.4381 71.1525 46.5963 70.8752 45.8365L68.7043 39.8733L78.7993 36.1993L88.4878 62.8176L59.2616 73.4459C58.7127 72.8192 58.1044 72.25 57.4442 71.7494L48.5171 47.2201ZM23.6438 13.1455C23.6352 13.122 23.6245 13.1 23.6149 13.0769C23.6053 13.0545 23.5967 13.0312 23.5862 13.0092C23.5766 12.989 23.5653 12.9707 23.5549 12.9513C23.542 12.9273 23.5297 12.9027 23.5157 12.8797C23.5059 12.8638 23.4948 12.8494 23.4844 12.834C23.4678 12.809 23.4518 12.7836 23.4337 12.7599C23.4243 12.7474 23.4135 12.7363 23.4038 12.724C23.3835 12.6988 23.3633 12.6736 23.3413 12.65C23.3325 12.6404 23.3225 12.6318 23.3133 12.6224C23.2891 12.5978 23.2651 12.5732 23.2393 12.5504C23.2319 12.5439 23.2239 12.5383 23.2165 12.532C23.188 12.5076 23.159 12.4836 23.1288 12.4617C23.1245 12.4586 23.1198 12.4562 23.1155 12.4529C23.0815 12.4287 23.0467 12.4056 23.0108 12.3844C23.0081 12.3828 23.0051 12.3814 23.0024 12.3801C22.8024 12.2638 22.5758 12.1953 22.3415 12.183C22.3393 12.183 22.3374 12.1832 22.3352 12.183C22.2899 12.1808 22.2444 12.1806 22.1985 12.1828C22.1901 12.1832 22.1817 12.1847 22.1733 12.1853C22.1339 12.1879 22.0944 12.191 22.0549 12.1969C22.036 12.1998 22.0173 12.2045 21.9983 12.2082C21.9694 12.2135 21.9403 12.2183 21.9114 12.2256C21.8786 12.2338 21.846 12.2449 21.8133 12.2553C21.7989 12.2599 21.7842 12.2635 21.7698 12.2685L21.7678 12.2693C21.7673 12.2695 21.7665 12.2697 21.7657 12.2699C21.7651 12.2701 21.7645 12.2705 21.7639 12.2707L4.3447 18.5535L3.34256 15.8002L20.7596 9.51816C20.76 9.51796 20.7602 9.51777 20.7606 9.51777C20.7616 9.51738 20.7626 9.51718 20.7637 9.51679C23.0411 8.68809 25.5674 9.8662 26.3961 12.1433L47.3011 69.5799C46.8265 69.6908 46.3568 69.8285 45.8941 69.9971C45.4279 70.1668 44.9806 70.3651 44.5486 70.5838L23.6438 13.1455ZM58.4776 85.3886C57.4303 87.6345 55.5714 89.338 53.2429 90.1855C52.2175 90.5587 51.1501 90.748 50.0708 90.748C46.1855 90.748 42.6818 88.2937 41.3525 84.6408C39.6029 79.8342 42.0902 74.5 46.897 72.7502C47.9224 72.377 48.9896 72.1877 50.069 72.1877C53.9542 72.1877 57.4581 74.642 58.7874 78.2951C59.635 80.6236 59.525 83.1429 58.4776 85.3886Z" fill="black"/>
</svg>
