<svg width="170" height="170" viewBox="0 0 170 170" fill="none" xmlns="http://www.w3.org/2000/svg">
<path opacity="0.1" d="M5 106.405L70 143.5L97.5 145.5L165.5 106.405L140.257 95.1894L89.6955 70L78.4801 72.2063L55.4978 83.7894L41.5245 86.7319L5 106.405Z" fill="black"/>
<path opacity="0.3" d="M69.5 142.5L74 144L139.5 105.5L132.5 102L73.3238 73.3491L10.3 102.051L5.28223 106.467L69.5 142.5Z" fill="black"/>
<path fill-rule="evenodd" clip-rule="evenodd" d="M96.9944 111.005C102.254 114.054 102.28 118.988 97.0579 122.032C91.8354 125.076 83.3342 125.081 78.0745 122.032C72.8149 118.988 72.7884 114.049 78.011 111.005C83.2388 107.961 91.7401 107.961 96.9944 111.005Z" fill="#33B550"/>
<path fill-rule="evenodd" clip-rule="evenodd" d="M107.763 109.794L76.0458 128.278L66.337 122.653L98.0536 104.174L107.763 109.794Z" fill="#ECBD7A"/>
<path fill-rule="evenodd" clip-rule="evenodd" d="M76.0193 128.284L75.9717 137.298L66.2628 131.673L66.3105 122.664L76.0193 128.284Z" fill="#AE7836"/>
<path fill-rule="evenodd" clip-rule="evenodd" d="M97.7834 100.716C103.043 103.76 103.069 108.694 97.8469 111.743C92.6244 114.787 84.1232 114.787 78.8635 111.743C73.6039 108.694 73.5774 103.76 78.8 100.716C84.0278 97.6727 92.529 97.6727 97.7834 100.716Z" fill="#33B550"/>
<path fill-rule="evenodd" clip-rule="evenodd" d="M108.552 99.4999L76.835 117.984L67.1261 112.365L98.8428 93.8802L108.552 99.4999Z" fill="#ECBD7A"/>
<path fill-rule="evenodd" clip-rule="evenodd" d="M76.8086 117.995L76.7609 127.004L67.0521 121.384L67.0997 112.37L76.8086 117.995Z" fill="#AE7836"/>
<path fill-rule="evenodd" clip-rule="evenodd" d="M96.2051 90.8153C101.465 93.8642 101.491 98.7987 96.2687 101.842C91.0461 104.886 82.5449 104.891 77.2853 101.842C72.0256 98.7987 71.9992 93.8589 77.2217 90.8153C82.4443 87.7718 90.9455 87.7718 96.2051 90.8153Z" fill="#33B550"/>
<path fill-rule="evenodd" clip-rule="evenodd" d="M77.2851 101.842C82.5448 104.891 91.046 104.886 96.2685 101.842C101.491 98.7987 101.465 93.8642 96.205 90.8153C90.9453 87.7717 82.4441 87.7717 77.2216 90.8153C71.999 93.8589 72.0255 98.7987 77.2851 101.842ZM120.49 101.322C116.497 103.654 116.518 107.425 120.538 109.757L109.966 115.918C105.94 113.592 99.4466 113.592 95.4528 115.918L52.9998 91.3358C56.9988 89.0093 56.9723 85.2328 52.9521 82.9063L63.5243 76.7448C67.5445 79.0713 74.0436 79.0766 78.0426 76.7448L120.49 101.322Z" fill="#4FCD6B"/>
<path fill-rule="evenodd" clip-rule="evenodd" d="M109.966 115.918L120.538 109.757C116.518 107.425 116.497 103.654 120.49 101.322L78.0426 76.7449C74.0436 79.0767 67.5445 79.0714 63.5243 76.7449L52.9521 82.9064C56.9723 85.2329 56.9988 89.0094 52.9998 91.3413L95.4529 115.918C99.4466 113.592 105.94 113.592 109.966 115.918ZM70.7385 68.6393L134.468 105.539L102.752 124.024L39.0218 87.1238L70.7385 68.6393Z" fill="#33B550"/>
<path fill-rule="evenodd" clip-rule="evenodd" d="M106.973 89.6043L75.2566 108.089L65.5477 102.464L97.2644 83.9846L106.973 89.6043Z" fill="#ECBD7A"/>
<path fill-rule="evenodd" clip-rule="evenodd" d="M75.2301 108.094L75.1824 117.108L65.4735 111.483L65.5212 102.474L75.2301 108.094Z" fill="#AE7836"/>
<path fill-rule="evenodd" clip-rule="evenodd" d="M70.7385 59.1367L39.0218 77.6213L38.9741 86.6298L102.709 123.53L134.426 105.045L134.468 96.0367L70.7385 59.1367Z" fill="#137A2A"/>
<path fill-rule="evenodd" clip-rule="evenodd" d="M96.2051 81.3182C101.465 84.3618 101.491 89.2963 96.2687 92.3452C91.0461 95.3887 82.5449 95.3887 77.2853 92.3452C72.0256 89.2963 71.9992 84.3618 77.2217 81.3182C82.4443 78.2746 90.9455 78.2746 96.2051 81.3182Z" fill="#33B550"/>
<path fill-rule="evenodd" clip-rule="evenodd" d="M77.2851 92.3452C82.5448 95.3888 91.046 95.3888 96.2685 92.3452C101.491 89.2963 101.465 84.3618 96.205 81.3182C90.9453 78.2747 82.4441 78.2747 77.2216 81.3182C71.999 84.3618 72.0255 89.2963 77.2851 92.3452ZM120.49 91.8247C116.497 94.1512 116.518 97.9224 120.538 100.254L109.966 106.416C105.94 104.089 99.4466 104.089 95.4528 106.416L52.9998 81.8388C56.9988 79.507 56.9723 75.7357 52.9521 73.4039L63.5243 67.2424C67.5445 69.5742 74.0436 69.5742 78.0426 67.2424L120.49 91.8247Z" fill="#4FCD6B"/>
<path fill-rule="evenodd" clip-rule="evenodd" d="M109.966 106.416L120.538 100.254C116.518 97.9224 116.497 94.1511 120.49 91.8246L78.0426 67.2423C74.0436 69.5741 67.5445 69.5741 63.5243 67.2423L52.9521 73.4038C56.9723 75.7356 56.9988 79.5069 52.9998 81.8387L95.4529 106.416C99.4466 104.089 105.94 104.089 109.966 106.416ZM70.7385 59.1367L134.468 96.0367L102.752 114.521L39.0218 77.6212L70.7385 59.1367Z" fill="#33B550"/>
<path fill-rule="evenodd" clip-rule="evenodd" d="M106.973 80.1018L75.2566 98.5864L65.5477 92.9666L97.2644 74.4821L106.973 80.1018Z" fill="#ECBD7A"/>
<path fill-rule="evenodd" clip-rule="evenodd" d="M75.2301 98.5971L75.1824 107.606L65.4735 101.986L65.5212 92.972L75.2301 98.5971Z" fill="#AE7836"/>
<path fill-rule="evenodd" clip-rule="evenodd" d="M102.752 114.521V123.53L134.426 105.045V96.0367L102.752 114.521Z" fill="#1D9F3A"/>
<path fill-rule="evenodd" clip-rule="evenodd" d="M72.3169 48.0513L40.6002 66.5359L40.5526 75.5444L104.288 112.444L136.004 93.9599L136.047 84.9513L72.3169 48.0513Z" fill="#137A2A"/>
<path fill-rule="evenodd" clip-rule="evenodd" d="M97.7834 70.2328C103.043 73.2763 103.069 78.2162 97.8469 81.2597C92.6244 84.3033 84.1232 84.3033 78.8635 81.2597C73.6039 78.2162 73.5774 73.2763 78.8 70.2328C84.0278 67.1892 92.529 67.1892 97.7834 70.2328Z" fill="#33B550"/>
<path fill-rule="evenodd" clip-rule="evenodd" d="M78.8637 81.2597C84.1233 84.3033 92.6245 84.3033 97.8471 81.2597C103.07 78.2161 103.043 73.2763 97.7835 70.2327C92.5292 67.1891 84.028 67.1891 78.8001 70.2327C73.5776 73.2763 73.604 78.2161 78.8637 81.2597ZM122.074 80.7392C118.075 83.0657 118.096 86.8422 122.117 89.1687L111.544 95.3302C107.524 93.0037 101.025 93.0037 97.0314 95.3302L54.5783 70.7533C58.5773 68.4214 58.5508 64.6502 54.5306 62.3237L65.1028 56.1622C69.123 58.4887 75.6221 58.4887 79.6211 56.1622L122.074 80.7392Z" fill="#4FCD6B"/>
<path fill-rule="evenodd" clip-rule="evenodd" d="M111.544 95.3303L122.116 89.1688C118.096 86.8423 118.075 83.0657 122.074 80.7392L79.621 56.1622C75.622 58.4887 69.123 58.4887 65.1028 56.1622L54.5306 62.3237C58.5508 64.6502 58.5772 68.4215 54.5782 70.7533L97.0313 95.3303C101.025 93.0038 107.524 93.0038 111.544 95.3303ZM72.3169 48.0513L136.047 84.9513L104.33 103.436L40.6002 66.5359L72.3169 48.0513Z" fill="#33B550"/>
<path fill-rule="evenodd" clip-rule="evenodd" d="M108.552 69.0164L76.835 87.5009L67.1261 81.8812L98.8428 63.3967L108.552 69.0164Z" fill="#ECBD7A"/>
<path fill-rule="evenodd" clip-rule="evenodd" d="M76.8086 87.5116L76.7609 96.5201L67.0521 90.9004L67.0997 81.8918L76.8086 87.5116Z" fill="#AE7836"/>
<path fill-rule="evenodd" clip-rule="evenodd" d="M104.33 103.436V112.444L136.004 93.96V84.9514L104.33 103.436Z" fill="#1D9F3A"/>
<path fill-rule="evenodd" clip-rule="evenodd" d="M73.8953 38.0283L42.1786 56.5128L42.1363 65.5214L105.866 102.416L137.583 83.9369L137.625 74.9283L73.8953 38.0283Z" fill="#137A2A"/>
<path fill-rule="evenodd" clip-rule="evenodd" d="M99.3619 60.2043C104.621 63.2479 104.648 68.1877 99.4254 71.2313C94.2029 74.2749 85.7016 74.2749 80.442 71.2313C75.1877 68.1877 75.1559 63.2479 80.3838 60.2043C85.6063 57.1607 94.1075 57.1607 99.3619 60.2043Z" fill="#33B550"/>
<path fill-rule="evenodd" clip-rule="evenodd" d="M80.4421 71.2313C85.7017 74.2749 94.2029 74.2749 99.4255 71.2313C104.648 68.1877 104.622 63.2479 99.3619 60.2043C94.1076 57.1608 85.6064 57.1608 80.3838 60.2043C75.156 63.2479 75.1877 68.1877 80.4421 71.2313ZM123.653 70.7108C119.659 73.0373 119.68 76.8139 123.695 79.1404L113.123 85.3019C109.103 82.9754 102.603 82.9754 98.6098 85.3072L56.1567 60.7249C60.1557 58.3984 60.1292 54.6218 56.109 52.2953L66.6812 46.1338C70.7014 48.4603 77.2005 48.4603 81.1995 46.1338L123.653 70.7108Z" fill="#4FCD6B"/>
<path fill-rule="evenodd" clip-rule="evenodd" d="M113.123 85.302L123.695 79.1405C119.68 76.814 119.659 73.0374 123.653 70.7109L81.1994 46.1339C77.2004 48.4604 70.7013 48.4604 66.6811 46.1339L56.1089 52.2954C60.1291 54.6219 60.1556 58.3985 56.1566 60.725L98.6097 85.3073C102.603 82.9755 109.102 82.9755 113.123 85.302ZM73.8953 38.0283L137.625 74.9283L105.909 93.4075L42.1786 56.5128L73.8953 38.0283Z" fill="#33B550"/>
<path fill-rule="evenodd" clip-rule="evenodd" d="M110.13 58.9933L78.4187 77.4725L68.7098 71.8528L100.421 53.3682L110.13 58.9933Z" fill="#ECBD7A"/>
<path fill-rule="evenodd" clip-rule="evenodd" d="M78.387 77.4831L78.3447 86.4917L68.6358 80.872L68.6782 71.8634L78.387 77.4831Z" fill="#AE7836"/>
<path fill-rule="evenodd" clip-rule="evenodd" d="M105.909 93.4074V102.416L137.583 83.9368V74.9282L105.909 93.4074Z" fill="#1D9F3A"/>
<path fill-rule="evenodd" clip-rule="evenodd" d="M70.7385 27.9999L39.0218 46.4845L38.9741 55.493L102.709 92.393L134.426 73.9085L134.468 64.8999L70.7385 27.9999Z" fill="#137A2A"/>
<path fill-rule="evenodd" clip-rule="evenodd" d="M96.2051 50.1759C101.465 53.2248 101.491 58.1593 96.2687 61.2029C91.0461 64.2465 82.5449 64.2518 77.2853 61.2029C72.0256 58.1593 71.9992 53.2195 77.2217 50.1759C82.4443 47.1324 90.9455 47.1324 96.2051 50.1759Z" fill="#33B550"/>
<path fill-rule="evenodd" clip-rule="evenodd" d="M77.2851 61.2029C82.5448 64.2518 91.046 64.2465 96.2685 61.2029C101.491 58.1594 101.465 53.2248 96.205 50.176C90.9453 47.1324 82.4441 47.1324 77.2216 50.176C71.999 53.2195 72.0255 58.1594 77.2851 61.2029ZM120.49 60.6824C116.497 63.0142 116.518 66.7855 120.538 69.1173L109.966 75.2788C105.94 72.9523 99.4466 72.9523 95.4528 75.2788L52.9998 50.6965C56.9988 48.37 56.9723 44.5934 52.9521 42.2669L63.5243 36.1054C67.5445 38.4319 74.0436 38.4372 78.0426 36.1054L120.49 60.6824Z" fill="#4FCD6B"/>
<path fill-rule="evenodd" clip-rule="evenodd" d="M109.966 75.2789L120.538 69.1174C116.518 66.7856 116.497 63.0143 120.49 60.6825L78.0426 36.1055C74.0436 38.4373 67.5445 38.432 63.5243 36.1055L52.9521 42.267C56.9723 44.5935 56.9988 48.3701 52.9998 50.6966L95.4529 75.2789C99.4466 72.9524 105.94 72.9524 109.966 75.2789ZM70.7385 27.9999L134.468 64.8999L102.752 83.3845L39.0218 46.4845L70.7385 27.9999Z" fill="#33B550"/>
<path fill-rule="evenodd" clip-rule="evenodd" d="M106.973 48.9649L75.2566 67.4495L65.5477 61.8244L97.2644 43.3452L106.973 48.9649Z" fill="#ECBD7A"/>
<path fill-rule="evenodd" clip-rule="evenodd" d="M75.2301 67.4549L75.1824 76.4687L65.4735 70.8437L65.5212 61.8351L75.2301 67.4549Z" fill="#AE7836"/>
<path fill-rule="evenodd" clip-rule="evenodd" d="M102.752 83.3844V92.3929L134.426 73.9084V64.8998L102.752 83.3844Z" fill="#1D9F3A"/>
<path fill-rule="evenodd" clip-rule="evenodd" d="M59.6525 111.207C64.9121 114.25 64.9386 119.185 59.7108 122.234C54.4882 125.277 45.9923 125.277 40.7327 122.234C35.4731 119.185 35.4466 114.25 40.6691 111.207C45.8917 108.163 54.3929 108.163 59.6525 111.207Z" fill="#33B550"/>
<path fill-rule="evenodd" clip-rule="evenodd" d="M40.7327 122.234C45.9923 125.277 54.4882 125.277 59.7108 122.234C64.9386 119.185 64.9122 114.25 59.6525 111.207C54.3929 108.163 45.8917 108.163 40.6691 111.207C35.4466 114.25 35.4731 119.185 40.7327 122.234ZM83.9379 121.713C79.9442 124.04 79.9654 127.811 83.9803 130.143L73.4081 136.304C69.3879 133.978 62.8888 133.978 58.8951 136.304L16.4473 111.727C20.441 109.396 20.4198 105.624 16.3996 103.293L26.9719 97.131C30.9921 99.4629 37.4911 99.4629 41.4848 97.131L83.9379 121.713Z" fill="#4FCD6B"/>
<path fill-rule="evenodd" clip-rule="evenodd" d="M36.9456 78.3383L5.2289 96.8228L5.18652 105.831L68.9165 142.731L100.633 124.247L100.676 115.238L36.9456 78.3383Z" fill="#137A2A"/>
<path fill-rule="evenodd" clip-rule="evenodd" d="M62.4121 100.514C67.6717 103.563 67.6982 108.498 62.4757 111.541C57.2531 114.585 48.7519 114.59 43.4923 111.541C38.2379 108.498 38.2062 103.558 43.434 100.514C48.6566 97.4709 57.1578 97.4709 62.4121 100.514Z" fill="#33B550"/>
<path fill-rule="evenodd" clip-rule="evenodd" d="M43.4922 111.541C48.7519 114.59 57.2531 114.585 62.4756 111.541C67.6982 108.498 67.6717 103.563 62.4121 100.514C57.1577 97.4709 48.6565 97.4709 43.434 100.514C38.2061 103.558 38.2379 108.498 43.4922 111.541ZM86.7027 111.021C82.709 113.353 82.7302 117.124 86.7451 119.456L76.1729 125.617C72.1527 123.291 65.6536 123.291 61.6599 125.617L19.2068 101.035C23.2058 98.7085 23.1794 94.9319 19.1645 92.6054L29.7314 86.4439C33.7516 88.7704 40.2506 88.7757 44.2497 86.4439L86.7027 111.021Z" fill="#4FCD6B"/>
<path fill-rule="evenodd" clip-rule="evenodd" d="M76.1728 125.617L86.745 119.456C82.7301 117.124 82.7089 113.353 86.7026 111.021L44.2496 86.4439C40.2505 88.7757 33.7515 88.7704 29.7313 86.4439L19.1644 92.6054C23.1793 94.9319 23.2057 98.7085 19.2067 101.035L61.6598 125.617C65.6535 123.291 72.1526 123.291 76.1728 125.617ZM36.9454 78.3383L100.675 115.238L68.9587 133.723L5.22873 96.8228L36.9454 78.3383Z" fill="#33B550"/>
<path fill-rule="evenodd" clip-rule="evenodd" d="M73.1802 99.3034L41.4688 117.788L31.76 112.163L63.4767 93.6837L73.1802 99.3034Z" fill="#ECBD7A"/>
<path fill-rule="evenodd" clip-rule="evenodd" d="M41.437 117.793L41.3947 126.807L31.6858 121.182L31.7282 112.174L41.437 117.793Z" fill="#AE7836"/>
<path fill-rule="evenodd" clip-rule="evenodd" d="M68.9587 133.723V142.731L100.633 124.247V115.238L68.9587 133.723Z" fill="#1D9F3A"/>
<path fill-rule="evenodd" clip-rule="evenodd" d="M35.7643 68.4428L4.04764 86.9273L3.99997 95.9359L67.7299 132.836L99.4466 114.351L99.4943 105.343L35.7643 68.4428Z" fill="#137A2A"/>
<path fill-rule="evenodd" clip-rule="evenodd" d="M61.2309 90.6189C66.4906 93.6624 66.517 98.6023 61.2892 101.646C56.0666 104.689 47.5707 104.689 42.3111 101.646C37.0515 98.6023 37.025 93.6624 42.2475 90.6189C47.4701 87.5753 55.9713 87.5753 61.2309 90.6189Z" fill="#33B550"/>
<path fill-rule="evenodd" clip-rule="evenodd" d="M42.311 101.646C47.5706 104.689 56.0665 104.689 61.2891 101.646C66.5169 98.6022 66.4904 93.6624 61.2308 90.6188C55.9712 87.5753 47.47 87.5753 42.2474 90.6188C37.0249 93.6624 37.0513 98.6022 42.311 101.646ZM85.5162 101.125C81.5225 103.452 81.5437 107.228 85.5639 109.555L74.9916 115.716C70.9661 113.39 64.4724 113.39 60.4787 115.716L18.0256 91.1394C22.0193 88.8129 21.9981 85.0363 17.9779 82.7098L28.5501 76.5483C32.5703 78.8748 39.0694 78.8748 43.0631 76.5483L85.5162 101.125Z" fill="#4FCD6B"/>
<path fill-rule="evenodd" clip-rule="evenodd" d="M74.9917 115.716L85.5639 109.555C81.5437 107.228 81.5226 103.452 85.5163 101.125L43.0632 76.5484C39.0695 78.8749 32.5704 78.8749 28.5502 76.5484L17.978 82.7099C21.9982 85.0364 22.0194 88.813 18.0256 91.1395L60.4787 115.722C64.4725 113.39 70.9662 113.39 74.9917 115.716ZM35.7643 68.4428L99.4943 105.343L67.7776 123.822L4.04764 86.9273L35.7643 68.4428Z" fill="#33B550"/>
<path fill-rule="evenodd" clip-rule="evenodd" d="M71.9991 89.4079L40.2824 107.887L30.5735 102.267L62.2902 83.7828L71.9991 89.4079Z" fill="#ECBD7A"/>
<path fill-rule="evenodd" clip-rule="evenodd" d="M40.2559 107.898L40.2083 116.906L30.4994 111.287L30.5471 102.278L40.2559 107.898Z" fill="#AE7836"/>
<path fill-rule="evenodd" clip-rule="evenodd" d="M67.7776 123.822V132.836L99.4466 114.351V105.343L67.7776 123.822Z" fill="#1D9F3A"/>
</svg>
