<svg width="170" height="170" viewBox="0 0 170 170" fill="none" xmlns="http://www.w3.org/2000/svg">
<path fill-rule="evenodd" clip-rule="evenodd" d="M112.039 136.85C111.613 136.85 111.188 136.85 110.976 136.638C110.338 136.212 109.7 135.787 109.487 135.787C92.4801 125.37 69.7327 112.615 55.9142 105.174C54.4261 104.536 54.4261 102.623 55.9142 101.772L66.3313 96.245C67.3942 95.6072 68.4572 95.3947 69.5201 95.3947C70.3705 95.3947 71.4335 95.6072 72.2838 95.8198C87.5905 103.048 107.787 115.166 122.456 125.583C123.944 126.646 125.432 127.496 125.432 128.984C125.432 129.622 125.007 130.047 124.369 130.472L112.889 136.638C112.676 136.85 112.251 136.85 112.039 136.85Z" fill="black" fill-opacity="0.301961"/>
<path fill-rule="evenodd" clip-rule="evenodd" d="M112.464 135.362C112.039 135.362 111.826 135.149 111.401 134.937C110.763 134.512 110.125 134.299 109.913 134.086C92.9053 123.669 70.3706 110.914 56.7647 103.473C55.2765 102.835 55.2765 100.922 56.7647 100.072L66.5439 94.5442C67.6069 93.9064 68.6698 93.6938 69.7328 93.6938C70.5831 93.6938 71.4335 93.9064 72.2839 94.3316C87.3779 101.347 107.574 113.465 122.243 123.882C123.731 124.945 125.219 125.795 125.219 127.283C125.219 127.921 124.794 128.346 124.369 128.772L113.314 134.937C113.102 135.149 112.676 135.362 112.464 135.362Z" fill="#D9D9D9"/>
<path fill-rule="evenodd" clip-rule="evenodd" d="M109.062 131.748C93.1179 121.969 71.0083 109.426 58.6779 102.835C58.4653 101.772 58.4653 100.709 59.5283 100.284C73.772 106.449 95.8816 119.417 110.338 129.622C110.976 130.685 111.613 131.96 111.401 133.236C110.763 132.811 109.487 132.173 109.062 131.748Z" fill="#E5E5E5"/>
<path fill-rule="evenodd" clip-rule="evenodd" d="M122.881 126.646L111.401 133.236C111.613 131.961 110.976 130.685 110.338 129.622L119.479 124.52L122.03 123.032C122.668 124.095 123.306 125.37 122.881 126.646Z" fill="#BFBFBF"/>
<path fill-rule="evenodd" clip-rule="evenodd" d="M122.03 123.032L119.479 124.52L110.338 129.622C95.8815 119.418 73.7719 106.449 59.5283 100.284L71.2208 93.4813C85.4645 99.8591 107.574 112.615 122.03 123.032Z" fill="#D1D1D1"/>
<path fill-rule="evenodd" clip-rule="evenodd" d="M96.7319 116.229L80.3623 106.875V93.9065L96.7319 103.261V116.229Z" fill="#B2B2B2"/>
<path fill-rule="evenodd" clip-rule="evenodd" d="M99.9208 114.528L96.7319 116.229V103.261L99.9208 101.56V114.528Z" fill="#999999"/>
<path fill-rule="evenodd" clip-rule="evenodd" d="M48.8987 8.44435C48.0484 8.01917 47.198 7.80658 46.5602 8.23176L43.7965 9.71991C44.4343 9.50731 45.2847 9.50731 46.135 9.9325L130.959 59.0413L133.723 57.3406L48.8987 8.44435Z" fill="#A3A3A3"/>
<path fill-rule="evenodd" clip-rule="evenodd" d="M133.723 57.3406L130.959 59.0413C132.66 59.8917 134.148 62.6554 134.148 64.5687L136.912 63.0806C136.912 60.9546 135.424 58.4035 133.723 57.3406Z" fill="#CCCCCC"/>
<path fill-rule="evenodd" clip-rule="evenodd" d="M134.148 64.5687V121.331C134.148 122.394 133.936 123.032 133.298 123.457L135.849 121.969C136.487 121.543 136.912 120.906 136.912 119.843V63.0806L134.148 64.5687Z" fill="#999999"/>
<path fill-rule="evenodd" clip-rule="evenodd" d="M46.135 74.348C44.4342 73.285 42.9461 70.7339 42.9461 68.608V11.8459C42.9461 9.93255 44.4342 8.86958 46.135 9.93255L130.959 59.0413C132.66 59.8917 134.148 62.6554 134.148 64.5687V121.331C134.148 123.457 132.66 124.307 130.959 123.244L46.135 74.348Z" fill="#C2C2C2"/>
<path fill-rule="evenodd" clip-rule="evenodd" d="M130.959 59.6792L46.1349 10.783C44.6468 9.93261 43.5838 10.5704 43.5838 12.2711V69.0332C43.5838 70.734 44.6468 72.6473 46.1349 73.4977L130.959 122.394C132.447 123.244 133.51 122.606 133.51 120.906V64.3562C133.51 62.6555 132.447 60.5296 130.959 59.6792Z" fill="#333333"/>
<path fill-rule="evenodd" clip-rule="evenodd" d="M47.6232 69.2457V15.4598L129.896 63.0805V116.866L47.6232 69.2457Z" fill="#1D9F3A"/>
<path fill-rule="evenodd" clip-rule="evenodd" d="M47.6232 15.46L47.198 15.2474V69.671L47.6232 69.2459V15.46Z" fill="#808080"/>
<path fill-rule="evenodd" clip-rule="evenodd" d="M47.6232 69.2458L47.198 69.671L129.896 117.292V116.867L47.6232 69.2458Z" fill="#C2C2C2"/>
<path fill-rule="evenodd" clip-rule="evenodd" d="M89.2912 37.9947C89.2912 38.6325 89.0786 38.8451 88.6534 38.6325C88.0156 38.2073 87.8031 37.5695 87.8031 37.1443C87.8031 36.7191 88.0156 36.5066 88.6534 36.7191C89.0786 36.9317 89.2912 37.5695 89.2912 37.9947Z" fill="#666666"/>
<path fill-rule="evenodd" clip-rule="evenodd" d="M96.7319 161.298C96.5193 161.298 96.3067 161.298 96.0941 161.086L16.1595 114.953C15.9469 114.74 15.9469 114.315 16.1595 114.103L39.332 100.709C39.5446 100.709 39.9698 100.709 40.1824 100.709C40.395 100.709 40.8202 100.709 41.0328 100.709L120.755 146.842C121.18 147.054 121.18 147.48 120.755 147.692L97.5823 161.086C97.3697 161.298 96.9445 161.298 96.7319 161.298Z" fill="black" fill-opacity="0.301961"/>
<path fill-rule="evenodd" clip-rule="evenodd" d="M117.991 142.803C118.204 143.015 118.416 143.015 118.416 143.228C118.416 143.44 117.991 143.44 117.991 143.44L117.566 143.015L117.991 142.803Z" fill="#808080"/>
<path fill-rule="evenodd" clip-rule="evenodd" d="M97.1571 158.109L98.6453 157.259V157.046V156.834L96.7319 157.897V158.109V158.322L97.1571 158.534V158.322V158.109Z" fill="#333333"/>
<path fill-rule="evenodd" clip-rule="evenodd" d="M98.8578 157.472L97.1571 158.535C97.1571 158.535 97.1571 158.535 97.1571 158.322V158.109L98.8578 157.046V157.259C98.8578 157.472 98.8578 157.472 98.8578 157.472Z" fill="#4D4D4D"/>
<path fill-rule="evenodd" clip-rule="evenodd" d="M115.44 147.48L116.928 146.629V146.204L115.015 147.267V147.692H115.227L115.44 147.905V147.48Z" fill="#333333"/>
<path fill-rule="evenodd" clip-rule="evenodd" d="M117.141 147.055L115.653 147.905C115.44 147.905 115.44 147.905 115.44 147.905V147.48L117.353 146.417V146.842L117.141 147.055Z" fill="#4D4D4D"/>
<path fill-rule="evenodd" clip-rule="evenodd" d="M96.732 157.046L18.7106 112.827V113.04V113.678C18.7106 113.89 18.7106 113.89 18.7106 113.89L96.0942 158.534L96.732 157.046Z" fill="#BFBFBF"/>
<path fill-rule="evenodd" clip-rule="evenodd" d="M96.3067 157.472L96.7319 157.046C96.3067 157.259 95.669 157.259 95.2438 157.046L96.0941 157.684C96.0941 157.472 96.0941 157.472 96.3067 157.472Z" fill="#B3B3B3"/>
<path fill-rule="evenodd" clip-rule="evenodd" d="M118.204 145.992L96.3068 158.535C96.0942 158.535 96.0942 158.535 96.0942 158.535V157.684C96.0942 157.472 96.0942 157.472 96.3068 157.472L118.204 143.228C118.204 143.015 118.416 143.228 118.416 143.228V145.566C118.416 145.779 118.204 145.779 118.204 145.992Z" fill="#808080"/>
<path fill-rule="evenodd" clip-rule="evenodd" d="M19.1358 112.402L40.1824 98.796C40.395 98.5834 41.0327 98.5834 41.4579 98.796L117.779 142.59C118.204 142.803 118.204 143.228 117.779 143.44L96.7319 157.046C96.3067 157.259 95.6689 157.259 95.2438 157.046L19.1358 113.465C18.7106 113.04 18.7106 112.827 19.1358 112.402Z" fill="#B3B3B3"/>
<path fill-rule="evenodd" clip-rule="evenodd" d="M87.1653 135.149L87.3779 135.787C87.3779 135.787 87.3779 136 87.5905 136L88.8661 136.85C89.2912 137.063 87.8031 138.126 87.8031 138.126L85.4646 139.401V139.826C85.4646 139.826 85.4646 140.039 85.6772 140.039L88.6535 141.74C88.8661 141.952 89.2912 141.952 89.5038 141.74L96.5194 137.275C96.732 137.275 96.732 137.063 96.732 137.063V136.638L87.1653 135.149Z" fill="#D6D6D6"/>
<path fill-rule="evenodd" clip-rule="evenodd" d="M96.5194 136.212L90.992 133.236C90.7794 133.024 90.3542 133.024 90.1416 133.236L87.3779 134.937C87.1653 135.149 87.1653 135.362 87.3779 135.575L88.8661 136.425C89.0787 136.425 89.0787 136.638 88.8661 136.85L85.4646 138.976C85.252 139.189 85.252 139.401 85.6772 139.614L88.6535 141.315C88.8661 141.527 89.2913 141.527 89.5039 141.315L96.5194 136.85C96.732 136.638 96.732 136.425 96.5194 136.212Z" fill="#F7F7F7"/>
<path fill-rule="evenodd" clip-rule="evenodd" d="M72.2838 141.952V142.59C72.2838 142.59 72.2838 142.803 72.4964 142.803L80.1497 147.267C80.5749 147.48 80.7875 147.48 81.0001 147.267L83.9764 145.566C83.9764 145.354 83.9764 145.354 83.9764 145.141V144.716L72.2838 141.952Z" fill="#D6D6D6"/>
<path fill-rule="evenodd" clip-rule="evenodd" d="M83.7638 144.503L76.1105 140.039C75.8979 139.826 75.4727 139.826 75.2601 140.039L72.2838 141.74C72.0712 141.952 72.0712 142.165 72.4964 142.377L80.1497 146.842C80.3623 146.842 80.7875 146.842 81.0001 146.842L83.7638 144.929C84.189 144.929 83.9764 144.503 83.7638 144.503Z" fill="#F7F7F7"/>
<path fill-rule="evenodd" clip-rule="evenodd" d="M29.1277 107.087V107.512C29.1277 107.512 29.1277 107.725 29.3403 107.725L36.9936 112.189C37.4188 112.402 37.6313 112.402 38.0565 112.189L40.8202 110.489C40.8202 110.276 41.0328 110.276 40.8202 110.064V109.638L29.1277 107.087Z" fill="#D6D6D6"/>
<path fill-rule="evenodd" clip-rule="evenodd" d="M40.6076 109.426L32.9543 104.961C32.7417 104.749 32.3165 104.749 32.1039 104.961L29.3402 106.662C28.915 106.875 29.1276 107.087 29.3402 107.3L36.9935 111.764C37.2061 111.764 37.6313 111.764 37.8439 111.764L40.8202 109.851C41.0328 109.851 41.0328 109.426 40.6076 109.426Z" fill="#F7F7F7"/>
<path fill-rule="evenodd" clip-rule="evenodd" d="M20.6239 112.402V112.827C20.6239 113.04 20.8365 113.04 20.8365 113.252L28.7024 117.717C28.915 117.717 29.3402 117.717 29.5528 117.717L32.3165 115.803L32.5291 115.591L32.3165 115.166L20.6239 112.402Z" fill="#D6D6D6"/>
<path fill-rule="evenodd" clip-rule="evenodd" d="M32.3165 114.74L24.4506 110.276C24.238 110.276 23.8129 110.276 23.6003 110.276L20.8366 112.189C20.624 112.402 20.624 112.615 20.8366 112.615L28.4899 117.079C28.9151 117.292 29.3402 117.292 29.5528 117.079L32.3165 115.378C32.5291 115.166 32.5291 114.953 32.3165 114.74Z" fill="#F7F7F7"/>
<path fill-rule="evenodd" clip-rule="evenodd" d="M36.9935 121.756V122.394L37.2061 122.606L63.7802 137.913C63.9927 137.913 64.4179 137.913 64.6305 137.913L67.3942 136C67.6068 136 67.6068 135.787 67.6068 135.787V135.362L36.9935 121.756Z" fill="#D6D6D6"/>
<path fill-rule="evenodd" clip-rule="evenodd" d="M63.7802 137.275L37.2062 122.181C36.9936 121.969 36.9936 121.756 37.2062 121.543L39.9698 119.843C40.1824 119.63 40.6076 119.63 40.8202 119.843L67.3942 134.937C67.6068 135.149 67.6068 135.362 67.3942 135.574L64.6305 137.275C64.418 137.488 63.9928 137.488 63.7802 137.275Z" fill="#F7F7F7"/>
<path fill-rule="evenodd" clip-rule="evenodd" d="M78.8742 140.677V141.102C78.8742 141.315 78.8742 141.315 79.0868 141.527L84.4016 144.503C84.6142 144.716 85.0394 144.716 85.2519 144.503L88.2282 142.803C88.2282 142.59 88.2282 142.59 88.2282 142.59V141.952L78.8742 140.677Z" fill="#D6D6D6"/>
<path fill-rule="evenodd" clip-rule="evenodd" d="M88.0157 141.74L82.7009 138.551C82.2757 138.551 82.0631 138.551 81.8505 138.551L78.8742 140.464C78.6616 140.464 78.6616 140.889 79.0868 140.889L84.4016 144.078C84.6142 144.291 85.0394 144.291 85.252 144.078L88.0157 142.165C88.2283 142.165 88.2283 141.952 88.0157 141.74Z" fill="#F7F7F7"/>
<path fill-rule="evenodd" clip-rule="evenodd" d="M65.2682 138.126V138.551C65.2682 138.551 65.2682 138.763 65.4808 138.763L70.7956 141.952C71.0082 141.952 71.4334 141.952 71.646 141.952L74.6223 140.039C74.6223 140.039 74.6223 140.039 74.6223 139.826V139.401L65.2682 138.126Z" fill="#D6D6D6"/>
<path fill-rule="evenodd" clip-rule="evenodd" d="M74.4097 139.189L69.0949 136C68.6697 135.787 68.4571 135.787 68.2446 136L65.2683 137.701C65.0557 137.913 65.0557 138.126 65.4809 138.338L70.7957 141.315C71.0083 141.527 71.4334 141.527 71.646 141.315L74.4097 139.614C74.6223 139.401 74.6223 139.189 74.4097 139.189Z" fill="#F7F7F7"/>
<path fill-rule="evenodd" clip-rule="evenodd" d="M33.3795 104.323V104.749C33.3795 104.961 33.3795 104.961 33.5921 104.961L38.9069 108.15C39.3321 108.363 39.5446 108.363 39.7572 108.15L42.7335 106.449C42.7335 106.237 42.7335 106.237 42.7335 106.024V105.599L33.3795 104.323Z" fill="#D6D6D6"/>
<path fill-rule="evenodd" clip-rule="evenodd" d="M42.521 105.386L37.2062 102.198C36.9936 101.985 36.5684 101.985 36.3558 102.198L33.3795 104.111C33.1669 104.111 33.1669 104.323 33.5921 104.536L38.9069 107.725C39.1195 107.725 39.5447 107.725 39.7573 107.725L42.521 105.812C42.7336 105.599 42.7336 105.386 42.521 105.386Z" fill="#F7F7F7"/>
<path fill-rule="evenodd" clip-rule="evenodd" d="M24.8758 109.638V110.276C24.8758 110.276 24.8758 110.489 25.0883 110.489L30.6157 113.677C30.8283 113.677 31.2535 113.677 31.4661 113.677L34.2298 111.764L34.4424 111.552L34.2298 110.914L24.8758 109.638Z" fill="#D6D6D6"/>
<path fill-rule="evenodd" clip-rule="evenodd" d="M34.0172 110.701L28.7024 107.725C28.4898 107.512 28.0647 107.512 27.8521 107.725L25.0884 109.426C24.8758 109.638 24.8758 109.851 25.0884 110.063L30.4032 113.04C30.8284 113.252 31.0409 113.252 31.2535 113.04L34.2298 111.339C34.4424 111.126 34.4424 110.914 34.0172 110.701Z" fill="#F7F7F7"/>
<path fill-rule="evenodd" clip-rule="evenodd" d="M29.978 117.717V118.355L30.1906 118.567L35.718 121.756C35.9306 121.756 36.3557 121.756 36.5683 121.756L39.332 119.843C39.5446 119.843 39.5446 119.63 39.5446 119.63V119.205L29.978 117.717Z" fill="#D6D6D6"/>
<path fill-rule="evenodd" clip-rule="evenodd" d="M39.3321 118.78L33.8047 115.803C33.5921 115.591 33.1669 115.591 32.9543 115.803L30.1906 117.504C29.978 117.717 29.978 117.929 30.1906 118.142L35.718 121.118C35.9306 121.331 36.3558 121.331 36.5684 121.118L39.3321 119.418C39.5447 119.205 39.5447 118.992 39.3321 118.78Z" fill="#F7F7F7"/>
<path fill-rule="evenodd" clip-rule="evenodd" d="M99.283 154.07V153.432H92.2674V154.07C92.2674 154.07 92.2674 154.283 92.48 154.283L95.4563 155.983C95.6689 156.196 96.0941 156.196 96.3067 155.983L99.0704 154.283C99.283 154.07 99.283 154.07 99.283 154.07Z" fill="#D6D6D6"/>
<path fill-rule="evenodd" clip-rule="evenodd" d="M95.4564 155.558L92.4801 153.857C92.0549 153.645 92.0549 153.432 92.2675 153.22L95.0312 151.519C95.4564 151.306 95.6689 151.306 96.0941 151.519L99.0704 153.22C99.283 153.432 99.283 153.645 99.0704 153.645L96.3067 155.558C96.0941 155.771 95.6689 155.771 95.4564 155.558Z" fill="#F7F7F7"/>
<path fill-rule="evenodd" clip-rule="evenodd" d="M94.606 151.306V150.881H87.5905V151.306C87.5905 151.306 87.5905 151.519 87.8031 151.519L90.7794 153.432C90.992 153.432 91.4171 153.432 91.6297 153.432L94.3934 151.519C94.606 151.519 94.606 151.306 94.606 151.306Z" fill="#D6D6D6"/>
<path fill-rule="evenodd" clip-rule="evenodd" d="M90.7794 152.795L87.5905 151.094C87.3779 150.881 87.3779 150.669 87.5905 150.456L90.3542 148.755C90.5668 148.543 90.992 148.543 91.4172 148.755L94.3935 150.456C94.6061 150.669 94.6061 150.881 94.3935 151.094L91.6298 152.795C91.4172 153.007 90.992 153.007 90.7794 152.795Z" fill="#F7F7F7"/>
<path fill-rule="evenodd" clip-rule="evenodd" d="M89.929 148.543V148.117H82.7008L82.9134 148.543C82.9134 148.755 82.9134 148.755 83.126 148.968L86.1023 150.669C86.3149 150.881 86.7401 150.881 86.9527 150.669L89.7164 148.755C89.929 148.755 89.929 148.755 89.929 148.543Z" fill="#D6D6D6"/>
<path fill-rule="evenodd" clip-rule="evenodd" d="M86.1023 150.243L82.9134 148.33C82.7008 148.33 82.7008 147.905 82.9134 147.905L85.6771 145.992C85.8897 145.992 86.3149 145.992 86.5275 145.992L89.7164 147.905C89.929 147.905 89.929 148.117 89.7164 148.33L86.9527 150.243C86.7401 150.243 86.3149 150.243 86.1023 150.243Z" fill="#F7F7F7"/>
<path fill-rule="evenodd" clip-rule="evenodd" d="M98.8578 148.543V148.117H91.6297L91.8423 148.543C91.8423 148.755 91.8423 148.755 92.0549 148.755L95.0312 150.669C95.2438 150.669 95.669 150.669 95.8816 150.669L98.6452 148.755C98.8578 148.755 98.8578 148.755 98.8578 148.543Z" fill="#D6D6D6"/>
<path fill-rule="evenodd" clip-rule="evenodd" d="M95.0312 150.031L91.8423 148.33C91.6297 148.117 91.6297 147.905 91.8423 147.905L94.606 145.992C94.8186 145.992 95.2438 145.992 95.4564 145.992L98.6453 147.905C98.8579 147.905 98.8579 148.117 98.6453 148.33L95.8816 150.031C95.669 150.243 95.2438 150.243 95.0312 150.031Z" fill="#F7F7F7"/>
<path fill-rule="evenodd" clip-rule="evenodd" d="M112.039 145.779V145.354H104.81V145.779C104.81 145.992 105.023 145.992 105.023 146.204L108.212 147.905C108.425 148.117 108.85 148.117 109.062 147.905L111.826 145.992C112.039 145.992 112.039 145.992 112.039 145.779Z" fill="#D6D6D6"/>
<path fill-rule="evenodd" clip-rule="evenodd" d="M108.212 147.48L105.023 145.566C104.81 145.566 104.81 145.141 105.023 145.141L107.787 143.228C107.999 143.228 108.424 143.228 108.637 143.228L111.826 145.141C112.039 145.141 112.039 145.354 111.826 145.566L109.062 147.48C108.85 147.48 108.424 147.48 108.212 147.48Z" fill="#F7F7F7"/>
<path fill-rule="evenodd" clip-rule="evenodd" d="M107.362 143.228V142.59H100.133V143.228L100.346 143.44L103.535 145.141C103.747 145.354 104.173 145.354 104.385 145.141L107.149 143.44C107.362 143.228 107.362 143.228 107.362 143.228Z" fill="#D6D6D6"/>
<path fill-rule="evenodd" clip-rule="evenodd" d="M103.535 144.716L100.346 143.015C100.133 142.803 100.133 142.59 100.346 142.378L103.11 140.677C103.322 140.464 103.747 140.464 103.96 140.677L107.149 142.378C107.361 142.59 107.361 142.803 107.149 142.803L104.385 144.716C104.173 144.929 103.747 144.929 103.535 144.716Z" fill="#F7F7F7"/>
<path fill-rule="evenodd" clip-rule="evenodd" d="M102.685 140.464V140.039H95.4565V140.464L95.669 140.677L98.8579 142.59C99.0705 142.59 99.4957 142.59 99.7083 142.59L102.472 140.677C102.685 140.677 102.685 140.464 102.685 140.464Z" fill="#D6D6D6"/>
<path fill-rule="evenodd" clip-rule="evenodd" d="M98.8578 141.952L95.669 140.252C95.4564 140.039 95.4564 139.826 95.669 139.614L98.4327 137.913C98.6453 137.701 99.0704 137.701 99.283 137.913L102.472 139.614C102.685 139.826 102.685 140.039 102.472 140.252L99.7082 141.952C99.4956 142.165 99.0704 142.165 98.8578 141.952Z" fill="#F7F7F7"/>
<path fill-rule="evenodd" clip-rule="evenodd" d="M116.29 143.015V142.59H109.062V143.228L109.275 143.44L112.464 145.141C112.676 145.354 113.102 145.354 113.314 145.141L116.078 143.44C116.29 143.228 116.29 143.228 116.29 143.015Z" fill="#D6D6D6"/>
<path fill-rule="evenodd" clip-rule="evenodd" d="M112.464 144.716L109.275 143.015C109.062 142.803 109.062 142.59 109.275 142.378L112.039 140.677C112.251 140.464 112.676 140.464 112.889 140.677L116.078 142.378C116.29 142.59 116.29 142.803 116.078 142.803L113.314 144.716C113.101 144.716 112.676 144.716 112.464 144.716Z" fill="#F7F7F7"/>
<path fill-rule="evenodd" clip-rule="evenodd" d="M111.613 140.464V139.826L104.385 140.039V140.464L104.598 140.677L107.787 142.378C107.999 142.59 108.424 142.59 108.637 142.378L111.401 140.677L111.613 140.464Z" fill="#D6D6D6"/>
<path fill-rule="evenodd" clip-rule="evenodd" d="M107.787 141.952L104.598 140.252C104.385 140.039 104.385 139.826 104.598 139.614L107.362 137.913C107.574 137.701 107.999 137.701 108.212 137.913L111.401 139.614C111.613 139.826 111.613 140.039 111.401 140.252L108.637 141.952C108.425 142.165 107.999 142.165 107.787 141.952Z" fill="#F7F7F7"/>
<path fill-rule="evenodd" clip-rule="evenodd" d="M106.936 137.7L106.724 137.275H99.7082V137.7C99.7082 137.913 99.9208 137.913 99.9208 138.126L103.11 139.826C103.322 139.826 103.747 139.826 103.96 139.826L106.724 137.913C106.724 137.913 106.936 137.913 106.936 137.7Z" fill="#D6D6D6"/>
<path fill-rule="evenodd" clip-rule="evenodd" d="M102.897 139.189L99.9208 137.488C99.7082 137.275 99.7082 137.063 99.9208 137.063L102.684 135.149C102.897 135.149 103.322 135.149 103.535 135.149L106.511 137.063C106.936 137.063 106.936 137.275 106.724 137.488L103.96 139.189C103.535 139.401 103.322 139.401 102.897 139.189Z" fill="#F7F7F7"/>
<path fill-rule="evenodd" clip-rule="evenodd" d="M100.984 134.299V133.874H93.7556L93.9682 134.299C93.9682 134.512 93.9682 134.512 94.1808 134.724L97.1571 136.425C97.3697 136.638 97.7949 136.638 98.0075 136.425L100.771 134.512C100.984 134.512 100.984 134.512 100.984 134.299Z" fill="#D6D6D6"/>
<path fill-rule="evenodd" clip-rule="evenodd" d="M97.1571 136L93.9682 134.086C93.7556 134.086 93.7556 133.661 93.9682 133.661L96.7319 131.748C96.9445 131.748 97.3697 131.748 97.5823 131.748L100.771 133.661C100.984 133.661 100.984 133.874 100.771 134.086L98.0075 136C97.7949 136 97.3697 136 97.1571 136Z" fill="#F7F7F7"/>
<path fill-rule="evenodd" clip-rule="evenodd" d="M96.3068 131.748V131.11H89.0786L89.2912 131.748V131.96L92.4801 133.661C92.6927 133.874 93.1179 133.874 93.3305 133.661L96.0942 131.96C96.3068 131.748 96.3068 131.748 96.3068 131.748Z" fill="#D6D6D6"/>
<path fill-rule="evenodd" clip-rule="evenodd" d="M92.4801 133.236L89.2913 131.535C89.0787 131.323 89.0787 131.11 89.2913 130.898L92.055 129.197C92.2675 128.984 92.6927 128.984 92.9053 129.197L96.0942 130.898C96.3068 131.11 96.3068 131.323 96.0942 131.323L93.3305 133.236C93.1179 133.449 92.6927 133.449 92.4801 133.236Z" fill="#F7F7F7"/>
<path fill-rule="evenodd" clip-rule="evenodd" d="M91.6297 128.984V128.559H84.4016V128.984C84.4016 129.197 84.6142 129.197 84.6142 129.197L87.803 131.11C88.0156 131.11 88.4408 131.11 88.6534 131.11L91.4171 129.197C91.6297 129.197 91.6297 128.984 91.6297 128.984Z" fill="#D6D6D6"/>
<path fill-rule="evenodd" clip-rule="evenodd" d="M87.8031 130.472L84.6142 128.772C84.4016 128.559 84.4016 128.346 84.6142 128.134L87.3779 126.433C87.5905 126.22 88.0157 126.22 88.2283 126.433L91.4171 128.134C91.6297 128.346 91.6297 128.559 91.4171 128.772L88.6534 130.472C88.4408 130.685 88.0157 130.685 87.8031 130.472Z" fill="#F7F7F7"/>
<path fill-rule="evenodd" clip-rule="evenodd" d="M86.9527 126.22V125.795H79.7246V126.22C79.7246 126.433 79.9372 126.433 79.9372 126.646L83.1261 128.346C83.3387 128.559 83.7639 128.559 83.9764 128.346L86.7401 126.433C86.9527 126.433 86.9527 126.433 86.9527 126.22Z" fill="#D6D6D6"/>
<path fill-rule="evenodd" clip-rule="evenodd" d="M83.1261 127.921L79.9372 126.008C79.7246 126.008 79.7246 125.583 79.9372 125.583L82.7009 123.669C82.9135 123.669 83.3387 123.669 83.5513 123.669L86.7402 125.583C86.9528 125.583 86.9528 125.795 86.7402 126.008L83.9765 127.921C83.7639 127.921 83.3387 127.921 83.1261 127.921Z" fill="#F7F7F7"/>
<path fill-rule="evenodd" clip-rule="evenodd" d="M82.2757 123.67V123.032H75.0475V123.67L75.2601 123.882L78.449 125.583C78.6616 125.795 79.0868 125.795 79.2994 125.583L82.0631 123.882C82.2757 123.67 82.2757 123.67 82.2757 123.67Z" fill="#D6D6D6"/>
<path fill-rule="evenodd" clip-rule="evenodd" d="M78.449 125.158L75.2601 123.457C75.0476 123.244 75.0476 123.032 75.2601 122.819L78.0238 121.118C78.2364 120.906 78.6616 120.906 78.8742 121.118L82.0631 122.819C82.2757 123.032 82.2757 123.244 82.0631 123.244L79.2994 125.158C79.0868 125.37 78.6616 125.37 78.449 125.158Z" fill="#F7F7F7"/>
<path fill-rule="evenodd" clip-rule="evenodd" d="M77.5987 120.906L77.3861 120.48H70.3706V120.906L70.5832 121.118L73.772 123.032C73.9846 123.032 74.4098 123.032 74.6224 123.032L77.3861 121.118L77.5987 120.906Z" fill="#D6D6D6"/>
<path fill-rule="evenodd" clip-rule="evenodd" d="M73.5594 122.394L70.5831 120.693C70.3705 120.48 70.3705 120.268 70.5831 120.055L73.3468 118.355C73.5594 118.142 73.9846 118.142 74.1971 118.355L77.386 120.055C77.5986 120.268 77.5986 120.48 77.386 120.693L74.6223 122.394C74.1971 122.606 73.9846 122.606 73.5594 122.394Z" fill="#F7F7F7"/>
<path fill-rule="evenodd" clip-rule="evenodd" d="M72.9216 118.142L72.709 117.717H65.6935V118.142C65.6935 118.355 65.9061 118.355 65.9061 118.567L69.095 120.268C69.3076 120.48 69.7327 120.48 69.9453 120.268L72.709 118.355C72.709 118.355 72.9216 118.355 72.9216 118.142Z" fill="#D6D6D6"/>
<path fill-rule="evenodd" clip-rule="evenodd" d="M68.8824 119.843L65.9061 117.929C65.6935 117.929 65.6935 117.504 65.9061 117.504L68.6698 115.591C68.8824 115.591 69.3076 115.591 69.5202 115.591L72.4965 117.504C72.9217 117.504 72.9217 117.717 72.7091 117.929L69.7328 119.843C69.5202 119.843 69.3076 119.843 68.8824 119.843Z" fill="#F7F7F7"/>
<path fill-rule="evenodd" clip-rule="evenodd" d="M68.2446 115.591L68.032 114.953H61.0164V115.591C61.0164 115.591 61.0164 115.803 61.229 115.803L64.4179 117.504C64.6305 117.717 65.0557 117.717 65.2683 117.504L68.032 115.803C68.032 115.591 68.2446 115.591 68.2446 115.591Z" fill="#D6D6D6"/>
<path fill-rule="evenodd" clip-rule="evenodd" d="M64.2053 117.079L61.229 115.378C61.0164 115.166 61.0164 114.953 61.229 114.741L63.9927 113.04C64.2053 112.827 64.6305 112.827 64.8431 113.04L67.8194 114.741C68.2446 114.953 68.2446 115.166 68.032 115.166L65.0557 117.079C64.8431 117.292 64.6305 117.292 64.2053 117.079Z" fill="#F7F7F7"/>
<path fill-rule="evenodd" clip-rule="evenodd" d="M63.355 112.827V112.402H56.3395V112.827C56.3395 112.827 56.3395 113.04 56.5521 113.04L59.5283 114.953C59.9535 114.953 60.1661 114.953 60.5913 114.953L63.355 113.04V112.827Z" fill="#D6D6D6"/>
<path fill-rule="evenodd" clip-rule="evenodd" d="M59.5283 114.315L56.552 112.615C56.3394 112.402 56.3394 112.189 56.552 111.977L59.3157 110.276C59.5283 110.064 59.9534 110.064 60.166 110.276L63.1423 111.977C63.5675 112.189 63.5675 112.402 63.3549 112.615L60.3786 114.315C60.166 114.528 59.7409 114.528 59.5283 114.315Z" fill="#F7F7F7"/>
<path fill-rule="evenodd" clip-rule="evenodd" d="M58.6779 110.063V109.638H51.6624V110.063C51.6624 110.276 51.6624 110.276 51.875 110.489L54.8513 112.189C55.2765 112.402 55.489 112.402 55.7016 112.189L58.6779 110.276C58.6779 110.276 58.6779 110.276 58.6779 110.063Z" fill="#D6D6D6"/>
<path fill-rule="evenodd" clip-rule="evenodd" d="M54.8513 111.764L51.875 109.851C51.6624 109.851 51.4498 109.426 51.875 109.426L54.6387 107.512C54.8513 107.512 55.2765 107.512 55.4891 107.512L58.4654 109.426C58.678 109.426 58.8906 109.638 58.4654 109.851L55.7017 111.764C55.4891 111.764 55.0639 111.764 54.8513 111.764Z" fill="#F7F7F7"/>
<path fill-rule="evenodd" clip-rule="evenodd" d="M54.001 107.512V106.875H46.9854V107.512C46.9854 107.512 46.9854 107.725 47.198 107.725L50.1743 109.426C50.5995 109.638 50.8121 109.638 51.0247 109.426L54.001 107.725C54.001 107.512 54.001 107.512 54.001 107.512Z" fill="#D6D6D6"/>
<path fill-rule="evenodd" clip-rule="evenodd" d="M50.1743 109.001L47.198 107.3C46.9854 107.087 46.7728 106.875 46.9854 106.662L49.9617 104.961C50.1743 104.749 50.5994 104.749 50.812 104.961L53.7883 106.662C54.0009 106.875 54.0009 107.087 53.7883 107.087L51.0246 109.001C50.812 109.213 50.3869 109.213 50.1743 109.001Z" fill="#F7F7F7"/>
<path fill-rule="evenodd" clip-rule="evenodd" d="M49.3239 104.749V104.323H42.3083V104.749C42.3083 104.749 42.3083 104.961 42.5209 104.961L45.4972 106.875C45.7098 106.875 46.135 106.875 46.3476 106.875L49.3239 104.961V104.749Z" fill="#D6D6D6"/>
<path fill-rule="evenodd" clip-rule="evenodd" d="M45.4973 106.237L42.521 104.536C42.0958 104.323 42.0958 104.111 42.3084 103.898L45.2847 102.198C45.4973 101.985 45.9224 101.985 46.135 102.198L49.1113 103.898C49.3239 104.111 49.3239 104.323 49.1113 104.536L46.3476 106.237C46.135 106.449 45.7099 106.449 45.4973 106.237Z" fill="#F7F7F7"/>
<path fill-rule="evenodd" clip-rule="evenodd" d="M44.6468 101.985V101.56H37.6313V101.985C37.6313 102.198 37.6313 102.198 37.8439 102.41L40.8202 104.111C41.0328 104.324 41.4579 104.324 41.6705 104.111L44.4342 102.198C44.6468 102.198 44.6468 102.198 44.6468 101.985Z" fill="#D6D6D6"/>
<path fill-rule="evenodd" clip-rule="evenodd" d="M40.8202 103.686L37.8439 101.772C37.4187 101.772 37.4187 101.347 37.6313 101.347L40.6076 99.4338C40.8202 99.4338 41.0328 99.4338 41.458 99.4338L44.4343 101.347C44.6469 101.347 44.6469 101.56 44.4343 101.772L41.6706 103.686C41.458 103.686 41.0328 103.686 40.8202 103.686Z" fill="#F7F7F7"/>
<path fill-rule="evenodd" clip-rule="evenodd" d="M89.7164 133.023V132.598H82.4882L82.7008 133.023C82.7008 133.236 82.7008 133.236 82.9134 133.236L85.8897 135.149C86.1023 135.149 86.5275 135.149 86.7401 135.149L89.5038 133.236C89.7164 133.236 89.7164 133.023 89.7164 133.023Z" fill="#D6D6D6"/>
<path fill-rule="evenodd" clip-rule="evenodd" d="M85.8897 134.512L82.7009 132.811C82.4883 132.598 82.4883 132.386 82.7009 132.386L85.4646 130.472C85.6772 130.26 86.1023 130.26 86.3149 130.472L89.5038 132.173C89.7164 132.386 89.7164 132.598 89.5038 132.811L86.7401 134.512C86.5275 134.724 86.1023 134.724 85.8897 134.512Z" fill="#F7F7F7"/>
<path fill-rule="evenodd" clip-rule="evenodd" d="M85.0394 130.26V129.835H77.8113L78.0239 130.26C78.0239 130.472 78.0239 130.472 78.0239 130.685L81.2128 132.386C81.4253 132.598 81.8505 132.598 82.0631 132.386L84.8268 130.685C85.0394 130.472 85.0394 130.472 85.0394 130.26Z" fill="#D6D6D6"/>
<path fill-rule="evenodd" clip-rule="evenodd" d="M81.2127 131.96L78.0238 130.047C77.8112 130.047 77.8112 129.835 78.0238 129.622L80.7875 127.709C81.0001 127.709 81.4253 127.709 81.6379 127.709L84.8267 129.622C85.0393 129.622 85.0393 130.047 84.8267 130.047L82.063 131.96C81.8504 131.96 81.4253 131.96 81.2127 131.96Z" fill="#F7F7F7"/>
<path fill-rule="evenodd" clip-rule="evenodd" d="M80.3623 127.709V127.071H73.1342V127.709L73.3468 127.921L76.5357 129.622C76.7483 129.834 77.1735 129.834 77.3861 129.622L80.1498 127.921C80.3623 127.921 80.3623 127.709 80.3623 127.709Z" fill="#D6D6D6"/>
<path fill-rule="evenodd" clip-rule="evenodd" d="M76.5357 129.197L73.3468 127.496C73.1342 127.283 73.1342 127.071 73.3468 126.858L76.1105 125.157C76.3231 124.945 76.7483 124.945 76.9609 125.157L80.1498 126.858C80.3624 127.071 80.3624 127.283 80.1498 127.496L77.3861 129.197C77.1735 129.409 76.7483 129.409 76.5357 129.197Z" fill="#F7F7F7"/>
<path fill-rule="evenodd" clip-rule="evenodd" d="M75.6853 124.945V124.52H68.4571V124.945C68.4571 125.157 68.6697 125.157 68.6697 125.157L71.8586 127.071C72.0712 127.071 72.4964 127.071 72.709 127.071L75.4727 125.157C75.6853 125.157 75.6853 124.945 75.6853 124.945Z" fill="#D6D6D6"/>
<path fill-rule="evenodd" clip-rule="evenodd" d="M71.8586 126.433L68.6698 124.732C68.4572 124.52 68.4572 124.307 68.6698 124.307L71.4334 122.394C71.646 122.181 72.0712 122.181 72.2838 122.394L75.4727 124.095C75.6853 124.307 75.6853 124.52 75.4727 124.732L72.709 126.433C72.4964 126.646 72.0712 126.646 71.8586 126.433Z" fill="#F7F7F7"/>
<path fill-rule="evenodd" clip-rule="evenodd" d="M71.0083 122.181V121.756H63.7802V122.181C63.7802 122.394 63.9928 122.394 63.9928 122.606L67.1816 124.307C67.3942 124.52 67.8194 124.52 68.032 124.307L70.7957 122.606C71.0083 122.394 71.0083 122.394 71.0083 122.181Z" fill="#D6D6D6"/>
<path fill-rule="evenodd" clip-rule="evenodd" d="M67.1817 123.882L63.9928 121.969C63.7802 121.969 63.7802 121.756 63.9928 121.543L66.7565 119.63C66.9691 119.63 67.3943 119.63 67.6069 119.63L70.7957 121.543C71.0083 121.543 71.0083 121.969 70.7957 121.969L68.032 123.882C67.8194 123.882 67.3943 123.882 67.1817 123.882Z" fill="#F7F7F7"/>
<path fill-rule="evenodd" clip-rule="evenodd" d="M66.3312 119.63L66.1186 118.992H59.1031V119.63L59.3157 119.843L62.5046 121.543C62.7172 121.756 63.1424 121.756 63.3549 121.543L66.1186 119.843L66.3312 119.63Z" fill="#D6D6D6"/>
<path fill-rule="evenodd" clip-rule="evenodd" d="M62.292 121.118L59.3157 119.418C59.1031 119.205 59.1031 118.992 59.3157 118.78L62.0794 117.079C62.292 116.866 62.7172 116.866 62.9298 117.079L66.1187 118.78C66.3313 118.992 66.3313 119.205 66.1187 119.418L63.355 121.118C62.9298 121.331 62.7172 121.331 62.292 121.118Z" fill="#F7F7F7"/>
<path fill-rule="evenodd" clip-rule="evenodd" d="M61.6543 116.866L61.4417 116.441H54.4261V116.866C54.4261 117.079 54.6387 117.079 54.6387 117.079L57.8276 118.992C58.0402 118.992 58.4654 118.992 58.678 118.992L61.4417 117.079L61.6543 116.866Z" fill="#D6D6D6"/>
<path fill-rule="evenodd" clip-rule="evenodd" d="M57.615 118.355L54.6388 116.654C54.4262 116.441 54.4262 116.229 54.6388 116.229L57.4025 114.315C57.615 114.103 58.0402 114.103 58.2528 114.315L61.2291 116.016C61.6543 116.229 61.6543 116.441 61.4417 116.654L58.678 118.355C58.2528 118.567 58.0402 118.567 57.615 118.355Z" fill="#F7F7F7"/>
<path fill-rule="evenodd" clip-rule="evenodd" d="M56.9772 114.103L56.7646 113.677H49.7491V114.103C49.7491 114.315 49.7491 114.315 49.9617 114.528L53.1505 116.229C53.3631 116.441 53.7883 116.441 54.0009 116.229L56.7646 114.528C56.7646 114.315 56.9772 114.315 56.9772 114.103Z" fill="#D6D6D6"/>
<path fill-rule="evenodd" clip-rule="evenodd" d="M52.9379 115.803L49.9616 113.89C49.749 113.89 49.749 113.678 49.9616 113.465L52.7253 111.552C52.9379 111.552 53.3631 111.552 53.5756 111.552L56.5519 113.465C56.9771 113.465 56.9771 113.89 56.7645 113.89L53.7882 115.803C53.5756 115.803 53.3631 115.803 52.9379 115.803Z" fill="#F7F7F7"/>
<path fill-rule="evenodd" clip-rule="evenodd" d="M52.0876 111.552V110.914H45.0721V111.552C45.0721 111.552 45.0721 111.764 45.2847 111.764L48.261 113.465C48.6862 113.678 48.8988 113.678 49.3239 113.465L52.0876 111.764V111.552Z" fill="#D6D6D6"/>
<path fill-rule="evenodd" clip-rule="evenodd" d="M48.2609 113.04L45.2846 111.339C45.072 111.126 45.072 110.914 45.2846 110.701L48.0483 109C48.2609 108.788 48.6861 108.788 48.8987 109L51.875 110.701C52.3002 110.914 52.3002 111.126 52.0876 111.339L49.1113 113.04C48.8987 113.252 48.4735 113.252 48.2609 113.04Z" fill="#F7F7F7"/>
<path fill-rule="evenodd" clip-rule="evenodd" d="M47.4106 108.788V108.363H40.395V108.788C40.395 109.001 40.395 109.001 40.6076 109.001L43.5839 110.914C44.0091 110.914 44.2217 110.914 44.4343 110.914L47.4106 109.001V108.788Z" fill="#D6D6D6"/>
<path fill-rule="evenodd" clip-rule="evenodd" d="M43.5838 110.276L40.6075 108.575C40.395 108.363 40.1824 108.15 40.6075 108.15L43.3712 106.237C43.5838 106.024 44.009 106.024 44.2216 106.237L47.1979 107.937C47.4105 108.15 47.6231 108.363 47.1979 108.575L44.4342 110.276C44.2216 110.489 43.7964 110.489 43.5838 110.276Z" fill="#F7F7F7"/>
<path fill-rule="evenodd" clip-rule="evenodd" d="M87.803 137.063V136.638H80.7875V137.063C80.7875 137.275 80.7875 137.275 81.0001 137.488L83.9764 139.189C84.189 139.189 84.6142 139.189 84.8268 139.189L87.5905 137.275C87.803 137.275 87.803 137.275 87.803 137.063Z" fill="#D6D6D6"/>
<path fill-rule="evenodd" clip-rule="evenodd" d="M83.9764 138.551L80.7875 136.85C80.5749 136.637 80.5749 136.425 80.7875 136.425L83.5512 134.511C83.9764 134.511 84.189 134.511 84.6142 134.511L87.5905 136.425C87.8031 136.425 87.8031 136.637 87.5905 136.85L84.8268 138.551C84.6142 138.763 84.189 138.763 83.9764 138.551Z" fill="#F7F7F7"/>
<path fill-rule="evenodd" clip-rule="evenodd" d="M83.126 134.299V133.874H75.8979L76.1104 134.512C76.1104 134.512 76.1104 134.512 76.323 134.724L79.2993 136.425C79.5119 136.638 79.9371 136.638 80.1497 136.425L82.9134 134.724C83.126 134.512 83.126 134.512 83.126 134.299Z" fill="#D6D6D6"/>
<path fill-rule="evenodd" clip-rule="evenodd" d="M79.2993 136L76.1105 134.087C75.8979 134.087 75.8979 133.874 76.1105 133.661L78.8742 131.961C79.0868 131.748 79.5119 131.748 79.7245 131.961L82.9134 133.661C83.126 133.874 83.126 134.087 82.9134 134.087L80.1497 136C79.9371 136 79.5119 136 79.2993 136Z" fill="#F7F7F7"/>
<path fill-rule="evenodd" clip-rule="evenodd" d="M78.449 131.748V131.11L71.2209 131.323L71.4335 131.748C71.4335 131.748 71.4335 131.96 71.6461 131.96L74.6224 133.661C74.835 133.874 75.2601 133.874 75.4727 133.661L78.2364 131.96C78.449 131.96 78.449 131.748 78.449 131.748Z" fill="#D6D6D6"/>
<path fill-rule="evenodd" clip-rule="evenodd" d="M74.6224 133.236L71.4335 131.535C71.2209 131.323 71.2209 131.11 71.4335 130.898L74.1972 129.197C74.4098 128.984 74.835 128.984 75.0476 129.197L78.2364 130.898C78.449 131.11 78.449 131.323 78.2364 131.535L75.4728 133.236C75.2602 133.449 74.835 133.449 74.6224 133.236Z" fill="#F7F7F7"/>
<path fill-rule="evenodd" clip-rule="evenodd" d="M73.7719 128.984V128.559H66.5438L66.7564 128.984C66.7564 129.197 66.7564 129.197 66.7564 129.197L69.9453 131.11C70.1579 131.11 70.5831 131.11 70.7957 131.11L73.5594 129.197C73.7719 129.197 73.7719 129.197 73.7719 128.984Z" fill="#D6D6D6"/>
<path fill-rule="evenodd" clip-rule="evenodd" d="M69.9453 130.472L66.7564 128.772C66.5438 128.559 66.5438 128.346 66.7564 128.346L69.5201 126.433C69.7327 126.433 70.1579 126.433 70.3705 126.433L73.5594 128.346C73.772 128.346 73.772 128.559 73.5594 128.772L70.7957 130.472C70.5831 130.685 70.1579 130.685 69.9453 130.472Z" fill="#F7F7F7"/>
<path fill-rule="evenodd" clip-rule="evenodd" d="M69.095 126.22V125.795H61.8668V126.433C61.8668 126.433 62.0794 126.433 62.0794 126.646L65.2683 128.346C65.4809 128.559 65.9061 128.559 66.1187 128.346L68.8824 126.646C69.095 126.433 69.095 126.433 69.095 126.22Z" fill="#D6D6D6"/>
<path fill-rule="evenodd" clip-rule="evenodd" d="M65.2683 127.921L62.0795 126.008C61.8669 126.008 61.8669 125.795 62.0795 125.583L64.8432 123.882C65.0558 123.67 65.4809 123.67 65.6935 123.882L68.8824 125.583C69.095 125.795 69.095 126.008 68.8824 126.008L66.1187 127.921C65.9061 127.921 65.4809 127.921 65.2683 127.921Z" fill="#F7F7F7"/>
<path fill-rule="evenodd" clip-rule="evenodd" d="M64.4179 123.67V123.032L57.1898 123.244V123.67L57.4024 123.882L60.5912 125.583C60.8038 125.795 61.229 125.795 61.4416 125.583L64.2053 123.882C64.4179 123.882 64.4179 123.67 64.4179 123.67Z" fill="#D6D6D6"/>
<path fill-rule="evenodd" clip-rule="evenodd" d="M60.5913 125.158L57.4024 123.457C57.1898 123.244 57.1898 123.032 57.4024 122.819L60.1661 121.118C60.3787 120.906 60.8039 120.906 61.0165 121.118L64.2053 122.819C64.4179 123.032 64.4179 123.244 64.2053 123.457L61.4416 125.158C61.2291 125.37 60.8039 125.37 60.5913 125.158Z" fill="#F7F7F7"/>
<path fill-rule="evenodd" clip-rule="evenodd" d="M59.7409 120.906V120.48H52.5128V120.906C52.5128 121.118 52.7254 121.118 52.7254 121.118L55.9143 123.032C56.1269 123.032 56.5521 123.032 56.7647 123.032L59.5284 121.118C59.7409 121.118 59.7409 121.118 59.7409 120.906Z" fill="#D6D6D6"/>
<path fill-rule="evenodd" clip-rule="evenodd" d="M55.9142 122.394L52.7253 120.693C52.5127 120.481 52.5127 120.268 52.7253 120.268L55.489 118.355C55.7016 118.355 56.1268 118.355 56.3394 118.355L59.5283 120.055C59.7409 120.268 59.7409 120.481 59.5283 120.693L56.7646 122.394C56.552 122.606 56.1268 122.606 55.9142 122.394Z" fill="#F7F7F7"/>
<path fill-rule="evenodd" clip-rule="evenodd" d="M55.0639 118.142L54.8513 117.717H47.8357V118.355C47.8357 118.355 48.0483 118.355 48.0483 118.567L51.2372 120.268C51.4498 120.48 51.875 120.48 52.0876 120.268L54.8513 118.567C54.8513 118.355 55.0639 118.355 55.0639 118.142Z" fill="#D6D6D6"/>
<path fill-rule="evenodd" clip-rule="evenodd" d="M51.0246 119.843L48.0484 117.929C47.8358 117.929 47.8358 117.717 48.0484 117.504L50.8121 115.803C51.0246 115.591 51.4498 115.591 51.6624 115.803L54.8513 117.504C55.0639 117.717 55.0639 117.929 54.8513 117.929L52.0876 119.843C51.6624 119.843 51.4498 119.843 51.0246 119.843Z" fill="#F7F7F7"/>
<path fill-rule="evenodd" clip-rule="evenodd" d="M50.3868 115.591L50.1742 114.953L43.1587 115.166V115.591L43.3713 115.803L46.5601 117.504C46.7727 117.717 47.1979 117.717 47.4105 117.504L50.1742 115.803L50.3868 115.591Z" fill="#D6D6D6"/>
<path fill-rule="evenodd" clip-rule="evenodd" d="M46.3476 117.079L43.3713 115.378C43.1587 115.166 43.1587 114.953 43.3713 114.741L46.135 113.04C46.3476 112.827 46.7728 112.827 46.9853 113.04L49.9616 114.741C50.3868 114.953 50.3868 115.166 50.1742 115.378L47.4105 117.079C46.9853 117.292 46.7728 117.292 46.3476 117.079Z" fill="#F7F7F7"/>
<path fill-rule="evenodd" clip-rule="evenodd" d="M45.7098 112.827L45.4972 112.402H38.4817V112.827C38.4817 113.04 38.4817 113.04 38.6943 113.04L41.8832 114.953C42.0958 114.953 42.521 114.953 42.7335 114.953L45.4972 113.04C45.4972 113.04 45.7098 113.04 45.7098 112.827Z" fill="#D6D6D6"/>
<path fill-rule="evenodd" clip-rule="evenodd" d="M41.6706 114.315L38.6943 112.615C38.4817 112.402 38.4817 112.189 38.6943 112.189L41.458 110.276C41.6706 110.276 42.0958 110.063 42.3084 110.276L45.2847 111.977C45.7099 112.189 45.7099 112.402 45.4973 112.615L42.521 114.315C42.3084 114.528 42.0958 114.528 41.6706 114.315Z" fill="#F7F7F7"/>
<path fill-rule="evenodd" clip-rule="evenodd" d="M81.2127 138.551V137.913H74.1971V138.551C74.1971 138.551 74.1971 138.763 74.4097 138.763L77.386 140.464C77.5986 140.677 78.0238 140.677 78.2364 140.464L81.0001 138.763C81.2127 138.551 81.2127 138.551 81.2127 138.551Z" fill="#D6D6D6"/>
<path fill-rule="evenodd" clip-rule="evenodd" d="M77.386 140.039L74.4097 138.338C73.9845 138.126 73.9845 137.913 74.1971 137.701L77.1734 136C77.386 135.787 77.5986 135.787 78.0238 136L81.0001 137.701C81.2127 137.913 81.2127 138.126 81.0001 138.126L78.2364 140.039C78.0238 140.252 77.5986 140.252 77.386 140.039Z" fill="#F7F7F7"/>
<path fill-rule="evenodd" clip-rule="evenodd" d="M76.5357 135.787V135.362H69.5201V135.787C69.5201 135.787 69.5201 136 69.7327 136L72.709 137.913C72.9216 137.913 73.3468 137.913 73.5594 137.913L76.3231 136C76.5357 136 76.5357 135.787 76.5357 135.787Z" fill="#D6D6D6"/>
<path fill-rule="evenodd" clip-rule="evenodd" d="M72.7091 137.275L69.5202 135.575C69.3076 135.362 69.3076 135.149 69.5202 134.937L72.2839 133.236C72.7091 133.024 72.9217 133.024 73.3468 133.236L76.3231 134.937C76.5357 135.149 76.5357 135.362 76.3231 135.575L73.5594 137.275C73.3468 137.488 72.9217 137.488 72.7091 137.275Z" fill="#F7F7F7"/>
<path fill-rule="evenodd" clip-rule="evenodd" d="M71.8586 133.023V132.598H64.6305L64.8431 133.023C64.8431 133.236 64.8431 133.236 65.0557 133.449L68.032 135.149C68.2446 135.362 68.6697 135.362 68.8823 135.149L71.646 133.236C71.8586 133.236 71.8586 133.236 71.8586 133.023Z" fill="#D6D6D6"/>
<path fill-rule="evenodd" clip-rule="evenodd" d="M68.032 134.724L64.8431 132.811C64.6305 132.811 64.6305 132.386 64.8431 132.386L67.6068 130.472C67.8194 130.472 68.2446 130.472 68.4572 130.472L71.6461 132.386C71.8586 132.386 71.8586 132.598 71.6461 132.811L68.8824 134.724C68.6698 134.724 68.2446 134.724 68.032 134.724Z" fill="#F7F7F7"/>
<path fill-rule="evenodd" clip-rule="evenodd" d="M67.1817 130.472V129.835H59.9535L60.1661 130.472C60.1661 130.472 60.1661 130.685 60.3787 130.685L63.355 132.386C63.5676 132.598 63.9928 132.598 64.2054 132.386L66.9691 130.685C67.1817 130.472 67.1817 130.472 67.1817 130.472Z" fill="#D6D6D6"/>
<path fill-rule="evenodd" clip-rule="evenodd" d="M63.3549 131.961L60.166 130.26C59.9534 130.047 59.9534 129.835 60.166 129.622L62.9297 127.921C63.1423 127.709 63.5675 127.709 63.7801 127.921L66.969 129.622C67.1816 129.835 67.1816 130.047 66.969 130.047L64.2053 131.961C63.9927 132.173 63.5675 132.173 63.3549 131.961Z" fill="#F7F7F7"/>
<path fill-rule="evenodd" clip-rule="evenodd" d="M62.5046 127.709V127.283H55.2765L55.4891 127.709V127.921L58.6779 129.835C58.8905 129.835 59.3157 129.835 59.5283 129.835L62.292 127.921C62.5046 127.921 62.5046 127.709 62.5046 127.709Z" fill="#D6D6D6"/>
<path fill-rule="evenodd" clip-rule="evenodd" d="M58.6779 129.197L55.4891 127.496C55.2765 127.283 55.2765 127.071 55.4891 126.858L58.2528 125.157C58.4654 124.945 58.8905 124.945 59.1031 125.157L62.292 126.858C62.5046 127.071 62.5046 127.283 62.292 127.496L59.5283 129.197C59.3157 129.409 58.8905 129.409 58.6779 129.197Z" fill="#F7F7F7"/>
<path fill-rule="evenodd" clip-rule="evenodd" d="M57.8275 124.945V124.52H50.5994V124.945C50.5994 125.157 50.812 125.157 50.812 125.37L54.0009 127.071C54.2134 127.283 54.6386 127.283 54.8512 127.071L57.6149 125.157C57.8275 125.157 57.8275 125.157 57.8275 124.945Z" fill="#D6D6D6"/>
<path fill-rule="evenodd" clip-rule="evenodd" d="M54.0009 126.646L50.812 124.732C50.5994 124.732 50.5994 124.307 50.812 124.307L53.5757 122.394C53.7883 122.394 54.2135 122.394 54.4261 122.394L57.615 124.307C57.8275 124.307 57.8275 124.52 57.615 124.732L54.8513 126.646C54.6387 126.646 54.2135 126.646 54.0009 126.646Z" fill="#F7F7F7"/>
<path fill-rule="evenodd" clip-rule="evenodd" d="M53.1506 122.394V121.756H45.9224V122.394L46.135 122.606L49.3239 124.307C49.5365 124.52 49.9617 124.52 50.1743 124.307L52.938 122.606C53.1506 122.394 53.1506 122.394 53.1506 122.394Z" fill="#D6D6D6"/>
<path fill-rule="evenodd" clip-rule="evenodd" d="M49.3239 123.882L46.135 122.181C45.9224 121.969 45.9224 121.756 46.135 121.543L48.8987 119.843C49.1113 119.63 49.5365 119.63 49.7491 119.843L52.938 121.543C53.1506 121.756 53.1506 121.969 52.938 121.969L50.1743 123.882C49.9617 124.095 49.5365 124.095 49.3239 123.882Z" fill="#F7F7F7"/>
<path fill-rule="evenodd" clip-rule="evenodd" d="M48.4735 119.63V118.992L41.2453 119.205V119.63L41.4579 119.843L44.6468 121.756C44.8594 121.756 45.2846 121.756 45.4972 121.756L48.2609 119.843C48.4735 119.843 48.4735 119.63 48.4735 119.63Z" fill="#D6D6D6"/>
<path fill-rule="evenodd" clip-rule="evenodd" d="M44.6468 121.118L41.458 119.418C41.2454 119.205 41.2454 118.992 41.458 118.78L44.2217 117.079C44.4342 116.866 44.8594 116.866 45.072 117.079L48.2609 118.78C48.4735 118.992 48.4735 119.205 48.2609 119.418L45.4972 121.118C45.2846 121.331 44.8594 121.331 44.6468 121.118Z" fill="#F7F7F7"/>
<path fill-rule="evenodd" clip-rule="evenodd" d="M43.7965 116.866L43.5839 116.441H36.5684V116.866C36.5684 117.079 36.781 117.079 36.781 117.292L39.9698 118.992C40.1824 119.205 40.6076 119.205 40.8202 118.992L43.5839 117.079C43.5839 117.079 43.7965 117.079 43.7965 116.866Z" fill="#D6D6D6"/>
<path fill-rule="evenodd" clip-rule="evenodd" d="M39.7573 118.567L36.781 116.654C36.5684 116.654 36.5684 116.229 36.781 116.229L39.5447 114.315C39.7573 114.315 40.1825 114.315 40.3951 114.315L43.5839 116.229C43.7965 116.229 43.7965 116.441 43.5839 116.654L40.8202 118.567C40.3951 118.567 40.1825 118.567 39.7573 118.567Z" fill="#F7F7F7"/>
<path fill-rule="evenodd" clip-rule="evenodd" d="M39.1194 114.315L38.9069 113.677H31.8913V114.315L32.1039 114.528L35.2928 116.229C35.5054 116.441 35.9306 116.441 36.1432 116.229L38.9069 114.528C38.9069 114.315 39.1194 114.315 39.1194 114.315Z" fill="#D6D6D6"/>
<path fill-rule="evenodd" clip-rule="evenodd" d="M35.0802 115.803L32.1039 114.103C31.8913 113.89 31.8913 113.678 32.1039 113.465L34.8676 111.764C35.0802 111.552 35.5054 111.552 35.718 111.764L38.6943 113.465C39.1195 113.678 39.1195 113.89 38.9069 113.89L36.1432 115.803C35.718 116.016 35.5054 116.016 35.0802 115.803Z" fill="#F7F7F7"/>
<path fill-rule="evenodd" clip-rule="evenodd" d="M125.007 162.786C124.156 162.786 123.306 162.574 122.668 162.149L116.29 158.534C115.015 157.684 115.015 156.409 116.29 155.558L119.905 153.645C118.416 154.708 117.353 155.346 117.141 156.196C117.141 155.983 117.141 155.983 117.141 155.983V156.196C116.928 156.409 116.928 156.409 116.928 156.621C116.928 157.259 117.141 157.897 117.779 158.109L121.393 160.235C122.03 160.66 122.881 160.873 123.519 160.873H123.731L123.944 161.086L124.369 161.298C124.369 161.298 124.582 161.298 124.794 161.298C124.794 161.298 124.794 161.298 125.007 161.298V161.086V161.298C125.007 161.298 125.219 161.298 125.432 161.298L141.801 151.944C142.227 151.731 142.227 151.519 142.227 151.094V150.881C142.439 150.881 142.652 150.669 142.652 150.456H142.864C144.14 151.306 144.14 152.582 142.864 153.432L127.558 162.149C126.92 162.574 126.07 162.786 125.007 162.786Z" fill="#E5E5E5"/>
<path fill-rule="evenodd" clip-rule="evenodd" d="M142.439 149.393C142.652 149.606 142.652 150.031 142.227 150.243L137.337 152.157C135.424 152.794 133.51 153.857 131.81 155.133L126.07 159.385C124.794 160.235 122.881 160.448 121.393 159.597L117.779 157.471C117.141 157.046 116.928 156.408 117.141 155.983C116.716 156.834 116.928 157.684 117.779 158.109L121.393 160.235C122.881 161.086 124.794 161.086 126.07 160.023L131.81 155.771C133.51 154.495 135.424 153.432 137.337 152.794L142.227 150.881C142.864 150.668 143.077 149.606 142.439 149.393Z" fill="#C7C7C7"/>
<path fill-rule="evenodd" clip-rule="evenodd" d="M142.227 150.243L137.337 152.157C135.424 152.794 133.51 153.857 131.81 155.133L126.07 159.385C124.794 160.235 122.881 160.448 121.393 159.597L117.779 157.472C115.44 156.196 118.842 154.495 123.944 150.669C126.282 148.968 134.361 144.716 136.912 146.204L142.227 149.18C142.652 149.606 142.652 150.031 142.227 150.243Z" fill="#EDEDED"/>
<path fill-rule="evenodd" clip-rule="evenodd" d="M123.519 160.873L124.369 161.298C124.582 161.298 124.794 161.298 125.007 161.298V160.66C124.582 160.66 123.944 160.873 123.519 160.873Z" fill="#737373"/>
<path fill-rule="evenodd" clip-rule="evenodd" d="M142.227 150.881L137.337 152.794C135.424 153.432 133.51 154.495 131.81 155.771L126.07 160.023C125.857 160.235 125.432 160.448 125.007 160.66V161.298C125.007 161.298 125.219 161.298 125.432 161.298L141.801 151.944C142.227 151.731 142.227 151.519 142.227 151.094V150.881Z" fill="#808080"/>
<path fill-rule="evenodd" clip-rule="evenodd" d="M123.944 161.086L123.731 160.873L123.944 161.086Z" fill="#C3C3C3"/>
<path fill-rule="evenodd" clip-rule="evenodd" d="M124.582 161.298C124.369 161.298 124.156 161.086 123.944 161.086L123.731 160.873C123.519 160.873 123.519 160.873 123.519 160.873C123.944 160.873 124.582 160.66 125.007 160.66V161.086C124.794 161.086 124.582 161.298 124.582 161.298Z" fill="#626262"/>
<path fill-rule="evenodd" clip-rule="evenodd" d="M125.007 161.086V160.66C125.432 160.448 125.857 160.235 126.07 160.023L131.81 155.771C133.51 154.495 135.424 153.432 137.337 152.794L142.227 150.881V151.094L137.55 153.007C135.636 153.645 133.723 154.708 132.022 155.983L126.495 160.235C126.07 160.448 125.432 160.873 125.007 161.086Z" fill="#6D6D6D"/>
<path fill-rule="evenodd" clip-rule="evenodd" d="M139.25 147.48C137.124 147.905 134.148 148.968 132.235 150.031V150.243H132.447C134.361 149.18 137.337 147.905 139.463 147.692L139.25 147.48Z" fill="#B8B8B8"/>
<path fill-rule="evenodd" clip-rule="evenodd" d="M132.235 150.243H132.447C134.361 149.18 137.337 147.905 139.463 147.692C137.124 147.905 134.148 149.18 132.235 150.243Z" fill="white"/>
<path fill-rule="evenodd" clip-rule="evenodd" d="M80.1497 67.3325L88.2282 71.797C90.3541 73.0725 93.7556 73.0725 95.6689 71.797C96.7319 71.3718 97.3697 70.5214 97.3697 69.671V81.3636C97.3697 82.0014 96.7319 82.8518 95.6689 83.4895C93.7556 84.5525 90.3541 84.5525 88.2282 83.4895L80.1497 78.8125C79.2993 78.1747 78.6616 77.3244 78.6616 76.6866V64.994C78.6616 65.8444 79.2993 66.6948 80.1497 67.3325Z" fill="#3E4651"/>
<path fill-rule="evenodd" clip-rule="evenodd" d="M87.5904 62.8681L95.669 67.5452C97.7949 68.8207 97.7949 70.7341 95.669 71.797C93.7556 73.0726 90.3541 73.0726 88.2282 71.797L80.1497 67.3326C78.2364 66.057 78.2364 64.1437 80.1497 62.8681C82.2756 61.8052 85.6771 61.8052 87.5904 62.8681Z" fill="#5C6D7F"/>
<path fill-rule="evenodd" clip-rule="evenodd" d="M81 58.4036C81 56.2777 82.063 54.3643 83.9763 53.3014C85.8897 52.2384 88.0156 52.2384 89.7163 53.3014C92.9052 55.2147 94.8185 58.6162 94.8185 62.2302V69.671C94.8185 70.0962 94.6059 70.5213 93.9682 70.9465C92.9052 71.5843 91.2045 71.5843 89.9289 70.9465C89.5037 70.5213 89.0785 70.0962 89.0785 69.671V62.2302C89.0785 60.7421 88.2282 59.254 86.9526 58.4036V64.9939C86.9526 65.4191 86.5274 65.8443 86.1023 66.2695C84.8267 66.9073 83.126 66.9073 81.8504 66.2695C81.4252 65.8443 81 65.4191 81 64.9939V58.4036Z" fill="#F5B659"/>
<path fill-rule="evenodd" clip-rule="evenodd" d="M84.4015 59.8917C84.4015 58.6161 85.8897 57.7658 86.9526 58.4035V64.9939C86.9526 65.4191 86.5274 65.8443 86.1023 66.2694C85.6771 66.482 85.0393 66.6946 84.4015 66.6946V59.8917Z" fill="#E69245"/>
<path fill-rule="evenodd" clip-rule="evenodd" d="M81.6378 73.285L82.7008 72.222V73.9228V75.6235H81.6378L81.2126 74.7732L81.6378 73.285Z" fill="#E69245"/>
<path fill-rule="evenodd" clip-rule="evenodd" d="M79.9371 72.4347L81 71.1592L82.7008 72.2221L81.6378 73.2851L81.2126 74.7732L81.6378 75.6236L79.9371 74.5607L79.5119 73.9229L79.9371 72.4347Z" fill="#F5C959"/>
<path fill-rule="evenodd" clip-rule="evenodd" d="M81.2126 74.7732L79.5119 73.9229L79.9371 74.5606L81.6378 75.6236L81.2126 74.7732Z" fill="#F5B659"/>
<path fill-rule="evenodd" clip-rule="evenodd" d="M84.4015 74.7732L85.4644 73.7102V75.4109V77.3243L84.4015 77.1117L83.7637 76.4739L84.4015 74.7732Z" fill="#E69245"/>
<path fill-rule="evenodd" clip-rule="evenodd" d="M82.4881 73.9228L83.7637 72.6472L85.4644 73.7102L84.4014 74.7731L83.7637 76.4739L84.4014 77.1117L82.4881 76.0487L82.0629 75.4109L82.4881 73.9228Z" fill="#F5C959"/>
<path fill-rule="evenodd" clip-rule="evenodd" d="M83.7637 76.4741L82.0629 75.4111L82.4881 76.0489L84.4014 77.1119L83.7637 76.4741Z" fill="#F5B659"/>
<path fill-rule="evenodd" clip-rule="evenodd" d="M86.9527 76.4739L88.0157 75.1984V77.1117V78.8124L86.9527 78.5998L86.5275 77.9621L86.9527 76.4739Z" fill="#E69245"/>
<path fill-rule="evenodd" clip-rule="evenodd" d="M85.2519 75.4109L86.3148 74.1354L88.0156 75.1983L86.9526 76.4739L86.5274 77.962L86.9526 78.5998L85.2519 77.5369L84.8267 76.8991L85.2519 75.4109Z" fill="#F5C959"/>
<path fill-rule="evenodd" clip-rule="evenodd" d="M86.5274 77.962L84.8267 76.899L85.2519 77.5368L86.9526 78.5998L86.5274 77.962Z" fill="#F5B659"/>
<path fill-rule="evenodd" clip-rule="evenodd" d="M90.7792 84.1273V72.6473C91.8422 72.8599 93.3303 72.8599 94.3933 72.4347V83.9147C93.3303 84.3399 91.8422 84.3399 90.7792 84.1273Z" fill="#4A5461"/>
<path fill-rule="evenodd" clip-rule="evenodd" d="M94.8186 83.9146V72.2221C95.2437 72.2221 95.4563 72.0095 95.6689 71.7969C96.0941 71.7969 96.3067 71.5843 96.5193 71.3717V83.0643C96.3067 83.0643 96.0941 83.2769 95.6689 83.4895C95.4563 83.4895 95.2437 83.7021 94.8186 83.9146Z" fill="#4A5461"/>
<path fill-rule="evenodd" clip-rule="evenodd" d="M92.9052 68.608C93.3304 68.608 93.7556 68.1828 93.7556 67.5451V62.2303C93.7556 61.8051 93.3304 61.3799 92.9052 61.3799C92.2674 61.3799 91.8422 61.8051 91.8422 62.2303V67.5451C91.8422 68.1828 92.2674 68.608 92.9052 68.608Z" fill="#F5C959"/>
<path fill-rule="evenodd" clip-rule="evenodd" d="M91.6296 59.254C91.8422 59.254 92.0548 59.254 92.0548 59.0415C92.6926 58.8289 92.6926 58.1911 92.48 57.7659C91.6296 56.7029 90.7793 55.8526 89.7163 55.2148C89.2911 54.7896 88.6533 55.0022 88.4408 55.4274C88.0156 56.0652 88.2282 56.7029 88.6533 56.9155C89.5037 57.3407 90.1415 57.9785 90.7793 58.8289C90.9919 59.0415 91.2045 59.254 91.6296 59.254Z" fill="#F5C959"/>
<path fill-rule="evenodd" clip-rule="evenodd" d="M129.896 89.8673L110.125 78.3873V80.7258L109.275 80.5132L106.936 70.0962L129.896 83.2769V89.8673Z" fill="white"/>
<path fill-rule="evenodd" clip-rule="evenodd" d="M129.896 77.1117L110.125 65.4192V63.2932L109.275 62.4429L106.936 70.3088L129.896 83.7021V77.1117Z" fill="white"/>
<path fill-rule="evenodd" clip-rule="evenodd" d="M47.6232 48.8369L68.2446 60.7421V58.6162L69.095 58.8287L71.2209 69.2458L47.6232 55.4273V48.8369Z" fill="white"/>
<path fill-rule="evenodd" clip-rule="evenodd" d="M47.6231 61.5926L68.2446 73.7103V76.0488L69.0949 76.6866L71.2209 69.0333L47.6231 55.0022V61.5926Z" fill="white"/>
</svg>
