<svg width="170" height="170" viewBox="0 0 170 170" fill="none" xmlns="http://www.w3.org/2000/svg">
<path opacity="0.4" d="M97.9559 152.258L4.23654 98.3896L70.2385 60.2329L166.237 114L100.554 152.258H97.9559Z" fill="#0D3482"/>
<path d="M28.6991 85.6348L24.8992 83.3895V81.4896L28.6991 83.735V85.6348Z" fill="#C0B9C8"/>
<path d="M53.7433 71.1266L28.6992 85.6349V83.735L53.7433 69.2267V71.1266Z" fill="#937A6A"/>
<path d="M97.2678 151.959L4 97.8978V95.9979L97.2678 149.886V151.959Z" fill="#252321"/>
<path d="M163.073 113.961L97.2678 151.959V149.886L163.073 111.888V113.961Z" fill="#312F2C"/>
<path d="M97.2681 149.886L4.00034 95.998L69.8059 58L163.074 111.888L97.2681 149.886Z" fill="#393532"/>
<path d="M29.9079 84.4259L24.8991 81.4896L49.9432 66.9813L54.9521 69.9176C55.1248 70.0903 55.1248 70.263 54.9521 70.4357L30.5988 84.4259C30.4261 84.5986 30.2533 84.5986 29.9079 84.4259Z" fill="#F7F6F3"/>
<path d="M26.2809 79.5897L50.9796 65.4268C51.1523 65.2541 51.4977 65.2541 52.0158 65.5995C52.7067 65.945 53.3976 67.154 53.3976 68.0176C53.3976 68.363 53.2249 68.7085 53.0522 68.8812L28.3535 83.0441C28.5262 82.8713 28.6989 82.5259 28.6989 82.1805C28.6989 81.3169 28.008 80.2806 27.3172 79.7624C26.799 79.417 26.4536 79.417 26.2809 79.5897Z" fill="url(#paint0_linear_222_58357)"/>
<path d="M52.0158 65.5996L27.3171 79.7625C27.6626 79.9352 28.008 80.2806 28.1807 80.7988L52.8794 66.6359C52.534 66.1177 52.3613 65.7723 52.0158 65.5996Z" fill="#F3F2EF"/>
<path d="M30.7714 83.3894C30.5986 83.2167 30.0805 83.2167 29.9078 83.3894C29.735 83.5621 29.735 83.7348 29.9078 83.9076C30.0805 84.0803 30.5986 84.0803 30.7714 83.9076C30.9441 83.7348 30.9441 83.5621 30.7714 83.3894Z" fill="#393532"/>
<path d="M54.2612 69.9175C54.0885 69.7448 53.5703 69.7448 53.3976 69.9175C53.2249 70.0902 53.2249 70.2629 53.3976 70.4356C53.5703 70.6083 54.0885 70.6083 54.2612 70.4356C54.4339 70.2629 54.4339 70.0902 54.2612 69.9175Z" fill="#393532"/>
<path d="M27.1446 79.7623C26.6265 79.4168 26.1083 79.5896 25.9356 79.935L24.8993 81.4895L25.7629 82.1803L26.9719 82.6985C26.9719 82.6985 27.1446 82.6985 27.1446 82.8712C27.8355 83.2167 28.5264 82.8712 28.5264 82.0076C28.5264 81.144 28.0082 80.1077 27.1446 79.7623Z" fill="#C0B9C8"/>
<path d="M156.165 111.715L97.0951 145.741L12.4632 96.8615L71.5328 62.8361L156.165 111.715Z" fill="#FFFCF8"/>
<path d="M59.6152 70.7811L53.9155 67.4994V66.1177C53.9155 65.945 53.7427 65.7722 53.7427 65.7722C53.57 65.7722 53.3973 65.7722 53.2246 65.7722L52.5337 66.1177C52.8791 66.6358 53.2246 67.3267 53.2246 67.8449C53.2246 68.0176 53.2246 68.0176 53.2246 68.1903L58.9243 71.4719L32.3257 86.8438H32.153L26.2806 83.3895V82.3532L27.1442 81.835C27.4896 81.6623 27.1442 80.7987 26.626 80.9714L25.417 81.6623C25.2443 81.6623 25.2443 81.835 25.2443 82.0078V83.5622C25.2443 83.7349 25.417 83.9076 25.417 83.9076L31.6348 87.5347C31.8075 87.7074 31.9803 87.7074 32.153 87.7074C32.3257 87.7074 32.4984 87.7074 32.6711 87.5347L59.2697 72.1628C59.6152 71.9901 59.6152 71.8174 59.6152 71.4719C59.9606 71.1265 59.7879 70.7811 59.6152 70.7811Z" fill="#E6E1E7"/>
<path d="M47.6977 112.233L41.4799 108.606H41.6526L92.6044 79.2443L98.8223 82.8714H98.6495L47.6977 112.233ZM41.8253 108.779L47.6977 112.233L98.4768 82.8714L92.6044 79.417L41.8253 108.779Z" fill="#3A3737"/>
<path d="M43.7251 109.988V109.815L94.5042 80.4531H94.6769L43.7251 109.988Z" fill="#3A3737"/>
<path d="M54.775 101.093L54.6886 101.243L60.6716 104.697L60.7579 104.548L54.775 101.093Z" fill="#3A3737"/>
<path d="M86.5595 89.9527L80.5144 86.3257L86.5595 89.78V89.9527Z" fill="#3A3737"/>
<path d="M96.6308 81.6788L45.7287 110.959L45.8148 111.108L96.7169 81.8286L96.6308 81.6788Z" fill="#3A3737"/>
<path d="M77.7508 129.505L71.5329 125.878H71.7057L122.657 96.516L128.875 100.143H128.703L77.7508 129.505ZM71.8784 126.051L77.7508 129.505L128.53 100.143L122.657 96.6887L71.8784 126.051Z" fill="#3A3737"/>
<path d="M124.582 97.7245L73.6977 127.04L73.7839 127.189L124.668 97.8741L124.582 97.7245Z" fill="#3A3737"/>
<path d="M84.6734 118.449L84.587 118.599L90.57 122.053L90.6563 121.904L84.6734 118.449Z" fill="#3A3737"/>
<path d="M116.44 107.224L110.395 103.77L110.567 103.597L116.612 107.052L116.44 107.224Z" fill="#3A3737"/>
<path d="M126.506 99.0011L75.6038 128.281L75.6899 128.431L126.592 99.1508L126.506 99.0011Z" fill="#3A3737"/>
<path d="M79.6506 130.714L77.7507 129.505L79.6506 130.541L130.43 101.179L128.53 100.143H128.703L130.775 101.179L130.602 101.352L79.6506 130.714Z" fill="#3A3737"/>
<path d="M90.7908 121.847L90.7044 121.997L92.6486 123.12L92.735 122.97L90.7908 121.847Z" fill="#3A3737"/>
<path d="M127.494 103.079L125.594 102.043V101.87L127.494 102.907V103.079Z" fill="#3A3737"/>
<path d="M120.597 95.4703L69.7476 124.844L69.834 124.994L120.683 95.6199L120.597 95.4703Z" fill="#3A3737"/>
<path d="M100.47 121.216L81.9061 131.894L81.9922 132.044L100.557 121.365L100.47 121.216Z" fill="#3A3737"/>
<path d="M132.881 102.557L111.18 115.059L111.267 115.208L132.967 102.706L132.881 102.557Z" fill="#3A3737"/>
<path d="M144.392 109.365L124.188 121.005L124.274 121.154L144.478 109.514L144.392 109.365Z" fill="#3A3737"/>
<path d="M113.904 126.895L95.3585 137.608L95.4449 137.757L113.99 127.045L113.904 126.895Z" fill="#3A3737"/>
<path opacity="0.6" d="M40.9616 104.979L38.0254 106.706L38.3709 106.879L41.3071 105.152L40.9616 104.979ZM39.5799 107.57L39.9253 107.743L40.6162 107.397L43.207 106.016L42.8615 105.843L40.7889 107.052L39.5799 107.57ZM41.1344 101.352L38.889 102.561L37.5073 103.425L37.8527 103.598L39.2344 102.734L41.4798 101.525L41.1344 101.352ZM45.2796 104.288L44.7614 104.634L43.207 105.497L43.5524 105.67L44.7614 104.979L45.625 104.461L45.2796 104.288ZM38.3709 104.807L36.6437 105.843L36.9891 106.016L38.7163 104.979L40.7889 103.77L40.4435 103.598L38.3709 104.807ZM40.7889 103.252L41.1344 103.425L42.1706 102.734L41.8252 102.561L40.7889 103.252ZM41.9979 104.807L43.8978 103.77L43.5524 103.598L41.6525 104.634L41.9979 104.807ZM35.4346 105.152L37.3345 104.116L36.9891 103.943L35.0892 104.979L35.4346 105.152ZM56.5063 111.024L54.6063 112.061L54.9518 112.233L56.8517 111.197L56.5063 111.024ZM59.6152 113.27L60.6515 112.579L60.3061 112.406L59.2698 113.097L59.6152 113.27ZM56.679 114.824L58.7516 113.615L58.4062 113.442L56.3335 114.651L56.679 114.824ZM58.2334 111.715L56.3335 112.752L56.679 112.924L58.5789 111.888L58.2334 111.715ZM49.943 113.615L50.8066 113.097L53.2246 111.715L52.8792 111.543L50.4611 112.752L49.4248 113.27L49.943 113.615ZM55.8154 113.097L53.3973 114.479L52.5337 114.997L52.8792 115.17L54.0882 114.479L56.1608 113.27L55.8154 113.097ZM51.3247 114.479L52.7065 113.615L54.2609 112.752L53.9155 112.579L51.6701 113.961L50.9793 114.306L51.3247 114.479ZM54.4336 116.206L56.1608 115.17L55.8154 114.997L54.0882 116.033L54.4336 116.206ZM55.2972 109.988L54.6063 110.334L54.4336 110.506L53.2246 111.197L53.5701 111.37L54.7791 110.679L54.9518 110.506L55.6427 110.161L55.2972 109.988ZM60.4788 114.479L59.2698 115.17L59.6152 115.342L60.9969 114.479L61.6878 114.133L61.3424 113.961L60.4788 114.479ZM58.7516 115.515L56.679 116.724L55.9881 117.07L56.3335 117.242L57.0244 116.897L59.097 115.688L58.7516 115.515ZM59.4425 116.897L57.5426 117.933L57.888 118.106L59.7879 117.07L59.4425 116.897ZM62.0332 115.342L59.9606 116.551L60.3061 116.724L62.5514 115.515L63.9331 114.651L63.5877 114.479L62.0332 115.342ZM63.415 118.451L65.3149 117.415L64.9694 117.242L63.0696 118.279L63.415 118.451ZM62.3787 118.624L60.4788 119.66L60.8242 119.833L62.7241 118.797L62.3787 118.624ZM64.1058 116.379L63.7604 116.206L62.8968 116.724L61.6878 117.415L62.0332 117.588L63.2423 116.897L64.1058 116.379ZM60.9969 117.588L58.9243 118.797L59.2698 118.969L61.3424 117.76L60.9969 117.588ZM69.6328 118.797L68.0784 119.66L68.4238 119.833L69.6328 119.142L70.4964 118.624L70.151 118.451L69.6328 118.797ZM69.2874 121.215L68.942 121.042L67.5602 121.906L67.9057 122.078L69.2874 121.215ZM67.0421 118.969L68.5965 118.106L68.2511 117.933L66.3512 118.969L62.7241 121.042L63.0696 121.215L67.0421 118.969ZM71.5327 121.56L73.4326 120.524L73.0872 120.351L71.1873 121.387L71.5327 121.56ZM65.3149 121.733L64.9694 121.56L64.4513 121.906L64.7967 122.078L65.3149 121.733ZM67.5602 120.006L65.4876 121.215L65.833 121.387L67.9057 120.178L67.5602 120.006ZM71.36 119.66L69.4601 120.697L69.8055 120.869L71.7055 119.833L71.36 119.66ZM67.7329 123.806L68.4238 123.46L68.0784 123.287L67.3875 123.633L67.7329 123.806ZM66.1785 122.942L67.2148 122.424L66.8693 122.251L65.833 122.769L66.1785 122.942ZM69.1147 123.115L71.0146 121.906L70.6691 121.733L68.7693 122.942L69.1147 123.115ZM50.2884 101.352L48.9067 102.216L49.2521 102.388L50.6339 101.525L50.2884 101.352ZM48.7339 100.489L46.1432 102.043L46.4886 102.216L49.0794 100.661L48.7339 100.489ZM48.3885 102.388L47.6976 102.907L48.0431 103.079L48.7339 102.561L48.3885 102.388ZM45.625 101.007L47.6976 99.7977L47.3522 99.625L45.2796 100.834L45.625 101.007ZM44.7614 99.7977L46.3159 98.9341L45.9704 98.7614L44.416 99.625L44.7614 99.7977ZM57.888 108.952L58.5789 108.434L58.2334 108.261L57.5426 108.779L57.888 108.952ZM59.2698 108.088L60.6515 107.225L60.3061 107.052L58.9243 107.915L59.2698 108.088ZM62.206 109.988L63.7604 109.124L63.415 108.952L61.8605 109.815L62.206 109.988ZM60.3061 109.297L62.0332 108.261L61.6878 108.088L59.9606 109.124L60.3061 109.297ZM59.4425 109.297L58.7516 109.643L59.097 109.815L59.7879 109.47L59.4425 109.297ZM64.7967 109.643L62.7241 110.852L63.0696 111.024L65.1422 109.815L64.7967 109.643ZM61.1696 109.988L60.4788 110.334L60.8242 110.506L61.5151 110.161L61.1696 109.988ZM68.5965 113.788L70.151 112.924L69.8055 112.752L68.2511 113.615L68.5965 113.788ZM67.7329 113.788L67.0421 114.133L67.3875 114.306L68.0784 113.961L67.7329 113.788ZM65.3149 111.715L64.624 112.233L64.9694 112.406L65.6603 111.888L65.3149 111.715ZM68.4238 111.715L67.0421 112.579L67.3875 112.752L68.7693 111.888L68.4238 111.715ZM67.2148 111.024L66.8693 110.852L66.0058 111.37L66.3512 111.543L67.2148 111.024ZM70.3237 114.479L71.8782 113.615L71.5327 113.442L69.9783 114.306L70.3237 114.479ZM74.2962 117.933L73.6053 118.279L73.9508 118.451L74.6417 118.106L74.2962 117.933ZM71.36 116.551L73.9508 114.997L73.6053 114.824L71.0146 116.379L71.36 116.551ZM73.7781 116.551L74.1235 116.724L75.5053 115.86L75.1598 115.688L73.7781 116.551ZM72.7418 117.415L73.4326 116.897L73.0872 116.724L72.3963 117.242L72.7418 117.415ZM77.0597 118.451L78.6142 117.588L78.2688 117.415L76.7143 118.279L77.0597 118.451ZM75.1598 117.76L76.887 116.724L76.5416 116.551L74.8144 117.588L75.1598 117.76ZM75.678 119.315L76.3688 118.969L76.0234 118.797L75.3325 119.142L75.678 119.315ZM54.4336 97.2069L51.4974 98.9341L51.8429 99.1069L54.7791 97.3797L54.4336 97.2069ZM52.8792 99.7977L53.2246 99.9704L53.9155 99.625L56.5063 98.2433L56.1608 98.0705L54.0882 99.2796L52.8792 99.7977ZM54.4336 93.7526L52.1883 94.9616L50.8066 95.8252L51.152 95.9979L52.5337 95.1343L54.7791 93.9253L54.4336 93.7526ZM58.7516 96.5161L58.2334 96.8615L56.679 97.7251L57.0244 97.8978L58.2334 97.2069L59.097 96.6888L58.7516 96.5161ZM51.6701 97.0342L49.943 98.0705L50.2884 98.2433L52.0156 97.2069L54.0882 95.9979L53.7428 95.8252L51.6701 97.0342ZM54.2609 95.4798L54.6063 95.6525L55.6427 94.9616L55.2972 94.7889L54.2609 95.4798ZM55.4699 97.0342L57.3698 95.9979L57.0244 95.8252L55.1245 96.8615L55.4699 97.0342ZM48.7339 97.3797L50.6339 96.3434L50.2884 96.1706L48.3885 97.2069L48.7339 97.3797ZM69.9783 103.252L68.0784 104.288L68.4238 104.461L70.3237 103.425L69.9783 103.252ZM72.9145 105.497L73.9508 104.807L73.6053 104.634L72.569 105.325L72.9145 105.497ZM70.151 107.052L72.2236 105.843L71.8782 105.67L69.8055 106.879L70.151 107.052ZM71.7055 103.943L69.8055 104.979L70.151 105.152L72.0509 104.116L71.7055 103.943ZM63.415 105.843L64.2786 105.325L66.6966 103.943L66.3512 103.77L64.2786 104.979L63.2423 105.497L63.415 105.843ZM69.2874 105.497L66.8693 106.879L66.0058 107.397L66.3512 107.57L67.5602 106.879L69.6328 105.67L69.2874 105.497ZM64.7967 106.706L66.1785 105.843L67.7329 104.979L67.3875 104.807L65.1422 106.188L64.4513 106.534L64.7967 106.706ZM67.9057 108.434L69.6328 107.397L69.2874 107.225L67.5602 108.261L67.9057 108.434ZM68.7693 102.216L68.0784 102.561L67.9057 102.734L66.6966 103.425L67.0421 103.598L68.2511 102.907L68.4238 102.734L69.1147 102.388L68.7693 102.216ZM73.9508 106.706L72.7418 107.397L73.0872 107.57L74.4689 106.706L75.1598 106.361L74.8144 106.188L73.9508 106.706ZM72.0509 107.743L69.9783 108.952L69.4601 109.297L69.8055 109.47L70.4964 109.124L72.569 107.915L72.0509 107.743ZM72.7418 109.124L70.8419 110.161L71.1873 110.334L73.0872 109.297L72.7418 109.124ZM75.5053 107.57L73.4326 108.779L73.7781 108.952L76.0234 107.743L77.4052 106.879L77.0597 106.706L75.5053 107.57ZM76.887 110.679L78.7869 109.643L78.4415 109.47L76.5416 110.506L76.887 110.679ZM75.8507 110.852L73.9508 111.888L74.2962 112.061L76.1961 111.024L75.8507 110.852ZM77.5779 108.606L77.2324 108.434L76.3688 108.952L75.1598 109.643L75.5053 109.815L76.7143 109.124L77.5779 108.606ZM74.4689 109.988L72.3963 111.197L72.7418 111.37L74.8144 110.161L74.4689 109.988ZM83.1048 111.024L81.5504 111.888L81.8958 112.061L83.1048 111.37L83.9684 110.852L83.623 110.679L83.1048 111.024ZM82.7594 113.442L82.414 113.27L81.0322 114.133L81.3777 114.306L82.7594 113.442ZM80.5141 111.197L82.0686 110.334L81.7231 110.161L79.8232 111.197L76.1961 113.27L76.5416 113.442L80.5141 111.197ZM85.0048 113.961L86.9047 112.924L86.5592 112.752L84.6593 113.788L85.0048 113.961ZM78.7869 114.133L78.4415 113.961L77.9233 114.306L78.2688 114.479L78.7869 114.133ZM80.8595 112.406L78.7869 113.615L79.1323 113.788L81.205 112.579L80.8595 112.406ZM84.832 111.888L82.9321 112.924L83.2776 113.097L85.1775 112.061L84.832 111.888ZM81.205 116.033L81.8958 115.688L81.5504 115.515L80.8595 115.86L81.205 116.033ZM79.6505 115.17L80.6868 114.651L80.3414 114.479L79.305 114.997L79.6505 115.17ZM82.414 115.342L84.3139 114.133L83.9684 113.961L82.0686 115.17L82.414 115.342ZM63.7604 93.5799L62.3787 94.4434L62.7241 94.6162L64.1058 93.7526L63.7604 93.5799ZM62.206 92.7163L59.6152 94.2707L59.9606 94.4434L62.5514 92.889L62.206 92.7163ZM61.6878 94.7889L60.9969 95.307L61.3424 95.4798L62.0332 94.9616L61.6878 94.7889ZM59.097 93.2345L61.1696 92.0254L60.8242 91.8527L58.7516 93.0617L59.097 93.2345ZM58.0607 92.0254L59.6152 91.1618L59.2698 90.9891L57.7153 91.8527L58.0607 92.0254ZM71.36 101.179L72.0509 100.661L71.7055 100.489L71.0146 101.007L71.36 101.179ZM72.7418 100.316L74.1235 99.4523L73.7781 99.2796L72.3963 100.143L72.7418 100.316ZM75.5053 102.216L77.0597 101.352L76.7143 101.179L75.1598 102.043L75.5053 102.216ZM73.7781 101.525L75.5053 100.489L75.1598 100.316L73.4326 101.352L73.7781 101.525ZM72.9145 101.525L72.2236 101.87L72.569 102.043L73.2599 101.698L72.9145 101.525ZM78.2688 102.043L76.1961 103.252L76.5416 103.425L78.6142 102.216L78.2688 102.043ZM74.6417 102.388L73.9508 102.734L74.2962 102.907L74.9871 102.561L74.6417 102.388ZM82.0686 106.016L83.623 105.152L83.2776 104.979L81.7231 105.843L82.0686 106.016ZM81.0322 106.188L80.3414 106.534L80.6868 106.706L81.3777 106.361L81.0322 106.188ZM78.7869 103.943L78.096 104.461L78.4415 104.634L79.1323 104.116L78.7869 103.943ZM81.7231 103.943L80.3414 104.807L80.6868 104.979L82.0686 104.116L81.7231 103.943ZM80.6868 103.252L80.3414 103.079L79.4778 103.598L79.8232 103.77L80.6868 103.252ZM83.623 106.706L85.1775 105.843L84.832 105.67L83.2776 106.534L83.623 106.706ZM87.7683 110.161L87.0774 110.506L87.4228 110.679L88.1137 110.334L87.7683 110.161ZM84.832 108.779L87.4228 107.225L87.0774 107.052L84.4866 108.606L84.832 108.779ZM87.2501 108.779L87.5955 108.952L88.9773 108.088L88.6318 107.915L87.2501 108.779ZM86.2138 109.643L86.9047 109.124L86.5592 108.952L85.8683 109.47L86.2138 109.643ZM90.359 110.852L91.9135 109.988L91.568 109.815L90.0136 110.679L90.359 110.852ZM88.6318 109.988L90.359 108.952L90.0136 108.779L88.2864 109.815L88.6318 109.988ZM89.15 111.543L89.8409 111.197L89.4954 111.024L88.8045 111.37L89.15 111.543ZM67.7329 89.4346L64.7967 91.1618L65.1422 91.3345L68.0784 89.6074L67.7329 89.4346ZM66.3512 92.0254L66.6966 92.1981L67.3875 91.8527L69.9783 90.471L69.4601 90.2982L67.3875 91.5073C67.2148 91.5073 66.3512 92.0254 66.3512 92.0254ZM67.9057 85.9803L65.6603 87.1893L64.2786 88.0529L64.624 88.2256L66.0058 87.362L68.2511 86.153L67.9057 85.9803ZM72.0509 88.7438L71.5327 89.0892L69.9783 89.9528L70.3237 90.1255L71.5327 89.4346L72.3963 88.9165L72.0509 88.7438ZM64.9694 89.2619L63.2423 90.2982L63.5877 90.471L65.3149 89.4346L67.3875 88.2256L67.0421 88.0529L64.9694 89.2619ZM67.5602 87.8802L67.9057 88.0529L68.942 87.362L68.5965 87.1893L67.5602 87.8802ZM68.7693 89.4346L70.6691 88.3983L70.3237 88.2256L68.4238 89.2619L68.7693 89.4346ZM62.0332 89.7801L63.9331 88.7438L63.5877 88.571L61.6878 89.6074L62.0332 89.7801ZM83.2776 95.6525L81.3777 96.6888L81.7231 96.8615L83.623 95.8252L83.2776 95.6525ZM86.3865 97.7251L87.4228 97.0342L87.0774 96.8615L86.0411 97.5524L86.3865 97.7251ZM83.4503 99.2796L85.5229 98.0705L85.1775 97.8978L83.1048 99.1069L83.4503 99.2796ZM85.0048 96.3434L83.1048 97.3797L83.4503 97.5524L85.3502 96.5161L85.0048 96.3434ZM76.7143 98.0705L77.5779 97.5524L79.9959 96.1706L79.6505 95.9979L77.5779 97.2069L76.5416 97.7251L76.7143 98.0705ZM82.5867 97.7251L80.1686 99.1069L79.305 99.625L79.6505 99.7977L80.8595 99.1069L82.9321 97.8978L82.5867 97.7251ZM78.096 98.9341L79.4778 98.0705L81.0322 97.2069L80.6868 97.0342L78.4415 98.416L77.7506 98.7614L78.096 98.9341ZM81.205 100.661L82.9321 99.625L82.5867 99.4523L80.8595 100.489L81.205 100.661ZM82.0686 94.6162L81.3777 94.9616L81.205 95.1343L79.9959 95.8252L80.3414 95.9979L81.5504 95.307L81.7231 95.1343L82.414 94.7889L82.0686 94.6162ZM87.2501 99.1069L86.0411 99.7977L86.3865 99.9704L87.7683 99.1069L88.4591 98.7614L88.1137 98.5887L87.2501 99.1069ZM85.5229 100.143L83.4503 101.352L82.7594 101.698L83.1048 101.87L83.7957 101.525L85.8683 100.316L85.5229 100.143ZM86.2138 101.525L84.3139 102.561L84.6593 102.734L86.5592 101.698L86.2138 101.525ZM88.8045 99.9704L86.7319 101.179L87.0774 101.352L89.3227 100.143L90.7045 99.2796L90.359 99.1069L88.8045 99.9704ZM90.1863 103.079L92.0862 102.043L91.7407 101.87L89.8409 102.907L90.1863 103.079ZM89.15 103.252L87.2501 104.288L87.5955 104.461L89.4954 103.425L89.15 103.252ZM90.8772 100.834L90.5317 100.661L89.6681 101.179L88.4591 101.87L88.8045 102.043L90.0136 101.352L90.8772 100.834ZM87.7683 102.216L85.6956 103.425L86.0411 103.598L88.1137 102.388L87.7683 102.216ZM96.4042 103.425L94.8497 104.288L95.1951 104.461L96.4042 103.77L97.2678 103.252L96.9223 103.079L96.4042 103.425ZM96.0587 105.843L95.7133 105.67L94.3315 106.534L94.677 106.706L96.0587 105.843ZM93.8134 103.598L95.3678 102.734L95.0224 102.561L93.1225 103.598L89.4954 105.67L89.8409 105.843L93.8134 103.598ZM98.304 106.188L100.204 105.152L99.8585 104.979L97.9586 106.016L98.304 106.188ZM92.0862 106.361L91.7407 106.188L91.2226 106.534L91.568 106.706L92.0862 106.361ZM94.3315 104.634L92.2589 105.843L92.6043 106.016L94.677 104.807L94.3315 104.634ZM98.1313 104.116L96.2314 105.152L96.5769 105.325L98.4768 104.288L98.1313 104.116ZM94.5042 108.434L95.1951 108.088L94.8497 107.915L94.1588 108.261L94.5042 108.434ZM92.9498 107.57L93.9861 107.052L93.6407 106.879L92.6043 107.397L92.9498 107.57ZM95.886 107.743L97.7859 106.534L97.4405 106.361L95.5406 107.57L95.886 107.743ZM77.0597 85.8075L75.678 86.6711L76.0234 86.8439L77.4052 85.9803L77.0597 85.8075ZM75.5053 84.944L72.9145 86.4984L73.2599 86.6711L75.8507 85.1167L75.5053 84.944ZM75.1598 87.0166L74.4689 87.5347L74.8144 87.7075L75.5053 87.1893L75.1598 87.0166ZM72.3963 85.4621L74.4689 84.2531L74.1235 84.0804L72.0509 85.2894L72.3963 85.4621ZM71.5327 84.2531L73.0872 83.3895L72.7418 83.2168L71.1873 84.0804L71.5327 84.2531ZM84.6593 93.4071L85.3502 92.889L85.0048 92.7163L84.3139 93.2345L84.6593 93.4071ZM86.0411 92.7163L87.4228 91.8527L87.0774 91.6799L85.6956 92.5435L86.0411 92.7163ZM88.9773 94.4434L90.5317 93.5799L90.1863 93.4071L88.6318 94.2707L88.9773 94.4434ZM87.0774 93.7526L88.8045 92.7163L88.4591 92.5435L86.7319 93.5799L87.0774 93.7526ZM86.2138 93.9253L85.5229 94.2707L85.8683 94.4434L86.5592 94.098L86.2138 93.9253ZM91.568 94.2707L89.4954 95.4798L89.8409 95.6525L91.9135 94.4434L91.568 94.2707ZM87.941 94.6162L87.2501 94.9616L87.5955 95.1343L88.2864 94.7889L87.941 94.6162ZM95.3678 98.2433L96.9223 97.3797L96.5769 97.2069L95.0224 98.0705L95.3678 98.2433ZM94.3315 98.416L93.6407 98.7614L93.9861 98.9341L94.677 98.5887L94.3315 98.416ZM92.0862 96.3434L91.3953 96.8615L91.7407 97.0342L92.4316 96.5161L92.0862 96.3434ZM95.0224 96.3434L93.6407 97.2069L93.9861 97.3797L95.3678 96.5161L95.0224 96.3434ZM93.9861 95.6525L93.6407 95.4798L92.7771 95.9979L93.1225 96.1706L93.9861 95.6525ZM97.095 99.1069L98.6495 98.2433L98.304 98.0705L96.7496 98.9341L97.095 99.1069ZM101.068 102.388L100.377 102.734L100.722 102.907L101.413 102.561L101.068 102.388ZM98.1313 101.007L100.722 99.4523L100.377 99.2796L97.7859 100.834L98.1313 101.007ZM100.549 101.007L100.895 101.179L102.277 100.316L101.931 100.143L100.549 101.007ZM99.5131 102.043L100.204 101.525L99.8585 101.352L99.1676 101.87L99.5131 102.043ZM103.831 103.079L105.385 102.216L105.04 102.043L103.486 102.907L103.831 103.079ZM101.931 102.388L103.658 101.352L103.313 101.179L101.586 102.216L101.931 102.388ZM102.449 103.77L103.14 103.425L102.795 103.252L102.104 103.598L102.449 103.77ZM81.205 81.835L78.2688 83.5622L78.6142 83.735L81.5504 82.0078L81.205 81.835ZM79.6505 84.4258L79.9959 84.5985L80.6868 84.2531L83.2776 82.8714L82.9321 82.6986L80.8595 83.9076L79.6505 84.4258ZM81.205 78.208L78.9596 79.417L77.5779 80.2806L77.9233 80.4533L79.305 79.5897L81.5504 78.3807L81.205 78.208ZM85.5229 80.9715L85.0048 81.3169L83.4503 82.1805L83.7957 82.3532L85.0048 81.6623L85.8683 81.1442L85.5229 80.9715ZM78.4415 81.6623L76.7143 82.6986L77.0597 82.8714L78.7869 81.835L80.8595 80.626L80.5141 80.4533L78.4415 81.6623ZM81.0322 80.1079L81.3777 80.2806L82.414 79.5897L82.0686 79.417L81.0322 80.1079ZM82.0686 81.6623L83.9684 80.626L83.623 80.4533L81.7231 81.4896L82.0686 81.6623ZM75.5053 82.0078L77.4052 80.9715L77.0597 80.7987L75.1598 81.835L75.5053 82.0078ZM96.7496 87.8802L94.8497 88.9165L95.1951 89.0892L97.095 88.0529L96.7496 87.8802ZM99.6858 89.9528L100.722 89.2619L100.377 89.0892L99.3404 89.7801L99.6858 89.9528ZM96.9223 91.6799L98.9949 90.471L98.6495 90.2982L96.5769 91.5073L96.9223 91.6799ZM98.4768 88.571L96.5769 89.6074L96.9223 89.7801L98.8222 88.7438L98.4768 88.571ZM90.0136 90.2982L90.8772 89.7801L93.2952 88.3983L92.9498 88.2256L90.8772 89.4346L89.8409 89.9528L90.0136 90.2982ZM96.0587 89.9528L93.6407 91.3345L92.7771 91.8527L93.1225 92.0254L94.3315 91.3345L96.4042 90.1255L96.0587 89.9528ZM91.568 91.1618L92.9498 90.2982L94.5042 89.4346L94.1588 89.2619L91.9135 90.6437L91.2226 90.9891L91.568 91.1618ZM94.5042 92.889L96.2314 91.8527L95.886 91.6799L94.1588 92.7163L94.5042 92.889ZM95.5406 86.8439L94.8497 87.1893L94.677 87.362L93.4679 88.0529L93.8134 88.2256L95.0224 87.5347L95.1951 87.362L95.886 87.0166L95.5406 86.8439ZM100.722 91.3345L99.5131 92.0254L99.8585 92.1981L101.24 91.3345L101.931 90.9891L101.586 90.8164L100.722 91.3345ZM98.8222 92.3709L96.7496 93.5799L96.0587 93.9253L96.4042 94.098L97.095 93.7526L99.1676 92.5435L98.8222 92.3709ZM99.5131 93.7526L97.6132 94.7889L97.9586 94.9616L99.8585 93.9253L99.5131 93.7526ZM102.277 92.1981L100.204 93.4071L100.549 93.5799L102.795 92.3709L104.176 91.5073L103.831 91.3345L102.277 92.1981ZM103.486 95.307L105.385 94.2707L105.04 94.098L103.14 95.1343L103.486 95.307ZM102.622 95.4798L100.722 96.5161L101.068 96.6888L102.967 95.6525L102.622 95.4798ZM104.176 93.2345L103.831 93.0617L102.967 93.5799L101.758 94.2707L102.104 94.4434L103.313 93.7526L104.176 93.2345ZM101.24 94.4434L99.1676 95.6525L99.5131 95.8252L101.586 94.6162L101.24 94.4434ZM109.876 95.6525L108.322 96.5161L108.667 96.6888L109.876 95.9979L110.74 95.4798L110.394 95.307L109.876 95.6525ZM109.358 98.0705L109.013 97.8978L107.631 98.7614L107.976 98.9341L109.358 98.0705ZM107.285 95.8252L108.84 94.9616L108.494 94.7889L106.595 95.8252L102.967 97.8978L103.313 98.0705L107.285 95.8252ZM111.776 98.416L113.676 97.3797L113.331 97.2069L111.431 98.2433L111.776 98.416ZM105.558 98.5887L105.213 98.416L104.695 98.7614L105.04 98.9341L105.558 98.5887ZM107.631 96.8615L105.558 98.0705L105.904 98.2433L107.976 97.0342L107.631 96.8615ZM111.603 96.3434L109.703 97.3797L110.049 97.5524L111.949 96.5161L111.603 96.3434ZM107.976 100.661L108.667 100.316L108.322 100.143L107.631 100.489L107.976 100.661ZM106.422 99.7977L107.458 99.2796L107.113 99.1069L106.076 99.625L106.422 99.7977ZM109.185 99.9704L111.085 98.7614L110.74 98.5887L108.84 99.7977L109.185 99.9704ZM90.5317 78.208L89.15 79.0715L89.4954 79.2443L90.8772 78.3807L90.5317 78.208ZM88.9773 77.1716L86.3865 78.7261L86.7319 78.8988L89.3227 77.3444L88.9773 77.1716ZM88.4591 79.2443L87.7683 79.7624L88.1137 79.9351L88.8045 79.417L88.4591 79.2443ZM85.8683 77.8625L87.941 76.6535L87.5955 76.4808L85.5229 77.6898L85.8683 77.8625ZM84.832 76.6535L86.3865 75.7899L86.0411 75.6172L84.4866 76.4808L84.832 76.6535ZM98.1313 85.6348L98.8222 85.1167L98.4768 84.944L97.7859 85.4621L98.1313 85.6348ZM99.5131 84.944L100.895 84.0804L100.549 83.9076L99.1676 84.7712L99.5131 84.944ZM102.277 86.6711L103.831 85.8075L103.486 85.6348L101.931 86.4984L102.277 86.6711ZM100.549 85.9803L102.277 84.944L101.931 84.7712L100.204 85.8075L100.549 85.9803ZM99.6858 86.153L98.9949 86.4984L99.3404 86.6711L100.031 86.3257L99.6858 86.153ZM105.04 86.4984L102.967 87.7075L103.313 87.8802L105.385 86.6711L105.04 86.4984ZM101.413 86.8439L100.722 87.1893L101.068 87.362L101.758 87.0166L101.413 86.8439ZM108.84 90.471L110.394 89.6074L110.049 89.4346L108.494 90.2982L108.84 90.471ZM107.804 90.6437L107.113 90.9891L107.458 91.1618L108.149 90.8164L107.804 90.6437ZM105.558 88.571L104.867 89.0892L105.213 89.2619L105.904 88.7438L105.558 88.571ZM108.494 88.571L107.113 89.4346L107.458 89.6074L108.84 88.7438L108.494 88.571ZM107.458 87.8802L107.113 87.7075L106.249 88.2256L106.595 88.3983L107.458 87.8802ZM110.394 91.3345L111.949 90.471L111.603 90.2982L110.049 91.1618L110.394 91.3345ZM114.367 94.7889L113.676 95.1343L114.021 95.307L114.712 94.9616L114.367 94.7889ZM111.603 93.2345L114.194 91.6799L113.849 91.5073L111.258 93.0617L111.603 93.2345ZM114.021 93.2345L114.367 93.4071L115.749 92.5435L115.403 92.3709L114.021 93.2345ZM112.985 94.2707L113.676 93.7526L113.331 93.5799L112.64 94.098L112.985 94.2707ZM117.13 95.307L118.685 94.4434L118.339 94.2707L116.785 95.1343L117.13 95.307ZM115.403 94.6162L117.13 93.5799L116.785 93.4071L115.058 94.4434L115.403 94.6162ZM115.921 96.1706L116.612 95.8252L116.267 95.6525L115.576 95.9979L115.921 96.1706ZM90.7045 131.06L89.15 131.923L89.4954 132.096L90.7045 131.405L91.568 130.887L91.2226 130.714L90.7045 131.06ZM90.1863 133.305L89.8409 133.132L88.4591 133.996L88.8045 134.169L90.1863 133.305ZM88.1137 131.232L89.6681 130.369L89.3227 130.196L87.4228 131.232L83.7957 133.305L84.1412 133.478L88.1137 131.232ZM92.6043 133.823L94.5042 132.787L94.1588 132.614L92.2589 133.65L92.6043 133.823ZM86.3865 133.996L86.0411 133.823L85.5229 134.169L85.8683 134.341L86.3865 133.996ZM88.4591 132.269L86.3865 133.478L86.7319 133.65L88.8045 132.441L88.4591 132.269ZM92.4316 131.751L90.5317 132.787L90.8772 132.96L92.7771 131.923L92.4316 131.751ZM88.8045 136.069L89.4954 135.723L89.15 135.55L88.4591 135.896L88.8045 136.069ZM87.2501 135.205L88.2864 134.687L87.941 134.514L86.9047 135.032L87.2501 135.205ZM90.0136 135.205L91.9135 133.996L91.568 133.823L89.6681 135.032L90.0136 135.205ZM95.1951 130.023L94.5042 130.369L94.8497 130.542L95.5406 130.196L95.1951 130.023ZM92.4316 128.642L95.0224 127.087L94.677 126.914L92.0862 128.469L92.4316 128.642ZM94.8497 128.642L95.1951 128.814L96.5769 127.951L96.2314 127.778L94.8497 128.642ZM93.8134 129.678L94.5042 129.16L94.1588 128.987L93.4679 129.505L93.8134 129.678ZM97.9586 130.714L99.5131 129.851L99.1676 129.678L97.6132 130.542L97.9586 130.714ZM96.2314 129.851L97.9586 128.814L97.6132 128.642L95.886 129.678L96.2314 129.851ZM96.7496 131.405L97.4405 131.06L97.095 130.887L96.4042 131.232L96.7496 131.405ZM104.004 123.287L102.449 124.151L102.795 124.324L104.004 123.633L104.867 123.115L104.522 122.942L104.004 123.287ZM103.658 125.705L103.313 125.533L101.931 126.396L102.277 126.569L103.658 125.705ZM101.586 123.46L103.14 122.597L102.795 122.424L100.895 123.46L97.2678 125.533L97.6132 125.705L101.586 123.46ZM106.076 126.051L107.976 125.015L107.631 124.842L105.731 125.878L106.076 126.051ZM99.6858 126.224L99.3404 126.051L98.8222 126.396L99.1676 126.569L99.6858 126.224ZM101.931 124.496L99.8585 125.705L100.204 125.878L102.277 124.669L101.931 124.496ZM105.731 123.978L103.831 125.015L104.176 125.187L106.076 124.151L105.731 123.978ZM102.104 128.296L102.795 127.951L102.449 127.778L101.758 128.123L102.104 128.296ZM100.722 127.433L101.758 126.914L101.413 126.742L100.377 127.26L100.722 127.433ZM103.486 127.433L105.385 126.224L105.04 126.051L103.14 127.26L103.486 127.433ZM108.667 122.251L107.976 122.597L108.322 122.769L109.013 122.424L108.667 122.251ZM105.904 120.869L108.494 119.315L108.149 119.142L105.558 120.697L105.904 120.869ZM108.149 120.869L108.494 121.042L109.876 120.178L109.531 120.006L108.149 120.869ZM107.285 121.906L107.976 121.387L107.631 121.215L106.94 121.733L107.285 121.906ZM109.703 122.251L111.431 121.215L111.085 121.042L109.358 122.078L109.703 122.251ZM117.476 115.515L115.921 116.379L116.267 116.551L117.476 115.86L118.339 115.342L117.994 115.17L117.476 115.515ZM116.958 117.933L116.612 117.76L115.23 118.624L115.576 118.797L116.958 117.933ZM114.885 115.688L116.439 114.824L116.094 114.479L114.194 115.515L110.567 117.588L110.912 117.76L114.885 115.688ZM112.985 118.451L112.64 118.279L112.121 118.624L112.467 118.797L112.985 118.451ZM115.23 116.724L113.158 117.933L113.503 118.106L115.576 116.897L115.23 116.724ZM119.203 116.206L117.303 117.242L117.648 117.415L119.548 116.379L119.203 116.206ZM114.021 119.66L115.058 119.142L114.712 118.969L113.676 119.488L114.021 119.66ZM121.966 114.651L121.276 114.997L121.621 115.17L122.312 114.824L121.966 114.651ZM119.203 113.27L121.794 111.715L121.448 111.543L118.858 113.097L119.203 113.27ZM121.448 113.097L121.794 113.27L123.175 112.406L122.83 112.233L121.448 113.097ZM120.585 114.133L121.276 113.615L120.93 113.442L120.239 113.961L120.585 114.133ZM123.003 114.479L124.73 113.442L124.384 113.27L122.657 114.306L123.003 114.479ZM130.775 107.743L129.221 108.606L129.566 108.779L130.775 108.088L131.639 107.57L131.293 107.397L130.775 107.743ZM130.43 110.161L130.084 109.988L128.702 110.852L129.048 111.024L130.43 110.161ZM128.357 107.915L129.911 107.052L129.566 106.879L127.666 107.915L124.039 109.988L124.384 110.161L128.357 107.915ZM126.457 110.679L126.112 110.506L125.594 110.852L125.939 111.024L126.457 110.679ZM128.702 108.952L126.63 110.161L126.975 110.334L129.048 109.124L128.702 108.952ZM132.502 108.606L130.602 109.643L130.948 109.815L132.848 108.779L132.502 108.606ZM127.493 111.888L128.53 111.37L128.184 111.197L127.148 111.715L127.493 111.888ZM135.438 106.879L134.748 107.225L135.093 107.397L135.784 107.052L135.438 106.879ZM132.675 105.497L135.266 103.943L134.92 103.77L132.33 105.325L132.675 105.497ZM134.92 105.325L135.266 105.497L136.647 104.634L136.302 104.461L134.92 105.325ZM134.057 106.361L134.748 105.843L134.402 105.67L133.711 106.188L134.057 106.361ZM136.475 106.706L138.202 105.67L137.857 105.497L136.129 106.534L136.475 106.706Z" fill="#3A3737"/>
<path opacity="0.7" d="M92.7769 125.36C88.459 127.778 88.459 131.923 92.7769 134.341C97.0949 136.759 104.176 136.759 108.494 134.341C112.812 131.923 112.812 127.778 108.494 125.36C104.176 122.942 97.0949 122.769 92.7769 125.36ZM107.976 134.169C103.831 136.587 97.0949 136.587 92.9496 134.169C88.8044 131.751 88.8044 127.951 92.9496 125.533C97.0949 123.115 103.831 123.115 107.976 125.533C112.121 127.951 112.121 131.751 107.976 134.169ZM95.195 132.96C98.1312 134.687 102.967 134.687 105.903 132.96C108.84 131.233 108.84 128.469 105.903 126.742C102.967 125.015 98.1312 125.015 95.195 126.742C92.2588 128.469 92.2588 131.233 95.195 132.96ZM96.7494 127.778C98.8221 126.569 102.104 126.569 104.176 127.778C106.249 128.987 106.249 130.887 104.176 132.096C102.104 133.305 98.8221 133.305 96.7494 132.096C94.8495 130.887 94.8495 128.814 96.7494 127.778ZM94.6768 126.396L93.8132 125.878L93.9859 125.706L94.6768 126.051L95.0223 125.878H95.195C95.195 126.051 94.6768 126.396 94.6768 126.396ZM95.5404 126.051C95.7131 125.878 95.8858 125.878 95.8858 125.878V125.706L95.7131 125.533H95.5404H95.3677H95.195C95.195 125.533 95.0223 125.533 95.0223 125.706V125.878L95.195 126.051H95.3677H95.5404ZM95.0223 125.706C95.195 125.533 95.195 125.533 95.195 125.533L95.5404 125.706C95.3677 125.878 95.3677 125.878 95.3677 125.878L95.0223 125.706ZM95.8858 125.706L95.3677 125.187H95.5404C95.7131 125.187 95.7131 125.187 95.7131 125.187C95.8858 125.187 95.8858 125.187 95.8858 125.187H95.7131C95.7131 125.187 95.5404 125.187 95.7131 125.36L96.0585 125.706C96.2313 125.706 96.0586 125.878 95.8858 125.706C96.0586 125.878 96.0586 125.878 95.8858 125.706ZM96.5767 125.533H96.7494L97.0949 125.36V125.187L96.7494 125.36C96.7494 125.36 96.7494 125.36 96.5767 125.533C96.5767 125.36 97.0949 125.187 97.0949 125.187L96.9221 125.015L96.7494 124.842H96.5767H96.404C96.2313 124.842 96.2313 124.842 96.2313 125.015V125.187L96.404 125.36C96.404 125.533 96.404 125.533 96.5767 125.533ZM96.404 125.187C96.5767 125.015 96.5767 125.015 96.5767 125.015C96.7494 125.187 96.5767 125.187 96.404 125.187ZM97.2676 125.36L97.0949 124.842H97.2676C97.4403 124.842 97.4403 124.842 97.4403 124.842C97.613 124.842 97.613 124.842 97.7857 124.842C97.7857 124.842 97.7857 124.669 97.9585 124.669C98.1312 124.669 98.1312 124.669 98.3039 124.669C98.3039 124.669 98.4766 124.669 98.4766 124.842L98.6493 125.187H98.4766L98.3039 124.842H98.1312C97.9585 124.842 97.9585 124.842 97.9585 125.015L98.1312 125.36H97.9585L97.7857 125.015H97.613C97.4403 125.015 97.4403 125.015 97.4403 125.187L97.613 125.533C97.613 125.36 97.4403 125.36 97.2676 125.36ZM98.9948 124.496C98.9948 124.496 98.8221 124.324 98.9948 124.496C98.9948 124.324 99.1675 124.324 98.9948 124.496C99.1675 124.324 99.1675 124.496 99.1675 124.496H98.9948ZM99.1675 125.187L98.9948 124.669H99.1675L99.3402 125.187C99.3402 125.015 99.1675 125.187 99.1675 125.187ZM99.5129 125.187H99.6856V125.015C99.6856 125.015 99.6856 125.015 99.8584 125.015C99.8584 125.015 99.8584 125.015 100.031 125.015C100.204 125.015 100.204 125.015 100.377 125.015C100.377 125.015 100.377 125.015 100.377 124.842V124.669C100.377 124.669 100.377 124.496 100.204 124.496H100.031C99.8584 124.496 99.8584 124.496 99.8584 124.496H99.6856C99.5129 124.496 99.5129 125.187 99.5129 125.187ZM99.8584 124.669C100.031 124.669 100.031 124.669 100.031 124.669V124.842C100.031 124.842 100.031 124.842 99.8584 124.842C99.6856 124.842 99.6856 124.842 99.6856 124.842L99.8584 124.669C99.6856 124.669 99.6856 124.669 99.8584 124.669ZM100.377 124.669C100.377 124.496 100.377 124.496 100.377 124.669C100.549 124.496 100.549 124.496 100.722 124.496H101.067C101.067 124.669 100.722 124.669 100.722 124.669H100.549H100.722H100.895C100.895 124.669 100.895 124.669 100.895 124.842C100.895 125.015 100.722 125.015 100.549 125.015H100.204C100.204 124.842 100.549 124.842 100.549 124.842H100.722H100.549C100.549 124.669 100.377 124.669 100.377 124.669ZM101.24 124.842V124.496H101.413V124.842C101.586 124.842 101.758 124.842 101.758 124.842V124.496H101.931V125.015H101.758C101.758 125.015 101.758 125.015 101.586 125.015C101.586 125.015 101.586 125.015 101.413 125.015C101.413 125.015 101.413 125.015 101.24 124.842C101.24 125.015 101.24 124.842 101.24 124.842ZM102.104 125.015L102.276 124.496H102.449C102.449 124.496 102.449 124.496 102.622 124.496C102.622 124.496 102.622 124.496 102.795 124.496C102.967 124.496 102.967 124.496 102.967 124.669H103.14C103.313 124.669 103.313 124.669 103.313 124.842C103.313 124.842 103.313 124.842 103.313 125.015L103.14 125.36H102.967L103.14 125.015C102.967 124.842 102.795 125.015 102.795 125.015L102.622 125.36H102.449L102.622 125.015C102.449 124.842 102.276 125.015 102.276 125.015L102.104 125.36C102.276 125.187 102.104 125.187 102.104 125.015C102.104 125.187 102.104 125.187 102.104 125.015ZM104.004 125.36C104.004 125.533 104.004 125.533 104.004 125.36C104.349 125.533 104.349 125.533 104.349 125.533C104.349 125.533 104.349 125.533 104.522 125.533L104.694 125.706L105.385 125.015H105.213L105.04 125.187L104.867 125.015C104.694 125.015 104.694 125.015 104.522 125.015C104.522 125.015 104.349 125.015 104.349 125.187L104.004 125.36ZM104.176 125.36L104.349 125.187H104.522C104.694 125.187 104.694 125.187 104.694 125.36L104.522 125.533C104.522 125.533 104.522 125.533 104.176 125.36ZM105.558 125.706L105.731 125.533V125.36C105.731 125.36 105.731 125.36 105.558 125.187H105.385C105.213 125.187 105.213 125.187 105.213 125.187C105.213 125.187 105.04 125.187 105.04 125.36L104.867 125.533V125.706C104.867 125.706 104.867 125.706 105.04 125.878H105.213H105.385C105.385 125.878 105.558 125.878 105.558 125.706ZM105.04 125.706L105.213 125.533C105.385 125.533 105.385 125.533 105.385 125.533C105.385 125.706 105.213 125.706 105.213 125.706C105.213 125.706 105.213 125.706 105.04 125.706ZM106.422 125.36L105.731 126.051H105.558L106.249 125.36H106.422ZM106.422 125.706H106.249L106.076 125.878C106.076 125.878 105.903 126.051 106.076 126.051C106.076 126.051 106.076 126.051 106.249 126.224H106.422H106.594H106.767L106.94 126.051V125.878C106.94 125.878 106.94 125.878 106.767 125.706H106.594H106.422ZM106.594 126.051L106.422 126.224C106.249 126.224 106.249 126.224 106.249 126.224C106.076 126.051 106.422 125.878 106.422 125.878C106.422 125.878 106.422 125.878 106.594 126.051C106.594 125.878 106.594 125.878 106.594 126.051ZM107.285 126.224C107.285 126.224 107.458 126.224 107.285 126.224C107.458 126.224 107.458 126.224 107.458 126.224C107.631 126.396 107.458 126.396 107.285 126.224C107.458 126.396 107.285 126.396 107.285 126.224C107.285 126.224 107.113 126.224 107.113 126.396L106.594 126.569H106.422C106.594 126.396 107.113 126.051 107.285 126.224C107.285 126.051 107.285 126.224 107.285 126.224ZM107.113 126.915C107.113 126.915 107.285 126.915 107.113 126.915C107.285 126.915 107.458 126.915 107.458 126.915C107.458 126.915 107.458 126.915 107.631 126.915V126.742C107.631 126.742 107.631 126.742 107.631 126.569C107.631 126.569 107.631 126.569 107.803 126.569H107.976H108.149L108.322 126.742H108.149L107.976 126.569C107.976 126.569 107.976 126.569 107.803 126.569V126.742C107.803 126.742 107.803 126.742 107.803 126.915C107.803 126.915 107.803 126.915 107.631 126.915C107.458 126.915 107.285 126.915 107.285 126.915H107.113ZM108.667 126.915C108.84 126.915 108.84 126.915 108.667 126.915C108.84 127.087 108.667 127.087 108.667 127.087C108.667 127.087 108.494 126.915 108.667 126.915C108.494 126.915 108.667 126.915 108.667 126.915ZM107.631 127.26L108.494 126.915L108.667 127.087C108.494 127.087 107.803 127.433 107.631 127.26C107.631 127.433 107.631 127.26 107.631 127.26ZM108.84 127.26C109.012 127.26 109.012 127.26 108.84 127.26C109.012 127.433 108.84 127.433 108.84 127.433V127.605H108.667L108.494 127.433L108.149 127.605C108.149 127.778 107.976 127.778 107.976 127.778C107.803 127.605 107.803 127.605 107.803 127.605C107.803 127.605 107.803 127.605 107.976 127.433L108.322 127.26C108.322 127.087 108.494 127.087 108.494 127.087C108.667 127.26 108.84 127.26 108.84 127.26ZM108.494 127.951C108.322 127.951 108.322 127.951 108.322 128.124V128.296C108.322 128.296 108.322 128.296 108.494 128.296V128.469L109.358 128.296L109.185 127.951L109.012 127.778H108.84L108.494 127.951ZM109.185 128.124C109.185 128.296 108.84 128.296 108.84 128.296C108.667 128.296 108.667 128.296 108.667 128.296C108.667 128.124 109.012 127.951 109.185 128.124C109.012 127.951 109.012 127.951 109.185 128.124C109.012 128.124 109.012 128.124 109.185 128.124ZM109.531 128.469C109.531 128.642 109.531 128.642 109.531 128.642C109.531 128.814 109.531 128.814 109.531 128.814C109.703 128.814 109.703 128.814 109.703 128.987C109.703 129.16 109.703 129.16 109.703 129.16H109.531H108.84V128.987L109.531 128.814C109.531 128.642 109.531 128.642 109.358 128.642H108.84V128.469L109.531 128.296C109.531 128.124 109.531 128.124 109.358 128.124H108.84V127.951C108.667 128.469 109.531 128.469 109.531 128.469ZM109.185 129.333C109.012 129.333 109.012 129.333 109.012 129.333C109.012 129.333 109.012 129.333 109.012 129.505V129.678H109.185V129.505C109.012 129.505 109.185 129.505 109.185 129.333C109.185 129.505 109.358 129.851 109.358 129.851H109.703C109.876 129.851 109.876 129.851 109.876 129.851C109.876 129.851 109.876 129.851 109.876 129.678V129.505C109.876 129.505 109.876 129.333 109.703 129.333H109.531H109.185ZM109.703 129.505C109.531 129.678 109.531 129.678 109.703 129.505L109.531 129.678V129.505C109.358 129.505 109.531 129.505 109.703 129.505C109.531 129.505 109.531 129.505 109.703 129.505C109.531 129.505 109.703 129.505 109.703 129.505ZM109.876 129.851H110.049V130.023C110.049 130.023 109.876 130.023 109.876 129.851C109.876 130.023 109.876 130.023 109.876 130.023H109.703V129.851H109.185C109.185 129.851 109.185 129.851 109.012 129.851C109.012 130.023 108.84 130.023 108.84 130.023C108.84 129.851 108.84 129.851 108.84 129.851H109.012H109.531C109.703 129.851 109.876 129.851 109.876 129.851ZM108.667 130.196H109.185V130.369H109.012C108.84 130.369 108.84 130.369 108.667 130.196ZM109.358 130.714C109.531 130.714 109.531 130.714 109.531 130.714C109.531 130.714 109.531 130.714 109.531 130.887V131.06H109.358V130.887C109.185 130.887 109.012 130.714 109.012 130.714C109.012 130.714 109.012 130.714 108.84 130.714L108.667 130.887H108.494V130.714C108.494 130.714 108.494 130.542 108.667 130.542H108.84L109.358 130.714ZM108.84 131.06C108.667 131.06 108.667 131.06 108.667 131.06C108.667 131.06 108.494 131.06 108.494 131.233V131.405V131.578C108.494 131.578 108.667 131.578 108.667 131.751H109.012C109.185 131.751 109.185 131.751 109.185 131.751C109.185 131.751 109.358 131.751 109.358 131.578V131.405V131.233H109.185L108.84 131.06ZM109.185 131.405H108.667C108.667 131.232 108.667 131.233 108.84 131.233L109.185 131.405ZM108.322 131.578L109.185 131.751V131.923C109.185 131.923 109.185 131.923 109.012 132.096C108.84 132.269 108.84 132.269 108.494 132.269L107.976 132.096V131.923L108.667 132.096C108.667 132.096 108.667 132.096 108.84 132.096C109.012 131.923 109.012 131.923 108.84 131.923L108.322 131.578ZM108.494 132.269C108.667 132.269 108.84 132.269 108.84 132.442C108.84 132.442 108.84 132.442 108.84 132.614L108.667 132.787H108.494L108.667 132.614C108.494 132.442 108.494 132.442 108.494 132.269L108.149 132.442H107.976H107.803C107.631 132.442 107.631 132.269 107.803 132.269L107.976 132.096H108.149L107.976 132.269C107.976 132.269 107.976 132.269 108.149 132.269H108.494C108.322 132.269 108.322 132.269 108.494 132.269ZM107.631 132.442H107.458L107.285 132.614H107.458L107.803 132.442C107.631 132.614 107.631 132.614 107.631 132.442C107.803 132.614 107.458 132.787 107.458 132.787L107.631 132.96H107.803H107.976H108.149V132.787C108.149 132.787 108.149 132.787 107.976 132.614L107.631 132.442C107.631 132.442 107.803 132.442 107.631 132.442ZM107.976 132.787C107.803 132.96 107.803 132.96 107.803 132.96C107.803 132.787 107.976 132.787 107.976 132.787ZM107.285 132.96L107.631 133.132C107.631 133.132 107.803 133.132 107.803 133.305C107.803 133.478 107.803 133.478 107.631 133.478H107.458H107.285L107.458 133.305C107.458 133.132 107.113 133.132 107.285 132.96C107.113 133.132 107.113 133.132 107.113 133.132L106.94 133.305H106.767L106.94 133.132H107.113C107.113 132.96 107.285 132.96 107.285 132.96ZM107.113 133.478C107.285 133.478 107.285 133.478 107.113 133.478C107.113 133.651 107.285 133.651 107.285 133.651L107.113 133.823H106.94H106.767H106.594L106.767 133.651L106.422 133.478C106.249 133.478 106.249 133.478 106.249 133.478C106.076 133.478 106.076 133.478 106.076 133.478H106.249H106.422H107.113ZM105.903 133.478L105.558 133.651V133.823C105.731 133.823 106.076 133.651 105.903 133.478C106.076 133.651 106.076 133.478 106.076 133.651C106.249 133.651 105.731 133.823 105.731 133.823L105.903 133.996H106.076H106.249H106.422C106.422 133.996 106.594 133.996 106.594 133.823V133.651L106.422 133.478H106.249C106.076 133.478 105.903 133.478 105.903 133.478ZM106.422 133.823C106.249 133.996 106.249 133.996 106.422 133.823C106.076 133.823 106.249 133.823 106.422 133.823C106.249 133.823 106.422 133.823 106.422 133.823ZM105.903 134.169C105.903 134.169 106.076 134.169 105.903 134.169C105.903 134.341 106.076 134.341 106.076 134.341L105.903 134.514L105.731 134.341H105.558H105.385H105.558L105.385 134.169C105.213 134.169 105.213 134.169 105.213 134.169C105.04 134.169 105.04 134.169 105.04 134.169H105.213H105.385H105.558H105.903ZM105.04 134.169L105.385 134.514H105.213L104.867 134.169C104.694 134.169 104.694 134.169 104.694 134.169C104.522 134.169 104.522 134.169 104.522 134.341L104.867 134.687H104.694L104.176 134.169H104.349C104.522 134.169 104.522 134.169 104.522 134.169C104.694 134.169 104.694 134.169 104.867 134.169C105.04 133.996 105.04 133.996 105.04 134.169ZM104.176 134.169L104.522 134.687H104.349C104.176 134.687 104.176 134.687 104.176 134.687C104.004 134.687 104.004 134.687 104.004 134.687H104.176C104.176 134.687 104.349 134.687 104.176 134.514L104.004 134.169C104.004 134.169 104.004 134.169 104.176 134.169ZM103.658 134.514C103.658 134.514 103.658 134.341 103.658 134.514C103.485 134.341 103.313 134.341 103.313 134.341H103.14C102.967 134.341 102.795 134.341 102.795 134.341L103.14 134.86H103.658C103.831 134.86 103.831 134.86 103.831 134.687V134.514H103.658ZM103.485 134.514L103.658 134.687L103.485 134.86L103.313 134.687V134.514C103.313 134.514 103.313 134.514 103.485 134.514ZM102.622 134.514H102.449C102.276 134.514 102.276 134.514 102.276 134.514C102.104 134.514 101.931 134.514 101.931 134.514L102.104 135.205H102.276V134.86C102.276 134.86 102.276 134.86 102.449 134.86C102.449 134.86 102.449 134.86 102.622 134.86C102.795 134.86 102.795 134.86 102.967 134.86C102.967 134.86 102.967 134.86 102.967 134.687L102.622 134.514C102.622 134.687 102.622 134.514 102.622 134.514ZM102.449 134.687V134.86C102.104 135.032 102.104 134.86 102.104 134.86V134.687C102.104 134.687 102.104 134.514 102.276 134.514C102.449 134.687 102.449 134.687 102.449 134.687ZM101.586 134.687C101.758 134.687 101.931 135.205 101.931 135.205H101.758C101.586 135.205 101.413 134.687 101.586 134.687C101.413 134.687 101.586 134.687 101.586 134.687ZM101.758 135.205C101.931 135.205 101.931 135.378 101.758 135.205C101.931 135.378 101.758 135.378 101.758 135.205C101.586 135.378 101.586 135.205 101.586 135.205H101.758ZM101.24 134.514H101.067V134.687C101.067 134.687 101.067 134.687 100.895 134.687C100.895 134.687 100.895 134.687 100.722 134.687C100.549 134.687 100.549 134.687 100.377 134.687C100.377 134.687 100.377 134.687 100.377 134.86V135.032C100.377 135.032 100.377 135.205 100.549 135.205H100.722C100.895 135.205 100.895 135.205 100.895 135.205H101.067C101.413 135.205 101.24 134.514 101.24 134.514ZM100.895 135.032C100.722 135.032 100.722 135.032 100.722 135.032V134.86C100.722 134.86 100.722 134.86 100.895 134.86H101.067C101.24 134.86 101.24 134.86 101.24 134.86L100.895 135.032C101.067 135.032 101.067 135.032 100.895 135.032ZM100.031 135.378C100.204 135.378 100.204 135.55 100.204 135.55C100.204 135.378 100.031 135.378 100.031 135.378ZM100.377 134.687V135.205H100.204V134.687H100.377ZM99.8584 135.205H99.6856H99.3402C99.3402 135.032 99.6856 135.032 99.6856 135.032C99.6856 135.032 99.6856 135.032 99.8584 135.205C99.6856 135.032 99.6856 135.032 99.6856 135.032H99.5129H99.3402C99.3402 135.032 99.3402 135.032 99.3402 134.86C99.3402 134.687 99.5129 134.687 99.6856 134.687H100.031C100.031 134.86 99.6856 134.86 99.6856 134.86H99.5129H99.6856H99.8584C99.8584 135.032 99.8584 135.032 99.8584 135.205ZM99.1675 134.687L98.9948 135.205H98.822L98.9948 134.687C98.9948 134.514 99.1675 134.514 99.1675 134.687C99.1675 134.514 99.1675 134.687 99.1675 134.687ZM98.822 135.205C98.9948 135.205 98.9948 135.378 98.822 135.205C98.822 135.378 98.6493 135.378 98.822 135.205C98.6493 135.378 98.6493 135.205 98.822 135.205C98.6493 135.205 98.822 135.205 98.822 135.205ZM98.4766 135.032H98.3039H97.9585C97.9585 134.86 98.3039 135.032 98.3039 135.032C98.3039 135.032 98.3039 135.032 98.4766 135.032C98.3039 134.86 98.4766 134.687 98.4766 134.687L98.1312 134.514C98.1312 134.341 98.4766 134.514 98.4766 134.514C98.6493 134.514 98.6493 134.514 98.6493 134.514V134.687L98.4766 135.032ZM97.4403 135.032C97.613 135.032 97.613 135.205 97.4403 135.032C97.4403 135.205 97.2676 135.205 97.4403 135.032C97.2676 135.205 97.4403 135.032 97.4403 135.032ZM97.9585 134.514L97.613 135.032H97.4403L97.7857 134.514C97.7857 134.341 97.9585 134.341 97.9585 134.514ZM96.9221 134.86H96.7494C96.5767 134.86 96.404 134.687 96.5767 134.687L96.7494 134.341H96.9221L96.7494 134.687C97.0949 134.687 97.0949 134.687 96.9221 134.86L97.2676 134.341H97.4403L97.0949 134.86C97.0949 134.86 97.0949 134.86 96.9221 134.86ZM96.5767 134.341C96.5767 134.341 96.5767 134.169 96.5767 134.341C96.5767 134.169 96.5767 134.169 96.404 134.169C96.2313 134.169 96.2313 134.169 96.2313 134.169C96.2313 134.169 96.2313 134.169 96.0585 134.169C96.2313 134.169 96.2313 134.169 96.2313 134.169L96.5767 134.341H96.7494L96.404 134.169C96.2313 134.169 96.2313 134.169 96.2313 134.169C96.2313 134.169 96.0585 134.169 96.0585 134.341L95.5404 134.86L95.8858 135.032C96.0586 135.032 96.0585 135.032 96.0585 135.032C96.2313 134.514 96.404 134.514 96.5767 134.341ZM96.2313 134.514C96.0586 134.514 96.0586 134.514 96.2313 134.514H96.0585L96.2313 134.341H96.404C96.404 134.341 96.2313 134.341 96.2313 134.514ZM95.5404 134.169L95.7131 133.996V133.823C95.7131 133.823 95.7131 133.823 95.5404 133.651L95.195 133.478H95.0223L95.3677 133.651C95.3677 133.823 95.0223 133.651 95.0223 133.651L94.8495 133.823V133.996C94.8495 133.996 94.8495 133.996 95.0223 134.169H95.195H95.3677C95.5404 134.341 95.5404 134.341 95.5404 134.169ZM95.195 134.169C95.3677 133.996 95.5404 134.169 95.5404 134.169C95.3677 134.169 95.3677 134.169 95.195 134.169ZM95.195 133.651L94.3314 134.169H94.1587L95.0223 133.651C95.0223 133.478 95.195 133.478 95.195 133.651ZM93.9859 133.996H93.8132C93.8132 133.823 93.9859 133.823 93.9859 133.996C93.9859 133.823 94.1587 133.823 93.9859 133.996C94.1587 133.823 93.9859 133.996 93.9859 133.996ZM94.6768 133.305C94.6768 133.305 94.8495 133.305 94.6768 133.305C94.8495 133.478 94.1587 133.823 94.1587 133.823H93.9859C93.9859 133.651 94.6768 133.305 94.6768 133.305ZM93.6405 133.651C93.6405 133.651 93.4678 133.651 93.6405 133.651C93.4678 133.478 93.6405 133.478 93.6405 133.478H93.4678H93.6405H93.8132L94.1587 133.305C94.1587 133.132 94.1587 133.132 94.1587 133.132H94.3314L94.5041 133.305C94.5041 133.305 94.5041 133.478 94.3314 133.478L93.9859 133.651V133.823C93.8132 133.651 93.6405 133.651 93.6405 133.651ZM93.9859 132.96H94.1587L93.8132 133.132H93.6405C93.8132 132.96 93.9859 132.96 93.9859 132.96ZM93.1223 133.132H92.9496L92.7769 132.96H92.9496L93.1223 133.132C93.1223 132.96 93.1223 132.96 93.1223 133.132C93.1223 132.96 93.1223 132.787 93.1223 132.787C93.1223 132.787 93.1223 132.787 93.1223 132.614C93.1223 132.614 93.1224 132.614 93.2951 132.614C93.4678 132.614 93.6405 132.614 93.6405 132.614L93.8132 132.787H93.6405L93.4678 132.614C93.4678 132.614 93.4678 132.614 93.2951 132.614V132.787C93.2951 132.787 93.2951 132.787 93.2951 132.96C93.2951 132.96 93.2951 132.96 93.1223 132.96C93.2951 133.132 93.1223 133.132 93.1223 133.132ZM92.9496 132.614L93.2951 132.442C93.4678 132.442 93.4678 132.442 93.4678 132.269V132.096L93.2951 131.923H93.1223L93.2951 132.096C93.1224 132.269 92.9496 131.923 92.9496 131.923H92.6042C92.4315 131.923 92.4315 131.923 92.4315 132.096V132.269C92.4315 132.269 92.6042 132.269 92.6042 132.442C92.7769 132.614 92.7769 132.614 92.9496 132.614ZM92.6042 132.442C92.6042 132.442 92.7769 132.269 92.6042 132.442C92.7769 132.269 92.9496 132.442 92.9496 132.442C92.7769 132.614 92.7769 132.614 92.6042 132.442ZM92.0861 131.923C92.0861 132.096 92.2588 132.269 92.2588 132.269H92.4315H92.7769C92.9496 132.269 92.9496 132.269 92.9496 132.096V131.923C92.9496 131.923 92.9496 131.923 92.7769 131.751C92.7769 131.751 92.7769 131.751 92.6042 131.751V131.578L91.3952 131.923V132.096C91.5679 132.096 92.0861 131.923 92.0861 131.923ZM92.2588 132.096C92.086 131.923 92.086 131.923 92.2588 132.096L92.6042 131.923C92.7769 131.923 92.7769 131.923 92.7769 131.923C92.6042 131.923 92.4315 132.096 92.2588 132.096ZM91.5679 131.06C91.5679 131.233 91.5679 131.405 91.7406 131.405H91.9133H92.2588C92.4315 131.405 92.4315 131.405 92.4315 131.405C92.4315 131.405 92.4315 131.405 92.4315 131.233C92.2588 131.06 92.2588 131.06 92.2588 131.06C92.4315 131.06 92.2588 130.887 92.2588 130.887L90.877 131.06V131.233C91.0497 131.233 91.5679 131.06 91.5679 131.06ZM91.7406 131.06H92.0861C92.2588 131.06 92.2588 131.06 92.2588 131.06C92.2588 131.233 91.9133 131.233 91.9133 131.233C91.9133 131.233 91.9133 131.233 91.7406 131.233C91.7406 131.06 91.7406 131.06 91.7406 131.06ZM92.0861 130.714C92.2588 130.714 92.2588 130.714 92.2588 130.714C92.2588 130.714 92.2588 130.714 92.2588 130.542V130.369C92.2588 130.369 92.2588 130.196 92.0861 130.196H91.9133H91.5679C91.3952 130.196 91.3952 130.196 91.3952 130.196C91.3952 130.196 91.3952 130.196 91.3952 130.369V130.542C91.3952 130.542 91.3952 130.714 91.5679 130.714H91.7406H92.0861ZM91.5679 130.542C91.5679 130.369 91.9133 130.369 91.9133 130.369C91.9133 130.369 91.9133 130.369 92.0861 130.369C92.0861 130.542 92.0861 130.542 92.0861 130.542H91.5679C91.5679 130.714 91.5679 130.714 91.5679 130.542C91.5679 130.714 91.5679 130.714 91.5679 130.542ZM91.9133 130.196C92.086 130.196 92.0861 130.196 92.0861 130.196C92.0861 130.196 92.0861 130.196 92.0861 130.023V129.851H91.9133V130.023V130.196C91.9133 130.023 91.7406 129.678 91.7406 129.678H91.3952C91.2224 129.678 91.2225 129.678 91.2225 129.678C91.2225 129.678 91.2225 129.678 91.2225 129.851V130.023C91.2225 130.023 91.2224 130.196 91.3952 130.196H91.5679H91.9133ZM91.3952 130.023L91.5679 129.851V130.023C91.5679 130.196 91.5679 130.196 91.3952 130.023C91.5679 130.196 91.3952 130.196 91.3952 130.023ZM91.0497 129.678C90.877 129.678 90.877 129.505 90.877 129.505C90.877 129.505 91.0497 129.505 91.0497 129.678ZM91.2225 129.678C91.2225 129.505 92.2588 129.505 92.2588 129.505V129.678C92.086 129.678 91.2225 129.678 91.2225 129.678ZM91.9133 129.505H91.2225V129.333C91.2225 129.333 91.9133 129.333 91.9133 129.505C91.9133 129.333 91.9133 129.333 91.9133 129.505C92.086 129.16 92.086 129.16 91.9133 129.16H91.3952V128.987H92.4315V129.16C92.4315 129.333 92.4315 129.333 92.2588 129.333C92.086 129.505 91.9133 129.505 91.9133 129.505ZM91.5679 128.814C91.3952 128.814 91.3952 128.814 91.3952 128.814C91.3952 128.814 91.3952 128.814 91.3952 128.642V128.469H91.5679V128.642H91.7406L91.9133 128.469H92.0861H92.2588C92.4315 128.469 92.4315 128.642 92.4315 128.642V128.814H92.2588V128.642C92.2588 128.642 92.2588 128.642 92.0861 128.642L91.9133 128.814C91.9133 128.814 91.7406 128.814 91.5679 128.814C91.7406 128.814 91.7406 128.814 91.5679 128.814ZM92.4315 128.469L91.5679 128.296V128.124C91.7406 127.951 91.7406 127.778 91.9133 127.778V127.605L92.0861 127.433H92.2588L92.7769 127.605V127.778L92.0861 127.605C92.0861 127.605 92.086 127.605 91.9133 127.605C91.7406 127.778 91.9133 127.778 91.9133 127.778L92.4315 127.951V128.124L91.7406 127.951C91.7406 127.951 91.7406 127.951 91.5679 127.951C91.3952 128.124 91.5679 128.124 91.5679 128.124L92.4315 128.469C92.6042 128.469 92.4315 128.469 92.4315 128.469ZM92.9496 127.605C92.9496 127.605 93.1223 127.605 93.1223 127.433V127.26V127.087C93.1223 127.087 93.1224 127.087 92.9496 126.915L92.6042 126.742C92.4315 126.742 92.4315 126.742 92.4315 126.742C92.4315 126.742 92.2588 126.742 92.2588 126.915V127.087V127.26C92.2588 127.26 92.2588 127.26 92.4315 127.433L92.7769 127.605C92.7769 127.778 92.9496 127.778 92.9496 127.605ZM92.4315 127.433C92.6042 127.26 92.6042 127.26 92.6042 127.26L92.9496 127.433C92.7769 127.605 92.7769 127.605 92.7769 127.605L92.4315 127.433ZM93.4678 127.26H93.6405C93.8132 127.087 93.9859 127.087 93.9859 127.087L92.9496 126.569H92.7769L93.1223 126.742C93.1223 126.742 93.1224 126.742 92.9496 126.742C92.9496 126.742 92.9496 126.742 92.7769 126.742C92.6042 126.742 92.6042 126.915 92.6042 126.915C92.6042 126.915 92.6042 126.915 92.7769 127.087L93.1223 127.26C93.2951 127.26 93.2951 127.26 93.4678 127.26ZM92.9496 126.915C93.1224 126.742 93.1224 126.742 93.2951 126.742L93.4678 126.915C93.4678 126.915 93.6405 126.915 93.4678 127.087C93.2951 127.087 93.2951 127.087 93.2951 127.087L92.9496 126.915Z" fill="#4D6E98"/>
<path d="M141.311 106.706C141.311 106.706 140.275 108.952 139.066 111.197C139.066 111.197 139.066 111.197 138.893 111.197C139.238 110.161 139.238 109.47 139.411 109.297C139.756 108.434 139.929 107.743 139.929 107.225H140.102V106.879C140.102 106.879 140.102 107.052 139.929 107.397C139.066 108.088 133.711 111.888 134.402 113.615C134.575 113.961 134.92 114.133 135.438 114.306C135.784 114.479 136.129 114.306 136.647 114.306C136.82 114.306 136.82 114.306 136.993 114.133H137.166C136.475 114.997 135.611 115.86 134.575 116.206C133.884 116.379 133.193 116.551 132.502 116.379C131.984 116.206 131.811 116.033 131.639 115.86C131.466 115.688 131.466 115.342 131.639 115.17L133.02 113.097V113.961C133.193 113.961 133.193 113.961 133.193 113.961L136.129 110.334H135.957C135.784 110.506 134.402 111.543 133.02 112.924C132.33 113.615 131.811 114.306 131.466 114.824L131.639 114.133H131.466C131.466 114.133 131.293 114.306 131.121 114.479C130.948 114.479 130.602 114.997 130.084 115.515C130.084 115.342 130.084 115.17 130.084 115.17C130.084 115.17 130.084 115.515 130.084 115.86C129.911 116.206 129.739 116.551 129.566 116.724C129.739 114.651 129.739 112.233 129.739 112.061C129.566 112.061 129.566 112.061 129.566 112.061C129.393 112.233 125.075 116.897 126.457 118.624C126.63 118.969 127.148 119.142 127.666 119.315C128.012 119.315 128.357 119.315 128.53 119.142C128.702 119.142 128.875 118.969 128.875 118.969C128.875 119.142 128.702 119.142 128.702 119.315C128.357 119.488 127.666 119.488 127.321 119.315C126.803 119.142 126.457 118.969 126.112 118.797C126.112 118.797 126.112 118.797 125.939 118.797C126.284 119.142 126.63 119.315 127.148 119.488C127.666 119.66 128.357 119.66 128.702 119.315C128.875 119.315 128.875 119.142 129.048 118.797C129.393 118.451 129.566 117.933 129.739 117.415H129.911H130.084C130.257 117.242 130.257 116.724 130.257 116.206C130.257 116.206 130.43 116.206 130.602 116.379C130.775 116.379 130.948 116.379 130.948 116.379C131.121 116.206 131.293 116.033 131.293 115.688C131.293 115.861 131.293 115.86 131.293 116.033C131.466 116.379 131.811 116.551 132.157 116.551C132.848 116.724 133.711 116.724 134.402 116.379C135.438 116.033 136.302 115.17 136.993 114.306C137.166 114.306 137.166 114.306 137.338 114.306C137.338 114.306 137.511 114.306 137.511 114.133C137.511 114.306 137.338 114.306 137.338 114.479C137.338 114.651 137.166 114.651 137.166 114.824C137.338 114.824 137.511 114.651 137.511 114.479C137.684 114.133 138.029 113.788 138.375 113.615C139.066 112.924 139.756 112.233 139.411 111.715L139.238 111.543C140.447 108.952 141.484 106.879 141.311 106.706C141.484 106.706 141.484 106.706 141.311 106.706C141.484 106.706 141.311 106.706 141.311 106.706ZM133.193 112.579C134.057 111.715 135.093 110.852 135.611 110.334L133.193 113.442V112.579ZM131.293 114.306C131.466 114.133 131.466 114.133 131.639 114.133L131.466 114.824C131.293 114.479 131.293 114.306 131.293 114.306ZM129.048 118.451C128.875 118.624 128.702 118.797 128.53 118.797C128.357 118.969 128.012 118.969 127.666 118.797C127.148 118.624 126.803 118.451 126.63 118.279C125.421 116.724 128.875 112.752 129.566 111.888C129.566 113.615 129.393 117.069 129.048 118.451ZM129.566 116.897C129.566 117.415 129.393 117.76 129.221 118.106C129.221 117.76 129.393 117.242 129.393 116.724C129.393 116.724 129.566 116.724 129.566 116.897ZM129.739 116.897C129.566 116.724 129.739 116.206 129.911 115.86C129.911 116.033 129.911 116.551 129.739 116.897ZM130.084 116.897C129.911 116.897 129.911 116.897 129.911 116.897C130.084 116.379 130.084 115.86 130.084 115.515C130.257 116.206 130.257 116.897 130.084 116.897ZM130.948 115.86C130.775 115.86 130.775 115.86 130.602 115.86C130.43 115.86 130.43 115.861 130.257 115.688C130.084 115.342 130.602 114.651 131.121 114.306C131.293 114.824 131.293 115.688 130.948 115.86ZM137.511 113.961H137.338C137.511 113.615 137.684 113.442 137.857 113.097C138.202 112.579 138.547 111.888 138.893 111.37C138.72 111.888 138.547 112.579 138.375 112.924C138.375 113.097 138.202 113.27 138.202 113.27C137.857 113.615 137.684 113.788 137.511 113.961ZM136.82 113.788C136.647 113.788 136.647 113.615 136.647 113.442C136.475 112.924 136.993 111.888 137.857 111.37C137.857 111.37 137.857 111.37 138.029 111.37C138.202 111.197 138.547 111.197 138.72 111.197C138.375 111.888 138.202 112.406 137.684 113.097C137.338 113.27 137.166 113.615 136.82 113.788ZM139.066 111.197C139.066 111.37 139.066 111.543 138.893 111.715C138.893 111.543 138.893 111.37 139.066 111.197ZM139.411 111.543C139.756 111.888 139.066 112.579 138.375 113.27C138.202 113.442 138.202 113.442 138.029 113.615C138.029 113.442 138.202 113.442 138.202 113.27C138.202 113.27 138.202 113.097 138.375 113.097C138.72 112.406 138.893 111.888 139.411 111.543C139.238 111.37 139.411 111.37 139.411 111.543ZM138.72 111.024C138.375 111.024 138.202 111.024 137.857 111.197C137.857 111.197 137.857 111.197 137.684 111.197C136.82 111.715 136.302 112.752 136.475 113.27C136.475 113.442 136.647 113.442 136.647 113.615C136.647 113.615 136.475 113.615 136.475 113.788C136.129 113.961 135.784 113.961 135.438 113.788C134.92 113.615 134.575 113.442 134.575 113.097C133.884 111.543 138.547 108.088 139.756 107.225C139.584 108.261 139.238 109.643 138.72 111.024Z" fill="#4D6E98"/>
<path d="M75.0619 77.2473L38.2455 98.4576L38.3318 98.6073L75.1482 77.397L75.0619 77.2473Z" fill="#3A3737"/>
<path d="M32.9691 92.3935L37.1813 89.9618L42.3762 92.9609L43.0315 92.5826L45.4839 93.9984L44.3606 94.6468L42.9566 93.8363L39.1189 96.0518L40.5229 96.8624L39.3997 97.5108L36.9473 96.095C37.1657 95.9762 37.2842 95.8212 37.303 95.6303C37.3154 95.4358 37.2468 95.2376 37.097 95.0359C36.8661 94.7297 36.395 94.3713 35.6836 93.9606L32.9691 92.3935ZM35.1969 92.3179L36.863 93.2797C37.6431 93.73 38.1516 94.1065 38.3888 94.4091C38.5635 94.6396 38.6477 94.8756 38.6415 95.117L41.1594 93.6634L37.0128 91.2695L35.1969 92.3179Z" fill="#090909"/>
<path d="M41.5799 90.4594C41.6111 90.0019 41.9668 89.5768 42.647 89.1841C43.3271 88.7915 44.0635 88.5861 44.856 88.5681C45.7234 88.5429 46.4816 88.7176 47.1305 89.0923C47.7733 89.4633 48.0728 89.8992 48.0291 90.4C47.9979 90.8575 47.6422 91.2826 46.9621 91.6752C46.2819 92.0679 45.5455 92.2732 44.753 92.2913C43.8856 92.3165 43.1306 92.1436 42.4878 91.7725C41.8389 91.3978 41.5362 90.9601 41.5799 90.4594ZM44.7998 91.3672C45.2429 91.3708 45.6267 91.279 45.9511 91.0916C46.2756 90.9043 46.4348 90.6828 46.4285 90.427C46.4223 90.1712 46.2632 89.9533 45.9511 89.7731C45.6329 89.5894 45.2522 89.4957 44.8092 89.4921C44.3661 89.4885 43.9824 89.5804 43.6579 89.7677C43.3334 89.9551 43.1743 90.1766 43.1805 90.4324C43.1867 90.6882 43.349 90.9079 43.6672 91.0916C43.9792 91.2718 44.3568 91.3636 44.7998 91.3672Z" fill="#090909"/>
<path d="M50.0356 89.7496L45.9826 87.4098L48.566 85.9184L49.5395 86.4803L48.098 87.3125L51.1776 89.0903L50.0356 89.7496Z" fill="#090909"/>
<path d="M49.9804 85.6098C50.0116 85.1523 50.3673 84.7272 51.0475 84.3345C51.7276 83.9419 52.464 83.7365 53.2565 83.7185C54.1239 83.6933 54.8821 83.868 55.531 84.2427C56.1738 84.6137 56.4733 85.0496 56.4296 85.5504C56.3984 86.0079 56.0427 86.433 55.3626 86.8256C54.6824 87.2183 53.946 87.4236 53.1535 87.4416C52.2861 87.4669 51.5311 87.2939 50.8883 86.9229C50.2394 86.5482 49.9367 86.1105 49.9804 85.6098ZM53.2003 86.5176C53.6434 86.5212 54.0272 86.4294 54.3516 86.242C54.6761 86.0547 54.8353 85.8331 54.829 85.5774C54.8228 85.3216 54.6637 85.1036 54.3516 84.9235C54.0334 84.7398 53.6527 84.6461 53.2097 84.6425C52.7666 84.6389 52.3829 84.7308 52.0584 84.9181C51.7339 85.1054 51.5748 85.327 51.581 85.5828C51.5872 85.8385 51.7495 86.0583 52.0677 86.242C52.3797 86.4221 52.7573 86.514 53.2003 86.5176Z" fill="#090909"/>
<path d="M54.3831 82.5602L56.1709 81.5281C56.6015 81.2795 57.004 81.1408 57.3784 81.112C57.8402 81.0759 58.2364 81.1534 58.5671 81.3443C58.7419 81.4452 58.8573 81.5695 58.9135 81.7172C58.9696 81.8577 58.9447 82.0018 58.8386 82.1495C59.0757 82.0558 59.3409 82.0036 59.6342 81.9928C60.0273 81.982 60.383 82.0684 60.7013 82.2522C61.0819 82.4719 61.2379 82.7277 61.1693 83.0195C61.1069 83.2572 60.8916 83.4824 60.5234 83.6949L58.4361 84.9L54.3831 82.5602ZM57.135 82.8303L57.6592 82.5277C57.7778 82.4593 57.8526 82.3872 57.8838 82.3116C57.9213 82.2179 57.8776 82.1351 57.7528 82.063C57.6217 81.9874 57.4813 81.9568 57.3316 81.9712C57.2255 81.982 57.0913 82.0342 56.9291 82.1279L56.4236 82.4197L57.135 82.8303ZM58.6795 83.722L59.213 83.4139C59.4064 83.3023 59.5125 83.2014 59.5312 83.1113C59.5562 83.0105 59.4969 82.9186 59.3534 82.8358C59.2224 82.7601 59.0757 82.7331 58.9135 82.7547C58.7637 82.7691 58.6015 82.8267 58.4267 82.9276L57.8651 83.2518L58.6795 83.722Z" fill="#090909"/>
<path d="M59.5692 80.0742C59.6004 79.6167 59.9561 79.1916 60.6363 78.7989C61.3165 78.4062 62.0528 78.2009 62.8453 78.1829C63.7127 78.1577 64.4709 78.3324 65.1199 78.707C65.7626 79.0781 66.0621 79.514 66.0184 80.0147C65.9872 80.4722 65.6316 80.8973 64.9514 81.29C64.2712 81.6827 63.5348 81.888 62.7423 81.906C61.875 81.9312 61.1199 81.7583 60.4771 81.3873C59.8282 81.0126 59.5255 80.5749 59.5692 80.0742ZM62.7891 80.982C63.2322 80.9856 63.616 80.8937 63.9405 80.7064C64.2649 80.5191 64.4241 80.2975 64.4178 80.0417C64.4116 79.786 64.2525 79.568 63.9405 79.3879C63.6222 79.2042 63.2416 79.1105 62.7985 79.1069C62.3554 79.1033 61.9717 79.1952 61.6472 79.3825C61.3227 79.5698 61.1636 79.7914 61.1698 80.0471C61.1761 80.3029 61.3383 80.5227 61.6565 80.7064C61.9686 80.8865 62.3461 80.9784 62.7891 80.982Z" fill="#090909"/>
<path d="M68.6427 78.4025L71.3104 79.9425L70.1684 80.6018L63.9719 77.0245L65.1139 76.3653L65.638 76.6679C65.507 76.2392 65.7285 75.8591 66.3026 75.5277C66.8642 75.2035 67.507 75.0414 68.2308 75.0414C69.0421 75.0414 69.7815 75.2341 70.4492 75.6196C71.1357 76.0158 71.4695 76.4535 71.4508 76.9327C71.4258 77.3506 71.1419 77.7162 70.599 78.0296C70.0561 78.343 69.404 78.4673 68.6427 78.4025ZM67.0046 76.2896C66.7113 76.459 66.5553 76.6535 66.5366 76.8732C66.4992 77.147 66.6614 77.3884 67.0234 77.5973C67.3915 77.8099 67.8096 77.9071 68.2776 77.8891C68.6645 77.8747 69.0046 77.7829 69.2979 77.6135C69.6037 77.437 69.7628 77.2335 69.7753 77.0029C69.794 76.7399 69.6255 76.5058 69.2698 76.3004C68.9204 76.0987 68.521 76.0014 68.0717 76.0086C67.6661 76.0195 67.3104 76.1131 67.0046 76.2896Z" fill="#090909"/>
<defs>
<linearGradient id="paint0_linear_222_58357" x1="39.0294" y1="72.2307" x2="40.9417" y2="75.5429" gradientUnits="userSpaceOnUse">
<stop stop-color="#F7F6F3"/>
<stop offset="1" stop-color="#F0EFEC"/>
</linearGradient>
</defs>
</svg>
