<svg width="170" height="170" viewBox="0 0 170 170" fill="none" xmlns="http://www.w3.org/2000/svg">
<path d="M20.718 99.0513C28.4852 94.4801 41.1258 94.4801 48.8929 99.0513C56.6601 103.47 56.6601 110.784 48.7406 115.355C40.9735 119.926 28.3329 119.926 20.5657 115.355C12.9509 110.936 12.9509 103.623 20.718 99.0513Z" fill="#F5F2E8"/>
<path d="M119.711 134.249L81.3322 112.003L78.8955 113.374L81.3322 112.003L73.8697 107.736L40.9735 126.631L48.4361 130.897L86.8149 153.144L97.628 157.867L101.131 155.886L92.9068 149.639L84.0736 144.458L104.481 132.573L113.315 137.754L124.128 142.478L127.631 140.497L119.711 134.249ZM66.864 134.554L54.528 127.393L74.9358 115.507L87.2718 122.669L66.864 134.554Z" fill="#D8D5CC"/>
<path d="M13.7122 93.8705C21.4793 89.2993 34.12 89.2993 41.8871 93.8705C49.6543 98.2894 49.6543 105.603 41.7348 110.174C33.9677 114.746 21.327 114.746 13.5599 110.174C5.945 105.756 5.94501 98.4417 13.7122 93.8705Z" fill="black" fill-opacity="0.1"/>
<path d="M45.6947 39.4732C45.6947 39.4732 44.6286 41.4541 42.4964 41.4541H42.3442C42.0396 41.4541 41.735 41.4541 41.5827 41.4541C40.3643 41.3017 40.212 40.8446 39.9074 40.2351C39.6028 39.4732 35.6431 23.0169 38.9936 21.9503C38.9936 21.9503 40.6689 21.9503 41.4304 23.474C41.8873 24.5407 42.8011 28.1976 43.5625 31.3974C44.0194 33.3783 44.324 35.0544 44.4763 35.8163C44.7809 37.34 45.3901 38.7114 45.5424 39.3209L45.6947 39.4732Z" fill="#FFAE75"/>
<path d="M48.7404 51.206C48.7404 51.3584 48.7404 51.5107 48.7404 51.8155C48.7404 51.8155 48.2836 50.5965 46.1514 48.768C44.0192 46.9395 42.0393 43.7397 41.7347 42.6731V41.4541C40.5163 41.3017 40.3641 40.8446 40.0595 40.2351C39.7549 39.4732 35.7951 23.0169 39.1457 21.9503C39.1457 21.9503 40.821 21.9503 41.5825 23.4741C42.0394 24.5407 42.9531 28.1976 43.7146 31.3975C43.5623 31.8546 41.7347 32.4641 41.7347 32.4641C41.7347 32.4641 42.0393 38.2543 42.0393 38.7114C42.0393 39.1685 42.9531 40.0827 42.9531 40.0827C42.8008 40.2351 42.4962 40.6922 42.4962 41.4541C42.4962 41.6065 42.4962 41.9112 42.6485 42.0636C43.1054 43.2826 45.9991 47.3966 46.9129 48.768C47.8267 50.1394 49.045 50.7489 49.045 50.7489C49.045 50.7489 48.8927 50.9012 48.7404 51.206Z" fill="url(#paint0_linear_222_59403)"/>
<path d="M43.5625 30.9403C43.5625 30.9403 42.1918 31.8545 40.9734 31.5498C39.755 31.0926 36.8614 20.7313 36.8614 20.7313C36.8614 20.7313 37.1659 20.2741 38.8412 20.5789C40.6688 21.036 41.4303 22.7121 41.7349 23.6263C41.8872 24.3882 43.5625 30.9403 43.5625 30.9403Z" fill="#1D9F3A"/>
<path d="M40.9734 103.013C40.9734 103.013 43.4102 104.079 43.8671 104.537C44.324 104.994 47.3699 107.432 47.5222 107.889C47.6745 108.346 48.5883 109.108 48.7406 109.87C48.7406 110.784 47.6745 111.546 46.7607 111.546C45.847 111.546 43.1056 110.631 41.8872 109.565C40.6688 108.498 40.0597 107.584 39.9074 107.584C39.7551 107.584 39.7551 107.584 39.1459 107.736C38.689 107.889 36.5568 106.822 36.4045 106.365C36.0999 105.756 35.643 103.47 35.9476 102.86C36.2522 102.099 40.9734 103.013 40.9734 103.013Z" fill="#2F2F2F"/>
<path d="M41.278 102.403C41.278 102.403 43.5624 104.689 43.7147 105.146C43.867 105.603 42.9533 106.213 41.4303 106.213C39.9073 106.213 38.2321 104.841 38.2321 104.841C38.2321 104.841 36.7091 102.708 37.3183 101.642C38.2321 100.423 41.278 102.403 41.278 102.403Z" fill="#FFAE75"/>
<path d="M41.8871 56.8438C41.8871 56.8438 42.344 56.6914 43.2578 64.7672C44.1716 72.2335 44.0193 77.5666 43.867 80.1569C43.7147 82.7473 42.344 101.946 42.344 103.013C42.344 103.927 40.2119 104.537 38.8412 104.384C37.4705 104.232 36.4044 103.165 36.4044 102.403C36.4044 101.794 34.8815 85.3376 35.9475 79.8522C36.2521 78.3285 31.8355 67.0528 31.8355 67.0528C31.8355 67.0528 30.9218 58.6723 31.6832 56.9962C32.4447 55.3201 41.8871 56.8438 41.8871 56.8438Z" fill="#799FCD"/>
<path d="M38.9938 104.384C37.6231 104.384 36.557 103.165 36.4047 102.403C36.4047 101.794 34.8817 85.3375 35.9478 79.8521C36.2524 78.176 31.8358 67.0527 31.8358 67.0527C31.8358 67.0527 31.8358 66.748 31.6835 66.1385L35.9478 65.2242C35.9478 65.2242 35.034 66.748 35.9478 69.7954C36.8616 72.8429 37.0139 78.9378 37.0139 79.8521C37.1662 80.7663 35.9478 81.0711 36.2524 87.6231C36.8616 92.9562 36.7093 101.184 38.9938 104.384Z" fill="#5A8AC3"/>
<path d="M21.4793 97.5276C21.4793 97.5276 23.1546 99.8132 23.3069 100.27C23.4592 100.727 25.7436 104.384 25.8959 104.994C26.0482 105.451 25.8959 105.908 25.439 106.365C25.1344 106.67 23.6114 107.279 22.6976 106.975C21.7839 106.67 20.2609 105.908 19.4995 104.994C18.738 104.232 17.8242 101.794 17.8242 101.794C17.8242 101.794 16.9104 100.727 16.6058 100.118C16.3012 99.6608 15.692 98.899 15.5397 98.1371C15.5397 97.3752 15.3874 96.9181 16.1489 96.3086C16.7581 95.8515 21.4793 97.5276 21.4793 97.5276Z" fill="#2F2F2F"/>
<path d="M21.4794 97.0704C21.4794 97.0704 22.3932 99.6608 22.5455 100.118C22.5455 100.575 21.4794 101.032 20.2611 100.88C19.195 100.727 18.7381 99.6608 18.4335 99.356C18.1289 99.0513 16.7583 96.7657 17.0628 96.0038C17.3674 95.242 21.4794 97.0704 21.4794 97.0704Z" fill="#FFAE75"/>
<path d="M36.2522 58.0627C36.2522 58.0627 36.5568 61.5673 36.5568 62.9387C36.7091 64.31 36.7091 66.2909 36.7091 66.2909L34.12 69.6431C34.12 69.6431 32.5971 71.0144 30.1603 83.0519C28.1804 86.8613 22.0885 97.9845 22.0885 97.9845C22.0885 97.9845 20.2609 99.813 18.2811 98.7464C16.4535 97.8321 15.8443 96.4608 15.8443 96.156C15.8443 95.3942 19.804 85.4899 20.4132 83.9662C20.8701 82.5948 23.0023 79.0902 23.0023 79.0902C23.0023 79.0902 23.0023 73.7572 22.85 72.0811C22.5454 68.8812 19.8041 60.8054 20.7178 59.2817C21.6316 57.3009 36.2522 58.0627 36.2522 58.0627Z" fill="#799FCD"/>
<path d="M16.7583 97.0703L16.4538 96.918C19.4997 86.5566 21.7842 83.5091 23.1548 81.833C23.6117 81.2235 23.9163 80.7664 24.0686 80.3093C25.7439 75.7381 23.6117 67.6623 23.1548 65.9862C22.0887 62.3292 22.5456 59.7389 22.5456 59.7389H22.8502C22.8502 59.7389 22.3933 62.1769 23.4594 65.8338C23.9163 67.5099 26.2007 75.7381 24.3732 80.3093C24.2209 80.9188 23.764 81.3759 23.3071 81.9854C22.0888 83.8139 19.8043 86.7089 16.7583 97.0703Z" fill="#5A8AC3"/>
<path d="M19.804 58.6722C19.804 58.6722 22.2407 61.2626 25.8959 61.7197C33.5107 62.4816 41.5825 58.8246 42.4963 57.6056C42.4963 57.6056 41.5825 49.8346 41.5825 46.1776C41.5825 42.5207 41.2779 36.8829 41.5825 33.2259C41.8871 29.5689 41.8871 25.3025 39.4503 21.4932C37.9273 19.2076 33.0539 21.3408 31.6832 21.1884C30.1602 21.0361 28.1803 19.8171 26.2005 21.4932C24.0683 23.1693 20.1086 24.693 19.1948 27.131C18.1287 29.8737 18.4333 33.5307 20.2609 41.7588C22.3931 50.7488 19.804 58.6722 19.804 58.6722Z" fill="#148B2E"/>
<path d="M35.186 21.7979C35.186 23.3216 35.4906 23.9311 35.186 24.3883C34.8814 24.8454 32.2924 25.4549 31.2263 24.9978C30.9217 24.8454 30.4648 24.693 30.1602 24.5406C28.0281 23.474 27.5711 22.5598 27.2665 22.1027C26.9619 21.6455 27.2665 21.1884 27.2665 21.1884C27.2665 21.1884 28.9418 19.0552 28.6373 17.2267C28.6373 16.7696 28.4849 15.8553 28.4849 14.7887C28.4849 13.5697 28.3326 12.3508 28.3326 12.3508C28.3326 12.3508 29.2464 10.3699 30.1602 10.5223C31.074 10.6747 35.3383 15.2459 35.3383 15.2459C35.3383 15.2459 35.186 17.0743 35.0337 18.9028C35.0337 19.9694 34.8814 20.8837 34.8814 21.4932C35.186 21.6455 35.186 21.7979 35.186 21.7979Z" fill="#FFAE75"/>
<path d="M35.3383 18.9029C35.3383 19.9695 35.186 20.8837 35.186 21.4932C34.8814 21.4932 34.4245 21.3408 33.8154 21.1885C31.074 20.1219 30.3125 20.2742 29.551 20.8837C28.7895 21.4932 29.0941 23.4741 30.1602 24.5407C28.0281 23.4741 27.5711 22.5598 27.2665 22.1027C26.9619 21.6456 27.2665 21.1885 27.2665 21.1885C27.2665 21.1885 28.9418 19.0552 28.6373 17.2268C28.6373 16.7696 28.4849 15.8554 28.4849 14.7888C31.6832 14.0269 33.663 14.484 33.663 14.484L35.3383 18.9029Z" fill="url(#paint1_linear_222_59403)"/>
<path d="M29.3989 12.3507C29.3989 12.3507 29.5512 16.9219 30.008 17.9885C30.4649 18.9028 33.6632 21.4931 36.8614 21.036C37.7752 20.5789 38.9936 18.2933 39.1458 16.16C39.2981 14.0268 39.1458 13.265 39.1458 13.1126C39.1458 12.9602 39.755 11.7412 39.755 11.1317C39.6027 10.5222 39.4504 7.32238 38.3844 5.79865C37.3183 4.42729 34.12 3.51304 31.3787 4.57966C28.7897 5.79865 29.3989 12.3507 29.3989 12.3507Z" fill="#FFAE75"/>
<path d="M30.4647 14.0268C30.4647 14.0268 30.7693 12.1983 29.5509 11.8936C28.3325 11.5889 28.4849 13.5697 28.4849 13.5697L28.7894 16.7695V17.2267C28.7894 17.2267 27.571 14.9411 27.2665 14.1792C26.8096 13.4173 26.6573 13.1126 26.505 12.3507C26.3527 11.5889 25.7435 8.08426 25.8958 6.86527C26.0481 5.64628 28.1802 3.8178 29.7032 3.66543C30.4647 2.75119 31.8353 2.44644 33.3583 2.29407C34.729 2.29407 35.7951 2.29407 37.6226 3.51306C39.2979 4.88442 39.2979 5.95104 39.4502 6.25579C39.6025 6.56053 39.7548 8.08426 39.7548 8.08426L39.6025 7.3224C39.6025 7.3224 38.9933 7.77951 36.8612 7.62714C34.729 7.47477 33.6629 6.56053 33.6629 6.56053C33.6629 6.56053 34.1198 8.08427 33.9675 8.54139C33.8152 9.15088 33.5106 10.827 33.5106 10.827C33.5106 10.827 32.4446 11.4365 32.14 11.7412C31.8354 12.046 31.6831 12.6555 31.6831 12.6555L31.5308 14.1792L30.4647 14.0268Z" fill="#302E2F"/>
<path d="M39.7551 7.93196L39.4505 8.2367C39.4505 8.2367 33.8155 9.91281 33.3586 10.0652C33.054 10.0652 32.5971 10.3699 31.988 10.5223C31.2265 10.827 30.1604 11.1318 28.7897 11.1318C26.2007 11.2842 26.2007 11.2842 26.2007 11.2842C26.2007 11.2842 25.4392 8.8462 25.7438 6.56059C26.0484 4.73211 28.0282 3.20838 30.465 2.59888C31.0742 2.44651 31.6834 2.29413 32.2926 2.29413C35.3385 1.98938 37.4707 3.36075 38.5367 4.73212C39.6028 6.40822 39.7551 7.93196 39.7551 7.93196Z" fill="#3C6597"/>
<path d="M31.988 10.6746C31.2265 10.9794 30.1604 11.2842 28.7897 11.2842C26.2007 11.4365 26.2007 11.4365 26.2007 11.4365C26.2007 11.4365 25.4392 8.99854 25.7438 6.71293C26.0484 4.88445 28.0283 3.36072 30.465 2.75122C29.8558 3.05597 28.0283 3.51309 28.4852 7.17006C29.0944 10.0652 31.2265 10.5223 31.988 10.6746Z" fill="#4D75A6"/>
<path d="M31.9878 10.6747C31.9878 10.6747 36.4044 14.484 37.9273 12.9603C38.9934 11.8937 41.7348 10.8271 42.8008 11.1318C44.0192 11.4366 44.0192 11.4366 44.0192 11.4366C44.0192 11.4366 44.3238 11.4366 44.1715 11.1318C44.1715 10.8271 39.6026 7.93199 39.6026 7.93199C39.6026 7.93199 38.0796 6.1035 31.9878 10.6747Z" fill="#5A8AC3"/>
<path d="M29.8556 12.9602C29.8556 12.9602 29.2465 11.2841 28.0282 11.8936C26.8098 12.5031 28.6373 15.8553 29.3988 15.8553C30.1602 15.8553 30.0079 15.0934 30.0079 15.0934C30.0079 15.0934 29.0942 13.722 29.8556 12.9602Z" fill="url(#paint2_linear_222_59403)"/>
<path d="M21.0226 49.6822C21.0226 49.6822 19.9565 47.7014 19.6519 43.7397C19.195 39.778 18.129 27.7405 19.8042 26.0644C21.4795 24.3883 23.9163 26.0644 24.6778 27.7405C25.4392 29.4166 25.8961 38.1019 25.7438 40.997C25.5915 43.8921 25.7438 46.0253 24.9823 47.3966C24.3731 49.0728 23.3071 49.987 21.0226 49.6822Z" fill="#FFAE75"/>
<path d="M21.1748 25.3025C20.2611 25.3025 18.5858 26.2167 18.5858 29.4166C18.5858 33.0735 19.0427 36.5781 19.0427 37.7971C19.9565 38.2542 21.6317 38.4066 23.1547 38.2542C24.6776 38.1019 26.0483 37.7971 26.0483 37.6447C26.0483 37.4924 25.7437 31.2451 25.1345 28.6547C24.5253 26.0644 22.2409 25.3025 21.1748 25.3025Z" fill="#1D9F3A"/>
<path d="M69.3009 104.232L72.0422 105.756V110.479L69.3009 108.803V104.232Z" fill="#A25900"/>
<path d="M63.0566 105.908C63.0566 103.927 61.686 101.642 60.0107 100.575C59.2492 100.118 58.4878 100.118 57.8786 100.27L56.5079 101.032L56.9648 101.946C56.9648 102.099 56.9648 102.099 56.9648 102.251C56.9648 104.232 58.3354 106.518 60.0107 107.584C60.163 107.736 60.3153 107.736 60.4676 107.889L60.9245 108.651L62.1429 107.889C62.7521 107.432 63.0566 106.822 63.0566 105.908Z" fill="#3B4549"/>
<path d="M55.7465 103.013C55.7465 104.994 57.1172 107.279 58.7924 108.346C60.4677 109.26 61.8383 108.498 61.8383 106.67C61.8383 104.689 60.4677 102.403 58.7924 101.337C57.1172 100.423 55.7465 101.184 55.7465 103.013Z" fill="#5C6467"/>
<path d="M61.229 106.975C61.229 104.994 59.8583 102.708 58.183 101.642C57.4216 101.184 56.6601 101.184 56.0509 101.337L54.6802 102.099L55.1371 103.013C55.1371 103.165 55.1371 103.165 55.1371 103.318C55.1371 105.299 56.5078 107.584 58.183 108.651C58.3353 108.803 58.4876 108.803 58.6399 108.956L59.0968 109.717L60.3152 108.956C60.9244 108.498 61.229 107.889 61.229 106.975Z" fill="#3B4549"/>
<path d="M53.9186 104.08C53.9186 106.06 55.2893 108.346 56.9646 109.413C58.6399 110.327 60.0105 109.565 60.0105 107.737C60.0105 105.756 58.6399 103.47 56.9646 102.403C55.2893 101.337 53.9186 102.251 53.9186 104.08Z" fill="#5C6467"/>
<path d="M60.7718 110.632V113.679L59.2488 114.593L54.8323 103.47L57.8782 104.079L60.7718 110.632Z" fill="#CE7400"/>
<path d="M59.2492 111.546V114.593L53.1573 110.174V104.384L56.2033 104.994L59.2492 111.546Z" fill="#EDA600"/>
<path d="M53.005 106.975L60.6198 102.556V101.642L49.6544 104.232V104.994L53.005 106.975Z" fill="#EDA600"/>
<path d="M53.005 106.06L60.6198 101.642L57.2693 99.8131L49.6544 104.232L53.005 106.06Z" fill="#FECB4C"/>
<path d="M54.3757 110.936C54.3757 108.956 53.005 106.67 51.3297 105.603C50.5682 105.146 49.8067 105.146 49.1975 105.299L47.8268 106.06L48.2837 106.975C48.2837 107.127 48.2837 107.127 48.2837 107.279C48.2837 109.26 49.6544 111.546 51.3297 112.612C51.482 112.765 51.6343 112.765 51.7866 112.917L52.2435 113.679L53.4619 112.917C54.0711 112.46 54.3757 111.851 54.3757 110.936Z" fill="#3B4549"/>
<path d="M47.0654 108.041C47.0654 110.022 48.4361 112.308 50.1113 113.374C51.7866 114.289 53.1572 113.527 53.1572 111.698C53.1572 109.87 51.7866 107.432 50.1113 106.365C48.4361 105.298 47.0654 106.213 47.0654 108.041Z" fill="#5C6467"/>
<path d="M52.5479 112.003C52.5479 110.022 51.1773 107.737 49.502 106.67C48.7405 106.213 47.9791 106.213 47.3699 106.365L45.9992 107.127L46.4561 108.041C46.4561 108.194 46.4561 108.194 46.4561 108.346C46.4561 110.327 47.8267 112.612 49.502 113.679C49.6543 113.831 49.8066 113.831 49.9589 113.984L50.4158 114.746L51.6342 113.984C52.2433 113.527 52.5479 112.917 52.5479 112.003Z" fill="#3B4549"/>
<path d="M45.2378 109.108C45.2378 111.089 46.6085 113.374 48.2837 114.441C49.959 115.355 51.3297 114.593 51.3297 112.765C51.3297 110.936 49.959 108.498 48.2837 107.432C46.6085 106.365 45.2378 107.28 45.2378 109.108Z" fill="#5C6467"/>
<path d="M60.6198 101.642V102.556L53.0049 106.975V106.06L60.6198 101.642Z" fill="#CE7400"/>
<path d="M51.3906 70.6671L49.8906 70.9305L55.789 104.547L57.289 104.283L51.3906 70.6671Z" fill="#FFC536"/>
<path d="M47.3698 73.6048C46.456 73.6048 45.5422 73.3001 44.933 72.5382L41.4302 68.8813C40.9733 68.4241 40.6687 67.8147 40.5164 67.0528L39.9072 63.3958C39.4503 61.1102 41.1256 58.0628 43.5624 56.539L51.4818 51.9678C53.0048 51.0536 54.5278 50.9012 55.5938 51.5107C56.5076 51.9678 57.1168 52.8821 57.4214 53.9487L58.0306 57.6056C58.1829 58.2151 58.1829 58.977 57.8783 59.7389L56.203 66.2909C55.7461 68.2718 54.3755 70.1003 52.5479 71.0145L49.9589 72.5382C49.0451 73.3001 48.1313 73.6048 47.3698 73.6048ZM54.2232 53.3392C53.7663 53.3392 53.1571 53.4916 52.5479 53.7963L44.6285 58.3675C42.8009 59.4341 41.5825 61.5674 41.8871 63.0911L42.4963 66.748C42.4963 67.0528 42.6486 67.3575 42.8009 67.5099L46.3037 71.1669C46.7606 71.7764 47.979 71.624 49.0451 71.0145L51.6341 69.4908C53.0048 68.7289 54.0709 67.3575 54.3755 65.9862L56.0508 59.4341C56.2031 58.977 56.203 58.5199 56.203 58.2151L55.5938 54.5582C55.4415 54.1011 55.2892 53.7963 54.9847 53.6439C54.6801 53.4916 54.3755 53.3392 54.2232 53.3392Z" fill="#5C6467"/>
<path d="M57.726 93.1087C58.4875 91.8897 59.4013 90.9754 60.4674 90.3659C61.5335 89.7565 62.4472 89.6041 63.2087 90.0612L65.9501 91.7373L65.6455 91.8897L77.22 99.8131V104.08L43.5624 123.583V119.317L57.726 93.1087Z" fill="#FECB4C"/>
<path d="M46.3037 120.688V125.259L54.2232 120.688L54.3755 117.336L72.1942 106.975V110.327L80.1137 105.756V101.184L65.9501 91.4325C65.1886 91.1277 64.2748 91.1277 63.2087 91.7372C62.1426 92.3467 61.2289 93.261 60.4674 94.4799L46.3037 120.688Z" fill="#ED9600"/>
<path d="M113.162 132.269L119.407 128.612L73.7175 107.736V109.565L113.162 132.269Z" fill="#EDA600"/>
<path d="M113.162 132.269L119.406 128.612L127.783 135.011L124.28 137.145L113.162 132.269Z" fill="#EDA600"/>
<path d="M85.7487 148.115L92.1452 144.458L46.3037 123.431V125.259L85.7487 148.115Z" fill="#EDA600"/>
<path d="M85.7488 148.115L92.1452 144.458L100.522 150.858L96.8664 152.991L85.7488 148.115Z" fill="#EDA600"/>
<path d="M113.162 130.44L119.407 126.783L80.114 104.079L73.7175 107.736L113.162 130.44Z" fill="#FECB4C"/>
<path d="M113.162 130.44L119.406 126.783L127.783 133.183L124.28 135.316L113.162 130.44Z" fill="#FECB4C"/>
<path d="M85.7487 146.287L92.1452 142.63L52.7002 119.774L46.3037 123.431L85.7487 146.287Z" fill="#FECB4C"/>
<path d="M85.7488 146.287L92.1452 142.63L100.522 149.03L96.8664 151.163L85.7488 146.287Z" fill="#FECB4C"/>
<path d="M43.5624 119.012L46.3037 120.688V125.26L43.5624 123.736V119.012Z" fill="#EDA600"/>
<path d="M127.783 133.183V135.011L124.28 137.144V135.316L127.783 133.183Z" fill="#ED9600"/>
<path d="M100.521 149.03V150.858L96.8663 152.991V151.163L100.521 149.03Z" fill="#ED9600"/>
<path d="M48.9287 55.2769L46.9814 55.6337L49.8614 71.3705L51.8087 71.0137L48.9287 55.2769Z" fill="#5C6467"/>
<path d="M55.5937 52.425C55.5937 52.425 55.1368 54.5582 55.1368 54.863C55.1368 55.1677 54.6799 55.3201 54.6799 55.3201C54.6799 55.3201 54.5276 55.6249 54.0707 55.7772C53.7661 55.9296 53.3093 55.9296 53.3093 55.9296C53.3093 55.9296 49.9587 55.4725 49.6541 54.7106C49.3496 54.1011 48.7404 52.1203 48.7404 51.8155C48.7404 51.8155 48.2835 50.5965 46.1513 48.7681C44.0192 46.9396 42.0393 43.7397 41.7347 42.6731V41.4541V40.6923C41.7347 40.6923 42.3439 40.5399 42.9531 40.2352C44.0192 39.7781 45.5421 39.3209 45.6944 39.3209C45.8467 39.4733 46.6082 40.0828 47.8266 42.6731C49.1972 45.2635 51.4817 50.1394 51.7863 50.2918C51.9386 50.4442 54.9845 51.0537 55.4414 51.5108C55.5937 51.6631 55.5937 52.425 55.5937 52.425Z" fill="#FFAE75"/>
<path d="M48.7404 51.2059C48.7404 51.3583 48.7404 51.5106 48.7404 51.8154C48.7404 51.8154 48.2835 50.5964 46.1513 48.7679C44.0192 46.9394 42.0393 43.7396 41.7347 42.6729V41.454V40.6921C41.7347 40.6921 42.3439 40.5397 42.9531 40.235C42.8008 40.3874 42.3439 41.1492 42.4962 41.9111C42.4962 42.0635 42.6485 42.5206 42.6485 42.8253C43.1054 44.0443 45.8468 47.8536 46.9128 49.0726C48.1312 50.2916 49.045 51.0535 49.045 51.0535C49.045 51.0535 48.8927 50.9011 48.7404 51.2059Z" fill="url(#paint3_linear_222_59403)"/>
<path d="M50.7204 54.1009C50.7204 54.1009 51.025 53.6438 51.3296 53.1867C51.4819 52.5772 51.7865 52.2725 51.7865 52.2725L52.0911 53.4915V54.5581L52.3957 55.1675L52.8526 55.4723H51.7865C51.7865 55.6247 50.5681 54.8628 50.7204 54.1009Z" fill="#FFAE75"/>
<path d="M49.0448 51.3582C49.0448 51.3582 49.8063 51.2059 50.2631 52.2725C50.72 53.3391 51.0246 54.2533 51.3292 54.5581C51.6338 54.8628 52.243 55.1676 52.243 55.1676C52.243 55.1676 53.3091 55.6247 53.4613 55.7771C53.6136 55.9295 53.6137 56.2342 53.6137 56.539C53.6137 56.8437 53.1567 56.8437 53.1567 56.6913L52.5476 56.539C52.5476 56.539 51.9384 56.5389 51.7861 56.3866C51.6338 56.2342 49.9586 55.0152 49.654 54.7105C49.5017 54.2534 48.8925 53.0344 48.8925 52.2725C48.5879 51.5106 48.7402 51.5106 49.0448 51.3582Z" fill="#FFAE75"/>
<path d="M22.8499 45.7205C22.8499 45.7205 24.6774 45.2634 25.7435 46.1776C26.9619 47.0918 35.7951 54.4058 38.2319 55.32C38.3842 55.4724 39.7548 56.0819 40.5163 56.0819C41.2778 56.2343 43.7145 56.0819 44.0191 56.2343C44.3237 56.3866 45.0852 58.2151 45.2375 58.6722C45.3898 58.977 45.2375 59.8912 45.2375 60.0436C45.2375 60.196 44.3237 60.196 44.3237 60.196C44.3237 60.196 44.1714 60.5007 44.0191 60.8055C43.8668 61.1102 42.9531 60.9578 42.9531 60.9578C42.9531 60.9578 42.8008 61.1102 42.3439 61.1102C42.0393 61.1102 41.7347 60.9578 41.7347 60.9578C41.7347 60.9578 41.4301 61.415 40.6686 61.1102C39.9071 60.8055 39.9071 60.3483 39.9071 60.3483L39.7548 59.4341C39.7548 59.4341 37.9273 59.4341 37.0135 58.977C36.0997 58.5198 35.7951 57.758 35.0336 57.3009C34.4244 56.8438 21.6315 52.7297 20.7177 49.5298C19.9562 46.6347 22.8499 45.7205 22.8499 45.7205Z" fill="#FFAE75"/>
<path d="M78.2859 140.497L109.507 122.364V104.079L78.2859 122.06V140.497Z" fill="#C99A6B"/>
<path d="M78.2859 140.497L52.5477 125.717V107.279L78.2859 122.06V140.497Z" fill="#AE835B"/>
<path d="M78.286 122.06L52.5478 107.279L83.921 89.147L109.507 104.08L78.286 122.06Z" fill="#87623F"/>
<path d="M67.1682 127.393L63.0562 124.955V113.374L67.1682 115.812V127.393Z" fill="#9C754E"/>
<path d="M67.1682 115.812L98.5414 97.6798L94.4294 95.2418L63.0562 113.374L67.1682 115.812Z" fill="#54493E"/>
<path d="M52.5477 107.279L78.2859 122.06L64.4269 114.746L52.5477 107.279Z" fill="#87623F"/>
<path d="M65.3408 114.593L96.714 96.6133L96.4094 96.4609L65.0363 114.441L65.3408 114.593Z" fill="#D1A986"/>
<path d="M76.6108 129.373L71.1281 126.326V120.079L76.6108 123.126V129.373ZM71.4327 126.021L76.1539 128.764V123.431L71.4327 120.688V126.021Z" fill="#87623F"/>
<path d="M74.4786 127.393L73.2603 126.783V123.583L74.4786 124.345V127.393Z" fill="#87623F"/>
<path d="M75.5449 125.564L72.042 123.583L73.8696 122.364L75.5449 125.564Z" fill="#87623F"/>
<path d="M78.2859 121.298L109.507 103.318V84.8805L78.2859 103.013V121.298Z" fill="#C99A6B"/>
<path d="M78.2859 121.298L52.5477 106.518V88.0804L78.2859 103.013V121.298Z" fill="#AE835B"/>
<path d="M78.286 103.013L52.5478 88.0803L83.921 70.1002L109.507 84.8804L78.286 103.013Z" fill="#E8B687"/>
<path d="M67.1682 108.194L63.0562 105.908V94.1752L67.1682 96.6132V108.194Z" fill="#9C754E"/>
<path d="M67.1682 96.6133L98.5414 78.4808L94.4294 76.1952L63.0562 94.1753L67.1682 96.6133Z" fill="#54493E"/>
<path d="M52.5477 88.0804L78.2859 103.013L64.4269 95.5467L52.5477 88.0804Z" fill="#87623F"/>
<path d="M65.3408 95.5468L96.714 77.4143L96.4094 77.262L65.0363 95.3944L65.3408 95.5468Z" fill="#D1A986"/>
<path d="M76.6108 110.175L71.1281 106.975V100.727L76.6108 103.927V110.175ZM71.4327 106.975L76.1539 109.717V104.384L71.4327 101.642V106.975Z" fill="#87623F"/>
<path d="M74.4786 108.194L73.2603 107.584V104.384L74.4786 105.146V108.194Z" fill="#87623F"/>
<path d="M75.5449 106.365L72.042 104.384L73.8696 103.318L75.5449 106.365Z" fill="#87623F"/>
<path fill-rule="evenodd" clip-rule="evenodd" d="M139.968 64.3681C140.645 65.0443 141.321 65.7206 141.321 66.3969C141.997 66.3969 141.997 66.3969 141.997 67.0732L142.674 67.7494L143.35 68.4257C143.35 69.7783 141.997 70.4545 141.321 69.7783C140.645 69.7783 139.968 69.102 139.292 68.4257C138.616 68.4257 138.616 68.4257 137.94 67.7494C137.263 67.7494 136.587 67.0732 135.911 66.3969C135.911 66.3969 135.235 66.3969 134.558 65.7206V65.0443H135.235H134.558C134.558 65.0443 133.882 64.3681 134.558 64.3681V63.6918C133.882 63.6918 133.882 63.6918 133.882 63.6918C133.882 63.0155 134.558 63.0155 134.558 63.0155H135.235C135.235 63.0155 135.235 63.0155 135.911 63.0155H136.587C137.263 63.0155 137.263 63.0155 137.94 63.6918C137.94 63.6918 137.94 63.6918 138.616 63.6918C139.292 63.6918 139.968 63.6918 139.968 64.3681Z" fill="#FFAE75"/>
<path opacity="0.1" d="M161.959 154.234C162.721 158.848 146.539 163.225 132.969 165.443C119.399 167.661 117.438 163.163 116.675 158.55C115.913 153.936 126.295 148.398 139.865 146.18C153.435 143.962 161.196 149.621 161.959 154.234Z" fill="black"/>
<path fill-rule="evenodd" clip-rule="evenodd" d="M138.616 63.0155H139.292L139.968 63.6918L140.645 64.3681C140.645 65.0443 141.997 66.3969 140.645 66.3969C139.968 66.3969 139.292 65.7206 139.292 65.7206C139.292 65.0443 139.292 64.3681 139.292 64.3681C138.616 63.6918 138.616 63.6918 137.94 63.6918C137.94 63.0155 137.94 62.3392 138.616 62.3392V63.0155H139.292H138.616Z" fill="#FFAE75"/>
<path fill-rule="evenodd" clip-rule="evenodd" d="M114.946 79.9225C115.623 80.5988 115.623 80.5988 116.299 80.5988C116.299 81.2751 116.299 81.2751 116.975 81.2751C117.651 82.6276 119.68 83.9802 120.357 84.6565L122.385 81.9514C122.385 81.2751 122.385 80.5988 121.709 79.2463C121.709 78.57 121.709 78.57 121.709 77.8937C121.033 77.8937 121.033 77.2174 120.357 77.2174C119.68 76.5412 119.68 75.8649 119.004 75.8649C119.004 75.8649 118.328 75.1886 118.328 75.8649C117.651 76.5412 119.004 77.2174 119.004 77.2174C119.004 77.2174 119.004 77.8937 119.68 77.8937L119.004 78.57C119.004 77.8937 119.004 77.8937 118.328 77.8937L117.651 77.2174C117.651 77.2174 116.975 77.2174 116.975 76.5412C116.975 75.8649 116.975 75.1886 116.299 74.5123H115.623C115.623 75.1886 115.623 75.1886 115.623 75.1886C115.623 75.8649 115.623 75.8649 115.623 75.8649V76.5412V75.8649C115.623 75.1886 114.946 75.1886 114.946 74.5123C114.27 74.5123 114.27 75.1886 114.27 75.1886V75.8649H113.594C113.594 76.5412 113.594 76.5412 113.594 77.2174C113.594 77.2174 114.27 77.2174 114.27 77.8937L113.594 77.2174V77.8937V78.57C114.27 78.57 114.27 79.2463 114.27 79.2463C114.946 79.9225 114.946 79.9225 114.946 79.9225Z" fill="#FFAE75"/>
<path fill-rule="evenodd" clip-rule="evenodd" d="M154.847 148.903C154.847 149.579 155.523 154.313 155.523 154.313C154.847 155.665 154.17 156.342 152.818 155.665C151.465 155.665 150.113 154.313 149.436 154.313C148.76 153.637 145.379 152.284 143.35 151.608C141.997 150.932 140.645 148.903 141.321 148.226C141.321 146.874 143.35 146.198 144.026 146.198C145.379 146.874 146.731 146.874 148.084 146.874C148.76 147.55 148.76 147.55 150.113 147.55C150.789 147.55 152.818 146.874 152.818 148.226L154.847 148.903Z" fill="#1E160D"/>
<path fill-rule="evenodd" clip-rule="evenodd" d="M156.199 104.269C155.523 107.65 156.199 111.031 155.523 114.413C155.523 118.47 156.199 122.528 154.847 126.586C154.17 127.262 152.141 129.291 150.113 129.291C148.76 129.291 146.055 128.614 146.055 127.938C146.731 127.262 145.379 125.233 145.379 124.557C146.055 123.204 145.379 113.736 145.379 111.031C145.379 108.326 145.379 106.974 145.379 104.269C145.379 104.269 144.702 98.8583 150.789 99.5346C156.199 100.211 156.199 103.592 156.199 104.269Z" fill="#515159"/>
<path fill-rule="evenodd" clip-rule="evenodd" d="M155.523 127.262C154.846 125.233 154.846 123.204 154.846 121.175C154.846 119.146 146.055 121.175 146.055 125.233C146.055 125.233 148.084 141.464 146.731 146.874V147.55C146.731 147.55 146.731 149.579 149.436 150.931C150.789 152.284 154.17 152.96 155.523 150.931C156.875 147.55 156.199 134.025 155.523 127.262Z" fill="#515159"/>
<path fill-rule="evenodd" clip-rule="evenodd" d="M144.026 154.989C144.702 155.665 146.055 158.37 145.379 160.399C144.702 161.076 144.026 161.752 142.674 161.752C141.997 161.752 139.969 159.723 139.292 159.723C137.94 159.723 134.558 158.37 133.882 157.694C133.206 157.018 132.53 157.018 131.853 156.342C131.177 154.989 130.501 153.636 131.177 152.96C131.177 152.284 131.853 151.608 132.53 151.608C134.558 152.284 135.911 152.284 137.263 152.284C138.616 152.96 138.616 152.96 139.969 152.96C140.645 152.96 142.674 152.96 142.674 153.636L144.026 154.989Z" fill="#1E160D"/>
<path fill-rule="evenodd" clip-rule="evenodd" d="M148.084 108.326C147.407 111.707 148.084 115.089 147.407 118.47C147.407 122.528 147.407 127.262 146.055 130.643C145.379 131.996 143.35 134.025 141.321 133.348C139.968 133.348 137.94 132.672 137.263 131.996C137.263 131.319 137.263 129.291 137.263 128.614C137.263 127.262 137.263 117.794 137.263 115.089C137.263 112.384 137.263 106.297 137.94 102.916C137.94 102.916 137.94 100.211 144.026 100.887C148.76 101.563 148.76 108.326 148.084 108.326Z" fill="#626265"/>
<path fill-rule="evenodd" clip-rule="evenodd" d="M146.731 134.024C146.731 131.996 146.731 129.967 146.731 127.938C146.731 125.909 137.263 125.909 137.263 129.967C137.263 129.967 138.616 147.55 137.263 152.284V153.636C137.263 153.636 136.587 154.313 137.263 155.665C137.94 156.342 138.616 157.018 139.969 157.694C141.321 157.694 144.702 157.694 145.379 156.342C146.731 150.931 147.408 141.464 146.731 134.024Z" fill="#626265"/>
<path fill-rule="evenodd" clip-rule="evenodd" d="M160.257 67.7493C160.933 74.5121 161.609 81.2749 159.581 81.9511C158.904 82.6274 156.199 83.98 155.523 81.9511C154.847 76.5409 152.818 73.1595 151.465 69.1019C150.789 62.3391 150.789 61.6628 152.818 60.9866C155.523 60.9866 158.904 61.6628 160.257 67.7493Z" fill="#626265"/>
<path fill-rule="evenodd" clip-rule="evenodd" d="M143.35 64.368C142.674 64.368 139.968 65.7205 137.94 69.1019C135.911 71.1307 135.911 75.8646 136.587 76.5409C136.587 78.5698 137.263 97.5055 137.263 99.5343C137.263 102.916 136.587 106.297 137.263 106.973C138.616 111.031 145.379 109.002 146.731 109.002C151.465 108.326 157.552 104.945 156.875 102.916C156.199 98.858 156.199 81.2749 156.875 79.246C156.875 76.5409 159.58 66.3968 156.199 62.3391C155.523 61.6628 154.17 60.9866 153.494 60.9866C149.436 61.6628 144.026 64.368 143.35 64.368Z" fill="#7A8389"/>
<path fill-rule="evenodd" clip-rule="evenodd" d="M141.997 78.5698C140.645 81.9512 139.292 90.0665 137.263 94.1242C135.235 97.5055 132.529 97.5055 131.853 96.8293C131.177 96.8293 129.148 95.4767 130.501 93.4479C131.853 88.714 133.206 79.2461 134.558 75.1884C136.587 68.4257 138.616 67.7494 140.645 68.4257C143.35 69.7782 144.026 71.807 141.997 78.5698Z" fill="#93999E"/>
<path fill-rule="evenodd" clip-rule="evenodd" d="M140.645 47.4611C140.645 48.8136 139.969 50.1662 139.969 50.8425C139.292 51.5187 139.292 52.195 139.969 52.195C139.969 53.5476 139.969 54.2238 139.969 55.5764C139.292 56.2527 139.969 57.6052 139.969 58.9578C140.645 59.634 140.645 60.9866 141.321 60.9866C143.35 62.3391 145.379 61.6629 147.408 60.9866C149.436 60.3103 149.436 56.9289 150.113 54.9001C151.465 52.195 150.113 48.1373 146.731 46.7848C145.379 46.1085 143.35 46.1085 141.321 46.1085C141.321 46.7848 140.645 47.4611 140.645 47.4611Z" fill="#FFAE75"/>
<path fill-rule="evenodd" clip-rule="evenodd" d="M143.35 59.6341C143.35 59.6341 144.703 63.6917 144.026 65.0443C144.026 65.7205 145.379 66.3968 146.731 66.3968C149.436 67.0731 152.818 65.7205 151.465 63.0154C151.465 62.3392 150.113 60.9866 150.789 56.2527C150.789 54.9001 143.35 59.6341 143.35 59.6341Z" fill="#FFAE75"/>
<path fill-rule="evenodd" clip-rule="evenodd" d="M150.789 44.7561C148.084 42.7273 144.026 42.7273 141.997 45.4324C140.645 46.7849 140.645 48.1375 140.645 48.1375C139.969 48.8138 141.997 48.8138 141.997 51.5189C144.702 63.6918 150.113 59.6342 150.789 58.9579C152.142 55.5765 152.818 56.2528 153.494 54.224C154.847 50.8426 155.523 47.4612 150.789 44.7561Z" fill="#60573A"/>
<path fill-rule="evenodd" clip-rule="evenodd" d="M144.026 56.2527C144.026 56.929 143.35 58.2815 143.35 58.2815C142.674 57.6053 141.997 56.929 142.674 55.5764C142.674 54.9002 143.35 53.5476 144.026 53.5476C144.702 53.5476 144.702 54.9002 144.026 56.2527Z" fill="#FFAE75"/>
<path fill-rule="evenodd" clip-rule="evenodd" d="M130.501 96.1532C127.119 93.4481 118.328 85.3327 119.68 83.9802C121.033 82.6276 122.385 81.2751 123.062 81.9514C125.09 82.6276 131.853 89.3904 135.235 92.0955C135.911 92.0955 137.94 92.7718 136.587 94.8006C135.235 96.1532 132.529 98.182 130.501 96.1532Z" fill="#93999E"/>
<path fill-rule="evenodd" clip-rule="evenodd" d="M152.818 62.3391C152.818 63.0154 153.494 63.6917 152.818 63.6917C152.818 65.0442 152.141 65.7205 151.465 66.3968C151.465 67.073 148.084 67.7493 146.055 67.7493C144.026 67.7493 142.674 66.3968 141.997 66.3968C141.997 66.3968 141.321 65.7205 140.645 65.7205C141.321 65.7205 142.674 63.6917 144.026 63.6917C144.026 63.6917 144.026 63.6917 144.702 63.6917C144.702 64.3679 145.379 64.3679 146.055 65.0442C146.731 65.0442 148.084 65.0442 149.436 64.3679C151.465 62.3391 150.789 61.6628 150.789 60.9866C151.465 60.3103 152.141 61.6628 152.818 62.3391Z" fill="#93999E"/>
<defs>
<linearGradient id="paint0_linear_222_59403" x1="44.673" y1="37.4474" x2="57.7739" y2="54.0236" gradientUnits="userSpaceOnUse">
<stop offset="0.1224" stop-color="#FCA4B5"/>
<stop offset="0.9896" stop-color="#FFADB7"/>
</linearGradient>
<linearGradient id="paint1_linear_222_59403" x1="31.1967" y1="19.1892" x2="35.3438" y2="24.4363" gradientUnits="userSpaceOnUse">
<stop offset="0.1224" stop-color="#DE9663"/>
<stop offset="0.9896" stop-color="#FFADB7"/>
</linearGradient>
<linearGradient id="paint2_linear_222_59403" x1="29.9629" y1="13.738" x2="27.7087" y2="14.1187" gradientUnits="userSpaceOnUse">
<stop offset="0.1224" stop-color="#FFAE75"/>
<stop offset="1" stop-color="#D39061"/>
</linearGradient>
<linearGradient id="paint3_linear_222_59403" x1="45.6929" y1="46.2806" x2="51.5456" y2="53.6858" gradientUnits="userSpaceOnUse">
<stop offset="0.1224" stop-color="#FCA4B5"/>
<stop offset="0.9896" stop-color="#FFADB7"/>
</linearGradient>
</defs>
</svg>
