<svg width="170" height="170" viewBox="0 0 170 170" fill="none" xmlns="http://www.w3.org/2000/svg">
<path d="M40.6913 61.3316C38.6579 62.2564 36.8093 63.3661 34.7759 64.2908L33.297 61.7015C35.3304 60.5918 37.3639 59.4821 39.3973 58.5574L40.6913 61.3316Z" fill="#3CB56E"/>
<path d="M50.3038 57.2627C48.2704 58.0025 46.0521 58.7423 44.2035 59.6671L43.0944 56.8928C45.1278 55.9681 47.3461 55.2283 49.3795 54.3035L50.3038 57.2627Z" fill="#3CB56E"/>
<path d="M60.2861 54.3036C58.0678 54.8584 56.0344 55.4133 54.0009 56.1531L53.0767 53.3788C55.295 52.639 57.3284 52.0841 59.5467 51.5293L60.2861 54.3036Z" fill="#3CB56E"/>
<path d="M70.6383 51.8991L63.9834 53.1938L63.4288 50.4195L70.0837 48.9399L70.6383 51.8991Z" fill="#3CB56E"/>
<path d="M80.9903 50.6045C78.772 50.7894 76.5537 50.9744 74.3354 51.3443L73.9657 48.3851C76.184 48.0152 78.4023 47.8302 80.6206 47.4603L80.9903 50.6045Z" fill="#3CB56E"/>
<path d="M91.5271 49.8647C89.3088 49.8647 87.0905 50.0497 84.8722 50.2346L84.6874 47.2754C86.9057 47.0905 89.124 46.9055 91.5271 46.9055V49.8647Z" fill="#3CB56E"/>
<path d="M101.879 50.0497C99.6608 50.0497 97.4425 49.8647 95.2242 49.8647V46.9055C97.4425 46.9055 99.8457 47.0905 102.064 47.0905L101.879 50.0497Z" fill="#3CB56E"/>
<path d="M112.231 51.3443C110.013 50.9744 107.98 50.6045 105.761 50.4195L106.131 47.4603C108.349 47.6453 110.568 48.0152 112.971 48.3851L112.231 51.3443Z" fill="#3CB56E"/>
<path d="M122.398 53.9336L119.256 53.0088L116.113 52.269L116.668 49.3098L119.995 50.0496L123.323 51.1593L122.398 53.9336Z" fill="#3CB56E"/>
<path d="M132.011 57.8176C131.087 57.2627 130.162 56.8928 129.053 56.338L126.095 55.0433L127.205 52.269L130.347 53.5637C131.456 54.1185 132.381 54.4884 133.49 55.0433L132.011 57.8176Z" fill="#3CB56E"/>
<path d="M140.329 63.736C138.851 62.2564 137.187 60.9617 135.338 59.667L137.002 57.2627C138.851 58.5573 140.699 60.037 142.548 61.7015L140.329 63.736Z" fill="#3CB56E"/>
<path d="M145.321 72.0588C144.766 70.0243 143.842 68.1748 142.548 66.5103L144.951 64.8457C146.43 66.6952 147.539 68.9146 148.094 71.319L145.321 72.0588Z" fill="#3CB56E"/>
<path d="M145.321 81.6762C145.875 79.6417 146.245 77.6073 146.06 75.5728L149.018 75.3879C149.203 77.7922 148.833 80.1966 148.094 82.601L145.321 81.6762Z" fill="#3CB56E"/>
<path d="M140.515 90.5538C141.809 88.8893 143.103 87.0397 144.027 85.1902L146.615 86.4849C145.506 88.5193 144.212 90.5538 142.918 92.4033L140.515 90.5538Z" fill="#3CB56E"/>
<path d="M133.12 97.5819C134.784 96.2872 136.448 94.8076 137.927 93.1431L139.96 95.1775C138.296 96.8421 136.633 98.3217 134.784 99.8013L133.12 97.5819Z" fill="#3CB56E"/>
<path d="M124.432 103.5C126.28 102.391 128.129 101.281 129.978 99.9863L131.641 102.391C129.793 103.685 127.759 104.98 125.911 106.09L124.432 103.5Z" fill="#3CB56E"/>
<path d="M144.405 121.822C144.49 106.092 122.544 93.2205 95.3871 93.0732C68.2301 92.9259 46.1459 105.558 46.0606 121.289C45.9754 137.019 67.9214 149.891 95.0784 150.038C122.235 150.185 144.32 137.553 144.405 121.822Z" fill="#DBDBDB"/>
<path d="M80.8052 134.017C109.494 134.017 132.75 110.749 132.75 82.0461C132.75 53.3432 109.494 30.075 80.8052 30.075C52.1168 30.075 28.8602 53.3432 28.8602 82.0461C28.8602 110.749 52.1168 134.017 80.8052 134.017Z" fill="url(#paint0_linear_514_10980)"/>
<path d="M80.8052 131.428C108.064 131.428 130.162 109.319 130.162 82.046C130.162 54.7733 108.064 32.6643 80.8052 32.6643C53.5461 32.6643 31.4482 54.7733 31.4482 82.046C31.4482 109.319 53.5461 131.428 80.8052 131.428Z" fill="url(#paint1_linear_514_10980)"/>
<path d="M66.7561 34.8837C70.823 33.774 75.0747 33.0342 79.3264 32.8492L79.5113 33.0342L78.0324 34.1439V35.2536L77.6627 36.1784L76.1839 37.1031L74.8899 38.2128L73.9656 40.2473L72.6716 42.0968L72.3018 44.6861L72.117 45.2409H71.3776L71.1927 45.056L71.0078 44.5011H70.4533L69.529 44.6861L68.7896 44.871L68.4198 43.9463L68.235 43.2065V42.6516V41.9118L67.8653 40.9871L67.6804 40.0623V38.9526L67.1258 38.0279C67.1258 38.0279 67.1258 38.9526 67.1258 36.7332C66.941 34.6988 65.4621 36.7332 66.7561 34.8837ZM128.868 84.4504L127.574 85.1902L125.726 84.4504L125.911 83.3407L126.095 81.8611L125.726 81.6761L125.356 82.231C125.356 82.231 124.617 83.5256 124.617 82.6009C124.617 81.4912 124.617 81.4912 124.617 81.4912L124.986 80.9363L124.432 79.8266L123.692 78.347V76.8674L124.062 76.6825L124.247 75.9427L124.801 76.6825L125.171 76.1276L126.095 79.0868L126.835 80.0116L127.389 80.7514L127.944 81.3062L128.683 82.046L129.238 81.3062L129.608 81.8611V81.6761C129.608 63.9209 120.365 48.57 106.316 39.6924L105.576 40.2473L105.207 41.172L104.652 41.5419L104.097 42.0968L103.358 41.357C103.358 41.357 104.097 40.9871 103.173 40.9871C102.249 41.172 102.249 41.172 102.249 41.172L100.585 42.2817L100.4 42.0968V40.9871H99.6608L98.7365 41.5419L98.3668 41.7269L98.5516 41.357L98.7365 41.172V40.8021H98.3668H98.1819L97.9971 40.6172L98.1819 40.4322L97.9971 40.0623V39.6924L98.1819 39.3225L98.5516 38.7677L98.7365 38.3978C98.7365 38.3978 98.5516 38.3978 98.7365 38.0279C98.7365 37.658 98.7365 37.658 98.7365 37.658L98.9213 37.473L99.1062 37.1031V36.7332L98.9213 36.5482H98.7365L98.5516 36.9182L98.1819 37.1031H97.9971L97.8122 37.2881L97.6273 37.473V37.658L97.4425 37.8429H96.8879C96.8879 37.8429 96.8879 38.0279 96.8879 38.2128C96.8879 38.5827 96.8879 38.5827 96.8879 38.5827L96.7031 38.9526V39.3225L96.8879 39.6924L96.7031 39.8774L96.5182 40.2473C96.5182 40.2473 96.7031 40.4322 96.8879 40.4322C97.0728 40.4322 97.0728 40.2473 97.0728 40.2473H97.2576L96.8879 40.8021H96.7031V40.9871H97.0728L96.8879 41.357C96.8879 41.357 96.8879 41.172 96.7031 41.357C96.5182 41.7269 96.5182 41.7269 96.5182 41.7269H96.3333V41.5419V41.357C96.3333 41.357 96.3333 41.172 96.1485 41.357C95.9636 41.5419 95.9636 41.5419 95.9636 41.5419H95.7788H95.5939V41.7269H95.2242H94.8545C94.8545 41.7269 95.0393 41.7269 94.8545 41.5419C94.6696 41.357 94.6696 41.357 94.6696 41.357H94.2999L94.115 41.5419V41.7269L93.7453 41.9118V42.0968V42.2817L93.5605 42.6516H93.1908L93.0059 43.0215L92.8211 43.2065H92.6362H92.4513L91.8968 43.5764L91.7119 43.7613H91.527H91.1573L90.9725 44.1312L91.1573 44.3162L90.9725 44.6861L90.7876 44.871L90.4179 45.2409H90.233H89.8633H89.6785L89.4936 45.4259V45.6108V45.7958H89.3088L89.1239 45.6108L88.939 45.4259H88.7542V45.2409L88.939 45.056V44.871H88.7542H88.5693L88.3845 44.6861V44.5011L88.1996 44.3162V44.5011V44.6861V44.871V45.056V45.2409H88.3845V45.4259V45.6108V45.7958V45.9807L88.1996 46.1657H88.0147L87.645 45.9807H87.4602V45.7958V45.6108L87.2753 45.4259H87.0905H86.9056H86.7207H86.351H86.1662H85.9813H85.7965V45.6108V45.7958C85.9813 45.7958 85.9813 45.7958 85.9813 45.7958L85.7965 45.9807V46.1657L85.4267 46.5356H85.6116H85.7965H85.9813H86.1662L86.351 46.7205V46.9055H86.5359C86.5359 46.9055 86.5359 46.9055 86.5359 47.0904C86.5359 47.2754 86.5359 47.2754 86.5359 47.2754H86.7207H86.9056V47.4603V47.6453L87.0905 47.8302H87.2753V48.0152L87.0905 48.2001V48.3851V48.57L87.2753 48.755L87.4602 48.9399V49.1249H87.645L87.8299 49.3098V49.4948L87.645 49.6797L87.4602 49.8647L87.645 50.0496V50.2346L87.4602 50.4195V50.7894L87.2753 50.9744L87.0905 51.3443V51.7142L86.9056 52.0841L86.7207 52.454L86.351 52.0841H86.1662C86.1662 52.0841 86.1662 52.0841 85.9813 52.0841C85.7965 52.0841 85.7965 52.0841 85.7965 52.0841H85.6116L85.4267 51.8991H85.2419L85.057 52.0841H84.8722L84.6873 51.8991H84.3176H84.1327H83.763H83.5782L83.3933 51.7142L83.2084 51.5292H83.0236H82.8387H82.6539L82.469 51.3443L82.2842 51.1593H82.0993H81.9144V50.9744C81.9144 50.9744 82.0993 50.9744 81.9144 50.7894C81.5447 50.6045 81.5447 50.6045 81.5447 50.6045H81.3599L81.175 50.7894L80.9902 50.9744V51.1593H80.8053L80.4356 51.3443L80.2507 51.5292V51.7142L80.4356 51.8991V52.0841H80.2507L80.0659 52.454L80.2507 52.8239V53.0088V53.3787V53.5637L80.0659 54.1185L79.881 54.6734L79.6961 54.8583L79.3264 55.4132L79.1416 55.7831L78.9567 56.3379L79.1416 56.8928H79.5113L79.6961 57.0777V57.2627L79.5113 57.4476L78.9567 57.6326V58.0025L78.7719 58.1874V58.3724L78.587 58.7423V58.9272L78.7719 58.7423L79.1416 58.5573H79.3264L79.5113 58.7423H79.881L80.0659 58.5573H80.2507V58.7423L80.6204 58.9272V59.1122V59.2971V59.4821V59.667L80.8053 59.852V60.0369L80.9902 60.2219H81.175L81.3599 60.0369H81.5447L81.7296 59.852L81.9144 59.667H82.0993H82.2842H82.6539H83.2084L83.5782 59.852H83.763H83.9479H84.1327L84.3176 59.667V59.4821L84.5025 59.1122L85.057 58.9272H85.2419H85.4267H85.6116V58.7423C85.6116 58.7423 85.6116 58.7423 85.6116 58.5573C85.6116 58.3724 85.6116 58.3724 85.6116 58.3724V58.1874L85.7965 58.0025L85.9813 57.8175H86.1662H86.351H86.5359V57.6326H86.7207V57.4476L86.5359 57.2627L86.351 57.6326V57.0777L86.5359 56.8928L86.9056 56.7078L87.645 55.968V55.5981V55.4132H87.8299H88.1996C88.1996 55.4132 88.1996 55.4132 88.3845 55.4132C88.5693 55.2282 88.5693 55.2282 88.5693 55.2282H88.939H89.1239L89.3088 55.0433L89.6785 54.8583L89.8633 54.6734V54.3035V53.9336V53.7486L90.0482 53.3787L90.233 53.1938L90.4179 53.0088H90.6028C90.6028 53.0088 90.6027 53.0088 90.7876 53.0088C90.9725 53.0088 90.9725 53.0088 90.9725 53.0088L91.1573 53.1938L91.527 53.3787H91.7119L91.8968 53.5637L92.2665 53.7486L92.4513 53.9336L92.8211 53.7486L93.0059 53.5637H93.1908L93.3756 53.7486C93.3756 53.7486 93.3756 53.9336 93.5605 53.9336H93.7453L93.9302 53.7486L94.115 53.5637L94.2999 53.3787V53.1938H94.4848L94.6696 53.0088H95.0393V53.1938L95.2242 53.3787C95.2242 53.3787 95.0393 53.5637 95.2242 53.5637C95.409 53.7486 95.409 53.7486 95.409 53.7486H95.5939L95.7788 53.9336H95.5939V54.3035L95.7788 54.4884V54.6734V54.8583H95.5939H95.409L95.2242 55.0433V55.2282H95.409H95.5939L95.7788 54.8583V55.0433L95.9636 55.2282V55.5981V55.7831C95.9636 55.7831 96.1485 55.7831 96.3333 55.7831C96.5182 55.7831 96.5182 55.7831 96.5182 55.7831L96.7031 55.968L96.8879 56.153H97.0728V56.5229L97.2576 56.7078H97.6273V56.8928H97.8122L97.9971 57.0777L98.1819 57.4476L98.3668 57.6326L98.5516 57.8175L98.3668 58.0025H98.5516H98.7365L98.9213 58.1874V58.5573L99.1062 58.7423V58.9272H99.2911H99.4759V59.2971V59.667L99.2911 59.852L99.4759 60.2219V60.4068H99.2911V60.7767H99.1062H98.9213L98.7365 60.9617H98.5516H98.3668L97.9971 61.1466C97.9971 61.1466 97.9971 61.1466 97.6273 61.1466C97.2576 60.9617 97.2576 60.9617 97.2576 60.9617C97.2576 60.9617 97.4425 60.7767 97.0728 60.7767C96.703 60.5918 96.7031 60.5918 96.7031 60.5918H96.5182C96.5182 60.5918 96.5182 60.4068 96.3333 60.5918C96.1485 60.7767 96.1485 60.7767 96.1485 60.7767V61.1466V61.5165L96.5182 61.7015L96.7031 62.0714L96.8879 62.2563L97.0728 62.4413L97.2576 62.6262L97.4425 62.9961L97.6273 63.1811H97.8122L97.9971 62.8112L98.1819 62.4413L97.9971 62.2563V61.8864L98.1819 61.5165L98.7365 61.3316L98.9213 61.5165V61.7015H99.1062H99.2911V61.5165V61.3316L99.4759 61.1466H99.6608H99.8456V60.9617C99.8456 60.9617 99.6608 60.9617 99.8456 60.5918C100.03 60.2219 100.03 60.2219 100.03 60.2219H100.215V60.4068L100.4 60.2219V60.0369L100.585 59.667V59.4821H100.4L100.215 59.2971V59.1122V58.9272L100.585 58.3724V58.1874H100.77V58.3724V58.5573H100.955H101.14V58.9272V59.2971L101.325 59.4821L101.509 59.2971V58.9272V58.5573L101.14 58.0025H100.585V57.8175L100.215 57.6326L99.8456 57.4476L99.6608 57.0777V56.8928H99.8456V56.7078V56.5229L99.6608 56.3379H99.2911H99.1062H98.9213L98.7365 56.153L98.1819 55.2282V54.8583L97.9971 54.4884V54.3035V53.9336L97.6273 53.7486L97.4425 53.3787L97.2576 53.1938V52.8239V52.6389H97.4425V52.269H97.2576V52.0841V51.8991H97.4425H97.6273L97.8122 51.7142H97.9971H98.1819V51.8991C98.1819 51.8991 97.8122 51.8991 98.1819 52.0841C98.3668 52.269 98.3668 52.269 98.3668 52.269V52.454L98.1819 52.6389L98.3668 52.8239H98.5516L98.7365 52.6389V52.8239V53.0088V53.1938H98.9213H99.1062V52.8239L99.2911 53.1938L99.4759 53.3787L99.2911 53.5637L99.4759 53.9336V54.1185V54.3035L99.8456 54.4884L100.03 54.6734V54.8583V55.0433V55.2282V55.4132H100.215C100.215 55.4132 100.4 55.2282 100.4 55.4132C100.4 55.5981 100.4 55.5981 100.4 55.5981H100.585L100.955 55.7831H101.14L101.509 55.968C101.509 55.968 101.694 55.968 101.694 56.153C101.694 56.3379 101.694 56.3379 101.694 56.3379L102.064 56.7078C102.064 56.7078 102.249 56.5229 102.249 56.8928C102.249 57.2627 102.249 57.2627 102.249 57.2627V57.4476L102.434 57.6326H102.618L102.434 58.0025C102.249 58.0025 102.249 58.0025 102.249 58.0025V58.1874V58.7423L102.064 58.9272V59.2971H102.249V59.4821H102.434V59.667V59.852H102.249V59.667L102.064 59.852C102.064 59.852 102.064 59.852 102.064 60.0369C102.064 60.2219 102.064 60.2219 102.064 60.2219L102.249 60.4068H102.618V60.5918L102.803 60.7767V60.9617C102.803 60.9617 102.618 60.7767 102.618 61.1466C102.803 61.5165 102.803 61.5165 102.803 61.5165V61.7015L103.173 61.8864V61.7015L103.543 61.8864L103.913 62.0714H104.097L104.282 62.2563H104.467H104.652V62.6262V62.8112L104.837 62.9961H105.022L105.207 63.366H105.391L105.207 62.9961L105.022 62.8112V62.6262L105.207 62.9961L105.576 63.1811L105.761 62.9961V62.6262H105.391V62.2563L105.207 62.0714L105.022 61.8864V61.7015L104.837 61.5165L104.652 60.7767L104.467 60.5918L104.282 60.2219V59.852V59.667H104.467C104.467 59.852 104.467 59.852 104.467 59.852L104.652 60.0369V60.2219H105.022L105.207 60.0369L105.391 59.852L105.576 59.667L106.131 59.4821V59.2971L106.316 59.1122H106.685L106.87 59.2971L107.055 59.4821L107.24 59.667H107.61V59.852C107.61 59.852 107.24 59.852 107.61 60.0369C107.979 60.2219 107.979 60.2219 107.979 60.2219H108.164V60.4068L107.979 60.5918L107.795 60.4068H107.61V60.5918V60.9617V61.1466V61.3316H107.425H107.24L107.055 61.5165L107.24 61.7015V61.8864L107.425 62.0714H107.61L107.795 61.8864L107.61 61.7015L107.795 61.5165H107.979H108.164L107.979 61.8864L107.795 62.0714L107.979 62.2563L107.795 62.4413H107.61L107.425 62.2563H107.24H107.055L106.87 62.0714L106.685 62.2563V62.4413C106.685 62.4413 106.501 62.6262 106.685 62.8112C106.87 62.8112 106.87 62.8112 106.87 62.8112H107.055V62.6262H107.24V62.8112V63.1811C107.24 63.1811 107.24 63.366 107.425 63.366C107.61 63.366 107.61 63.366 107.61 63.366H107.795L107.979 63.551L107.795 63.7359H107.61L107.425 63.551H107.24V63.7359V63.9209L107.425 64.1058H107.61V64.2908H107.795L107.61 64.4757C107.61 64.4757 107.61 64.4757 107.61 64.6607C107.425 64.8456 107.425 64.8456 107.425 64.8456H107.24V65.0306L107.055 65.2155H107.425L107.61 65.0306H107.795L107.979 64.8456H108.349C108.349 64.8456 108.719 64.8456 108.534 64.8456C108.349 65.0306 108.349 65.0306 108.349 65.0306H108.164L107.979 65.2155V65.4005H108.164V65.5854C108.164 65.5854 108.164 65.4005 107.979 65.5854C107.795 65.7704 107.795 65.7704 107.795 65.7704V65.9553V66.1403L107.979 66.3252L108.349 66.1403V65.9553L108.534 65.7704V65.4005L108.719 65.2155V65.4005L108.904 65.5854L109.089 65.4005V65.5854L108.904 65.7704V65.9553L109.089 66.1403H109.273L109.458 66.3252H109.643L109.828 66.1403L110.013 65.9553V65.5854L110.198 65.4005H110.383L110.567 65.5854L111.122 65.9553V66.1403L111.307 66.5102L111.861 66.8801L112.046 66.6951L112.231 66.8801L112.601 67.065L112.786 66.6951L112.971 66.5102L113.34 66.3252L113.525 66.6951L113.71 66.8801H113.895L114.08 66.6951L114.265 66.5102H114.449H114.634V66.6951H114.449V66.8801V67.065L114.265 67.4349V67.8048L114.449 68.3597L114.265 68.5447V68.7296L114.449 68.9145L114.265 69.0995L113.895 69.8393L113.71 70.2092L113.525 70.5791L112.971 72.2437L112.601 72.6136H112.231C112.231 72.6136 112.231 72.4286 111.677 72.6136C111.122 72.7985 111.122 72.7985 111.122 72.7985L110.752 72.0587L110.383 71.8738L110.013 71.6888H109.458L109.089 71.8738L108.719 72.0587L108.534 72.2437H108.164L107.979 71.8738H107.61L106.685 71.1339L105.391 70.764L104.837 69.8393L103.728 69.4694L103.173 68.3597L102.064 68.5447L101.14 68.7296V69.8393L100.955 70.949L100.215 71.1339L99.4759 70.5791L98.9213 69.8393H97.8122L97.2576 68.7296L97.4425 67.9898L96.5182 67.6199L95.5939 67.4349L94.115 66.6951L93.3756 65.4005L93.9302 64.2908L94.2999 63.9209L94.115 62.9961L94.8545 61.7015L94.2999 61.3316L93.9302 61.5165L93.7453 60.9617C93.7453 60.9617 94.1151 60.5918 93.0059 60.9617C91.8968 61.3316 91.8968 61.3316 91.8968 61.3316L90.9725 60.9617L89.6785 60.5918L86.9056 60.7767L85.057 61.3316L84.1327 61.8864L83.0236 61.5165L82.0993 60.9617L81.7296 61.3316L81.3599 60.7767H80.8053L80.2507 61.7015L79.6961 62.4413L78.4022 63.1811L76.9233 64.1058L76.3687 65.7704L76.5536 66.8801L75.6293 68.1747L74.3353 68.7296L72.8564 69.2844L72.117 70.3942L71.0078 70.949L70.4533 72.6136L69.1593 73.5383L68.4198 75.2029L67.3107 76.3126L67.4956 77.2373L68.235 77.4223L67.8653 78.347L67.6804 79.0868L67.8653 80.3815L67.3107 81.6761L66.941 82.6009L66.7561 83.1557L65.8318 84.2654L66.2016 85.5601L65.8318 86.4848L65.647 87.4096L66.0167 88.3343L66.5713 88.1494L66.7561 89.0741L67.3107 90.3688L67.6804 90.5537L67.4956 92.5882L68.6047 94.4377L69.7138 95.9173L70.6381 97.7668L71.7473 98.6915L72.8564 98.5066L73.411 97.9517L75.2596 98.1367L75.999 99.0614L76.9233 99.2464L77.293 98.6915L77.6627 98.8765L78.7719 98.1367H79.6961L81.9144 97.9517L83.0236 98.3216L83.2084 99.8012V100.911L83.9479 101.281L84.3176 101.096L85.6116 101.281L86.351 102.021L86.5359 103.315L86.1662 105.165L85.6116 105.72V106.644L84.8722 107.384L84.5025 109.049L85.9813 113.303L86.5359 114.597L85.7965 115.337L86.7207 117.556L86.351 118.666L86.9056 121.071L86.351 122.92L85.4267 123.29L84.3176 124.215L84.1327 126.064L83.5782 127.914L83.3933 129.393L83.763 130.688L83.9479 131.428C93.3756 130.873 101.879 127.729 109.273 122.55V121.071L109.828 120.701L109.458 119.591L110.567 117.372L111.492 115.707L112.416 115.152L113.155 114.597L113.71 113.303L115.374 112.193L117.037 110.898L118.701 109.604L120.18 107.754L121.104 106.644L122.213 104.61L123.138 103.13L123.507 102.206L124.062 101.836L124.432 101.281L124.062 101.096L124.432 100.171L124.617 99.9862L123.877 99.8012L123.692 99.6163L123.507 100.171L123.138 100.356L122.583 100.541H122.213L121.474 100.356H120.55L119.995 101.096L119.256 100.541L118.701 100.911L117.777 100.726V99.9862L117.592 99.6163H117.037L117.222 99.2464L117.592 99.0614L117.962 98.8765L117.777 98.5066L117.962 97.7668L117.407 97.5818L117.037 97.2119V96.6571L116.668 96.1022L116.483 95.5474L115.928 95.1775L115.374 94.8076L115.004 94.0678V92.7731L114.819 92.4032L115.004 91.2935L114.449 90.9236H114.08L113.155 86.4848V82.046L111.677 79.0868L111.122 75.7577L111.861 75.3878L113.34 77.6072L113.895 78.7169C113.895 78.7169 114.634 80.1965 114.819 82.6009C115.189 85.0052 115.189 85.0052 115.189 85.0052L116.298 88.5193L118.331 92.2183L117.592 95.1775L118.331 98.1367L121.104 97.7668L124.247 96.6571L125.726 95.9173V94.8076L127.944 94.9925L128.868 94.2527L129.238 93.8828C129.977 90.7387 130.347 87.4096 130.347 83.8955L128.868 84.4504ZM56.9587 38.9526L57.883 39.5075L58.6224 39.6924C58.6224 39.6924 58.9921 40.2473 59.3618 39.3225C59.9164 38.3978 59.9164 38.3978 59.9164 38.3978L60.471 37.8429L61.3953 37.473L60.8407 39.1376L61.3953 39.8774L61.9498 40.4322L60.8407 41.5419L61.2104 42.2817L61.9498 42.4667L62.1347 43.0215L63.2438 43.3914L63.4287 43.7613L63.2438 44.3162V44.6861L63.9833 45.056L63.4287 46.1657L63.6135 46.9055C63.6135 46.9055 62.6892 46.5356 62.1347 47.2754C61.5801 47.8302 61.5801 47.8302 61.5801 47.8302H61.0255L59.7315 48.3851L59.3618 48.755H57.883L57.6981 48.2001L56.0344 48.0152L55.1101 48.57L54.5555 49.1249L52.7069 49.4948L52.3372 50.2346L51.7827 50.7894L50.6735 51.7142H51.7827L52.8918 50.7894L53.6312 50.0496L54.3707 49.6797L55.1101 49.4948H55.6647H56.5889L57.1435 49.6797L56.4041 50.6045L55.295 51.3443V52.0841L56.0344 52.8239L56.9587 53.1938L57.1435 53.0088L57.883 52.454L58.2527 51.5292H59.177C59.177 51.5292 58.2527 52.0841 58.6224 52.454C58.9921 52.8239 58.9921 52.8239 58.9921 52.8239L58.8072 53.5637L57.883 53.7486L57.6981 54.3035L56.4041 54.4884L55.6647 54.3035L55.295 54.8583L54.3707 55.4132H53.6312V54.8583L54.7404 54.3035L54.9252 53.7486C54.9252 53.7486 54.9252 53.0088 54.3707 53.5637C53.8161 54.1185 54.001 53.9336 54.001 53.9336L53.2615 54.3035L52.1524 54.6734L51.5978 54.4884C51.5978 54.4884 51.4129 54.1185 50.8584 55.2282C50.3038 56.3379 50.3038 56.153 50.3038 56.153L50.4887 56.5229L49.9341 56.7078L50.3038 57.2627L50.8584 57.0777V57.6326L50.4887 57.8175L49.9341 58.0025H49.5644H48.8249H48.6401L47.5309 58.1874L47.3461 58.7423L47.9006 59.1122L47.3461 59.4821H46.6066V60.4068L45.6824 60.7767L45.4975 61.3316L45.1278 60.7767L44.7581 60.5918L44.9429 61.1466L45.3126 61.5165L45.1278 61.7015L44.7581 62.2563L44.3883 62.8112C44.3883 62.8112 44.0186 62.9961 44.3883 62.4413C44.5732 61.8864 44.7581 62.2563 44.5732 61.8864C44.3883 61.5165 44.3883 61.5165 44.3883 61.5165C44.3883 61.5165 44.5732 59.852 44.2035 61.5165C44.0186 62.4413 43.8338 62.4413 43.6489 62.2563C43.6489 62.2563 43.6489 62.4413 43.8338 62.4413C43.8338 62.6262 44.0186 62.6262 44.0186 62.8112C44.2035 62.8112 44.2035 62.8112 44.3883 63.366C44.3883 64.1058 44.3883 64.1058 44.3883 64.1058L43.8338 64.4757V65.0306L43.4641 65.4005L43.0944 65.0306V65.4005L42.7246 65.7704H42.3549L41.9852 66.1403L41.8003 66.5102H41.2458L41.0609 66.8801L40.6912 67.6199L39.5821 68.3597C39.5821 68.3597 39.2123 67.9898 39.0275 68.9145C38.8426 70.0242 38.8426 69.8393 38.8426 69.8393L38.4729 70.3942L38.6578 71.1339L38.8426 72.0587L38.4729 72.4286L38.8426 72.7985L38.6578 73.3534V74.2781L39.0275 74.648L38.6578 75.3878L38.2881 75.9427V76.4975H37.7335L37.5486 76.1276L37.3638 75.3878L36.994 75.0179V74.4631V74.0932C36.994 74.0932 36.6243 73.7233 36.8092 73.3534C36.8092 72.9835 36.8092 72.9835 36.8092 72.9835L37.1789 72.0587V71.3189H36.8092L36.2546 70.764L36.0698 70.5791L35.7 70.764V70.949V71.3189H35.3303L35.1455 70.764L34.9606 70.5791L34.406 70.3942V70.5791L34.0363 70.3942L33.6666 70.5791L33.2969 70.3942L33.4818 69.8393C33.4818 69.8393 33.112 69.6543 33.112 69.8393C33.112 70.0242 33.112 70.0243 33.112 70.0243H32.9272C36.2546 56.7078 45.1278 45.4259 56.9587 38.9526ZM61.0255 127.359C48.0855 121.625 37.9183 110.528 33.6666 96.842L33.8515 96.6571L34.2212 96.4721V96.2872L34.0363 96.1022V95.9173H34.2212L34.406 95.7323V95.3624V94.9925L34.5909 94.8076L34.9606 94.6226L35.1455 94.4377C35.1455 94.4377 35.1455 94.4377 35.1455 94.2527C35.1455 94.0678 35.1455 94.0678 35.1455 94.0678L35.7 93.5129H35.5152L35.3303 93.6979C35.3303 93.6979 35.3303 93.6979 35.1455 93.5129C35.1455 93.5129 35.1455 93.5129 35.1455 93.328C34.9606 93.143 35.1455 93.5129 35.1455 93.143C35.1455 92.7731 35.1455 92.9581 35.1455 92.9581H35.3303H35.5152V92.5882L35.7 92.4032C35.7 92.4032 35.7 92.4032 35.7 92.0333C35.7 91.6634 35.5152 91.6634 35.5152 91.6634V91.2935V91.1086H35.7V90.9236L35.5152 90.7387V90.5537L35.7 90.3688V89.8139L35.5152 89.444L34.9606 88.8892V88.3343V87.9644L34.7758 87.7795L34.5909 87.5945H34.406H34.2212L34.0363 88.3343H33.8515H33.6666L33.4818 88.5193L33.6666 88.7042L33.8515 88.8892V89.0741V89.2591L33.6666 89.444H33.4818H32.9272C32.9272 89.444 32.9272 89.444 32.7423 89.2591C32.5575 89.0741 32.7423 88.8892 32.7423 88.8892H32.3726V89.0741H32.1878L32.0029 88.8892V88.7042V88.5193H32.1878L32.3726 88.3343V88.1494H32.1878L32.0029 87.9644L31.818 87.7795C31.818 87.2246 31.6332 86.8547 31.6332 86.2999C31.6332 86.2999 31.6332 86.2999 31.818 86.4848C32.0029 86.6698 31.818 86.6698 31.818 86.6698V86.8547C31.818 86.8547 31.818 86.8547 32.0029 86.8547C32.1878 86.8547 32.1878 86.8547 32.1878 86.8547H32.3726V87.0397H32.5575L32.9272 86.8547L33.112 86.6698H33.4818L33.6666 86.4848C33.6666 86.4848 33.6666 86.4848 33.6666 86.2999C33.6666 86.1149 33.6666 86.1149 33.6666 86.1149H33.8515H34.2212V86.2999H34.5909L35.1455 86.4848L35.3303 86.8547L35.7 87.4096L35.8849 87.7795C35.8849 87.7795 35.8849 87.7795 35.8849 88.1494C35.8849 88.5193 36.0698 88.3343 36.0698 88.3343L36.2546 88.1494V87.9644L36.0698 87.7795V87.5945V87.4096L36.4395 87.2246L36.6243 86.8547L36.994 86.6698H37.1789V86.4848V86.1149L37.3638 85.1902L37.7335 85.0052L37.9183 84.8203H38.1032L38.2881 85.0052H38.4729V84.6353L38.8426 84.4504L39.0275 84.6353H39.3972L39.5821 84.2654L39.7669 84.0805H40.1366V83.8955L40.3215 83.3407L40.8761 83.5256L41.0609 83.8955L40.8761 84.2654L40.6912 84.6353H40.3215V85.0052L40.5063 85.1902L40.6912 84.8203L40.8761 85.1902L41.0609 84.8203H41.4306H41.6155V84.6353L41.4306 84.0805V83.8955C41.4306 83.8955 41.4306 83.8955 41.6155 83.7106C41.8003 83.5256 41.8003 83.7106 41.8003 83.7106C41.8003 83.7106 41.8004 83.7106 41.9852 84.0805C42.1701 84.4504 41.8003 84.2654 41.8003 84.2654V84.4504L42.3549 84.6353L43.0944 85.0052L43.2792 85.3751L43.4641 85.745H44.3883L44.7581 85.5601L45.6824 86.2999H46.0521L46.4218 85.745L45.8672 85.1902L46.2369 84.8203H46.7915H47.3461L48.0855 85.1902L47.3461 85.745L47.7158 86.1149H48.2704H48.8249L49.3795 86.6698L49.0098 87.0397L48.6401 87.5945L49.7492 88.1494L50.4887 89.9989L51.2281 90.3688L52.7069 91.1086L53.6312 92.5882V94.6226L52.8918 97.2119V98.6915C52.8918 98.6915 52.8918 97.2119 53.8161 100.541L54.3707 101.466L55.8495 102.206L55.1101 103.315L54.7404 104.61L55.1101 105.905H56.4041L56.5889 107.199L56.7738 108.864L57.1435 109.419L58.0678 109.789V112.008L58.8072 115.522L57.6981 117.556L58.2527 117.741L59.3618 118.851L58.9921 120.146L57.5132 121.071L58.0678 121.81L59.5467 122.735L60.6558 123.845C60.6558 123.845 60.6558 123.845 60.8407 126.434C61.0255 126.804 61.0255 127.174 61.0255 127.359Z" fill="url(#paint2_linear_514_10980)"/>
<path d="M113.71 47.4603C95.4091 29.3352 67.1259 28.4104 50.3039 45.4258C33.6667 62.4413 34.7758 90.7387 53.0767 108.864C71.3776 126.989 99.6609 127.914 116.483 110.898C133.305 93.8828 132.011 65.4005 113.71 47.4603ZM69.3442 92.7731C53.0767 80.1965 48.2704 58.7423 58.8073 45.0559C69.3442 31.3696 91.1574 30.6298 107.61 43.2064C123.877 55.7831 128.684 77.2373 118.147 90.9236C107.425 104.61 85.6117 105.535 69.3442 92.7731Z" fill="#131517" fill-opacity="0.1"/>
<path d="M117.962 90.9236C107.425 104.61 85.6115 105.35 69.1591 92.7731C52.8917 80.1965 48.0854 58.7423 58.6223 45.056C69.1591 31.3696 90.9723 30.6298 107.425 43.2064C123.877 55.968 128.683 77.2373 117.962 90.9236Z" fill="#C9FF56" fill-opacity="0.1"/>
<path d="M112.046 56.8928C109.828 59.852 103.728 58.9272 98.5515 55.0433C93.3755 50.9743 90.9723 45.4258 93.3755 42.4666C95.5938 39.5074 101.694 40.4322 106.87 44.3161C112.046 48.2001 114.264 53.9336 112.046 56.8928Z" fill="white" fill-opacity="0.3"/>
<path d="M80.8052 32.8492C53.6312 32.8492 31.4482 54.8583 31.4482 82.231C31.4482 109.419 53.4463 131.613 80.8052 131.613C108.164 131.613 130.162 109.604 130.162 82.231C129.977 54.8583 107.979 32.8492 80.8052 32.8492ZM53.0766 108.679C34.7757 90.5537 33.4817 62.2563 50.3037 45.2409C67.1258 28.2255 95.409 29.1502 113.71 47.2754C132.011 65.4005 133.305 93.6979 116.483 110.713C99.8456 127.729 71.3775 126.804 53.0766 108.679Z" fill="#424832" fill-opacity="0.3"/>
<path d="M137.557 120.701L159 108.309V83.7106L137.557 96.1023V120.701Z" fill="#C99A6B"/>
<path d="M159 83.7106L137.557 96.1023L149.018 89.814L159 83.7106Z" fill="#87623F"/>
<path d="M137.556 120.701L115.928 108.309V83.7106L137.556 96.1023V120.701Z" fill="#AE835B"/>
<path d="M137.557 96.1023L115.928 83.7106L137.557 71.319L159 83.7106L137.557 96.1023Z" fill="#E8B687"/>
<path d="M147.169 100.171L150.681 98.3217V88.5193L147.169 90.5537V100.171Z" fill="#D9AF84"/>
<path d="M147.169 90.5538L125.725 77.9772L129.053 76.1277L150.681 88.5194L147.169 90.5538Z" fill="#EBCBAB"/>
<path d="M115.928 83.7106L137.556 96.1023L125.91 89.814L115.928 83.7106Z" fill="#87623F"/>
<path d="M128.129 100.356L124.616 98.5066V88.7043L128.129 90.7387V100.356Z" fill="#9C754E"/>
<path d="M128.129 90.7387L149.572 78.3471L146.245 76.3126L124.616 88.7043L128.129 90.7387Z" fill="white" fill-opacity="0.4"/>
<path d="M126.465 89.814L148.093 77.4223L147.724 77.2374L126.28 89.629L126.465 89.814Z" fill="#D1A986"/>
<path d="M148.833 89.629L127.204 77.2373L127.389 77.0524L149.018 89.444L148.833 89.629Z" fill="#D1A986"/>
<path d="M128.129 90.7387V91.1086L126.095 89.9989L124.616 89.0742V88.7043L128.129 90.7387Z" fill="#AE835B"/>
<path d="M149.018 89.8139L147.169 90.9237V90.5538L150.681 88.5193V88.8892L149.018 89.8139Z" fill="#AE835B"/>
<path d="M118.701 106.46C120.734 105.535 122.583 104.425 124.616 103.5L126.095 106.09C124.062 107.199 122.028 108.309 119.995 109.234L118.701 106.46Z" fill="#3CB56E"/>
<path d="M108.904 110.528C110.937 109.789 113.155 109.049 115.004 108.124L116.113 110.898C114.08 111.823 111.861 112.563 109.828 113.488L108.904 110.528Z" fill="#3CB56E"/>
<path d="M98.9214 113.673C101.14 113.118 103.173 112.563 105.207 111.823L106.131 114.597C103.913 115.337 101.879 115.892 99.6608 116.447L98.9214 113.673Z" fill="#3CB56E"/>
<path d="M88.7542 115.892L95.2242 114.597L95.7787 117.372L89.1239 118.851L88.7542 115.892Z" fill="#3CB56E"/>
<path d="M78.2174 117.372C80.4357 117.187 82.654 117.002 84.8723 116.632L85.242 119.591C83.0237 119.961 80.8054 120.146 78.5871 120.516L78.2174 117.372Z" fill="#3CB56E"/>
<path d="M67.8652 117.926C70.0835 117.926 72.3018 117.742 74.5201 117.557L74.7049 120.516C72.4867 120.701 70.2684 120.886 67.8652 120.886V117.926Z" fill="#3CB56E"/>
<path d="M57.3283 117.741C59.5466 117.741 61.7649 117.926 63.9832 117.926V120.886C61.7649 120.886 59.3617 120.701 57.1434 120.701L57.3283 117.741Z" fill="#3CB56E"/>
<path d="M46.9761 116.447C49.1944 116.817 51.2278 117.187 53.4461 117.372L53.0764 120.331C50.8581 120.146 48.6398 119.776 46.2367 119.406L46.9761 116.447Z" fill="#3CB56E"/>
<path d="M36.8092 113.857L39.9517 114.967L43.0943 115.707L42.5398 118.481L39.2123 117.741L35.8849 116.817L36.8092 113.857Z" fill="#3CB56E"/>
<path d="M27.1966 109.974C28.1209 110.528 29.0452 110.898 30.1543 111.453L33.112 112.748L32.1878 115.522L29.0452 114.227C27.936 113.673 27.0117 113.303 25.9026 112.748L27.1966 109.974Z" fill="#3CB56E"/>
<path d="M19.0627 104.055C20.5415 105.535 22.2052 106.829 24.0538 108.124L22.3901 110.528C20.5415 109.234 18.6929 107.754 16.8444 106.09L19.0627 104.055Z" fill="#3CB56E"/>
<path d="M13.8869 95.7324C14.4415 97.7669 15.3657 99.6164 16.6597 101.281L14.2566 102.945C12.7777 101.096 11.6686 98.8766 11.114 96.4722L13.8869 95.7324Z" fill="#3CB56E"/>
<path d="M14.0717 86.115C13.5171 88.1494 13.1474 90.1839 13.3322 92.2183L10.3745 92.4033C10.1896 89.999 10.5594 87.5946 11.2988 85.1902L14.0717 86.115Z" fill="#3CB56E"/>
<path d="M18.6932 77.4223C17.3992 79.0869 16.1052 80.9364 15.1809 82.7859L12.5929 81.4912C13.702 79.4568 14.996 77.4223 16.29 75.5728L18.6932 77.4223Z" fill="#3CB56E"/>
<path d="M26.0873 70.2093C24.4236 71.5039 22.7599 72.9835 21.281 74.6481L19.0627 72.4287C20.7265 70.7641 22.3902 69.2845 24.2387 67.8049L26.0873 70.2093Z" fill="#3CB56E"/>
<path d="M34.7756 64.2908C32.927 65.4005 31.0785 66.5102 29.2299 67.8049L27.5662 65.4005C29.4147 64.1059 31.4482 62.8112 33.2967 61.7015L34.7756 64.2908Z" fill="#3CB56E"/>
<path d="M101.139 127.359L98.7362 132.168L96.1482 130.503L98.3665 126.064L101.139 127.359Z" fill="#3CB56E"/>
<path d="M104.282 119.591L102.433 124.585L99.6605 123.475L101.509 118.851L104.282 119.591Z" fill="#3CB56E"/>
<path d="M106.131 111.453C105.946 113.303 105.391 114.967 105.021 116.632L102.249 115.892C102.618 114.227 103.173 112.748 103.358 111.083L106.131 111.453Z" fill="#3CB56E"/>
<path d="M106.87 103.13C106.685 104.98 106.87 106.644 106.5 108.494L103.542 108.124C103.727 106.46 103.727 104.795 103.727 103.13H106.87Z" fill="#3CB56E"/>
<path d="M106.5 94.8077C106.87 96.4722 106.87 98.3217 106.87 99.9863L103.912 100.171C103.727 98.5067 103.727 96.8421 103.542 95.1776L106.5 94.8077Z" fill="#3CB56E"/>
<path d="M104.837 86.6699C105.206 88.3344 105.761 89.999 105.946 91.8485L102.988 92.4033C102.803 90.7388 102.249 89.0742 101.879 87.4097L104.837 86.6699Z" fill="#3CB56E"/>
<path d="M102.249 78.717C102.988 80.3815 103.358 82.0461 103.913 83.7106L101.14 84.6354C100.585 82.9708 100.215 81.4912 99.476 79.8267L102.249 78.717Z" fill="#3CB56E"/>
<path d="M98.9211 71.134C99.6606 72.7986 100.4 74.2782 101.139 75.9427L98.3666 77.0524C97.6271 75.5728 96.8877 73.9083 96.3331 72.4287L98.9211 71.134Z" fill="#3CB56E"/>
<path d="M95.0393 63.921C95.9636 65.4006 96.8879 66.8802 97.6273 68.5447L95.0393 69.8394C94.2998 68.3598 93.3755 66.8802 92.6361 65.4006L95.0393 63.921Z" fill="#3CB56E"/>
<path d="M90.6027 56.8928C91.5269 58.3724 92.6361 59.852 93.3755 61.3316L90.7875 62.9962C89.8632 61.5166 88.9389 60.2219 88.0146 58.7423L90.6027 56.8928Z" fill="#3CB56E"/>
<path d="M85.4268 50.4196C86.7208 51.7142 87.8299 53.1938 88.9391 54.4885L86.5359 56.153C85.4268 54.8584 84.5025 53.5637 83.3933 52.454L85.4268 50.4196Z" fill="#3CB56E"/>
<path d="M78.7718 44.8711C80.2507 45.7958 81.7295 46.9055 83.0235 48.0152L81.175 50.2347C79.881 49.125 78.587 48.2002 77.293 47.2755L78.7718 44.8711Z" fill="#3CB56E"/>
<path d="M71.3773 41.1721C72.1168 41.542 73.0411 41.9119 73.7805 42.2818L76.1836 43.5765L74.7048 45.9808L72.4865 44.8711C71.7471 44.5012 71.0076 44.3163 70.2682 43.9464L71.3773 41.1721Z" fill="#3CB56E"/>
<path d="M63.2435 38.9526C65.0921 39.1376 66.7558 39.6924 68.4196 40.2473L67.4953 43.0215C65.8315 42.4667 64.3527 42.0968 62.689 41.9118L63.2435 38.9526Z" fill="#3CB56E"/>
<path d="M54.7401 38.3978C55.6644 38.3978 56.5887 38.2129 57.513 38.3978C58.4373 38.3978 59.3616 38.3978 60.2859 38.5828L59.9161 41.357C59.1767 41.1721 58.2524 41.1721 57.513 41.1721C56.7736 41.1721 55.8493 41.1721 55.1098 41.1721L54.7401 38.3978Z" fill="#3CB56E"/>
<path d="M46.2367 40.6172C47.161 40.2473 47.9004 39.8774 48.8247 39.5075C49.749 39.3226 50.6733 38.9527 51.4127 38.7677L51.9673 41.7269C51.2278 41.9119 50.4884 42.0968 49.5641 42.2818C48.8247 42.4667 48.0853 42.8366 47.3458 43.2065L46.2367 40.6172Z" fill="#3CB56E"/>
<path d="M85.1249 19.303C83.646 18.7481 81.9823 18.9331 79.9489 20.0428C75.5123 22.6321 72 28.7354 72 33.7291C72 40.5723 79.9489 48.3402 79.9489 48.3402L82.1672 49.2649L87.3432 20.2277L85.1249 19.303Z" fill="#2A5039"/>
<path d="M82.1671 20.9676C86.6037 18.3783 90.116 20.4127 90.116 25.4064C90.116 32.2495 82.1671 49.265 82.1671 49.265C82.1671 49.265 74.2183 41.4971 74.2183 34.6539C74.2183 29.6602 77.7306 23.5569 82.1671 20.9676Z" fill="#128742"/>
<path d="M77.5458 32.8044C77.5458 35.7636 79.5792 36.8733 82.1672 35.3937C84.7552 33.9141 86.7887 30.4001 86.7887 27.4409C86.7887 24.4817 84.7552 23.372 82.1672 24.8516C79.5792 26.3312 77.5458 29.8452 77.5458 32.8044Z" fill="#363636"/>
<path d="M136.263 101.836L131.826 99.2464V94.0677L136.263 96.6571V101.836ZM132.011 99.0614L135.893 101.281V96.842L132.011 94.6226V99.0614Z" fill="#87623F"/>
<path d="M134.414 100.171L133.49 99.6163V97.027L134.414 97.5818V100.171Z" fill="#87623F"/>
<path d="M135.338 98.6915L132.566 97.0269L134.044 96.1022L135.338 98.6915Z" fill="#87623F"/>
<defs>
<linearGradient id="paint0_linear_514_10980" x1="42.0138" y1="114.952" x2="118.015" y2="50.5515" gradientUnits="userSpaceOnUse">
<stop offset="0.0859375" stop-color="#379ED6"/>
<stop offset="0.3014" stop-color="#58AEE5"/>
<stop offset="0.5438" stop-color="#76BDF3"/>
<stop offset="0.7514" stop-color="#88C6FC"/>
<stop offset="0.8984" stop-color="#8FC9FF"/>
</linearGradient>
<linearGradient id="paint1_linear_514_10980" x1="43.9796" y1="113.284" x2="116.122" y2="52.1538" gradientUnits="userSpaceOnUse">
<stop offset="0.0859375" stop-color="#28739C"/>
<stop offset="0.0957673" stop-color="#29749E"/>
<stop offset="0.3449" stop-color="#4B86C8"/>
<stop offset="0.5704" stop-color="#6493E6"/>
<stop offset="0.7625" stop-color="#739BF8"/>
<stop offset="0.8984" stop-color="#789EFF"/>
</linearGradient>
<linearGradient id="paint2_linear_514_10980" x1="48.6687" y1="116.352" x2="116.123" y2="42.541" gradientUnits="userSpaceOnUse">
<stop offset="0.0859375" stop-color="#76A120"/>
<stop offset="0.1975" stop-color="#83AF2D"/>
<stop offset="0.4822" stop-color="#A1CD49"/>
<stop offset="0.7259" stop-color="#B3DF5A"/>
<stop offset="0.8984" stop-color="#B9E660"/>
</linearGradient>
</defs>
</svg>
