<svg width="170" height="170" viewBox="0 0 170 170" fill="none" xmlns="http://www.w3.org/2000/svg">
<path fill-rule="evenodd" clip-rule="evenodd" d="M116.644 136.32C116.22 136.32 115.797 136.32 115.585 136.109C114.95 135.685 114.315 135.262 114.103 135.262C97.1654 124.888 74.5116 112.184 60.7499 104.774C59.2679 104.139 59.2679 102.234 60.7499 101.387L71.1241 95.8822C72.1827 95.247 73.2413 95.0353 74.2999 95.0353C75.1468 95.0353 76.2053 95.247 77.0522 95.4587C92.2959 102.657 112.409 114.725 127.018 125.099C128.5 126.158 129.982 127.005 129.982 128.487C129.982 129.122 129.558 129.545 128.923 129.969L117.49 136.109C117.279 136.32 116.855 136.32 116.644 136.32Z" fill="black" fill-opacity="0.301961"/>
<path fill-rule="evenodd" clip-rule="evenodd" d="M117.067 134.838C116.644 134.838 116.432 134.627 116.008 134.415C115.373 133.991 114.738 133.78 114.526 133.568C97.5889 123.194 75.1468 110.491 61.5968 103.081C60.1148 102.445 60.1148 100.54 61.5968 99.6931L71.3359 94.1884C72.3945 93.5533 73.4531 93.3416 74.5116 93.3416C75.3585 93.3416 76.2054 93.5533 77.0523 93.9767C92.0843 100.963 112.197 113.031 126.806 123.406C128.288 124.464 129.77 125.311 129.77 126.793C129.77 127.428 129.347 127.852 128.923 128.275L117.914 134.415C117.702 134.627 117.279 134.838 117.067 134.838Z" fill="#D9D9D9"/>
<path fill-rule="evenodd" clip-rule="evenodd" d="M113.68 131.239C97.8007 121.5 75.782 109.009 63.5023 102.445C63.2906 101.387 63.2906 100.328 64.3492 99.9048C78.5343 106.045 100.553 118.959 114.95 129.122C115.585 130.18 116.22 131.451 116.008 132.721C115.373 132.298 114.103 131.663 113.68 131.239Z" fill="#E5E5E5"/>
<path fill-rule="evenodd" clip-rule="evenodd" d="M127.441 126.158L116.008 132.721C116.22 131.451 115.585 130.18 114.95 129.122L124.054 124.041L126.594 122.559C127.229 123.617 127.865 124.887 127.441 126.158Z" fill="#BFBFBF"/>
<path fill-rule="evenodd" clip-rule="evenodd" d="M126.594 122.559L124.054 124.041L114.95 129.122C100.553 118.959 78.5343 106.045 64.3492 99.9049L75.9937 93.1299C90.1788 99.4814 112.197 112.185 126.594 122.559Z" fill="#D1D1D1"/>
<path fill-rule="evenodd" clip-rule="evenodd" d="M101.4 115.784L85.0975 106.468V93.5532L101.4 102.869V115.784Z" fill="#B2B2B2"/>
<path fill-rule="evenodd" clip-rule="evenodd" d="M104.576 114.09L101.4 115.784V102.869L104.576 101.175V114.09Z" fill="#999999"/>
<path fill-rule="evenodd" clip-rule="evenodd" d="M53.7633 8.44253C52.9164 8.01909 52.0695 7.80737 51.4344 8.23081L48.682 9.71284C49.3172 9.50112 50.164 9.50112 51.0109 9.92455L135.486 58.8314L138.239 57.1377L53.7633 8.44253Z" fill="#A3A3A3"/>
<path fill-rule="evenodd" clip-rule="evenodd" d="M138.239 57.1377L135.487 58.8314C137.18 59.6783 138.662 62.4306 138.662 64.3361L141.415 62.8541C141.415 60.7369 139.933 58.1963 138.239 57.1377Z" fill="#CCCCCC"/>
<path fill-rule="evenodd" clip-rule="evenodd" d="M138.662 64.3362V120.865C138.662 121.923 138.451 122.559 137.815 122.982L140.356 121.5C140.991 121.077 141.415 120.441 141.415 119.383V62.8541L138.662 64.3362Z" fill="#999999"/>
<path fill-rule="evenodd" clip-rule="evenodd" d="M51.011 74.0752C49.3172 73.0166 47.8352 70.476 47.8352 68.3588V11.8301C47.8352 9.92459 49.3172 8.866 51.011 9.92459L135.487 58.8315C137.18 59.6784 138.662 62.4307 138.662 64.3362V120.865C138.662 122.982 137.18 123.829 135.487 122.77L51.011 74.0752Z" fill="#C2C2C2"/>
<path fill-rule="evenodd" clip-rule="evenodd" d="M135.486 59.4666L51.0109 10.7714C49.5289 9.92456 48.4703 10.5597 48.4703 12.2535V68.7822C48.4703 70.476 49.5289 72.3814 51.0109 73.2283L135.486 121.923C136.968 122.77 138.027 122.135 138.027 120.441V64.1244C138.027 62.4307 136.968 60.3135 135.486 59.4666Z" fill="#333333"/>
<path fill-rule="evenodd" clip-rule="evenodd" d="M52.4929 68.9939V15.4292L134.428 62.8541V116.419L52.4929 68.9939Z" fill="#1D9F3A"/>
<path fill-rule="evenodd" clip-rule="evenodd" d="M52.493 15.4294L52.0695 15.2177V69.4175L52.493 68.9941V15.4294Z" fill="#808080"/>
<path fill-rule="evenodd" clip-rule="evenodd" d="M52.493 68.994L52.0695 69.4175L134.428 116.842V116.419L52.493 68.994Z" fill="#C2C2C2"/>
<path fill-rule="evenodd" clip-rule="evenodd" d="M93.9897 37.8713C93.9897 38.5065 93.7779 38.7182 93.3545 38.5065C92.7194 38.083 92.5076 37.4479 92.5076 37.0244C92.5076 36.601 92.7194 36.3893 93.3545 36.601C93.7779 36.8127 93.9897 37.4479 93.9897 37.8713Z" fill="#666666"/>
<path fill-rule="evenodd" clip-rule="evenodd" d="M101.4 160.668C101.188 160.668 100.976 160.668 100.765 160.456L21.1587 114.513C20.947 114.302 20.947 113.878 21.1587 113.666L44.236 100.328C44.4477 100.328 44.8712 100.328 45.0829 100.328C45.2946 100.328 45.718 100.328 45.9298 100.328L125.324 146.271C125.747 146.483 125.747 146.906 125.324 147.118L102.247 160.456C102.035 160.668 101.612 160.668 101.4 160.668Z" fill="black" fill-opacity="0.301961"/>
<path fill-rule="evenodd" clip-rule="evenodd" d="M122.572 142.248C122.783 142.46 122.995 142.46 122.995 142.672C122.995 142.883 122.572 142.883 122.572 142.883L122.148 142.46L122.572 142.248Z" fill="#808080"/>
<path fill-rule="evenodd" clip-rule="evenodd" d="M101.823 157.492L103.305 156.645V156.434V156.222L101.4 157.28V157.492V157.704L101.823 157.916V157.704V157.492Z" fill="#333333"/>
<path fill-rule="evenodd" clip-rule="evenodd" d="M103.517 156.857L101.823 157.916C101.823 157.916 101.823 157.916 101.823 157.704V157.492L103.517 156.434V156.645C103.517 156.857 103.517 156.857 103.517 156.857Z" fill="#4D4D4D"/>
<path fill-rule="evenodd" clip-rule="evenodd" d="M120.031 146.906L121.513 146.059V145.636L119.608 146.695V147.118H119.819L120.031 147.33V146.906Z" fill="#333333"/>
<path fill-rule="evenodd" clip-rule="evenodd" d="M121.725 146.483L120.243 147.33C120.031 147.33 120.031 147.33 120.031 147.33V146.906L121.937 145.848V146.271L121.725 146.483Z" fill="#4D4D4D"/>
<path fill-rule="evenodd" clip-rule="evenodd" d="M101.4 156.433L23.6993 112.396V112.608V113.243C23.6993 113.455 23.6993 113.455 23.6993 113.455L100.765 157.916L101.4 156.433Z" fill="#BFBFBF"/>
<path fill-rule="evenodd" clip-rule="evenodd" d="M100.976 156.857L101.4 156.434C100.976 156.645 100.341 156.645 99.9178 156.434L100.765 157.069C100.765 156.857 100.765 156.857 100.976 156.857Z" fill="#B3B3B3"/>
<path fill-rule="evenodd" clip-rule="evenodd" d="M122.783 145.424L100.976 157.916C100.765 157.916 100.765 157.916 100.765 157.916V157.069C100.765 156.857 100.765 156.857 100.976 156.857L122.783 142.672C122.783 142.46 122.995 142.672 122.995 142.672V145.001C122.995 145.213 122.783 145.213 122.783 145.424Z" fill="#808080"/>
<path fill-rule="evenodd" clip-rule="evenodd" d="M24.1227 111.973L45.0828 98.4227C45.2946 98.211 45.9297 98.211 46.3532 98.4227L122.36 142.037C122.783 142.248 122.783 142.672 122.36 142.884L101.4 156.433C100.976 156.645 100.341 156.645 99.9178 156.433L24.1227 113.031C23.6993 112.608 23.6993 112.396 24.1227 111.973Z" fill="#B3B3B3"/>
<path fill-rule="evenodd" clip-rule="evenodd" d="M91.8725 134.627L92.0842 135.262C92.0842 135.262 92.0842 135.473 92.296 135.473L93.5663 136.32C93.9897 136.532 92.5077 137.591 92.5077 137.591L90.1788 138.861V139.284C90.1788 139.284 90.1788 139.496 90.3905 139.496L93.3545 141.19C93.5663 141.402 93.9897 141.402 94.2014 141.19L101.188 136.744C101.4 136.744 101.4 136.532 101.4 136.532V136.109L91.8725 134.627Z" fill="#D6D6D6"/>
<path fill-rule="evenodd" clip-rule="evenodd" d="M101.188 135.685L95.6835 132.721C95.4718 132.509 95.0483 132.509 94.8366 132.721L92.0843 134.415C91.8725 134.627 91.8725 134.838 92.0843 135.05L93.5663 135.897C93.778 135.897 93.778 136.109 93.5663 136.32L90.1788 138.438C89.9671 138.649 89.9671 138.861 90.3905 139.073L93.3546 140.766C93.5663 140.978 93.9897 140.978 94.2014 140.766L101.188 136.32C101.4 136.109 101.4 135.897 101.188 135.685Z" fill="#F7F7F7"/>
<path fill-rule="evenodd" clip-rule="evenodd" d="M77.0523 141.401V142.037C77.0523 142.037 77.0523 142.248 77.264 142.248L84.8858 146.694C85.3093 146.906 85.521 146.906 85.7327 146.694L88.6968 145.001C88.6968 144.789 88.6968 144.789 88.6968 144.577V144.154L77.0523 141.401Z" fill="#D6D6D6"/>
<path fill-rule="evenodd" clip-rule="evenodd" d="M88.4851 143.942L80.8632 139.496C80.6515 139.284 80.2281 139.284 80.0164 139.496L77.0523 141.19C76.8406 141.402 76.8406 141.613 77.264 141.825L84.8859 146.271C85.0976 146.271 85.521 146.271 85.7327 146.271L88.4851 144.366C88.9085 144.366 88.6968 143.942 88.4851 143.942Z" fill="#F7F7F7"/>
<path fill-rule="evenodd" clip-rule="evenodd" d="M34.0735 106.68V107.103C34.0735 107.103 34.0735 107.315 34.2852 107.315L41.907 111.761C42.3305 111.973 42.5422 111.973 42.9656 111.761L45.718 110.067C45.718 109.856 45.9297 109.856 45.718 109.644V109.221L34.0735 106.68Z" fill="#D6D6D6"/>
<path fill-rule="evenodd" clip-rule="evenodd" d="M45.5063 109.009L37.8844 104.563C37.6727 104.351 37.2493 104.351 37.0376 104.563L34.2852 106.256C33.8618 106.468 34.0735 106.68 34.2852 106.891L41.9071 111.338C42.1188 111.338 42.5422 111.338 42.754 111.338L45.718 109.432C45.9297 109.432 45.9297 109.009 45.5063 109.009Z" fill="#F7F7F7"/>
<path fill-rule="evenodd" clip-rule="evenodd" d="M25.6047 111.973V112.396C25.6047 112.608 25.8164 112.608 25.8164 112.82L33.65 117.266C33.8617 117.266 34.2852 117.266 34.4969 117.266L37.2492 115.36L37.4609 115.149L37.2492 114.725L25.6047 111.973Z" fill="#D6D6D6"/>
<path fill-rule="evenodd" clip-rule="evenodd" d="M37.2492 114.302L29.4157 109.856C29.204 109.856 28.7805 109.856 28.5688 109.856L25.8165 111.761C25.6047 111.973 25.6047 112.184 25.8165 112.184L33.4383 116.631C33.8618 116.842 34.2852 116.842 34.4969 116.631L37.2492 114.937C37.461 114.725 37.461 114.513 37.2492 114.302Z" fill="#F7F7F7"/>
<path fill-rule="evenodd" clip-rule="evenodd" d="M41.907 121.288V121.923L42.1187 122.135L68.5835 137.379C68.7952 137.379 69.2187 137.379 69.4304 137.379L72.1827 135.473C72.3944 135.473 72.3944 135.262 72.3944 135.262V134.838L41.907 121.288Z" fill="#D6D6D6"/>
<path fill-rule="evenodd" clip-rule="evenodd" d="M68.5835 136.744L42.1188 121.712C41.907 121.5 41.907 121.288 42.1188 121.077L44.8711 119.383C45.0828 119.171 45.5062 119.171 45.718 119.383L72.1827 134.415C72.3944 134.626 72.3944 134.838 72.1827 135.05L69.4304 136.744C69.2187 136.955 68.7952 136.955 68.5835 136.744Z" fill="#F7F7F7"/>
<path fill-rule="evenodd" clip-rule="evenodd" d="M83.6155 140.131V140.555C83.6155 140.766 83.6155 140.766 83.8272 140.978L89.1201 143.942C89.3319 144.154 89.7553 144.154 89.967 143.942L92.9311 142.248C92.9311 142.037 92.9311 142.037 92.9311 142.037V141.402L83.6155 140.131Z" fill="#D6D6D6"/>
<path fill-rule="evenodd" clip-rule="evenodd" d="M92.7195 141.19L87.4265 138.014C87.0031 138.014 86.7914 138.014 86.5797 138.014L83.6156 139.92C83.4039 139.92 83.4039 140.343 83.8273 140.343L89.1203 143.519C89.332 143.731 89.7554 143.731 89.9671 143.519L92.7195 141.613C92.9312 141.613 92.9312 141.402 92.7195 141.19Z" fill="#F7F7F7"/>
<path fill-rule="evenodd" clip-rule="evenodd" d="M70.0656 137.591V138.014C70.0656 138.014 70.0656 138.226 70.2773 138.226L75.5702 141.402C75.782 141.402 76.2054 141.402 76.4171 141.402L79.3812 139.496C79.3812 139.496 79.3812 139.496 79.3812 139.284V138.861L70.0656 137.591Z" fill="#D6D6D6"/>
<path fill-rule="evenodd" clip-rule="evenodd" d="M79.1695 138.649L73.8765 135.473C73.4531 135.262 73.2414 135.262 73.0296 135.473L70.0656 137.167C69.8539 137.379 69.8539 137.591 70.2773 137.802L75.5703 140.766C75.782 140.978 76.2054 140.978 76.4171 140.766L79.1695 139.073C79.3812 138.861 79.3812 138.649 79.1695 138.649Z" fill="#F7F7F7"/>
<path fill-rule="evenodd" clip-rule="evenodd" d="M38.3079 103.927V104.351C38.3079 104.563 38.3079 104.563 38.5196 104.563L43.8126 107.738C44.236 107.95 44.4477 107.95 44.6595 107.738L47.6235 106.045C47.6235 105.833 47.6235 105.833 47.6235 105.621V105.198L38.3079 103.927Z" fill="#D6D6D6"/>
<path fill-rule="evenodd" clip-rule="evenodd" d="M47.4117 104.986L42.1188 101.81C41.907 101.599 41.4836 101.599 41.2719 101.81L38.3078 103.716C38.0961 103.716 38.0961 103.927 38.5196 104.139L43.8125 107.315C44.0242 107.315 44.4477 107.315 44.6594 107.315L47.4117 105.409C47.6234 105.198 47.6234 104.986 47.4117 104.986Z" fill="#F7F7F7"/>
<path fill-rule="evenodd" clip-rule="evenodd" d="M29.8391 109.22V109.856C29.8391 109.856 29.8391 110.067 30.0508 110.067L35.5554 113.243C35.7672 113.243 36.1906 113.243 36.4023 113.243L39.1546 111.338L39.3664 111.126L39.1546 110.491L29.8391 109.22Z" fill="#D6D6D6"/>
<path fill-rule="evenodd" clip-rule="evenodd" d="M38.9431 110.279L33.6501 107.315C33.4384 107.103 33.0149 107.103 32.8032 107.315L30.0509 109.009C29.8392 109.22 29.8392 109.432 30.0509 109.644L35.3438 112.608C35.7673 112.82 35.979 112.82 36.1907 112.608L39.1548 110.914C39.3665 110.702 39.3665 110.491 38.9431 110.279Z" fill="#F7F7F7"/>
<path fill-rule="evenodd" clip-rule="evenodd" d="M34.9203 117.266V117.901L35.132 118.112L40.6367 121.288C40.8484 121.288 41.2718 121.288 41.4836 121.288L44.2359 119.383C44.4476 119.383 44.4476 119.171 44.4476 119.171V118.748L34.9203 117.266Z" fill="#D6D6D6"/>
<path fill-rule="evenodd" clip-rule="evenodd" d="M44.2359 118.324L38.7313 115.36C38.5195 115.148 38.0961 115.148 37.8844 115.36L35.132 117.054C34.9203 117.266 34.9203 117.477 35.132 117.689L40.6367 120.653C40.8484 120.865 41.2719 120.865 41.4836 120.653L44.2359 118.959C44.4476 118.748 44.4476 118.536 44.2359 118.324Z" fill="#F7F7F7"/>
<path fill-rule="evenodd" clip-rule="evenodd" d="M103.94 153.47V152.834H96.9538V153.47C96.9538 153.47 96.9538 153.681 97.1655 153.681L100.13 155.375C100.341 155.587 100.765 155.587 100.976 155.375L103.729 153.681C103.94 153.47 103.94 153.47 103.94 153.47Z" fill="#D6D6D6"/>
<path fill-rule="evenodd" clip-rule="evenodd" d="M100.129 154.952L97.1654 153.258C96.742 153.046 96.742 152.834 96.9537 152.623L99.706 150.929C100.129 150.717 100.341 150.717 100.765 150.929L103.729 152.623C103.94 152.834 103.94 153.046 103.729 153.046L100.976 154.952C100.765 155.163 100.341 155.163 100.129 154.952Z" fill="#F7F7F7"/>
<path fill-rule="evenodd" clip-rule="evenodd" d="M99.2827 150.717V150.294H92.296V150.717C92.296 150.717 92.296 150.929 92.5078 150.929L95.4718 152.834C95.6835 152.834 96.107 152.834 96.3187 152.834L99.071 150.929C99.2827 150.929 99.2827 150.717 99.2827 150.717Z" fill="#D6D6D6"/>
<path fill-rule="evenodd" clip-rule="evenodd" d="M95.4717 152.199L92.296 150.506C92.0842 150.294 92.0842 150.082 92.296 149.87L95.0483 148.177C95.26 147.965 95.6835 147.965 96.1069 148.177L99.0709 149.87C99.2827 150.082 99.2827 150.294 99.0709 150.506L96.3186 152.199C96.1069 152.411 95.6835 152.411 95.4717 152.199Z" fill="#F7F7F7"/>
<path fill-rule="evenodd" clip-rule="evenodd" d="M94.6249 147.965V147.541H87.4265L87.6382 147.965C87.6382 148.177 87.6382 148.177 87.8499 148.388L90.814 150.082C91.0257 150.294 91.4491 150.294 91.6609 150.082L94.4132 148.177C94.6249 148.177 94.6249 148.177 94.6249 147.965Z" fill="#D6D6D6"/>
<path fill-rule="evenodd" clip-rule="evenodd" d="M90.814 149.659L87.6382 147.753C87.4265 147.753 87.4265 147.33 87.6382 147.33L90.3906 145.424C90.6023 145.424 91.0257 145.424 91.2374 145.424L94.4132 147.33C94.6249 147.33 94.6249 147.541 94.4132 147.753L91.6609 149.659C91.4492 149.659 91.0257 149.659 90.814 149.659Z" fill="#F7F7F7"/>
<path fill-rule="evenodd" clip-rule="evenodd" d="M103.517 147.965V147.541H96.3187L96.5304 147.965C96.5304 148.177 96.5304 148.177 96.7421 148.177L99.7061 150.082C99.9179 150.082 100.341 150.082 100.553 150.082L103.305 148.177C103.517 148.177 103.517 148.177 103.517 147.965Z" fill="#D6D6D6"/>
<path fill-rule="evenodd" clip-rule="evenodd" d="M99.7062 149.447L96.5304 147.753C96.3187 147.541 96.3187 147.33 96.5304 147.33L99.2827 145.424C99.4944 145.424 99.9179 145.424 100.13 145.424L103.305 147.33C103.517 147.33 103.517 147.541 103.305 147.753L100.553 149.447C100.341 149.659 99.9179 149.659 99.7062 149.447Z" fill="#F7F7F7"/>
<path fill-rule="evenodd" clip-rule="evenodd" d="M116.644 145.212V144.789H109.445V145.212C109.445 145.424 109.657 145.424 109.657 145.636L112.833 147.33C113.044 147.541 113.468 147.541 113.68 147.33L116.432 145.424C116.644 145.424 116.644 145.424 116.644 145.212Z" fill="#D6D6D6"/>
<path fill-rule="evenodd" clip-rule="evenodd" d="M112.833 146.906L109.657 145.001C109.445 145.001 109.445 144.577 109.657 144.577L112.409 142.672C112.621 142.672 113.044 142.672 113.256 142.672L116.432 144.577C116.643 144.577 116.643 144.789 116.432 145.001L113.679 146.906C113.468 146.906 113.044 146.906 112.833 146.906Z" fill="#F7F7F7"/>
<path fill-rule="evenodd" clip-rule="evenodd" d="M111.986 142.672V142.037H104.787V142.672L104.999 142.884L108.175 144.577C108.387 144.789 108.81 144.789 109.022 144.577L111.774 142.884C111.986 142.672 111.986 142.672 111.986 142.672Z" fill="#D6D6D6"/>
<path fill-rule="evenodd" clip-rule="evenodd" d="M108.175 144.154L104.999 142.46C104.787 142.248 104.787 142.037 104.999 141.825L107.751 140.131C107.963 139.919 108.387 139.919 108.598 140.131L111.774 141.825C111.986 142.037 111.986 142.248 111.774 142.248L109.022 144.154C108.81 144.366 108.387 144.366 108.175 144.154Z" fill="#F7F7F7"/>
<path fill-rule="evenodd" clip-rule="evenodd" d="M107.328 139.92V139.496H100.13V139.92L100.341 140.131L103.517 142.037C103.729 142.037 104.152 142.037 104.364 142.037L107.116 140.131C107.328 140.131 107.328 139.92 107.328 139.92Z" fill="#D6D6D6"/>
<path fill-rule="evenodd" clip-rule="evenodd" d="M103.517 141.402L100.341 139.708C100.129 139.496 100.129 139.284 100.341 139.073L103.094 137.379C103.305 137.167 103.729 137.167 103.94 137.379L107.116 139.073C107.328 139.284 107.328 139.496 107.116 139.708L104.364 141.402C104.152 141.613 103.729 141.613 103.517 141.402Z" fill="#F7F7F7"/>
<path fill-rule="evenodd" clip-rule="evenodd" d="M120.878 142.46V142.037H113.68V142.672L113.891 142.884L117.067 144.577C117.279 144.789 117.702 144.789 117.914 144.577L120.666 142.884C120.878 142.672 120.878 142.672 120.878 142.46Z" fill="#D6D6D6"/>
<path fill-rule="evenodd" clip-rule="evenodd" d="M117.067 144.154L113.891 142.46C113.679 142.248 113.679 142.037 113.891 141.825L116.644 140.131C116.855 139.919 117.279 139.919 117.49 140.131L120.666 141.825C120.878 142.037 120.878 142.248 120.666 142.248L117.914 144.154C117.702 144.154 117.279 144.154 117.067 144.154Z" fill="#F7F7F7"/>
<path fill-rule="evenodd" clip-rule="evenodd" d="M116.22 139.92V139.284L109.022 139.496V139.92L109.233 140.131L112.409 141.825C112.621 142.037 113.044 142.037 113.256 141.825L116.008 140.131L116.22 139.92Z" fill="#D6D6D6"/>
<path fill-rule="evenodd" clip-rule="evenodd" d="M112.409 141.402L109.233 139.708C109.022 139.496 109.022 139.284 109.233 139.073L111.986 137.379C112.197 137.167 112.621 137.167 112.833 137.379L116.008 139.073C116.22 139.284 116.22 139.496 116.008 139.708L113.256 141.402C113.044 141.613 112.621 141.613 112.409 141.402Z" fill="#F7F7F7"/>
<path fill-rule="evenodd" clip-rule="evenodd" d="M111.562 137.167L111.351 136.744H104.364V137.167C104.364 137.379 104.576 137.379 104.576 137.591L107.751 139.284C107.963 139.284 108.387 139.284 108.598 139.284L111.351 137.379C111.351 137.379 111.562 137.379 111.562 137.167Z" fill="#D6D6D6"/>
<path fill-rule="evenodd" clip-rule="evenodd" d="M107.54 138.649L104.576 136.955C104.364 136.744 104.364 136.532 104.576 136.532L107.328 134.627C107.54 134.627 107.963 134.627 108.175 134.627L111.139 136.532C111.562 136.532 111.562 136.744 111.351 136.955L108.598 138.649C108.175 138.861 107.963 138.861 107.54 138.649Z" fill="#F7F7F7"/>
<path fill-rule="evenodd" clip-rule="evenodd" d="M105.634 133.78V133.356H98.4358L98.6475 133.78C98.6475 133.991 98.6475 133.991 98.8593 134.203L101.823 135.897C102.035 136.109 102.458 136.109 102.67 135.897L105.423 133.991C105.634 133.991 105.634 133.991 105.634 133.78Z" fill="#D6D6D6"/>
<path fill-rule="evenodd" clip-rule="evenodd" d="M101.823 135.473L98.6476 133.568C98.4358 133.568 98.4358 133.145 98.6476 133.145L101.4 131.239C101.612 131.239 102.035 131.239 102.247 131.239L105.423 133.145C105.634 133.145 105.634 133.356 105.423 133.568L102.67 135.473C102.458 135.473 102.035 135.473 101.823 135.473Z" fill="#F7F7F7"/>
<path fill-rule="evenodd" clip-rule="evenodd" d="M100.976 131.239V130.604H93.778L93.9897 131.239V131.451L97.1655 133.145C97.3772 133.356 97.8006 133.356 98.0123 133.145L100.765 131.451C100.976 131.239 100.976 131.239 100.976 131.239Z" fill="#D6D6D6"/>
<path fill-rule="evenodd" clip-rule="evenodd" d="M97.1655 132.721L93.9897 131.027C93.778 130.816 93.778 130.604 93.9897 130.392L96.7421 128.698C96.9538 128.487 97.3772 128.487 97.5889 128.698L100.765 130.392C100.976 130.604 100.976 130.816 100.765 130.816L98.0124 132.721C97.8006 132.933 97.3772 132.933 97.1655 132.721Z" fill="#F7F7F7"/>
<path fill-rule="evenodd" clip-rule="evenodd" d="M96.3187 128.487V128.063H89.1202V128.487C89.1202 128.699 89.332 128.699 89.332 128.699L92.5077 130.604C92.7194 130.604 93.1429 130.604 93.3546 130.604L96.1069 128.699C96.3187 128.699 96.3187 128.487 96.3187 128.487Z" fill="#D6D6D6"/>
<path fill-rule="evenodd" clip-rule="evenodd" d="M92.5078 129.969L89.332 128.275C89.1203 128.063 89.1203 127.852 89.332 127.64L92.0843 125.946C92.296 125.734 92.7195 125.734 92.9312 125.946L96.107 127.64C96.3187 127.852 96.3187 128.063 96.107 128.275L93.3546 129.969C93.1429 130.181 92.7195 130.181 92.5078 129.969Z" fill="#F7F7F7"/>
<path fill-rule="evenodd" clip-rule="evenodd" d="M91.6608 125.734V125.311H84.4624V125.734C84.4624 125.946 84.6741 125.946 84.6741 126.158L87.8499 127.852C88.0616 128.063 88.485 128.063 88.6968 127.852L91.4491 125.946C91.6608 125.946 91.6608 125.946 91.6608 125.734Z" fill="#D6D6D6"/>
<path fill-rule="evenodd" clip-rule="evenodd" d="M87.8499 127.428L84.6741 125.523C84.4624 125.523 84.4624 125.099 84.6741 125.099L87.4265 123.194C87.6382 123.194 88.0616 123.194 88.2733 123.194L91.4491 125.099C91.6608 125.099 91.6608 125.311 91.4491 125.523L88.6968 127.428C88.4851 127.428 88.0616 127.428 87.8499 127.428Z" fill="#F7F7F7"/>
<path fill-rule="evenodd" clip-rule="evenodd" d="M87.0031 123.194V122.559H79.8047V123.194L80.0164 123.405L83.1922 125.099C83.4039 125.311 83.8273 125.311 84.039 125.099L86.7914 123.405C87.0031 123.194 87.0031 123.194 87.0031 123.194Z" fill="#D6D6D6"/>
<path fill-rule="evenodd" clip-rule="evenodd" d="M83.1922 124.676L80.0164 122.982C79.8047 122.77 79.8047 122.559 80.0164 122.347L82.7687 120.653C82.9805 120.441 83.4039 120.441 83.6156 120.653L86.7914 122.347C87.0031 122.559 87.0031 122.77 86.7914 122.77L84.039 124.676C83.8273 124.888 83.4039 124.888 83.1922 124.676Z" fill="#F7F7F7"/>
<path fill-rule="evenodd" clip-rule="evenodd" d="M82.3452 120.441L82.1335 120.018H75.1468V120.441L75.3585 120.653L78.5343 122.559C78.746 122.559 79.1695 122.559 79.3812 122.559L82.1335 120.653L82.3452 120.441Z" fill="#D6D6D6"/>
<path fill-rule="evenodd" clip-rule="evenodd" d="M78.3226 121.923L75.3586 120.23C75.1468 120.018 75.1468 119.806 75.3586 119.594L78.1109 117.901C78.3226 117.689 78.7461 117.689 78.9578 117.901L82.1335 119.594C82.3453 119.806 82.3453 120.018 82.1335 120.23L79.3812 121.923C78.9578 122.135 78.7461 122.135 78.3226 121.923Z" fill="#F7F7F7"/>
<path fill-rule="evenodd" clip-rule="evenodd" d="M77.6874 117.689L77.4757 117.266H70.489V117.689C70.489 117.901 70.7007 117.901 70.7007 118.112L73.8765 119.806C74.0882 120.018 74.5116 120.018 74.7233 119.806L77.4757 117.901C77.4757 117.901 77.6874 117.901 77.6874 117.689Z" fill="#D6D6D6"/>
<path fill-rule="evenodd" clip-rule="evenodd" d="M73.6649 119.383L70.7008 117.477C70.4891 117.477 70.4891 117.054 70.7008 117.054L73.4532 115.148C73.6649 115.148 74.0883 115.148 74.3 115.148L77.2641 117.054C77.6875 117.054 77.6875 117.266 77.4758 117.477L74.5117 119.383C74.3 119.383 74.0883 119.383 73.6649 119.383Z" fill="#F7F7F7"/>
<path fill-rule="evenodd" clip-rule="evenodd" d="M73.0297 115.149L72.8179 114.513H65.8312V115.149C65.8312 115.149 65.8312 115.36 66.043 115.36L69.2187 117.054C69.4304 117.266 69.8539 117.266 70.0656 117.054L72.8179 115.36C72.8179 115.149 73.0297 115.149 73.0297 115.149Z" fill="#D6D6D6"/>
<path fill-rule="evenodd" clip-rule="evenodd" d="M69.007 116.631L66.043 114.937C65.8313 114.725 65.8313 114.513 66.043 114.302L68.7953 112.608C69.007 112.396 69.4305 112.396 69.6422 112.608L72.6062 114.302C73.0297 114.513 73.0297 114.725 72.818 114.725L69.8539 116.631C69.6422 116.842 69.4305 116.842 69.007 116.631Z" fill="#F7F7F7"/>
<path fill-rule="evenodd" clip-rule="evenodd" d="M68.1601 112.396V111.973H61.1734V112.396C61.1734 112.396 61.1734 112.608 61.3851 112.608L64.3492 114.513C64.7726 114.513 64.9843 114.513 65.4078 114.513L68.1601 112.608V112.396Z" fill="#D6D6D6"/>
<path fill-rule="evenodd" clip-rule="evenodd" d="M64.3492 113.878L61.3851 112.184C61.1734 111.973 61.1734 111.761 61.3851 111.549L64.1375 109.856C64.3492 109.644 64.7726 109.644 64.9843 109.856L67.9484 111.549C68.3718 111.761 68.3718 111.973 68.1601 112.184L65.1961 113.878C64.9843 114.09 64.5609 114.09 64.3492 113.878Z" fill="#F7F7F7"/>
<path fill-rule="evenodd" clip-rule="evenodd" d="M63.5024 109.644V109.22H56.5157V109.644C56.5157 109.856 56.5157 109.856 56.7274 110.067L59.6914 111.761C60.1149 111.973 60.3266 111.973 60.5383 111.761L63.5024 109.856C63.5024 109.856 63.5024 109.856 63.5024 109.644Z" fill="#D6D6D6"/>
<path fill-rule="evenodd" clip-rule="evenodd" d="M59.6914 111.338L56.7273 109.432C56.5156 109.432 56.3039 109.009 56.7273 109.009L59.4796 107.103C59.6914 107.103 60.1148 107.103 60.3265 107.103L63.2906 109.009C63.5023 109.009 63.714 109.22 63.2906 109.432L60.5382 111.338C60.3265 111.338 59.9031 111.338 59.6914 111.338Z" fill="#F7F7F7"/>
<path fill-rule="evenodd" clip-rule="evenodd" d="M58.8445 107.103V106.468H51.8578V107.103C51.8578 107.103 51.8578 107.315 52.0695 107.315L55.0336 109.009C55.457 109.22 55.6687 109.22 55.8805 109.009L58.8445 107.315C58.8445 107.103 58.8445 107.103 58.8445 107.103Z" fill="#D6D6D6"/>
<path fill-rule="evenodd" clip-rule="evenodd" d="M55.0335 108.585L52.0695 106.891C51.8578 106.68 51.6461 106.468 51.8578 106.256L54.8218 104.563C55.0335 104.351 55.457 104.351 55.6687 104.563L58.6328 106.256C58.8445 106.468 58.8445 106.68 58.6328 106.68L55.8804 108.585C55.6687 108.797 55.2453 108.797 55.0335 108.585Z" fill="#F7F7F7"/>
<path fill-rule="evenodd" clip-rule="evenodd" d="M54.1868 104.351V103.927H47.2001V104.351C47.2001 104.351 47.2001 104.563 47.4118 104.563L50.3758 106.468C50.5876 106.468 51.011 106.468 51.2227 106.468L54.1868 104.563V104.351Z" fill="#D6D6D6"/>
<path fill-rule="evenodd" clip-rule="evenodd" d="M50.3758 105.833L47.4117 104.139C46.9883 103.927 46.9883 103.716 47.2 103.504L50.1641 101.81C50.3758 101.599 50.7992 101.599 51.0109 101.81L53.975 103.504C54.1867 103.716 54.1867 103.927 53.975 104.139L51.2226 105.833C51.0109 106.045 50.5875 106.045 50.3758 105.833Z" fill="#F7F7F7"/>
<path fill-rule="evenodd" clip-rule="evenodd" d="M49.5288 101.598V101.175H42.5421V101.598C42.5421 101.81 42.5421 101.81 42.7538 102.022L45.7179 103.716C45.9296 103.927 46.3531 103.927 46.5648 103.716L49.3171 101.81C49.5288 101.81 49.5288 101.81 49.5288 101.598Z" fill="#D6D6D6"/>
<path fill-rule="evenodd" clip-rule="evenodd" d="M45.7179 103.292L42.7539 101.387C42.3304 101.387 42.3304 100.963 42.5422 100.963L45.5062 99.058C45.7179 99.058 45.9296 99.058 46.3531 99.058L49.3171 100.963C49.5289 100.963 49.5289 101.175 49.3171 101.387L46.5648 103.292C46.3531 103.292 45.9296 103.292 45.7179 103.292Z" fill="#F7F7F7"/>
<path fill-rule="evenodd" clip-rule="evenodd" d="M94.4132 132.509V132.086H87.2148L87.4265 132.509C87.4265 132.721 87.4265 132.721 87.6382 132.721L90.6023 134.627C90.814 134.627 91.2374 134.627 91.4491 134.627L94.2015 132.721C94.4132 132.721 94.4132 132.509 94.4132 132.509Z" fill="#D6D6D6"/>
<path fill-rule="evenodd" clip-rule="evenodd" d="M90.6023 133.991L87.4265 132.298C87.2148 132.086 87.2148 131.874 87.4265 131.874L90.1789 129.969C90.3906 129.757 90.814 129.757 91.0257 129.969L94.2015 131.663C94.4132 131.874 94.4132 132.086 94.2015 132.298L91.4492 133.991C91.2375 134.203 90.814 134.203 90.6023 133.991Z" fill="#F7F7F7"/>
<path fill-rule="evenodd" clip-rule="evenodd" d="M89.7554 129.757V129.334H82.5569L82.7687 129.757C82.7687 129.969 82.7687 129.969 82.7687 130.18L85.9444 131.874C86.1562 132.086 86.5796 132.086 86.7913 131.874L89.5436 130.18C89.7554 129.969 89.7554 129.969 89.7554 129.757Z" fill="#D6D6D6"/>
<path fill-rule="evenodd" clip-rule="evenodd" d="M85.9445 131.451L82.7687 129.545C82.557 129.545 82.557 129.334 82.7687 129.122L85.521 127.217C85.7327 127.217 86.1562 127.217 86.3679 127.217L89.5437 129.122C89.7554 129.122 89.7554 129.545 89.5437 129.545L86.7913 131.451C86.5796 131.451 86.1562 131.451 85.9445 131.451Z" fill="#F7F7F7"/>
<path fill-rule="evenodd" clip-rule="evenodd" d="M85.0976 127.216V126.581H77.8992V127.216L78.1109 127.428L81.2867 129.122C81.4984 129.334 81.9218 129.334 82.1336 129.122L84.8859 127.428C85.0976 127.428 85.0976 127.216 85.0976 127.216Z" fill="#D6D6D6"/>
<path fill-rule="evenodd" clip-rule="evenodd" d="M81.2866 128.699L78.1108 127.005C77.8991 126.793 77.8991 126.581 78.1108 126.37L80.8632 124.676C81.0749 124.464 81.4983 124.464 81.71 124.676L84.8858 126.37C85.0975 126.581 85.0975 126.793 84.8858 127.005L82.1335 128.699C81.9218 128.91 81.4983 128.91 81.2866 128.699Z" fill="#F7F7F7"/>
<path fill-rule="evenodd" clip-rule="evenodd" d="M80.4398 124.464V124.041H73.2414V124.464C73.2414 124.676 73.4531 124.676 73.4531 124.676L76.6288 126.581C76.8406 126.581 77.264 126.581 77.4757 126.581L80.2281 124.676C80.4398 124.676 80.4398 124.464 80.4398 124.464Z" fill="#D6D6D6"/>
<path fill-rule="evenodd" clip-rule="evenodd" d="M76.6289 125.946L73.4531 124.252C73.2414 124.041 73.2414 123.829 73.4531 123.829L76.2054 121.924C76.4172 121.712 76.8406 121.712 77.0523 121.924L80.2281 123.617C80.4398 123.829 80.4398 124.041 80.2281 124.252L77.4757 125.946C77.264 126.158 76.8406 126.158 76.6289 125.946Z" fill="#F7F7F7"/>
<path fill-rule="evenodd" clip-rule="evenodd" d="M75.7819 121.712V121.288H68.5835V121.712C68.5835 121.923 68.7952 121.923 68.7952 122.135L71.971 123.829C72.1827 124.041 72.6062 124.041 72.8179 123.829L75.5702 122.135C75.7819 121.923 75.7819 121.923 75.7819 121.712Z" fill="#D6D6D6"/>
<path fill-rule="evenodd" clip-rule="evenodd" d="M71.971 123.406L68.7953 121.5C68.5835 121.5 68.5835 121.288 68.7953 121.077L71.5476 119.171C71.7593 119.171 72.1827 119.171 72.3945 119.171L75.5702 121.077C75.782 121.077 75.782 121.5 75.5702 121.5L72.8179 123.406C72.6062 123.406 72.1827 123.406 71.971 123.406Z" fill="#F7F7F7"/>
<path fill-rule="evenodd" clip-rule="evenodd" d="M71.1242 119.171L70.9125 118.536H63.9258V119.171L64.1375 119.383L67.3133 121.077C67.525 121.288 67.9484 121.288 68.1601 121.077L70.9125 119.383L71.1242 119.171Z" fill="#D6D6D6"/>
<path fill-rule="evenodd" clip-rule="evenodd" d="M67.1016 120.653L64.1375 118.959C63.9258 118.748 63.9258 118.536 64.1375 118.324L66.8899 116.63C67.1016 116.419 67.525 116.419 67.7367 116.63L70.9125 118.324C71.1242 118.536 71.1242 118.748 70.9125 118.959L68.1602 120.653C67.7367 120.865 67.525 120.865 67.1016 120.653Z" fill="#F7F7F7"/>
<path fill-rule="evenodd" clip-rule="evenodd" d="M66.4664 116.419L66.2546 115.995H59.2679V116.419C59.2679 116.631 59.4797 116.631 59.4797 116.631L62.6554 118.536C62.8672 118.536 63.2906 118.536 63.5023 118.536L66.2546 116.631L66.4664 116.419Z" fill="#D6D6D6"/>
<path fill-rule="evenodd" clip-rule="evenodd" d="M62.4437 117.901L59.4797 116.207C59.268 115.995 59.268 115.784 59.4797 115.784L62.232 113.878C62.4437 113.667 62.8672 113.667 63.0789 113.878L66.0429 115.572C66.4664 115.784 66.4664 115.995 66.2547 116.207L63.5023 117.901C63.0789 118.113 62.8672 118.113 62.4437 117.901Z" fill="#F7F7F7"/>
<path fill-rule="evenodd" clip-rule="evenodd" d="M61.8086 113.667L61.5969 113.243H54.6102V113.667C54.6102 113.878 54.6102 113.878 54.8219 114.09L57.9977 115.784C58.2094 115.995 58.6328 115.995 58.8446 115.784L61.5969 114.09C61.5969 113.878 61.8086 113.878 61.8086 113.667Z" fill="#D6D6D6"/>
<path fill-rule="evenodd" clip-rule="evenodd" d="M57.7859 115.36L54.8218 113.455C54.6101 113.455 54.6101 113.243 54.8218 113.031L57.5742 111.126C57.7859 111.126 58.2093 111.126 58.421 111.126L61.3851 113.031C61.8085 113.031 61.8085 113.455 61.5968 113.455L58.6328 115.36C58.421 115.36 58.2093 115.36 57.7859 115.36Z" fill="#F7F7F7"/>
<path fill-rule="evenodd" clip-rule="evenodd" d="M56.9391 111.126V110.491H49.9524V111.126C49.9524 111.126 49.9524 111.338 50.1641 111.338L53.1281 113.031C53.5516 113.243 53.7633 113.243 54.1867 113.031L56.9391 111.338V111.126Z" fill="#D6D6D6"/>
<path fill-rule="evenodd" clip-rule="evenodd" d="M53.1282 112.608L50.1641 110.914C49.9524 110.702 49.9524 110.491 50.1641 110.279L52.9164 108.585C53.1282 108.374 53.5516 108.374 53.7633 108.585L56.7274 110.279C57.1508 110.491 57.1508 110.702 56.9391 110.914L53.975 112.608C53.7633 112.82 53.3399 112.82 53.1282 112.608Z" fill="#F7F7F7"/>
<path fill-rule="evenodd" clip-rule="evenodd" d="M52.2813 108.374V107.95H45.2946V108.374C45.2946 108.585 45.2946 108.585 45.5063 108.585L48.4704 110.491C48.8938 110.491 49.1055 110.491 49.3173 110.491L52.2813 108.585V108.374Z" fill="#D6D6D6"/>
<path fill-rule="evenodd" clip-rule="evenodd" d="M48.4703 109.856L45.5063 108.162C45.2945 107.95 45.0828 107.738 45.5063 107.738L48.2586 105.833C48.4703 105.621 48.8938 105.621 49.1055 105.833L52.0695 107.527C52.2812 107.738 52.493 107.95 52.0695 108.162L49.3172 109.856C49.1055 110.067 48.682 110.067 48.4703 109.856Z" fill="#F7F7F7"/>
<path fill-rule="evenodd" clip-rule="evenodd" d="M92.5076 136.532V136.109H85.5209V136.532C85.5209 136.744 85.5209 136.744 85.7326 136.956L88.6967 138.649C88.9084 138.649 89.3319 138.649 89.5436 138.649L92.2959 136.744C92.5076 136.744 92.5076 136.744 92.5076 136.532Z" fill="#D6D6D6"/>
<path fill-rule="evenodd" clip-rule="evenodd" d="M88.6967 138.014L85.521 136.32C85.3092 136.109 85.3092 135.897 85.521 135.897L88.2733 133.991C88.6967 133.991 88.9085 133.991 89.3319 133.991L92.2959 135.897C92.5077 135.897 92.5077 136.109 92.2959 136.32L89.5436 138.014C89.3319 138.226 88.9085 138.226 88.6967 138.014Z" fill="#F7F7F7"/>
<path fill-rule="evenodd" clip-rule="evenodd" d="M87.8499 133.78V133.356H80.6515L80.8632 133.991C80.8632 133.991 80.8632 133.991 81.0749 134.203L84.039 135.897C84.2507 136.109 84.6741 136.109 84.8858 135.897L87.6382 134.203C87.8499 133.991 87.8499 133.991 87.8499 133.78Z" fill="#D6D6D6"/>
<path fill-rule="evenodd" clip-rule="evenodd" d="M84.039 135.474L80.8632 133.568C80.6515 133.568 80.6515 133.356 80.8632 133.145L83.6156 131.451C83.8273 131.239 84.2507 131.239 84.4624 131.451L87.6382 133.145C87.8499 133.356 87.8499 133.568 87.6382 133.568L84.8859 135.474C84.6742 135.474 84.2507 135.474 84.039 135.474Z" fill="#F7F7F7"/>
<path fill-rule="evenodd" clip-rule="evenodd" d="M83.1921 131.239V130.604L75.9936 130.816L76.2054 131.239C76.2054 131.239 76.2054 131.451 76.4171 131.451L79.3811 133.145C79.5928 133.356 80.0163 133.356 80.228 133.145L82.9803 131.451C83.1921 131.451 83.1921 131.239 83.1921 131.239Z" fill="#D6D6D6"/>
<path fill-rule="evenodd" clip-rule="evenodd" d="M79.3812 132.721L76.2054 131.027C75.9937 130.816 75.9937 130.604 76.2054 130.392L78.9577 128.698C79.1694 128.487 79.5929 128.487 79.8046 128.698L82.9804 130.392C83.1921 130.604 83.1921 130.816 82.9804 131.027L80.228 132.721C80.0163 132.933 79.5929 132.933 79.3812 132.721Z" fill="#F7F7F7"/>
<path fill-rule="evenodd" clip-rule="evenodd" d="M78.5343 128.487V128.063H71.3359L71.5476 128.487C71.5476 128.699 71.5476 128.699 71.5476 128.699L74.7234 130.604C74.9351 130.604 75.3585 130.604 75.5703 130.604L78.3226 128.699C78.5343 128.699 78.5343 128.699 78.5343 128.487Z" fill="#D6D6D6"/>
<path fill-rule="evenodd" clip-rule="evenodd" d="M74.7233 129.969L71.5475 128.275C71.3358 128.063 71.3358 127.852 71.5475 127.852L74.2999 125.946C74.5116 125.946 74.935 125.946 75.1467 125.946L78.3225 127.852C78.5342 127.852 78.5342 128.063 78.3225 128.275L75.5702 129.969C75.3585 130.181 74.935 130.181 74.7233 129.969Z" fill="#F7F7F7"/>
<path fill-rule="evenodd" clip-rule="evenodd" d="M73.8765 125.734V125.311H66.6781V125.946C66.6781 125.946 66.8898 125.946 66.8898 126.158L70.0656 127.852C70.2773 128.063 70.7007 128.063 70.9124 127.852L73.6648 126.158C73.8765 125.946 73.8765 125.946 73.8765 125.734Z" fill="#D6D6D6"/>
<path fill-rule="evenodd" clip-rule="evenodd" d="M70.0656 127.428L66.8898 125.523C66.6781 125.523 66.6781 125.311 66.8898 125.099L69.6421 123.406C69.8539 123.194 70.2773 123.194 70.489 123.406L73.6648 125.099C73.8765 125.311 73.8765 125.523 73.6648 125.523L70.9124 127.428C70.7007 127.428 70.2773 127.428 70.0656 127.428Z" fill="#F7F7F7"/>
<path fill-rule="evenodd" clip-rule="evenodd" d="M69.2187 123.194V122.559L62.0203 122.77V123.194L62.232 123.405L65.4078 125.099C65.6195 125.311 66.043 125.311 66.2547 125.099L69.007 123.405C69.2187 123.405 69.2187 123.194 69.2187 123.194Z" fill="#D6D6D6"/>
<path fill-rule="evenodd" clip-rule="evenodd" d="M65.4077 124.676L62.232 122.982C62.0202 122.77 62.0202 122.559 62.232 122.347L64.9843 120.653C65.196 120.441 65.6195 120.441 65.8312 120.653L69.0069 122.347C69.2187 122.559 69.2187 122.77 69.0069 122.982L66.2546 124.676C66.0429 124.888 65.6195 124.888 65.4077 124.676Z" fill="#F7F7F7"/>
<path fill-rule="evenodd" clip-rule="evenodd" d="M64.5609 120.441V120.018H57.3625V120.441C57.3625 120.653 57.5742 120.653 57.5742 120.653L60.75 122.559C60.9617 122.559 61.3851 122.559 61.5968 122.559L64.3492 120.653C64.5609 120.653 64.5609 120.653 64.5609 120.441Z" fill="#D6D6D6"/>
<path fill-rule="evenodd" clip-rule="evenodd" d="M60.75 121.923L57.5742 120.23C57.3625 120.018 57.3625 119.806 57.5742 119.806L60.3266 117.901C60.5383 117.901 60.9617 117.901 61.1734 117.901L64.3492 119.595C64.5609 119.806 64.5609 120.018 64.3492 120.23L61.5969 121.923C61.3852 122.135 60.9617 122.135 60.75 121.923Z" fill="#F7F7F7"/>
<path fill-rule="evenodd" clip-rule="evenodd" d="M59.9032 117.689L59.6914 117.266H52.7047V117.901C52.7047 117.901 52.9165 117.901 52.9165 118.112L56.0922 119.806C56.304 120.018 56.7274 120.018 56.9391 119.806L59.6914 118.112C59.6914 117.901 59.9032 117.901 59.9032 117.689Z" fill="#D6D6D6"/>
<path fill-rule="evenodd" clip-rule="evenodd" d="M55.8804 119.383L52.9164 117.477C52.7047 117.477 52.7047 117.266 52.9164 117.054L55.6687 115.36C55.8804 115.148 56.3039 115.148 56.5156 115.36L59.6914 117.054C59.9031 117.266 59.9031 117.477 59.6914 117.477L56.939 119.383C56.5156 119.383 56.3039 119.383 55.8804 119.383Z" fill="#F7F7F7"/>
<path fill-rule="evenodd" clip-rule="evenodd" d="M55.2453 115.149L55.0336 114.513L48.0469 114.725V115.149L48.2586 115.36L51.4344 117.054C51.6461 117.266 52.0696 117.266 52.2813 117.054L55.0336 115.36L55.2453 115.149Z" fill="#D6D6D6"/>
<path fill-rule="evenodd" clip-rule="evenodd" d="M51.2227 116.631L48.2586 114.937C48.0469 114.725 48.0469 114.513 48.2586 114.302L51.011 112.608C51.2227 112.396 51.6461 112.396 51.8579 112.608L54.8219 114.302C55.2453 114.513 55.2453 114.725 55.0336 114.937L52.2813 116.631C51.8579 116.842 51.6461 116.842 51.2227 116.631Z" fill="#F7F7F7"/>
<path fill-rule="evenodd" clip-rule="evenodd" d="M50.5875 112.396L50.3758 111.973H43.3891V112.396C43.3891 112.608 43.3891 112.608 43.6008 112.608L46.7766 114.513C46.9883 114.513 47.4117 114.513 47.6234 114.513L50.3758 112.608C50.3758 112.608 50.5875 112.608 50.5875 112.396Z" fill="#D6D6D6"/>
<path fill-rule="evenodd" clip-rule="evenodd" d="M46.5649 113.878L43.6008 112.184C43.3891 111.973 43.3891 111.761 43.6008 111.761L46.3531 109.856C46.5649 109.856 46.9883 109.644 47.2 109.856L50.1641 111.549C50.5875 111.761 50.5875 111.973 50.3758 112.184L47.4117 113.878C47.2 114.09 46.9883 114.09 46.5649 113.878Z" fill="#F7F7F7"/>
<path fill-rule="evenodd" clip-rule="evenodd" d="M85.9444 138.014V137.379H78.9577V138.014C78.9577 138.014 78.9577 138.226 79.1695 138.226L82.1335 139.92C82.3452 140.131 82.7687 140.131 82.9804 139.92L85.7327 138.226C85.9444 138.014 85.9444 138.014 85.9444 138.014Z" fill="#D6D6D6"/>
<path fill-rule="evenodd" clip-rule="evenodd" d="M82.1335 139.496L79.1695 137.802C78.746 137.591 78.746 137.379 78.9578 137.167L81.9218 135.473C82.1335 135.262 82.3453 135.262 82.7687 135.473L85.7327 137.167C85.9445 137.379 85.9445 137.591 85.7327 137.591L82.9804 139.496C82.7687 139.708 82.3453 139.708 82.1335 139.496Z" fill="#F7F7F7"/>
<path fill-rule="evenodd" clip-rule="evenodd" d="M81.2866 135.262V134.838H74.2999V135.262C74.2999 135.262 74.2999 135.473 74.5116 135.473L77.4757 137.379C77.6874 137.379 78.1108 137.379 78.3225 137.379L81.0749 135.473C81.2866 135.473 81.2866 135.262 81.2866 135.262Z" fill="#D6D6D6"/>
<path fill-rule="evenodd" clip-rule="evenodd" d="M77.4757 136.744L74.2999 135.05C74.0882 134.838 74.0882 134.627 74.2999 134.415L77.0523 132.721C77.4757 132.509 77.6874 132.509 78.1109 132.721L81.0749 134.415C81.2866 134.627 81.2866 134.838 81.0749 135.05L78.3226 136.744C78.1109 136.956 77.6874 136.956 77.4757 136.744Z" fill="#F7F7F7"/>
<path fill-rule="evenodd" clip-rule="evenodd" d="M76.6289 132.509V132.086H69.4304L69.6422 132.509C69.6422 132.721 69.6422 132.721 69.8539 132.933L72.8179 134.627C73.0297 134.838 73.4531 134.838 73.6648 134.627L76.4171 132.721C76.6289 132.721 76.6289 132.721 76.6289 132.509Z" fill="#D6D6D6"/>
<path fill-rule="evenodd" clip-rule="evenodd" d="M72.818 134.203L69.6422 132.298C69.4305 132.298 69.4305 131.874 69.6422 131.874L72.3945 129.969C72.6062 129.969 73.0297 129.969 73.2414 129.969L76.4172 131.874C76.6289 131.874 76.6289 132.086 76.4172 132.298L73.6648 134.203C73.4531 134.203 73.0297 134.203 72.818 134.203Z" fill="#F7F7F7"/>
<path fill-rule="evenodd" clip-rule="evenodd" d="M71.971 129.969V129.334H64.7726L64.9843 129.969C64.9843 129.969 64.9843 130.18 65.196 130.18L68.1601 131.874C68.3718 132.086 68.7953 132.086 69.007 131.874L71.7593 130.18C71.971 129.969 71.971 129.969 71.971 129.969Z" fill="#D6D6D6"/>
<path fill-rule="evenodd" clip-rule="evenodd" d="M68.1601 131.451L64.9843 129.757C64.7726 129.545 64.7726 129.334 64.9843 129.122L67.7367 127.428C67.9484 127.216 68.3718 127.216 68.5836 127.428L71.7593 129.122C71.971 129.334 71.971 129.545 71.7593 129.545L69.007 131.451C68.7953 131.663 68.3718 131.663 68.1601 131.451Z" fill="#F7F7F7"/>
<path fill-rule="evenodd" clip-rule="evenodd" d="M67.3132 127.217V126.793H60.1148L60.3265 127.217V127.428L63.5023 129.334C63.714 129.334 64.1374 129.334 64.3491 129.334L67.1015 127.428C67.3132 127.428 67.3132 127.217 67.3132 127.217Z" fill="#D6D6D6"/>
<path fill-rule="evenodd" clip-rule="evenodd" d="M63.5023 128.699L60.3265 127.005C60.1148 126.793 60.1148 126.581 60.3265 126.37L63.0788 124.676C63.2906 124.464 63.714 124.464 63.9257 124.676L67.1015 126.37C67.3132 126.581 67.3132 126.793 67.1015 127.005L64.3491 128.699C64.1374 128.91 63.714 128.91 63.5023 128.699Z" fill="#F7F7F7"/>
<path fill-rule="evenodd" clip-rule="evenodd" d="M62.6554 124.464V124.041H55.457V124.464C55.457 124.676 55.6687 124.676 55.6687 124.888L58.8445 126.581C59.0562 126.793 59.4797 126.793 59.6914 126.581L62.4437 124.676C62.6554 124.676 62.6554 124.676 62.6554 124.464Z" fill="#D6D6D6"/>
<path fill-rule="evenodd" clip-rule="evenodd" d="M58.8445 126.158L55.6688 124.252C55.457 124.252 55.457 123.829 55.6688 123.829L58.4211 121.924C58.6328 121.924 59.0563 121.924 59.268 121.924L62.4437 123.829C62.6555 123.829 62.6555 124.041 62.4437 124.252L59.6914 126.158C59.4797 126.158 59.0563 126.158 58.8445 126.158Z" fill="#F7F7F7"/>
<path fill-rule="evenodd" clip-rule="evenodd" d="M57.9976 121.923V121.288H50.7992V121.923L51.0109 122.135L54.1867 123.829C54.3984 124.041 54.8218 124.041 55.0335 123.829L57.7859 122.135C57.9976 121.923 57.9976 121.923 57.9976 121.923Z" fill="#D6D6D6"/>
<path fill-rule="evenodd" clip-rule="evenodd" d="M54.1867 123.405L51.0109 121.712C50.7992 121.5 50.7992 121.288 51.0109 121.077L53.7633 119.383C53.975 119.171 54.3984 119.171 54.6101 119.383L57.7859 121.077C57.9976 121.288 57.9976 121.5 57.7859 121.5L55.0336 123.405C54.8218 123.617 54.3984 123.617 54.1867 123.405Z" fill="#F7F7F7"/>
<path fill-rule="evenodd" clip-rule="evenodd" d="M53.3399 119.171V118.536L46.1414 118.748V119.171L46.3532 119.383L49.5289 121.288C49.7406 121.288 50.1641 121.288 50.3758 121.288L53.1281 119.383C53.3399 119.383 53.3399 119.171 53.3399 119.171Z" fill="#D6D6D6"/>
<path fill-rule="evenodd" clip-rule="evenodd" d="M49.529 120.653L46.3532 118.959C46.1415 118.748 46.1415 118.536 46.3532 118.324L49.1055 116.63C49.3172 116.419 49.7407 116.419 49.9524 116.63L53.1282 118.324C53.3399 118.536 53.3399 118.748 53.1282 118.959L50.3758 120.653C50.1641 120.865 49.7407 120.865 49.529 120.653Z" fill="#F7F7F7"/>
<path fill-rule="evenodd" clip-rule="evenodd" d="M48.682 116.419L48.4703 115.995H41.4836V116.419C41.4836 116.631 41.6953 116.631 41.6953 116.842L44.8711 118.536C45.0828 118.748 45.5062 118.748 45.718 118.536L48.4703 116.631C48.4703 116.631 48.682 116.631 48.682 116.419Z" fill="#D6D6D6"/>
<path fill-rule="evenodd" clip-rule="evenodd" d="M44.6594 118.113L41.6953 116.207C41.4836 116.207 41.4836 115.784 41.6953 115.784L44.4477 113.878C44.6594 113.878 45.0828 113.878 45.2945 113.878L48.4703 115.784C48.682 115.784 48.682 115.995 48.4703 116.207L45.718 118.113C45.2945 118.113 45.0828 118.113 44.6594 118.113Z" fill="#F7F7F7"/>
<path fill-rule="evenodd" clip-rule="evenodd" d="M44.0242 113.878L43.8125 113.243H36.8258V113.878L37.0375 114.09L40.2132 115.784C40.425 115.995 40.8484 115.995 41.0601 115.784L43.8125 114.09C43.8125 113.878 44.0242 113.878 44.0242 113.878Z" fill="#D6D6D6"/>
<path fill-rule="evenodd" clip-rule="evenodd" d="M40.0017 115.36L37.0376 113.666C36.8259 113.455 36.8259 113.243 37.0376 113.031L39.7899 111.337C40.0017 111.126 40.4251 111.126 40.6368 111.337L43.6009 113.031C44.0243 113.243 44.0243 113.455 43.8126 113.455L41.0602 115.36C40.6368 115.572 40.4251 115.572 40.0017 115.36Z" fill="#F7F7F7"/>
<path fill-rule="evenodd" clip-rule="evenodd" d="M129.558 162.15C128.711 162.15 127.865 161.938 127.229 161.515L120.878 157.916C119.608 157.069 119.608 155.798 120.878 154.951L124.477 153.046C122.995 154.105 121.936 154.74 121.725 155.587C121.725 155.375 121.725 155.375 121.725 155.375V155.587C121.513 155.798 121.513 155.798 121.513 156.01C121.513 156.645 121.725 157.28 122.36 157.492L125.959 159.609C126.594 160.033 127.441 160.244 128.076 160.244H128.288L128.5 160.456L128.923 160.668C128.923 160.668 129.135 160.668 129.347 160.668C129.347 160.668 129.347 160.668 129.558 160.668V160.456V160.668C129.558 160.668 129.77 160.668 129.982 160.668L146.284 151.352C146.708 151.141 146.708 150.929 146.708 150.505V150.294C146.919 150.294 147.131 150.082 147.131 149.87H147.343C148.613 150.717 148.613 151.987 147.343 152.834L132.099 161.515C131.464 161.938 130.617 162.15 129.558 162.15Z" fill="#E5E5E5"/>
<path fill-rule="evenodd" clip-rule="evenodd" d="M146.919 148.812C147.131 149.023 147.131 149.447 146.708 149.659L141.838 151.564C139.933 152.199 138.027 153.258 136.333 154.528L130.617 158.762C129.347 159.609 127.441 159.821 125.959 158.974L122.36 156.857C121.725 156.433 121.513 155.798 121.725 155.375C121.301 156.222 121.513 157.069 122.36 157.492L125.959 159.609C127.441 160.456 129.347 160.456 130.617 159.398L136.333 155.163C138.027 153.893 139.933 152.834 141.838 152.199L146.708 150.294C147.343 150.082 147.554 149.023 146.919 148.812Z" fill="#C7C7C7"/>
<path fill-rule="evenodd" clip-rule="evenodd" d="M146.708 149.659L141.838 151.564C139.933 152.199 138.027 153.258 136.333 154.528L130.617 158.762C129.347 159.609 127.441 159.821 125.959 158.974L122.36 156.857C120.031 155.587 123.419 153.893 128.5 150.082C130.829 148.388 138.874 144.154 141.415 145.636L146.708 148.6C147.131 149.023 147.131 149.447 146.708 149.659Z" fill="#EDEDED"/>
<path fill-rule="evenodd" clip-rule="evenodd" d="M128.076 160.244L128.923 160.668C129.135 160.668 129.347 160.668 129.558 160.668V160.033C129.135 160.033 128.5 160.244 128.076 160.244Z" fill="#737373"/>
<path fill-rule="evenodd" clip-rule="evenodd" d="M146.708 150.294L141.838 152.199C139.933 152.834 138.027 153.893 136.333 155.163L130.617 159.398C130.405 159.609 129.982 159.821 129.558 160.033V160.668C129.558 160.668 129.77 160.668 129.982 160.668L146.284 151.352C146.708 151.141 146.708 150.929 146.708 150.505V150.294Z" fill="#808080"/>
<path fill-rule="evenodd" clip-rule="evenodd" d="M128.5 160.456L128.288 160.245L128.5 160.456Z" fill="#C3C3C3"/>
<path fill-rule="evenodd" clip-rule="evenodd" d="M129.135 160.668C128.923 160.668 128.711 160.456 128.5 160.456L128.288 160.244C128.076 160.244 128.076 160.244 128.076 160.244C128.5 160.244 129.135 160.033 129.558 160.033V160.456C129.347 160.456 129.135 160.668 129.135 160.668Z" fill="#626262"/>
<path fill-rule="evenodd" clip-rule="evenodd" d="M129.558 160.456V160.033C129.982 159.821 130.405 159.609 130.617 159.398L136.333 155.163C138.027 153.893 139.933 152.834 141.838 152.199L146.708 150.294V150.505L142.05 152.411C140.144 153.046 138.239 154.105 136.545 155.375L131.04 159.609C130.617 159.821 129.982 160.244 129.558 160.456Z" fill="#6D6D6D"/>
<path fill-rule="evenodd" clip-rule="evenodd" d="M143.743 146.906C141.626 147.33 138.662 148.388 136.757 149.447V149.658H136.968C138.874 148.6 141.838 147.33 143.955 147.118L143.743 146.906Z" fill="#B8B8B8"/>
<path fill-rule="evenodd" clip-rule="evenodd" d="M136.757 149.659H136.968C138.874 148.6 141.838 147.33 143.955 147.118C141.626 147.33 138.662 148.6 136.757 149.659Z" fill="white"/>
<g clip-path="url(#clip0_222_59041)">
<path d="M90.6626 61.4641L98.2672 57.0726L99.4378 59.0992L90.6626 64.1656L85.3976 55.0464L86.5674 54.371L90.6626 61.4641Z" fill="white"/>
</g>
<path d="M67.6334 64.8518L67.1834 63.9118C67.5673 63.736 68.0195 63.7984 68.5402 64.099C68.9858 64.3563 69.3388 64.6824 69.5991 65.0773C69.8594 65.467 69.9896 65.8631 69.9896 66.2656C69.9896 66.7496 69.8087 67.0044 69.4469 67.0299C69.7116 67.2591 69.9146 67.5343 70.0558 67.8552C70.197 68.1762 70.2676 68.4972 70.2676 68.8182C70.2676 69.2971 70.1043 69.59 69.7778 69.697C69.4513 69.804 69.0299 69.7085 68.5137 69.4104C67.7504 68.9697 67.1966 68.3291 66.8525 67.4884L67.415 67.1942C67.5121 67.505 67.6643 67.7839 67.8717 68.031C68.0835 68.2756 68.3041 68.4641 68.5335 68.5965C68.8115 68.757 69.0211 68.8042 69.1623 68.7379C69.3079 68.6742 69.3807 68.538 69.3807 68.3291C69.3807 67.8094 69.0586 67.3636 68.4144 66.9917L68.0173 66.7624L68.0173 65.9064L68.4144 66.1357C68.6394 66.2656 68.8181 66.3128 68.9505 66.2771C69.0829 66.2363 69.1491 66.1141 69.1491 65.9103C69.1491 65.7218 69.0961 65.546 68.9902 65.3829C68.8843 65.2199 68.7277 65.0785 68.5203 64.9588C68.1409 64.7397 67.8452 64.7041 67.6334 64.8518ZM73.1374 69.0842L73.1374 68.6562L73.9448 69.1224L73.9448 72.4315L73.1374 71.9653L73.1374 71.5373C72.9212 71.7692 72.6278 71.7781 72.2571 71.5641C71.8247 71.3144 71.4718 70.94 71.1982 70.4407C70.929 69.9439 70.7945 69.4484 70.7945 68.9542C70.7945 68.4549 70.9268 68.1136 71.1916 67.9302C71.4563 67.7468 71.7983 67.776 72.2174 68.0181C72.6322 68.2575 72.9388 68.6129 73.1374 69.0842ZM72.9918 69.558C72.8418 69.293 72.652 69.0943 72.4226 68.9619C72.1932 68.8294 72.0034 68.809 71.8534 68.9007C71.7034 68.9924 71.6284 69.1708 71.6284 69.4357C71.6284 69.7006 71.7034 69.9681 71.8534 70.2381C72.0034 70.5031 72.1932 70.7018 72.4226 70.8342C72.652 70.9667 72.8418 70.9871 72.9918 70.8954C73.1418 70.7986 73.2168 70.6177 73.2168 70.3528C73.2168 70.0878 73.1418 69.8229 72.9918 69.558ZM74.7147 69.5668L75.5221 70.033L75.5221 71.3169L76.5943 70.652L77.6003 71.2328L76.3031 71.9589L77.6665 74.5802L76.634 73.9841L75.6412 72.0429L75.5221 72.1117L75.5221 73.3421L74.7147 72.8759L74.7147 69.5668ZM80.2212 73.174L80.2212 72.746L81.0287 73.2122L81.0287 76.5213L80.2212 76.0552L80.2212 75.6272C80.005 75.859 79.7116 75.8679 79.341 75.6539C78.9085 75.4043 78.5556 75.0298 78.282 74.5305C78.0128 74.0338 77.8783 73.5383 77.8783 73.0441C77.8783 72.5448 78.0106 72.2034 78.2754 72.02C78.5401 71.8366 78.8821 71.8659 79.3012 72.1079C79.716 72.3474 80.0227 72.7027 80.2212 73.174ZM80.0756 73.6478C79.9256 73.3829 79.7359 73.1842 79.5064 73.0517C79.277 72.9193 79.0872 72.8989 78.9372 72.9906C78.7872 73.0823 78.7122 73.2606 78.7122 73.5255C78.7122 73.7905 78.7872 74.058 78.9372 74.328C79.0872 74.5929 79.277 74.7916 79.5064 74.9241C79.7359 75.0566 79.9256 75.0769 80.0756 74.9852C80.2256 74.8884 80.3006 74.7076 80.3006 74.4426C80.3006 74.1777 80.2256 73.9128 80.0756 73.6478ZM82.0897 74.7113L81.719 73.9165C82.0191 73.8146 82.3809 73.8859 82.8045 74.1305C83.1266 74.3164 83.3803 74.5368 83.5656 74.7915C83.7818 75.0845 83.8899 75.3813 83.8899 75.6819C83.8899 75.9876 83.7575 76.1481 83.4928 76.1633C83.634 76.2856 83.7597 76.4321 83.87 76.6028C84.0156 76.8397 84.0884 77.0855 84.0884 77.3403C84.0884 77.6612 83.9781 77.8523 83.7575 77.9134C83.5369 77.9797 83.2236 77.8956 82.8177 77.6612C82.3059 77.3657 81.8955 76.9454 81.5867 76.4002L81.9838 76.064C82.2 76.4232 82.4559 76.6881 82.7515 76.8588C82.9368 76.9658 83.067 77.0027 83.142 76.9696C83.217 76.9365 83.2545 76.8715 83.2545 76.7747C83.2545 76.6524 83.2038 76.5314 83.1023 76.4117C83.0317 76.3302 82.917 76.2436 82.7581 76.1519L82.4206 75.957L82.4206 75.2845L82.7449 75.4717C82.8905 75.5558 82.9964 75.5914 83.0626 75.5787C83.1288 75.566 83.1619 75.5086 83.1619 75.4067C83.1619 75.1826 83.0163 74.9864 82.725 74.8183C82.478 74.6756 82.2662 74.64 82.0897 74.7113ZM86.5957 76.7855C86.8869 76.6429 87.273 76.7104 87.7539 76.9881C88.2349 77.2657 88.6209 77.644 88.9122 78.1229C89.2343 78.6452 89.3953 79.1712 89.3953 79.7011C89.3953 80.2259 89.2343 80.5634 88.9122 80.7137C88.6209 80.8563 88.2349 80.7888 87.7539 80.5112C87.273 80.2335 86.8869 79.8552 86.5957 79.3763C86.2736 78.8541 86.1126 78.3306 86.1126 77.8058C86.1126 77.2759 86.2736 76.9358 86.5957 76.7855ZM87.1781 79.0782C87.3326 79.3508 87.5245 79.5533 87.7539 79.6858C87.9834 79.8183 88.1753 79.8374 88.3297 79.7431C88.4842 79.6489 88.5614 79.4744 88.5614 79.2196C88.5614 78.9598 88.4842 78.6936 88.3297 78.421C88.1753 78.1484 87.9834 77.9459 87.7539 77.8134C87.5245 77.681 87.3326 77.6619 87.1781 77.7561C87.0237 77.8504 86.9465 78.0274 86.9465 78.2872C86.9465 78.542 87.0237 78.8057 87.1781 79.0782ZM91.5156 84.3261L91.5156 82.6218L91.4494 82.5836C91.0435 82.3492 90.7081 82.0461 90.4434 81.6742C90.0639 81.1494 89.8742 80.5813 89.8742 79.9699C89.8742 79.3687 90.0639 79.0197 90.4434 78.9229C90.7081 78.8618 91.0435 78.9484 91.4494 79.1828L91.5156 79.221L91.5156 77.4785L92.323 77.9447L92.323 79.6872L92.3892 79.7254C92.7996 79.9623 93.1349 80.2629 93.3952 80.6272C93.7747 81.1621 93.9644 81.7302 93.9644 82.3314C93.9644 82.9428 93.7747 83.2918 93.3952 83.3784C93.1305 83.4446 92.7952 83.3606 92.3892 83.1262L92.323 83.088L92.323 84.7922L91.5156 84.3261ZM91.5156 81.7964L91.5156 80.0464C91.317 79.9215 91.1472 79.8744 91.006 79.905C90.8074 79.9483 90.7081 80.1304 90.7081 80.4514C90.7081 80.7826 90.8052 81.0781 90.9993 81.3379C91.1317 81.5213 91.3038 81.6742 91.5156 81.7964ZM92.323 80.5125L92.323 82.2626C92.5348 82.3849 92.7069 82.4308 92.8393 82.4002C93.0334 82.3645 93.1305 82.1811 93.1305 81.8499C93.1305 81.529 93.0312 81.2322 92.8327 80.9596C92.6915 80.766 92.5216 80.617 92.323 80.5125ZM94.9269 81.5956C95.2181 81.4529 95.6042 81.5204 96.0852 81.7981C96.5661 82.0758 96.9522 82.4541 97.2434 82.933C97.5655 83.4552 97.7265 83.9812 97.7265 84.5111C97.7265 85.0359 97.5655 85.3734 97.2434 85.5237C96.9522 85.6664 96.5661 85.5989 96.0852 85.3212C95.6042 85.0435 95.2181 84.6652 94.9269 84.1863C94.6048 83.6641 94.4438 83.1406 94.4438 82.6158C94.4438 82.0859 94.6048 81.7459 94.9269 81.5956ZM95.5094 83.8883C95.6638 84.1608 95.8557 84.3634 96.0852 84.4958C96.3146 84.6283 96.5065 84.6474 96.661 84.5531C96.8154 84.4589 96.8926 84.2844 96.8926 84.0296C96.8926 83.7698 96.8154 83.5036 96.661 83.231C96.5065 82.9584 96.3146 82.7559 96.0852 82.6235C95.8557 82.491 95.6638 82.4719 95.5094 82.5661C95.3549 82.6604 95.2777 82.8374 95.2777 83.0973C95.2777 83.352 95.3549 83.6157 95.5094 83.8883ZM99.1585 86.5606L99.1585 88.7387L98.351 88.2725L98.351 83.2133L99.1585 83.6795L99.1585 84.1074C99.3747 83.8756 99.6858 83.8769 100.092 84.1113C100.489 84.3405 100.815 84.6768 101.071 85.1201C101.358 85.6168 101.501 86.1378 101.501 86.6829C101.501 87.2433 101.351 87.6025 101.051 87.7605C100.787 87.8929 100.462 87.8484 100.078 87.6267C99.6946 87.4051 99.3879 87.0497 99.1585 86.5606ZM99.8733 84.8105C99.6659 84.6908 99.4916 84.6641 99.3504 84.7303C99.1695 84.8042 99.0791 84.9889 99.0791 85.2844C99.0791 85.585 99.1673 85.8754 99.3438 86.1556C99.4894 86.3874 99.6659 86.5632 99.8733 86.6829C100.089 86.8077 100.27 86.8332 100.416 86.7593C100.584 86.6778 100.668 86.4919 100.668 86.2014C100.668 85.9161 100.586 85.6372 100.423 85.3646C100.273 85.1201 100.089 84.9354 99.8733 84.8105ZM101.821 88.5259L102.344 85.5186L102.94 85.8626L103.727 88.2202L104.515 86.772L105.111 87.1159L105.633 90.7269L104.826 90.2607L104.588 88.3272L103.873 89.7105L103.582 89.5423L102.867 87.3337L102.629 88.9921L101.821 88.5259ZM108.791 89.2406L108.791 92.5498L107.983 92.0836L107.983 89.5693L107.202 89.1184L107.202 90.3335C107.202 90.7615 107.112 91.0353 106.931 91.155C106.75 91.285 106.492 91.2531 106.157 91.0595C106.068 91.0086 105.989 90.9525 105.918 90.8914L105.918 90.0966C105.971 90.1373 106.013 90.1666 106.044 90.1845C106.19 90.2685 106.3 90.2787 106.375 90.215C106.441 90.1615 106.474 90.0405 106.474 89.852L106.474 87.9032L108.791 89.2406ZM111.63 93.1268L112.371 93.6923C112.34 93.7662 112.298 93.8337 112.246 93.8948C112.197 93.9534 112.12 94.0184 112.014 94.0897C111.908 94.1559 111.765 94.1776 111.584 94.1547C111.403 94.1266 111.195 94.0451 110.962 93.9101C110.512 93.6503 110.145 93.2834 109.863 92.8096C109.563 92.3103 109.413 91.7932 109.413 91.2582C109.413 90.7283 109.558 90.3793 109.85 90.2112C110.123 90.0584 110.483 90.1106 110.928 90.3679C111.414 90.6481 111.787 91.0442 112.047 91.5563C112.276 92.0046 112.391 92.5039 112.391 93.0542L112.391 93.1306L110.247 91.8925C110.247 92.1167 110.293 92.3294 110.386 92.5307C110.518 92.816 110.71 93.0312 110.962 93.1764C111.262 93.3497 111.484 93.3331 111.63 93.1268ZM110.273 91.3117L111.63 92.095C111.599 91.8632 111.518 91.6531 111.385 91.4646C111.257 91.2735 111.112 91.1308 110.948 91.0366C110.789 90.9449 110.644 90.9194 110.512 90.9602C110.384 91.0035 110.304 91.1207 110.273 91.3117ZM113.016 94.9894L113.016 91.6803L113.824 92.1465L113.824 93.3158L114.949 93.9654L114.949 92.7961L115.756 93.2623L115.756 96.5714L114.949 96.1052L114.949 94.7602L113.824 94.1106L113.824 95.4556L113.016 94.9894ZM117.386 95.961L116.566 95.4872L116.566 91.9412L117.386 92.415L117.386 95.961ZM116.605 96.9928C116.508 96.8195 116.46 96.6489 116.46 96.4807C116.46 96.3126 116.508 96.2005 116.605 96.1445C116.707 96.0859 116.83 96.0986 116.976 96.1827C117.122 96.2667 117.243 96.3954 117.34 96.5686C117.441 96.7393 117.492 96.9087 117.492 97.0768C117.492 97.245 117.441 97.3583 117.34 97.4169C117.243 97.473 117.122 97.4589 116.976 97.3749C116.83 97.2908 116.707 97.1634 116.605 96.9928Z" fill="white"/>
<defs>
<clipPath id="clip0_222_59041">
<rect width="22.927" height="22.927" fill="white" transform="matrix(0.866025 0.5 -2.20305e-08 1 82.389 42.1938)"/>
</clipPath>
</defs>
</svg>
