<svg width="170" height="170" viewBox="0 0 170 170" fill="none" xmlns="http://www.w3.org/2000/svg">
<path d="M161.552 110.889L124.357 89.9917C123.298 89.3863 116.813 89.3863 115.753 89.9917L24.3898 147.361C23.4815 147.967 23.4815 149.329 24.3898 149.783L52.0948 165.068C53.1546 165.673 54.3657 165.673 55.4255 165.068L164.797 131.292C165.857 130.687 162.461 111.343 161.552 110.889Z" fill="url(#paint0_linear_222_58085)"/>
<path d="M53.912 164.16L61.936 150.993L60.1192 149.934C59.0595 149.328 57.6969 149.48 56.1829 150.237C53.155 151.901 50.5814 156.139 50.5814 159.619C50.5814 161.284 51.1869 162.495 52.0953 163.1H52.2467L53.912 164.16Z" fill="black"/>
<path d="M60.5731 151.75L57.2424 149.782C56.9396 149.934 56.6368 150.085 56.334 150.236C53.3061 151.901 50.7325 156.139 50.7325 159.619C50.7325 160.225 50.7325 160.83 50.8838 161.284L52.852 162.495C53.3062 162.343 53.7603 162.192 54.3659 161.889C54.9715 161.587 55.4257 161.133 56.0313 160.679L60.2703 153.717C60.4216 153.112 60.5731 152.506 60.5731 151.75Z" fill="#1F1F1F"/>
<path d="M63.4493 154.474C63.4493 157.955 60.8755 162.192 57.8477 163.857C54.8198 165.522 52.3975 164.16 52.3975 160.679C52.3975 157.198 54.9712 152.961 57.9991 151.296C61.1783 149.631 63.6007 150.993 63.4493 154.474Z" fill="#2A2A2A"/>
<path d="M63.2976 154.625C63.2976 157.955 60.8753 162.041 57.8474 163.554C54.9709 165.219 52.5486 163.857 52.5486 160.527C52.5486 157.198 54.971 153.112 57.9988 151.598C61.0267 149.934 63.2976 151.296 63.2976 154.625Z" fill="#1D1D1D"/>
<path d="M62.0872 155.231C62.0872 157.803 60.1191 160.981 57.8482 162.192C55.5772 163.403 53.7605 162.343 53.7605 159.771C53.7605 157.198 55.7286 154.02 57.9996 152.809C60.2705 151.598 62.0872 152.658 62.0872 155.231Z" fill="#3B3B3B"/>
<path d="M61.7843 155.382C61.7843 157.803 59.9676 160.679 57.848 161.889C55.7285 163.1 54.0632 162.041 54.0632 159.771C54.0632 157.349 55.8799 154.474 57.9994 153.263C60.119 152.052 61.7843 152.96 61.7843 155.382Z" fill="#575757"/>
<path d="M57.9994 153.263C55.8799 154.474 54.2146 157.349 54.0632 159.771C54.0632 160.073 54.0632 160.376 54.2146 160.679L56.9397 162.343C57.2425 162.192 57.5453 162.192 57.848 161.889C59.9676 160.679 61.6329 157.955 61.7843 155.533L57.9994 153.263Z" fill="#515151"/>
<path d="M55.8798 155.231C55.1229 156.29 54.5173 157.349 54.2145 158.56L58.7563 161.284C59.6647 160.527 60.4216 159.468 61.0272 158.257L55.8798 155.231Z" fill="#E9EAE7"/>
<path d="M55.8798 155.231C55.1229 156.29 54.5173 157.349 54.2145 158.56L58.7563 161.284C59.6647 160.527 60.4216 159.468 61.0272 158.257L55.8798 155.231Z" fill="#373737"/>
<path d="M61.178 155.533C61.178 157.652 59.6641 160.073 57.8474 161.133C56.0307 162.192 54.5168 161.284 54.5168 159.317C54.5168 157.198 56.0307 154.776 57.8474 153.717C59.6641 152.658 61.178 153.414 61.178 155.533Z" fill="#434343"/>
<path d="M61.178 156.442C61.178 158.106 59.9669 160.074 58.4529 160.83C56.939 161.587 55.8793 160.982 55.8793 159.317C55.8793 157.652 57.0904 155.685 58.6043 154.928C59.9669 154.171 61.178 154.777 61.178 156.442Z" fill="black"/>
<path d="M56.4855 148.572L57.5453 159.62L55.4257 158.106L50.7326 151.599L56.4855 148.572Z" fill="#C4C4C4"/>
<path d="M58.6051 150.085L59.6649 157.652L57.5454 159.619L52.8522 153.112L58.6051 150.085Z" fill="#828282"/>
<path d="M24.5411 147.058L32.565 133.892L30.7483 132.833C29.6885 132.227 28.326 132.379 26.8121 133.135C23.7842 134.8 21.2105 139.038 21.2105 142.518C21.2105 144.183 21.816 145.394 22.7244 145.999H22.8758L24.5411 147.058Z" fill="black"/>
<path d="M31.2029 134.8L27.8723 132.833C27.5695 132.984 27.2667 133.136 26.9639 133.287C23.9361 134.952 21.3624 139.189 21.3624 142.67C21.3624 143.275 21.3624 143.881 21.5138 144.335L23.4819 145.545C23.9361 145.394 24.3903 145.243 24.9959 144.94C25.6014 144.637 26.0556 144.183 26.6611 143.729L30.9002 136.768C31.0516 136.162 31.0515 135.406 31.2029 134.8Z" fill="#1F1F1F"/>
<path d="M34.0792 137.373C34.0792 140.854 31.5055 145.091 28.4776 146.756C25.4497 148.421 23.0275 147.058 23.0275 143.578C23.0275 140.097 25.6011 136.011 28.6289 134.195C31.6568 132.53 34.0792 133.892 34.0792 137.373Z" fill="#2A2A2A"/>
<path d="M33.7762 137.524C33.7762 140.854 31.354 144.94 28.3261 146.453C25.4496 148.118 23.0273 146.756 23.0273 143.426C23.0273 140.097 25.4496 136.011 28.4775 134.497C31.5053 132.833 33.9276 134.195 33.7762 137.524Z" fill="#1D1D1D"/>
<path d="M32.5655 138.13C32.5655 140.702 30.5974 143.88 28.3264 145.091C26.0555 146.302 24.2388 145.242 24.2388 142.67C24.2388 140.097 26.2069 136.919 28.4778 135.708C30.9001 134.497 32.7169 135.557 32.5655 138.13Z" fill="#3B3B3B"/>
<path d="M32.4138 138.281C32.4138 140.702 30.597 143.578 28.4775 144.788C26.358 145.999 24.6927 144.94 24.6927 142.67C24.6927 140.248 26.5094 137.373 28.6289 136.162C30.7484 134.951 32.4138 136.011 32.4138 138.281Z" fill="#585858"/>
<path d="M28.4772 136.162C26.3577 137.373 24.6924 140.248 24.5411 142.669C24.5411 142.972 24.541 143.275 24.6924 143.578L27.4175 145.242C27.7203 145.091 28.0231 145.091 28.3259 144.788C30.4454 143.578 32.1107 140.853 32.2621 138.432L28.4772 136.162Z" fill="#313131"/>
<path d="M26.3576 138.13C25.6007 139.189 24.9952 140.248 24.6924 141.459L29.2341 144.183C30.1425 143.426 30.8994 142.367 31.505 141.156L26.3576 138.13Z" fill="#E9EAE7"/>
<path d="M26.3576 138.13C25.6007 139.189 24.9952 140.248 24.6924 141.459L29.2341 144.183C30.1425 143.426 30.8994 142.367 31.505 141.156L26.3576 138.13Z" fill="#373737"/>
<path d="M31.6567 138.432C31.6567 140.551 30.1428 142.972 28.326 144.032C26.5093 145.091 24.9953 144.183 24.9953 142.216C24.9953 140.097 26.5093 137.676 28.326 136.616C30.1428 135.557 31.6567 136.465 31.6567 138.432Z" fill="#434343"/>
<path d="M31.6567 139.34C31.6567 141.005 30.4455 142.973 28.9316 143.729C27.4177 144.486 26.3579 143.881 26.3579 142.216C26.3579 140.551 27.5691 138.584 29.083 137.827C30.4456 137.07 31.6567 137.676 31.6567 139.34Z" fill="black"/>
<path d="M73.2896 113.764L81.3134 100.598L79.4967 99.5386C78.437 98.9332 77.0744 99.0846 75.5605 99.8412C72.5327 101.506 69.959 105.743 69.959 109.224C69.959 110.889 70.5645 112.1 71.4729 112.705H71.6243L73.2896 113.764Z" fill="black"/>
<path d="M79.8001 101.355L76.4695 99.3872C76.1667 99.5385 75.8639 99.6899 75.5611 99.8412C72.5332 101.506 69.9595 105.743 69.9595 109.224C69.9595 109.83 69.9595 110.435 70.1109 110.889L72.079 112.1C72.5332 111.948 72.9874 111.797 73.593 111.494C74.1985 111.192 74.6527 110.738 75.2583 110.284L79.4974 103.322C79.8001 102.717 79.8001 101.96 79.8001 101.355Z" fill="#1F1F1F"/>
<path d="M82.8276 103.927C82.8276 107.408 80.254 111.494 77.2261 113.31C74.1983 114.975 71.776 113.613 71.776 110.132C71.776 106.651 74.3497 102.414 77.3775 100.749C80.4053 99.0846 82.8276 100.598 82.8276 103.927Z" fill="#2A2A2A"/>
<path d="M82.5247 104.079C82.5247 107.408 80.1023 111.494 77.0745 113.008C74.198 114.672 71.7757 113.31 71.7757 109.981C71.7757 106.652 74.198 102.565 77.2259 101.052C80.2538 99.3873 82.5247 100.749 82.5247 104.079Z" fill="#1D1D1D"/>
<path d="M81.3136 104.835C81.3136 107.408 79.3455 110.586 77.0746 111.797C74.8037 113.008 72.9869 111.948 72.9869 109.376C72.9869 106.803 74.9551 103.625 77.226 102.414C79.4969 101.203 81.465 102.263 81.3136 104.835Z" fill="#3B3B3B"/>
<path d="M81.0109 104.987C81.0109 107.408 79.1942 110.283 77.0747 111.494C74.9552 112.705 73.2899 111.645 73.2899 109.375C73.2899 106.954 75.1066 104.079 77.2261 102.868C79.3456 101.506 81.1623 102.565 81.0109 104.987Z" fill="#575757"/>
<path d="M77.2256 102.717C75.1061 103.927 73.4408 106.803 73.2894 109.224C73.2894 109.527 73.2894 109.829 73.4408 110.132L76.1659 111.797C76.4687 111.645 76.7714 111.645 77.0742 111.343C79.1938 110.132 80.8591 107.408 81.0105 104.987L77.2256 102.717Z" fill="#515151"/>
<path d="M75.1069 104.684C74.3499 105.743 73.7444 106.803 73.4416 108.014L77.9834 110.738C78.8917 109.981 79.6487 108.922 80.2543 107.711L75.1069 104.684Z" fill="#E9EAE7"/>
<path d="M75.1069 104.684C74.3499 105.743 73.7444 106.803 73.4416 108.014L77.9834 110.738C78.8917 109.981 79.6487 108.922 80.2543 107.711L75.1069 104.684Z" fill="#FFC123"/>
<path d="M80.4055 104.987C80.4055 107.105 78.8916 109.527 77.0749 110.586C75.2582 111.646 73.7443 110.738 73.7443 108.77C73.7443 106.651 75.2582 104.23 77.0749 103.171C78.8916 102.111 80.4055 103.019 80.4055 104.987Z" fill="#434343"/>
<path d="M80.4055 105.895C80.4055 107.56 79.1944 109.527 77.6805 110.284C76.1665 111.04 75.1068 110.435 75.1068 108.77C75.1068 107.106 76.3179 105.138 77.8319 104.381C79.1944 103.625 80.4055 104.23 80.4055 105.895Z" fill="#D92800"/>
<path d="M112.047 135.859L120.071 122.693L118.254 121.634C117.194 121.028 115.832 121.18 114.318 121.936C111.29 123.601 108.716 127.839 108.716 131.319C108.716 132.984 109.322 134.195 110.23 134.8H110.382L112.047 135.859Z" fill="black"/>
<path d="M118.709 123.45L115.378 121.482C115.075 121.634 114.772 121.785 114.47 121.936C111.442 123.601 108.868 127.839 108.868 131.319C108.868 131.925 108.868 132.53 109.02 132.984L110.988 134.195C111.442 134.043 111.896 133.892 112.502 133.589C113.107 133.287 113.561 132.833 114.167 132.379L118.406 125.417C118.557 124.812 118.709 124.055 118.709 123.45Z" fill="#1F1F1F"/>
<path d="M121.585 126.174C121.585 129.655 119.011 133.892 115.983 135.557C112.955 137.222 110.533 135.86 110.533 132.379C110.533 128.898 113.107 124.661 116.135 122.996C119.163 121.18 121.585 122.693 121.585 126.174Z" fill="#2A2A2A"/>
<path d="M121.434 126.174C121.434 129.503 119.011 133.59 115.983 135.103C113.107 136.768 110.685 135.406 110.685 132.076C110.685 128.747 113.107 124.661 116.135 123.147C119.011 121.483 121.434 122.845 121.434 126.174Z" fill="#1D1D1D"/>
<path d="M120.223 126.931C120.223 129.503 118.255 132.681 115.984 133.892C113.713 135.103 111.896 134.043 111.896 131.471C111.896 128.898 113.864 125.72 116.135 124.509C118.406 123.299 120.223 124.358 120.223 126.931Z" fill="#3B3B3B"/>
<path d="M119.919 127.082C119.919 129.503 118.103 132.379 115.983 133.589C113.864 134.8 112.198 133.741 112.198 131.471C112.198 129.049 114.015 126.174 116.135 124.963C118.254 123.601 119.919 124.66 119.919 127.082Z" fill="#585858"/>
<path d="M115.983 124.812C113.863 126.022 112.198 128.898 112.047 131.319C112.047 131.622 112.047 131.925 112.198 132.227L114.923 133.892C115.226 133.741 115.529 133.741 115.832 133.438C117.951 132.227 119.616 129.503 119.768 127.082L115.983 124.812Z" fill="#313131"/>
<path d="M113.864 126.779C113.107 127.839 112.502 128.898 112.199 130.109L116.741 132.833C117.649 132.076 118.406 131.017 119.012 129.806L113.864 126.779Z" fill="#E9EAE7"/>
<path d="M113.864 126.779C113.107 127.839 112.502 128.898 112.199 130.109L116.741 132.833C117.649 132.076 118.406 131.017 119.012 129.806L113.864 126.779Z" fill="#373737"/>
<path d="M119.162 127.233C119.162 129.352 117.649 131.773 115.832 132.833C114.015 133.892 112.501 132.984 112.501 131.017C112.501 128.898 114.015 126.477 115.832 125.417C117.8 124.207 119.162 125.115 119.162 127.233Z" fill="#434343"/>
<path d="M119.162 127.99C119.162 129.655 117.951 131.622 116.437 132.379C114.923 133.135 113.864 132.53 113.864 130.865C113.864 129.201 115.075 127.233 116.589 126.477C118.103 125.72 119.162 126.477 119.162 127.99Z" fill="black"/>
<path d="M114.772 120.272L115.831 131.168L113.712 129.806L109.019 123.299L114.772 120.272Z" fill="#C4C4C4"/>
<path d="M116.891 121.785L117.951 129.352L115.832 131.168L111.138 124.812L116.891 121.785Z" fill="#828282"/>
<path d="M27.1148 129.655L29.083 130.411L26.0551 140.248L21.3619 133.892L27.1148 129.655Z" fill="#C4C4C4"/>
<path d="M29.084 131.168L30.2951 139.946L28.1756 141.762L23.4824 135.406L29.084 131.168Z" fill="#828282"/>
<path d="M51.0352 153.566C52.2463 153.566 53.6088 153.264 54.6686 152.81L115.983 124.055C117.043 123.601 117.8 122.391 117.951 121.18C117.951 119.969 117.345 118.759 116.286 118.153L82.3736 98.4793C79.4971 96.8146 75.8637 96.9659 73.1386 98.782L22.876 133.136C21.9676 133.741 21.3621 134.8 21.3621 136.011C21.3621 137.222 21.9677 138.13 23.0274 138.735L46.7962 152.507C48.0073 153.264 49.5212 153.566 51.0352 153.566ZM77.9832 99.9927C79.043 99.9927 80.1027 100.295 81.0111 100.749L114.923 120.423C115.226 120.575 115.226 120.877 115.226 121.029C115.226 121.18 115.226 121.331 114.923 121.483L53.6089 150.237C51.7922 150.993 49.824 150.993 48.1587 149.934L24.3899 136.162C24.0871 136.011 24.0871 135.86 24.0871 135.708C24.0871 135.557 24.0871 135.406 24.3899 135.254L74.6525 101.052C75.5609 100.447 76.7721 99.9927 77.9832 99.9927Z" fill="#C4C4C4"/>
<path d="M50.5807 152.658C51.7919 152.658 53.003 152.356 54.0628 151.902L115.377 123.147C116.285 122.693 116.891 121.785 116.891 120.877C116.891 119.818 116.437 118.91 115.528 118.456L81.6164 98.782C80.4052 98.0253 79.0427 97.7227 77.5287 97.7227C75.8634 97.7227 74.3495 98.1767 72.9869 99.0847L22.7244 133.438C21.9674 133.892 21.5133 134.8 21.5133 135.86C21.5133 136.768 22.1188 137.676 22.8758 138.13L46.6445 151.902C47.7043 152.356 49.0668 152.658 50.5807 152.658ZM77.3773 99.0847C78.5885 99.0847 79.6483 99.3874 80.708 99.9927L114.62 119.667C115.074 119.969 115.226 120.272 115.226 120.726C115.226 121.18 114.923 121.634 114.469 121.785L53.1544 150.539C52.246 150.993 51.3377 151.145 50.2779 151.145C49.0668 151.145 48.0071 150.842 46.9473 150.237L23.1786 136.465C22.8758 136.314 22.573 135.86 22.573 135.406C22.573 134.952 22.7244 134.649 23.0272 134.346L73.7439 100.295C74.8037 99.5387 76.0148 99.0847 77.3773 99.0847Z" fill="#E0E0E0"/>
<path d="M77.9841 99.0844L79.0439 106.803L76.9244 108.619L72.2311 102.262L77.9841 99.0844Z" fill="#828282"/>
<path d="M47.5535 152.658C49.3702 152.658 50.8841 150.539 52.398 148.572C53.155 147.513 54.2147 145.999 54.8203 145.848L112.047 118.91L114.923 120.575C115.68 121.029 116.892 123.601 117.346 122.845C119.465 119.667 114.469 114.824 113.561 115.278L112.047 115.732L82.2225 98.4792C81.4655 98.0252 80.5572 96.6632 79.6488 95.6038C77.8321 93.1824 75.5612 90.1557 72.9875 91.8204L22.725 126.023C20.9082 127.233 21.0596 133.287 21.0596 134.044C21.211 137.373 21.8166 138.281 22.5735 138.584L46.3423 152.355C46.7965 152.507 47.0993 152.658 47.5535 152.658ZM109.17 117.094L53.6092 143.275C52.398 143.881 51.3383 145.394 50.1271 146.907C49.3701 147.815 48.159 149.631 47.5535 149.783L24.0874 136.314C23.4819 134.952 23.7847 129.503 24.3903 128.141L74.6528 94.0905C75.2584 94.0905 76.7723 96.2092 77.5293 97.2685C78.7405 98.7819 79.8002 100.295 81.0114 100.901L109.17 117.094Z" fill="#C4C4C4"/>
<path d="M47.0987 151.75C48.6126 151.75 50.1266 149.632 51.3378 147.815C52.3975 146.302 53.3058 145.091 53.9114 144.789L111.138 117.851C111.744 117.548 112.349 117.699 112.652 118.153L113.712 119.364C113.863 119.515 115.074 122.239 115.226 122.239C115.529 122.239 116.134 121.937 116.285 121.634C117.042 120.726 112.955 115.127 112.803 115.278L111.592 116.035L81.6164 98.7821C80.8595 98.328 79.7997 96.966 78.8913 95.7553C77.5288 93.9392 75.8635 91.6692 74.1982 91.6692C73.744 91.6692 73.4412 91.8205 72.987 92.1232L22.7244 126.477C21.6647 127.234 21.2104 130.714 21.3618 133.892C21.5132 137.373 22.2702 137.827 22.573 137.979L46.3417 151.75C46.4931 151.75 46.7959 151.75 47.0987 151.75ZM74.1982 93.1826C74.8037 93.1826 75.7121 94.0906 77.5288 96.6633C78.5885 98.1767 79.6483 99.5387 80.7081 100.144L110.078 116.943L53.4572 143.578C52.3975 144.032 51.3377 145.545 50.278 147.059C49.0668 148.875 48.1585 149.934 47.5529 150.237L47.2501 150.388L23.3299 136.616L23.1786 136.465C22.573 134.952 22.7244 129.201 23.4814 127.839V127.688L73.8954 93.3339L74.1982 93.1826Z" fill="#E0E0E0"/>
<path d="M106.446 118.456C106.446 118.456 106.9 119.061 107.96 118.758C109.322 118.304 109.171 117.85 109.171 117.85L105.689 103.019L110.079 101.052L113.258 115.732L114.621 117.548L116.438 117.245L112.199 97.1171L102.358 101.355L106.446 118.456Z" fill="#828282"/>
<path d="M106.899 118.758C107.051 118.758 107.051 118.758 107.202 118.758C108.111 118.456 107.959 117.699 107.959 117.699L104.477 103.019L109.927 100.598L113.258 115.883L114.318 117.245L115.226 117.094L111.139 98.1764L102.358 101.96L106.294 118.607C106.445 118.607 106.597 118.758 106.899 118.758Z" fill="#B8B8B8"/>
<path d="M69.8081 101.355C69.8081 101.355 70.2623 102.263 71.322 101.809C72.6846 101.355 72.3818 99.9927 72.3818 99.9927L69.0511 85.7669L73.4416 83.7995L76.6208 98.4793L77.9834 100.295L79.8001 99.9927L75.5611 79.8647L65.7205 84.1022L69.8081 101.355Z" fill="#828282"/>
<path d="M76.319 40.8192C77.2273 40.3652 78.1357 39.9112 79.1954 39.7599L79.801 28.7122V27.3502L76.0162 27.1989L75.8648 30.6796L75.2592 41.4246L76.319 40.8192Z" fill="#B8B8B8"/>
<path d="M74.6541 53.5319L76.168 52.6239C76.925 52.1698 77.682 51.8672 78.5904 51.5645L79.1959 41.7275C78.5903 41.8789 77.9848 42.1816 77.3792 42.4842L75.2597 43.6949L74.6541 53.5319Z" fill="#B8B8B8"/>
<path d="M73.8972 65.7903L75.7139 64.7309C75.8653 64.5796 76.1681 64.5796 76.4708 64.4282C76.925 64.2769 77.3792 64.1256 77.8333 63.9742L78.4389 53.8346C77.9847 53.9859 77.5306 54.1373 77.0764 54.4399L74.5027 55.9533L73.8972 65.7903Z" fill="#B8B8B8"/>
<path d="M73.291 76.5353L77.0758 76.6866L77.6814 65.9417C77.3786 66.093 77.0758 66.2443 76.773 66.3957L76.4703 66.547L73.8965 68.0604L73.291 76.5353Z" fill="#B8B8B8"/>
<path d="M15.9128 109.224C16.0642 109.375 16.0641 109.375 16.0641 109.375L16.3669 109.527L22.1199 112.856C22.1199 112.856 22.1199 112.856 22.2713 112.856L27.8728 116.186C27.8728 116.186 28.0242 116.186 28.1756 116.337C28.1756 116.337 28.1756 116.337 28.327 116.337L33.6257 119.364C33.7771 119.515 33.9286 119.515 34.08 119.666L34.5341 119.818C35.7453 120.423 37.2592 120.726 38.6218 120.726C39.6815 120.726 40.5899 120.574 41.4982 120.272C41.6496 120.272 41.9524 120.12 42.1038 120.12L107.203 95.755C108.717 95.1496 109.928 93.7876 110.231 92.2742C110.231 91.8202 110.382 91.3662 110.231 90.9122L110.079 88.9448C110.079 88.4908 110.079 88.1881 109.928 87.7341L107.203 86.2207C107.203 87.2801 107.354 88.1881 107.506 89.2475L107.657 90.7608V91.0635C107.657 91.8202 107.354 92.8796 106.295 93.3336L41.1954 117.699C40.1357 118.153 38.9245 118.304 37.7134 118.153C36.805 118.002 36.048 117.85 35.2911 117.396L34.9883 117.245C34.8369 117.245 34.8369 117.245 34.6855 117.094L34.2313 116.791L29.084 113.764L28.0242 113.159L23.0283 110.283L21.6657 109.527L16.9725 106.803L15.9128 109.224Z" fill="#828282"/>
<path d="M15.4584 108.921L15.7611 109.073L15.9126 109.224L16.0639 109.375H16.2154L21.5142 112.402L27.1156 115.58C27.267 115.732 27.5699 115.732 27.7212 115.883C27.7212 115.883 27.8727 115.883 28.0241 116.034C28.0241 116.034 28.024 116.034 28.1754 116.034H28.3269L28.6296 116.186C29.8407 116.64 31.0519 116.791 32.263 116.791C32.8686 116.791 33.6256 116.791 34.2311 116.64C34.5339 116.64 34.8367 116.488 35.1395 116.337C35.2909 116.337 35.4423 116.186 35.7451 116.186L100.844 91.8203C102.51 91.2149 103.569 89.8529 103.872 88.1882C103.872 87.7342 104.023 87.2802 103.872 86.9775L103.721 85.1614C103.721 84.7074 103.569 84.2534 103.569 83.7994L100.844 82.286C100.996 83.3454 100.996 84.4047 101.147 85.4641L101.298 86.9775V87.4315C101.298 88.1882 100.996 89.2475 99.9359 89.7016L34.8367 114.067C33.777 114.521 32.7172 114.672 31.5061 114.521C30.7491 114.521 29.9921 114.218 29.2352 114.067V113.916L28.781 113.764H28.6296L28.1754 113.462L22.8766 110.435L21.9683 109.829L17.4265 107.105L16.8209 106.803H16.6696V107.862L15.4584 108.921Z" fill="#828282"/>
<path d="M15.3076 108.77L15.9132 109.375L16.216 109.526L20.9092 112.251C21.212 112.402 21.3634 112.553 21.6662 112.553C21.8176 112.553 21.9689 112.705 22.1203 112.705C22.1203 112.705 22.1204 112.705 22.2718 112.705H22.4231H22.5745C23.6342 113.159 24.8455 113.31 26.0566 113.31C26.6622 113.31 27.4191 113.31 28.0247 113.159C28.3275 113.159 28.4789 113.007 28.7817 113.007C28.7817 113.007 28.7816 113.007 28.933 113.007C29.0844 113.007 29.2358 112.856 29.3872 112.856L94.4864 88.4905C96.1517 87.8852 97.2115 86.5232 97.5143 84.8584C97.5143 84.4044 97.5143 84.1017 97.5143 83.6477L97.3629 81.3777C97.3629 81.075 97.3629 80.621 97.2115 80.3183L94.4864 78.8049C94.4864 79.713 94.6378 80.7723 94.7892 81.6803L94.9406 83.4964V83.9504C94.9406 84.7071 94.6378 85.7665 93.578 86.2205L28.4789 110.586C27.4191 111.04 26.3594 111.191 25.1482 111.04C24.3912 111.04 23.7857 110.889 23.0287 110.586H22.8773H22.7259H22.5745C22.4231 110.586 22.2717 110.434 22.1203 110.283L21.6662 109.98L17.1244 107.408L16.5188 107.105H16.3674L15.9132 106.954V108.164L14.7021 108.77H15.3076Z" fill="#828282"/>
<path d="M15.3074 108.77L15.7616 109.375H15.913H16.0644V109.527H16.3672C17.4269 109.829 18.4867 109.981 19.395 109.981C20.0006 109.981 20.7576 109.981 21.3631 109.829C21.6659 109.829 21.9688 109.678 22.2715 109.527C22.4229 109.527 22.5743 109.375 22.7257 109.375L87.8248 85.01C89.4901 84.4046 90.5499 83.0426 90.8527 81.3778C90.8527 81.0752 90.8527 80.6212 90.8527 80.1671L90.7013 78.3511C90.7013 77.8971 90.5499 77.4431 90.5499 76.8377L87.8248 75.3243C87.9762 76.3837 87.9762 77.4431 88.1276 78.5024L88.279 79.8645V80.3185C88.279 81.0752 87.9762 82.1345 86.9164 82.5886L21.8173 106.954C20.7575 107.257 19.6978 107.408 18.6381 107.408C18.0325 107.408 17.427 107.257 16.9728 107.105L16.8213 106.954L16.0644 106.803H15.913H15.7616H15.3074V108.013L14.0963 108.619L15.3074 108.77Z" fill="#828282"/>
<path d="M11.2198 106.046C11.9768 106.197 12.7337 106.349 13.4907 106.349C14.5504 106.349 15.6102 106.197 16.5186 105.895C16.6699 105.895 16.8214 105.743 16.9728 105.743L82.0719 81.378C83.7373 80.7726 84.797 79.4106 85.0998 77.5945C85.0998 77.2918 85.0998 76.8378 85.0998 76.5352L84.9484 75.3245C84.9484 74.7191 84.797 73.9624 84.797 73.3571C84.0401 73.0544 83.1317 72.903 82.2233 72.7517C82.2233 73.6597 82.3747 74.5678 82.5261 75.4758L82.6775 76.5352V76.6865C82.6775 77.4432 82.3747 78.5025 81.315 78.9566L16.2158 103.322C15.3075 103.625 14.2477 103.776 13.188 103.776C12.7338 103.776 12.2795 103.776 11.9768 103.625H11.674V104.835L11.2198 106.046Z" fill="#828282"/>
<path d="M38.1677 119.818C39.0761 119.818 39.9845 119.666 40.8928 119.364C41.0442 119.364 41.347 119.212 41.4984 119.212L106.598 94.8471C107.96 94.3931 109.02 93.1824 109.171 91.8203C109.171 91.5176 109.323 91.0636 109.171 90.6096C109.171 90.6096 108.868 88.0369 108.868 87.7342L107.354 86.8262C107.354 87.1288 107.809 90.7609 107.809 90.7609C107.96 91.8203 107.354 93.031 105.992 93.6364L40.8928 118.002C39.9845 118.304 39.0761 118.456 38.0163 118.456C37.7135 118.456 37.4108 118.456 37.108 118.456C36.1996 118.304 35.2913 118.153 34.5343 117.699L34.2315 117.548C34.0801 117.548 34.0801 117.396 33.9287 117.396L16.8213 107.559L16.0643 108.77L21.6659 111.948H21.8172L21.9687 112.1L27.7216 115.429L28.0244 115.58H28.1758L33.4745 118.607C33.6259 118.607 33.9287 118.91 33.9287 118.91L34.3829 119.061C35.594 119.515 36.9566 119.818 38.1677 119.818Z" fill="#E0E0E0"/>
<path d="M31.9606 116.186C32.5662 116.186 33.1718 116.186 33.9288 116.034C34.2315 116.034 34.5343 115.883 34.8371 115.883C35.1399 115.883 35.2913 115.732 35.4427 115.732L100.39 91.2151C101.753 90.7611 102.813 89.5504 102.964 88.037C102.964 87.7343 103.116 87.2803 102.964 86.8263L102.813 85.0102C102.813 84.7076 102.661 84.2535 102.661 83.9509L101.147 83.0428C101.147 83.7995 101.299 84.4049 101.299 85.1616L101.45 87.129C101.602 88.1883 100.996 89.399 99.6335 90.0044L34.5343 114.37C33.626 114.672 32.7176 114.824 31.8093 114.824C31.5065 114.824 31.3551 114.824 31.0523 114.824C30.2953 114.824 29.3869 114.521 28.6299 114.218L27.873 113.916L27.2675 113.462L21.9687 110.435L16.5185 107.257V107.862L15.913 108.468H16.0643L16.2158 108.619L21.5145 111.646H21.6659V111.797L27.116 114.824C27.2674 114.975 27.4189 114.975 27.5703 115.126L27.873 115.278L28.0244 115.429L28.4786 115.58C29.6897 116.034 30.7495 116.186 31.9606 116.186Z" fill="#E0E0E0"/>
<path d="M25.6026 112.554C26.2082 112.554 26.8138 112.554 27.4193 112.402H27.5708C27.7222 112.402 27.8735 112.251 28.1763 112.251H28.3277H28.4791L28.7819 112.1L93.8811 87.7344C95.2436 87.2803 96.3033 86.0696 96.4547 84.5563C96.4547 84.2536 96.4547 83.7996 96.4547 83.4969C96.4547 83.4969 96.152 80.7728 96.152 80.4702L94.638 79.5621C94.638 80.1675 94.9408 83.0429 94.9408 83.0429V83.4969C95.0922 84.5563 94.4866 85.767 93.2754 86.3723L28.1763 110.738C27.2679 111.04 26.3596 111.192 25.4512 111.192C25.1484 111.192 24.9971 111.192 24.6943 111.192C23.9373 111.192 23.1803 111.04 22.4234 110.738L22.1206 110.586H21.9692L21.8178 110.435L21.6664 110.284C21.515 110.284 21.3636 110.132 21.2122 109.981L20.7581 109.678L15.762 106.803V107.56L15.1565 107.862L15.3079 108.014L15.1565 108.165L20.3038 111.192C20.6066 111.343 20.758 111.494 20.9094 111.494H21.0608L21.2122 111.646H21.3636L21.6664 111.797H21.8178C23.4831 112.402 24.5428 112.554 25.6026 112.554Z" fill="#E0E0E0"/>
<path d="M19.2438 109.073C19.8494 109.073 20.4549 109.073 21.0605 108.922C21.5147 108.77 21.8175 108.77 22.1202 108.619C22.2716 108.619 22.423 108.468 22.5744 108.468L87.6736 84.1023C89.0361 83.6483 90.0959 82.4376 90.2473 80.9242C90.2473 80.4702 90.2473 80.1675 90.2473 79.8648L89.9445 76.8381L88.4306 75.9301L88.7333 79.4108V79.8648C88.8847 80.9242 88.2792 82.1349 86.9166 82.7402L21.8174 107.106C20.9091 107.408 20.0008 107.56 18.941 107.56C18.7896 107.56 18.4868 107.56 18.3354 107.56C17.7298 107.56 17.1243 107.408 16.5187 107.257H16.3673L16.216 107.106L15.7617 106.954H15.6104V107.711L15.0047 108.014L15.1562 108.165L15.0047 108.316H15.1562L15.3075 108.468H15.459H15.6104C17.2757 108.77 18.3355 109.073 19.2438 109.073Z" fill="#E0E0E0"/>
<path d="M13.0358 105.441C13.9442 105.441 15.004 105.289 15.9123 104.987L16.3665 104.835L81.4657 80.47C82.8282 80.016 83.888 78.6539 84.0394 77.1406C84.0394 76.8379 84.0394 76.5352 84.0394 76.0812C84.0394 76.0812 83.7366 73.8111 83.7366 73.3571C83.2824 73.2058 82.8282 73.0544 82.374 73.0544C82.374 73.5085 82.5254 73.9625 82.5254 74.4165L82.6768 76.2325C82.8282 77.4432 82.2226 78.6539 81.0115 79.108L15.9123 103.473C15.004 103.776 14.0956 103.927 13.1873 103.927C13.0359 103.927 12.733 103.927 12.733 103.927C12.4302 103.927 12.1275 103.927 11.8247 103.776V104.381L11.6733 105.138C11.9761 105.289 12.5816 105.441 13.0358 105.441Z" fill="#E0E0E0"/>
<path d="M72.4948 76.4744L109.265 98.7551L107.931 100.955L71.1606 78.6746L72.4948 76.4744Z" fill="#AEAEAE"/>
<path d="M66.3636 78.743L103.129 101.024L101.795 103.224L65.0294 80.943L66.3636 78.743Z" fill="#AEAEAE"/>
<path d="M58.7364 81.0034L95.5063 103.284L94.1722 105.484L57.4022 83.2036L58.7364 81.0034Z" fill="#AEAEAE"/>
<path d="M53 83.9168L89.77 106.193L88.436 108.393L51.6661 86.117L53 83.9168Z" fill="#AEAEAE"/>
<path d="M45.8817 85.9714L82.6473 108.252L81.3131 110.452L44.5475 88.1714L45.8817 85.9714Z" fill="#AEAEAE"/>
<path d="M39.6237 88.5594L76.3936 110.84L75.0594 113.04L38.2895 90.7596L39.6237 88.5594Z" fill="#AEAEAE"/>
<path d="M33.4646 91.9452L70.2303 114.226L68.8961 116.426L32.1304 94.1451L33.4646 91.9452Z" fill="#AEAEAE"/>
<path d="M26.2984 93.9863L63.0684 116.267L61.7342 118.467L24.9642 96.1865L26.2984 93.9863Z" fill="#AEAEAE"/>
<path d="M19.3874 96.1538L56.153 118.435L54.8188 120.635L18.0532 98.3537L19.3874 96.1538Z" fill="#AEAEAE"/>
<path d="M72.7483 76.7802L108.616 98.4993L107.91 99.6642L72.0423 77.9452L72.7483 76.7802Z" fill="#E0E0E0"/>
<path d="M66.6765 79.129L102.544 100.848L101.838 102.013L65.9706 80.2939L66.6765 79.129Z" fill="#E0E0E0"/>
<path d="M59.1158 81.3999L94.9836 103.119L94.2777 104.284L58.4099 82.5648L59.1158 81.3999Z" fill="#E0E0E0"/>
<path d="M53.35 84.2814L89.2178 106L88.5118 107.165L52.644 85.4463L53.35 84.2814Z" fill="#E0E0E0"/>
<path d="M46.2736 86.2292L82.1415 107.948L81.4356 109.113L45.5677 87.3942L46.2736 86.2292Z" fill="#E0E0E0"/>
<path d="M40.0859 88.8213L75.9537 110.54L75.2478 111.705L39.38 89.9862L40.0859 88.8213Z" fill="#E0E0E0"/>
<path d="M33.7273 92.1229L69.5951 113.842L68.8892 115.007L33.0214 93.2879L33.7273 92.1229Z" fill="#E0E0E0"/>
<path d="M26.7526 94.2691L62.6205 115.988L61.9145 117.153L26.0467 95.4341L26.7526 94.2691Z" fill="#E0E0E0"/>
<path d="M19.6595 96.3064L55.5273 118.025L54.8214 119.19L18.9535 97.4713L19.6595 96.3064Z" fill="#E0E0E0"/>
<path d="M64.6613 80.0159L66.6295 79.8645L63.4502 36.8846L61.6334 37.036L64.6613 80.0159Z" fill="#828282"/>
<path d="M56.9204 41.1763L59.9883 82.3757L58.1767 82.5105L55.1087 41.3111L56.9204 41.1763Z" fill="#828282"/>
<path d="M50.162 45.4858L53.2495 84.8624L51.4384 85.0043L48.3509 45.6277L50.162 45.4858Z" fill="#828282"/>
<path d="M43.5611 49.7749L46.6509 87.3298L44.8404 87.4787L41.7506 49.9238L43.5611 49.7749Z" fill="#828282"/>
<path d="M36.8113 54.0567L39.8951 89.791L38.0851 89.9471L35.0014 54.2128L36.8113 54.0567Z" fill="#828282"/>
<path d="M30.2073 58.1649L33.2814 92.2303L31.472 92.3935L28.3978 58.328L30.2073 58.1649Z" fill="#828282"/>
<path d="M23.5991 62.4996L26.7013 94.7368L24.8929 94.9107L21.7907 62.6735L23.5991 62.4996Z" fill="#828282"/>
<path d="M16.8792 66.8268L19.9241 97.2441L18.1164 97.425L15.0715 67.0076L16.8792 66.8268Z" fill="#828282"/>
<path d="M10.2914 71.1013L13.3807 99.6887L11.5745 99.8838L8.48521 71.2964L10.2914 71.1013Z" fill="#828282"/>
<path d="M70.6803 32.714L72.7869 77.6118L70.9722 77.6969L68.8656 32.7991L70.6803 32.714Z" fill="#828282"/>
<path d="M62.5702 37.5556L65.5605 79.3713L64.8055 79.4253L61.8151 37.6096L62.5702 37.5556Z" fill="#B8B8B8"/>
<path d="M58.9082 81.8317L55.8803 41.8785H55.1233L58.1512 81.983L58.9082 81.8317Z" fill="#B8B8B8"/>
<path d="M49.2289 46.1744L52.2079 84.348L51.4532 84.4069L48.4741 46.2333L49.2289 46.1744Z" fill="#B8B8B8"/>
<path d="M45.5858 86.826L42.5579 50.3536L41.8009 50.505L44.8288 86.9773L45.5858 86.826Z" fill="#B8B8B8"/>
<path d="M38.9246 89.3985L35.8967 54.7422H35.1397L38.1676 89.3985H38.9246Z" fill="#B8B8B8"/>
<path d="M32.263 91.82L29.2351 58.9797L28.4781 59.1311L31.506 91.9713L32.263 91.82Z" fill="#B8B8B8"/>
<path d="M22.5379 63.2519L25.4972 94.2872L24.7436 94.359L21.7843 63.3237L22.5379 63.2519Z" fill="#B8B8B8"/>
<path d="M15.9791 67.5885L18.9431 96.9489L18.19 97.0248L15.226 67.6645L15.9791 67.5885Z" fill="#B8B8B8"/>
<path d="M9.22521 71.8662L12.1786 99.4031L11.4259 99.4837L8.47256 71.9468L9.22521 71.8662Z" fill="#B8B8B8"/>
<path d="M71.6252 77.1404L69.6571 33.4038H68.9001L70.8682 77.1404H71.6252Z" fill="#B8B8B8"/>
<path d="M33.6255 89.8528L37.8646 92.2742L62.6931 83.0426L77.0756 73.6597L33.6255 89.8528Z" fill="#C4C4C4"/>
<path d="M12.7335 97.7223V98.479L12.8849 100.9L13.0363 101.808C13.1877 101.657 13.3391 101.506 13.6419 101.354L33.323 94.0902L29.084 91.6688L12.7335 97.7223Z" fill="#C4C4C4"/>
<path d="M79.0429 65.1847C81.3138 64.2767 83.8875 64.428 86.007 65.6387L112.955 81.2265L114.469 82.1345C115.074 82.4372 115.529 83.0425 115.68 83.6479C115.68 83.3452 115.68 82.8912 115.68 82.2859C115.831 81.2265 116.74 81.6805 116.74 81.6805C116.437 81.2265 115.983 80.7725 115.377 80.4698L113.106 79.2591L86.9153 64.1253C84.493 62.7633 81.768 62.4606 79.1943 63.3686L79.0429 65.1847Z" fill="#828282"/>
<path d="M114.318 81.2263C114.47 80.9236 114.621 80.7722 114.772 80.6209C114.621 80.4696 114.47 80.4696 114.318 80.3182L86.0075 63.9738C84.645 63.2171 82.9797 62.7631 81.4657 62.7631C80.7088 62.7631 79.8004 62.9144 79.0434 63.0657V63.8224C79.8004 63.5198 80.5574 63.5197 81.4657 63.5197C82.9797 63.5197 84.3422 63.9738 85.7047 64.5791L114.015 81.0749C114.167 81.0749 114.167 81.2263 114.318 81.2263Z" fill="#C4C4C4"/>
<path d="M79.6494 53.0778C81.9203 52.1697 84.494 52.3211 86.6135 53.5318L113.562 69.1196L115.076 70.0276C115.681 70.3303 116.135 70.9356 116.287 71.541C116.287 71.2383 116.287 70.7843 116.287 70.1789C116.438 69.1196 117.346 69.5736 117.346 69.5736C117.044 69.1196 116.589 68.6655 115.984 68.3629L113.713 67.1522L87.5219 52.0184C85.0996 50.6564 82.3745 50.3537 79.8008 51.2617L79.6494 53.0778Z" fill="#828282"/>
<path d="M114.924 69.1196C115.075 68.8169 115.227 68.6656 115.378 68.5142C115.227 68.3629 115.075 68.3629 114.924 68.2115L86.6134 51.8671C85.2508 51.1104 83.5855 50.6564 82.0716 50.6564C81.3146 50.6564 80.4062 50.8077 79.6493 50.959V51.7157C80.4062 51.4131 81.1632 51.4131 82.0716 51.4131C83.5855 51.4131 84.9481 51.8671 86.3106 52.4724L114.621 68.8169C114.773 68.9682 114.924 69.1196 114.924 69.1196Z" fill="#C4C4C4"/>
<path d="M79.9525 41.4246C82.2234 40.5165 84.797 40.6679 86.9165 41.8786L113.865 57.4664L115.378 58.3744C115.984 58.6771 116.438 59.2824 116.59 59.8878C116.59 59.5851 116.59 59.1311 116.59 58.5257C116.741 57.4664 117.649 57.9204 117.649 57.9204C117.347 57.4664 116.892 57.0123 116.287 56.7097L114.016 55.499L87.8249 40.3652C85.4026 39.0032 82.6775 38.7005 80.1039 39.6085L79.9525 41.4246Z" fill="#828282"/>
<path d="M115.226 57.6179C115.378 57.3152 115.529 57.1638 115.681 57.0125C115.529 56.8612 115.378 56.8612 115.226 56.7098L86.916 40.3654C85.5534 39.6087 83.8881 39.1547 82.3742 39.1547C81.6172 39.1547 80.7089 39.306 79.9519 39.4573V40.214C80.7089 39.9114 81.4658 39.9114 82.3742 39.9114C83.8881 39.9114 85.2506 40.3654 86.6132 40.9707L114.924 57.3152C115.075 57.4665 115.226 57.4665 115.226 57.6179Z" fill="#C4C4C4"/>
<path d="M28.7796 113.159C28.931 113.159 28.931 113.159 28.7796 113.159C28.931 113.007 28.931 113.007 28.7796 113.159L31.5047 114.672C30.7477 114.672 29.9908 114.369 29.2338 114.218V113.915L28.174 113.31C28.3254 113.31 28.6282 113.159 28.7796 113.159ZM28.7796 113.159C28.931 113.159 28.931 113.159 28.7796 113.159C28.931 113.007 28.931 113.007 28.7796 113.159L31.5047 114.672C30.7477 114.672 29.9908 114.369 29.2338 114.218V113.915L28.174 113.31C28.3254 113.31 28.6282 113.159 28.7796 113.159ZM28.7796 113.159C28.931 113.159 28.931 113.159 28.7796 113.159C28.931 113.007 28.931 113.007 28.7796 113.159L31.5047 114.672C30.7477 114.672 29.9908 114.369 29.2338 114.218V113.915L28.174 113.31C28.3254 113.31 28.6282 113.159 28.7796 113.159ZM28.7796 113.159C28.931 113.159 28.931 113.159 28.7796 113.159C28.931 113.007 28.931 113.007 28.7796 113.159L31.5047 114.672C30.7477 114.672 29.9908 114.369 29.2338 114.218V113.915L28.174 113.31C28.3254 113.31 28.6282 113.159 28.7796 113.159ZM28.7796 113.159C28.931 113.159 28.931 113.159 28.7796 113.159C28.931 113.007 28.931 113.007 28.7796 113.159L31.5047 114.672C30.7477 114.672 29.9908 114.369 29.2338 114.218V113.915L28.174 113.31C28.3254 113.31 28.6282 113.159 28.7796 113.159ZM28.7796 113.159C28.931 113.159 28.931 113.159 28.7796 113.159C28.931 113.007 28.931 113.007 28.7796 113.159L31.5047 114.672C30.7477 114.672 29.9908 114.369 29.2338 114.218V113.915L28.174 113.31C28.3254 113.31 28.6282 113.159 28.7796 113.159ZM33.6242 89.8528L37.8632 92.2742L33.3214 93.9389L29.0824 91.5175L33.6242 89.8528ZM28.7796 113.159C28.931 113.159 28.931 113.159 28.7796 113.159C28.931 113.007 28.931 113.007 28.7796 113.159L31.5047 114.672C30.7477 114.672 29.9908 114.369 29.2338 114.218V113.915L28.174 113.31C28.3254 113.31 28.6282 113.159 28.7796 113.159ZM28.7796 113.159C28.931 113.159 28.931 113.159 28.7796 113.159C28.931 113.007 28.931 113.007 28.7796 113.159L31.5047 114.672C30.7477 114.672 29.9908 114.369 29.2338 114.218V113.915L28.174 113.31C28.3254 113.31 28.6282 113.159 28.7796 113.159ZM28.7796 113.159C28.931 113.159 28.931 113.159 28.7796 113.159C28.931 113.007 28.931 113.007 28.7796 113.159L31.5047 114.672C30.7477 114.672 29.9908 114.369 29.2338 114.218V113.915L28.174 113.31C28.3254 113.31 28.6282 113.159 28.7796 113.159ZM28.7796 113.159C28.931 113.159 28.931 113.159 28.7796 113.159C28.931 113.007 28.931 113.007 28.7796 113.159L31.5047 114.672C30.7477 114.672 29.9908 114.369 29.2338 114.218V113.915L28.174 113.31C28.3254 113.31 28.6282 113.159 28.7796 113.159Z" fill="#C4C4C4"/>
<path d="M11.5219 107.408L39.5297 123.601C41.195 124.509 43.0117 124.963 44.8285 124.963C46.0396 124.963 47.4021 124.812 48.6133 124.358L113.712 99.9924C115.681 99.2357 116.892 97.571 117.194 95.4522C117.346 93.3335 116.437 91.5175 114.621 90.4581L109.928 87.734L107.203 86.2206L103.569 84.1019L100.844 82.5885L97.2105 80.4698L94.4855 78.9564L90.8521 76.8377L88.1269 75.3243L86.3103 74.265C85.7047 73.9623 85.0991 73.6596 84.4935 73.3569H84.3421L78.7406 76.989C79.9517 76.535 81.1629 76.535 82.374 76.6864C83.131 76.8377 83.8879 77.1404 84.4935 77.4431L84.7963 77.5944L88.5812 79.8645L91.1548 81.3778L94.9396 83.4966L97.5133 85.0099L101.298 87.28L103.72 88.642L107.505 90.9121L109.928 92.2741L112.35 93.6362C113.107 94.0902 113.107 94.8469 113.107 95.1496C113.107 95.4522 112.955 96.2089 112.198 96.5116L47.0994 120.877C45.1312 121.634 43.0118 121.482 41.3464 120.423L37.713 118.304L35.1393 116.791L31.5059 114.672C30.7489 114.672 29.9919 114.369 29.235 114.218V113.915L28.1752 113.31C28.478 113.31 28.6294 113.159 28.9322 113.159C28.9322 113.159 28.9322 113.159 29.0836 113.159L25.4501 111.04L22.8764 109.527L19.243 107.408L16.5179 105.895L13.49 104.078C13.49 104.078 13.3387 104.078 13.3387 103.927L13.1873 103.776C12.7331 103.322 12.7331 102.868 12.7331 102.565C12.7331 102.414 12.8845 101.96 13.1873 101.657L13.0359 100.749L12.8845 98.3276V97.571L12.5817 97.7223C11.0678 98.3276 10.0081 99.387 9.40248 100.9C9.25109 101.354 9.09968 101.808 9.09968 102.262C8.6455 104.381 9.70522 106.349 11.5219 107.408Z" fill="#C4C4C4"/>
<path d="M29.5374 93.6361L75.1068 67.3034L77.6805 65.79L77.9833 65.6387C78.2861 65.4873 78.5888 65.336 78.8916 65.1847L79.043 63.2173C78.5888 63.3686 78.1347 63.52 77.6805 63.6713C77.5291 63.8226 77.2263 63.8226 76.9235 63.974L75.1068 65.0333L28.3263 92.1228C28.1749 92.2741 29.3861 93.7875 29.5374 93.6361Z" fill="#828282"/>
<path d="M77.8319 64.7307C78.1347 64.5793 78.8916 64.1253 79.043 63.974V63.2173C78.8916 63.2173 77.6805 63.974 77.6805 63.974C77.5291 63.974 77.3777 64.1253 77.2263 64.1253L28.9318 91.9714C29.0832 92.1228 29.2346 92.4255 29.3859 92.5768L77.8319 64.7307Z" fill="#C4C4C4"/>
<path d="M77.6811 40.0624C78.5894 39.6084 79.4977 39.1544 80.5575 39.003L81.163 27.9554V26.5934L77.3782 26.442L77.2269 29.9228L76.6213 40.6677L77.6811 40.0624Z" fill="#828282"/>
<path d="M76.6209 40.6679L77.5292 40.0626C77.9834 39.7599 78.589 39.4572 79.1946 39.3059L79.8001 28.7122V27.3502L77.2265 27.1989L77.0751 29.9229L76.6209 40.6679Z" fill="#9E9E9E"/>
<path d="M76.0155 52.7748L77.5294 51.8668C78.2863 51.4128 79.0433 51.1101 79.9516 50.8074L80.5572 40.9705C79.9516 41.1218 79.3461 41.4245 78.7405 41.7271L76.621 42.9378L76.0155 52.7748Z" fill="#828282"/>
<path d="M76.0153 52.7749L77.5292 51.8669C77.832 51.7156 78.2862 51.4129 78.7404 51.2616L79.3459 41.7273C78.7404 41.8786 78.1348 42.1813 77.5292 42.484L76.7722 42.938L76.0153 52.7749Z" fill="#9E9E9E"/>
<path d="M75.2584 65.0332L77.0751 63.9738C77.2265 63.8225 77.5293 63.8225 77.832 63.6712C78.2862 63.5198 78.7404 63.3685 79.1946 63.2171L79.8001 53.0775C79.3459 53.2289 78.8918 53.3802 78.4376 53.6829L75.8639 55.1962L75.2584 65.0332Z" fill="#828282"/>
<path d="M75.259 65.0332L77.0758 63.9739C77.2272 63.8225 77.53 63.8225 77.8328 63.6712C77.8328 63.6712 77.8328 63.6712 77.9842 63.6712L78.5897 53.8342C78.1355 53.9856 77.6814 54.1369 77.2272 54.4396L75.8646 55.1963L75.259 65.0332Z" fill="#9E9E9E"/>
<path d="M74.6527 75.7783L78.4375 75.9297L79.043 65.1847C78.7402 65.336 78.4375 65.4874 78.1347 65.6387L77.8319 65.79L75.2582 67.3034L74.6527 75.7783Z" fill="#828282"/>
<path d="M74.6526 75.7781L77.2262 75.9295L77.8318 65.9412C77.529 66.0925 77.2262 66.2438 76.9234 66.3952L76.6206 66.5465L75.2581 67.3032L74.6526 75.7781Z" fill="#9E9E9E"/>
<path d="M107.203 86.2204L109.928 87.7338C109.625 84.253 109.322 80.7723 109.625 77.4429L113.107 41.4245L110.533 41.1218L107.051 77.1402C106.9 80.1669 107.051 83.1937 107.203 86.2204Z" fill="#9E9E9E"/>
<path d="M100.995 82.5886L103.72 84.102C103.417 80.4699 103.115 76.9891 103.417 73.5083L106.445 37.49L103.872 37.3386L100.692 73.357C100.541 76.3837 100.692 79.5618 100.995 82.5886Z" fill="#9E9E9E"/>
<path d="M94.6367 78.9564L97.3618 80.4698C97.059 76.8377 96.7562 73.5083 97.059 70.0275L100.238 34.0091L97.6646 33.8578L94.4853 69.8761C94.1825 72.7516 94.3339 75.9297 94.6367 78.9564Z" fill="#9E9E9E"/>
<path d="M88.2787 75.3243L91.0038 76.8377C90.701 73.3569 90.3983 70.0275 90.8524 66.6981L94.4858 30.5284L91.9121 30.2257L88.2787 66.3954C87.976 69.4222 88.1273 72.2976 88.2787 75.3243Z" fill="#9E9E9E"/>
<path d="M82.0709 72.7516C82.9792 72.7516 83.7362 73.0543 84.6445 73.3569C84.6445 72.4489 84.4932 71.3895 84.6445 70.4815L88.7321 27.1989L86.1585 27.0476L82.0709 70.3302C82.0709 71.0869 82.0709 71.9949 82.0709 72.7516Z" fill="#9E9E9E"/>
<path d="M108.716 86.8261C108.414 83.648 108.262 80.6212 108.565 77.4431L112.047 42.0301L110.684 41.8788L107.202 77.2918C106.9 80.3186 107.051 83.3453 107.354 85.918L108.716 86.8261Z" fill="#B1B1B1"/>
<path d="M102.358 83.1942C102.055 80.1674 101.903 76.838 102.055 73.6599L105.234 38.0956L103.872 37.9442L100.692 73.5086C100.39 76.6867 100.541 79.7134 100.844 82.2861L102.358 83.1942Z" fill="#B1B1B1"/>
<path d="M95.9988 79.4107C95.696 76.0813 95.5446 73.0545 95.8474 69.8765L99.0267 34.3121L97.6641 34.1608L94.4848 69.7251C94.3334 72.2979 94.3335 75.0219 94.6362 78.5027L95.9988 79.4107Z" fill="#B1B1B1"/>
<path d="M89.7918 75.7786C89.489 72.7519 89.3376 69.7251 89.6404 66.6984L93.2738 31.134L91.9113 30.9827L88.2778 66.547C87.9751 69.5738 88.1264 72.6005 88.2778 75.0219L89.7918 75.7786Z" fill="#B1B1B1"/>
<path d="M83.4341 72.6003C83.4341 71.8437 83.4341 71.087 83.4341 70.4816L87.5218 27.8044L86.1592 27.6531L82.0716 70.3303C82.0716 70.9356 82.0716 71.541 82.0716 72.2977C82.5258 72.449 82.9799 72.6003 83.4341 72.6003Z" fill="#B1B1B1"/>
<path d="M31.0711 90.4132L33.5195 117.545L31.71 117.708L29.2616 90.5763L31.0711 90.4132Z" fill="#9E9E9E"/>
<path d="M22.3968 85.2854L24.8452 112.417L23.0357 112.58L20.5873 85.4486L22.3968 85.2854Z" fill="#9E9E9E"/>
<path d="M15.067 81.3861L17.5154 108.518L15.706 108.681L13.2576 81.5493L15.067 81.3861Z" fill="#9E9E9E"/>
<path d="M37.7132 95.6035L38.3187 102.414L38.4701 104.835L39.2271 113.915L39.3785 116.185L39.6813 120.423C39.6813 120.423 39.8326 122.39 41.8008 122.693C43.4661 122.996 43.6175 121.634 43.6175 121.634L43.1633 117.245L43.0119 115.277L42.255 106.197L42.1036 104.23L41.3466 95.4521L37.7132 95.6035Z" fill="#9E9E9E"/>
<path d="M7.13149 78.3512L8.34262 92.1229L8.94813 98.3278L9.25094 100.901L9.40239 103.019C9.40239 103.019 9.55371 104.987 11.219 104.987C12.733 104.987 13.3386 103.776 13.3386 103.776L13.1872 101.506L13.0358 100.598L12.8844 98.1764V97.4197L12.4302 91.5176L12.2788 89.3989L11.219 77.7458L7.13149 78.3512Z" fill="#9E9E9E"/>
<path d="M11.9765 89.7014L12.128 91.8201L75.8646 55.0451L78.4383 53.5317C78.8925 53.229 79.3466 53.0777 79.8008 52.9263L79.9522 50.8076C79.1952 50.959 78.2869 51.413 77.5299 51.867L76.016 52.775L11.9765 89.7014Z" fill="#828282"/>
<path d="M78.1349 52.6237C78.4377 52.4723 79.6488 51.867 80.103 51.7156V50.8076C79.6488 50.959 78.1349 51.7156 77.6807 52.0183L76.1668 52.9263L12.5816 89.7014L12.733 90.6094L78.1349 52.6237Z" fill="#C4C4C4"/>
<path d="M12.5816 77.7458L14.5497 78.8052L76.4696 42.9382L78.5891 41.7275C79.1947 41.4248 79.8002 41.1221 80.4058 40.9708L80.5572 38.8521C79.4974 39.0034 78.5891 39.4574 77.6807 39.9114L76.7724 40.5168L12.5816 77.7458Z" fill="#828282"/>
<path d="M76.3182 42.1814L78.4377 40.9707C78.8919 40.668 80.103 40.3654 80.5572 40.0627V39.1547C79.8002 39.306 78.5891 39.76 77.9835 40.214L77.0752 40.8194L13.7927 77.2918L14.5497 77.7458L76.3182 42.1814Z" fill="#C4C4C4"/>
<path d="M7.43378 80.6211V81.2265C7.43378 81.2265 8.64498 82.4372 8.64498 83.6479C8.64498 84.8586 11.2186 80.9238 11.2186 80.9238V80.7725L11.0672 78.6537V78.3511L7.43378 80.6211Z" fill="#9E9E9E"/>
<path d="M102.358 101.506C103.266 101.657 103.417 100.598 103.417 100.598L100.541 60.1904L98.7241 60.3418L101.601 100.749C101.601 100.598 101.449 101.203 102.358 101.506Z" fill="#828282"/>
<path d="M95.8476 103.776C96.6046 103.625 96.9074 102.868 96.9074 102.868L94.0309 64.4281L92.2141 64.5794L95.0906 103.019C94.9392 103.019 94.9392 103.776 95.8476 103.776Z" fill="#828282"/>
<path d="M89.0352 106.197C89.7922 106.349 90.095 105.289 90.095 105.289L87.2185 68.6655L85.4018 68.8169L88.2782 105.441C88.2782 105.441 88.2782 106.046 89.0352 106.197Z" fill="#828282"/>
<path d="M82.3739 108.921C83.2822 109.224 83.585 108.165 83.585 108.165L80.7085 72.903L78.8918 73.0543L81.7683 107.862C81.6169 108.013 81.4655 108.619 82.3739 108.921Z" fill="#828282"/>
<path d="M75.5607 111.494C76.9232 111.797 76.7718 110.737 76.7718 110.737L73.8953 77.1404L72.0786 77.2917L74.9551 110.435C74.9551 110.586 74.9551 111.343 75.5607 111.494Z" fill="#828282"/>
<path d="M69.0512 113.916C69.8082 114.067 70.111 113.159 70.111 113.159L67.2345 81.5293L65.4178 81.6806L68.2942 113.31C68.2942 113.31 68.2942 113.764 69.0512 113.916Z" fill="#828282"/>
<path d="M62.5411 116.185C63.6008 116.185 63.4494 115.277 63.4494 115.277L60.573 85.7666L58.7563 85.9179L61.6327 115.429C61.6327 115.429 61.6327 116.185 62.5411 116.185Z" fill="#828282"/>
<path d="M55.577 118.91C56.9396 119.061 56.7882 117.85 56.7882 117.85L54.0631 90.1555L52.2464 90.3069L54.9715 118.002C54.8201 117.85 54.9715 118.758 55.577 118.91Z" fill="#828282"/>
<path d="M48.9154 121.482C49.9752 121.634 50.1265 120.574 50.1265 120.574L47.25 94.2417L45.4333 94.393L48.1584 120.423C48.1584 120.574 48.3098 121.482 48.9154 121.482Z" fill="#828282"/>
<path d="M109.019 98.933C109.473 98.933 109.625 98.1763 109.625 98.1763L107.657 55.9531L105.84 56.1045L107.808 98.479C107.808 98.3277 108.111 98.933 109.019 98.933Z" fill="#828282"/>
<path d="M102.358 100.9C102.509 100.9 102.66 100.446 102.66 100.446L99.7839 60.7958H99.0269L101.903 100.598C101.903 100.749 102.055 100.9 102.358 100.9Z" fill="#B8B8B8"/>
<path d="M95.3932 103.17C95.8474 103.17 95.9988 102.716 95.9988 102.716L93.1222 65.0333H92.3652L95.2418 102.868V103.019L95.3932 103.17Z" fill="#B8B8B8"/>
<path d="M88.8831 105.743C89.0345 105.743 89.1859 105.592 89.1859 105.289L86.3095 69.2708H85.5525L88.4289 105.44C88.5803 105.592 88.5803 105.592 88.8831 105.743Z" fill="#B8B8B8"/>
<path d="M82.3732 108.467C82.5246 108.467 82.676 108.165 82.676 108.013L79.7995 73.5084H79.0425L81.919 107.862C81.919 108.165 81.919 108.316 82.3732 108.467Z" fill="#B8B8B8"/>
<path d="M75.7126 111.04C75.864 111.04 75.864 111.04 75.864 111.04L73.1389 77.8971H72.382L75.2584 110.586C75.2584 110.586 75.2584 111.04 75.5612 111.04H75.7126Z" fill="#B8B8B8"/>
<path d="M68.8998 113.31C69.0512 113.31 69.2026 113.159 69.354 113.007L66.6289 82.1345H65.872L68.597 113.31C68.597 113.31 68.5971 113.31 68.8998 113.31Z" fill="#B8B8B8"/>
<path d="M62.2379 115.731C62.3893 115.731 62.5407 115.731 62.5407 115.731V115.58L59.8156 86.5232H59.0587L61.7837 115.429C61.9351 115.58 62.0865 115.731 62.2379 115.731Z" fill="#B8B8B8"/>
<path d="M55.5765 118.304C55.7279 118.304 55.8794 118.304 55.8794 118.153C56.0308 118.002 56.0308 117.85 56.0308 117.85L53.3056 90.6095H52.5486L55.2738 117.699C55.2738 117.699 55.2737 118.153 55.4251 118.153L55.5765 118.304Z" fill="#B8B8B8"/>
<path d="M48.9154 121.028C49.2182 121.028 49.3696 120.726 49.3696 120.726L46.6445 94.9982L45.8875 95.1495L48.6126 120.574C48.4612 120.574 48.6126 121.028 48.9154 121.028Z" fill="#B8B8B8"/>
<path d="M108.717 98.3275V98.0249L106.748 56.5583H105.991L107.96 98.1762C108.262 98.1762 108.414 98.3275 108.717 98.3275Z" fill="#B8B8B8"/>
<path d="M8.19147 70.4814L76.9241 25.8368C80.4061 23.5667 84.7965 23.4154 88.43 25.5341L117.649 42.484C119.314 43.392 120.223 45.0567 120.374 47.0241C120.374 48.9915 119.466 50.6562 117.952 51.7156L113.107 54.8936L111.29 56.1043L84.6451 73.5082L79.0436 77.1403L49.3705 96.5115C47.5537 97.7222 45.4342 98.3275 43.3147 98.3275C41.498 98.3275 39.5299 97.8735 37.8646 96.8142L33.3228 94.2414L29.0838 91.82L10.7652 81.2264L8.79708 80.167L8.34292 80.0157C6.67759 79.1077 5.76925 77.2916 5.61785 75.4756C5.76925 73.2055 6.67754 71.5408 8.19147 70.4814ZM10.311 76.3836L12.5819 77.7456L14.55 78.805L33.6256 89.8526L37.8646 92.274L39.6813 93.3334C42.1036 94.6954 44.9801 94.5441 47.251 93.1821L62.6931 83.0424L77.2269 73.6595L107.657 53.8343L109.474 52.6236L115.984 48.3861C116.74 47.9321 116.74 47.3268 116.74 47.0241C116.74 46.7214 116.589 46.1161 115.984 45.662L86.7646 28.7122C85.0993 27.8042 83.2826 27.5015 81.4659 27.9555C80.7089 28.1069 79.9519 28.4096 79.195 28.8636L77.5296 29.9229L10.4624 73.5082C9.7054 73.9622 9.7054 74.5675 9.7054 74.8702C9.55401 75.3242 9.55405 75.9296 10.311 76.3836Z" fill="#C4C4C4"/>
<path d="M7.28297 94.9981C7.28297 96.3602 7.88854 97.5709 8.7969 98.4789C8.9483 98.6303 9.25112 98.7816 9.40252 98.9329L12.7331 100.9L38.47 115.731C38.7728 115.883 39.0756 116.034 39.3784 116.185C40.5895 116.791 41.952 117.093 43.3146 117.093L43.1632 115.126C41.9521 115.126 40.5895 114.672 39.5297 114.067L39.227 113.915L12.5817 98.4789L10.4622 97.2682C9.70523 96.8142 9.25106 96.0575 9.25106 95.1495C9.25106 94.9981 9.25112 94.6955 9.40252 94.5441C9.40252 93.3334 8.34274 92.4254 8.34274 92.4254C7.73717 92.8794 7.28297 93.9388 7.28297 94.9981Z" fill="#C4C4C4"/>
<path d="M42.709 114.975C41.4979 114.823 40.4381 114.521 39.3784 113.915L10.3108 97.1168C9.40248 96.5114 8.79691 95.6034 8.79691 94.3927C8.79691 94.09 8.79688 93.7874 8.94827 93.636C8.94827 93.182 8.79689 92.8793 8.49411 92.5767C8.19132 93.182 8.03995 93.7874 8.03995 94.544C8.03995 95.7547 8.49416 96.8141 9.40252 97.5708C9.55392 97.7221 9.70525 97.8735 10.008 98.0248L13.3387 99.9922L39.0756 114.823C39.3784 114.975 39.6812 115.126 39.8325 115.277C40.7409 115.731 41.8007 116.034 42.8604 116.034L42.709 114.975Z" fill="#E0E0E0"/>
<path d="M6.67825 83.7992C6.67825 85.464 7.43521 86.826 8.94914 87.734L38.3195 104.684C38.3195 104.684 38.4709 104.684 38.4709 104.835C39.682 105.441 41.0446 105.895 42.4071 106.046L42.2557 104.078C41.1959 103.927 40.2876 103.624 39.3792 103.019L38.3195 102.414L9.85756 86.0693C9.10059 85.6153 8.64643 84.8586 8.64643 83.9506C8.64643 82.7399 7.43521 81.5292 7.43521 81.5292C6.98103 81.9832 6.67825 82.8912 6.67825 83.7992Z" fill="#C4C4C4"/>
<path d="M41.6492 103.927C40.7408 103.776 39.8324 103.473 38.9241 102.868L9.55379 85.918C8.64543 85.3126 8.03985 84.4046 8.03985 83.1939C8.03985 82.5886 7.73703 82.1346 7.43424 81.6805C7.28285 82.1346 7.13153 82.5886 7.13153 83.1939C7.13153 84.556 7.88848 85.918 9.09962 86.6747L38.4699 103.624H38.6213C39.5297 104.079 40.5894 104.533 41.6492 104.684V103.927Z" fill="#E0E0E0"/>
<path d="M112.199 87.4315L112.804 81.0753L112.956 78.9566V78.1999L113.107 75.7785L113.713 69.2709L113.864 67.1522V66.5469L114.015 64.1255L114.621 57.9206L114.772 55.8019L115.075 52.9265L117.497 51.4131C118.254 50.9591 118.86 50.3537 119.163 49.597L118.254 58.526L117.8 63.9741L117.346 69.5736L116.74 75.9298L116.286 81.5293L115.681 87.2801L114.772 95.6037C114.772 95.6037 114.318 98.0251 112.653 98.0251C111.442 98.0251 110.988 96.8144 110.988 96.8144L111.593 89.7015L112.199 87.4315Z" fill="#828282"/>
<path d="M112.653 97.7223C113.712 97.7223 114.166 95.7549 114.318 95.7549L115.226 87.4314L118.557 51.7157C118.405 51.867 118.103 52.0184 117.8 52.1697L115.68 53.5317L115.378 56.1045L115.226 58.2232L114.318 67.3035L114.166 69.4222L113.258 79.1078L113.107 81.2265L112.35 89.8528L111.744 96.8143C111.744 97.117 112.047 97.7223 112.653 97.7223Z" fill="#B8B8B8"/>
<path d="M67.538 113.31C67.6894 113.31 69.052 112.856 69.6576 113.159C70.2631 113.462 70.4145 113.916 70.4145 113.916L112.048 89.7015L115.227 87.8855C115.53 87.7341 115.832 87.5828 115.984 87.2801C116.892 86.5234 117.346 85.3127 117.346 84.102C117.346 83.194 117.044 82.286 116.589 81.5293C116.589 81.5293 115.53 81.2266 115.53 82.1346C115.53 82.74 115.53 83.194 115.53 83.4967V83.648C115.53 83.7993 115.53 83.7993 115.53 83.9507C115.53 84.8587 115.076 85.6154 114.319 86.0694L112.199 87.2801L67.538 113.31Z" fill="#828282"/>
<path d="M114.772 86.9773C115.075 86.8259 115.226 86.6746 115.377 86.5233C116.134 85.7666 116.589 84.8585 116.589 83.7992C116.589 83.0425 116.437 82.2858 115.983 81.8318C115.832 81.8318 115.832 81.8318 115.832 81.9831C115.832 82.5885 115.832 83.0425 115.832 83.1938C115.832 83.4965 115.832 83.6478 115.832 83.7992C115.832 84.8585 115.226 85.9179 114.318 86.3719L112.198 87.5826L69.5052 112.251C69.808 112.402 69.9594 112.553 70.1108 112.705L114.772 86.9773Z" fill="#C4C4C4"/>
<path d="M43.1632 114.975L43.3146 116.942H43.466C45.1313 116.942 46.9481 116.488 48.462 115.58L112.956 78.3512L116.438 76.3838C116.589 76.2324 116.892 76.0811 117.043 75.9298C118.103 75.1731 118.709 73.811 118.709 72.449C118.709 71.3896 118.406 70.3303 117.649 69.5736C117.649 69.5736 116.589 69.2709 116.589 70.1789C116.589 70.6329 116.589 71.087 116.589 71.3896C116.74 71.6923 116.74 71.995 116.74 72.449C116.74 73.357 116.286 74.1137 115.529 74.5677L113.258 75.7784L47.705 113.916C46.3425 114.672 44.6772 115.126 43.1632 114.975Z" fill="#828282"/>
<path d="M42.709 115.731C44.223 115.731 46.7967 115.429 48.1592 114.672L115.983 75.4756C116.135 75.3242 116.286 75.1729 116.589 75.1729C117.497 74.4162 117.951 73.3569 117.951 72.1462C117.951 71.2381 117.649 70.4814 117.195 69.8761C117.043 69.8761 117.043 69.8761 117.043 70.0274C117.043 70.6328 117.043 70.9355 117.043 71.0868C117.195 71.2381 117.195 71.6922 117.195 72.1462C117.195 73.2055 116.589 74.2649 115.681 74.8702L47.8564 114.067C46.6453 114.823 44.223 114.975 42.709 114.975V115.731Z" fill="#C4C4C4"/>
<path d="M42.2551 103.927L42.4065 105.895C42.7093 105.895 43.012 105.895 43.4662 105.895C45.1315 105.895 46.9483 105.441 48.4622 104.533L114.167 66.5468L117.195 64.8821C117.649 64.5794 117.952 64.4281 118.254 63.9741C119.011 63.2174 119.466 62.158 119.466 60.9473C119.466 60.0393 119.314 59.2826 118.86 58.5259C118.86 58.5259 117.649 58.0719 117.649 59.1313C117.498 60.1906 117.649 60.796 117.649 60.796C117.649 61.704 117.195 62.612 116.438 63.066L114.621 64.1254L47.4025 103.019C45.8885 103.927 44.0718 104.23 42.2551 103.927Z" fill="#828282"/>
<path d="M43.3147 104.986C44.98 104.986 46.6454 104.532 48.1593 103.776L116.74 63.9739C117.043 63.8226 117.497 63.5199 117.649 63.2173C118.254 62.4606 118.709 61.5525 118.709 60.4932C118.709 59.8878 118.557 59.1311 118.254 58.6771C118.254 58.6771 118.254 58.6771 118.103 58.6771C117.952 58.6771 117.952 58.6771 117.952 58.8285C117.8 59.7365 117.952 60.3418 117.952 60.3418C117.952 61.5525 117.346 62.6119 116.438 63.2173L47.7052 102.868C46.3426 103.624 44.8287 104.078 43.3147 104.078C43.1633 104.078 41.9522 103.776 41.8008 103.776V104.684C41.9522 104.684 43.1633 104.986 43.3147 104.986Z" fill="#C4C4C4"/>
<path d="M43.1629 96.2089C45.131 96.2089 46.9477 95.6035 48.613 94.5441L78.2861 75.1729L117.346 49.7482C118.708 48.8402 119.465 47.4781 119.314 45.8134C119.314 44.3001 118.405 42.7867 117.043 42.03L87.8239 25.0802C86.31 24.1722 84.4932 23.7181 82.8279 23.7181C80.8598 23.7181 79.0431 24.3235 77.3777 25.3829L8.64521 70.0275C7.28267 70.9355 6.52563 72.2975 6.67702 73.8109C6.67702 75.3243 7.58538 76.6863 8.94792 77.5943L38.1669 94.5441C39.6808 95.7548 41.4976 96.2089 43.1629 96.2089ZM82.9793 25.9882C84.3419 25.9882 85.7044 26.2909 86.9156 27.0476L116.134 43.9974C117.346 44.7541 117.346 45.8134 117.346 46.1161C117.346 46.7215 117.043 47.7808 116.134 48.3862L109.625 52.6236L107.808 53.8343L77.6805 73.5082L63.1468 82.8912L47.7047 93.0308C46.3421 93.9388 44.8282 94.3928 43.3142 94.3928C41.9517 94.3928 40.4378 93.9388 39.2266 93.3335L37.4099 92.2741L33.1709 89.8527L9.85634 76.3836C9.09937 75.9296 8.64521 75.1729 8.64521 74.2649C8.64521 73.2055 9.09937 72.4489 9.85634 71.9948L78.5889 27.3502C79.4973 26.8962 80.2542 26.4422 81.1626 26.2909C81.6168 25.9882 82.2223 25.9882 82.9793 25.9882Z" fill="#E0E0E0"/>
<path d="M78.1349 27.3505C80.7086 27.0478 81.1627 24.7778 81.1627 24.7778L84.342 18.5729L95.5451 12.9734L96.3021 6.31458L81.9197 15.5462L81.4655 16.0002L76.3182 26.4425C76.3182 26.4425 76.1668 27.6532 78.1349 27.3505Z" fill="#828282"/>
<path d="M131.122 36.1281L133.999 31.2853L95.5449 9.03867C94.6365 8.58465 93.4254 8.88733 92.9712 9.79535L92.6684 10.2494C91.7601 11.7627 92.3657 13.8815 93.8796 14.7895L131.122 36.1281Z" fill="url(#paint1_linear_222_58085)"/>
<path d="M122.796 40.9709L123.856 39.1548L84.4933 16.4542C84.1905 16.3028 83.7364 16.3028 83.585 16.7568L83.4336 16.9082C83.1308 17.5135 83.2822 18.2702 83.8878 18.5729L122.796 40.9709Z" fill="url(#paint2_linear_222_58085)"/>
<path d="M96.4533 6.31455L94.3338 4.95251L81.4654 16.0002L82.828 16.9082L96.4533 6.31455Z" fill="#E0E0E0"/>
<path d="M78.1345 27.3505L82.8276 16.7569L81.3137 15.8489L76.1664 26.2912C76.3178 26.4425 76.1664 27.6532 78.1345 27.3505Z" fill="#B8B8B8"/>
<path d="M116.892 47.3269C116.892 47.6296 116.892 48.5376 118.254 48.3863C118.406 48.3863 118.406 48.3863 118.557 48.3863C119.617 48.5376 119.617 50.2023 119.617 50.2023L123.856 41.4247L135.059 35.8252L135.816 29.1664L121.433 38.398L120.979 38.852L120.828 39.1547L116.892 47.3269Z" fill="#828282"/>
<path d="M135.967 29.3179L133.848 27.8046L120.979 39.0036L122.342 39.7602L135.967 29.3179Z" fill="#E0E0E0"/>
<path d="M116.891 47.3271C116.891 47.6298 116.891 48.5378 118.254 48.3865C118.405 48.3865 118.405 48.3865 118.557 48.3865L122.341 39.9116L120.827 39.0035L116.891 47.3271Z" fill="#B8B8B8"/>
<rect width="23.1912" height="23.1912" rx="11.5956" transform="matrix(0.866025 -0.5 2.20305e-08 1 48.9999 37.5956)" fill="#114510"/>
<rect width="2.31912" height="10.8226" transform="matrix(0.866025 -0.5 2.20305e-08 1 58.0378 38.5619)" fill="white"/>
<rect width="2.31912" height="10.8226" transform="matrix(-1.58247e-08 1 -0.866025 0.5 63.7283 39.5282)" fill="white"/>
<path d="M51.9376 55.6849L54.334 56.8444L67.1279 31.6046L65.6978 30.8702L51.9376 55.6849Z" fill="#114510"/>
<rect width="23.1912" height="23.1912" rx="11.5956" transform="matrix(0.866025 -0.5 2.20305e-08 1 50.5313 38.3687)" fill="#1D9F3A"/>
<rect width="2.31912" height="10.8226" transform="matrix(0.866025 -0.5 2.20305e-08 1 59.569 39.335)" fill="white"/>
<rect width="2.31912" height="10.8226" transform="matrix(-1.58247e-08 1 -0.866025 0.5 65.2596 40.3014)" fill="white"/>
<defs>
<linearGradient id="paint0_linear_222_58085" x1="173.782" y1="61.4979" x2="-392.254" y2="543.715" gradientUnits="userSpaceOnUse">
<stop stop-color="#D7D4D2"/>
<stop offset="0.5494" stop-color="#BAAEA8"/>
<stop offset="0.9156" stop-color="#B3A7A1"/>
</linearGradient>
<linearGradient id="paint1_linear_222_58085" x1="113.872" y1="19.5742" x2="111.024" y2="24.5075" gradientUnits="userSpaceOnUse">
<stop offset="0.1261" stop-color="#24B35F"/>
<stop offset="0.213542" stop-color="#37A665"/>
<stop offset="0.46875" stop-color="#128742"/>
<stop offset="0.494792" stop-color="#2B9155"/>
<stop offset="0.796875" stop-color="#128742"/>
<stop offset="0.833333" stop-color="#0E602F"/>
</linearGradient>
<linearGradient id="paint2_linear_222_58085" x1="103.88" y1="27.6988" x2="102.833" y2="29.5124" gradientUnits="userSpaceOnUse">
<stop offset="0.1261" stop-color="#E7E8E9"/>
<stop offset="0.1272" stop-color="#DBDBDB"/>
<stop offset="0.4378" stop-color="#DBDBDB"/>
<stop offset="0.4407" stop-color="#A9AAAB"/>
<stop offset="0.8367" stop-color="#A9AAAB"/>
<stop offset="0.8387" stop-color="#7E7F80"/>
</linearGradient>
</defs>
</svg>
