<svg width="839" height="642" viewBox="0 0 839 642" fill="none" xmlns="http://www.w3.org/2000/svg">
<path d="M496 428H462.5L612 288.5L657 333.5L496 428Z" fill="#483D4B" fill-opacity="0.2"/>
<path d="M271.158 448.884L94.1964 346.715C91.3266 345.058 91.3266 342.371 94.1964 340.715L607.59 44.3066" stroke="#C4C4C4" stroke-width="7" stroke-linecap="round"/>
<path d="M5 532L68.7413 568.801C71.611 570.458 76.2638 570.458 79.1336 568.801L224.626 484.801" stroke="url(#paint0_linear_521_44402)" stroke-width="7" stroke-linecap="round"/>
<path fill-rule="evenodd" clip-rule="evenodd" d="M373.425 569.953C372.651 571.394 370.856 571.933 369.416 571.159L211.782 486.422C210.837 485.914 210.241 484.934 210.224 483.861C210.207 482.788 210.772 481.79 211.701 481.253L366.374 391.705C367.789 390.886 369.6 391.369 370.419 392.784C371.238 394.199 370.755 396.01 369.34 396.829L219.258 483.719L372.219 565.944C373.659 566.719 374.199 568.513 373.425 569.953Z" fill="#C4C4C4"/>
<path d="M370 568L490.69 637.68C493.559 639.337 498.212 639.337 501.082 637.68L1478.51 73.3623" stroke="#C4C4C4" stroke-width="7" stroke-linecap="round"/>
<path d="M403.75 338.207L353.611 364.849V333.211L403.75 309.714V338.207Z" fill="#527CAE"/>
<path fill-rule="evenodd" clip-rule="evenodd" d="M626.763 268.033L462.397 362.651V428.111L626.763 333.208V268.033Z" fill="#527CAE"/>
<path fill-rule="evenodd" clip-rule="evenodd" d="M626.763 329.206L462.397 423.824V428.112L626.763 333.208V329.206Z" fill="#E0E7E3"/>
<path fill-rule="evenodd" clip-rule="evenodd" d="M364.92 370.238L397.793 389.105V351.372L364.92 332.22V370.238Z" fill="#E0E7E3"/>
<path fill-rule="evenodd" clip-rule="evenodd" d="M363.778 331.648V371.096L365.207 370.238V332.506L363.778 331.648Z" fill="#527CAE"/>
<path fill-rule="evenodd" clip-rule="evenodd" d="M365.206 343.368V344.512L397.794 363.378V362.235L365.206 343.368Z" fill="#A5AFA4"/>
<path fill-rule="evenodd" clip-rule="evenodd" d="M365.206 347.084V348.228L397.794 367.094V365.951L365.206 347.084Z" fill="#A5AFA4"/>
<path fill-rule="evenodd" clip-rule="evenodd" d="M365.206 350.8V351.944L397.794 370.81V369.667L365.206 350.8Z" fill="#A5AFA4"/>
<path fill-rule="evenodd" clip-rule="evenodd" d="M365.206 336.222V337.365L397.794 355.946V354.802L365.206 336.222Z" fill="#A5AFA4"/>
<path fill-rule="evenodd" clip-rule="evenodd" d="M365.206 339.938V341.082L397.794 359.662V358.519L365.206 339.938Z" fill="#A5AFA4"/>
<path fill-rule="evenodd" clip-rule="evenodd" d="M365.206 354.516V355.66L397.794 374.526V373.383L365.206 354.516Z" fill="#A5AFA4"/>
<path fill-rule="evenodd" clip-rule="evenodd" d="M365.206 358.233V359.376L397.794 378.242V377.099L365.206 358.233Z" fill="#A5AFA4"/>
<path fill-rule="evenodd" clip-rule="evenodd" d="M365.206 361.949V363.092L397.794 381.959V380.815L365.206 361.949Z" fill="#A5AFA4"/>
<path fill-rule="evenodd" clip-rule="evenodd" d="M365.206 365.665V366.808L397.794 385.675V384.531L365.206 365.665Z" fill="#A5AFA4"/>
<path fill-rule="evenodd" clip-rule="evenodd" d="M352.055 294.903L403.795 308.91L568.161 214.293L516.421 200L352.055 294.903Z" fill="#594D5D"/>
<path fill-rule="evenodd" clip-rule="evenodd" d="M403.796 308.91L568.162 214.292L626.762 263.745L462.396 358.649L403.796 308.91Z" fill="#483D4B"/>
<path fill-rule="evenodd" clip-rule="evenodd" d="M352.056 294.903V298.905L403.795 314.056L462.395 362.651V358.649L403.795 308.91L352.056 294.903Z" fill="#FEFEFE"/>
<path fill-rule="evenodd" clip-rule="evenodd" d="M626.763 264.031L462.397 358.649V362.651L626.763 268.033V264.031Z" fill="#E0E7E3"/>
<path fill-rule="evenodd" clip-rule="evenodd" d="M407.513 306.909L355.773 292.903L357.202 292.045L408.942 306.052L407.513 306.909Z" fill="#483D4B"/>
<path fill-rule="evenodd" clip-rule="evenodd" d="M412.658 304.051L360.919 289.758L362.634 288.901L414.374 302.907L412.658 304.051Z" fill="#483D4B"/>
<path fill-rule="evenodd" clip-rule="evenodd" d="M418.091 300.907L366.351 286.614L367.78 285.756L419.52 300.049L418.091 300.907Z" fill="#483D4B"/>
<path fill-rule="evenodd" clip-rule="evenodd" d="M423.233 297.762L371.494 283.755L373.209 282.898L424.949 296.904L423.233 297.762Z" fill="#483D4B"/>
<path fill-rule="evenodd" clip-rule="evenodd" d="M428.665 294.617L376.926 280.611L378.355 279.753L430.095 293.76L428.665 294.617Z" fill="#483D4B"/>
<path fill-rule="evenodd" clip-rule="evenodd" d="M434.097 291.759L382.358 277.466L383.787 276.609L435.526 290.902L434.097 291.759Z" fill="#483D4B"/>
<path fill-rule="evenodd" clip-rule="evenodd" d="M439.243 288.615L387.503 274.322L388.933 273.465L440.672 287.757L439.243 288.615Z" fill="#483D4B"/>
<path fill-rule="evenodd" clip-rule="evenodd" d="M444.675 285.47L392.936 271.464L394.365 270.606L446.104 284.613L444.675 285.47Z" fill="#483D4B"/>
<path fill-rule="evenodd" clip-rule="evenodd" d="M449.818 282.326L398.078 268.319L399.793 267.461L451.533 281.468L449.818 282.326Z" fill="#483D4B"/>
<path fill-rule="evenodd" clip-rule="evenodd" d="M455.25 279.467L403.51 265.174L404.94 264.317L456.679 278.61L455.25 279.467Z" fill="#483D4B"/>
<path fill-rule="evenodd" clip-rule="evenodd" d="M460.396 276.323L408.656 262.316L410.371 261.173L462.111 275.465L460.396 276.323Z" fill="#483D4B"/>
<path fill-rule="evenodd" clip-rule="evenodd" d="M465.827 273.179L414.088 259.172L415.517 258.314L467.257 272.321L465.827 273.179Z" fill="#483D4B"/>
<path fill-rule="evenodd" clip-rule="evenodd" d="M471.259 270.32L419.234 256.027L420.949 255.17L472.689 269.462L471.259 270.32Z" fill="#483D4B"/>
<path fill-rule="evenodd" clip-rule="evenodd" d="M476.402 267.176L424.663 252.883L426.092 252.026L477.832 266.318L476.402 267.176Z" fill="#483D4B"/>
<path fill-rule="evenodd" clip-rule="evenodd" d="M481.834 264.031L430.095 250.024L431.524 249.167L483.264 263.174L481.834 264.031Z" fill="#483D4B"/>
<path fill-rule="evenodd" clip-rule="evenodd" d="M486.98 260.887L435.24 246.88L436.67 246.022L488.695 260.029L486.98 260.887Z" fill="#483D4B"/>
<path fill-rule="evenodd" clip-rule="evenodd" d="M492.412 258.028L440.672 243.736L442.102 242.878L493.841 257.171L492.412 258.028Z" fill="#483D4B"/>
<path fill-rule="evenodd" clip-rule="evenodd" d="M497.558 254.884L445.818 240.591L447.533 239.734L499.273 254.026L497.558 254.884Z" fill="#483D4B"/>
<path fill-rule="evenodd" clip-rule="evenodd" d="M502.987 251.74L451.247 237.733L452.676 236.875L504.416 250.882L502.987 251.74Z" fill="#483D4B"/>
<path fill-rule="evenodd" clip-rule="evenodd" d="M508.418 248.595L456.393 234.588L458.108 233.731L509.848 247.738L508.418 248.595Z" fill="#483D4B"/>
<path fill-rule="evenodd" clip-rule="evenodd" d="M513.565 245.736L461.825 231.444L463.254 230.586L514.994 244.879L513.565 245.736Z" fill="#483D4B"/>
<path fill-rule="evenodd" clip-rule="evenodd" d="M518.996 242.592L467.257 228.585L468.686 227.442L520.426 241.735L518.996 242.592Z" fill="#483D4B"/>
<path fill-rule="evenodd" clip-rule="evenodd" d="M524.142 239.448L472.403 225.441L473.832 224.583L525.572 238.59L524.142 239.448Z" fill="#483D4B"/>
<path fill-rule="evenodd" clip-rule="evenodd" d="M529.571 236.589L477.832 222.297L479.261 221.439L531 235.732L529.571 236.589Z" fill="#483D4B"/>
<path fill-rule="evenodd" clip-rule="evenodd" d="M534.717 233.445L482.978 219.152L484.407 218.295L536.146 232.587L534.717 233.445Z" fill="#483D4B"/>
<path fill-rule="evenodd" clip-rule="evenodd" d="M540.149 230.301L488.41 216.294L489.839 215.436L541.578 229.443L540.149 230.301Z" fill="#483D4B"/>
<path fill-rule="evenodd" clip-rule="evenodd" d="M545.295 227.156L493.555 213.15L495.27 212.292L547.01 226.299L545.295 227.156Z" fill="#483D4B"/>
<path fill-rule="evenodd" clip-rule="evenodd" d="M550.727 224.298L498.987 210.005L500.417 209.147L552.156 223.44L550.727 224.298Z" fill="#483D4B"/>
<path fill-rule="evenodd" clip-rule="evenodd" d="M556.155 221.153L504.13 206.86L505.845 206.003L557.585 220.296L556.155 221.153Z" fill="#483D4B"/>
<path fill-rule="evenodd" clip-rule="evenodd" d="M561.302 218.009L509.562 204.002L510.991 203.144L562.731 217.151L561.302 218.009Z" fill="#483D4B"/>
<path fill-rule="evenodd" clip-rule="evenodd" d="M566.734 215.15L514.994 200.858L516.423 200L568.163 214.293L566.734 215.15Z" fill="#483D4B"/>
<path fill-rule="evenodd" clip-rule="evenodd" d="M407.511 306.909L466.111 356.648L467.541 355.79L408.94 306.052L407.511 306.909Z" fill="#3E363E"/>
<path fill-rule="evenodd" clip-rule="evenodd" d="M412.657 304.051L471.257 353.504L472.972 352.646L414.372 303.193L412.657 304.051Z" fill="#3E363E"/>
<path fill-rule="evenodd" clip-rule="evenodd" d="M418.089 300.906L476.689 350.645L478.118 349.787L419.518 300.049L418.089 300.906Z" fill="#3E363E"/>
<path fill-rule="evenodd" clip-rule="evenodd" d="M423.521 297.762L482.121 347.501L483.55 346.643L424.95 296.905L423.521 297.762Z" fill="#3E363E"/>
<path fill-rule="evenodd" clip-rule="evenodd" d="M428.667 294.618L487.267 344.356L488.696 343.499L430.096 293.76L428.667 294.618Z" fill="#3E363E"/>
<path fill-rule="evenodd" clip-rule="evenodd" d="M434.096 291.759L492.696 341.212L494.125 340.354L435.525 290.901L434.096 291.759Z" fill="#3E363E"/>
<path fill-rule="evenodd" clip-rule="evenodd" d="M439.241 288.615L497.841 338.353L499.557 337.496L440.671 287.757L439.241 288.615Z" fill="#3E363E"/>
<path fill-rule="evenodd" clip-rule="evenodd" d="M444.673 285.471L503.273 335.209L504.703 334.352L446.103 284.613L444.673 285.471Z" fill="#3E363E"/>
<path fill-rule="evenodd" clip-rule="evenodd" d="M449.819 282.326L508.419 332.065L510.134 331.207L451.534 281.469L449.819 282.326Z" fill="#3E363E"/>
<path fill-rule="evenodd" clip-rule="evenodd" d="M455.251 279.467L513.851 329.206L515.28 328.348L456.68 278.61L455.251 279.467Z" fill="#3E363E"/>
<path fill-rule="evenodd" clip-rule="evenodd" d="M460.397 276.323L519.283 326.061L520.712 325.204L462.112 275.465L460.397 276.323Z" fill="#3E363E"/>
<path fill-rule="evenodd" clip-rule="evenodd" d="M465.826 273.179L524.426 322.917L525.855 322.06L467.255 272.321L465.826 273.179Z" fill="#3E363E"/>
<path fill-rule="evenodd" clip-rule="evenodd" d="M471.258 270.32L529.858 319.773L531.287 318.915L472.687 269.463L471.258 270.32Z" fill="#3E363E"/>
<path fill-rule="evenodd" clip-rule="evenodd" d="M476.404 267.176L535.004 316.914L536.433 316.057L477.833 266.318L476.404 267.176Z" fill="#3E363E"/>
<path fill-rule="evenodd" clip-rule="evenodd" d="M481.835 264.032L540.435 313.77L541.865 312.913L483.265 263.174L481.835 264.032Z" fill="#3E363E"/>
<path fill-rule="evenodd" clip-rule="evenodd" d="M486.981 260.887L545.581 310.626L547.297 309.768L488.697 260.029L486.981 260.887Z" fill="#3E363E"/>
<path fill-rule="evenodd" clip-rule="evenodd" d="M492.411 258.029L551.011 307.767L552.44 306.91L493.84 257.171L492.411 258.029Z" fill="#3E363E"/>
<path fill-rule="evenodd" clip-rule="evenodd" d="M497.556 254.884L556.442 304.623L557.871 303.765L499.271 254.026L497.556 254.884Z" fill="#3E363E"/>
<path fill-rule="evenodd" clip-rule="evenodd" d="M502.988 251.74L561.588 301.478L563.018 300.621L504.418 250.882L502.988 251.74Z" fill="#3E363E"/>
<path fill-rule="evenodd" clip-rule="evenodd" d="M508.42 248.595L567.02 298.334L568.449 297.476L509.849 247.738L508.42 248.595Z" fill="#3E363E"/>
<path fill-rule="evenodd" clip-rule="evenodd" d="M513.563 245.737L572.163 295.475L573.592 294.618L514.992 244.879L513.563 245.737Z" fill="#3E363E"/>
<path fill-rule="evenodd" clip-rule="evenodd" d="M518.995 242.592L577.595 292.331L579.024 291.473L520.424 241.735L518.995 242.592Z" fill="#3E363E"/>
<path fill-rule="evenodd" clip-rule="evenodd" d="M524.141 239.448L582.741 289.186L584.17 288.329L525.57 238.59L524.141 239.448Z" fill="#3E363E"/>
<path fill-rule="evenodd" clip-rule="evenodd" d="M529.573 236.589L588.173 286.328L589.602 285.47L531.002 235.732L529.573 236.589Z" fill="#3E363E"/>
<path fill-rule="evenodd" clip-rule="evenodd" d="M534.718 233.445L593.318 283.184L595.033 282.326L536.148 232.587L534.718 233.445Z" fill="#3E363E"/>
<path fill-rule="evenodd" clip-rule="evenodd" d="M540.147 230.3L598.747 280.039L600.177 279.181L541.577 229.443L540.147 230.3Z" fill="#3E363E"/>
<path fill-rule="evenodd" clip-rule="evenodd" d="M545.293 227.156L603.893 276.895L605.608 276.037L547.008 226.299L545.293 227.156Z" fill="#3E363E"/>
<path fill-rule="evenodd" clip-rule="evenodd" d="M550.725 224.298L609.325 274.036L610.754 273.179L552.154 223.44L550.725 224.298Z" fill="#3E363E"/>
<path fill-rule="evenodd" clip-rule="evenodd" d="M556.157 221.153L614.757 270.892L616.187 270.034L557.586 220.296L556.157 221.153Z" fill="#3E363E"/>
<path fill-rule="evenodd" clip-rule="evenodd" d="M561.303 218.009L619.903 267.747L621.332 266.89L562.732 217.151L561.303 218.009Z" fill="#3E363E"/>
<path fill-rule="evenodd" clip-rule="evenodd" d="M566.732 215.15L625.332 264.603L626.761 263.745L568.161 214.292L566.732 215.15Z" fill="#3E363E"/>
<path fill-rule="evenodd" clip-rule="evenodd" d="M475.259 366.081L505.845 348.358V359.221L475.259 376.944V366.081Z" fill="#FEFEFE"/>
<path fill-rule="evenodd" clip-rule="evenodd" d="M491.555 357.791L504.99 350.073V357.505L491.555 365.509V357.791Z" fill="#594D5D"/>
<path fill-rule="evenodd" clip-rule="evenodd" d="M491.555 364.652L503.275 357.792L504.99 358.649L491.555 366.367V364.652Z" fill="#E0E7E3"/>
<path fill-rule="evenodd" clip-rule="evenodd" d="M503.274 350.931L504.99 350.073V358.649L503.274 357.791V350.931Z" fill="#BBC3BC"/>
<path fill-rule="evenodd" clip-rule="evenodd" d="M476.404 366.653L489.839 358.649V366.367L476.404 374.085V366.653Z" fill="#594D5D"/>
<path fill-rule="evenodd" clip-rule="evenodd" d="M476.404 373.227L488.124 366.367L489.839 367.225L476.404 375.228V373.227Z" fill="#E0E7E3"/>
<path fill-rule="evenodd" clip-rule="evenodd" d="M488.123 359.792L489.838 358.649V367.225L488.123 366.367V359.792Z" fill="#BBC3BC"/>
<path fill-rule="evenodd" clip-rule="evenodd" d="M587.601 301.192L618.187 283.469V294.332L587.601 312.055V301.192Z" fill="#FEFEFE"/>
<path fill-rule="evenodd" clip-rule="evenodd" d="M603.894 292.903L617.329 285.185V292.617L603.894 300.621V292.903Z" fill="#594D5D"/>
<path fill-rule="evenodd" clip-rule="evenodd" d="M603.894 299.477L615.614 292.903L617.329 293.76L603.894 301.478V299.477Z" fill="#E0E7E3"/>
<path fill-rule="evenodd" clip-rule="evenodd" d="M615.614 286.042L617.329 285.185V293.76L615.614 292.903V286.042Z" fill="#BBC3BC"/>
<path fill-rule="evenodd" clip-rule="evenodd" d="M588.743 301.764L602.178 293.76V301.478L588.743 309.196V301.764Z" fill="#594D5D"/>
<path fill-rule="evenodd" clip-rule="evenodd" d="M588.743 308.339L600.463 301.478L602.178 302.336L588.743 310.339V308.339Z" fill="#E0E7E3"/>
<path fill-rule="evenodd" clip-rule="evenodd" d="M600.462 294.904L602.178 293.76V302.336L600.462 301.478V294.904Z" fill="#BBC3BC"/>
<path fill-rule="evenodd" clip-rule="evenodd" d="M550.725 322.631L581.597 304.908V315.771L550.725 333.494V322.631Z" fill="#FEFEFE"/>
<path fill-rule="evenodd" clip-rule="evenodd" d="M567.018 314.341L580.739 306.623V314.056L567.018 322.06V314.341Z" fill="#594D5D"/>
<path fill-rule="evenodd" clip-rule="evenodd" d="M567.018 320.916L578.738 314.342L580.739 315.199L567.018 322.917V320.916Z" fill="#E0E7E3"/>
<path fill-rule="evenodd" clip-rule="evenodd" d="M578.738 307.481L580.739 306.623V315.199L578.738 314.341V307.481Z" fill="#BBC3BC"/>
<path fill-rule="evenodd" clip-rule="evenodd" d="M551.87 323.203L565.305 315.199V322.917L551.87 330.635V323.203Z" fill="#594D5D"/>
<path fill-rule="evenodd" clip-rule="evenodd" d="M551.87 329.778L563.59 322.917L565.305 323.775L551.87 331.779V329.778Z" fill="#E0E7E3"/>
<path fill-rule="evenodd" clip-rule="evenodd" d="M563.589 316.343L565.304 315.199V323.775L563.589 322.917V316.343Z" fill="#BBC3BC"/>
<path fill-rule="evenodd" clip-rule="evenodd" d="M352.056 364.08V298.906L403.224 309.482L462.395 362.651V428.111L397.792 390.379V388.949L397.681 388.885L397.793 388.949V351.217L364.92 332.065V370.083L365.066 370.167L363.776 370.941L352.056 364.08Z" fill="#799FCD"/>
<path fill-rule="evenodd" clip-rule="evenodd" d="M397.792 386.377V390.379L462.395 428.111V423.824L397.792 386.377Z" fill="#FEFEFE"/>
<path fill-rule="evenodd" clip-rule="evenodd" d="M363.776 366.939L352.056 360.078V364.08L363.776 370.941V366.939Z" fill="#FEFEFE"/>
<path fill-rule="evenodd" clip-rule="evenodd" d="M423.806 401.527L413.23 395.524V388.378L423.806 394.381V401.527Z" fill="#2C85C6"/>
<path fill-rule="evenodd" clip-rule="evenodd" d="M423.806 403.528L413.23 397.525V395.524L423.806 401.527V403.528Z" fill="#97C0E5"/>
<path fill-rule="evenodd" clip-rule="evenodd" d="M407.511 383.519V392.666L418.088 398.955V389.521L407.511 383.519Z" fill="#E0E7E3"/>
<path fill-rule="evenodd" clip-rule="evenodd" d="M418.089 389.521V398.954L423.806 395.524V386.377L418.089 389.521Z" fill="#BBC3BC"/>
<path fill-rule="evenodd" clip-rule="evenodd" d="M407.511 383.518L418.088 389.521L423.805 386.377L413.229 380.374L407.511 383.518Z" fill="#FEFEFE"/>
<path fill-rule="evenodd" clip-rule="evenodd" d="M411.802 391.522C411.802 393.237 412.945 395.238 414.374 395.81C415.803 396.382 416.947 395.238 416.947 393.523C416.661 391.522 415.518 389.521 414.088 388.95C412.659 388.378 411.802 389.521 411.802 391.522Z" fill="#594D5D"/>
<path fill-rule="evenodd" clip-rule="evenodd" d="M412.657 391.808C412.657 392.951 413.515 394.095 414.372 394.667C415.23 394.952 416.087 394.381 415.802 392.951C415.802 391.808 415.23 390.665 414.086 390.093C413.229 389.807 412.657 390.665 412.657 391.808Z" fill="#76687B"/>
<path fill-rule="evenodd" clip-rule="evenodd" d="M435.812 408.388L425.235 402.385V395.239L435.812 401.241V408.388Z" fill="#2C85C6"/>
<path fill-rule="evenodd" clip-rule="evenodd" d="M435.812 410.389L425.235 404.386V402.385L435.812 408.388V410.389Z" fill="#97C0E5"/>
<path fill-rule="evenodd" clip-rule="evenodd" d="M419.517 390.665V399.812L430.094 405.815V396.668L419.517 390.665Z" fill="#E0E7E3"/>
<path fill-rule="evenodd" clip-rule="evenodd" d="M430.095 396.667V405.815L435.812 402.67V393.523L430.095 396.667Z" fill="#BBC3BC"/>
<path fill-rule="evenodd" clip-rule="evenodd" d="M419.517 390.665L430.094 396.668L435.811 393.523L424.949 387.234L419.517 390.665Z" fill="#FEFEFE"/>
<path fill-rule="evenodd" clip-rule="evenodd" d="M423.807 398.383C423.807 400.098 424.951 402.099 426.38 402.67C427.809 403.242 428.953 402.099 428.667 400.384C428.667 398.668 427.523 396.667 426.094 396.096C424.665 395.524 423.807 396.382 423.807 398.383Z" fill="#594D5D"/>
<path fill-rule="evenodd" clip-rule="evenodd" d="M424.663 398.668C424.663 399.812 425.521 401.241 426.378 401.527C427.236 401.813 427.807 401.241 427.807 400.098C427.807 398.954 427.236 397.525 426.092 397.239C425.235 396.668 424.663 397.525 424.663 398.668Z" fill="#76687B"/>
<path fill-rule="evenodd" clip-rule="evenodd" d="M447.532 415.248L436.955 409.245V402.385L447.532 408.388V415.248Z" fill="#2C85C6"/>
<path fill-rule="evenodd" clip-rule="evenodd" d="M447.532 417.535L436.955 411.532V409.245L447.532 415.248V417.535Z" fill="#97C0E5"/>
<path fill-rule="evenodd" clip-rule="evenodd" d="M431.24 397.525V406.672L441.816 412.961V403.528L431.24 397.525Z" fill="#E0E7E3"/>
<path fill-rule="evenodd" clip-rule="evenodd" d="M441.815 403.528V412.961L447.532 409.531V400.384L441.815 403.528Z" fill="#BBC3BC"/>
<path fill-rule="evenodd" clip-rule="evenodd" d="M431.24 397.525L441.816 403.528L447.533 400.384L436.957 394.381L431.24 397.525Z" fill="#FEFEFE"/>
<path fill-rule="evenodd" clip-rule="evenodd" d="M435.527 405.243C435.527 407.244 436.956 409.245 438.1 409.817C439.529 410.389 440.672 409.245 440.672 407.53C440.672 405.529 439.529 403.528 438.1 402.957C436.671 402.385 435.527 403.528 435.527 405.243Z" fill="#594D5D"/>
<path fill-rule="evenodd" clip-rule="evenodd" d="M436.383 405.815C436.383 406.959 437.24 408.102 438.098 408.674C439.241 408.96 439.813 408.388 439.813 406.959C439.813 405.815 438.955 404.672 438.098 404.1C437.24 403.814 436.383 404.386 436.383 405.815Z" fill="#76687B"/>
<path fill-rule="evenodd" clip-rule="evenodd" d="M459.538 422.109L448.961 416.106V409.245L459.538 415.248V422.109Z" fill="#2C85C6"/>
<path fill-rule="evenodd" clip-rule="evenodd" d="M459.538 424.395L448.961 418.392V416.106L459.538 422.109V424.395Z" fill="#97C0E5"/>
<path fill-rule="evenodd" clip-rule="evenodd" d="M443.246 404.386V413.819L453.822 419.822V410.674L443.246 404.386Z" fill="#E0E7E3"/>
<path fill-rule="evenodd" clip-rule="evenodd" d="M453.82 410.675V419.822L459.537 416.677V407.244L453.82 410.675Z" fill="#BBC3BC"/>
<path fill-rule="evenodd" clip-rule="evenodd" d="M443.246 404.385L453.822 410.674L459.539 407.244L448.963 401.241L443.246 404.385Z" fill="#FEFEFE"/>
<path fill-rule="evenodd" clip-rule="evenodd" d="M447.533 412.39C447.533 414.105 448.676 416.106 450.105 416.677C451.535 417.249 452.678 416.106 452.678 414.391C452.678 412.39 451.535 410.674 450.105 410.103C448.676 409.531 447.533 410.389 447.533 412.39Z" fill="#594D5D"/>
<path fill-rule="evenodd" clip-rule="evenodd" d="M448.391 412.675C448.391 413.819 449.249 415.248 450.106 415.534C450.964 415.82 451.822 415.248 451.822 414.105C451.822 412.675 450.964 411.532 450.106 411.246C449.249 410.674 448.391 411.532 448.391 412.675Z" fill="#76687B"/>
<path fill-rule="evenodd" clip-rule="evenodd" d="M449.82 366.081L418.948 348.358V359.221L449.82 376.944V366.081Z" fill="#FEFEFE"/>
<path fill-rule="evenodd" clip-rule="evenodd" d="M433.524 357.791L419.803 350.073V357.505L433.524 365.509V357.791Z" fill="#594D5D"/>
<path fill-rule="evenodd" clip-rule="evenodd" d="M433.524 364.652L421.519 357.792L419.803 358.649L433.524 366.367V364.652Z" fill="#E0E7E3"/>
<path fill-rule="evenodd" clip-rule="evenodd" d="M421.519 350.931L419.803 350.073V358.649L421.519 357.791V350.931Z" fill="#BBC3BC"/>
<path fill-rule="evenodd" clip-rule="evenodd" d="M448.676 366.653L434.955 358.649V366.367L448.676 374.085V366.653Z" fill="#594D5D"/>
<path fill-rule="evenodd" clip-rule="evenodd" d="M448.676 373.227L436.956 366.367L434.955 367.225L448.676 375.228V373.227Z" fill="#E0E7E3"/>
<path fill-rule="evenodd" clip-rule="evenodd" d="M436.956 359.792L434.955 358.649V367.225L436.956 366.367V359.792Z" fill="#BBC3BC"/>
<mask id="mask0_521_44402" style="mask-type:alpha" maskUnits="userSpaceOnUse" x="171" y="333" width="227" height="184">
<path fill-rule="evenodd" clip-rule="evenodd" d="M171 446.071L177.661 494.545L215.774 516.747L397.793 402.778V352.789L364.92 333.637L171 446.071Z" fill="#E0E7E3"/>
</mask>
<g mask="url(#mask0_521_44402)">
<path opacity="0.1" fill-rule="evenodd" clip-rule="evenodd" d="M212.227 510.707L179.71 490.484L276.488 434.62L308.996 454.834L212.227 510.707Z" fill="black"/>
<path fill-rule="evenodd" clip-rule="evenodd" d="M284.594 423.149L312.346 444.253L314.402 443.062V437.981L286.658 421.958L284.594 423.149Z" fill="#2C2A2A"/>
<path fill-rule="evenodd" clip-rule="evenodd" d="M284.594 428.239L312.346 444.253V439.163L284.594 423.149V428.239Z" fill="#252422"/>
<path fill-rule="evenodd" clip-rule="evenodd" d="M236.432 485.166L211.456 470.754V463.831L237.186 477.737L236.432 485.166Z" fill="#2C2A2A"/>
<path fill-rule="evenodd" clip-rule="evenodd" d="M301.919 447.363L236.432 485.166V478.251L308.996 436.353L301.919 447.363Z" fill="#252422"/>
<path fill-rule="evenodd" clip-rule="evenodd" d="M237.666 479.185L209.922 463.163V429.533L237.666 445.555V479.185Z" fill="#C8C6C6"/>
<path fill-rule="evenodd" clip-rule="evenodd" d="M314.402 401.249L237.666 445.555L209.922 429.533L286.659 385.227L314.402 401.249Z" fill="#DBDADB"/>
<path fill-rule="evenodd" clip-rule="evenodd" d="M237.666 481.43L209.922 465.407V463.163L237.666 479.185V481.43Z" fill="#403D3E"/>
<path fill-rule="evenodd" clip-rule="evenodd" d="M291.259 458.108L286.453 455.331L286.29 454.569L289.614 454.072L291.508 456.377L291.259 458.108Z" fill="#2C2A2A"/>
<path fill-rule="evenodd" clip-rule="evenodd" d="M285.562 455.443C288.415 453.806 290.703 455.134 290.703 458.407C290.703 461.672 288.415 465.656 285.562 467.284C282.743 468.92 280.438 467.601 280.438 464.328C280.438 461.055 282.743 457.088 285.562 455.443Z" fill="#433F3E"/>
<path fill-rule="evenodd" clip-rule="evenodd" d="M280.901 452.735C282.28 451.938 283.531 451.853 284.448 452.349H284.456L289.16 455.066C288.244 454.56 286.975 454.637 285.562 455.443C282.743 457.088 280.438 461.055 280.438 464.328C280.438 465.887 280.969 467.018 281.826 467.575L277.165 464.885C276.291 464.319 275.76 463.197 275.76 461.629C275.76 458.356 278.056 454.372 280.901 452.735Z" fill="#54514F"/>
<path fill-rule="evenodd" clip-rule="evenodd" d="M285.356 455.323C286.744 454.517 288.003 454.44 288.92 454.92L289.16 455.066C288.243 454.56 286.975 454.637 285.561 455.443C282.742 457.088 280.438 461.055 280.438 464.328C280.438 465.887 280.969 467.018 281.826 467.575L281.637 467.455C281.637 467.455 280.24 466.65 280.24 464.199C280.24 460.935 282.52 456.951 285.356 455.323Z" fill="#605E5C"/>
<path fill-rule="evenodd" clip-rule="evenodd" d="M283.831 454.44C285.219 453.643 286.478 453.566 287.387 454.055L287.644 454.2C286.71 453.678 285.442 453.763 284.045 454.56C281.209 456.205 278.904 460.172 278.904 463.454C278.904 465.013 279.435 466.136 280.309 466.693H280.292L280.104 466.581C280.104 466.581 278.707 465.776 278.707 463.325C278.707 460.052 281.003 456.085 283.831 454.44Z" fill="#3B3937"/>
<path fill-rule="evenodd" clip-rule="evenodd" d="M282.263 453.532C283.634 452.727 284.885 452.641 285.81 453.129L286.058 453.275C285.142 452.761 283.874 452.838 282.46 453.661C279.632 455.297 277.345 459.264 277.345 462.537C277.345 464.114 277.867 465.228 278.733 465.785L278.527 465.656C278.527 465.656 277.113 464.851 277.113 462.409C277.113 459.136 279.418 455.16 282.263 453.532Z" fill="#3B3937"/>
<path fill-rule="evenodd" clip-rule="evenodd" d="M280.036 462.88L279.633 461.706L280.567 460.823L280.344 459.572L281.501 458.887L281.381 457.576L282.709 457.173L282.846 455.922L284.217 455.734L284.534 454.826L286.196 454.654L286.727 454.183C286.727 454.183 287.927 454.491 288.27 454.603L288.621 454.766L288.827 454.86C288.664 454.783 288.484 454.714 288.295 454.663C288.004 454.569 286.882 454.269 286.882 454.269L286.342 454.757L284.688 454.92L284.38 455.828L283.009 456.025L282.889 457.25L281.569 457.645L281.664 458.964L280.515 459.632L280.764 460.866L279.813 461.749L280.207 462.94L279.521 463.985L280.156 464.987L279.839 465.69L280.704 466.564L280.824 467.001L280.67 466.907L280.61 466.573L279.701 465.656L280.01 464.962L279.342 463.985L280.036 462.88Z" fill="#433F3E"/>
<path fill-rule="evenodd" clip-rule="evenodd" d="M278.382 461.92L277.979 460.755L278.922 459.864L278.699 458.613L279.847 457.936L279.727 456.617L281.055 456.214L281.192 454.971L282.563 454.783L282.88 453.875L284.551 453.686L285.065 453.215C285.065 453.215 286.29 453.532 286.625 453.661L286.976 453.806L287.19 453.918C287.01 453.823 286.822 453.746 286.659 453.712C286.368 453.618 285.237 453.318 285.237 453.318L284.688 453.798L283.052 453.969L282.735 454.86L281.355 455.074L281.261 456.291L279.916 456.685L280.027 458.03L278.862 458.673L279.11 459.907L278.159 460.789L278.545 461.972L277.868 463.034L278.519 464.037L278.202 464.739L279.059 465.605L279.179 466.041L279.016 465.956L278.965 465.622L278.056 464.705L278.365 464.011L277.688 463.026L278.382 461.92Z" fill="#433F3E"/>
<path fill-rule="evenodd" clip-rule="evenodd" d="M276.754 460.978L276.351 459.812L277.302 458.921L277.053 457.67L278.219 456.994L278.099 455.683L279.435 455.28L279.573 454.038L280.926 453.84L281.243 452.941L282.914 452.761L283.437 452.272C283.437 452.272 284.662 452.589 284.988 452.709L285.347 452.872V452.855L285.545 452.984C285.382 452.889 285.21 452.812 285.022 452.761C284.722 452.675 283.608 452.367 283.608 452.367L283.051 452.847L281.415 453.026L281.106 453.918L279.727 454.123L279.615 455.357L278.287 455.751L278.382 457.079L277.233 457.739L277.473 458.964L276.531 459.855L276.925 461.038L276.24 462.092L276.882 463.094L276.565 463.779L277.422 464.671L277.55 465.09L277.388 465.005L277.328 464.679L276.428 463.762L276.728 463.068L276.06 462.092L276.754 460.978Z" fill="#433F3E"/>
<path fill-rule="evenodd" clip-rule="evenodd" d="M285.562 457.165C287.584 456.017 289.212 456.942 289.212 459.264C289.212 461.586 287.584 464.414 285.562 465.57C283.565 466.718 281.938 465.785 281.938 463.471C281.938 461.149 283.565 458.33 285.562 457.165Z" fill="#32302E"/>
<path fill-rule="evenodd" clip-rule="evenodd" d="M285.562 457.688C287.327 456.685 288.749 457.508 288.749 459.53C288.749 461.552 287.327 464.02 285.562 465.039C283.805 466.05 282.4 465.228 282.4 463.197C282.4 461.184 283.805 458.707 285.562 457.688Z" fill="#9D9896"/>
<path fill-rule="evenodd" clip-rule="evenodd" d="M286.693 460.712C286.693 461.432 286.188 462.306 285.562 462.666C284.945 463.026 284.448 462.734 284.448 462.023C284.448 461.295 284.945 460.429 285.562 460.07C286.188 459.71 286.693 460.01 286.693 460.712Z" fill="#797675"/>
<path fill-rule="evenodd" clip-rule="evenodd" d="M285.862 461.192C285.862 461.38 285.725 461.62 285.562 461.706C285.399 461.809 285.271 461.732 285.271 461.543C285.271 461.346 285.399 461.123 285.562 461.029C285.725 460.935 285.862 461.012 285.862 461.192Z" fill="#605E5C"/>
<path fill-rule="evenodd" clip-rule="evenodd" d="M285.159 460.806L285.227 460.832V461.166L284.927 461.338L284.876 461.261L285.107 461.081L285.159 460.806Z" fill="#5A5857"/>
<path fill-rule="evenodd" clip-rule="evenodd" d="M285.159 460.806L285.107 461.081L284.876 461.261L284.927 461.003L285.159 460.806Z" fill="#3B3937"/>
<path fill-rule="evenodd" clip-rule="evenodd" d="M285.168 461.963L285.236 461.972V462.323L284.936 462.477L284.885 462.409L285.125 462.229L285.168 461.963Z" fill="#5A5857"/>
<path fill-rule="evenodd" clip-rule="evenodd" d="M285.168 461.963L285.125 462.229L284.885 462.409L284.936 462.143L285.168 461.963Z" fill="#3B3937"/>
<path fill-rule="evenodd" clip-rule="evenodd" d="M286.17 461.372L286.23 461.38V461.732L285.93 461.894L285.887 461.826L286.119 461.629L286.17 461.372Z" fill="#5A5857"/>
<path fill-rule="evenodd" clip-rule="evenodd" d="M286.17 461.372L286.119 461.629L285.887 461.826L285.93 461.552L286.17 461.372Z" fill="#3B3937"/>
<path fill-rule="evenodd" clip-rule="evenodd" d="M286.17 460.224L286.213 460.232V460.584L285.93 460.755L285.878 460.678L286.11 460.489L286.17 460.224Z" fill="#5A5857"/>
<path fill-rule="evenodd" clip-rule="evenodd" d="M286.17 460.224L286.11 460.489L285.878 460.678L285.93 460.412L286.17 460.224Z" fill="#3B3937"/>
<path fill-rule="evenodd" clip-rule="evenodd" d="M286.342 457.353L286.676 457.285C286.59 457.953 286.136 458.681 285.562 459.007C285.159 459.247 284.816 459.195 284.611 458.93C284.799 458.99 285.039 458.964 285.288 458.81C285.776 458.527 286.187 457.953 286.342 457.353Z" fill="#605E5C"/>
<path fill-rule="evenodd" clip-rule="evenodd" d="M286.341 457.354C286.187 457.953 285.776 458.527 285.287 458.81C285.039 458.964 284.799 458.99 284.61 458.93L284.456 458.579C284.816 458.219 285.167 457.919 285.561 457.688C285.836 457.542 286.11 457.422 286.341 457.354Z" fill="#3B3937"/>
<path fill-rule="evenodd" clip-rule="evenodd" d="M284.225 464.02H284.25C284.662 464.191 284.782 464.774 284.55 465.425C283.968 465.545 283.462 465.408 283.085 465.073C283.411 465.262 283.813 465.313 284.276 465.236C284.448 464.739 284.422 464.277 284.225 464.02Z" fill="#605E5C"/>
<path fill-rule="evenodd" clip-rule="evenodd" d="M284.277 465.236C283.814 465.313 283.411 465.262 283.086 465.073L282.837 464.816C283.249 464.234 283.797 463.891 284.225 464.019C284.423 464.276 284.448 464.739 284.277 465.236Z" fill="#3B3937"/>
<path fill-rule="evenodd" clip-rule="evenodd" d="M283.214 460.558C283.582 460.669 283.754 461.141 283.608 461.783C283.428 462.477 282.923 463.129 282.4 463.36V463.197V462.991C282.811 462.692 283.18 462.16 283.317 461.578C283.437 461.141 283.385 460.781 283.214 460.558Z" fill="#605E5C"/>
<path fill-rule="evenodd" clip-rule="evenodd" d="M283.214 460.558C283.385 460.781 283.437 461.14 283.317 461.577C283.18 462.16 282.811 462.691 282.4 462.991C282.434 462.194 282.691 461.338 283.085 460.532L283.214 460.558Z" fill="#3B3937"/>
<path fill-rule="evenodd" clip-rule="evenodd" d="M288.295 461.689C287.901 462.666 287.293 463.582 286.565 464.276L286.453 463.908C287.061 463.282 287.576 462.503 287.944 461.672L288.295 461.689Z" fill="#605E5C"/>
<path fill-rule="evenodd" clip-rule="evenodd" d="M287.944 461.672C287.575 462.503 287.061 463.282 286.453 463.908C286.41 463.514 286.547 462.991 286.855 462.52C287.172 462.04 287.584 461.74 287.944 461.672Z" fill="#3B3937"/>
<path fill-rule="evenodd" clip-rule="evenodd" d="M288.466 459.324C288.466 458.63 288.304 458.082 288.012 457.705L288.064 457.645C288.484 458.03 288.749 458.673 288.749 459.53V459.693C288.295 460.027 287.858 460.035 287.627 459.727C287.858 459.795 288.158 459.727 288.466 459.495V459.324Z" fill="#605E5C"/>
<path fill-rule="evenodd" clip-rule="evenodd" d="M288.467 459.324V459.495C288.158 459.727 287.858 459.795 287.627 459.727L287.507 459.521C287.336 459.024 287.567 458.262 288.013 457.705C288.304 458.082 288.467 458.63 288.467 459.324Z" fill="#3B3937"/>
<path fill-rule="evenodd" clip-rule="evenodd" d="M290.103 454.072L285.279 451.304H285.271C284.165 450.516 282.563 450.55 280.807 451.561C277.705 453.361 275.074 457.67 274.826 461.389L274.937 461.655L280.01 464.585L280.687 461.826L282.229 458.544L284.696 455.683L287.37 454.183L290.103 454.072Z" fill="#C8C6C6"/>
<path fill-rule="evenodd" clip-rule="evenodd" d="M291.525 458.09C291.337 458.193 291.174 458.124 291.157 457.91C290.943 454.894 288.638 453.772 285.904 455.348C283.18 456.925 280.866 460.712 280.652 463.977C280.635 464.216 280.455 464.491 280.258 464.585C280.061 464.688 279.907 464.576 279.924 464.336C280.172 460.618 282.803 456.299 285.904 454.509C289.015 452.718 291.637 453.995 291.885 457.422C291.902 457.645 291.757 457.936 291.551 458.073L291.525 458.09Z" fill="#9D9C9E"/>
<path fill-rule="evenodd" clip-rule="evenodd" d="M314.402 434.887L237.666 479.185V445.555L314.402 401.249V434.887Z" fill="#B2B1B3"/>
<path fill-rule="evenodd" clip-rule="evenodd" d="M314.402 437.124L237.666 481.43V479.185L314.402 434.888V437.124Z" fill="#2C2A2A"/>
<path fill-rule="evenodd" clip-rule="evenodd" d="M193.626 467.087L195.691 468.278L196.051 468.072L193.986 466.873L193.626 467.087Z" fill="#403D3E"/>
<path fill-rule="evenodd" clip-rule="evenodd" d="M195.69 473.453L196.05 473.247V468.072L195.69 468.278V473.453Z" fill="#252422"/>
<path fill-rule="evenodd" clip-rule="evenodd" d="M193.626 472.253L195.691 473.453V468.278L193.626 467.087V472.253Z" fill="#2C2A2A"/>
<path fill-rule="evenodd" clip-rule="evenodd" d="M195.921 472.459L195.724 472.793L195.784 472.922L196.778 473.479L197.044 473.007L196.05 472.45L195.921 472.459Z" fill="#32302E"/>
<path fill-rule="evenodd" clip-rule="evenodd" d="M196.915 473.025L196.727 473.359L196.915 473.47L197.104 473.136L196.915 473.025Z" fill="#272724"/>
<path fill-rule="evenodd" clip-rule="evenodd" d="M193.891 485.2L199.015 482.252L198.441 481.918L193.326 484.874L193.891 485.2Z" fill="#C8C6C6"/>
<path fill-rule="evenodd" clip-rule="evenodd" d="M201.302 457.105C196.333 459.975 194.482 471.534 194.482 473.222C194.482 474.91 194.482 488.233 194.482 488.233L217.033 501.257L218.07 498.849C218.07 498.849 217.033 478.86 223.185 472.262L234.941 463.72L212.389 450.705C212.389 450.705 202.956 456.145 201.302 457.105Z" fill="#DBDADB"/>
<path fill-rule="evenodd" clip-rule="evenodd" d="M222.14 470.557L200.762 458.21C197.001 461.62 195.347 470.094 195.064 472.853L216.442 485.2C216.725 482.441 218.378 473.958 222.14 470.557Z" fill="#2C2A2A"/>
<path fill-rule="evenodd" clip-rule="evenodd" d="M216.305 483.367C216.271 483.581 216.237 483.786 216.211 483.983L195.51 472.031C195.999 468.732 197.575 461.98 200.703 458.75L200.848 458.836C197.978 462.203 196.522 468.527 196.05 471.671L216.305 483.367Z" fill="#284968"/>
<path fill-rule="evenodd" clip-rule="evenodd" d="M221.403 470.703C218.456 473.744 216.897 479.905 216.305 483.366L196.05 471.671C196.522 468.518 197.978 462.203 200.848 458.836L221.403 470.703Z" fill="#527CAE"/>
<path fill-rule="evenodd" clip-rule="evenodd" d="M201.028 458.939C198.064 461.741 196.504 469.349 196.084 471.688L197.37 472.434L197.841 472.168C198.261 471.919 198.878 471.32 199.203 470.823L202.793 465.442C203.119 464.945 203.736 464.345 204.156 464.105L206.178 462.931V461.912L201.028 458.939Z" fill="#799FCD"/>
<path fill-rule="evenodd" clip-rule="evenodd" d="M232.885 480.196L220.427 487.393V496.921L223.991 494.865L227.196 489.621L232.885 486.34V480.196Z" fill="#252422"/>
<path fill-rule="evenodd" clip-rule="evenodd" d="M228.378 488.439C231.231 486.793 233.527 488.13 233.527 491.403C233.527 494.676 231.231 498.669 228.378 500.297C225.55 501.942 223.246 500.614 223.246 497.341C223.246 494.059 225.55 490.092 228.378 488.439Z" fill="#433F3E"/>
<path fill-rule="evenodd" clip-rule="evenodd" d="M223.699 485.722C225.088 484.934 226.338 484.84 227.264 485.337H227.272L231.985 488.061C231.06 487.547 229.791 487.633 228.378 488.438C225.55 490.092 223.245 494.059 223.245 497.341C223.245 498.9 223.777 500.031 224.633 500.597L219.964 497.889C219.09 497.324 218.559 496.201 218.559 494.633C218.559 491.36 220.855 487.367 223.699 485.722Z" fill="#54514F"/>
<path fill-rule="evenodd" clip-rule="evenodd" d="M228.163 488.319C229.551 487.513 230.819 487.428 231.745 487.916L231.985 488.062C231.059 487.548 229.791 487.633 228.378 488.439C225.55 490.092 223.245 494.059 223.245 497.341C223.245 498.9 223.776 500.031 224.633 500.597L224.436 500.468C224.436 500.468 223.04 499.663 223.04 497.213C223.04 493.94 225.327 489.947 228.163 488.319Z" fill="#605E5C"/>
<path fill-rule="evenodd" clip-rule="evenodd" d="M226.638 487.436C228.026 486.639 229.286 486.554 230.211 487.042L230.46 487.196C229.517 486.665 228.258 486.751 226.852 487.556C224.008 489.201 221.703 493.177 221.703 496.459C221.703 498.027 222.243 499.149 223.117 499.706H223.1L222.902 499.603C222.902 499.603 221.506 498.789 221.506 496.33C221.506 493.057 223.802 489.081 226.638 487.436Z" fill="#3B3937"/>
<path fill-rule="evenodd" clip-rule="evenodd" d="M225.07 486.519C226.441 485.714 227.701 485.637 228.626 486.125L228.875 486.262C227.958 485.757 226.681 485.825 225.276 486.648C222.431 488.293 220.144 492.269 220.144 495.542C220.144 497.127 220.666 498.232 221.532 498.798L221.326 498.678C221.326 498.678 219.912 497.864 219.912 495.413C219.912 492.149 222.217 488.156 225.07 486.519Z" fill="#3B3937"/>
<path fill-rule="evenodd" clip-rule="evenodd" d="M222.834 495.884L222.431 494.711L223.374 493.819L223.142 492.568L224.299 491.892L224.179 490.572L225.516 490.169L225.653 488.918L227.024 488.73L227.341 487.822L229.012 487.65L229.543 487.171C229.543 487.171 230.742 487.479 231.085 487.599L231.445 487.762L231.642 487.856C231.488 487.779 231.308 487.702 231.111 487.65C230.819 487.565 229.697 487.256 229.697 487.256L229.157 487.753L227.504 487.916L227.187 488.824L225.816 489.021L225.696 490.247L224.368 490.641L224.47 491.969L223.314 492.637L223.562 493.871L222.611 494.753L223.005 495.944L222.328 496.998L222.962 498.001L222.645 498.695L223.502 499.577L223.631 500.014L223.477 499.92L223.417 499.586L222.508 498.678L222.808 497.975L222.148 496.998L222.834 495.884Z" fill="#433F3E"/>
<path fill-rule="evenodd" clip-rule="evenodd" d="M221.18 494.925L220.778 493.759L221.729 492.86L221.497 491.617L222.654 490.932L222.526 489.621L223.862 489.21L223.999 487.967L225.37 487.779L225.687 486.871L227.367 486.682L227.881 486.211C227.881 486.211 229.106 486.519 229.44 486.648L229.791 486.794L230.006 486.914C229.826 486.819 229.637 486.742 229.466 486.708C229.183 486.614 228.043 486.314 228.043 486.314L227.504 486.785L225.859 486.965L225.542 487.856L224.162 488.07L224.068 489.287L222.723 489.681L222.825 491.026L221.669 491.669L221.909 492.911L220.966 493.794L221.343 494.976L220.666 496.039L221.326 497.05L221 497.752L221.857 498.626L221.986 499.055L221.814 498.969L221.763 498.635L220.855 497.718L221.163 497.015L220.486 496.03L221.18 494.925Z" fill="#433F3E"/>
<path fill-rule="evenodd" clip-rule="evenodd" d="M219.553 493.982L219.15 492.808L220.101 491.926L219.853 490.658L221.018 489.99L220.898 488.679L222.234 488.276L222.372 487.033L223.734 486.828L224.051 485.928L225.722 485.748L226.244 485.26C226.244 485.26 227.47 485.585 227.804 485.705L228.155 485.86V485.851L228.361 485.971C228.198 485.877 228.018 485.808 227.838 485.748C227.53 485.671 226.416 485.363 226.416 485.363L225.859 485.834L224.222 486.022L223.914 486.914L222.526 487.119L222.423 488.353L221.095 488.756L221.181 490.075L220.032 490.744L220.272 491.96L219.321 492.851L219.724 494.042L219.039 495.105L219.681 496.107L219.356 496.793L220.221 497.684L220.35 498.104L220.187 498.018L220.127 497.692L219.219 496.775L219.518 496.073L218.859 495.105L219.553 493.982Z" fill="#433F3E"/>
<path fill-rule="evenodd" clip-rule="evenodd" d="M228.378 490.161C230.4 489.013 232.028 489.938 232.028 492.269C232.028 494.59 230.4 497.427 228.378 498.583C226.373 499.731 224.745 498.797 224.745 496.475C224.745 494.162 226.373 491.335 228.378 490.161Z" fill="#32302E"/>
<path fill-rule="evenodd" clip-rule="evenodd" d="M228.378 490.692C230.143 489.681 231.565 490.504 231.565 492.534C231.565 494.556 230.143 497.032 228.378 498.052C226.622 499.063 225.208 498.232 225.208 496.21C225.208 494.188 226.622 491.712 228.378 490.692Z" fill="#9D9896"/>
<path fill-rule="evenodd" clip-rule="evenodd" d="M229.509 493.717C229.509 494.436 229.003 495.31 228.378 495.67C227.761 496.03 227.264 495.747 227.264 495.027C227.264 494.308 227.761 493.434 228.378 493.074C229.003 492.714 229.509 493.014 229.509 493.717Z" fill="#797675"/>
<path fill-rule="evenodd" clip-rule="evenodd" d="M228.678 494.205C228.678 494.385 228.541 494.625 228.378 494.711C228.215 494.813 228.086 494.745 228.086 494.548C228.086 494.351 228.215 494.128 228.378 494.034C228.541 493.939 228.678 494.016 228.678 494.205Z" fill="#605E5C"/>
<path fill-rule="evenodd" clip-rule="evenodd" d="M227.975 493.811L228.035 493.836V494.171L227.744 494.35L227.684 494.273L227.924 494.085L227.975 493.811Z" fill="#5A5857"/>
<path fill-rule="evenodd" clip-rule="evenodd" d="M227.975 493.811L227.924 494.085L227.684 494.273L227.744 494.008L227.975 493.811Z" fill="#3B3937"/>
<path fill-rule="evenodd" clip-rule="evenodd" d="M227.984 494.967L228.044 494.976V495.327L227.753 495.49L227.701 495.413L227.933 495.233L227.984 494.967Z" fill="#5A5857"/>
<path fill-rule="evenodd" clip-rule="evenodd" d="M227.984 494.967L227.933 495.233L227.701 495.413L227.753 495.156L227.984 494.967Z" fill="#3B3937"/>
<path fill-rule="evenodd" clip-rule="evenodd" d="M228.978 494.376L229.046 494.385V494.745L228.746 494.899L228.704 494.831L228.935 494.642L228.978 494.376Z" fill="#5A5857"/>
<path fill-rule="evenodd" clip-rule="evenodd" d="M228.978 494.376L228.935 494.642L228.704 494.831L228.746 494.556L228.978 494.376Z" fill="#3B3937"/>
<path fill-rule="evenodd" clip-rule="evenodd" d="M228.978 493.228L229.029 493.237V493.588L228.738 493.759L228.695 493.682L228.918 493.494L228.978 493.228Z" fill="#5A5857"/>
<path fill-rule="evenodd" clip-rule="evenodd" d="M228.978 493.228L228.918 493.494L228.695 493.682L228.738 493.417L228.978 493.228Z" fill="#3B3937"/>
<path fill-rule="evenodd" clip-rule="evenodd" d="M229.158 490.358L229.492 490.281C229.406 490.949 228.952 491.686 228.378 492.012C227.967 492.252 227.624 492.2 227.418 491.935C227.607 491.995 227.847 491.96 228.104 491.815C228.592 491.523 229.004 490.949 229.158 490.358Z" fill="#605E5C"/>
<path fill-rule="evenodd" clip-rule="evenodd" d="M229.157 490.358C229.003 490.949 228.583 491.523 228.104 491.814C227.847 491.96 227.607 491.994 227.418 491.934L227.272 491.575C227.624 491.215 227.984 490.923 228.378 490.692C228.652 490.538 228.918 490.426 229.157 490.358Z" fill="#3B3937"/>
<path fill-rule="evenodd" clip-rule="evenodd" d="M227.032 497.033H227.067C227.478 497.195 227.589 497.787 227.367 498.438C226.784 498.549 226.27 498.421 225.893 498.086C226.218 498.275 226.63 498.326 227.084 498.249C227.264 497.752 227.229 497.29 227.032 497.033Z" fill="#605E5C"/>
<path fill-rule="evenodd" clip-rule="evenodd" d="M227.084 498.249C226.63 498.326 226.218 498.275 225.893 498.087L225.644 497.829C226.056 497.247 226.612 496.904 227.032 497.024C227.229 497.29 227.264 497.752 227.084 498.249Z" fill="#3B3937"/>
<path fill-rule="evenodd" clip-rule="evenodd" d="M226.022 493.562C226.399 493.674 226.57 494.145 226.416 494.788C226.236 495.49 225.73 496.142 225.208 496.373V496.21V496.004C225.619 495.705 225.987 495.156 226.125 494.582C226.245 494.145 226.193 493.777 226.022 493.562Z" fill="#605E5C"/>
<path fill-rule="evenodd" clip-rule="evenodd" d="M226.022 493.562C226.193 493.777 226.245 494.145 226.125 494.582C225.987 495.156 225.619 495.704 225.208 496.004C225.242 495.199 225.499 494.342 225.893 493.537L226.022 493.562Z" fill="#3B3937"/>
<path fill-rule="evenodd" clip-rule="evenodd" d="M231.111 494.702C230.717 495.67 230.108 496.596 229.38 497.29L229.269 496.921C229.877 496.296 230.391 495.508 230.759 494.677L231.111 494.702Z" fill="#605E5C"/>
<path fill-rule="evenodd" clip-rule="evenodd" d="M230.76 494.677C230.392 495.508 229.877 496.296 229.269 496.921C229.226 496.519 229.363 496.005 229.672 495.533C229.989 495.045 230.4 494.745 230.76 494.677Z" fill="#3B3937"/>
<path fill-rule="evenodd" clip-rule="evenodd" d="M231.282 492.329C231.282 491.635 231.128 491.086 230.828 490.709L230.879 490.641C231.308 491.026 231.565 491.669 231.565 492.534V492.697C231.111 493.023 230.674 493.04 230.442 492.731C230.674 492.8 230.974 492.723 231.282 492.5V492.329Z" fill="#605E5C"/>
<path fill-rule="evenodd" clip-rule="evenodd" d="M231.282 492.329V492.5C230.974 492.723 230.674 492.8 230.443 492.731L230.323 492.517C230.16 492.029 230.383 491.266 230.828 490.709C231.128 491.086 231.282 491.635 231.282 492.329Z" fill="#3B3937"/>
<path fill-rule="evenodd" clip-rule="evenodd" d="M223.854 470.128C218.884 472.99 217.034 484.549 217.034 486.245C217.034 487.933 217.034 501.257 217.034 501.257L222.483 498.103V494.762C222.483 494.762 224.077 487.659 226.69 486.151L234.941 481.387V463.719C234.941 463.719 225.508 469.169 223.854 470.128Z" fill="#B2B1B3"/>
<path fill-rule="evenodd" clip-rule="evenodd" d="M235.952 481.507L235.146 481.036L234.941 481.053L226.69 485.817C223.896 487.428 222.277 494.522 222.208 494.822L222.294 495.113L223.057 495.559L225.593 488.619L226.81 487.171L235.952 481.507Z" fill="#403D3E"/>
<path fill-rule="evenodd" clip-rule="evenodd" d="M223.263 495.542L223.186 495.576C223.031 495.61 222.946 495.482 222.989 495.276C223.057 494.976 224.676 487.882 227.47 486.271L235.729 481.507C235.884 481.413 236.012 481.49 236.012 481.67C236.012 481.858 235.884 482.072 235.729 482.167L227.47 486.931C225.105 488.302 223.554 495.079 223.537 495.147C223.503 495.319 223.391 495.473 223.263 495.542Z" fill="#252422"/>
<path fill-rule="evenodd" clip-rule="evenodd" d="M217.779 494.848V485.585H218.139V494.231L222.14 491.917C222.337 491.257 223.811 486.476 226.039 485.183L233.004 481.164V472.262H233.364V481.378L226.218 485.5C223.999 486.776 222.483 492.037 222.466 492.089L222.44 492.157L217.779 494.848Z" fill="#5D595E"/>
<path fill-rule="evenodd" clip-rule="evenodd" d="M219.964 485.269L218.773 485.954C218.447 486.142 218.147 486.151 217.959 485.988C217.796 485.834 217.745 485.577 217.804 485.243C217.873 484.772 219.681 473.23 223.982 470.745L232.345 465.922C232.927 465.579 233.399 465.862 233.399 466.53V471.876C233.399 472.545 232.927 473.367 232.345 473.693L226.27 477.206C225.919 477.412 225.37 477.951 225.087 478.371L221.506 483.752C221.129 484.317 220.452 484.986 219.964 485.269Z" fill="#2C2A2A"/>
<path fill-rule="evenodd" clip-rule="evenodd" d="M228.301 468.586V475.706L226.27 476.872C225.85 477.12 225.242 477.72 224.916 478.208L221.326 483.598C221.001 484.095 220.384 484.694 219.964 484.934L218.773 485.628C218.447 485.808 218.165 485.757 218.087 485.483L218.353 485.38L219.544 484.694C219.972 484.454 220.581 483.846 220.906 483.358L224.496 477.977C224.822 477.48 225.439 476.88 225.859 476.632L227.881 475.466V468.826L228.301 468.586Z" fill="#284968"/>
<path fill-rule="evenodd" clip-rule="evenodd" d="M227.881 468.826V475.467L225.859 476.632C225.439 476.88 224.822 477.48 224.496 477.977L220.906 483.358C220.581 483.846 219.972 484.455 219.544 484.695L218.353 485.38L218.087 485.483V485.166C218.087 485.166 219.87 473.453 223.982 471.088C224.985 470.506 226.45 469.649 227.881 468.826Z" fill="#3C6597"/>
<path fill-rule="evenodd" clip-rule="evenodd" d="M233.107 466.693V472.048C233.107 472.527 232.765 473.127 232.345 473.367L228.866 475.372V474.892L231.925 473.136C232.345 472.887 232.696 472.288 232.696 471.808V466.453L232.636 466.153C232.91 466.127 233.107 466.333 233.107 466.693Z" fill="#284968"/>
<path fill-rule="evenodd" clip-rule="evenodd" d="M232.696 466.453V471.808C232.696 472.288 232.345 472.888 231.925 473.136L228.866 474.893V468.252C230.751 467.173 232.345 466.247 232.345 466.247L232.636 466.153L232.696 466.453Z" fill="#3C6597"/>
<path fill-rule="evenodd" clip-rule="evenodd" d="M232.473 478.971C232.473 479.399 232.113 479.965 231.668 480.222L230.914 480.659C230.468 480.907 230.108 480.761 230.108 480.333C230.108 479.905 230.468 479.339 230.914 479.082L231.668 478.645C232.113 478.388 232.473 478.534 232.473 478.971Z" fill="#2C2A2A"/>
<path fill-rule="evenodd" clip-rule="evenodd" d="M215.765 493.665V486.117L195.064 474.207V481.764L215.765 493.665Z" fill="#403D3E"/>
<path fill-rule="evenodd" clip-rule="evenodd" d="M215.765 486.982V486.417L195.064 474.516V475.081L215.765 486.982Z" fill="#2C2A2A"/>
<path fill-rule="evenodd" clip-rule="evenodd" d="M215.765 488.062V487.496L195.064 475.595V476.152L215.765 488.062Z" fill="#2C2A2A"/>
<path fill-rule="evenodd" clip-rule="evenodd" d="M215.765 489.133V488.567L195.064 476.666V477.232L215.765 489.133Z" fill="#2C2A2A"/>
<path fill-rule="evenodd" clip-rule="evenodd" d="M215.765 490.212V489.647L195.064 477.746V478.311L215.765 490.212Z" fill="#2C2A2A"/>
<path fill-rule="evenodd" clip-rule="evenodd" d="M215.765 491.292V490.726L195.064 478.825V479.382L215.765 491.292Z" fill="#2C2A2A"/>
<path fill-rule="evenodd" clip-rule="evenodd" d="M215.765 492.363V491.797L195.064 479.905V480.462L215.765 492.363Z" fill="#2C2A2A"/>
<path fill-rule="evenodd" clip-rule="evenodd" d="M215.765 493.443V492.877L195.064 480.976V481.541L215.765 493.443Z" fill="#2C2A2A"/>
<path fill-rule="evenodd" clip-rule="evenodd" d="M216.125 485.903L195.424 474.001L195.064 474.207L215.765 486.117L216.125 485.903Z" fill="#5D595E"/>
<path fill-rule="evenodd" clip-rule="evenodd" d="M216.125 493.459V485.902L215.765 486.117V493.665L216.125 493.459Z" fill="#2C2A2A"/>
<path fill-rule="evenodd" clip-rule="evenodd" d="M205.929 485.071L205.749 485.174L204.909 483.007L205.081 482.904L205.929 483.392V485.071Z" fill="#5D595E"/>
<path fill-rule="evenodd" clip-rule="evenodd" d="M205.749 485.174L204.909 484.686V483.006L205.749 483.486V485.174Z" fill="#B2B1B3"/>
<path fill-rule="evenodd" clip-rule="evenodd" d="M205.604 484.909L205.013 484.575V483.255L205.604 483.598V484.909Z" fill="#DC2127"/>
<path fill-rule="evenodd" clip-rule="evenodd" d="M217.034 501.908L193.326 488.216V484.875L217.034 497.907V501.257V501.908Z" fill="#777777"/>
<path fill-rule="evenodd" clip-rule="evenodd" d="M217.033 498.558L193.891 485.2L194.474 484.875L217.033 497.907V498.558Z" fill="#C8C6C6"/>
<path fill-rule="evenodd" clip-rule="evenodd" d="M217.034 501.908L222.157 498.96V495.61L217.034 497.906V501.257V501.908Z" fill="#4F4F4F"/>
<path fill-rule="evenodd" clip-rule="evenodd" d="M217.034 498.558L222.157 495.61L221.583 495.276L217.034 497.907V498.558Z" fill="#B2B1B3"/>
<path fill-rule="evenodd" clip-rule="evenodd" d="M216.126 496.87L209.974 493.323V490.692L216.126 494.248V496.87Z" fill="#B2B1B3"/>
<path fill-rule="evenodd" clip-rule="evenodd" d="M212.766 494.625L210.419 493.271V491.283L212.766 492.637V494.625Z" fill="#EADEB7"/>
<path fill-rule="evenodd" clip-rule="evenodd" d="M215.662 496.296L213.323 494.942V492.963L215.662 494.317V496.296Z" fill="#EADEB7"/>
<path fill-rule="evenodd" clip-rule="evenodd" d="M201.516 488.439L195.365 484.883V482.261L201.516 485.817V488.439Z" fill="#B2B1B3"/>
<path fill-rule="evenodd" clip-rule="evenodd" d="M198.15 486.185L195.811 484.831V482.852L198.15 484.206V486.185Z" fill="#EADEB7"/>
<path fill-rule="evenodd" clip-rule="evenodd" d="M201.054 487.865L198.724 486.511V484.532L201.054 485.877V487.865Z" fill="#EADEB7"/>
<path fill-rule="evenodd" clip-rule="evenodd" d="M219.407 485.98L219.219 486.314L219.27 486.442L220.264 487.008L220.529 486.528L219.544 485.971L219.407 485.98Z" fill="#252422"/>
<path fill-rule="evenodd" clip-rule="evenodd" d="M220.401 486.477L220.212 486.802L220.401 486.914L220.598 486.579L220.401 486.477Z" fill="#EB6320"/>
<path fill-rule="evenodd" clip-rule="evenodd" d="M220.195 482.424L222.26 483.615L222.62 483.409L220.555 482.21L220.195 482.424Z" fill="#403D3E"/>
<path fill-rule="evenodd" clip-rule="evenodd" d="M222.26 488.79L222.62 488.576V483.409L222.26 483.615V488.79Z" fill="#252422"/>
<path fill-rule="evenodd" clip-rule="evenodd" d="M220.195 487.599L222.26 488.79V483.615L220.195 482.424V487.599Z" fill="#2C2A2A"/>
</g>
<defs>
<linearGradient id="paint0_linear_521_44402" x1="68.5" y1="580" x2="35.7445" y2="518.089" gradientUnits="userSpaceOnUse">
<stop stop-color="#C4C4C4"/>
<stop offset="1" stop-color="#C4C4C4" stop-opacity="0"/>
</linearGradient>
</defs>
</svg>
