<svg width="8" height="9" viewBox="0 0 8 9" fill="none" xmlns="http://www.w3.org/2000/svg">
<path d="M7.7772 7.11753V8.98197H0.991638L3.13511 6.73703C3.90457 5.93375 4.48377 5.21926 4.87272 4.59355C5.17712 4.12004 5.32932 3.68036 5.32932 3.27449C5.32932 2.91936 5.24477 2.64878 5.07566 2.46276C4.92346 2.29365 4.7163 2.2091 4.45417 2.2091C4.14132 2.2091 3.89611 2.32325 3.71854 2.55155C3.53252 2.7883 3.43106 3.13498 3.41415 3.59157H1.14384C1.15229 2.64456 1.46515 1.86242 2.0824 1.24517C2.6912 0.636369 3.49025 0.33197 4.47954 0.33197C5.48575 0.33197 6.28057 0.623686 6.864 1.20712C7.41361 1.75673 7.68841 2.45008 7.68841 3.28718C7.68841 4.18346 7.26986 5.02056 6.43277 5.79847L5.01224 7.11753H7.7772Z" fill="#595959"/>
</svg>
