<svg width="19" height="19" viewBox="0 0 19 19" fill="none" xmlns="http://www.w3.org/2000/svg">
<path d="M10.7225 6.72937H4.09828C3.36763 6.72937 2.77344 7.35075 2.77344 8.11483V15.0421C2.77344 15.8062 3.36763 16.4276 4.09828 16.4276H10.7225C11.4532 16.4276 12.0474 15.8062 12.0474 15.0421V8.11483C12.0474 7.35075 11.4532 6.72937 10.7225 6.72937Z" fill="#919191"/>
<path d="M14.6991 2.57294H8.07485C7.72347 2.57294 7.3865 2.7189 7.13804 2.97873C6.88958 3.23855 6.75 3.59095 6.75 3.9584V5.34386H12.0494C12.4008 5.34386 12.7377 5.48982 12.9862 5.74965C13.2346 6.00947 13.3742 6.36187 13.3742 6.72931V12.2712H14.6991C15.0504 12.2712 15.3874 12.1252 15.6359 11.8654C15.8843 11.6055 16.0239 11.2531 16.0239 10.8857V3.9584C16.0239 3.59095 15.8843 3.23855 15.6359 2.97873C15.3874 2.7189 15.0504 2.57294 14.6991 2.57294Z" fill="#919191"/>
</svg>
