<svg width="13" height="19" viewBox="0 0 13 19" fill="none" xmlns="http://www.w3.org/2000/svg">
<path d="M5 15C4.86739 15 4.74021 14.9473 4.64645 14.8536C4.55268 14.7598 4.5 14.6326 4.5 14.5V13H2.5C2.23478 13 1.98043 12.8946 1.79289 12.7071C1.60536 12.5196 1.5 12.2652 1.5 12V6C1.5 5.73478 1.60536 5.48043 1.79289 5.29289C1.98043 5.10536 2.23478 5 2.5 5H10.5C10.7652 5 11.0196 5.10536 11.2071 5.29289C11.3946 5.48043 11.5 5.73478 11.5 6V12C11.5 12.2652 11.3946 12.5196 11.2071 12.7071C11.0196 12.8946 10.7652 13 10.5 13H7.45L5.6 14.855C5.5 14.95 5.375 15 5.25 15H5Z" fill="#1D9F3A"/>
</svg>
