<svg width="24" height="25" viewBox="0 0 24 25" fill="none" xmlns="http://www.w3.org/2000/svg">
<path d="M6.85679 12.5C6.8562 12.8004 6.96083 13.0915 7.1525 13.3228L13.5811 21.0371C13.7993 21.2997 14.1129 21.4648 14.4529 21.4961C14.7929 21.5275 15.1314 21.4225 15.3939 21.2042C15.6565 20.986 15.8216 20.6724 15.853 20.3324C15.8843 19.9925 15.7793 19.654 15.5611 19.3914L9.80107 12.5L15.3554 5.60853C15.4622 5.47702 15.5419 5.3257 15.59 5.16326C15.6382 5.00082 15.6537 4.83048 15.6358 4.66201C15.6179 4.49355 15.5668 4.33029 15.4856 4.18161C15.4044 4.03293 15.2946 3.90178 15.1625 3.79568C15.0303 3.67793 14.8752 3.58875 14.7069 3.53374C14.5387 3.47872 14.3609 3.45904 14.1846 3.47594C14.0084 3.49284 13.8376 3.54594 13.6828 3.63194C13.5281 3.71793 13.3928 3.83496 13.2854 3.97568L7.07536 11.69C6.91398 11.9279 6.83703 12.2131 6.85679 12.5Z" fill="black"/>
</svg>
