<svg width="14" height="15" viewBox="0 0 14 15" fill="none" xmlns="http://www.w3.org/2000/svg">
<path d="M9.99996 7.42855C10.0003 7.60379 9.93927 7.77362 9.82746 7.90855L6.07746 12.4085C5.95016 12.5617 5.76723 12.658 5.56891 12.6763C5.37059 12.6946 5.17312 12.6334 5.01996 12.506C4.8668 12.3787 4.77048 12.1958 4.7522 11.9975C4.73391 11.7992 4.79516 11.6017 4.92246 11.4486L8.28246 7.42855L5.04246 3.40855C4.98016 3.33183 4.93364 3.24356 4.90557 3.14881C4.87749 3.05405 4.86842 2.95469 4.87888 2.85641C4.88933 2.75814 4.9191 2.66291 4.96648 2.57618C5.01386 2.48945 5.07792 2.41294 5.15496 2.35105C5.23208 2.28236 5.32255 2.23035 5.4207 2.19825C5.51886 2.16616 5.62258 2.15468 5.72538 2.16454C5.82818 2.17439 5.92783 2.20537 6.0181 2.25554C6.10837 2.3057 6.1873 2.37396 6.24996 2.45605L9.87246 6.95605C9.9666 7.09486 10.0115 7.26122 9.99996 7.42855Z" fill="white"/>
</svg>
