<svg width="14" height="14" viewBox="0 0 14 14" fill="none" xmlns="http://www.w3.org/2000/svg">
<path d="M8.16624 1.16699C9.23372 1.16648 10.2691 1.53196 11.0997 2.20248C11.9304 2.873 12.506 3.80802 12.7306 4.8516C12.9553 5.89518 12.8153 6.98423 12.3342 7.93712C11.853 8.89002 11.0597 9.64915 10.0866 10.0879C9.77551 10.7756 9.30229 11.3776 8.70749 11.8422C8.11269 12.3069 7.41406 12.6203 6.67152 12.7557C5.92899 12.891 5.1647 12.8443 4.4442 12.6194C3.72371 12.3945 3.06851 11.9982 2.5348 11.4645C2.0011 10.9308 1.60481 10.2756 1.37992 9.55511C1.15504 8.83462 1.10827 8.07033 1.24362 7.32779C1.37898 6.58525 1.69242 5.88662 2.15707 5.29182C2.62172 4.69702 3.22371 4.2238 3.91141 3.91274C4.28132 3.09426 4.8795 2.39987 5.63419 1.91285C6.38888 1.42583 7.26805 1.16685 8.16624 1.16699ZM5.83291 4.66699C5.37328 4.66699 4.91815 4.75752 4.49351 4.93341C4.06887 5.10931 3.68304 5.36711 3.35803 5.69212C3.03303 6.01712 2.77522 6.40296 2.59933 6.8276C2.42344 7.25224 2.33291 7.70737 2.33291 8.16699C2.33291 8.62662 2.42344 9.08175 2.59933 9.50638C2.77522 9.93102 3.03303 10.3169 3.35803 10.6419C3.68304 10.9669 4.06887 11.2247 4.49351 11.4006C4.91815 11.5765 5.37328 11.667 5.83291 11.667C6.76116 11.667 7.6514 11.2982 8.30778 10.6419C8.96416 9.98549 9.3329 9.09525 9.3329 8.16699C9.3329 7.23873 8.96416 6.3485 8.30778 5.69212C7.6514 5.03574 6.76116 4.66699 5.83291 4.66699ZM8.16624 2.33366C7.67197 2.33308 7.18321 2.43746 6.7323 2.63989C6.28139 2.84231 5.8786 3.13818 5.55057 3.50791C6.20989 3.46788 6.8702 3.56828 7.48783 3.80246C8.10545 4.03664 8.66633 4.39927 9.13337 4.86636C9.60041 5.33346 9.96297 5.89438 10.1971 6.51204C10.4312 7.12969 10.5315 7.79001 10.4914 8.44933C11.0218 7.97777 11.3963 7.35613 11.5652 6.66684C11.7342 5.97755 11.6896 5.25319 11.4374 4.58983C11.1851 3.92647 10.7372 3.35545 10.153 2.95251C9.56882 2.54957 8.87593 2.33374 8.16624 2.33366Z" fill="#919191"/>
</svg>
