<svg width="21" height="20" viewBox="0 0 21 20" fill="none" xmlns="http://www.w3.org/2000/svg">
<path d="M10.3133 7.7998C10.0243 7.7998 9.73806 7.85674 9.47102 7.96735C9.20398 8.07796 8.96134 8.24008 8.75696 8.44446C8.55258 8.64884 8.39046 8.89148 8.27985 9.15852C8.16924 9.42556 8.1123 9.71177 8.1123 10.0008C8.1123 10.2898 8.16924 10.5761 8.27985 10.8431C8.39046 11.1101 8.55258 11.3528 8.75696 11.5571C8.96134 11.7615 9.20398 11.9237 9.47102 12.0343C9.73806 12.1449 10.0243 12.2018 10.3133 12.2018C10.897 12.2017 11.4568 11.9697 11.8695 11.5568C12.2822 11.1439 12.5139 10.584 12.5138 10.0003C12.5137 9.41656 12.2817 8.85678 11.8688 8.44411C11.4559 8.03144 10.896 7.79967 10.3123 7.7998H10.3133ZM3.3133 7.7998C3.02427 7.7998 2.73806 7.85674 2.47102 7.96735C2.20398 8.07796 1.96134 8.24008 1.75696 8.44446C1.55258 8.64884 1.39046 8.89148 1.27985 9.15852C1.16924 9.42556 1.1123 9.71177 1.1123 10.0008C1.1123 10.2898 1.16924 10.5761 1.27985 10.8431C1.39046 11.1101 1.55258 11.3528 1.75696 11.5571C1.96134 11.7615 2.20398 11.9237 2.47102 12.0343C2.73806 12.1449 3.02427 12.2018 3.3133 12.2018C3.89705 12.2017 4.45683 11.9697 4.8695 11.5568C5.28217 11.1439 5.51394 10.584 5.5138 10.0003C5.51367 9.41656 5.28165 8.85678 4.86879 8.44411C4.45593 8.03144 3.89605 7.79967 3.3123 7.7998H3.3133ZM17.3133 7.7998C17.0243 7.7998 16.7381 7.85674 16.471 7.96735C16.204 8.07796 15.9613 8.24008 15.757 8.44446C15.5526 8.64884 15.3905 8.89148 15.2798 9.15852C15.1692 9.42556 15.1123 9.71177 15.1123 10.0008C15.1123 10.2898 15.1692 10.5761 15.2798 10.8431C15.3905 11.1101 15.5526 11.3528 15.757 11.5571C15.9613 11.7615 16.204 11.9237 16.471 12.0343C16.7381 12.1449 17.0243 12.2018 17.3133 12.2018C17.897 12.2017 18.4568 11.9697 18.8695 11.5568C19.2822 11.1439 19.5139 10.584 19.5138 10.0003C19.5137 9.41656 19.2817 8.85678 18.8688 8.44411C18.4559 8.03144 17.896 7.79967 17.3123 7.7998H17.3133Z" fill="#919191"/>
</svg>
