<svg width="20" height="18" viewBox="0 0 20 18" fill="none" xmlns="http://www.w3.org/2000/svg">
<path d="M18.2141 17.3746V16.9548C18.2141 16.3335 18.0336 16.1152 17.3745 16.1152H3.10132C2.48001 16.1152 2.26172 16.3209 2.26172 16.9548V17.3746C2.26172 18.0253 2.48001 18.2142 3.10132 18.2142H17.3745C18.0084 18.2142 18.2141 18.0127 18.2141 17.3746Z" fill="#919191"/>
<path d="M16.002 8.45538H12.7277V3.0996C12.7277 2.64271 12.3469 2.26196 11.89 2.26196H8.61563C8.13335 2.26196 7.75261 2.64271 7.75261 3.0996V8.45538H4.47822C4.04671 8.45538 3.89441 8.7346 4.22439 9.06457L9.65633 14.4711C9.80862 14.6234 10.0117 14.6996 10.2401 14.6996C10.4686 14.6996 10.697 14.6234 10.8493 14.4711L16.2559 9.06457C16.5605 8.7346 16.4589 8.45538 16.002 8.45538Z" fill="#919191"/>
</svg>
