<svg width="19" height="18" viewBox="0 0 19 18" fill="none" xmlns="http://www.w3.org/2000/svg">
<path d="M15.94 14.67H3.06C2.75025 14.67 2.5 14.9202 2.5 15.23V15.86C2.5 15.937 2.563 16 2.64 16H16.36C16.437 16 16.5 15.937 16.5 15.86V15.23C16.5 14.9202 16.2498 14.67 15.94 14.67ZM5.04975 13.2C5.08475 13.2 5.11975 13.1965 5.15475 13.1912L8.09825 12.675C8.13325 12.668 8.1665 12.6523 8.191 12.626L15.6093 5.20775C15.6255 5.19156 15.6383 5.17233 15.6471 5.15116C15.6559 5.12999 15.6604 5.10729 15.6604 5.08437C15.6604 5.06146 15.6559 5.03876 15.6471 5.01759C15.6383 4.99642 15.6255 4.97719 15.6093 4.961L12.7008 2.05075C12.6675 2.0175 12.6237 2 12.5765 2C12.5293 2 12.4855 2.0175 12.4523 2.05075L5.034 9.469C5.00775 9.49525 4.992 9.52675 4.985 9.56175L4.46875 12.5052C4.45173 12.599 4.45781 12.6955 4.48647 12.7864C4.51514 12.8772 4.56552 12.9597 4.63325 13.0267C4.74875 13.1388 4.894 13.2 5.04975 13.2Z" fill="#919191"/>
</svg>
