<svg width="20" height="20" viewBox="0 0 20 20" fill="none" xmlns="http://www.w3.org/2000/svg">
<path d="M8.99167 13.575C9.31667 13.9 9.84167 13.9 10.1667 13.575L13.1583 10.5833C13.2356 10.5062 13.2969 10.4147 13.3387 10.3139C13.3805 10.213 13.402 10.105 13.402 9.99583C13.402 9.88669 13.3805 9.77862 13.3387 9.67781C13.2969 9.577 13.2356 9.48543 13.1583 9.40833L10.1667 6.41667C10.0109 6.26085 9.79952 6.17332 9.57917 6.17332C9.35881 6.17332 9.14748 6.26085 8.99167 6.41667C8.83585 6.57248 8.74832 6.78381 8.74832 7.00417C8.74832 7.22452 8.83585 7.43585 8.99167 7.59167L10.5583 9.16667H3.33333C2.875 9.16667 2.5 9.54167 2.5 10C2.5 10.4583 2.875 10.8333 3.33333 10.8333H10.5583L8.99167 12.4C8.66667 12.725 8.675 13.2583 8.99167 13.575ZM15.8333 2.5H4.16667C3.72464 2.5 3.30072 2.67559 2.98816 2.98816C2.67559 3.30072 2.5 3.72464 2.5 4.16667V6.66667C2.5 7.125 2.875 7.5 3.33333 7.5C3.79167 7.5 4.16667 7.125 4.16667 6.66667V5C4.16667 4.54167 4.54167 4.16667 5 4.16667H15C15.4583 4.16667 15.8333 4.54167 15.8333 5V15C15.8333 15.4583 15.4583 15.8333 15 15.8333H5C4.54167 15.8333 4.16667 15.4583 4.16667 15V13.3333C4.16667 12.875 3.79167 12.5 3.33333 12.5C2.875 12.5 2.5 12.875 2.5 13.3333V15.8333C2.5 16.75 3.25 17.5 4.16667 17.5H15.8333C16.75 17.5 17.5 16.75 17.5 15.8333V4.16667C17.5 3.25 16.75 2.5 15.8333 2.5Z" fill="white"/>
</svg>
