<svg width="12" height="10" viewBox="0 0 12 10" fill="none" xmlns="http://www.w3.org/2000/svg">
<g clip-path="url(#clip0)">
<path d="M6.07909 2.8125C5.87208 2.81574 5.66661 2.84862 5.46894 2.91016C5.56037 3.07096 5.60906 3.25252 5.61034 3.4375C5.61034 3.58113 5.58205 3.72336 5.52708 3.85606C5.47212 3.98876 5.39155 4.10933 5.28999 4.2109C5.18842 4.31246 5.06785 4.39303 4.93515 4.44799C4.80245 4.50296 4.66022 4.53125 4.51659 4.53125C4.33161 4.52997 4.15005 4.48128 3.98925 4.38984C3.86238 4.82984 3.87716 5.29861 4.03151 5.72973C4.18586 6.16086 4.47194 6.5325 4.84924 6.792C5.22654 7.05151 5.67592 7.18572 6.13373 7.17563C6.59155 7.16555 7.03458 7.01167 7.40008 6.7358C7.76558 6.45993 8.03502 6.07606 8.17023 5.63855C8.30544 5.20104 8.29957 4.73208 8.15345 4.2981C8.00732 3.86411 7.72835 3.48711 7.35606 3.22048C6.98376 2.95385 6.53701 2.81112 6.07909 2.8125ZM11.6361 4.71484C10.5769 2.64824 8.48007 1.25 6.07909 1.25C3.67811 1.25 1.58065 2.64922 0.52206 4.71504C0.47738 4.80342 0.454102 4.90107 0.454102 5.0001C0.454102 5.09913 0.47738 5.19678 0.52206 5.28516C1.58124 7.35176 3.67811 8.75 6.07909 8.75C8.48007 8.75 10.5775 7.35078 11.6361 5.28496C11.6808 5.19658 11.7041 5.09893 11.7041 4.9999C11.7041 4.90087 11.6808 4.80322 11.6361 4.71484ZM6.07909 7.8125C4.15233 7.8125 2.38593 6.73828 1.43202 5C2.38593 3.26172 4.15214 2.1875 6.07909 2.1875C8.00604 2.1875 9.77225 3.26172 10.7262 5C9.77245 6.73828 8.00604 7.8125 6.07909 7.8125Z" fill="#919191"/>
</g>
<defs>
<clipPath id="clip0">
<rect width="11.25" height="10" fill="white" transform="translate(0.454102)"/>
</clipPath>
</defs>
</svg>
