<svg width="14" height="14" viewBox="0 0 14 14" fill="none" xmlns="http://www.w3.org/2000/svg">
<path d="M12.7572 6.70822C12.3839 6.06072 10.3305 2.81155 6.84221 2.91655C3.61638 2.99822 1.74971 5.83322 1.24221 6.70822C1.19102 6.7969 1.16406 6.89749 1.16406 6.99989C1.16406 7.10228 1.19102 7.20287 1.24221 7.29155C1.60971 7.92739 3.57555 11.0832 7.01138 11.0832H7.15721C10.383 11.0016 12.2555 8.16655 12.7572 7.29155C12.8084 7.20287 12.8354 7.10228 12.8354 6.99989C12.8354 6.89749 12.8084 6.7969 12.7572 6.70822ZM6.99971 9.04155C6.59591 9.04155 6.20118 8.92181 5.86543 8.69747C5.52967 8.47313 5.26799 8.15426 5.11346 7.7812C4.95893 7.40813 4.9185 6.99762 4.99728 6.60158C5.07606 6.20553 5.27051 5.84174 5.55604 5.55621C5.84157 5.27068 6.20536 5.07623 6.6014 4.99745C6.99745 4.91867 7.40796 4.9591 7.78103 5.11363C8.15409 5.26816 8.47296 5.52985 8.6973 5.8656C8.92164 6.20135 9.04138 6.59608 9.04138 6.99989C9.04138 7.54137 8.82628 8.06067 8.44339 8.44356C8.0605 8.82645 7.5412 9.04155 6.99971 9.04155Z" fill="#737373"/>
</svg>
