<svg width="22" height="22" viewBox="0 0 22 22" fill="none" xmlns="http://www.w3.org/2000/svg">
<path fill-rule="evenodd" clip-rule="evenodd" d="M11 3.5C6.85786 3.5 3.5 6.85786 3.5 11C3.5 15.1421 6.85786 18.5 11 18.5C15.1421 18.5 18.5 15.1421 18.5 11C18.5 6.85786 15.1421 3.5 11 3.5ZM2 11C2 6.02944 6.02944 2 11 2C15.9706 2 20 6.02944 20 11C20 15.9706 15.9706 20 11 20C6.02944 20 2 15.9706 2 11Z" fill="#090909"/>
<path fill-rule="evenodd" clip-rule="evenodd" d="M9.0928 5.47097C8.48102 6.84747 8.0835 8.80164 8.0835 11C8.0835 13.1984 8.48102 15.1525 9.0928 16.529C9.39911 17.2182 9.74442 17.7295 10.09 18.0584C10.4317 18.3836 10.7379 18.5 11.0002 18.5C11.2624 18.5 11.5687 18.3836 11.9104 18.0584C12.2559 17.7295 12.6012 17.2182 12.9075 16.529C13.5193 15.1525 13.9168 13.1984 13.9168 11C13.9168 8.80164 13.5193 6.84747 12.9075 5.47097C12.6012 4.78178 12.2559 4.27048 11.9104 3.94162C11.5687 3.61645 11.2624 3.5 11.0002 3.5C10.7379 3.5 10.4317 3.61645 10.09 3.94162C9.74442 4.27048 9.39911 4.78178 9.0928 5.47097ZM9.05589 2.85503C9.59155 2.34526 10.2499 2 11.0002 2C11.7505 2 12.4088 2.34526 12.9444 2.85503C13.4762 3.36112 13.921 4.058 14.2782 4.86177C14.9935 6.47118 15.4168 8.64201 15.4168 11C15.4168 13.358 14.9935 15.5288 14.2782 17.1382C13.921 17.942 13.4762 18.6389 12.9444 19.145C12.4088 19.6547 11.7505 20 11.0002 20C10.2499 20 9.59155 19.6547 9.05589 19.145C8.5241 18.6389 8.07931 17.942 7.72208 17.1382C7.00678 15.5288 6.5835 13.358 6.5835 11C6.5835 8.64201 7.00678 6.47118 7.72208 4.86177C8.07931 4.058 8.5241 3.36112 9.05589 2.85503Z" fill="#090909"/>
<path fill-rule="evenodd" clip-rule="evenodd" d="M11.145 14.5C8.11172 14.5 5.53038 15.2123 4.09134 16.2014L3.2417 14.9653C5.01817 13.7442 7.93532 13 11.145 13C14.1742 13 16.9334 13.6624 18.7239 14.7553L17.9425 16.0356C16.4595 15.1305 13.9976 14.5 11.145 14.5Z" fill="#090909"/>
<path fill-rule="evenodd" clip-rule="evenodd" d="M11.0585 8.99988C7.88349 8.99988 4.99674 8.25506 3.23828 7.03231L4.09463 5.80078C5.51453 6.78811 8.06275 7.49988 11.0585 7.49988C13.9793 7.49988 16.4789 6.82303 17.9195 5.87057L18.7468 7.12181C16.9801 8.28986 14.159 8.99988 11.0585 8.99988Z" fill="#090909"/>
</svg>
