<svg width="20" height="21" viewBox="0 0 20 21" fill="none" xmlns="http://www.w3.org/2000/svg">
<path d="M10.0003 2.16669C5.40033 2.16669 1.66699 5.90002 1.66699 10.5C1.66699 15.1 5.40033 18.8334 10.0003 18.8334C14.6003 18.8334 18.3337 15.1 18.3337 10.5C18.3337 5.90002 14.6003 2.16669 10.0003 2.16669ZM10.0003 14.6667C9.54199 14.6667 9.16699 14.2917 9.16699 13.8334V10.5C9.16699 10.0417 9.54199 9.66669 10.0003 9.66669C10.4587 9.66669 10.8337 10.0417 10.8337 10.5V13.8334C10.8337 14.2917 10.4587 14.6667 10.0003 14.6667ZM10.8337 8.00002H9.16699V6.33335H10.8337V8.00002Z" fill="black"/>
</svg>
