<svg width="19" height="19" viewBox="0 0 19 19" fill="none" xmlns="http://www.w3.org/2000/svg">
<path fill-rule="evenodd" clip-rule="evenodd" d="M4.82422 6.36249V7.98749C4.39324 7.98749 3.97992 8.15869 3.67517 8.46344C3.37042 8.76819 3.19922 9.18151 3.19922 9.61249V13.675C3.19922 14.106 3.37042 14.5193 3.67517 14.824C3.97992 15.1288 4.39324 15.3 4.82422 15.3H12.9492C13.3802 15.3 13.7935 15.1288 14.0983 14.824C14.403 14.5193 14.5742 14.106 14.5742 13.675V9.61249C14.5742 9.18151 14.403 8.76819 14.0983 8.46344C13.7935 8.15869 13.3802 7.98749 12.9492 7.98749V6.36249C12.9492 5.28505 12.5212 4.25173 11.7593 3.48987C10.9975 2.728 9.96416 2.29999 8.88672 2.29999C7.80928 2.29999 6.77596 2.728 6.0141 3.48987C5.25223 4.25173 4.82422 5.28505 4.82422 6.36249ZM11.3242 7.98749V6.36249C11.3242 5.71602 11.0674 5.09604 10.6103 4.63892C10.1532 4.1818 9.53318 3.92499 8.88672 3.92499C8.24025 3.92499 7.62027 4.1818 7.16315 4.63892C6.70603 5.09604 6.44922 5.71602 6.44922 6.36249V7.98749H11.3242ZM5.80779 12.6086C6.37689 12.6086 6.83823 12.1472 6.83823 11.5781C6.83823 11.009 6.37689 10.5477 5.80779 10.5477C5.23869 10.5477 4.77734 11.009 4.77734 11.5781C4.77734 12.1472 5.23869 12.6086 5.80779 12.6086ZM9.90773 11.5781C9.90773 12.1472 9.44639 12.6086 8.87729 12.6086C8.30819 12.6086 7.84684 12.1472 7.84684 11.5781C7.84684 11.009 8.30819 10.5477 8.87729 10.5477C9.44639 10.5477 9.90773 11.009 9.90773 11.5781ZM12.1258 12.6086C12.6949 12.6086 13.1562 12.1472 13.1562 11.5781C13.1562 11.009 12.6949 10.5477 12.1258 10.5477C11.5567 10.5477 11.0954 11.009 11.0954 11.5781C11.0954 12.1472 11.5567 12.6086 12.1258 12.6086Z" fill="#919191"/>
</svg>
