<svg width="15" height="15" viewBox="0 0 15 15" fill="none" xmlns="http://www.w3.org/2000/svg">
<path fill-rule="evenodd" clip-rule="evenodd" d="M2.5 3.5C2.36478 3.5 2.25 3.61478 2.25 3.75V11.25C2.25 11.3852 2.36478 11.5 2.5 11.5H12.5C12.6352 11.5 12.75 11.3852 12.75 11.25V3.75C12.75 3.61478 12.6352 3.5 12.5 3.5H2.5ZM0.25 3.75C0.25 2.51021 1.26022 1.5 2.5 1.5H12.5C13.7398 1.5 14.75 2.51021 14.75 3.75V11.25C14.75 12.4898 13.7398 13.5 12.5 13.5H2.5C1.26022 13.5 0.25 12.4898 0.25 11.25V3.75Z" fill="#909090"/>
<path fill-rule="evenodd" clip-rule="evenodd" d="M0.430854 3.17662C0.747568 2.72417 1.3711 2.61414 1.82355 2.93085L7.50009 6.90443L13.1766 2.93085C13.6291 2.61414 14.2526 2.72417 14.5693 3.17662C14.886 3.62907 14.776 4.2526 14.3236 4.56932L8.07355 8.94432C7.72923 9.18534 7.27095 9.18534 6.92662 8.94432L0.676624 4.56932C0.224174 4.2526 0.114139 3.62907 0.430854 3.17662Z" fill="#909090"/>
</svg>
