<svg width="9" height="13" viewBox="0 0 9 13" fill="none" xmlns="http://www.w3.org/2000/svg">
<g clip-path="url(#clip0)">
<path d="M4.03753 12.0079C0.632109 7.07104 0 6.56437 0 4.75C0 2.26471 2.01471 0.25 4.5 0.25C6.98529 0.25 9 2.26471 9 4.75C9 6.56437 8.36789 7.07104 4.96247 12.0079C4.73899 12.3307 4.26098 12.3307 4.03753 12.0079ZM4.5 6.625C5.53554 6.625 6.375 5.78554 6.375 4.75C6.375 3.71446 5.53554 2.875 4.5 2.875C3.46446 2.875 2.625 3.71446 2.625 4.75C2.625 5.78554 3.46446 6.625 4.5 6.625Z" fill="#919191"/>
</g>
<defs>
<clipPath id="clip0">
<rect width="9" height="12" fill="white" transform="translate(0 0.25)"/>
</clipPath>
</defs>
</svg>
