<svg width="20" height="20" viewBox="0 0 20 20" fill="none" xmlns="http://www.w3.org/2000/svg">
<path d="M9.99998 18.3333C10.9166 18.3333 11.6666 17.5833 11.6666 16.6667H8.33331C8.33331 17.1087 8.50891 17.5326 8.82147 17.8452C9.13403 18.1577 9.55795 18.3333 9.99998 18.3333ZM15 13.3333V9.16665C15 6.60832 13.6333 4.46665 11.25 3.89998V3.33332C11.25 2.64165 10.6916 2.08332 9.99998 2.08332C9.30831 2.08332 8.74998 2.64165 8.74998 3.33332V3.89998C6.35831 4.46665 4.99998 6.59999 4.99998 9.16665V13.3333L3.33331 15V15.8333H16.6666V15L15 13.3333Z" fill="#919191"/>
</svg>
