<svg width="20" height="20" viewBox="0 0 20 20" fill="none" xmlns="http://www.w3.org/2000/svg">
<path d="M2.70312 4.49609L4.7832 2.41797C4.92993 2.27059 5.10434 2.15366 5.29639 2.07389C5.48845 1.99412 5.69438 1.95308 5.90234 1.95313C6.32617 1.95313 6.72461 2.11914 7.02344 2.41797L9.26172 4.65625C9.40909 4.80298 9.52603 4.97738 9.6058 5.16944C9.68557 5.3615 9.72661 5.56743 9.72656 5.77539C9.72656 6.19922 9.56055 6.59766 9.26172 6.89648L7.625 8.5332C8.00812 9.37766 8.54078 10.1459 9.19726 10.8008C9.85211 11.4589 10.6203 11.9935 11.4648 12.3789L13.1016 10.7422C13.2483 10.5948 13.4227 10.4779 13.6148 10.3981C13.8068 10.3183 14.0127 10.2773 14.2207 10.2773C14.6445 10.2773 15.043 10.4434 15.3418 10.7422L17.582 12.9785C17.7296 13.1255 17.8466 13.3002 17.9264 13.4926C18.0062 13.685 18.0471 13.8913 18.0469 14.0996C18.0469 14.5234 17.8809 14.9219 17.582 15.2207L15.5059 17.2969C15.0293 17.7754 14.3711 18.0469 13.6953 18.0469C13.5527 18.0469 13.416 18.0352 13.2812 18.0117C10.6484 17.5781 8.03711 16.1777 5.92969 14.0723C3.82422 11.9688 2.42578 9.35938 1.98633 6.71875C1.85351 5.91211 2.12109 5.08203 2.70312 4.49609Z" fill="#595959"/>
</svg>
