<svg width="20" height="20" viewBox="0 0 20 20" fill="none" xmlns="http://www.w3.org/2000/svg">
<path d="M15.9091 6.21051H4.89093C4.75933 6.23597 4.62373 6.23202 4.49384 6.19896C4.36394 6.16589 4.24297 6.10452 4.13959 6.01924C4.0362 5.93396 3.95296 5.82689 3.89583 5.70568C3.8387 5.58448 3.80908 5.45215 3.80911 5.31817V5.3009L15.4546 4.84746V3.7661C15.4736 3.60476 15.4556 3.44122 15.4021 3.28782C15.3486 3.13443 15.2609 2.99519 15.1457 2.88063C15.0305 2.76606 14.8907 2.67917 14.737 2.6265C14.5832 2.57383 14.4195 2.55677 14.2582 2.57661L3.9182 4.2568C3.56923 4.38557 3.26806 4.61803 3.05516 4.92294C2.84227 5.22786 2.72785 5.59061 2.72729 5.96244V15.751C2.72729 16.1125 2.87096 16.4592 3.12669 16.7148C3.38243 16.9704 3.72927 17.114 4.09093 17.114H15.9091C16.2708 17.114 16.6176 16.9704 16.8734 16.7148C17.1291 16.4592 17.2727 16.1125 17.2727 15.751V7.56357L17.2737 7.52632C17.2737 7.17686 17.1348 6.84172 16.8876 6.59462C16.6404 6.34752 16.3051 6.2087 15.9555 6.2087L15.9073 6.2096L15.9091 6.21051ZM14.5455 12.5714C14.1837 12.5713 13.8368 12.4275 13.5811 12.1718C13.3253 11.916 13.1817 11.5691 13.1818 11.2075C13.182 10.8458 13.3258 10.4991 13.5817 10.2435C13.8376 9.98784 14.1846 9.8443 14.5464 9.84442C14.7255 9.84448 14.9029 9.8798 15.0684 9.94838C15.2338 10.017 15.3842 10.1174 15.5108 10.2441C15.6374 10.3708 15.7379 10.5211 15.8064 10.6866C15.8749 10.852 15.9101 11.0293 15.91 11.2084C15.91 11.3874 15.8746 11.5647 15.806 11.7301C15.7374 11.8955 15.6369 12.0458 15.5102 12.1724C15.3835 12.299 15.233 12.3994 15.0675 12.4678C14.902 12.5363 14.7246 12.5715 14.5455 12.5714Z" fill="#919191"/>
</svg>
