<svg width="19" height="19" viewBox="0 0 19 19" fill="none" xmlns="http://www.w3.org/2000/svg">
<path d="M15.7884 10.6042C15.7884 10.6324 15.7856 10.6521 15.7799 10.6634C15.4188 12.1756 14.6628 13.4014 13.5117 14.3408C12.3607 15.2803 11.0122 15.75 9.46615 15.75C8.64236 15.75 7.84538 15.5948 7.0752 15.2845C6.30501 14.9742 5.61806 14.5312 5.01432 13.9557L3.92253 15.0475C3.81532 15.1547 3.68837 15.2083 3.54167 15.2083C3.39497 15.2083 3.26801 15.1547 3.16081 15.0475C3.0536 14.9403 3 14.8134 3 14.6667V10.875C3 10.7283 3.0536 10.6013 3.16081 10.4941C3.26801 10.3869 3.39497 10.3333 3.54167 10.3333H7.33333C7.48003 10.3333 7.60699 10.3869 7.71419 10.4941C7.8214 10.6013 7.875 10.7283 7.875 10.875C7.875 11.0217 7.8214 11.1487 7.71419 11.2559L6.55469 12.4154C6.9553 12.7878 7.40951 13.0755 7.91732 13.2786C8.42513 13.4818 8.95269 13.5833 9.5 13.5833C10.2561 13.5833 10.9614 13.4 11.6159 13.0332C12.2704 12.6665 12.7951 12.1615 13.1901 11.5182C13.2522 11.4223 13.4017 11.0922 13.6387 10.528C13.6838 10.3982 13.7684 10.3333 13.8926 10.3333H15.5176C15.5909 10.3333 15.6544 10.3601 15.708 10.4137C15.7616 10.4673 15.7884 10.5308 15.7884 10.6042ZM16 3.83333V7.625C16 7.7717 15.9464 7.89865 15.8392 8.00586C15.732 8.11306 15.605 8.16667 15.4583 8.16667H11.6667C11.52 8.16667 11.393 8.11306 11.2858 8.00586C11.1786 7.89865 11.125 7.7717 11.125 7.625C11.125 7.4783 11.1786 7.35135 11.2858 7.24414L12.4538 6.07617C11.6187 5.30317 10.6341 4.91667 9.5 4.91667C8.74392 4.91667 8.03863 5.10004 7.38411 5.4668C6.7296 5.83355 6.20486 6.33854 5.8099 6.98177C5.74783 7.07769 5.59831 7.40777 5.36133 7.97201C5.31619 8.10178 5.23155 8.16667 5.10742 8.16667H3.42318C3.34983 8.16667 3.28635 8.13987 3.23275 8.08626C3.17914 8.03266 3.15234 7.96918 3.15234 7.89583V7.83659C3.5191 6.32444 4.28082 5.09863 5.4375 4.15918C6.59418 3.21973 7.94835 2.75 9.5 2.75C10.3238 2.75 11.125 2.90658 11.9036 3.21973C12.6823 3.53288 13.3735 3.97439 13.9772 4.54427L15.0775 3.45247C15.1847 3.34527 15.3116 3.29167 15.4583 3.29167C15.605 3.29167 15.732 3.34527 15.8392 3.45247C15.9464 3.55968 16 3.68663 16 3.83333Z" fill="#919191"/>
</svg>
