<svg width="19" height="19" viewBox="0 0 19 19" fill="none" xmlns="http://www.w3.org/2000/svg">
<path d="M14.911 10.2051C14.9398 9.97483 14.9614 9.74455 14.9614 9.49987C14.9614 9.2552 14.9398 9.02491 14.911 8.79463L16.4294 7.60723C16.5662 7.49928 16.6021 7.30498 16.5158 7.14666L15.0765 4.65671C14.9902 4.49839 14.7959 4.44082 14.6375 4.49839L12.8456 5.21803C12.4714 4.93018 12.0684 4.6927 11.6294 4.51279L11.356 2.60575C11.3441 2.52108 11.3017 2.44366 11.2368 2.38801C11.1719 2.33237 11.0889 2.30232 11.0034 2.3035H8.12481C7.94491 2.3035 7.79378 2.43304 7.77219 2.60575L7.49873 4.51279C7.05975 4.6927 6.65675 4.93737 6.28254 5.21803L4.49065 4.49839C4.32513 4.43363 4.13802 4.49839 4.05167 4.65671L2.61239 7.14666C2.51884 7.30498 2.56202 7.49928 2.69875 7.60723L4.21718 8.79463C4.1884 9.02491 4.16681 9.26239 4.16681 9.49987C4.16681 9.73735 4.1884 9.97483 4.21718 10.2051L2.69875 11.3925C2.56202 11.5005 2.52604 11.6948 2.61239 11.8531L4.05167 14.343C4.13802 14.5014 4.33233 14.5589 4.49065 14.5014L6.28254 13.7817C6.65675 14.0696 7.05975 14.307 7.49873 14.487L7.77219 16.394C7.79378 16.5667 7.94491 16.6962 8.12481 16.6962H11.0034C11.1833 16.6962 11.3344 16.5667 11.356 16.394L11.6294 14.487C12.0684 14.307 12.4714 14.0624 12.8456 13.7817L14.6375 14.5014C14.803 14.5661 14.9902 14.5014 15.0765 14.343L16.5158 11.8531C16.6021 11.6948 16.5662 11.5005 16.4294 11.3925L14.911 10.2051ZM9.56409 12.0186C8.17519 12.0186 7.04536 10.8888 7.04536 9.49987C7.04536 8.11097 8.17519 6.98114 9.56409 6.98114C10.953 6.98114 12.0828 8.11097 12.0828 9.49987C12.0828 10.8888 10.953 12.0186 9.56409 12.0186Z" fill="#919191"/>
</svg>
