<svg width="20" height="20" viewBox="0 0 20 20" fill="none" xmlns="http://www.w3.org/2000/svg">
<path d="M2.5 9.99977C2.5 11.4592 3.68765 12.6468 5.14706 12.6468C5.84765 12.6468 6.48118 12.3689 6.955 11.9233L12.2412 14.9445C12.2253 15.0592 12.2059 15.1739 12.2059 15.2939C12.2059 16.7533 13.3935 17.9409 14.8529 17.9409C16.3124 17.9409 17.5 16.7533 17.5 15.2939C17.5 13.8345 16.3124 12.6468 14.8529 12.6468C14.1524 12.6468 13.5188 12.9248 13.045 13.3704L7.75882 10.3501C7.77471 10.2345 7.79412 10.1198 7.79412 9.99977C7.79412 9.87977 7.77471 9.76506 7.75882 9.64948L13.045 6.62918C13.5188 7.07477 14.1524 7.35271 14.8529 7.35271C16.3124 7.35271 17.5 6.16506 17.5 4.70565C17.5 3.24624 16.3124 2.05859 14.8529 2.05859C13.3935 2.05859 12.2059 3.24624 12.2059 4.70565C12.2059 4.82565 12.2253 4.94036 12.2412 5.05595L6.955 8.07624C6.46706 7.61272 5.82006 7.3538 5.14706 7.35271C3.68765 7.35271 2.5 8.54036 2.5 9.99977Z" fill="#919191"/>
</svg>
