<svg width="28" height="26" viewBox="0 0 28 26" fill="none" xmlns="http://www.w3.org/2000/svg">
<path d="M12.9264 1.17998C13.2257 0.258667 14.5291 0.25867 14.8285 1.17998L17.2452 8.61768C17.379 9.0297 17.763 9.30866 18.1962 9.30866H26.0167C26.9854 9.30866 27.3882 10.5483 26.6044 11.1177L20.2776 15.7144C19.9271 15.9691 19.7804 16.4204 19.9143 16.8325L22.3309 24.2701C22.6303 25.1915 21.5758 25.9576 20.7921 25.3882L14.4652 20.7914C14.1147 20.5368 13.6401 20.5368 13.2897 20.7914L6.96277 25.3882C6.17906 25.9576 5.12458 25.1915 5.42393 24.2701L7.84059 16.8325C7.97446 16.4204 7.8278 15.9691 7.47732 15.7144L1.15043 11.1177C0.366719 10.5483 0.769497 9.30866 1.73822 9.30866H9.55868C9.9919 9.30866 10.3759 9.0297 10.5097 8.61767L12.9264 1.17998Z" fill="#FFCC4A"/>
</svg>
