<svg width="20" height="20" viewBox="0 0 20 20" fill="none" xmlns="http://www.w3.org/2000/svg">
<path d="M8.06077 2.72825C7.60853 2.71743 7.15869 2.79717 6.73772 2.96276C6.31675 3.12835 5.93315 3.37646 5.60948 3.69248C5.2858 4.00851 5.0286 4.38607 4.85299 4.80296C4.67738 5.21985 4.58691 5.66765 4.58691 6.12002C4.58691 6.57239 4.67738 7.02019 4.85299 7.43708C5.0286 7.85397 5.2858 8.23153 5.60948 8.54756C5.93315 8.86359 6.31675 9.11169 6.73772 9.27728C7.15869 9.44288 7.60853 9.52261 8.06077 9.5118C8.513 9.52261 8.96284 9.44288 9.38381 9.27728C9.80478 9.11169 10.1884 8.86359 10.5121 8.54756C10.8357 8.23153 11.0929 7.85397 11.2685 7.43708C11.4442 7.02019 11.5346 6.57239 11.5346 6.12002C11.5346 5.66765 11.4442 5.21985 11.2685 4.80296C11.0929 4.38607 10.8357 4.00851 10.5121 3.69248C10.1884 3.37646 9.80478 3.12835 9.38381 2.96276C8.96284 2.79717 8.513 2.71743 8.06077 2.72825Z" fill="#919191"/>
<path d="M6.1215 11.4492C5.22143 11.4492 4.35822 11.8068 3.72178 12.4432C3.08533 13.0797 2.72778 13.9429 2.72778 14.8429L2.72778 17.2641H13.3937V14.8429C13.3937 13.9429 13.0362 13.0797 12.3997 12.4432C11.7633 11.8068 10.9001 11.4492 10 11.4492H6.1215Z" fill="#919191"/>
<path d="M14.8482 12.4245H14.3633V17.2727H17.2722V14.8486C17.2722 14.2057 17.0168 13.5891 16.5622 13.1345C16.1076 12.6799 15.4911 12.4245 14.8482 12.4245Z" fill="#919191"/>
<path d="M13.8785 6.60676C13.2356 6.60676 12.6191 6.86215 12.1645 7.31676C11.7099 7.77136 11.4545 8.38794 11.4545 9.03084C11.4545 9.67375 11.7099 10.2903 12.1645 10.7449C12.6191 11.1995 13.2356 11.4549 13.8785 11.4549C14.5215 11.4549 15.138 11.1995 15.5926 10.7449C16.0472 10.2903 16.3026 9.67375 16.3026 9.03084C16.3026 8.38794 16.0472 7.77136 15.5926 7.31676C15.138 6.86215 14.5215 6.60676 13.8785 6.60676Z" fill="#919191"/>
</svg>
