<svg width="14" height="15" viewBox="0 0 14 15" fill="none" xmlns="http://www.w3.org/2000/svg">
<path d="M13 7.87494L11.5 4.87494H9.25V3.37494C9.25 2.96244 8.9125 2.62494 8.5 2.62494H1.75C1.3375 2.62494 1 2.96244 1 3.37494V9.37494L1.75 10.1249H2.701C2.56933 10.353 2.50001 10.6116 2.5 10.8749C2.49999 11.1383 2.56929 11.3969 2.70094 11.625C2.83259 11.853 3.02195 12.0424 3.24998 12.174C3.47802 12.3057 3.73669 12.375 4 12.375C4.26331 12.375 4.52198 12.3057 4.75002 12.174C4.97805 12.0424 5.16741 11.853 5.29906 11.625C5.43071 11.3969 5.50001 11.1383 5.5 10.8749C5.49999 10.6116 5.43067 10.353 5.299 10.1249H9.451C9.31933 10.353 9.25001 10.6116 9.25 10.8749C9.24999 11.1383 9.31929 11.3969 9.45094 11.625C9.58259 11.853 9.77195 12.0424 9.99998 12.174C10.228 12.3057 10.4867 12.375 10.75 12.375C11.0133 12.375 11.272 12.3057 11.5 12.174C11.728 12.0424 11.9174 11.853 12.0491 11.625C12.1807 11.3969 12.25 11.1383 12.25 10.8749C12.25 10.6116 12.1807 10.353 12.049 10.1249H13V7.87494ZM9.25 7.87494V5.62494H10.8048L11.9298 7.87494H9.25Z" fill="#919191"/>
</svg>
