<svg width="32" height="32" viewBox="0 0 32 32" fill="none" xmlns="http://www.w3.org/2000/svg">
<path d="M23.9993 9.33333H27.9993C28.353 9.33333 28.6921 9.47381 28.9422 9.72386C29.1922 9.97391 29.3327 10.313 29.3327 10.6667V26.6667C29.3327 27.0203 29.1922 27.3594 28.9422 27.6095C28.6921 27.8595 28.353 28 27.9993 28H3.99935C3.64573 28 3.30659 27.8595 3.05654 27.6095C2.80649 27.3594 2.66602 27.0203 2.66602 26.6667V5.33333C2.66602 4.97971 2.80649 4.64057 3.05654 4.39052C3.30659 4.14048 3.64573 4 3.99935 4H23.9993V9.33333ZM5.33268 12V25.3333H26.666V12H5.33268ZM5.33268 6.66667V9.33333H21.3327V6.66667H5.33268ZM19.9993 17.3333H23.9993V20H19.9993V17.3333Z" fill="black"/>
</svg>
