<svg width="120" height="161" fill="none" xmlns="http://www.w3.org/2000/svg"><path opacity=".1" d="M56.468 111.484c.743 4.52-12.78 14.577-26 16.75-13.22 2.172-17.605-2.989-18.348-7.509-.743-4.52 9.372-9.945 22.592-12.118 13.22-2.172 21.013-1.643 21.756 2.877zm51.743 34.902c.743 4.494-15.023 8.758-28.243 10.919-13.22 2.161-15.13-2.221-15.873-6.716-.743-4.494 9.372-9.89 22.592-12.051 13.22-2.16 20.781 3.353 21.524 7.848z" fill="#000"/><g clip-path="url(#clip0)"><path fill-rule="evenodd" clip-rule="evenodd" d="M46.598 28.53c1.977 5.93 6.589 17.13 8.565 16.47.66 0 1.977-4.611 1.318-6.588-1.318-4.612-1.318-9.223-2.635-13.177-1.977-5.929-3.953-6.588-5.93-5.929-2.635.659-3.294 2.635-1.318 9.224z" fill="#1D9F3A"/><path fill-rule="evenodd" clip-rule="evenodd" d="M53.846 45c3.953 4.613 11.2 12.519 13.176 11.201.66 0 2.636-1.318 1.977-3.294C67.68 50.27 61.752 45 58.457 40.389c-.658-1.318-1.976-1.977-3.953-.659-1.317 1.318-2.635 1.977-.658 5.27z" fill="#1D9F3A"/><path fill-rule="evenodd" clip-rule="evenodd" d="M41.986 105.614c-.658 0-.658.659-1.317 1.317 0 .659-.66 1.977.659 2.636.658 1.317 2.635 1.317 3.294 1.976.659.659 3.294 2.636 5.27 3.295 1.318.658 3.295.658 3.953 0 .66-.659.66-2.636 0-3.295l-2.635-2.635-1.318-1.318c-.658-.659-1.976-2.635-2.635-1.976h-5.27z" fill="#4D2B1C"/><path fill-rule="evenodd" clip-rule="evenodd" d="M38.033 63.448c.66 3.294.66 6.589.66 9.883.658 3.953 0 7.906 1.976 11.859.659.659 1.976 2.635 3.953 2.635 1.318 0 3.953-.659 3.953-1.318 0-.658.659-2.635.659-3.294V63.448s.659-4.612-5.27-3.953c-5.272.659-5.93 3.294-5.93 3.953z" fill="#5A8AC4"/><path fill-rule="evenodd" clip-rule="evenodd" d="M40.01 85.19V78.6c0-1.317 8.565.66 9.224 4.612 0 0-1.977 15.812-.66 21.083v.659s.66.659 0 1.318c0 0-1.317.658-1.976 1.317-1.976 0-3.953 0-5.27-1.317-2.636-2.636-2.636-14.495-1.318-21.083z" fill="#5A8AC4"/><path fill-rule="evenodd" clip-rule="evenodd" d="M30.127 111.543c-1.317 0-1.317 1.318-1.976 1.977 0 .659-.659 1.976.659 2.635 0 0 2.635 1.318 3.294 1.977.659.659 3.953 2.635 4.612 2.635.659.659 1.317 1.318 1.976 1.318 1.318 0 2.636 0 3.294-1.318.66-.659.66-1.318 0-1.318-1.317-1.317-1.976-2.635-2.635-3.953-1.318-.658-1.318-.658-1.976-1.976-.66 0-1.318-1.977-1.977-1.977h-5.27z" fill="#4D2B1C"/><path fill-rule="evenodd" clip-rule="evenodd" d="M30.786 66.742c.659 3.294 0 6.589 0 9.883 0 3.953-1.318 8.565 0 12.518.659.659 2.636 2.635 4.612 2.635 1.318 0 3.953 0 3.953-.659-.659-1.317.659-2.635.659-3.294 0-1.976.659-10.541 1.318-13.177 0-2.635 0-4.611 1.317-7.247 0 0 .66-4.612-5.27-4.612-4.612 0-6.589 3.953-6.589 3.953z" fill="#799FCD"/><path fill-rule="evenodd" clip-rule="evenodd" d="M29.469 91.12c.659-1.977.659-3.954.659-5.93.658-1.977 9.223-.66 9.223 3.294 0 0-3.294 17.789-2.635 22.4v1.318s.659.659 0 1.318c0 0-1.318.659-1.977.659-1.976 0-3.953 0-4.611-1.318-2.636-3.294-1.977-15.153-.66-21.742z" fill="#799FCD"/><path fill-rule="evenodd" clip-rule="evenodd" d="M38.033 21.282c-.658 0-5.93 2.636-8.565 5.271-1.976 2.636-1.976 7.247-1.976 7.906 0 1.977 2.635 14.495 3.294 17.13.659 2.635 0 5.93 0 7.906 0 1.977-.659 7.247 0 7.906 0 2.636 7.906 1.977 9.224 1.977 4.612 0 9.883-3.953 9.224-5.93-1.318-6.588-.66-25.036 0-27.012.658-1.977 5.27-13.836 1.317-17.13-.659-.659-2.635-1.318-3.294-1.318-3.953.66-8.565 3.294-9.224 3.294z" fill="#148B2E"/><path fill-rule="evenodd" clip-rule="evenodd" d="M40.669 19.306s4.612 0 6.588 2.635c2.636 2.636 1.977 2.636 1.977 2.636l-1.977-.66s.66 5.93-.659 7.248l-7.247-3.953-.659 3.294s-5.27-5.93-4.611-7.247c1.317-3.953 5.929-5.27 6.588-3.953z" fill="#1D9F3A"/><path fill-rule="evenodd" clip-rule="evenodd" d="M42.645 19.965s3.294 1.317 3.953 5.27c0 3.954-.658 6.589-.658 6.589s-3.954-3.953-7.248-5.93c-.659-.659-4.612-3.294 0-5.27l3.953-.66z" fill="#DD9868"/><path fill-rule="evenodd" clip-rule="evenodd" d="M38.692 25.894c1.318 0 3.294 0 4.612-.659 1.318-.658 1.977-1.317 2.635-2.635v1.977h.66v.658c0 3.954-.66 6.589-.66 6.589s-3.953-3.953-7.247-5.93z" fill="#fff"/><path fill-rule="evenodd" clip-rule="evenodd" d="M37.375 14.694c0 1.318.658 2.635 0 4.612v2.635c0 1.977 1.317 2.636 2.635 2.636.659.658 3.953-.66 3.953-1.318 0-1.318 0-2.635-.659-3.294 0-1.318-1.318-1.977-1.318-2.636l-4.611-2.635z" fill="#E7A87D"/><path fill-rule="evenodd" clip-rule="evenodd" d="M46.598 6.788c0 1.318 0 1.977.66 3.294 0 .659-.66 1.977 0 3.953 0 1.318-.66 2.636-.66 3.294 0 1.318-.659 1.977-1.317 2.636-1.977 1.317-3.953 0-5.93-.66-1.977-.658-1.977-3.293-2.635-5.27-1.318-2.635 0-7.247 3.294-8.565 1.318-.659 3.294-.659 5.27 0 .66 0 1.318.66 1.318 1.318z" fill="#FFAE75"/><path fill-rule="evenodd" clip-rule="evenodd" d="M34.08 12.059l.66 1.317v-.659l-.66-.658z" fill="#231F20"/><path fill-rule="evenodd" clip-rule="evenodd" d="M34.08 11.4l.66 1.976-.66-1.317v-.66z" fill="#231F20"/><path fill-rule="evenodd" clip-rule="evenodd" d="M34.08 11.4l1.318 2.635-.659-.659-.659-1.976z" fill="#231F20"/><path fill-rule="evenodd" clip-rule="evenodd" d="M34.08 10.741l1.318 3.294L34.08 11.4v-.659zm0 0l1.318 3.294-1.318-3.294zm0 0l1.318 3.294-1.318-3.294z" fill="#231F20"/><path fill-rule="evenodd" clip-rule="evenodd" d="M34.08 10.082l1.318 4.612v-.659l-1.318-3.294v-.659zm0 0l1.318 4.612-1.318-4.612z" fill="#231F20"/><path fill-rule="evenodd" clip-rule="evenodd" d="M34.08 10.082l1.977 4.612h-.659l-1.318-4.612zm0-.659l1.977 5.271-1.977-4.612v-.659z" fill="#231F20"/><path fill-rule="evenodd" clip-rule="evenodd" d="M34.08 9.423l1.977 5.93v-.659l-1.977-5.27zm0 0l1.977 5.93-1.977-5.93z" fill="#231F20"/><path fill-rule="evenodd" clip-rule="evenodd" d="M34.08 8.764l1.977 6.589-1.977-5.93v-.659zm0 0l1.977 6.589-1.977-6.589zm0 0l1.977 6.589-1.977-6.589z" fill="#231F20"/><path fill-rule="evenodd" clip-rule="evenodd" d="M34.08 8.764l2.636 6.589h-.66L34.08 8.764z" fill="#231F20"/><path fill-rule="evenodd" clip-rule="evenodd" d="M34.08 8.106l2.636 7.906v-.66L34.08 8.765v-.658z" fill="#231F20"/><path fill-rule="evenodd" clip-rule="evenodd" d="M34.08 8.106l2.636 7.906-2.636-7.906z" fill="#231F20"/><path fill-rule="evenodd" clip-rule="evenodd" d="M34.08 8.106l2.636 7.906-2.636-7.906z" fill="#231F20"/><path fill-rule="evenodd" clip-rule="evenodd" d="M34.08 8.106l2.636 7.906-2.636-7.906z" fill="#231F20"/><path fill-rule="evenodd" clip-rule="evenodd" d="M34.08 8.106l2.636 7.906-2.636-7.906z" fill="#231F20"/><path fill-rule="evenodd" clip-rule="evenodd" d="M34.08 7.447l2.636 8.565-2.636-7.906v-.66z" fill="#231F20"/><path fill-rule="evenodd" clip-rule="evenodd" d="M34.08 7.447l3.295 8.565h-.66L34.08 7.447z" fill="#231F20"/><path fill-rule="evenodd" clip-rule="evenodd" d="M34.08 7.447l3.295 8.565-3.295-8.565zm0 0l3.295 8.565-3.295-8.565z" fill="#231F20"/><path fill-rule="evenodd" clip-rule="evenodd" d="M34.08 7.447l3.295 9.224v-.66L34.08 7.448zm0 0l3.295 9.224-3.295-9.224z" fill="#231F20"/><path fill-rule="evenodd" clip-rule="evenodd" d="M34.08 6.788l3.295 9.883-3.295-9.224v-.659zm0 0l3.295 9.883-3.295-9.883zm0 0l3.295 9.883-3.295-9.883zm0 0l3.295 9.883-3.295-9.883z" fill="#231F20"/><path fill-rule="evenodd" clip-rule="evenodd" d="M34.08 6.788l3.953 9.883h-.658L34.08 6.788zm0 0l3.953 9.883-3.953-9.883zm0-.658l3.953 10.54-3.953-9.882V6.13zm0 0l3.953 10.54L34.08 6.13zm0 0l3.953 10.54L34.08 6.13z" fill="#231F20"/><path fill-rule="evenodd" clip-rule="evenodd" d="M34.08 6.13l3.953 9.882v.659L34.08 6.129z" fill="#231F20"/><path fill-rule="evenodd" clip-rule="evenodd" d="M34.08 6.13l3.953 9.882-3.953-9.883z" fill="#231F20"/><path fill-rule="evenodd" clip-rule="evenodd" d="M34.74 6.13l3.293 9.882-3.953-9.883h.66z" fill="#231F20"/><path fill-rule="evenodd" clip-rule="evenodd" d="M34.74 6.13l3.293 9.882-3.294-9.883z" fill="#231F20"/><path fill-rule="evenodd" clip-rule="evenodd" d="M34.74 6.13l3.293 9.882-3.294-9.883zm0-.66l3.293 9.883v.659L34.74 6.129V5.47zm0 0l3.293 9.883L34.74 5.47zm0 0l3.293 9.883L34.74 5.47zm0 0l3.293 9.883L34.74 5.47z" fill="#231F20"/><path fill-rule="evenodd" clip-rule="evenodd" d="M34.74 5.47l3.293 9.224v.659L34.74 5.47zm0 0l3.293 9.224L34.74 5.47zm0 0l3.293 9.224L34.74 5.47z" fill="#231F20"/><path fill-rule="evenodd" clip-rule="evenodd" d="M34.74 5.47l3.293 8.565v.659L34.74 5.47zm0 0l3.293 8.565L34.74 5.47zm0 0l3.293 8.565L34.74 5.47z" fill="#231F20"/><path fill-rule="evenodd" clip-rule="evenodd" d="M34.74 4.811l3.293 8.565v.66L34.74 5.47v-.659z" fill="#231F20"/><path fill-rule="evenodd" clip-rule="evenodd" d="M34.74 4.811l3.293 8.565-3.294-8.565z" fill="#231F20"/><path fill-rule="evenodd" clip-rule="evenodd" d="M34.74 4.811l3.293 7.906v.66L34.74 4.81z" fill="#231F20"/><path fill-rule="evenodd" clip-rule="evenodd" d="M34.74 4.811l3.293 7.906-3.294-7.906z" fill="#231F20"/><path fill-rule="evenodd" clip-rule="evenodd" d="M34.74 4.811l3.293 7.906-3.294-7.906z" fill="#231F20"/><path fill-rule="evenodd" clip-rule="evenodd" d="M34.74 4.811l3.293 7.906-3.294-7.906z" fill="#231F20"/><path fill-rule="evenodd" clip-rule="evenodd" d="M34.74 4.811l3.293 7.906-3.294-7.906z" fill="#231F20"/><path fill-rule="evenodd" clip-rule="evenodd" d="M35.398 4.811l2.635 7.248v.659L34.74 4.81h.66zm0 0l2.635 7.248-2.635-7.248zm0 0l2.635 7.248-2.635-7.248zm0 0l2.635 7.248-2.635-7.248z" fill="#231F20"/><path fill-rule="evenodd" clip-rule="evenodd" d="M35.398 4.153l2.635 7.906-2.635-7.248v-.658zm0 0l2.635 7.906-2.635-7.906zm0 0l2.635 7.906-2.635-7.906z" fill="#231F20"/><path fill-rule="evenodd" clip-rule="evenodd" d="M35.398 4.153l2.635 7.247v.659l-2.635-7.906z" fill="#231F20"/><path fill-rule="evenodd" clip-rule="evenodd" d="M35.398 4.153l2.635 7.247-2.635-7.247zm0 0l2.635 7.247-2.635-7.247zm0 0l2.635 7.247-2.635-7.247zm0 0l2.635 7.247-2.635-7.247zm0 0l2.635 7.247-2.635-7.247zm0 0l2.635 7.247-2.635-7.247z" fill="#231F20"/><path fill-rule="evenodd" clip-rule="evenodd" d="M35.398 4.153l2.635 6.588v.659l-2.635-7.247zm0 0l2.635 6.588-2.635-6.588zm0 0l2.635 6.588-2.635-6.588z" fill="#231F20"/><path fill-rule="evenodd" clip-rule="evenodd" d="M36.057 3.494l1.976 7.247-2.635-6.588.659-.66zm0 0l1.976 7.247-1.976-7.247zm0 0l1.976 7.247-1.976-7.247z" fill="#231F20"/><path fill-rule="evenodd" clip-rule="evenodd" d="M36.057 3.494l1.976 6.588v.66l-1.976-7.248z" fill="#231F20"/><path fill-rule="evenodd" clip-rule="evenodd" d="M36.057 3.494l1.976 6.588-1.976-6.588zm0 0l1.976 6.588-1.976-6.588zm0 0l1.976 6.588-1.976-6.588zm0 0l1.976 6.588-1.976-6.588zm0 0l1.976 6.588-1.976-6.588z" fill="#231F20"/><path fill-rule="evenodd" clip-rule="evenodd" d="M36.057 3.494l2.635 6.588h-.659l-1.976-6.588zm0 0l2.635 5.93v.658l-2.635-6.588zm0 0l2.635 5.93-2.635-5.93zm0 0l2.635 5.93-2.635-5.93zm0 0l2.635 5.93-2.635-5.93zm0 0l2.635 5.93-2.635-5.93z" fill="#231F20"/><path fill-rule="evenodd" clip-rule="evenodd" d="M36.716 3.494l1.976 5.93-2.635-5.93h.659zm0-.659l1.976 6.588-1.976-5.93v-.658zm0 0l1.976 6.588-1.976-6.588zm0 0l1.976 6.588-1.976-6.588zm0 0l1.976 6.588-1.976-6.588zm0 0l1.976 6.588-1.976-6.588zm0 0l1.976 6.588-1.976-6.588z" fill="#231F20"/><path fill-rule="evenodd" clip-rule="evenodd" d="M36.716 2.835l1.976 5.93v.658l-1.976-6.588z" fill="#231F20"/><path fill-rule="evenodd" clip-rule="evenodd" d="M36.716 2.835l1.976 5.93-1.976-5.93z" fill="#231F20"/><path fill-rule="evenodd" clip-rule="evenodd" d="M36.716 2.835l1.976 5.93-1.976-5.93z" fill="#231F20"/><path fill-rule="evenodd" clip-rule="evenodd" d="M36.716 2.835l2.635 5.93h-.659l-1.976-5.93z" fill="#231F20"/><path fill-rule="evenodd" clip-rule="evenodd" d="M36.716 2.835l2.635 5.93-2.635-5.93zm0 0l2.635 5.93-2.635-5.93zm0 0l2.635 5.93-2.635-5.93z" fill="#231F20"/><path fill-rule="evenodd" clip-rule="evenodd" d="M37.374 2.835l1.977 5.93-2.635-5.93h.658zm.001 0l1.976 5.93-1.976-5.93z" fill="#231F20"/><path fill-rule="evenodd" clip-rule="evenodd" d="M37.375 2.835l1.976 5.93-1.976-5.93z" fill="#231F20"/><path fill-rule="evenodd" clip-rule="evenodd" d="M37.375 2.835l1.976 5.93-1.976-5.93z" fill="#231F20"/><path fill-rule="evenodd" clip-rule="evenodd" d="M37.375 2.835l1.976 5.93-1.976-5.93z" fill="#231F20"/><path fill-rule="evenodd" clip-rule="evenodd" d="M37.375 2.835l1.976 5.93-1.976-5.93z" fill="#231F20"/><path fill-rule="evenodd" clip-rule="evenodd" d="M37.375 2.835l1.976 5.93-1.976-5.93z" fill="#231F20"/><path fill-rule="evenodd" clip-rule="evenodd" d="M37.375 2.835l1.976 5.93-1.976-5.93z" fill="#231F20"/><path fill-rule="evenodd" clip-rule="evenodd" d="M37.375 2.835l2.635 5.93h-.659l-1.976-5.93z" fill="#231F20"/><path fill-rule="evenodd" clip-rule="evenodd" d="M37.375 2.835l2.635 5.93-2.635-5.93z" fill="#231F20"/><path fill-rule="evenodd" clip-rule="evenodd" d="M37.375 2.835l2.635 5.93-2.635-5.93z" fill="#231F20"/><path fill-rule="evenodd" clip-rule="evenodd" d="M37.375 2.835l2.635 5.93-2.635-5.93z" fill="#231F20"/><path fill-rule="evenodd" clip-rule="evenodd" d="M37.375 2.835l2.635 5.93-2.635-5.93z" fill="#231F20"/><path fill-rule="evenodd" clip-rule="evenodd" d="M38.033 2.835l1.977 5.93-2.635-5.93h.658z" fill="#231F20"/><path fill-rule="evenodd" clip-rule="evenodd" d="M38.033 2.835l1.977 5.93-1.977-5.93zm0-.659l1.977 6.588-1.977-5.93v-.658z" fill="#231F20"/><path fill-rule="evenodd" clip-rule="evenodd" d="M38.033 2.176l1.977 7.247v-.659l-1.977-6.588zm0 0l1.977 7.247-1.977-7.247zm0 0l1.977 7.247-1.977-7.247z" fill="#231F20"/><path fill-rule="evenodd" clip-rule="evenodd" d="M38.033 2.176l2.636 7.247h-.659l-1.977-7.247zm0 0l2.636 7.247-2.636-7.247zm0 0l2.636 7.247-2.636-7.247zm0 0l2.636 7.247-2.636-7.247zm0 0l2.636 7.247-2.636-7.247zm0 0l2.636 7.247-2.636-7.247zm0 0l2.636 7.247-2.636-7.247z" fill="#231F20"/><path fill-rule="evenodd" clip-rule="evenodd" d="M38.692 2.176l1.977 7.247-2.636-7.247h.66zm0 0l1.977 7.247-1.977-7.247zm0 0l1.977 7.247-1.977-7.247zm0 0l1.977 7.247-1.977-7.247z" fill="#231F20"/><path fill-rule="evenodd" clip-rule="evenodd" d="M38.692 2.176l2.636 7.247h-.66l-1.976-7.247zm0 0l2.636 7.247-2.636-7.247zm0 0l2.636 7.247-2.636-7.247zm0 0l2.636 7.247-2.636-7.247zm0 0l2.636 7.247-2.636-7.247zm0 0l2.636 7.247-2.636-7.247zm0 0l2.636 7.247-2.636-7.247zm0 0l2.636 7.247-2.636-7.247z" fill="#231F20"/><path fill-rule="evenodd" clip-rule="evenodd" d="M39.351 2.176l1.977 7.247-2.636-7.247h.659zm0 0l1.977 7.247-1.977-7.247zm0 0l1.977 7.247-1.977-7.247zm0 0l1.977 7.247-1.977-7.247z" fill="#231F20"/><path fill-rule="evenodd" clip-rule="evenodd" d="M39.351 2.176l2.636 7.247h-.66l-1.976-7.247zm0 0l2.636 7.247-2.636-7.247zm0 0l2.636 7.247-2.636-7.247zm0 0l2.636 7.247-2.636-7.247zm0 0l2.636 7.247-2.636-7.247zm0 0l2.636 7.247-2.636-7.247zm0 0l2.636 7.247-2.636-7.247z" fill="#231F20"/><path fill-rule="evenodd" clip-rule="evenodd" d="M40.01 2.176l1.977 7.247-2.636-7.247h.659zm0 0l1.976 7.247-1.976-7.247zm0 0l1.976 7.247-1.976-7.247zm0 0l1.976 7.247-1.976-7.247z" fill="#231F20"/><path fill-rule="evenodd" clip-rule="evenodd" d="M40.01 2.176l2.635 7.247h-.659L40.01 2.176zm0 0l2.635 7.247-2.635-7.247zm0 0l2.635 7.247-2.635-7.247zm0 0l2.635 7.247-2.635-7.247zm0 0l2.635 7.247-2.635-7.247zm0 0l2.635 7.247-2.635-7.247zm0 0l2.635 7.247-2.635-7.247zm0 0l2.635 7.247-2.635-7.247z" fill="#231F20"/><path fill-rule="evenodd" clip-rule="evenodd" d="M40.669 2.176l1.976 7.247-2.635-7.247h.659zm0 0l1.976 7.247-1.976-7.247zm0 0l1.976 7.247-1.976-7.247zm0 0l1.976 7.247-1.976-7.247z" fill="#231F20"/><path fill-rule="evenodd" clip-rule="evenodd" d="M40.669 2.176l2.635 7.247h-.659L40.67 2.176zm0 0l2.635 7.247-2.635-7.247zm0 0l2.635 7.247-2.635-7.247zm0 0l2.635 7.247-2.635-7.247z" fill="#231F20"/><path fill-rule="evenodd" clip-rule="evenodd" d="M40.669 2.176l2.635 6.588v.66L40.67 2.175z" fill="#231F20"/><path fill-rule="evenodd" clip-rule="evenodd" d="M40.669 2.176l2.635 6.588-2.635-6.588z" fill="#231F20"/><path fill-rule="evenodd" clip-rule="evenodd" d="M40.669 2.176l2.635 6.588-2.635-6.588zm.659 0l1.976 6.588-2.635-6.588h.659zm0 0l1.976 6.588-1.976-6.588zm0 0l1.976 6.588-1.976-6.588zm0 0l1.976 6.588-1.976-6.588zm0 0l1.976 6.588-1.976-6.588zm0 0l2.635 6.588h-.659l-1.976-6.588zm0 0l2.635 6.588-2.635-6.588zm0 0l2.635 6.588-2.635-6.588zm0 0l2.635 6.588-2.635-6.588zM41.328 2.176l2.635 6.588-2.635-6.588z" fill="#231F20"/><path fill-rule="evenodd" clip-rule="evenodd" d="M41.328 2.176l2.635 6.588-2.635-6.588z" fill="#231F20"/><path fill-rule="evenodd" clip-rule="evenodd" d="M41.986 2.176l1.977 6.588-2.635-6.588h.658z" fill="#231F20"/><path fill-rule="evenodd" clip-rule="evenodd" d="M41.986 2.835l1.977 5.93-1.977-6.589v.659zm0 0l1.977 5.93-1.977-5.93zm0 0l1.977 5.93-1.977-5.93zm0 0l1.977 5.93-1.977-5.93zm0 0l1.977 5.93-1.977-5.93zm0 0l1.977 5.93-1.977-5.93z" fill="#231F20"/><path fill-rule="evenodd" clip-rule="evenodd" d="M41.986 2.835l2.636 5.93h-.66l-1.976-5.93z" fill="#231F20"/><path fill-rule="evenodd" clip-rule="evenodd" d="M41.986 2.835l2.636 5.93-2.636-5.93z" fill="#231F20"/><path fill-rule="evenodd" clip-rule="evenodd" d="M41.986 2.835l2.636 5.93-2.636-5.93z" fill="#231F20"/><path fill-rule="evenodd" clip-rule="evenodd" d="M42.645 2.835l1.977 5.93-2.636-5.93h.66z" fill="#231F20"/><path fill-rule="evenodd" clip-rule="evenodd" d="M42.645 2.835l1.977 5.93-1.977-5.93z" fill="#231F20"/><path fill-rule="evenodd" clip-rule="evenodd" d="M42.645 2.835l1.977 5.93-1.977-5.93z" fill="#231F20"/><path fill-rule="evenodd" clip-rule="evenodd" d="M42.645 2.835l1.977 5.93-1.977-5.93z" fill="#231F20"/><path fill-rule="evenodd" clip-rule="evenodd" d="M42.645 2.835l1.977 5.93-1.977-5.93z" fill="#231F20"/><path fill-rule="evenodd" clip-rule="evenodd" d="M42.645 2.835l1.977 5.93-1.977-5.93z" fill="#231F20"/><path fill-rule="evenodd" clip-rule="evenodd" d="M42.645 2.835l1.977 5.93-1.977-5.93z" fill="#231F20"/><path fill-rule="evenodd" clip-rule="evenodd" d="M42.645 2.835l1.977 5.93-1.977-5.93z" fill="#231F20"/><path fill-rule="evenodd" clip-rule="evenodd" d="M42.645 2.835l1.977 5.93-1.977-5.93z" fill="#231F20"/><path fill-rule="evenodd" clip-rule="evenodd" d="M42.645 2.835l1.977 5.93-1.977-5.93z" fill="#231F20"/><path fill-rule="evenodd" clip-rule="evenodd" d="M42.645 2.835l2.636 5.93h-.66l-1.976-5.93z" fill="#231F20"/><path fill-rule="evenodd" clip-rule="evenodd" d="M43.304 2.835l1.977 5.93-2.636-5.93h.66z" fill="#231F20"/><path fill-rule="evenodd" clip-rule="evenodd" d="M43.304 2.835l1.977 5.93-1.977-5.93zm0 0l1.977 5.93-1.977-5.93zm0 0l1.977 5.93-1.977-5.93zm0 0l1.977 5.93-1.977-5.93zm0 0l1.977 5.93-1.977-5.93z" fill="#231F20"/><path fill-rule="evenodd" clip-rule="evenodd" d="M43.304 2.835l1.977 5.27v.66l-1.977-5.93z" fill="#231F20"/><path fill-rule="evenodd" clip-rule="evenodd" d="M43.304 2.835l1.977 5.27-1.977-5.27zm0 0l1.977 5.27-1.977-5.27zm0 0l1.977 5.27-1.977-5.27z" fill="#231F20"/><path fill-rule="evenodd" clip-rule="evenodd" d="M43.963 2.835l1.318 5.27-1.977-5.27h.659z" fill="#231F20"/><path fill-rule="evenodd" clip-rule="evenodd" d="M43.963 2.835l1.318 5.27-1.318-5.27zm0 0l1.318 5.27-1.318-5.27z" fill="#231F20"/><path fill-rule="evenodd" clip-rule="evenodd" d="M43.963 2.835l1.977 5.27h-.66l-1.317-5.27z" fill="#231F20"/><path fill-rule="evenodd" clip-rule="evenodd" d="M43.963 2.835l1.977 5.27-1.977-5.27z" fill="#231F20"/><path fill-rule="evenodd" clip-rule="evenodd" d="M43.963 3.494l1.977 4.612-1.977-5.271v.659zm0 0l1.977 4.612-1.977-4.612zm0 0l1.977 4.612-1.977-4.612zm0 0l1.977 4.612-1.977-4.612zm0 0l1.977 4.612-1.977-4.612z" fill="#231F20"/><path fill-rule="evenodd" clip-rule="evenodd" d="M44.622 3.494l1.318 4.612-1.977-4.612h.659zm0 0l1.318 4.612-1.318-4.612zm0 0l1.318 4.612-1.318-4.612zm0 0l1.318 4.612-1.318-4.612zm0 0l1.318 4.612-1.318-4.612z" fill="#231F20"/><path fill-rule="evenodd" clip-rule="evenodd" d="M44.622 3.494l1.318 3.953v.659l-1.318-4.612zm0 0l1.318 3.953-1.318-3.953zm0 0l1.318 3.953-1.318-3.953z" fill="#231F20"/><path fill-rule="evenodd" clip-rule="evenodd" d="M44.622 3.494l1.976 3.953h-.658l-1.318-3.953zm0 0l1.976 3.953-1.976-3.953z" fill="#231F20"/><path fill-rule="evenodd" clip-rule="evenodd" d="M45.28 3.494l1.318 3.953-1.976-3.953h.659z" fill="#231F20"/><path fill-rule="evenodd" clip-rule="evenodd" d="M45.28 3.494l1.318 3.953-1.317-3.953z" fill="#231F20"/><path fill-rule="evenodd" clip-rule="evenodd" d="M45.28 3.494l1.318 3.953-1.317-3.953z" fill="#231F20"/><path fill-rule="evenodd" clip-rule="evenodd" d="M45.28 3.494l1.318 3.953-1.317-3.953z" fill="#231F20"/><path fill-rule="evenodd" clip-rule="evenodd" d="M45.28 3.494l1.318 3.953-1.317-3.953z" fill="#231F20"/><path fill-rule="evenodd" clip-rule="evenodd" d="M45.28 3.494l1.318 3.953-1.317-3.953z" fill="#231F20"/><path fill-rule="evenodd" clip-rule="evenodd" d="M45.28 4.153l1.318 3.294-1.317-3.953v.659z" fill="#231F20"/><path fill-rule="evenodd" clip-rule="evenodd" d="M45.28 4.153l1.318 3.294-1.317-3.294z" fill="#231F20"/><path fill-rule="evenodd" clip-rule="evenodd" d="M45.28 4.153l1.318 3.294-1.317-3.294z" fill="#231F20"/><path fill-rule="evenodd" clip-rule="evenodd" d="M45.94 4.153l.658 3.294-1.317-3.294h.659z" fill="#231F20"/><path fill-rule="evenodd" clip-rule="evenodd" d="M45.94 4.153l.658 2.635v.659l-.658-3.294zm0 0l.658 2.635-.658-2.635zm0 0l.658 2.635-.658-2.635zm0 0l.658 2.635-.658-2.635z" fill="#231F20"/><path fill-rule="evenodd" clip-rule="evenodd" d="M45.94 4.811l1.317 1.977h-.659l-.658-2.635v.658z" fill="#231F20"/><path fill-rule="evenodd" clip-rule="evenodd" d="M46.598 4.811l.66 1.977-1.318-1.977h.658zm0 0l.66 1.977-.66-1.977z" fill="#231F20"/><path fill-rule="evenodd" clip-rule="evenodd" d="M47.257 6.788l-.659-1.977V6.13l.66.659z" fill="#231F20"/><path fill-rule="evenodd" clip-rule="evenodd" d="M36.057 14.694c.659.659 1.318 1.318 1.976 1.318 0 0 .66-1.318 0-1.977 0-1.318-1.317-1.976-1.976-1.976v2.635z" fill="#FFAE75"/><path fill-rule="evenodd" clip-rule="evenodd" d="M61.752 37.753L79.54 48.295l-17.788 9.882-17.789-9.882 17.789-10.542z" fill="#ECBD7A"/><path fill-rule="evenodd" clip-rule="evenodd" d="M61.752 58.178v13.176l-17.789-9.882V48.295l17.789 9.883z" fill="#DFAD61"/><path fill-rule="evenodd" clip-rule="evenodd" d="M61.752 57.519v13.835l17.788-9.882V47.636l-17.788 9.883z" fill="#ECBD7A"/><path fill-rule="evenodd" clip-rule="evenodd" d="M29.468 36.436c1.977 5.93 6.589 17.13 8.565 16.47.66 0 1.977-4.611 1.318-6.588-1.318-4.612-1.318-9.223-2.635-13.176-1.977-5.93-3.953-6.589-5.93-5.93-2.635.659-3.294 2.635-1.318 9.224z" fill="#1D9F3A"/><path fill-rule="evenodd" clip-rule="evenodd" d="M36.716 52.907c3.953 4.612 11.2 12.518 13.176 11.2.66 0 2.636-1.318 1.977-3.294-1.318-2.636-7.247-7.906-10.541-12.518-.66-1.318-3.953-3.294-5.271-1.977-1.977 1.318-1.318 3.295.659 6.589z" fill="#1D9F3A"/><path fill-rule="evenodd" clip-rule="evenodd" d="M49.234 60.813c1.317 0 2.635.659 3.294.659.659.658 1.318.658 1.976 1.317 0 .66 0 .66.66 1.318 0 0 0 .659-.66.659 0 0-.658 0-.658-.659-.66-.659-.66-1.318-1.318-.659-.659.659 0 1.318 0 1.977.659.659 1.318.659.659 1.976 0 .66-.66.66-1.318 0 0 0 .659 0 0 .66-.659 0-1.318-.66-1.318-1.319 0 1.318-1.317.66-1.317 0 0 .66-1.318-.659-1.318-.659-.659-.658-.659-1.976-.659-2.635 0-.659.659-1.976 1.318-1.976l.659-.66z" fill="#FFAE75"/><path fill-rule="evenodd" clip-rule="evenodd" d="M46.598 5.47s-.658-2.635-2.635-3.294C41.986.858 38.693.858 37.374.858c-1.317.66-2.635 1.977-3.294 3.295-.658 2.635 0 3.953 0 3.953v.659c.66.658 3.953 2.635 5.93 1.976h3.294l3.294-5.27z" fill="#3C6597"/><path fill-rule="evenodd" clip-rule="evenodd" d="M46.598 5.47s-.658-.659-2.635 1.318c-1.977.659-4.612 3.953-3.953 4.612.659.659 3.294 1.318 5.27.659 1.318-.66 2.636-3.953 5.271-3.953 1.977.659-1.976-1.977-3.953-2.636z" fill="#5A8AC3"/><path fill-rule="evenodd" clip-rule="evenodd" d="M86.788 58.836c.658.66 1.317 1.318 1.317 1.977.66 0 .66 0 .66.659l.658.658.659.66c0 1.317-1.318 1.976-1.977 1.317-.659 0-1.317-.659-1.976-1.318-.66 0-.66 0-1.318-.659-.659 0-1.318-.658-1.977-1.317 0 0-.658 0-1.317-.659v-.659h.659-.66s-.658-.659 0-.659v-.658h-.658c0-.66.659-.66.659-.66h1.976c.66 0 .66 0 1.318.66h.659c.659 0 1.318 0 1.318.658z" fill="#FFAE75"/><path fill-rule="evenodd" clip-rule="evenodd" d="M85.47 57.519h.659l.658.658.66.66c0 .658 1.317 1.976 0 1.976-.66 0-1.318-.66-1.318-.66v-1.317c-.66-.659-.66-.659-1.318-.659 0-.658 0-1.317.659-1.317v.659h.659-.66zM62.41 73.99c.66.658.66.658 1.318.658 0 .66 0 .66.659.66.659 1.317 2.635 2.635 3.294 3.293l1.977-2.635c0-.659 0-1.318-.66-2.635v-1.318c-.658 0-.658-.659-1.317-.659-.659-.659-.659-1.317-1.317-1.317 0 0-.66-.66-.66 0-.658.658.66 1.317.66 1.317s0 .66.658.66l-.659.658c0-.659 0-.659-.658-.659l-.66-.659s-.658 0-.658-.659c0-.658 0-1.317-.659-1.976h-.659v1.976-.658c0-.66-.659-.66-.659-1.318-.658 0-.658.659-.658.659v.659h-.66v1.317s.66 0 .66.66l-.66-.66v1.318c.66 0 .66.659.66.659l.658.659z" fill="#FFAE75"/><path fill-rule="evenodd" clip-rule="evenodd" d="M101.282 141.191c0 .659.659 5.271.659 5.271-.659 1.318-1.318 1.976-2.636 1.318-1.317 0-2.635-1.318-3.294-1.318-.659-.659-3.953-1.977-5.93-2.636-1.317-.658-2.635-2.635-1.976-3.294 0-1.317 1.977-1.976 2.635-1.976 1.318.659 2.636.659 3.954.659.658.658.658.658 1.976.658.659 0 2.635-.658 2.635.659l1.977.659z" fill="#1E160D"/><path fill-rule="evenodd" clip-rule="evenodd" d="M102.6 97.708c-.659 3.294 0 6.588-.659 9.882 0 3.953.659 7.906-.659 11.859-.659.659-2.635 2.636-4.612 2.636-1.318 0-3.953-.659-3.953-1.318.659-.659-.659-2.635-.659-3.294.66-1.318 0-10.541 0-13.177v-6.588s-.659-5.27 5.27-4.612c5.272.659 5.272 3.953 5.272 4.612z" fill="#515159"/><path fill-rule="evenodd" clip-rule="evenodd" d="M101.941 120.108c-.659-1.976-.659-3.953-.659-5.929 0-1.977-8.565 0-8.565 3.953 0 0 1.977 15.812.659 21.083v.658s0 1.977 2.635 3.295c1.318 1.317 4.612 1.976 5.93 0 1.317-3.295.659-16.471 0-23.06z" fill="#515159"/><path fill-rule="evenodd" clip-rule="evenodd" d="M90.74 147.121c.66.658 1.977 3.294 1.318 5.27-.659.659-1.317 1.318-2.635 1.318-.659 0-2.635-1.976-3.294-1.976-1.318 0-4.612-1.318-5.271-1.977-.659-.659-1.318-.659-1.977-1.318-.658-1.317-1.317-2.635-.658-3.294 0-.659.659-1.318 1.317-1.318 1.977.659 3.294.659 4.612.659 1.318.659 1.318.659 2.636.659.658 0 2.635 0 2.635.659l1.318 1.318z" fill="#1E160D"/><path fill-rule="evenodd" clip-rule="evenodd" d="M94.694 101.661c-.66 3.294 0 6.588-.66 9.882 0 3.953 0 8.565-1.317 11.859-.659 1.318-2.635 3.295-4.612 2.636-1.318 0-3.294-.659-3.953-1.318v-16.471c0-2.635 0-8.565.659-11.859 0 0 0-2.635 5.93-1.976 4.611.658 4.611 7.247 3.953 7.247z" fill="#626265"/><path fill-rule="evenodd" clip-rule="evenodd" d="M93.376 126.697v-5.93c0-1.976-9.224-1.976-9.224 1.977 0 0 1.318 17.129 0 21.741v1.318s-.659.659 0 1.977c.659.658 1.318 1.317 2.635 1.976 1.318 0 4.612 0 5.271-1.318 1.318-5.27 1.977-14.494 1.318-21.741zm13.177-64.567c.659 6.589 1.317 13.177-.659 13.836-.659.659-3.294 1.977-3.953 0-.659-5.27-2.636-8.565-3.953-12.518-.66-6.588-.66-7.247 1.317-7.906 2.636 0 5.93.659 7.248 6.588z" fill="#626265"/><path fill-rule="evenodd" clip-rule="evenodd" d="M90.082 58.836c-.66 0-3.294 1.318-5.27 4.612-1.977 1.977-1.977 6.589-1.319 7.247 0 1.977.66 20.424.66 22.4 0 3.295-.66 6.59 0 7.248 1.317 3.953 7.905 1.977 9.223 1.977 4.612-.659 10.541-3.953 9.883-5.93-.659-3.953-.659-21.083 0-23.06 0-2.635 2.635-12.517-.659-16.47-.659-.66-1.977-1.318-2.636-1.318-3.953.659-9.223 3.294-9.882 3.294z" fill="#7A8389"/><path fill-rule="evenodd" clip-rule="evenodd" d="M88.764 72.672c-1.318 3.294-2.635 11.2-4.612 15.153-1.976 3.294-4.612 3.294-5.27 2.635-.66 0-2.636-1.317-1.318-3.294 1.318-4.612 2.635-13.835 3.953-17.788 1.976-6.589 3.953-7.248 5.93-6.589 2.635 1.318 3.294 3.294 1.317 9.883z" fill="#93999E"/><path fill-rule="evenodd" clip-rule="evenodd" d="M87.446 42.365c0 1.318-.659 2.636-.659 3.294-.658.66-.658 1.318 0 1.318v3.294c-.658.66 0 1.977 0 3.294.66.66.66 1.977 1.318 1.977 1.977 1.318 3.953.659 5.93 0 1.976-.659 1.976-3.953 2.635-5.93 1.318-2.635 0-6.588-3.294-7.906-1.318-.658-3.294-.658-5.27-.658 0 .658-.66 1.317-.66 1.317z" fill="#FFAE75"/><path fill-rule="evenodd" clip-rule="evenodd" d="M90.082 54.224s1.317 3.953.659 5.271c0 .659 1.317 1.318 2.635 1.318 2.635.659 5.93-.66 4.612-3.294 0-.66-1.318-1.977-.66-6.589 0-1.318-7.246 3.294-7.246 3.294z" fill="#FFAE75"/><path fill-rule="evenodd" clip-rule="evenodd" d="M97.329 39.73c-2.635-1.977-6.588-1.977-8.565.659-1.318 1.317-1.318 2.635-1.318 2.635-.659.659 1.318.659 1.318 3.294 2.635 11.86 7.906 7.906 8.565 7.248 1.318-3.295 1.976-2.636 2.635-4.612 1.318-3.294 1.977-6.589-2.635-9.224z" fill="#60573A"/><path fill-rule="evenodd" clip-rule="evenodd" d="M90.74 50.93c0 .66-.658 1.977-.658 1.977-.66-.66-1.318-1.318-.66-2.636 0-.658.66-1.976 1.319-1.976.658 0 .658 1.318 0 2.635z" fill="#FFAE75"/><path fill-rule="evenodd" clip-rule="evenodd" d="M77.564 89.802c-3.294-2.636-11.86-10.542-10.542-11.86 1.318-1.317 2.636-2.635 3.294-1.976 1.977.659 8.565 7.247 11.86 9.883.658 0 2.635.659 1.317 2.635-1.317 1.318-3.953 3.294-5.93 1.318zM99.305 56.86c0 .659.66 1.317 0 1.317 0 1.318-.658 1.977-1.317 2.636 0 .659-3.294 1.317-5.27 1.317-1.977 0-3.295-1.317-3.954-1.317 0 0-.659-.659-1.318-.659.66 0 1.977-1.977 3.295-1.977h.658c0 .66.66.66 1.318 1.318.659 0 1.977 0 3.294-.659 1.977-1.976 1.318-2.635 1.318-3.294.659-.659 1.318.659 1.977 1.318z" fill="#93999E"/><path fill-rule="evenodd" clip-rule="evenodd" d="M79.54 47.636l-17.788-9.883v20.424L79.54 47.636z" fill="#D29142"/><mask id="a" maskUnits="userSpaceOnUse" x="43" y="37" width="37" height="22"><path fill-rule="evenodd" clip-rule="evenodd" d="M61.752 37.753L79.54 48.295l-17.788 9.882-17.789-9.882 17.789-10.542z" fill="#ECBD7A"/></mask><g mask="url(#a)"><path fill-rule="evenodd" clip-rule="evenodd" d="M58.636 53.277c0 2.31-1.154 3.465-2.886 3.465-1.732 0-3.463-1.155-3.463-3.465 0-1.733 1.731-2.888 3.463-2.888s2.886 1.155 2.886 2.888zm7.063-5.063c0 2.31-1.155 3.465-2.886 3.465-1.732 0-3.464-1.155-3.464-3.465 0-1.732 1.732-2.887 3.464-2.887 1.731 0 2.886 1.155 2.886 2.887zm.362 6.873c0 2.31-1.154 3.465-2.886 3.465-1.732 0-3.464-1.155-3.464-3.465 0-1.733 1.732-2.888 3.464-2.888s2.886 1.155 2.886 2.888z" fill="#C8252F"/><path fill-rule="evenodd" clip-rule="evenodd" d="M70.086 50.853c0 2.31-1.154 3.465-2.886 3.465-1.732 0-3.463-1.155-3.463-3.465 0-1.733 1.731-2.888 3.463-2.888s2.886 1.155 2.886 2.888zm-11.509-2.639c0 2.31-1.155 3.465-2.886 3.465-1.732 0-3.464-1.155-3.464-3.465 0-1.732 1.732-2.887 3.464-2.887 1.731 0 2.886 1.155 2.886 2.887z" fill="#C8252F"/><path fill-rule="evenodd" clip-rule="evenodd" d="M74.698 48.734c0 2.31-1.154 3.465-2.886 3.465-1.731 0-3.463-1.155-3.463-3.465 0-1.733 1.731-2.888 3.463-2.888s2.886 1.156 2.886 2.888z" fill="#C8252F"/><path fill-rule="evenodd" clip-rule="evenodd" d="M53.886 50.34c0 2.31-1.154 3.466-2.886 3.466-1.732 0-3.463-1.155-3.463-3.465 0-1.733 1.731-2.888 3.463-2.888s2.886 1.155 2.886 2.888zm11.288 1.05c0 2.31-1.155 3.466-2.886 3.466-1.732 0-3.464-1.156-3.464-3.465 0-1.733 1.732-2.888 3.464-2.888 1.731 0 2.886 1.155 2.886 2.888z" fill="#FF2C38"/><path fill-rule="evenodd" clip-rule="evenodd" d="M64.926 43.308c0 2.31-1.154 3.465-2.886 3.465-1.731 0-3.463-1.155-3.463-3.465 0-1.733 1.732-2.888 3.463-2.888 1.732 0 2.886 1.155 2.886 2.888z" fill="#C8252F"/><path fill-rule="evenodd" clip-rule="evenodd" d="M68.349 54.712c0 2.31-1.155 3.465-2.886 3.465-1.732 0-3.464-1.155-3.464-3.465 0-1.732 1.732-2.887 3.464-2.887 1.731 0 2.886 1.155 2.886 2.887zm-8.113-1.195c0 2.31-1.155 3.465-2.886 3.465-1.732 0-3.464-1.155-3.464-3.465 0-1.732 1.732-2.887 3.464-2.887 1.731 0 2.886 1.155 2.886 2.887zm0-7.569c0 2.31-1.155 3.465-2.886 3.465-1.732 0-3.464-1.155-3.464-3.465 0-1.733 1.732-2.888 3.464-2.888 1.731 0 2.886 1.155 2.886 2.888z" fill="#FF2C38"/><path fill-rule="evenodd" clip-rule="evenodd" d="M73.261 50.34c0 2.31-1.154 3.466-2.886 3.466-1.732 0-3.463-1.155-3.463-3.465 0-1.733 1.731-2.888 3.463-2.888s2.886 1.155 2.886 2.888zm-5.893-5.302c0 2.31-1.155 3.465-2.886 3.465-1.732 0-3.464-1.155-3.464-3.465 0-1.733 1.732-2.888 3.463-2.888 1.732 0 2.887 1.155 2.887 2.888z" fill="#FF2C38"/><path d="M48.876 53.256c.9 1.94 2.9 3.11 4.94 2.43 2.04-.69 2.91-2.84 2.44-4.93-.55-2.43-2.22-3.53-4.87-2.24-2.78.12-3.49 2.61-2.51 4.74z" fill="#E31B25"/><path d="M55.412 48.049c-.41 2.09.53 4.22 2.58 4.86 2.05.63 4.02-.6 4.86-2.56.99-2.28.28-4.16-2.62-4.67-2.33-1.54-4.38.07-4.82 2.37z" fill="#FF3F4A"/><path d="M61.27 46.697c-.41 2.1.53 4.22 2.58 4.86 2.06.64 4.02-.6 4.86-2.55.99-2.29.28-4.17-2.62-4.68-2.33-1.54-4.37.07-4.82 2.37z" fill="#FF3F4A"/><path d="M59.323 53.113c.67 2.02 2.53 3.41 4.63 2.96 2.1-.46 3.2-2.5 2.98-4.62-.27-2.48-1.81-3.77-4.59-2.78-2.79-.19-3.77 2.21-3.02 4.44z" fill="#9C251F"/><path d="M56.489 56.495c.9 1.93 2.9 3.11 4.94 2.42 2.04-.69 2.91-2.84 2.44-4.92-.55-2.43-2.22-3.54-4.87-2.25-2.79.13-3.49 2.62-2.51 4.75z" fill="#E31B25"/></g></g><defs><clipPath id="clip0"><path fill="#fff" transform="translate(27.43 .858)" d="M0 0h79.845v152.851H0z"/></clipPath></defs></svg>