<svg width="121" height="161" fill="none" xmlns="http://www.w3.org/2000/svg"><path opacity=".3" d="M64.678 123.426l48.358-27.049v-2.514l-47.308-23.86-47.12 21.459-3.752 3.301 49.822 28.663z" fill="#000"/><path opacity=".1" d="M.628 95.465l59.084 35.071 60.916-35.071-18.874-8.386-37.802-18.833-8.386 1.65-17.183 8.66-10.447 2.2L.628 95.465z" fill="#000"/><path fill-rule="evenodd" clip-rule="evenodd" d="M85.585 98.37c3.932 2.28 3.952 5.97.047 8.245-3.904 2.276-10.26 2.28-14.193 0-3.932-2.275-3.952-5.969-.047-8.244 3.908-2.276 10.264-2.276 14.193 0z" fill="#33B550"/><path fill-rule="evenodd" clip-rule="evenodd" d="M93.636 97.465l-23.714 13.82-7.259-4.205 23.714-13.816 7.259 4.201z" fill="#ECBD7A"/><path fill-rule="evenodd" clip-rule="evenodd" d="M69.903 111.289l-.036 6.74-7.259-4.206.036-6.735 7.259 4.201z" fill="#AE7836"/><path fill-rule="evenodd" clip-rule="evenodd" d="M86.175 90.678c3.932 2.276 3.952 5.965.047 8.245-3.904 2.275-10.26 2.275-14.193 0-3.932-2.28-3.952-5.97-.047-8.245 3.908-2.275 10.264-2.275 14.193 0z" fill="#33B550"/><path fill-rule="evenodd" clip-rule="evenodd" d="M94.226 89.769l-23.714 13.82-7.258-4.202 23.713-13.82 7.259 4.202z" fill="#ECBD7A"/><path fill-rule="evenodd" clip-rule="evenodd" d="M70.493 103.597l-.036 6.735-7.259-4.201.036-6.74 7.259 4.206z" fill="#AE7836"/><path fill-rule="evenodd" clip-rule="evenodd" d="M84.995 83.276c3.932 2.28 3.952 5.969.047 8.244-3.904 2.276-10.26 2.28-14.193 0-3.932-2.275-3.952-5.969-.047-8.244 3.904-2.276 10.26-2.276 14.193 0z" fill="#33B550"/><path fill-rule="evenodd" clip-rule="evenodd" d="M70.849 91.52c3.932 2.28 10.288 2.276 14.193 0 3.905-2.275 3.885-5.965-.047-8.244C81.062 81 74.706 81 70.8 83.276c-3.904 2.275-3.884 5.969.048 8.244zm32.303-.39c-2.986 1.744-2.97 4.564.036 6.307l-7.905 4.607c-3.01-1.739-7.865-1.739-10.85 0l-31.741-18.38c2.99-1.739 2.97-4.562-.036-6.302l7.905-4.606c3.005 1.74 7.864 1.743 10.854 0l31.737 18.375z" fill="#4FCD6B"/><path fill-rule="evenodd" clip-rule="evenodd" d="M95.283 102.044l7.905-4.607c-3.006-1.743-3.022-4.563-.036-6.306L71.415 72.756c-2.99 1.743-7.849 1.74-10.854 0l-7.905 4.606c3.006 1.74 3.026 4.564.036 6.307l31.74 18.375c2.986-1.739 7.841-1.739 10.851 0zM65.954 66.695l47.649 27.59-23.713 13.819-47.65-27.588 23.714-13.82z" fill="#33B550"/><path fill-rule="evenodd" clip-rule="evenodd" d="M93.046 82.37L69.332 96.19l-7.259-4.205 23.714-13.816 7.259 4.201z" fill="#ECBD7A"/><path fill-rule="evenodd" clip-rule="evenodd" d="M69.313 96.195l-.036 6.739-7.26-4.206.036-6.735 7.26 4.202z" fill="#AE7836"/><path fill-rule="evenodd" clip-rule="evenodd" d="M65.954 59.59L42.241 73.41l-.036 6.736 47.653 27.589 23.713-13.82.032-6.736-47.649-27.588z" fill="#137A2A"/><path fill-rule="evenodd" clip-rule="evenodd" d="M84.995 76.175c3.932 2.276 3.952 5.965.047 8.245-3.904 2.275-10.26 2.275-14.193 0-3.932-2.28-3.952-5.97-.047-8.245 3.904-2.276 10.26-2.276 14.193 0z" fill="#33B550"/><path fill-rule="evenodd" clip-rule="evenodd" d="M70.849 84.42c3.932 2.275 10.288 2.275 14.193 0 3.905-2.28 3.885-5.97-.047-8.245-3.933-2.276-10.289-2.276-14.194 0-3.904 2.276-3.884 5.965.048 8.245zm32.303-.39c-2.986 1.74-2.97 4.56.036 6.303l-7.905 4.606c-3.01-1.739-7.865-1.739-10.85 0L52.691 76.564c2.99-1.743 2.97-4.563-.036-6.306l7.905-4.607c3.005 1.743 7.864 1.743 10.854 0l31.737 18.38z" fill="#4FCD6B"/><path fill-rule="evenodd" clip-rule="evenodd" d="M95.283 94.94l7.905-4.607c-3.006-1.744-3.022-4.563-.036-6.303L71.415 65.65c-2.99 1.744-7.849 1.744-10.854 0l-7.905 4.608c3.006 1.743 3.026 4.563.036 6.306l31.74 18.376c2.986-1.74 7.841-1.74 10.851 0zM65.954 59.59l47.649 27.59L89.89 101 42.24 73.41l23.714-13.82z" fill="#33B550"/><path fill-rule="evenodd" clip-rule="evenodd" d="M93.046 75.266l-23.714 13.82-7.259-4.202 23.714-13.82 7.259 4.202z" fill="#ECBD7A"/><path fill-rule="evenodd" clip-rule="evenodd" d="M69.313 89.094l-.036 6.735-7.26-4.201.036-6.74 7.26 4.206z" fill="#AE7836"/><path fill-rule="evenodd" clip-rule="evenodd" d="M89.89 101v6.735l23.681-13.82v-6.736L89.89 101z" fill="#1D9F3A"/><path fill-rule="evenodd" clip-rule="evenodd" d="M67.134 51.303l-23.713 13.82-.036 6.735 47.653 27.589 23.713-13.82.032-6.736-47.649-27.588z" fill="#137A2A"/><path fill-rule="evenodd" clip-rule="evenodd" d="M86.175 67.887c3.932 2.275 3.952 5.969.047 8.244-3.904 2.276-10.26 2.276-14.193 0-3.932-2.275-3.952-5.969-.047-8.244 3.908-2.276 10.264-2.276 14.193 0z" fill="#33B550"/><path fill-rule="evenodd" clip-rule="evenodd" d="M72.03 76.131c3.932 2.276 10.288 2.276 14.192 0 3.905-2.275 3.885-5.969-.047-8.244-3.929-2.276-10.285-2.276-14.193 0-3.905 2.275-3.885 5.969.047 8.244zm32.306-.389c-2.99 1.74-2.974 4.563.032 6.303l-7.905 4.606c-3.005-1.74-7.865-1.74-10.85 0L53.871 68.276c2.99-1.743 2.97-4.563-.036-6.302l7.905-4.607c3.005 1.74 7.865 1.74 10.855 0l31.74 18.375z" fill="#4FCD6B"/><path fill-rule="evenodd" clip-rule="evenodd" d="M96.463 86.651l7.905-4.606c-3.006-1.74-3.022-4.564-.032-6.303l-31.74-18.375c-2.99 1.74-7.85 1.74-10.855 0l-7.905 4.607c3.006 1.739 3.026 4.559.036 6.302l31.74 18.375c2.986-1.74 7.846-1.74 10.851 0zM67.134 51.303l47.649 27.588-23.713 13.82-47.65-27.587 23.713-13.82z" fill="#33B550"/><path fill-rule="evenodd" clip-rule="evenodd" d="M94.226 66.977l-23.714 13.82-7.258-4.201 23.713-13.82 7.259 4.201z" fill="#ECBD7A"/><path fill-rule="evenodd" clip-rule="evenodd" d="M70.493 80.805l-.036 6.736-7.259-4.202.036-6.735 7.259 4.201z" fill="#AE7836"/><path fill-rule="evenodd" clip-rule="evenodd" d="M91.07 92.712v6.735l23.681-13.82V78.89L91.07 92.711z" fill="#1D9F3A"/><path fill-rule="evenodd" clip-rule="evenodd" d="M68.314 43.809l-23.713 13.82-.032 6.735 47.65 27.586 23.713-13.816.032-6.736L68.315 43.81z" fill="#137A2A"/><path fill-rule="evenodd" clip-rule="evenodd" d="M87.355 60.389c3.932 2.275 3.952 5.969.047 8.244-3.904 2.276-10.26 2.276-14.193 0-3.928-2.275-3.952-5.968-.043-8.244 3.904-2.276 10.26-2.276 14.189 0z" fill="#33B550"/><path fill-rule="evenodd" clip-rule="evenodd" d="M73.21 68.633c3.932 2.276 10.288 2.276 14.193 0 3.904-2.275 3.884-5.968-.048-8.244-3.928-2.276-10.285-2.276-14.19 0-3.908 2.275-3.884 5.969.044 8.244zm32.306-.389c-2.986 1.74-2.97 4.563.032 6.303l-7.904 4.606c-3.006-1.739-7.865-1.739-10.851.004L55.052 60.778c2.99-1.74 2.97-4.563-.036-6.302l7.905-4.607c3.006 1.74 7.865 1.74 10.855 0l31.74 18.375z" fill="#4FCD6B"/><path fill-rule="evenodd" clip-rule="evenodd" d="M97.643 79.153l7.905-4.606c-3.002-1.74-3.018-4.563-.032-6.303L73.776 49.87c-2.99 1.74-7.85 1.74-10.855 0l-7.905 4.607c3.006 1.74 3.026 4.563.036 6.302l31.74 18.38c2.987-1.744 7.846-1.744 10.851-.005zM68.314 43.81l47.649 27.588L92.25 85.214 44.6 57.629l23.713-13.82z" fill="#33B550"/><path fill-rule="evenodd" clip-rule="evenodd" d="M95.406 59.483L71.696 73.3l-7.258-4.202 23.709-13.82 7.259 4.206z" fill="#ECBD7A"/><path fill-rule="evenodd" clip-rule="evenodd" d="M71.673 73.308l-.032 6.735-7.259-4.202.032-6.735 7.259 4.202z" fill="#AE7836"/><path fill-rule="evenodd" clip-rule="evenodd" d="M92.25 85.214v6.735l23.681-13.816v-6.736L92.25 85.214z" fill="#1D9F3A"/><path fill-rule="evenodd" clip-rule="evenodd" d="M65.954 36.31L42.241 50.132l-.036 6.735 47.653 27.59 23.713-13.821.032-6.735-47.649-27.59z" fill="#137A2A"/><path fill-rule="evenodd" clip-rule="evenodd" d="M84.995 52.891c3.932 2.28 3.952 5.969.047 8.245-3.904 2.275-10.26 2.28-14.193 0-3.932-2.276-3.952-5.97-.047-8.245 3.904-2.276 10.26-2.276 14.193 0z" fill="#33B550"/><path fill-rule="evenodd" clip-rule="evenodd" d="M70.849 61.136c3.932 2.28 10.288 2.275 14.193 0 3.905-2.276 3.885-5.965-.047-8.245-3.933-2.276-10.289-2.276-14.194 0-3.904 2.276-3.884 5.969.048 8.245zm32.303-.39c-2.986 1.744-2.97 4.563.036 6.307l-7.905 4.607c-3.01-1.74-7.865-1.74-10.85 0L52.691 53.28c2.99-1.74 2.97-4.563-.036-6.302l7.905-4.607c3.005 1.74 7.864 1.743 10.854 0l31.737 18.375z" fill="#4FCD6B"/><path fill-rule="evenodd" clip-rule="evenodd" d="M95.283 71.66l7.905-4.607c-3.006-1.743-3.022-4.563-.036-6.307L71.415 42.371c-2.99 1.743-7.849 1.74-10.854 0l-7.905 4.607c3.006 1.74 3.026 4.563.036 6.302l31.74 18.38c2.986-1.74 7.841-1.74 10.851 0zM65.954 36.31l47.649 27.59L89.89 77.72 42.24 50.13l23.714-13.82z" fill="#33B550"/><path fill-rule="evenodd" clip-rule="evenodd" d="M93.046 51.986l-23.714 13.82-7.259-4.206 23.714-13.816 7.259 4.202z" fill="#ECBD7A"/><path fill-rule="evenodd" clip-rule="evenodd" d="M69.313 65.81l-.036 6.74-7.26-4.206.036-6.736 7.26 4.202z" fill="#AE7836"/><path fill-rule="evenodd" clip-rule="evenodd" d="M89.89 77.72v6.735l23.681-13.82V63.9L89.89 77.72z" fill="#1D9F3A"/><path fill-rule="evenodd" clip-rule="evenodd" d="M57.666 98.522c3.932 2.275 3.952 5.965.043 8.244-3.905 2.276-10.257 2.276-14.189 0-3.932-2.279-3.952-5.969-.048-8.244 3.905-2.276 10.261-2.276 14.194 0z" fill="#33B550"/><path fill-rule="evenodd" clip-rule="evenodd" d="M43.52 106.766c3.932 2.276 10.284 2.276 14.19 0 3.908-2.279 3.888-5.969-.044-8.244-3.933-2.276-10.289-2.276-14.194 0-3.904 2.275-3.884 5.965.048 8.244zm32.303-.389c-2.986 1.739-2.97 4.559.032 6.302l-7.905 4.607c-3.005-1.739-7.865-1.739-10.85 0L25.362 98.911c2.986-1.743 2.97-4.563-.036-6.307l7.904-4.606c3.006 1.743 7.865 1.743 10.851 0l31.741 18.379z" fill="#4FCD6B"/><path fill-rule="evenodd" clip-rule="evenodd" d="M40.688 73.947l-23.713 13.82-.032 6.736 47.649 27.588 23.713-13.82.032-6.735-47.649-27.589z" fill="#137A2A"/><path fill-rule="evenodd" clip-rule="evenodd" d="M59.729 90.527c3.932 2.28 3.952 5.97.047 8.245-3.904 2.275-10.26 2.279-14.193 0-3.928-2.276-3.952-5.97-.043-8.245 3.904-2.275 10.26-2.275 14.189 0z" fill="#33B550"/><path fill-rule="evenodd" clip-rule="evenodd" d="M45.583 98.772c3.933 2.279 10.289 2.275 14.194 0 3.904-2.276 3.884-5.965-.048-8.245-3.928-2.275-10.285-2.275-14.19 0-3.908 2.276-3.884 5.97.044 8.245zm32.307-.39c-2.986 1.744-2.97 4.564.032 6.307l-7.905 4.607c-3.005-1.74-7.864-1.74-10.85 0l-31.741-18.38c2.99-1.739 2.97-4.563-.032-6.302l7.9-4.607c3.007 1.74 7.866 1.744 10.856 0l31.74 18.376z" fill="#4FCD6B"/><path fill-rule="evenodd" clip-rule="evenodd" d="M70.017 109.296l7.905-4.607c-3.002-1.743-3.018-4.563-.032-6.306L46.15 80.007c-2.99 1.744-7.85 1.74-10.855 0l-7.9 4.607c3.001 1.74 3.02 4.563.031 6.302l31.74 18.38c2.987-1.74 7.846-1.74 10.851 0zM40.69 73.947l47.648 27.589-23.713 13.82-47.649-27.589 23.713-13.82z" fill="#33B550"/><path fill-rule="evenodd" clip-rule="evenodd" d="M67.78 89.622l-23.71 13.82-7.258-4.205L60.525 85.42l7.255 4.202z" fill="#ECBD7A"/><path fill-rule="evenodd" clip-rule="evenodd" d="M44.047 103.446l-.032 6.739-7.259-4.205.032-6.736 7.259 4.202z" fill="#AE7836"/><path fill-rule="evenodd" clip-rule="evenodd" d="M64.624 115.356v6.735l23.681-13.82v-6.735l-23.681 13.82z" fill="#1D9F3A"/><path fill-rule="evenodd" clip-rule="evenodd" d="M39.805 66.549l-23.713 13.82-.036 6.735 47.649 27.589 23.713-13.82.036-6.736L39.805 66.55z" fill="#137A2A"/><path fill-rule="evenodd" clip-rule="evenodd" d="M58.846 83.129c3.932 2.275 3.952 5.969.043 8.244-3.904 2.276-10.256 2.276-14.189 0-3.932-2.275-3.952-5.969-.047-8.244 3.904-2.276 10.26-2.276 14.193 0z" fill="#33B550"/><path fill-rule="evenodd" clip-rule="evenodd" d="M44.7 91.373c3.933 2.276 10.285 2.276 14.19 0 3.908-2.275 3.888-5.969-.044-8.244-3.933-2.276-10.289-2.276-14.193 0-3.905 2.275-3.885 5.969.047 8.244zm32.303-.389c-2.986 1.74-2.97 4.563.036 6.303l-7.905 4.606c-3.01-1.739-7.865-1.739-10.85 0L26.542 83.518c2.986-1.74 2.97-4.563-.036-6.303l7.905-4.606c3.005 1.74 7.864 1.74 10.85 0l31.741 18.375z" fill="#4FCD6B"/><path fill-rule="evenodd" clip-rule="evenodd" d="M69.134 101.893l7.905-4.606c-3.006-1.74-3.022-4.564-.036-6.303L45.263 72.61c-2.986 1.74-7.846 1.74-10.851 0l-7.905 4.607c3.006 1.739 3.022 4.563.036 6.302l31.74 18.379c2.986-1.743 7.842-1.743 10.851-.004zM39.805 66.549l47.649 27.588-23.713 13.817-47.649-27.585 23.713-13.82z" fill="#33B550"/><path fill-rule="evenodd" clip-rule="evenodd" d="M66.897 82.223L43.183 96.04l-7.259-4.202 23.714-13.82 7.259 4.205z" fill="#ECBD7A"/><path fill-rule="evenodd" clip-rule="evenodd" d="M43.164 96.047l-.036 6.736-7.259-4.202.036-6.735 7.259 4.201z" fill="#AE7836"/><path fill-rule="evenodd" clip-rule="evenodd" d="M63.74 107.954v6.739l23.678-13.82v-6.736l-23.677 13.817z" fill="#1D9F3A"/></svg>