<svg width="20" height="20" fill="none" xmlns="http://www.w3.org/2000/svg"><path d="M8.992 13.575a.83.83 0 001.175 0l2.991-2.992a.829.829 0 000-1.175l-2.991-2.991a.83.83 0 00-1.175 1.175l1.566 1.575H3.333A.836.836 0 002.5 10c0 .458.375.833.833.833h7.225L8.992 12.4a.838.838 0 000 1.175zM15.833 2.5H4.167A1.667 1.667 0 002.5 4.167v2.5c0 .458.375.833.833.833a.836.836 0 00.834-.833V5c0-.458.375-.833.833-.833h10c.458 0 .833.375.833.833v10a.836.836 0 01-.833.833H5A.836.836 0 014.167 15v-1.667a.836.836 0 00-.834-.833.836.836 0 00-.833.833v2.5c0 .917.75 1.667 1.667 1.667h11.666c.917 0 1.667-.75 1.667-1.667V4.167c0-.917-.75-1.667-1.667-1.667z" fill="#fff"/></svg>