<svg width="22" height="22" fill="none" xmlns="http://www.w3.org/2000/svg"><path fill-rule="evenodd" clip-rule="evenodd" d="M11 3.5a7.5 7.5 0 100 15 7.5 7.5 0 000-15zM2 11a9 9 0 1118 0 9 9 0 01-18 0z" fill="#090909"/><path fill-rule="evenodd" clip-rule="evenodd" d="M9.093 5.471C8.48 6.847 8.083 8.801 8.083 11c0 2.198.398 4.152 1.01 5.529.306.69.651 1.2.997 1.53.342.325.648.441.91.441s.569-.116.91-.442c.346-.328.691-.84.998-1.529.611-1.377 1.009-3.33 1.009-5.529 0-2.198-.398-4.153-1.01-5.529-.306-.69-.651-1.2-.997-1.53-.341-.325-.648-.441-.91-.441s-.568.116-.91.442c-.346.328-.69.84-.997 1.529zm-.037-2.616C9.592 2.345 10.25 2 11 2s1.409.345 1.944.855c.532.506.977 1.203 1.334 2.007.715 1.61 1.139 3.78 1.139 6.138s-.424 4.529-1.139 6.138c-.357.804-.802 1.5-1.334 2.007-.535.51-1.194.855-1.944.855s-1.408-.345-1.944-.855c-.532-.506-.977-1.203-1.334-2.007-.715-1.61-1.139-3.78-1.139-6.138s.424-4.529 1.14-6.138c.356-.804.801-1.5 1.333-2.007z" fill="#090909"/><path fill-rule="evenodd" clip-rule="evenodd" d="M11.145 14.5c-3.033 0-5.615.712-7.054 1.701l-.85-1.236C5.019 13.745 7.936 13 11.146 13c3.03 0 5.788.662 7.579 1.755l-.782 1.28c-1.483-.905-3.944-1.535-6.797-1.535zM11.059 9c-3.176 0-6.062-.745-7.82-1.968l.856-1.231c1.42.987 3.968 1.699 6.964 1.699 2.92 0 5.42-.677 6.86-1.63l.828 1.252C16.98 8.29 14.159 9 11.059 9z" fill="#090909"/></svg>