<svg width="78" height="26" fill="none" xmlns="http://www.w3.org/2000/svg"><path d="M42.959 13h2.909l-4.027 4.887L46.63 23.4h-3.252l-4.318-5.04v5.04h-2.604V13h2.604v4.797L42.959 13zm10.605 10.4h-2.695L55.412 13h2.746l4.58 10.4h-2.681l-3.26-7.844-1.026 2.491-2.207 5.354zM75.546 13H78v10.4h-2.21l-5.524-6.46v6.46h-2.44V13h2.173l5.548 6.486V13zm-55.04 13H0L13.819 0 27.71 26h-7.204zm-9.658-6.074h5.807l-2.898-6.254-2.909 6.254zM41.76 8l-.008-3.36-1.648 2.768h-.584l-1.64-2.696V8h-1.216V2.4h1.072l2.096 3.48 2.064-3.48h1.064l.016 5.6H41.76zm6.633-1.2h-2.6L45.297 8h-1.328l2.496-5.6h1.28L50.249 8h-1.36l-.496-1.2zm-.408-.984l-.888-2.144-.888 2.144h1.776zM51.23 2.4h2.544c.608 0 1.144.117 1.608.352.469.23.832.555 1.088.976.261.421.392.912.392 1.472 0 .56-.131 1.05-.392 1.472a2.6 2.6 0 01-1.088.984c-.464.23-1 .344-1.608.344H51.23V2.4zm2.48 4.536c.56 0 1.005-.155 1.336-.464.336-.315.504-.739.504-1.272s-.168-.955-.504-1.264c-.331-.315-.776-.472-1.336-.472h-1.184v3.472h1.184zm8.865.024V8h-4.336V2.4h4.232v1.04h-2.944v1.216h2.6v1.008h-2.6V6.96h3.048zm8.209-1.872c.32.101.57.272.752.512.181.235.272.525.272.872 0 .49-.192.87-.576 1.136-.379.261-.933.392-1.664.392h-2.896V2.4h2.736c.683 0 1.205.13 1.568.392.368.261.552.616.552 1.064 0 .272-.067.515-.2.728-.128.213-.31.381-.544.504zM67.96 3.376v1.32h1.288c.32 0 .563-.056.728-.168a.56.56 0 00.248-.496c0-.219-.083-.381-.248-.488-.165-.112-.408-.168-.728-.168H67.96zm1.512 3.648c.341 0 .597-.056.768-.168.176-.112.264-.285.264-.52 0-.464-.344-.696-1.032-.696H67.96v1.384h1.512zm6.288-1.008V8h-1.296V6l-2.168-3.6h1.376l1.496 2.488L76.664 2.4h1.272L75.76 6.016z" fill="#fff"/></svg>