<svg width="19" height="19" fill="none" xmlns="http://www.w3.org/2000/svg"><path fill-rule="evenodd" clip-rule="evenodd" d="M4.824 6.362v1.625A1.625 1.625 0 003.2 9.612v4.063A1.625 1.625 0 004.824 15.3h8.125a1.625 1.625 0 001.625-1.625V9.612a1.625 1.625 0 00-1.625-1.625V6.362a4.062 4.062 0 10-8.125 0zm6.5 1.625V6.362a2.438 2.438 0 10-4.875 0v1.625h4.875zM5.808 12.61a1.03 1.03 0 100-2.061 1.03 1.03 0 000 2.06zm4.1-1.03a1.03 1.03 0 11-2.061 0 1.03 1.03 0 012.06 0zm2.218 1.03a1.03 1.03 0 100-2.061 1.03 1.03 0 000 2.06z" fill="#919191"/></svg>