<svg width="19" height="19" fill="none" xmlns="http://www.w3.org/2000/svg"><path d="M14.911 10.205c.029-.23.05-.46.05-.705 0-.245-.021-.475-.05-.705l1.518-1.188a.363.363 0 00.087-.46l-1.44-2.49a.362.362 0 00-.439-.159l-1.791.72a5.257 5.257 0 00-1.217-.705l-.273-1.907a.351.351 0 00-.353-.302H8.125a.35.35 0 00-.353.302L7.5 4.513c-.44.18-.842.424-1.216.705l-1.792-.72a.351.351 0 00-.44.159l-1.439 2.49a.355.355 0 00.087.46l1.518 1.188a5.65 5.65 0 00-.05.705c0 .237.021.475.05.705L2.7 11.393a.363.363 0 00-.087.46l1.44 2.49c.086.158.28.216.439.158l1.792-.72a5.26 5.26 0 001.216.706l.273 1.907a.35.35 0 00.353.302h2.878a.35.35 0 00.353-.302l.273-1.907a5.53 5.53 0 001.217-.705l1.791.72c.166.064.353 0 .44-.159l1.439-2.49a.363.363 0 00-.087-.46l-1.518-1.188zM9.564 12.02A2.521 2.521 0 017.045 9.5a2.521 2.521 0 012.52-2.518A2.521 2.521 0 0112.082 9.5a2.521 2.521 0 01-2.519 2.519z" fill="#919191"/></svg>