<svg width="839" height="642" fill="none" xmlns="http://www.w3.org/2000/svg"><path d="M496 428h-33.5L612 288.5l45 45L496 428z" fill="#483D4B" fill-opacity=".2"/><path d="M271.158 448.884L94.196 346.715c-2.87-1.657-2.87-4.344 0-6L607.59 44.307" stroke="#C4C4C4" stroke-width="7" stroke-linecap="round"/><path d="M5 532l63.741 36.801c2.87 1.657 7.523 1.657 10.393 0l145.492-84" stroke="url(#paint0_linear_521_44402)" stroke-width="7" stroke-linecap="round"/><path fill-rule="evenodd" clip-rule="evenodd" d="M373.425 569.953a2.96 2.96 0 01-4.009 1.206l-157.634-84.737a2.96 2.96 0 01-.081-5.169l154.673-89.548a2.96 2.96 0 112.966 5.124l-150.082 86.89 152.961 82.225a2.96 2.96 0 011.206 4.009z" fill="#C4C4C4"/><path d="M370 568l120.69 69.68c2.869 1.657 7.522 1.657 10.392 0L1478.51 73.362" stroke="#C4C4C4" stroke-width="7" stroke-linecap="round"/><path d="M403.75 338.207l-50.139 26.642v-31.638l50.139-23.497v28.493z" fill="#527CAE"/><path fill-rule="evenodd" clip-rule="evenodd" d="M626.763 268.033l-164.366 94.618v65.46l164.366-94.903v-65.175z" fill="#527CAE"/><path fill-rule="evenodd" clip-rule="evenodd" d="M626.763 329.206l-164.366 94.618v4.288l164.366-94.904v-4.002zM364.92 370.238l32.873 18.867v-37.733L364.92 332.22v38.018z" fill="#E0E7E3"/><path fill-rule="evenodd" clip-rule="evenodd" d="M363.778 331.648v39.448l1.429-.858v-37.732l-1.429-.858z" fill="#527CAE"/><path fill-rule="evenodd" clip-rule="evenodd" d="M365.206 343.368v1.144l32.588 18.866v-1.143l-32.588-18.867zm0 3.716v1.144l32.588 18.866v-1.143l-32.588-18.867zm0 3.716v1.144l32.588 18.866v-1.143L365.206 350.8zm0-14.578v1.143l32.588 18.581v-1.144l-32.588-18.58zm0 3.716v1.144l32.588 18.58v-1.143l-32.588-18.581zm0 14.578v1.144l32.588 18.866v-1.143l-32.588-18.867zm0 3.717v1.143l32.588 18.866v-1.143l-32.588-18.866zm0 3.716v1.143l32.588 18.867v-1.144l-32.588-18.866zm0 3.716v1.143l32.588 18.867v-1.144l-32.588-18.866z" fill="#A5AFA4"/><path fill-rule="evenodd" clip-rule="evenodd" d="M352.055 294.903l51.74 14.007 164.366-94.617L516.421 200l-164.366 94.903z" fill="#594D5D"/><path fill-rule="evenodd" clip-rule="evenodd" d="M403.796 308.91l164.366-94.618 58.6 49.453-164.366 94.904-58.6-49.739z" fill="#483D4B"/><path fill-rule="evenodd" clip-rule="evenodd" d="M352.056 294.903v4.002l51.739 15.151 58.6 48.595v-4.002l-58.6-49.739-51.739-14.007z" fill="#FEFEFE"/><path fill-rule="evenodd" clip-rule="evenodd" d="M626.763 264.031l-164.366 94.618v4.002l164.366-94.618v-4.002z" fill="#E0E7E3"/><path fill-rule="evenodd" clip-rule="evenodd" d="M407.513 306.909l-51.74-14.006 1.429-.858 51.74 14.007-1.429.857zm5.145-2.858l-51.739-14.293 1.715-.857 51.74 14.006-1.716 1.144zm5.433-3.144l-51.74-14.293 1.429-.858 51.74 14.293-1.429.858zm5.142-3.145l-51.739-14.007 1.715-.857 51.74 14.006-1.716.858zm5.432-3.145l-51.739-14.006 1.429-.858 51.74 14.007-1.43.857zm5.432-2.858l-51.739-14.293 1.429-.857 51.739 14.293-1.429.857zm5.146-3.144l-51.74-14.293 1.43-.857 51.739 14.292-1.429.858zm5.432-3.145l-51.739-14.006 1.429-.858 51.739 14.007-1.429.857zm5.143-3.144l-51.74-14.007 1.715-.858 51.74 14.007-1.715.858zm5.432-2.859l-51.74-14.293 1.43-.857 51.739 14.293-1.429.857zm5.146-3.144l-51.74-14.007 1.715-1.143 51.74 14.292-1.715.858zm5.431-3.144l-51.739-14.007 1.429-.858 51.74 14.007-1.43.858zm5.432-2.859l-52.025-14.293 1.715-.857 51.74 14.292-1.43.858zm5.143-3.144l-51.739-14.293 1.429-.857 51.74 14.292-1.43.858zm5.432-3.145l-51.739-14.007 1.429-.857 51.74 14.007-1.43.857zm5.146-3.144l-51.74-14.007 1.43-.858 52.025 14.007-1.715.858zm5.432-2.859l-51.74-14.292 1.43-.858 51.739 14.293-1.429.857zm5.146-3.144l-51.74-14.293 1.715-.857 51.74 14.292-1.715.858zm5.429-3.144l-51.74-14.007 1.429-.858 51.74 14.007-1.429.858zm5.431-3.145l-52.025-14.007 1.715-.857 51.74 14.007-1.43.857zm5.147-2.859l-51.74-14.292 1.429-.858 51.74 14.293-1.429.857zm5.431-3.144l-51.739-14.007 1.429-1.143 51.74 14.293-1.43.857zm5.146-3.144l-51.739-14.007 1.429-.858 51.74 14.007-1.43.858zm5.429-2.859l-51.739-14.292 1.429-.858L531 235.732l-1.429.857zm5.146-3.144l-51.739-14.293 1.429-.857 51.739 14.292-1.429.858zm5.432-3.144l-51.739-14.007 1.429-.858 51.739 14.007-1.429.858zm5.146-3.145l-51.74-14.006 1.715-.858 51.74 14.007-1.715.857zm5.432-2.858l-51.74-14.293 1.43-.858 51.739 14.293-1.429.858zm5.428-3.145L504.13 206.86l1.715-.857 51.74 14.293-1.43.857zm5.147-3.144l-51.74-14.007 1.429-.858 51.74 14.007-1.429.858zm5.432-2.859l-51.74-14.292 1.429-.858 51.74 14.293-1.429.857z" fill="#483D4B"/><path fill-rule="evenodd" clip-rule="evenodd" d="M407.511 306.909l58.6 49.739 1.43-.858-58.601-49.738-1.429.857zm5.146-2.858l58.6 49.453 1.715-.858-58.6-49.453-1.715.858zm5.432-3.145l58.6 49.739 1.429-.858-58.6-49.738-1.429.857zm5.432-3.144l58.6 49.739 1.429-.858-58.6-49.738-1.429.857zm5.146-3.144l58.6 49.738 1.429-.857-58.6-49.739-1.429.858zm5.429-2.859l58.6 49.453 1.429-.858-58.6-49.453-1.429.858zm5.145-3.144l58.6 49.738 1.716-.857-58.886-49.739-1.43.858zm5.432-3.144l58.6 49.738 1.43-.857-58.6-49.739-1.43.858zm5.146-3.145l58.6 49.739 1.715-.858-58.6-49.738-1.715.857zm5.432-2.859l58.6 49.739 1.429-.858-58.6-49.738-1.429.857zm5.146-3.144l58.886 49.738 1.429-.857-58.6-49.739-1.715.858zm5.429-3.144l58.6 49.738 1.429-.857-58.6-49.739-1.429.858zm5.432-2.859l58.6 49.453 1.429-.858-58.6-49.452-1.429.857zm5.146-3.144l58.6 49.738 1.429-.857-58.6-49.739-1.429.858zm5.431-3.144l58.6 49.738 1.43-.857-58.6-49.739-1.43.858zm5.146-3.145l58.6 49.739 1.716-.858-58.6-49.739-1.716.858zm5.43-2.858l58.6 49.738 1.429-.857-58.6-49.739-1.429.858zm5.145-3.145l58.886 49.739 1.429-.858-58.6-49.739-1.715.858zm5.432-3.144l58.6 49.738 1.43-.857-58.6-49.739-1.43.858zm5.432-3.145l58.6 49.739 1.429-.858-58.6-49.738-1.429.857zm5.143-2.858l58.6 49.738 1.429-.857-58.6-49.739-1.429.858zm5.432-3.145l58.6 49.739 1.429-.858-58.6-49.738-1.429.857zm5.146-3.144l58.6 49.738 1.429-.857-58.6-49.739-1.429.858zm5.432-2.859l58.6 49.739 1.429-.858-58.6-49.738-1.429.857zm5.145-3.144l58.6 49.739 1.715-.858-58.885-49.739-1.43.858zm5.429-3.145l58.6 49.739 1.43-.858-58.6-49.738-1.43.857zm5.146-3.144l58.6 49.739 1.715-.858-58.6-49.738-1.715.857zm5.432-2.858l58.6 49.738 1.429-.857-58.6-49.739-1.429.858zm5.432-3.145l58.6 49.739 1.43-.858-58.601-49.738-1.429.857zm5.146-3.144l58.6 49.738 1.429-.857-58.6-49.739-1.429.858zm5.429-2.859l58.6 49.453 1.429-.858-58.6-49.453-1.429.858z" fill="#3E363E"/><path fill-rule="evenodd" clip-rule="evenodd" d="M475.259 366.081l30.586-17.723v10.863l-30.586 17.723v-10.863z" fill="#FEFEFE"/><path fill-rule="evenodd" clip-rule="evenodd" d="M491.555 357.791l13.435-7.718v7.432l-13.435 8.004v-7.718z" fill="#594D5D"/><path fill-rule="evenodd" clip-rule="evenodd" d="M491.555 364.652l11.72-6.86 1.715.857-13.435 7.718v-1.715z" fill="#E0E7E3"/><path fill-rule="evenodd" clip-rule="evenodd" d="M503.274 350.931l1.716-.858v8.576l-1.716-.858v-6.86z" fill="#BBC3BC"/><path fill-rule="evenodd" clip-rule="evenodd" d="M476.404 366.653l13.435-8.004v7.718l-13.435 7.718v-7.432z" fill="#594D5D"/><path fill-rule="evenodd" clip-rule="evenodd" d="M476.404 373.227l11.72-6.86 1.715.858-13.435 8.003v-2.001z" fill="#E0E7E3"/><path fill-rule="evenodd" clip-rule="evenodd" d="M488.123 359.792l1.715-1.143v8.576l-1.715-.858v-6.575z" fill="#BBC3BC"/><path fill-rule="evenodd" clip-rule="evenodd" d="M587.601 301.192l30.586-17.723v10.863l-30.586 17.723v-10.863z" fill="#FEFEFE"/><path fill-rule="evenodd" clip-rule="evenodd" d="M603.894 292.903l13.435-7.718v7.432l-13.435 8.004v-7.718z" fill="#594D5D"/><path fill-rule="evenodd" clip-rule="evenodd" d="M603.894 299.477l11.72-6.574 1.715.857-13.435 7.718v-2.001z" fill="#E0E7E3"/><path fill-rule="evenodd" clip-rule="evenodd" d="M615.614 286.042l1.715-.857v8.575l-1.715-.857v-6.861z" fill="#BBC3BC"/><path fill-rule="evenodd" clip-rule="evenodd" d="M588.743 301.764l13.435-8.004v7.718l-13.435 7.718v-7.432z" fill="#594D5D"/><path fill-rule="evenodd" clip-rule="evenodd" d="M588.743 308.339l11.72-6.861 1.715.858-13.435 8.003v-2z" fill="#E0E7E3"/><path fill-rule="evenodd" clip-rule="evenodd" d="M600.462 294.904l1.716-1.144v8.576l-1.716-.858v-6.574z" fill="#BBC3BC"/><path fill-rule="evenodd" clip-rule="evenodd" d="M550.725 322.631l30.872-17.723v10.863l-30.872 17.723v-10.863z" fill="#FEFEFE"/><path fill-rule="evenodd" clip-rule="evenodd" d="M567.018 314.341l13.721-7.718v7.433l-13.721 8.004v-7.719z" fill="#594D5D"/><path fill-rule="evenodd" clip-rule="evenodd" d="M567.018 320.916l11.72-6.574 2.001.857-13.721 7.718v-2.001z" fill="#E0E7E3"/><path fill-rule="evenodd" clip-rule="evenodd" d="M578.738 307.481l2.001-.858v8.576l-2.001-.858v-6.86z" fill="#BBC3BC"/><path fill-rule="evenodd" clip-rule="evenodd" d="M551.87 323.203l13.435-8.004v7.718l-13.435 7.718v-7.432z" fill="#594D5D"/><path fill-rule="evenodd" clip-rule="evenodd" d="M551.87 329.778l11.72-6.861 1.715.858-13.435 8.004v-2.001z" fill="#E0E7E3"/><path fill-rule="evenodd" clip-rule="evenodd" d="M563.589 316.343l1.715-1.144v8.576l-1.715-.858v-6.574z" fill="#BBC3BC"/><path fill-rule="evenodd" clip-rule="evenodd" d="M352.056 364.08v-65.174l51.168 10.576 59.171 53.169v65.46l-64.603-37.732v-1.43l-.111-.064.112.064v-37.732l-32.873-19.152v38.018l.146.084-1.29.774-11.72-6.861z" fill="#799FCD"/><path fill-rule="evenodd" clip-rule="evenodd" d="M397.792 386.377v4.002l64.603 37.732v-4.287l-64.603-37.447zm-34.016-19.438l-11.72-6.861v4.002l11.72 6.861v-4.002z" fill="#FEFEFE"/><path fill-rule="evenodd" clip-rule="evenodd" d="M423.806 401.527l-10.576-6.003v-7.146l10.576 6.003v7.146z" fill="#2C85C6"/><path fill-rule="evenodd" clip-rule="evenodd" d="M423.806 403.528l-10.576-6.003v-2.001l10.576 6.003v2.001z" fill="#97C0E5"/><path fill-rule="evenodd" clip-rule="evenodd" d="M407.511 383.519v9.147l10.577 6.289v-9.434l-10.577-6.002z" fill="#E0E7E3"/><path fill-rule="evenodd" clip-rule="evenodd" d="M418.089 389.521v9.433l5.717-3.43v-9.147l-5.717 3.144z" fill="#BBC3BC"/><path fill-rule="evenodd" clip-rule="evenodd" d="M407.511 383.518l10.577 6.003 5.717-3.144-10.576-6.003-5.718 3.144z" fill="#FEFEFE"/><path fill-rule="evenodd" clip-rule="evenodd" d="M411.802 391.522c0 1.715 1.143 3.716 2.572 4.288 1.429.572 2.573-.572 2.573-2.287-.286-2.001-1.429-4.002-2.859-4.573-1.429-.572-2.286.571-2.286 2.572z" fill="#594D5D"/><path fill-rule="evenodd" clip-rule="evenodd" d="M412.657 391.808c0 1.143.858 2.287 1.715 2.859.858.285 1.715-.286 1.43-1.716 0-1.143-.572-2.286-1.716-2.858-.857-.286-1.429.572-1.429 1.715z" fill="#76687B"/><path fill-rule="evenodd" clip-rule="evenodd" d="M435.812 408.388l-10.577-6.003v-7.146l10.577 6.002v7.147z" fill="#2C85C6"/><path fill-rule="evenodd" clip-rule="evenodd" d="M435.812 410.389l-10.577-6.003v-2.001l10.577 6.003v2.001z" fill="#97C0E5"/><path fill-rule="evenodd" clip-rule="evenodd" d="M419.517 390.665v9.147l10.577 6.003v-9.147l-10.577-6.003z" fill="#E0E7E3"/><path fill-rule="evenodd" clip-rule="evenodd" d="M430.095 396.667v9.148l5.717-3.145v-9.147l-5.717 3.144z" fill="#BBC3BC"/><path fill-rule="evenodd" clip-rule="evenodd" d="M419.517 390.665l10.577 6.003 5.717-3.145-10.862-6.289-5.432 3.431z" fill="#FEFEFE"/><path fill-rule="evenodd" clip-rule="evenodd" d="M423.807 398.383c0 1.715 1.144 3.716 2.573 4.287 1.429.572 2.573-.571 2.287-2.286 0-1.716-1.144-3.717-2.573-4.288-1.429-.572-2.287.286-2.287 2.287z" fill="#594D5D"/><path fill-rule="evenodd" clip-rule="evenodd" d="M424.663 398.668c0 1.144.858 2.573 1.715 2.859.858.286 1.429-.286 1.429-1.429 0-1.144-.571-2.573-1.715-2.859-.857-.571-1.429.286-1.429 1.429z" fill="#76687B"/><path fill-rule="evenodd" clip-rule="evenodd" d="M447.532 415.248l-10.577-6.003v-6.86l10.577 6.003v6.86z" fill="#2C85C6"/><path fill-rule="evenodd" clip-rule="evenodd" d="M447.532 417.535l-10.577-6.003v-2.287l10.577 6.003v2.287z" fill="#97C0E5"/><path fill-rule="evenodd" clip-rule="evenodd" d="M431.24 397.525v9.147l10.576 6.289v-9.433l-10.576-6.003z" fill="#E0E7E3"/><path fill-rule="evenodd" clip-rule="evenodd" d="M441.815 403.528v9.433l5.717-3.43v-9.147l-5.717 3.144z" fill="#BBC3BC"/><path fill-rule="evenodd" clip-rule="evenodd" d="M431.24 397.525l10.576 6.003 5.717-3.144-10.576-6.003-5.717 3.144z" fill="#FEFEFE"/><path fill-rule="evenodd" clip-rule="evenodd" d="M435.527 405.243c0 2.001 1.429 4.002 2.573 4.574 1.429.572 2.572-.572 2.572-2.287 0-2.001-1.143-4.002-2.572-4.573-1.429-.572-2.573.571-2.573 2.286z" fill="#594D5D"/><path fill-rule="evenodd" clip-rule="evenodd" d="M436.383 405.815c0 1.144.857 2.287 1.715 2.859 1.143.286 1.715-.286 1.715-1.715 0-1.144-.858-2.287-1.715-2.859-.858-.286-1.715.286-1.715 1.715z" fill="#76687B"/><path fill-rule="evenodd" clip-rule="evenodd" d="M459.538 422.109l-10.577-6.003v-6.861l10.577 6.003v6.861z" fill="#2C85C6"/><path fill-rule="evenodd" clip-rule="evenodd" d="M459.538 424.395l-10.577-6.003v-2.286l10.577 6.003v2.286z" fill="#97C0E5"/><path fill-rule="evenodd" clip-rule="evenodd" d="M443.246 404.386v9.433l10.576 6.003v-9.148l-10.576-6.288z" fill="#E0E7E3"/><path fill-rule="evenodd" clip-rule="evenodd" d="M453.82 410.675v9.147l5.717-3.145v-9.433l-5.717 3.431z" fill="#BBC3BC"/><path fill-rule="evenodd" clip-rule="evenodd" d="M443.246 404.385l10.576 6.289 5.717-3.43-10.576-6.003-5.717 3.144z" fill="#FEFEFE"/><path fill-rule="evenodd" clip-rule="evenodd" d="M447.533 412.39c0 1.715 1.143 3.716 2.572 4.287 1.43.572 2.573-.571 2.573-2.286 0-2.001-1.143-3.717-2.573-4.288-1.429-.572-2.572.286-2.572 2.287z" fill="#594D5D"/><path fill-rule="evenodd" clip-rule="evenodd" d="M448.391 412.675c0 1.144.858 2.573 1.715 2.859.858.286 1.716-.286 1.716-1.429 0-1.43-.858-2.573-1.716-2.859-.857-.572-1.715.286-1.715 1.429z" fill="#76687B"/><path fill-rule="evenodd" clip-rule="evenodd" d="M449.82 366.081l-30.872-17.723v10.863l30.872 17.723v-10.863z" fill="#FEFEFE"/><path fill-rule="evenodd" clip-rule="evenodd" d="M433.524 357.791l-13.721-7.718v7.432l13.721 8.004v-7.718z" fill="#594D5D"/><path fill-rule="evenodd" clip-rule="evenodd" d="M433.524 364.652l-12.005-6.86-1.716.857 13.721 7.718v-1.715z" fill="#E0E7E3"/><path fill-rule="evenodd" clip-rule="evenodd" d="M421.519 350.931l-1.716-.858v8.576l1.716-.858v-6.86z" fill="#BBC3BC"/><path fill-rule="evenodd" clip-rule="evenodd" d="M448.676 366.653l-13.721-8.004v7.718l13.721 7.718v-7.432z" fill="#594D5D"/><path fill-rule="evenodd" clip-rule="evenodd" d="M448.676 373.227l-11.72-6.86-2.001.858 13.721 8.003v-2.001z" fill="#E0E7E3"/><path fill-rule="evenodd" clip-rule="evenodd" d="M436.956 359.792l-2.001-1.143v8.576l2.001-.858v-6.575z" fill="#BBC3BC"/><mask id="a" style="mask-type:alpha" maskUnits="userSpaceOnUse" x="171" y="333" width="227" height="184"><path fill-rule="evenodd" clip-rule="evenodd" d="M171 446.071l6.661 48.474 38.113 22.202 182.019-113.969v-49.989l-32.873-19.152L171 446.071z" fill="#E0E7E3"/></mask><g mask="url(#a)" fill-rule="evenodd" clip-rule="evenodd"><path opacity=".1" d="M212.227 510.707l-32.517-20.223 96.778-55.864 32.508 20.214-96.769 55.873z" fill="#000"/><path d="M284.594 423.149l27.752 21.104 2.056-1.191v-5.081l-27.744-16.023-2.064 1.191z" fill="#2C2A2A"/><path d="M284.594 428.239l27.752 16.014v-5.09l-27.752-16.014v5.09z" fill="#252422"/><path d="M236.432 485.166l-24.976-14.412v-6.923l25.73 13.906-.754 7.429z" fill="#2C2A2A"/><path d="M301.919 447.363l-65.487 37.803v-6.915l72.564-41.898-7.077 11.01z" fill="#252422"/><path d="M237.666 479.185l-27.744-16.022v-33.63l27.744 16.022v33.63z" fill="#C8C6C6"/><path d="M314.402 401.249l-76.736 44.306-27.744-16.022 76.737-44.306 27.743 16.022z" fill="#DBDADB"/><path d="M237.666 481.43l-27.744-16.023v-2.244l27.744 16.022v2.245z" fill="#403D3E"/><path d="M291.259 458.108l-4.806-2.777-.163-.762 3.324-.497 1.894 2.305-.249 1.731z" fill="#2C2A2A"/><path d="M285.562 455.443c2.853-1.637 5.141-.309 5.141 2.964 0 3.265-2.288 7.249-5.141 8.877-2.819 1.636-5.124.317-5.124-2.956s2.305-7.24 5.124-8.885z" fill="#433F3E"/><path d="M280.901 452.735c1.379-.797 2.63-.882 3.547-.386h.008l4.704 2.717c-.916-.506-2.185-.429-3.598.377-2.819 1.645-5.124 5.612-5.124 8.885 0 1.559.531 2.69 1.388 3.247l-4.661-2.69c-.874-.566-1.405-1.688-1.405-3.256 0-3.273 2.296-7.257 5.141-8.894z" fill="#54514F"/><path d="M285.356 455.323c1.388-.806 2.647-.883 3.564-.403l.24.146c-.917-.506-2.185-.429-3.599.377-2.819 1.645-5.123 5.612-5.123 8.885 0 1.559.531 2.69 1.388 3.247l-.189-.12s-1.397-.805-1.397-3.256c0-3.264 2.28-7.248 5.116-8.876z" fill="#605E5C"/><path d="M283.831 454.44c1.388-.797 2.647-.874 3.556-.385l.257.145c-.934-.522-2.202-.437-3.599.36-2.836 1.645-5.141 5.612-5.141 8.894 0 1.559.531 2.682 1.405 3.239h-.017l-.188-.112s-1.397-.805-1.397-3.256c0-3.273 2.296-7.24 5.124-8.885z" fill="#3B3937"/><path d="M282.263 453.532c1.371-.805 2.622-.891 3.547-.403l.248.146c-.916-.514-2.184-.437-3.598.386-2.828 1.636-5.115 5.603-5.115 8.876 0 1.577.522 2.691 1.388 3.248l-.206-.129s-1.414-.805-1.414-3.247c0-3.273 2.305-7.249 5.15-8.877z" fill="#3B3937"/><path d="M280.036 462.88l-.403-1.174.934-.883-.223-1.251 1.157-.685-.12-1.311 1.328-.403.137-1.251 1.371-.188.317-.908 1.662-.172.531-.471s1.2.308 1.543.42l.351.163.206.094a3.216 3.216 0 00-.532-.197 56.502 56.502 0 00-1.413-.394l-.54.488-1.654.163-.308.908-1.371.197-.12 1.225-1.32.395.095 1.319-1.149.668.249 1.234-.951.883.394 1.191-.686 1.045.635 1.002-.317.703.865.874.12.437-.154-.094-.06-.334-.909-.917.309-.694-.668-.977.694-1.105z" fill="#433F3E"/><path d="M278.382 461.92l-.403-1.165.943-.891-.223-1.251 1.148-.677-.12-1.319 1.328-.403.137-1.243 1.371-.188.317-.908 1.671-.189.514-.471s1.225.317 1.56.446l.351.145.214.112a2.136 2.136 0 00-.531-.206c-.291-.094-1.422-.394-1.422-.394l-.549.48-1.636.171-.317.891-1.38.214-.094 1.217-1.345.394.111 1.345-1.165.643.248 1.234-.951.882.386 1.183-.677 1.062.651 1.003-.317.702.857.866.12.436-.163-.085-.051-.334-.909-.917.309-.694-.677-.985.694-1.106z" fill="#433F3E"/><path d="M276.754 460.978l-.403-1.166.951-.891-.249-1.251 1.166-.676-.12-1.311 1.336-.403.138-1.242 1.353-.198.317-.899 1.671-.18.523-.489s1.225.317 1.551.437l.359.163v-.017l.198.129a2.152 2.152 0 00-.523-.223c-.3-.086-1.414-.394-1.414-.394l-.557.48-1.636.179-.309.892-1.379.205-.112 1.234-1.328.394.095 1.328-1.149.66.24 1.225-.942.891.394 1.183-.685 1.054.642 1.002-.317.685.857.892.128.419-.162-.085-.06-.326-.9-.917.3-.694-.668-.976.694-1.114z" fill="#433F3E"/><path d="M285.562 457.165c2.022-1.148 3.65-.223 3.65 2.099s-1.628 5.15-3.65 6.306c-1.997 1.148-3.624.215-3.624-2.099 0-2.322 1.627-5.141 3.624-6.306z" fill="#32302E"/><path d="M285.562 457.688c1.765-1.003 3.187-.18 3.187 1.842 0 2.022-1.422 4.49-3.187 5.509-1.757 1.011-3.162.189-3.162-1.842 0-2.013 1.405-4.49 3.162-5.509z" fill="#9D9896"/><path d="M286.693 460.712c0 .72-.505 1.594-1.131 1.954-.617.36-1.114.068-1.114-.643 0-.728.497-1.594 1.114-1.953.626-.36 1.131-.06 1.131.642z" fill="#797675"/><path d="M285.862 461.192c0 .188-.137.428-.3.514-.163.103-.291.026-.291-.163a.64.64 0 01.291-.514c.163-.094.3-.017.3.163z" fill="#605E5C"/><path d="M285.159 460.806l.068.026v.334l-.3.172-.051-.077.231-.18.052-.275z" fill="#5A5857"/><path d="M285.159 460.806l-.052.275-.231.18.051-.258.232-.197z" fill="#3B3937"/><path d="M285.168 461.963l.068.009v.351l-.3.154-.051-.068.24-.18.043-.266z" fill="#5A5857"/><path d="M285.168 461.963l-.043.266-.24.18.051-.266.232-.18z" fill="#3B3937"/><path d="M286.17 461.372l.06.008v.352l-.3.162-.043-.068.232-.197.051-.257z" fill="#5A5857"/><path d="M286.17 461.372l-.051.257-.232.197.043-.274.24-.18z" fill="#3B3937"/><path d="M286.17 460.224l.043.008v.352l-.283.171-.052-.077.232-.189.06-.265z" fill="#5A5857"/><path d="M286.17 460.224l-.06.265-.232.189.052-.266.24-.188z" fill="#3B3937"/><path d="M286.342 457.353l.334-.068c-.086.668-.54 1.396-1.114 1.722-.403.24-.746.188-.951-.077.188.06.428.034.677-.12.488-.283.899-.857 1.054-1.457z" fill="#605E5C"/><path d="M286.341 457.354c-.154.599-.565 1.173-1.054 1.456-.248.154-.488.18-.677.12l-.154-.351c.36-.36.711-.66 1.105-.891.275-.146.549-.266.78-.334z" fill="#3B3937"/><path d="M284.225 464.02h.025c.412.171.532.754.3 1.405-.582.12-1.088-.017-1.465-.352.326.189.728.24 1.191.163.172-.497.146-.959-.051-1.216z" fill="#605E5C"/><path d="M284.277 465.236c-.463.077-.866.026-1.191-.163l-.249-.257c.412-.582.96-.925 1.388-.797.198.257.223.72.052 1.217z" fill="#3B3937"/><path d="M283.214 460.558c.368.111.54.583.394 1.225-.18.694-.685 1.346-1.208 1.577v-.369c.411-.299.78-.831.917-1.413.12-.437.068-.797-.103-1.02z" fill="#605E5C"/><path d="M283.214 460.558c.171.223.223.582.103 1.019-.137.583-.506 1.114-.917 1.414.034-.797.291-1.653.685-2.459l.129.026z" fill="#3B3937"/><path d="M288.295 461.689c-.394.977-1.002 1.893-1.73 2.587l-.112-.368a7.74 7.74 0 001.491-2.236l.351.017z" fill="#605E5C"/><path d="M287.944 461.672a7.76 7.76 0 01-1.491 2.236c-.043-.394.094-.917.402-1.388.317-.48.729-.78 1.089-.848z" fill="#3B3937"/><path d="M288.466 459.324c0-.694-.162-1.242-.454-1.619l.052-.06c.42.385.685 1.028.685 1.885v.163c-.454.334-.891.342-1.122.034.231.068.531 0 .839-.232v-.171z" fill="#605E5C"/><path d="M288.467 459.324v.171c-.309.232-.609.3-.84.232l-.12-.206c-.171-.497.06-1.259.506-1.816.291.377.454.925.454 1.619z" fill="#3B3937"/><path d="M290.103 454.072l-4.824-2.768h-.008c-1.106-.788-2.708-.754-4.464.257-3.102 1.8-5.733 6.109-5.981 9.828l.111.266 5.073 2.93.677-2.759 1.542-3.282 2.467-2.861 2.674-1.5 2.733-.111z" fill="#C8C6C6"/><path d="M291.525 458.09c-.188.103-.351.034-.368-.18-.214-3.016-2.519-4.138-5.253-2.562-2.724 1.577-5.038 5.364-5.252 8.629-.017.239-.197.514-.394.608-.197.103-.351-.009-.334-.249.248-3.718 2.879-8.037 5.98-9.827 3.111-1.791 5.733-.514 5.981 2.913.017.223-.128.514-.334.651l-.026.017z" fill="#9D9C9E"/><path d="M314.402 434.887l-76.736 44.298v-33.63l76.736-44.306v33.638z" fill="#B2B1B3"/><path d="M314.402 437.124l-76.736 44.306v-2.245l76.736-44.297v2.236z" fill="#2C2A2A"/><path d="M193.626 467.087l2.065 1.191.36-.206-2.065-1.199-.36.214z" fill="#403D3E"/><path d="M195.69 473.453l.36-.206v-5.175l-.36.206v5.175z" fill="#252422"/><path d="M193.626 472.253l2.065 1.2v-5.175l-2.065-1.191v5.166z" fill="#2C2A2A"/><path d="M195.921 472.459l-.197.334.06.129.994.557.266-.472-.994-.557-.129.009z" fill="#32302E"/><path d="M196.915 473.025l-.188.334.188.111.189-.334-.189-.111z" fill="#272724"/><path d="M193.891 485.2l5.124-2.948-.574-.334-5.115 2.956.565.326z" fill="#C8C6C6"/><path d="M201.302 457.105c-4.969 2.87-6.82 14.429-6.82 16.117v15.011l22.551 13.024 1.037-2.408s-1.037-19.989 5.115-26.587l11.756-8.542-22.552-13.015s-9.433 5.44-11.087 6.4z" fill="#DBDADB"/><path d="M222.14 470.557l-21.378-12.347c-3.761 3.41-5.415 11.884-5.698 14.643l21.378 12.347c.283-2.759 1.936-11.242 5.698-14.643z" fill="#2C2A2A"/><path d="M216.305 483.367c-.034.214-.068.419-.094.616l-20.701-11.952c.489-3.299 2.065-10.051 5.193-13.281l.145.086c-2.87 3.367-4.326 9.691-4.798 12.835l20.255 11.696z" fill="#284968"/><path d="M221.403 470.703c-2.947 3.041-4.506 9.202-5.098 12.663l-20.255-11.695c.472-3.153 1.928-9.468 4.798-12.835l20.555 11.867z" fill="#527CAE"/><path d="M201.028 458.939c-2.964 2.802-4.524 10.41-4.944 12.749l1.286.746.471-.266c.42-.249 1.037-.848 1.362-1.345l3.59-5.381c.326-.497.943-1.097 1.363-1.337l2.022-1.174v-1.019l-5.15-2.973z" fill="#799FCD"/><path d="M232.885 480.196l-12.458 7.197v9.528l3.564-2.056 3.205-5.244 5.689-3.281v-6.144z" fill="#252422"/><path d="M228.378 488.439c2.853-1.646 5.149-.309 5.149 2.964s-2.296 7.266-5.149 8.894c-2.828 1.645-5.132.317-5.132-2.956 0-3.282 2.304-7.249 5.132-8.902z" fill="#433F3E"/><path d="M223.699 485.722c1.389-.788 2.639-.882 3.565-.385h.008l4.713 2.724c-.925-.514-2.194-.428-3.607.377-2.828 1.654-5.133 5.621-5.133 8.903 0 1.559.532 2.69 1.388 3.256l-4.669-2.708c-.874-.565-1.405-1.688-1.405-3.256 0-3.273 2.296-7.266 5.14-8.911z" fill="#54514F"/><path d="M228.163 488.319c1.388-.806 2.656-.891 3.582-.403l.24.146c-.926-.514-2.194-.429-3.607.377-2.828 1.653-5.133 5.62-5.133 8.902 0 1.559.531 2.69 1.388 3.256l-.197-.129s-1.396-.805-1.396-3.255c0-3.273 2.287-7.266 5.123-8.894z" fill="#605E5C"/><path d="M226.638 487.436c1.388-.797 2.648-.882 3.573-.394l.249.154c-.943-.531-2.202-.445-3.608.36-2.844 1.645-5.149 5.621-5.149 8.903 0 1.568.54 2.69 1.414 3.247h-.017l-.198-.103s-1.396-.814-1.396-3.273c0-3.273 2.296-7.249 5.132-8.894z" fill="#3B3937"/><path d="M225.07 486.519c1.371-.805 2.631-.882 3.556-.394l.249.137c-.917-.505-2.194-.437-3.599.386-2.845 1.645-5.132 5.621-5.132 8.894 0 1.585.522 2.69 1.388 3.256l-.206-.12s-1.414-.814-1.414-3.265c0-3.264 2.305-7.257 5.158-8.894z" fill="#3B3937"/><path d="M222.834 495.884l-.403-1.173.943-.892-.232-1.251 1.157-.676-.12-1.32 1.337-.403.137-1.251 1.371-.188.317-.908 1.671-.172.531-.479s1.199.308 1.542.428l.36.163.197.094a2.785 2.785 0 00-.531-.206c-.292-.085-1.414-.394-1.414-.394l-.54.497-1.653.163-.317.908-1.371.197-.12 1.226-1.328.394.102 1.328-1.156.668.248 1.234-.951.882.394 1.191-.677 1.054.634 1.003-.317.694.857.882.129.437-.154-.094-.06-.334-.909-.908.3-.703-.66-.977.686-1.114z" fill="#433F3E"/><path d="M221.18 494.925l-.402-1.166.951-.899-.232-1.243 1.157-.685-.128-1.311 1.336-.411.137-1.243 1.371-.188.317-.908 1.68-.189.514-.471s1.225.308 1.559.437l.351.146.215.12a2.077 2.077 0 00-.54-.206c-.283-.094-1.423-.394-1.423-.394l-.539.471-1.645.18-.317.891-1.38.214-.094 1.217-1.345.394.102 1.345-1.156.643.24 1.242-.943.883.377 1.182-.677 1.063.66 1.011-.326.702.857.874.129.429-.172-.086-.051-.334-.908-.917.308-.703-.677-.985.694-1.105z" fill="#433F3E"/><path d="M219.553 493.982l-.403-1.174.951-.882-.248-1.268 1.165-.668-.12-1.311 1.336-.403.138-1.243 1.362-.205.317-.9 1.671-.18.522-.488s1.226.325 1.56.445l.351.155v-.009l.206.12a2.847 2.847 0 00-.523-.223c-.308-.077-1.422-.385-1.422-.385l-.557.471-1.637.188-.308.892-1.388.205-.103 1.234-1.328.403.086 1.319-1.149.669.24 1.216-.951.891.403 1.191-.685 1.063.642 1.002-.325.686.865.891.129.42-.163-.086-.06-.326-.908-.917.299-.702-.659-.968.694-1.123z" fill="#433F3E"/><path d="M228.378 490.161c2.022-1.148 3.65-.223 3.65 2.108 0 2.321-1.628 5.158-3.65 6.314-2.005 1.148-3.633.214-3.633-2.108 0-2.313 1.628-5.14 3.633-6.314z" fill="#32302E"/><path d="M228.378 490.692c1.765-1.011 3.187-.188 3.187 1.842 0 2.022-1.422 4.498-3.187 5.518-1.756 1.011-3.17.18-3.17-1.842 0-2.022 1.414-4.498 3.17-5.518z" fill="#9D9896"/><path d="M229.509 493.717c0 .719-.506 1.593-1.131 1.953-.617.36-1.114.077-1.114-.643 0-.719.497-1.593 1.114-1.953.625-.36 1.131-.06 1.131.643z" fill="#797675"/><path d="M228.678 494.205c0 .18-.137.42-.3.506-.163.102-.292.034-.292-.163a.64.64 0 01.292-.514c.163-.095.3-.018.3.171z" fill="#605E5C"/><path d="M227.975 493.811l.06.025v.335l-.291.179-.06-.077.24-.188.051-.274z" fill="#5A5857"/><path d="M227.975 493.811l-.051.274-.24.188.06-.265.231-.197z" fill="#3B3937"/><path d="M227.984 494.967l.06.009v.351l-.291.163-.052-.077.232-.18.051-.266z" fill="#5A5857"/><path d="M227.984 494.967l-.051.266-.232.18.052-.257.231-.189z" fill="#3B3937"/><path d="M228.978 494.376l.068.009v.36l-.3.154-.042-.068.231-.189.043-.266z" fill="#5A5857"/><path d="M228.978 494.376l-.043.266-.231.189.042-.275.232-.18z" fill="#3B3937"/><path d="M228.978 493.228l.051.009v.351l-.291.171-.043-.077.223-.188.06-.266z" fill="#5A5857"/><path d="M228.978 493.228l-.06.266-.223.188.043-.265.24-.189z" fill="#3B3937"/><path d="M229.158 490.358l.334-.077c-.086.668-.54 1.405-1.114 1.731-.411.24-.754.188-.96-.077.189.06.429.025.686-.12.488-.292.9-.866 1.054-1.457z" fill="#605E5C"/><path d="M229.157 490.358c-.154.591-.574 1.165-1.053 1.456-.257.146-.497.18-.686.12l-.146-.359c.352-.36.712-.652 1.106-.883a3.67 3.67 0 01.779-.334z" fill="#3B3937"/><path d="M227.032 497.033h.035c.411.162.522.754.3 1.405-.583.111-1.097-.017-1.474-.352.325.189.737.24 1.191.163.18-.497.145-.959-.052-1.216z" fill="#605E5C"/><path d="M227.084 498.249c-.454.077-.866.026-1.191-.162l-.249-.258c.412-.582.968-.925 1.388-.805.197.266.232.728.052 1.225z" fill="#3B3937"/><path d="M226.022 493.562c.377.112.548.583.394 1.226-.18.702-.686 1.354-1.208 1.585v-.369c.411-.299.779-.848.917-1.422.12-.437.068-.805-.103-1.02z" fill="#605E5C"/><path d="M226.022 493.562c.171.215.223.583.103 1.02-.138.574-.506 1.122-.917 1.422.034-.805.291-1.662.685-2.467l.129.025z" fill="#3B3937"/><path d="M231.111 494.702c-.394.968-1.003 1.894-1.731 2.588l-.111-.369a7.763 7.763 0 001.49-2.244l.352.025z" fill="#605E5C"/><path d="M230.76 494.677a7.766 7.766 0 01-1.491 2.244c-.043-.402.094-.916.403-1.388.317-.488.728-.788 1.088-.856z" fill="#3B3937"/><path d="M231.282 492.329c0-.694-.154-1.243-.454-1.62l.051-.068c.429.385.686 1.028.686 1.893v.163c-.454.326-.891.343-1.123.034.232.069.532-.008.84-.231v-.171z" fill="#605E5C"/><path d="M231.282 492.329v.171c-.308.223-.608.3-.839.231l-.12-.214c-.163-.488.06-1.251.505-1.808.3.377.454.926.454 1.62z" fill="#3B3937"/><path d="M223.854 470.128c-4.97 2.862-6.82 14.421-6.82 16.117v15.012l5.449-3.154v-3.341s1.594-7.103 4.207-8.611l8.251-4.764v-17.668s-9.433 5.45-11.087 6.409z" fill="#B2B1B3"/><path d="M235.952 481.507l-.806-.471-.205.017-8.251 4.764c-2.794 1.611-4.413 8.705-4.482 9.005l.086.291.763.446 2.536-6.94 1.217-1.448 9.142-5.664z" fill="#403D3E"/><path d="M223.263 495.542l-.077.034c-.155.034-.24-.094-.197-.3.068-.3 1.687-7.394 4.481-9.005l8.259-4.764c.155-.094.283-.017.283.163a.637.637 0 01-.283.497l-8.259 4.764c-2.365 1.371-3.916 8.148-3.933 8.216a.59.59 0 01-.274.395z" fill="#252422"/><path d="M217.779 494.848v-9.263h.36v8.646l4.001-2.314c.197-.66 1.671-5.441 3.899-6.734l6.965-4.019v-8.902h.36v9.116l-7.146 4.122c-2.219 1.276-3.735 6.537-3.752 6.589l-.026.068-4.661 2.691z" fill="#5D595E"/><path d="M219.964 485.269l-1.191.685c-.326.188-.626.197-.814.034-.163-.154-.214-.411-.155-.745.069-.471 1.877-12.013 6.178-14.498l8.363-4.823c.582-.343 1.054-.06 1.054.608v5.346c0 .669-.472 1.491-1.054 1.817l-6.075 3.513c-.351.206-.9.745-1.183 1.165l-3.581 5.381c-.377.565-1.054 1.234-1.542 1.517z" fill="#2C2A2A"/><path d="M228.301 468.586v7.12l-2.031 1.166c-.42.248-1.028.848-1.354 1.336l-3.59 5.39c-.325.497-.942 1.096-1.362 1.336l-1.191.694c-.326.18-.608.129-.686-.145l.266-.103 1.191-.686c.428-.24 1.037-.848 1.362-1.336l3.59-5.381c.326-.497.943-1.097 1.363-1.345l2.022-1.166v-6.64l.42-.24z" fill="#284968"/><path d="M227.881 468.826v6.641l-2.022 1.165c-.42.248-1.037.848-1.363 1.345l-3.59 5.381c-.325.488-.934 1.097-1.362 1.337l-1.191.685-.266.103v-.317s1.783-11.713 5.895-14.078c1.003-.582 2.468-1.439 3.899-2.262z" fill="#3C6597"/><path d="M233.107 466.693v5.355c0 .479-.342 1.079-.762 1.319l-3.479 2.005v-.48l3.059-1.756c.42-.249.771-.848.771-1.328v-5.355l-.06-.3c.274-.026.471.18.471.54z" fill="#284968"/><path d="M232.696 466.453v5.355c0 .48-.351 1.08-.771 1.328l-3.059 1.757v-6.641c1.885-1.079 3.479-2.005 3.479-2.005l.291-.094.06.3z" fill="#3C6597"/><path d="M232.473 478.971c0 .428-.36.994-.805 1.251l-.754.437c-.446.248-.806.102-.806-.326s.36-.994.806-1.251l.754-.437c.445-.257.805-.111.805.326z" fill="#2C2A2A"/><path d="M215.765 493.665v-7.548l-20.701-11.91v7.557l20.701 11.901z" fill="#403D3E"/><path d="M215.765 486.982v-.565l-20.701-11.901v.565l20.701 11.901zm0 1.08v-.566l-20.701-11.901v.557l20.701 11.91zm0 1.071v-.566l-20.701-11.901v.566l20.701 11.901zm0 1.079v-.565l-20.701-11.901v.565l20.701 11.901zm0 1.08v-.566l-20.701-11.901v.557l20.701 11.91zm0 1.071v-.566l-20.701-11.892v.557l20.701 11.901zm0 1.08v-.566l-20.701-11.901v.565l20.701 11.902z" fill="#2C2A2A"/><path d="M216.125 485.903l-20.701-11.902-.36.206 20.701 11.91.36-.214z" fill="#5D595E"/><path d="M216.125 493.459v-7.557l-.36.215v7.548l.36-.206z" fill="#2C2A2A"/><path d="M205.929 485.071l-.18.103-.84-2.167.172-.103.848.488v1.679z" fill="#5D595E"/><path d="M205.749 485.174l-.84-.488v-1.68l.84.48v1.688z" fill="#B2B1B3"/><path d="M205.604 484.909l-.591-.334v-1.32l.591.343v1.311z" fill="#DC2127"/><path d="M217.034 501.908l-23.708-13.692v-3.341l23.708 13.032v4.001z" fill="#777"/><path d="M217.033 498.558L193.891 485.2l.583-.325 22.559 13.032v.651z" fill="#C8C6C6"/><path d="M217.034 501.908l5.123-2.948v-3.35l-5.123 2.296v4.002z" fill="#4F4F4F"/><path d="M217.034 498.558l5.123-2.948-.574-.334-4.549 2.631v.651zm-.908-1.688l-6.152-3.547v-2.631l6.152 3.556v2.622z" fill="#B2B1B3"/><path d="M212.766 494.625l-2.347-1.354v-1.988l2.347 1.354v1.988zm2.896 1.671l-2.339-1.354v-1.979l2.339 1.354v1.979z" fill="#EADEB7"/><path d="M201.516 488.439l-6.151-3.556v-2.622l6.151 3.556v2.622z" fill="#B2B1B3"/><path d="M198.15 486.185l-2.339-1.354v-1.979l2.339 1.354v1.979zm2.904 1.68l-2.33-1.354v-1.979l2.33 1.345v1.988z" fill="#EADEB7"/><path d="M219.407 485.98l-.188.334.051.128.994.566.265-.48-.985-.557-.137.009z" fill="#252422"/><path d="M220.401 486.477l-.189.325.189.112.197-.335-.197-.102z" fill="#EB6320"/><path d="M220.195 482.424l2.065 1.191.36-.206-2.065-1.199-.36.214z" fill="#403D3E"/><path d="M222.26 488.79l.36-.214v-5.167l-.36.206v5.175z" fill="#252422"/><path d="M220.195 487.599l2.065 1.191v-5.175l-2.065-1.191v5.175z" fill="#2C2A2A"/></g><defs><linearGradient id="paint0_linear_521_44402" x1="68.5" y1="580" x2="35.745" y2="518.089" gradientUnits="userSpaceOnUse"><stop stop-color="#C4C4C4"/><stop offset="1" stop-color="#C4C4C4" stop-opacity="0"/></linearGradient></defs></svg>