<svg width="100" height="100" fill="none" xmlns="http://www.w3.org/2000/svg"><path d="M49.597 13.565L13.468 33.093l-.004-.001-.001.001L1.465 20.998l36.034-19.53 12.098 12.097z" fill="#E2AE83"/><path d="M97.728 20.998L85.731 33.093l-.002-.001-.004.001-36.128-19.528L61.694 1.467l36.034 19.531z" fill="#D39C72"/><path d="M49.596 52.623v45.912l-36.131-19.53V33.092l36.132 19.53z" fill="#F2C397"/><path d="M85.729 33.093v45.911L49.597 98.535V52.623l36.132-19.53z" fill="#E2AE83"/><path d="M79.869 36.26v45.912l5.86-3.168v-45.91l-5.86 3.166z" fill="#D39C72"/><path d="M85.73 33.093L97.729 45.19l-12 6.504L61.695 64.72 49.597 52.623l36.128-19.53.004.002.002-.002z" fill="#F2C397"/><path d="M85.73 33.093L97.729 45.19l-12 6.504L61.695 64.72 49.597 52.623l36.128-19.53.004.002.002-.002z" fill="#F2C397"/><path d="M80.664 35.829l12.004 12.103 5.06-2.743-11.997-12.096-.002.002-.004-.002-5.06 2.736z" fill="#E2AE83"/><path d="M49.597 52.623L37.499 64.72 13.464 51.693l-12-6.504 11.999-12.096.002.002.003-.002 36.129 19.53z" fill="#FFD2A6"/><path d="M85.725 33.093l-36.128 19.53-36.129-19.53 36.129-19.528 36.128 19.528z" fill="#C48D69"/><path d="M87.793 33.094l10.975-11.065a1.466 1.466 0 00-.342-2.32L62.392.18a1.465 1.465 0 00-1.734.252L49.596 11.493 38.534.432A1.451 1.451 0 0036.802.18L25.228 6.45a1.458 1.458 0 00-.705.872 1.46 1.46 0 00.115 1.115 1.47 1.47 0 001.289.768c.242 0 .484-.063.697-.178l10.611-5.752 9.936 9.936-33.439 18.074-9.851-9.932 17.591-9.535c.346-.185.596-.494.707-.869a1.464 1.464 0 00-2.101-1.705L.768 19.71a1.463 1.463 0 00-.342 2.319L11.4 33.094.425 44.158a1.466 1.466 0 00.342 2.32L12 52.566V79c0 .05.002.101.007.151.002.021.007.042.01.063a.926.926 0 00.011.076c.006.032.015.063.023.094l.011.043c.01.032.021.062.033.093l.015.041c.011.028.024.054.037.08.008.017.015.034.024.05l.037.064.037.06c.01.016.023.032.034.048.017.022.033.046.051.068l.032.036.063.07.036.033.068.062c.023.019.047.036.071.053.014.01.027.022.042.032.042.028.085.054.13.079l36.12 19.524a1.482 1.482 0 00.323.128c.015.004.03.009.046.012.04.01.082.017.125.023l.042.007a1.475 1.475 0 00.336 0l.043-.007a1.72 1.72 0 00.125-.023l.045-.012a1.387 1.387 0 00.161-.052c.056-.023.11-.047.162-.076l36.12-19.524a1.56 1.56 0 00.13-.08l.042-.03c.024-.018.048-.035.07-.054.024-.02.046-.04.069-.062l.036-.033.064-.07.03-.036c.019-.022.035-.045.052-.068l.034-.048.037-.06c.013-.021.026-.042.037-.064.009-.016.016-.033.024-.05.013-.026.026-.052.037-.08.006-.013.01-.027.015-.04.012-.031.023-.062.033-.094l.011-.043c.008-.03.017-.062.023-.094.005-.025.008-.05.012-.076l.009-.063c.005-.05.008-.1.007-.15V52.565l11.233-6.088a1.47 1.47 0 00.752-1.075 1.477 1.477 0 00-.408-1.246L87.793 33.094zM61.957 3.276L95.31 21.354l-9.85 9.931L52.021 13.21l9.935-9.934zM49.597 15.23l33.048 17.864-33.048 17.864-33.049-17.864 33.05-17.864zM13.733 34.901L47.17 52.977l-9.935 9.935L14.17 50.409l-.013-.006-10.275-5.57 9.852-9.93zM36.8 66.008a1.463 1.463 0 001.734-.252l9.597-9.596v39.918L14.929 78.131V54.154l21.872 11.854zM85.042 50.4a.884.884 0 00-.023.012l-7.298 3.956a1.448 1.448 0 00-.707.871 1.46 1.46 0 001.404 1.881c.242 0 .485-.06.697-.176l5.148-2.79V78.13L51.061 96.08V56.16l9.598 9.597a1.454 1.454 0 001.732.252l11.574-6.273a1.45 1.45 0 00.705-.87 1.467 1.467 0 00-2.102-1.703l-10.61 5.748-9.936-9.933 33.44-18.076 9.85 9.932-10.27 5.567z" fill="#000"/></svg>