<svg width="100" height="100" fill="none" xmlns="http://www.w3.org/2000/svg"><path d="M84.176 47.755s8.725-.547 5.88 13.671l-.003-.007-2.84-5.68s-8.92 2.844-14.219 2.844c-5.299 0-9.953-2.844-9.953-2.844l-4.261 5.684-.005.004c-2.843-22.75 14.026-21.485 25.401-21.485v7.813z" fill="#965353"/><path d="M84.176 47.755v-7.813c-1.844 0-3.834-.033-5.86.008v7.805c0 4.687 5.86 2.539 5.86 8.866 1.483-.413 3.037-.882 3.037-.882l2.84 5.68.004.007c2.844-14.218-5.88-13.671-5.88-13.671z" fill="#864B4C"/><path d="M87.213 55.74l2.84 5.679-.017.007v5.864a15.59 15.59 0 01-5.858 12.195 15.564 15.564 0 01-9.767 3.426 15.553 15.553 0 01-9.766-3.426 15.58 15.58 0 01-5.86-12.195v-5.864l-.005-.004 4.261-5.683s4.654 2.844 9.954 2.844c5.298 0 14.218-2.844 14.218-2.844z" fill="#FFDECF"/><path d="M87.213 55.74s-1.226.39-3.037.882V67.29a15.59 15.59 0 01-5.858 12.195 15.562 15.562 0 01-6.837 3.149h.002c.235.045.472.084.71.118l.007.001c.226.032.453.059.682.081l.057.007c.209.02.42.034.631.045l.11.007a15.563 15.563 0 0010.499-3.408 15.59 15.59 0 005.856-12.195v-5.864l.018-.007-2.84-5.68z" fill="#FFCDBE"/><path d="M74.41 82.91v3.907l-4.88 1.951-4.885-3.904v-5.379a15.553 15.553 0 009.766 3.426z" fill="#E6E9ED"/><path d="M84.178 79.485l-.002 5.379-5.857 3.904-3.909-1.951V82.91c3.696 0 7.092-1.281 9.768-3.426z" fill="#E6E9ED"/><path d="M86.131 98.535H52.926v-7.811a5.855 5.855 0 015.86-5.86h5.859l4.885 3.904 4.88-1.951 3.909 1.951 5.857-3.904h5.86a5.855 5.855 0 015.859 5.86v7.811H86.13z" fill="#5D9CEC"/><path d="M86.131 98.535H52.926v-7.811a5.855 5.855 0 015.86-5.86h5.859l4.885 3.904 4.88-1.951 3.909 1.951 5.857-3.904h5.86a5.855 5.855 0 015.859 5.86v7.811H86.13z" fill="#2573D6"/><path d="M45.12 63.379l-3.905-1.394-23.438-8.372-7.813 3.907c-1.04-12.76 3.907-15.625 3.907-15.625l4.101 1.953s27.149-15.625 27.149 19.531z" fill="#656D78"/><path d="M41.215 84.864a5.857 5.857 0 015.859 5.86v7.81H4.105v-7.81c0-3.24 2.621-5.86 5.86-5.86h31.25z" fill="#FF9D26"/><path d="M27.296 40.633c5.933 1.088 11.448 6.086 11.93 20.642l1.989.71 3.906 1.394c0-21.303-9.969-23.96-17.825-22.746z" fill="#515760"/><path d="M33.404 80.823l-.002 4.04a7.813 7.813 0 01-15.625 0v-4.042a15.547 15.547 0 007.812 2.09c2.846 0 5.514-.76 7.813-2.09l.002.002z" fill="#FFDECF"/><path d="M41.214 61.985v5.306c0 5.785-3.142 10.832-7.812 13.53a15.55 15.55 0 01-7.813 2.09 15.55 15.55 0 01-7.812-2.09c-4.67-2.698-7.813-7.744-7.813-13.53V57.52l7.813-3.907 23.437 8.372z" fill="#FFDECF"/><path d="M35.354 59.815v7.477c0 5.784-3.143 10.831-7.812 13.529a15.518 15.518 0 01-4.883 1.814c.95.18 1.928.275 2.93.275 2.846 0 5.514-.76 7.813-2.09 4.67-2.697 7.813-7.743 7.813-13.528v-5.307l-5.86-2.17z" fill="#FFCDBE"/><path d="M72.464 1.465v31.252h-19.53l-9.767 3.904v-3.904h-7.813V1.465h37.11z" fill="#1D9F3A"/><path d="M68.558 92.676h-9.765v5.86h9.765v-5.86z" fill="#E6E9ED"/><path d="M35.351 34.182H41.7v2.44a1.465 1.465 0 002.008 1.358l9.504-3.798h19.25a1.48 1.48 0 001.035-.428c.273-.273.43-.65.43-1.037V1.465A1.467 1.467 0 0072.46 0H35.35a1.467 1.467 0 00-1.464 1.465v6.61c0 .808.656 1.466 1.465 1.466.806 0 1.464-.658 1.464-1.467V2.93h34.18v28.322H52.93a1.47 1.47 0 00-.543.105l-7.758 3.1v-1.74a1.47 1.47 0 00-1.465-1.465h-6.348V13.934a1.465 1.465 0 00-2.93 0v18.783c0 .386.157.764.43 1.037.272.271.649.428 1.035.428zm62.012 56.541c0-4.039-3.285-7.324-7.324-7.324h-4.394l.002-3.243c3.587-3.134 5.857-7.74 5.857-12.865v-5.62c1.144-5.757.62-10.027-1.563-12.689-1.376-1.678-3.08-2.318-4.297-2.557v-6.483c0-.81-.655-1.465-1.465-1.465-.555 0-1.125-.003-1.705-.006-.606-.003-1.223-.006-1.847-.006-7.067 0-15.001.447-19.714 5.785-3.39 3.84-4.564 9.511-3.59 17.337v5.704c0 5.127 2.272 9.733 5.86 12.868v3.24H58.79c-4.039 0-7.324 3.286-7.324 7.325v7.811c0 .81.655 1.465 1.465 1.465h42.968c.81 0 1.465-.656 1.465-1.465v-7.812zM82.715 84.08l-4.498 3-2.338-1.168v-1.599a16.97 16.97 0 006.837-2.093l-.001 1.86zM63.11 46.19c3.905-4.425 11.09-4.795 17.517-4.795.62 0 1.231.003 1.832.007h.256v6.353a1.45 1.45 0 001.542 1.463c.133-.008 2.065-.029 3.419 1.623 1 1.22 1.498 3.09 1.487 5.517l-.637-1.273a1.464 1.464 0 00-1.754-.74c-.088.027-8.767 2.774-13.774 2.774-4.802 0-9.147-2.604-9.189-2.629a1.465 1.465 0 00-1.935.371l-1.934 2.578c-.118-4.953.943-8.727 3.17-11.25zm-2.856 21.1v-5.388l3.207-4.276c1.806.898 5.47 2.42 9.537 2.42 4.34 0 10.798-1.761 13.461-2.546l2.115 4.23v5.56c0 7.805-6.352 14.155-14.16 14.155s-14.16-6.35-14.16-14.155zm12.695 17.021v1.513l-3.168 1.267-3.667-2.933V82.22a16.966 16.966 0 006.835 2.092zM60.254 97.07v-2.93h6.836v2.93h-6.836zm34.18 0H70.018v-4.394c0-.81-.655-1.465-1.464-1.465h-9.766c-.809 0-1.464.656-1.464 1.465v4.394h-2.93v-6.347a4.4 4.4 0 014.394-4.394h5.346l4.483 3.584c.013.01.028.017.04.027a1.534 1.534 0 00.337.188c.029.011.057.024.087.033.048.016.098.027.148.037.024.006.048.013.073.017a1.452 1.452 0 00.384.01l.027-.003c.04-.005.08-.012.12-.02l.05-.012a1.405 1.405 0 00.154-.048l.039-.013 4.27-1.708 3.32 1.659.07.029c.026.011.052.024.078.034.037.013.074.024.11.034l.054.016c.052.012.103.021.156.028l.013.002a1.486 1.486 0 00.378-.003c.03-.005.059-.013.088-.019.038-.008.075-.014.112-.024l.088-.032c.037-.013.073-.025.108-.04l.076-.04c.038-.02.076-.04.113-.063l.024-.014 5.488-3.66h5.416a4.4 4.4 0 014.395 4.39v6.352zM41.21 83.399h-6.346V81.63c4.698-3.048 7.812-8.337 7.812-14.34v-3.228l1.948.696a1.464 1.464 0 001.958-1.38c0-8.79-1.693-15.319-5.031-19.401-2.742-3.355-6.512-5.055-11.205-5.055-5.47 0-10.595 2.35-12.416 3.284l-3.433-1.635a1.464 1.464 0 00-1.364.055c-.587.34-5.7 3.702-4.637 16.947v9.717c0 6.004 3.114 11.293 7.812 14.341V83.4H9.961c-4.039 0-7.324 3.285-7.324 7.324v7.812c0 .81.656 1.465 1.465 1.465H47.07c.809 0 1.465-.656 1.465-1.465v-7.812c0-4.039-3.286-7.324-7.324-7.324zM14.107 43.63l3.233 1.54a1.47 1.47 0 001.36-.053c.056-.033 5.765-3.266 11.647-3.266 8.388 0 12.847 6.538 13.273 19.437l-25.353-9.055a1.463 1.463 0 00-1.148.07l-5.82 2.91c-.213-7.339 1.816-10.49 2.808-11.583zm-2.68 23.66v-8.866l6.443-3.222 21.877 7.813v4.275c0 7.805-6.352 14.155-14.16 14.155s-14.16-6.35-14.16-14.155zm14.16 17.084c2.242 0 4.385-.435 6.348-1.223v1.712c0 3.5-2.848 6.348-6.348 6.348a6.355 6.355 0 01-6.348-6.347v-1.711a17.009 17.009 0 006.348 1.222zM45.605 97.07H5.566v-6.347a4.4 4.4 0 014.395-4.394h6.464c.705 4.421 4.544 7.812 9.16 7.812 4.618 0 8.457-3.39 9.161-7.813h6.465a4.4 4.4 0 014.394 4.39v6.352z" fill="#000"/></svg>