<svg width="170" height="170" fill="none" xmlns="http://www.w3.org/2000/svg"><path opacity=".4" d="M97.956 152.258L4.236 98.39l66.002-38.157 96 53.767-65.683 38.258h-2.598z" fill="#0D3482"/><path d="M28.7 85.635l-3.8-2.246v-1.9l3.8 2.246v1.9z" fill="#C0B9C8"/><path d="M53.743 71.127L28.7 85.635v-1.9l25.044-14.508v1.9z" fill="#937A6A"/><path d="M97.268 151.959L4 97.898v-1.9l93.268 53.888v2.073z" fill="#252321"/><path d="M163.073 113.961l-65.805 37.998v-2.073l65.805-37.998v2.073z" fill="#312F2C"/><path d="M97.268 149.886L4 95.998 69.806 58l93.268 53.888-65.806 37.998z" fill="#393532"/><path d="M29.908 84.426l-5.009-2.936 25.044-14.51 5.01 2.937c.172.172.172.345 0 .518l-24.354 13.99c-.173.173-.346.173-.691 0z" fill="#F7F6F3"/><path d="M26.28 79.59l24.7-14.163c.172-.173.518-.173 1.036.172.69.346 1.382 1.555 1.382 2.419 0 .345-.173.69-.346.863L28.354 83.044a1.32 1.32 0 00.345-.864c0-.863-.691-1.9-1.382-2.418-.518-.345-.863-.345-1.036-.172z" fill="url(#paint0_linear_222_58357)"/><path d="M52.016 65.6L27.317 79.763c.346.172.691.518.864 1.036l24.698-14.163c-.345-.518-.518-.864-.863-1.036z" fill="#F3F2EF"/><path d="M30.771 83.39c-.172-.173-.69-.173-.863 0-.173.172-.173.345 0 .518.172.172.69.172.863 0 .173-.173.173-.346 0-.519zm23.49-13.472c-.172-.173-.69-.173-.863 0-.173.172-.173.345 0 .518.172.172.69.172.863 0 .173-.173.173-.346 0-.519z" fill="#393532"/><path d="M27.145 79.762c-.518-.345-1.037-.172-1.21.173L24.9 81.49l.864.69 1.209.518s.173 0 .173.173c.69.346 1.381 0 1.381-.863 0-.864-.518-1.9-1.381-2.246z" fill="#C0B9C8"/><path d="M156.165 111.715l-59.07 34.026-84.632-48.88 59.07-34.025 84.632 48.879z" fill="#FFFCF8"/><path d="M59.615 70.781l-5.7-3.282v-1.381c0-.173-.172-.346-.172-.346h-.518l-.691.346c.345.518.69 1.209.69 1.727v.345l5.7 3.282-26.598 15.372h-.173l-5.872-3.454v-1.037l.863-.518c.346-.173 0-1.036-.518-.864l-1.209.691c-.173 0-.173.173-.173.346v1.554c0 .173.173.346.173.346l6.218 3.627c.172.172.345.172.518.172.173 0 .345 0 .518-.172L59.27 72.163c.345-.173.345-.346.345-.691.346-.346.173-.69 0-.69z" fill="#E6E1E7"/><path d="M47.698 112.233l-6.218-3.627h.173l50.951-29.362 6.218 3.627h-.172l-50.952 29.362zm-5.873-3.454l5.873 3.454 50.779-29.362-5.873-3.454-50.779 29.362z" fill="#3A3737"/><path d="M43.725 109.988v-.173l50.78-29.362h.172l-50.952 29.535z" fill="#3A3737"/><path d="M54.775 101.093l-.086.15 5.983 3.454.086-.149-5.983-3.455zm31.785-11.14l-6.046-3.627 6.046 3.454v.173z" fill="#3A3737"/><path d="M96.63 81.679l-50.901 29.28.086.149 50.902-29.28-.086-.15zm-18.88 47.826l-6.217-3.627h.173l50.951-29.362 6.218 3.627h-.172l-50.952 29.362zm-5.872-3.454l5.873 3.454 50.779-29.362-5.873-3.454-50.779 29.362z" fill="#3A3737"/><path d="M124.582 97.725L73.698 127.04l.086.149 50.884-29.315-.086-.15z" fill="#3A3737"/><path d="M84.673 118.449l-.086.15 5.983 3.454.086-.149-5.983-3.455zm31.767-11.225l-6.045-3.454.172-.173 6.045 3.455-.172.172z" fill="#3A3737"/><path d="M126.506 99.001l-50.902 29.28.086.15 50.902-29.28-.086-.15zM79.65 130.714l-1.9-1.209 1.9 1.036 50.78-29.362-1.9-1.036h.173l2.072 1.036-.173.173-50.951 29.362z" fill="#3A3737"/><path d="M90.79 121.847l-.086.15 1.945 1.123.086-.15-1.944-1.123zm36.704-18.768l-1.9-1.036v-.173l1.9 1.037v.172zm-6.897-7.609l-50.85 29.374.087.15 50.849-29.374-.086-.15zm-20.127 25.746l-18.564 10.678.086.15 18.565-10.679-.087-.149zm32.411-18.659l-21.701 12.502.087.149 21.7-12.502-.086-.149zm11.511 6.808l-20.204 11.64.086.149 20.204-11.64-.086-.149zm-30.488 17.53l-18.545 10.713.086.149 18.545-10.712-.086-.15z" fill="#3A3737"/><path opacity=".6" d="M40.962 104.979l-2.937 1.727.346.173 2.936-1.727-.345-.173zm-1.382 2.591l.345.173.691-.346 2.591-1.381-.346-.173-2.072 1.209-1.21.518zm1.554-6.218l-2.245 1.209-1.382.864.346.173 1.381-.864 2.246-1.209-.346-.173zm4.146 2.936l-.519.346-1.554.863.345.173 1.21-.691.863-.518-.345-.173zm-6.91.519l-1.726 1.036.345.173 1.727-1.037 2.073-1.209-.346-.172-2.072 1.209zm2.419-1.555l.345.173 1.037-.691-.346-.173-1.036.691zm1.209 1.555l1.9-1.037-.346-.172-1.9 1.036.346.173zm-6.563.345l1.9-1.036-.346-.173-1.9 1.036.346.173zm21.071 5.872l-1.9 1.037.346.172 1.9-1.036-.346-.173zm3.11 2.246l1.035-.691-.345-.173-1.036.691.345.173zm-2.937 1.554l2.073-1.209-.346-.173-2.072 1.209.345.173zm1.554-3.109l-1.9 1.037.346.172 1.9-1.036-.346-.173zm-8.29 1.9l.864-.518 2.418-1.382-.346-.172-2.418 1.209-1.036.518.518.345zm5.872-.518l-2.418 1.382-.863.518.345.173 1.21-.691 2.072-1.209-.346-.173zm-4.49 1.382l1.381-.864 1.555-.863-.346-.173-2.245 1.382-.69.345.345.173zm3.109 1.727l1.727-1.036-.346-.173-1.727 1.036.346.173zm.863-6.218l-.69.346-.173.172-1.21.691.346.173 1.21-.691.172-.173.69-.345-.345-.173zm5.182 4.491l-1.21.691.346.172 1.382-.863.69-.346-.345-.172-.863.518zm-1.727 1.036l-2.073 1.209-.69.346.345.172.69-.345 2.073-1.209-.345-.173zm.69 1.382l-1.9 1.036.346.173 1.9-1.036-.345-.173zm2.591-1.555l-2.072 1.209.345.173 2.245-1.209 1.382-.864-.345-.172-1.555.863zm1.382 3.109l1.9-1.036-.346-.173-1.9 1.037.346.172zm-1.036.173l-1.9 1.036.345.173 1.9-1.036-.345-.173zm1.727-2.245l-.346-.173-.863.518-1.21.691.346.173 1.21-.691.863-.518zm-3.11 1.209l-2.072 1.209.346.172 2.072-1.209-.345-.172zm8.637 1.209l-1.555.863.346.173 1.209-.691.863-.518-.345-.173-.518.346zm-.346 2.418l-.345-.173-1.382.864.346.172 1.381-.863zm-2.245-2.246l1.555-.863-.346-.173-1.9 1.036-3.627 2.073.346.173 3.972-2.246zm4.49 2.591l1.9-1.036-.345-.173-1.9 1.036.346.173zm-6.217.173l-.346-.173-.518.346.346.172.518-.345zm2.245-1.727l-2.072 1.209.345.172 2.073-1.209-.346-.172zm3.8-.346l-1.9 1.037.346.172 1.9-1.036-.346-.173zm-3.627 4.146l.69-.346-.345-.173-.69.346.345.173zm-1.555-.864l1.037-.518-.346-.173-1.036.518.346.173zm2.937.173l1.9-1.209-.346-.173-1.9 1.209.346.173zm-18.827-21.763l-1.381.864.345.172 1.382-.863-.346-.173zm-1.554-.863l-2.59 1.554.345.173 2.59-1.555-.345-.172zm-.346 1.899l-.69.519.345.172.69-.518-.344-.173zm-2.763-1.381l2.073-1.21-.346-.172-2.072 1.209.345.173zm-.864-1.21l1.555-.863-.346-.173-1.554.864.345.173zm13.127 9.155l.69-.518-.345-.173-.69.518.345.173zm1.382-.864l1.381-.863-.345-.173-1.382.863.346.173zm2.936 1.9l1.554-.864-.345-.172-1.554.863.345.173zm-1.9-.691l1.727-1.036-.345-.173-1.727 1.036.345.173zm-.863 0l-.691.346.345.172.69-.345-.344-.173zm5.354.346l-2.073 1.209.346.172 2.072-1.209-.345-.172zm-3.627.345l-.691.346.345.172.691-.345-.345-.173zm7.427 3.8l1.554-.864-.346-.172-1.554.863.346.173zm-.864 0l-.69.345.344.173.691-.345-.345-.173zm-2.418-2.073l-.691.518.345.173.691-.518-.345-.173zm3.109 0l-1.382.864.346.173 1.381-.864-.345-.173zm-1.21-.691l-.345-.172-.863.518.345.173.864-.519zm3.11 3.455l1.554-.864-.345-.173-1.555.864.346.173zm3.972 3.454l-.69.346.345.172.69-.345-.345-.173zm-2.936-1.382l2.59-1.554-.345-.173-2.59 1.555.345.172zm2.418 0l.346.173 1.381-.864-.345-.172-1.382.863zm-1.036.864l.69-.518-.345-.173-.69.518.345.173zm4.318 1.036l1.554-.863-.345-.173-1.555.864.346.172zm-1.9-.691l1.727-1.036-.345-.173-1.728 1.037.346.172zm.518 1.555l.69-.346-.345-.172-.69.345.345.173zM54.434 97.207l-2.937 1.727.346.173 2.936-1.727-.345-.173zm-1.555 2.59l.346.173.69-.345 2.591-1.382-.345-.172-2.073 1.209-1.209.518zm1.555-6.044l-2.246 1.209-1.381.863.345.173 1.382-.864 2.245-1.209-.345-.172zm4.318 2.763l-.519.346-1.554.863.345.173 1.21-.691.863-.518-.345-.173zm-7.082.518l-1.727 1.036.345.173 1.728-1.036 2.072-1.21-.345-.172-2.073 1.21zm2.59-1.554l.346.172 1.037-.69-.346-.173-1.036.69zm1.21 1.554l1.9-1.036-.346-.173-1.9 1.037.346.172zm-6.736.346l1.9-1.037-.346-.172-1.9 1.036.346.173zm21.244 5.872l-1.9 1.036.346.173 1.9-1.036-.346-.173zm2.937 2.245l1.036-.69-.346-.173-1.036.691.346.172zm-2.764 1.555l2.073-1.209-.346-.173-2.073 1.209.346.173zm1.555-3.109l-1.9 1.036.345.173 1.9-1.036-.346-.173zm-8.291 1.9l.864-.518 2.418-1.382-.346-.173-2.072 1.209-1.037.518.173.346zm5.872-.346l-2.418 1.382-.863.518.345.173 1.21-.691 2.072-1.209-.346-.173zm-4.49 1.209l1.382-.863 1.554-.864-.346-.172-2.245 1.381-.69.346.345.172zm3.109 1.728l1.727-1.037-.346-.172-1.727 1.036.346.173zm.863-6.218l-.69.345-.173.173-1.21.691.346.173 1.21-.691.172-.173.69-.346-.345-.172zm5.182 4.49l-1.21.691.346.173 1.382-.864.69-.345-.345-.173-.863.518zm-1.9 1.037l-2.073 1.209-.518.345.346.173.69-.346 2.073-1.209-.518-.172zm.69 1.381l-1.9 1.037.346.173 1.9-1.037-.345-.173zm2.764-1.554l-2.072 1.209.345.173 2.245-1.209 1.382-.864-.345-.173-1.555.864zm1.382 3.109l1.9-1.036-.346-.173-1.9 1.036.346.173zm-1.036.173l-1.9 1.036.345.173 1.9-1.037-.345-.172zm1.727-2.246l-.346-.172-.863.518-1.21.691.346.172 1.21-.691.863-.518zm-3.11 1.382l-2.072 1.209.346.173 2.072-1.209-.345-.173zm8.637 1.036l-1.555.864.346.173 1.209-.691.863-.518-.345-.173-.518.345zm-.346 2.418l-.345-.172-1.382.863.346.173 1.381-.864zm-2.245-2.245l1.555-.863-.346-.173-1.9 1.036-3.627 2.073.346.172 3.972-2.245zm4.49 2.764l1.9-1.037-.345-.172-1.9 1.036.346.173zm-6.217.172l-.346-.172-.518.345.346.173.518-.346zm2.072-1.727l-2.072 1.209.345.173 2.073-1.209-.346-.173zm3.973-.518l-1.9 1.036.346.173 1.9-1.036-.346-.173zm-3.627 4.145l.69-.345-.345-.173-.69.345.345.173zm-1.555-.863l1.037-.519-.346-.172-1.036.518.345.173zm2.764.172l1.9-1.209-.346-.172-1.9 1.209.346.172zM63.76 93.58l-1.381.863.345.173 1.382-.863-.346-.173zm-1.554-.864l-2.59 1.555.345.172 2.59-1.554-.345-.173zm-.518 2.073l-.691.518.345.173.691-.518-.345-.173zm-2.591-1.555l2.073-1.209-.346-.172-2.072 1.209.345.172zm-1.036-1.209l1.554-.863-.345-.173-1.555.864.346.172zm13.299 9.154l.69-.518-.344-.172-.691.518.345.172zm1.382-.863l1.382-.864-.346-.172-1.382.863.346.173zm2.763 1.9l1.555-.864-.346-.173-1.554.864.345.173zm-1.727-.691l1.727-1.036-.345-.173-1.727 1.036.345.173zm-.864 0l-.69.345.345.173.69-.345-.344-.173zm5.355.518l-2.073 1.209.346.173 2.072-1.209-.345-.173zm-3.627.345l-.691.346.345.173.691-.346-.345-.173zm7.427 3.628l1.554-.864-.345-.173-1.555.864.346.173zm-1.037.172l-.69.346.345.172.69-.345-.345-.173zm-2.245-2.245l-.691.518.346.173.69-.518-.345-.173zm2.936 0l-1.382.864.346.172 1.382-.863-.346-.173zm-1.036-.691l-.346-.173-.863.519.345.172.864-.518zm2.936 3.454l1.554-.863-.345-.173-1.554.864.345.172zm4.145 3.455l-.69.345.345.173.69-.345-.345-.173zm-2.936-1.382l2.59-1.554-.345-.173-2.59 1.554.345.173zm2.418 0l.346.173 1.381-.864-.345-.173-1.382.864zm-1.036.864l.69-.519-.345-.172-.69.518.345.173zm4.145 1.209l1.555-.864-.346-.173-1.554.864.345.173zm-1.727-.864l1.727-1.036-.345-.173-1.728 1.036.346.173zm.518 1.555l.69-.346-.345-.173-.69.346.345.173zM67.733 89.435l-2.936 1.727.345.172 2.936-1.727-.345-.172zm-1.382 2.59l.346.173.69-.345 2.591-1.382-.518-.173-2.072 1.21c-.173 0-1.037.517-1.037.517zm1.555-6.045l-2.246 1.21-1.381.863.345.173 1.382-.864 2.245-1.209-.345-.173zm4.145 2.764l-.518.345-1.555.864.346.172 1.209-.69.863-.519-.345-.172zm-7.082.518l-1.727 1.036.346.173 1.727-1.036 2.073-1.21-.346-.172-2.073 1.209zm2.591-1.382l.346.173 1.036-.691-.345-.173-1.037.691zm1.21 1.555l1.9-1.037-.346-.172-1.9 1.036.345.173zm-6.737.345l1.9-1.036-.345-.173-1.9 1.036.345.173zm21.245 5.873l-1.9 1.036.345.173 1.9-1.037-.345-.172zm3.108 2.072l1.037-.69-.346-.173-1.036.69.346.173zM83.45 99.28l2.073-1.21-.346-.172-2.072 1.209.345.173zm1.555-2.937l-1.9 1.037.345.172 1.9-1.036-.345-.173zm-8.29 1.727l.863-.518 2.418-1.381-.346-.173-2.072 1.209-1.036.518.172.346zm5.872-.345l-2.418 1.382-.864.518.345.173 1.21-.691 2.072-1.21-.345-.172zm-4.491 1.21l1.382-.865 1.554-.863-.345-.173-2.245 1.382-.691.345.345.173zm3.109 1.726l1.727-1.036-.345-.173-1.728 1.037.346.172zm.864-6.045l-.691.346-.173.172-1.21.691.346.173 1.21-.691.172-.173.691-.345-.345-.173zm5.181 4.49l-1.209.692.346.172 1.381-.863.691-.346-.345-.172-.864.518zm-1.727 1.037l-2.073 1.209-.69.346.345.172.69-.345 2.073-1.209-.345-.173zm.69 1.382l-1.9 1.036.346.173 1.9-1.036-.345-.173zm2.592-1.555l-2.073 1.209.345.173 2.246-1.209 1.382-.863-.346-.173-1.554.863zm1.381 3.109l1.9-1.036-.345-.173-1.9 1.037.345.172zm-1.036.173l-1.9 1.036.346.173 1.9-1.036-.346-.173zm1.727-2.418l-.345-.173-.864.518-1.209.691.346.173 1.209-.691.863-.518zm-3.109 1.382l-2.072 1.209.345.173 2.073-1.21-.346-.172zm8.636 1.209l-1.554.863.345.173 1.21-.691.863-.518-.346-.173-.518.346zm-.345 2.418l-.346-.173-1.381.864.345.172 1.382-.863zm-2.246-2.245l1.555-.864-.346-.173-1.9 1.037-3.627 2.072.346.173 3.972-2.245zm4.491 2.59l1.9-1.036-.345-.173-1.9 1.037.345.172zm-6.218.173l-.345-.173-.518.346.345.172.518-.345zm2.246-1.727l-2.073 1.209.345.173 2.073-1.209-.346-.173zm3.8-.518l-1.9 1.036.345.173 1.9-1.037-.346-.172zm-3.628 4.318l.691-.346-.345-.173-.691.346.345.173zm-1.554-.864l1.036-.518-.345-.173-1.037.518.346.173zm2.936.173l1.9-1.209-.346-.173-1.9 1.209.346.173zM77.06 85.808l-1.382.863.345.173 1.382-.864-.345-.172zm-1.555-.864l-2.59 1.554.345.173 2.59-1.554-.345-.173zm-.345 2.073l-.691.518.345.172.691-.518-.345-.172zm-2.764-1.555l2.073-1.209-.345-.173-2.073 1.21.345.172zm-.863-1.209l1.554-.864-.345-.172-1.555.863.346.173zm13.126 9.154l.691-.518-.345-.173-.691.519.345.172zm1.382-.69l1.382-.864-.346-.173-1.381.863.345.173zm2.936 1.726l1.555-.863-.346-.173-1.554.864.345.172zm-1.9-.69l1.728-1.037-.346-.172-1.727 1.036.345.173zm-.863.172l-.691.346.345.172.691-.345-.345-.173zm5.354.346l-2.073 1.209.346.172 2.073-1.209-.346-.172zm-3.627.345l-.69.346.344.172.691-.345-.345-.173zm7.427 3.627l1.554-.863-.345-.173-1.555.864.346.172zm-1.036.173l-.691.345.345.173.691-.345-.346-.173zm-2.246-2.073l-.69.519.345.172.69-.518-.345-.173zm2.936 0l-1.381.864.345.173 1.382-.864-.346-.173zm-1.036-.69l-.345-.173-.864.518.346.173.863-.519zm3.109 3.454l1.555-.864-.346-.172-1.554.863.345.173zm3.973 3.281l-.691.346.345.173.691-.346-.345-.173zm-2.937-1.381l2.591-1.555-.345-.172-2.591 1.554.345.173zm2.418 0l.346.172 1.382-.863-.346-.173-1.382.864zm-1.036 1.036l.691-.518-.345-.173-.691.518.345.173zm4.318 1.036l1.554-.863-.345-.173-1.554.864.345.172zm-1.9-.691l1.727-1.036-.345-.173-1.727 1.037.345.172zm.518 1.382l.691-.345-.345-.173-.691.346.345.172zM81.205 81.835l-2.936 1.727.345.173 2.936-1.727-.345-.173zm-1.555 2.59l.346.174.69-.346 2.592-1.382-.346-.172-2.073 1.209-1.209.518zm1.555-6.217l-2.245 1.209-1.382.864.345.172 1.382-.863 2.245-1.21-.345-.172zm4.318 2.764l-.518.345-1.555.864.346.172 1.209-.69.863-.519-.345-.172zm-7.081.69L76.714 82.7l.346.172 1.727-1.036 2.072-1.209-.345-.173-2.072 1.21zm2.59-1.554l.346.173 1.036-.691-.345-.173-1.037.69zm1.037 1.554l1.9-1.036-.346-.173-1.9 1.037.346.172zm-6.564.346l1.9-1.036-.345-.173-1.9 1.036.345.173zM96.75 87.88l-1.9 1.037.345.172 1.9-1.036-.345-.173zm2.936 2.073l1.036-.691-.345-.173-1.037.691.346.173zm-2.764 1.727l2.073-1.209-.346-.173-2.072 1.21.345.172zm1.555-3.109l-1.9 1.036.345.173 1.9-1.036-.345-.173zm-8.463 1.727l.863-.518 2.418-1.382-.345-.172-2.073 1.209-1.036.518.173.345zm6.045-.345l-2.418 1.382-.864.518.346.172 1.209-.69 2.072-1.21-.345-.172zm-4.491 1.209l1.382-.864 1.554-.863-.345-.173-2.246 1.382-.69.345.345.173zm2.936 1.727l1.727-1.036-.345-.173-1.727 1.036.345.173zm1.037-6.045l-.691.345-.173.173-1.21.69.346.174 1.21-.691.172-.173.691-.345-.345-.173zm5.181 4.49l-1.209.691.346.173 1.381-.863.691-.346-.345-.173-.864.519zm-1.9 1.037L96.75 93.58l-.691.345.345.173.691-.345 2.073-1.21-.346-.172zm.691 1.382l-1.9 1.036.346.173 1.9-1.037-.346-.172zm2.764-1.555l-2.073 1.21.345.172 2.246-1.21 1.381-.863-.345-.172-1.554.863zm1.209 3.109l1.899-1.036-.345-.173-1.9 1.036.346.173zm-.864.173l-1.9 1.036.346.173 1.899-1.036-.345-.173zm1.554-2.246l-.345-.172-.864.518-1.209.69.346.173 1.209-.69.863-.519zm-2.936 1.21l-2.072 1.209.345.172 2.073-1.209-.346-.173zm8.636 1.209l-1.554.863.345.173 1.209-.691.864-.518-.346-.173-.518.346zm-.518 2.417l-.345-.172-1.382.863.345.173 1.382-.864zm-2.073-2.245l1.555-.863-.346-.173-1.899 1.036-3.628 2.073.346.172 3.972-2.245zm4.491 2.591l1.9-1.036-.345-.173-1.9 1.036.345.173zm-6.218.173l-.345-.173-.518.345.345.173.518-.345zm2.073-1.727l-2.073 1.209.346.172 2.072-1.209-.345-.172zm3.972-.519l-1.9 1.037.346.172 1.9-1.036-.346-.173zm-3.627 4.318l.691-.345-.345-.173-.691.346.345.172zm-1.554-.863l1.036-.518-.345-.173-1.037.518.346.173zm2.763.172l1.9-1.209-.345-.172-1.9 1.209.345.172zM90.532 78.208l-1.382.864.345.172 1.382-.863-.345-.173zm-1.555-1.036l-2.59 1.554.345.173 2.59-1.555-.345-.172zm-.518 2.072l-.69.518.345.173.69-.518-.345-.173zm-2.59-1.382l2.072-1.209-.346-.172-2.072 1.209.345.172zm-1.037-1.209l1.555-.863-.346-.173-1.554.864.345.172zm13.3 8.982l.69-.518-.345-.173-.691.518.345.173zm1.381-.691l1.382-.864-.346-.172-1.381.863.345.173zm2.764 1.727l1.554-.864-.345-.172-1.555.863.346.173zm-1.728-.69l1.728-1.037-.346-.173-1.727 1.037.345.172zm-.863.172l-.691.345.345.173.691-.345-.345-.173zm5.354.345l-2.073 1.21.346.172 2.072-1.209-.345-.173zm-3.627.346l-.691.345.346.173.69-.345-.345-.173zm7.427 3.627l1.554-.864-.345-.172-1.555.863.346.173zm-1.036.173l-.691.345.345.173.691-.346-.345-.172zm-2.246-2.073l-.691.518.346.173.691-.518-.346-.173zm2.936 0l-1.381.864.345.172 1.382-.863-.346-.173zm-1.036-.69l-.345-.174-.864.519.346.172.863-.518zm2.936 3.454l1.555-.864-.346-.173-1.554.864.345.172zm3.973 3.454l-.691.345.345.173.691-.345-.345-.173zm-2.764-1.555l2.591-1.554-.345-.173-2.591 1.555.345.172zm2.418 0l.346.173 1.382-.864-.346-.172-1.382.864zm-1.036 1.037l.691-.518-.345-.173-.691.518.345.173zm4.145 1.036l1.555-.864-.346-.172-1.554.863.345.173zm-1.727-.69l1.727-1.037-.345-.173-1.727 1.036.345.173zm.518 1.554l.691-.346-.345-.172-.691.345.345.173zM90.704 131.06l-1.554.863.345.173 1.21-.691.863-.518-.345-.173-.519.346zm-.518 2.245l-.345-.173-1.382.864.346.173 1.381-.864zm-2.072-2.073l1.554-.863-.345-.173-1.9 1.036-3.627 2.073.345.173 3.973-2.246zm4.49 2.591l1.9-1.036-.345-.173-1.9 1.036.345.173zm-6.218.173l-.345-.173-.518.346.345.172.519-.345zm2.073-1.727l-2.073 1.209.346.172 2.073-1.209-.346-.172zm3.973-.518l-1.9 1.036.345.173 1.9-1.037-.345-.172zm-3.627 4.318l.69-.346-.345-.173-.69.346.345.173zm-1.555-.864l1.036-.518-.345-.173-1.036.518.345.173zm2.764 0l1.9-1.209-.346-.173-1.9 1.209.346.173zm5.181-5.182l-.69.346.345.173.69-.346-.345-.173zm-2.763-1.381l2.59-1.555-.345-.173-2.59 1.555.345.173zm2.418 0l.345.172 1.382-.863-.346-.173-1.381.864zm-1.037 1.036l.691-.518-.345-.173-.691.518.345.173zm4.146 1.036l1.554-.863-.345-.173-1.555.864.346.172zm-1.728-.863l1.728-1.037-.346-.172-1.727 1.036.345.173zm.519 1.554l.69-.345-.345-.173-.69.345.345.173zm7.254-8.118l-1.555.864.346.173 1.209-.691.863-.518-.345-.173-.518.345zm-.346 2.418l-.345-.172-1.382.863.346.173 1.381-.864zm-2.072-2.245l1.554-.863-.345-.173-1.9 1.036-3.627 2.073.345.172 3.973-2.245zm4.49 2.591l1.9-1.036-.345-.173-1.9 1.036.345.173zm-6.39.173l-.346-.173-.518.345.346.173.518-.345zm2.245-1.728l-2.072 1.209.345.173 2.073-1.209-.346-.173zm3.8-.518l-1.9 1.037.345.172 1.9-1.036-.345-.173zm-3.627 4.318l.691-.345-.346-.173-.691.345.346.173zm-1.382-.863l1.036-.519-.345-.172-1.036.518.345.173zm2.764 0l1.899-1.209-.345-.173-1.9 1.209.346.173zm5.181-5.182l-.691.346.346.172.691-.345-.346-.173zm-2.763-1.382l2.59-1.554-.345-.173-2.591 1.555.346.172zm2.245 0l.345.173 1.382-.864-.345-.172-1.382.863zm-.864 1.037l.691-.519-.345-.172-.691.518.345.173zm2.418.345l1.728-1.036-.346-.173-1.727 1.036.345.173zm7.773-6.736l-1.555.864.346.172 1.209-.691.863-.518-.345-.172-.518.345zm-.518 2.418l-.346-.173-1.382.864.346.173 1.382-.864zm-2.073-2.245l1.554-.864-.345-.345-1.9 1.036-3.627 2.073.345.172 3.973-2.072zm-1.9 2.763l-.345-.172-.519.345.346.173.518-.346zm2.245-1.727l-2.072 1.209.345.173 2.073-1.209-.346-.173zm3.973-.518l-1.9 1.036.345.173 1.9-1.036-.345-.173zm-5.182 3.454l1.037-.518-.346-.173-1.036.519.345.172zm7.945-5.009l-.69.346.345.173.691-.346-.346-.173zm-2.763-1.381l2.591-1.555-.346-.172-2.59 1.554.345.173zm2.245-.173l.346.173 1.381-.864-.345-.173-1.382.864zm-.863 1.036l.691-.518-.346-.173-.691.519.346.172zm2.418.346l1.727-1.037-.346-.172-1.727 1.036.346.173zm7.772-6.736l-1.554.863.345.173 1.209-.691.864-.518-.346-.173-.518.346zm-.345 2.418l-.346-.173-1.382.864.346.172 1.382-.863zm-2.073-2.246l1.554-.863-.345-.173-1.9 1.036-3.627 2.073.345.173 3.973-2.246zm-1.9 2.764l-.345-.173-.518.346.345.172.518-.345zm2.245-1.727l-2.072 1.209.345.173 2.073-1.21-.346-.172zm3.8-.346l-1.9 1.037.346.172 1.9-1.036-.346-.173zm-5.009 3.282l1.037-.518-.346-.173-1.036.518.345.173zm7.945-5.009l-.69.346.345.172.691-.345-.346-.173zm-2.763-1.382l2.591-1.554-.346-.173-2.59 1.555.345.172zm2.245-.172l.346.172 1.381-.863-.345-.173-1.382.864zm-.863 1.036l.691-.518-.346-.173-.691.518.346.173zm2.418.345l1.727-1.036-.345-.173-1.728 1.037.346.172z" fill="#3A3737"/><path opacity=".7" d="M92.777 125.36c-4.318 2.418-4.318 6.563 0 8.981s11.399 2.418 15.717 0c4.318-2.418 4.318-6.563 0-8.981s-11.4-2.591-15.717 0zm15.199 8.809c-4.145 2.418-10.881 2.418-15.026 0-4.146-2.418-4.146-6.218 0-8.636 4.145-2.418 10.881-2.418 15.026 0s4.145 6.218 0 8.636zm-12.781-1.209c2.936 1.727 7.772 1.727 10.708 0 2.937-1.727 2.937-4.491 0-6.218-2.936-1.727-7.772-1.727-10.708 0s-2.936 4.491 0 6.218zm1.554-5.182c2.073-1.209 5.355-1.209 7.427 0 2.073 1.209 2.073 3.109 0 4.318-2.072 1.209-5.354 1.209-7.427 0-1.9-1.209-1.9-3.282 0-4.318zm-2.072-1.382l-.864-.518.173-.172.69.345.346-.173h.173c0 .173-.518.518-.518.518zm.863-.345c.173-.173.346-.173.346-.173v-.172l-.173-.173h-.518s-.173 0-.173.173v.172l.173.173h.345zm-.518-.345l.173-.173.345.173-.172.172-.346-.172zm.864 0l-.518-.519h.518-.173s-.173 0 0 .173l.346.346c.172 0 0 .172-.173 0 .173.172.173.172 0 0zm.69-.173h.173l.346-.173v-.173l-.346.173-.172.173c0-.173.518-.346.518-.346l-.173-.172-.173-.173h-.345c-.173 0-.173 0-.173.173v.172l.173.173c0 .173 0 .173.173.173zm-.172-.346l.173-.172c.172.172 0 .172-.173.172zm.864.173l-.173-.518h.691s0-.173.172-.173h.346s.173 0 .173.173l.172.345h-.172l-.173-.345h-.173c-.172 0-.172 0-.172.173l.172.345h-.172l-.173-.345h-.173c-.173 0-.173 0-.173.172l.173.346c0-.173-.173-.173-.345-.173zm1.727-.864s-.173-.172 0 0c0-.172.172-.172 0 0 .172-.172.172 0 .172 0h-.172zm.172.691l-.172-.518h.172l.173.518c0-.172-.172 0-.172 0zm.346 0h.173v-.172h.691v-.346s0-.173-.173-.173h-.518c-.173 0-.173.691-.173.691zm.345-.518h.173v.173h-.345l.172-.173c-.172 0-.172 0 0 0zm.519 0c0-.173 0-.173 0 0 .172-.173.172-.173.345-.173h.345c0 .173-.345.173-.345.173h-.173.346v.173c0 .173-.173.173-.346.173h-.345c0-.173.345-.173.345-.173h.173-.173c0-.173-.172-.173-.172-.173zm.863.173v-.346h.173v.346h.345v-.346h.173v.519h-.518l-.173-.173c0 .173 0 0 0 0zm.864.173l.172-.519h.519c.172 0 .172 0 .172.173h.173c.173 0 .173 0 .173.173v.173l-.173.345h-.173l.173-.345c-.173-.173-.345 0-.345 0l-.173.345h-.173l.173-.345c-.173-.173-.346 0-.346 0l-.172.345c.172-.173 0-.173 0-.345 0 .172 0 .172 0 0zm1.9.345c0 .173 0 .173 0 0l.345.173h.173l.172.173.691-.691h-.172l-.173.172-.173-.172h-.345s-.173 0-.173.172l-.345.173zm.172 0l.173-.173h.173c.172 0 .172 0 .172.173l-.172.173-.346-.173zm1.382.346l.173-.173v-.173l-.173-.173h-.345s-.173 0-.173.173l-.173.173v.173l.173.172h.345s.173 0 .173-.172zm-.518 0l.173-.173h.172c0 .173-.172.173-.172.173h-.173zm1.382-.346l-.691.691h-.173l.691-.691h.173zm0 .346h-.173l-.173.172s-.173.173 0 .173l.173.173h.518l.173-.173v-.173l-.173-.172h-.345zm.172.345l-.172.173h-.173c-.173-.173.173-.346.173-.346l.172.173c0-.173 0-.173 0 0zm.691.173s.173 0 0 0h.173c.173.172 0 .172-.173 0 .173.172 0 .172 0 0 0 0-.172 0-.172.172l-.519.173h-.172c.172-.173.691-.518.863-.345 0-.173 0 0 0 0zm-.172.691s.172 0 0 0h.518v-.346h.518l.173.173h-.173l-.173-.173h-.173v.346h-.69zm1.554 0c.173 0 .173 0 0 0 .173.172 0 .172 0 .172s-.173-.172 0-.172c-.173 0 0 0 0 0zm-1.036.345l.863-.345.173.172c-.173 0-.864.346-1.036.173 0 .173 0 0 0 0zm1.209 0c.172 0 .172 0 0 0 .172.173 0 .173 0 .173v.172h-.173l-.173-.172-.345.172c0 .173-.173.173-.173.173l-.173-.173.173-.172.346-.173c0-.173.172-.173.172-.173a.536.536 0 00.346.173zm-.346.691c-.172 0-.172 0-.172.173v.172h.172v.173l.864-.173-.173-.345-.173-.173h-.172l-.346.173zm.691.173c0 .172-.345.172-.345.172h-.173c0-.172.345-.345.518-.172-.173-.173-.173-.173 0 0-.173 0-.173 0 0 0zm.346.345v.345c.172 0 .172 0 .172.173v.173h-.863v-.173l.691-.173c0-.172 0-.172-.173-.172h-.518v-.173l.691-.173c0-.172 0-.172-.173-.172h-.518v-.173c-.173.518.691.518.691.518zm-.346.864h-.173v.345h.173v-.173c-.173 0 0 0 0-.172 0 .172.173.518.173.518h.518v-.346s0-.172-.173-.172h-.518zm.518.172c-.172.173-.172.173 0 0l-.172.173v-.173h.172c-.172 0-.172 0 0 0-.172 0 0 0 0 0zm.173.346h.173v.172s-.173 0-.173-.172v.172h-.173v-.172h-.691c0 .172-.172.172-.172.172v-.172h1.036zm-1.209.345h.518v.173h-.173c-.172 0-.172 0-.345-.173zm.691.518h.173v.346h-.173v-.173c-.173 0-.346-.173-.346-.173h-.172l-.173.173h-.173v-.173s0-.172.173-.172h.173l.518.172zm-.518.346h-.173s-.173 0-.173.173v.345s.173 0 .173.173h.518s.173 0 .173-.173v-.345h-.173l-.345-.173zm.345.345h-.518c0-.173 0-.172.173-.172l.345.172zm-.863.173l.863.173v.172l-.173.173c-.172.173-.172.173-.518.173l-.518-.173v-.173l.691.173h.173c.172-.173.172-.173 0-.173l-.518-.345zm.172.691c.173 0 .346 0 .346.173v.172l-.173.173h-.173l.173-.173c-.173-.172-.173-.172-.173-.345l-.345.173h-.346c-.172 0-.172-.173 0-.173l.173-.173h.173l-.173.173h.518c-.172 0-.172 0 0 0zm-.863.173h-.173l-.173.172h.173l.345-.172c-.172.172-.172.172-.172 0 .172.172-.173.345-.173.345l.173.173h.518v-.173l-.173-.173-.345-.172s.172 0 0 0zm.345.345l-.173.173c0-.173.173-.173.173-.173zm-.691.173l.346.172s.172 0 .172.173 0 .173-.172.173h-.346l.173-.173c0-.173-.345-.173-.173-.345l-.172.172-.173.173h-.173l.173-.173h.173c0-.172.172-.172.172-.172zm-.172.518c.172 0 .172 0 0 0 0 .173.172.173.172.173l-.172.172h-.519l.173-.172-.345-.173h-.346 1.037zm-1.21 0l-.345.173v.172c.173 0 .518-.172.345-.345.173.173.173 0 .173.173.173 0-.345.172-.345.172l.172.173h.519s.172 0 .172-.173v-.172l-.172-.173h-.519zm.519.345c-.173.173-.173.173 0 0-.346 0-.173 0 0 0-.173 0 0 0 0 0zm-.519.346s.173 0 0 0c0 .172.173.172.173.172l-.173.173-.172-.173h-.346.173l-.173-.172h-.345.863zm-.863 0l.345.345h-.172l-.346-.345h-.173c-.172 0-.172 0-.172.172l.345.346h-.173l-.518-.518h.691c.173-.173.173-.173.173 0zm-.864 0l.346.518h-.518.172s.173 0 0-.173l-.172-.345h.172zm-.518.345s0-.173 0 0c-.173-.173-.345-.173-.345-.173h-.518l.345.519h.518c.173 0 .173 0 .173-.173v-.173h-.173zm-.173 0l.173.173-.173.173-.172-.173v-.173h.172zm-.863 0h-.691l.173.691h.172v-.345h.691v-.173l-.345-.173c0 .173 0 0 0 0zm-.173.173v.173c-.345.172-.345 0-.345 0v-.173s0-.173.172-.173l.173.173zm-.863 0c.172 0 .345.518.345.518h-.173c-.172 0-.345-.518-.172-.518-.173 0 0 0 0 0zm.172.518c.173 0 .173.173 0 0 .173.173 0 .173 0 0-.172.173-.172 0-.172 0h.172zm-.518-.691h-.173v.173h-.69v.345s0 .173.172.173h.518c.346 0 .173-.691.173-.691zm-.345.518h-.173v-.172h.518l-.345.172c.172 0 .172 0 0 0zm-.864.346c.173 0 .173.172.173.172 0-.172-.173-.172-.173-.172zm.346-.691v.518h-.173v-.518h.173zm-.519.518h-.518c0-.173.346-.173.346-.173l.172.173-.172-.173h-.346v-.172c0-.173.173-.173.346-.173h.345c0 .173-.345.173-.345.173h-.173.345v.345zm-.69-.518l-.173.518h-.173l.173-.518c0-.173.172-.173.172 0 0-.173 0 0 0 0zm-.346.518c.173 0 .173.173 0 0 0 .173-.173.173 0 0-.173.173-.173 0 0 0-.173 0 0 0 0 0zm-.345-.173h-.519c0-.172.346 0 .346 0h.173c-.173-.172 0-.345 0-.345l-.346-.173c0-.173.346 0 .346 0h.172v.173l-.172.345zm-1.037 0c.173 0 .173.173 0 0 0 .173-.172.173 0 0-.172.173 0 0 0 0zm.519-.518l-.346.518h-.173l.346-.518c0-.173.172-.173.172 0zm-1.037.346h-.173c-.172 0-.345-.173-.172-.173l.172-.346h.173l-.173.346c.346 0 .346 0 .173.173l.346-.519h.172l-.345.519h-.173zm-.345-.519s0-.172 0 0c0-.172 0-.172-.173-.172h-.345.172l.346.172h.172l-.345-.172h-.173s-.172 0-.172.172l-.519.519.346.172h.172c.173-.518.346-.518.519-.691zm-.346.173c-.172 0-.172 0 0 0h-.172l.172-.173h.173s-.173 0-.173.173zm-.69-.345l.172-.173v-.173l-.173-.172-.345-.173h-.173l.346.173c0 .172-.346 0-.346 0l-.172.172v.173l.172.173h.346c.172.172.172.172.172 0zm-.346 0c.173-.173.345 0 .345 0h-.345zm0-.518l-.864.518h-.172l.863-.518c0-.173.173-.173.173 0zm-1.21.345h-.172c0-.173.173-.173.173 0 0-.173.173-.173 0 0 .173-.173 0 0 0 0zm.692-.691s.172 0 0 0c.172.173-.518.518-.518.518h-.173c0-.172.69-.518.69-.518zm-1.037.346s-.172 0 0 0c-.172-.173 0-.173 0-.173h-.172.345l.346-.173v-.173h.172l.173.173s0 .173-.173.173l-.345.173v.172c-.173-.172-.346-.172-.346-.172zm.346-.691h.173l-.346.172h-.172c.172-.172.345-.172.345-.172zm-.864.172h-.172l-.173-.172h.173l.172.172c0-.172 0-.172 0 0v-.518h.519l.172.173h-.172l-.173-.173h-.173v.346h-.173c.173.172 0 .172 0 .172zm-.172-.518l.345-.172c.173 0 .173 0 .173-.173v-.173l-.173-.173h-.173l.173.173c-.173.173-.345-.173-.345-.173h-.346c-.172 0-.172 0-.172.173v.173s.172 0 .172.173c.173.172.173.172.346.172zm-.346-.172s.173-.173 0 0c.173-.173.346 0 .346 0-.173.172-.173.172-.346 0zm-.518-.519c0 .173.173.346.173.346h.518c.173 0 .173 0 .173-.173v-.173l-.173-.172h-.173v-.173l-1.209.345v.173c.173 0 .691-.173.691-.173zm.173.173c-.173-.173-.173-.173 0 0l.345-.173h.173c-.173 0-.346.173-.518.173zm-.691-1.036c0 .173 0 .345.173.345h.69v-.172l-.172-.173c.172 0 0-.173 0-.173l-1.382.173v.173c.173 0 .69-.173.69-.173zm.173 0h.518c0 .173-.346.173-.346.173h-.172v-.173zm.345-.346h.173v-.345s0-.173-.173-.173h-.691v.346s0 .172.173.172h.518zm-.518-.172c0-.173.345-.173.345-.173h.173v.173h-.518c0 .172 0 .172 0 0 0 .172 0 .172 0 0zm.345-.346h.173v-.345h-.173v.345c0-.173-.172-.518-.172-.518h-.518v.345s0 .173.172.173h.518zm-.518-.173l.173-.172v.172c0 .173 0 .173-.173 0 .173.173 0 .173 0 0zm-.345-.345c-.173 0-.173-.173-.173-.173s.173 0 .173.173zm.172 0c0-.173 1.037-.173 1.037-.173v.173h-1.037zm.691-.173h-.69v-.172s.69 0 .69.172c0-.172 0-.172 0 0 .173-.345.173-.345 0-.345h-.518v-.173h1.037v.173c0 .173 0 .173-.173.173-.173.172-.346.172-.346.172zm-.345-.691h-.173v-.345h.173v.173h.173l.172-.173h.346c.172 0 .172.173.172.173v.172h-.172v-.172h-.173l-.173.172h-.345c.173 0 .173 0 0 0zm.864-.345l-.864-.173v-.172c.173-.173.173-.346.345-.346v-.173l.173-.172h.173l.518.172v.173l-.69-.173h-.174c-.172.173 0 .173 0 .173l.519.173v.173l-.691-.173h-.173c-.173.173 0 .173 0 .173l.864.345c.172 0 0 0 0 0zm.518-.864s.172 0 .172-.172v-.346l-.172-.172-.346-.173h-.172s-.173 0-.173.173v.345l.172.173.346.172c0 .173.173.173.173 0zm-.519-.172l.173-.173.346.173-.173.172-.346-.172zm1.037-.173h.172c.173-.173.346-.173.346-.173l-1.036-.518h-.173l.345.173h-.345c-.173 0-.173.173-.173.173l.173.172.345.173h.346zm-.518-.345c.172-.173.172-.173.345-.173l.173.173s.172 0 0 .172h-.173l-.345-.172z" fill="#4D6E98"/><path d="M141.311 106.706s-1.036 2.246-2.245 4.491h-.173c.345-1.036.345-1.727.518-1.9.345-.863.518-1.554.518-2.072h.173v-.346s0 .173-.173.518c-.863.691-6.218 4.491-5.527 6.218.173.346.518.518 1.036.691.346.173.691 0 1.209 0 .173 0 .173 0 .346-.173h.173c-.691.864-1.555 1.727-2.591 2.073-.691.173-1.382.345-2.073.173-.518-.173-.691-.346-.863-.519-.173-.172-.173-.518 0-.69l1.381-2.073v.864h.173l2.936-3.627h-.172c-.173.172-1.555 1.209-2.937 2.59a12.632 12.632 0 00-1.554 1.9l.173-.691h-.173l-.345.346c-.173 0-.519.518-1.037 1.036v-.345.69c-.173.346-.345.691-.518.864.173-2.073.173-4.491.173-4.663h-.173c-.173.172-4.491 4.836-3.109 6.563.173.345.691.518 1.209.691.346 0 .691 0 .864-.173.172 0 .345-.173.345-.173 0 .173-.173.173-.173.346-.345.173-1.036.173-1.381 0-.518-.173-.864-.346-1.209-.518h-.173c.345.345.691.518 1.209.691.518.172 1.209.172 1.554-.173.173 0 .173-.173.346-.518.345-.346.518-.864.691-1.382h.345c.173-.173.173-.691.173-1.209 0 0 .173 0 .345.173h.346c.173-.173.345-.346.345-.691v.345a.949.949 0 00.864.518c.691.173 1.554.173 2.245-.172 1.036-.346 1.9-1.209 2.591-2.073h.345s.173 0 .173-.173c0 .173-.173.173-.173.346 0 .172-.172.172-.172.345.172 0 .345-.173.345-.345a2.08 2.08 0 01.864-.864c.691-.691 1.381-1.382 1.036-1.9l-.173-.172c1.209-2.591 2.246-4.664 2.073-4.837.173 0 .173 0 0 0 .173 0 0 0 0 0zm-8.118 5.873c.864-.864 1.9-1.727 2.418-2.245l-2.418 3.108v-.863zm-1.9 1.727c.173-.173.173-.173.346-.173l-.173.691c-.173-.345-.173-.518-.173-.518zm-2.245 4.145c-.173.173-.346.346-.518.346-.173.172-.518.172-.864 0-.518-.173-.863-.346-1.036-.518-1.209-1.555 2.245-5.527 2.936-6.391 0 1.727-.173 5.181-.518 6.563zm.518-1.554c0 .518-.173.863-.345 1.209 0-.346.172-.864.172-1.382 0 0 .173 0 .173.173zm.173 0c-.173-.173 0-.691.172-1.037 0 .173 0 .691-.172 1.037zm.345 0h-.173c.173-.518.173-1.037.173-1.382.173.691.173 1.382 0 1.382zm.864-1.037h-.346c-.172 0-.172.001-.345-.172-.173-.346.345-1.037.864-1.382.172.518.172 1.382-.173 1.554zm6.563-1.899h-.173c.173-.346.346-.519.519-.864.345-.518.69-1.209 1.036-1.727-.173.518-.346 1.209-.518 1.554 0 .173-.173.346-.173.346l-.691.691zm-.691-.173c-.173 0-.173-.173-.173-.346-.172-.518.346-1.554 1.21-2.072h.172c.173-.173.518-.173.691-.173-.345.691-.518 1.209-1.036 1.9-.346.173-.518.518-.864.691zm2.246-2.591c0 .173 0 .346-.173.518 0-.172 0-.345.173-.518zm.345.346c.345.345-.345 1.036-1.036 1.727l-.346.345c0-.173.173-.173.173-.345 0 0 0-.173.173-.173.345-.691.518-1.209 1.036-1.554-.173-.173 0-.173 0 0zm-.691-.519c-.345 0-.518 0-.863.173h-.173c-.864.518-1.382 1.555-1.209 2.073 0 .172.172.172.172.345 0 0-.172 0-.172.173a1.1 1.1 0 01-1.037 0c-.518-.173-.863-.346-.863-.691-.691-1.554 3.972-5.009 5.181-5.872a21.174 21.174 0 01-1.036 3.799z" fill="#4D6E98"/><path d="M75.062 77.247l-36.816 21.21.086.15 36.816-21.21-.086-.15z" fill="#3A3737"/><path d="M32.97 92.394l4.211-2.432 5.195 2.999.656-.378 2.452 1.415-1.123.649-1.404-.81-3.838 2.215 1.404.81-1.123.649-2.453-1.416c.219-.119.337-.274.356-.465.012-.194-.056-.392-.206-.594-.23-.306-.702-.665-1.413-1.075l-2.715-1.567zm2.227-.076l1.666.962c.78.45 1.289.826 1.526 1.13.174.23.259.466.252.707l2.518-1.454-4.146-2.394-1.816 1.049zm6.383-1.858c.031-.458.387-.883 1.067-1.276a4.556 4.556 0 012.209-.616c.867-.025 1.626.15 2.274.524.643.371.943.807.9 1.308-.032.457-.388.883-1.068 1.275a4.557 4.557 0 01-2.209.616c-.867.026-1.622-.147-2.265-.519-.65-.374-.952-.812-.908-1.313zm3.22.907c.443.004.827-.088 1.151-.275.325-.188.484-.41.477-.665-.006-.256-.165-.474-.477-.654-.318-.184-.699-.277-1.142-.28-.443-.004-.827.087-1.151.275-.325.187-.484.409-.477.664.006.256.168.476.486.66.312.18.69.272 1.133.275zm5.236-1.617l-4.053-2.34 2.583-1.492.973.562-1.441.832 3.08 1.778-1.142.66zm-.056-4.14c.032-.458.387-.883 1.068-1.275a4.556 4.556 0 012.209-.616c.867-.026 1.625.149 2.274.524.643.37.942.807.899 1.307-.032.458-.387.883-1.067 1.276a4.556 4.556 0 01-2.21.616c-.867.025-1.622-.148-2.265-.52-.649-.374-.951-.811-.908-1.312zm3.22.908c.443.003.827-.089 1.152-.276.324-.187.483-.409.477-.665-.006-.255-.165-.473-.477-.653-.319-.184-.7-.278-1.142-.282-.443-.003-.827.089-1.152.276-.324.187-.483.409-.477.665.006.255.168.475.487.659.312.18.69.272 1.132.276zm1.183-3.958l1.788-1.032c.43-.249.833-.387 1.207-.416.462-.036.858.041 1.19.232.174.101.29.226.346.373.056.14.03.285-.075.433.237-.094.502-.146.795-.157a1.97 1.97 0 011.067.26c.38.219.537.475.468.766-.062.238-.277.463-.646.676L58.436 84.9l-4.053-2.34zm2.752.27l.524-.302c.119-.069.194-.14.225-.216.037-.094-.006-.177-.131-.249a.691.691 0 00-.421-.092c-.107.011-.24.063-.403.157l-.505.292.711.41zm1.544.892l.534-.308c.193-.112.3-.213.318-.303.025-.1-.034-.192-.178-.275a.677.677 0 00-.44-.081c-.15.014-.311.072-.486.173l-.562.324.814.47zm.891-3.648c.03-.457.386-.882 1.066-1.275a4.556 4.556 0 012.21-.616c.867-.025 1.625.15 2.274.524.643.371.942.807.898 1.308-.03.457-.386.882-1.067 1.275a4.556 4.556 0 01-2.209.616c-.867.025-1.622-.148-2.265-.519-.649-.374-.951-.812-.908-1.313zm3.22.908c.442.004.826-.088 1.15-.276.325-.187.484-.409.478-.664-.006-.256-.166-.474-.478-.654-.318-.184-.698-.278-1.142-.281-.443-.004-.826.088-1.15.275-.325.188-.484.41-.478.665.006.256.168.476.486.66.313.18.69.271 1.133.275zm5.853-2.579l2.667 1.54-1.142.659-6.196-3.578 1.142-.659.524.303c-.131-.429.09-.809.665-1.14.561-.325 1.204-.487 1.928-.487.811 0 1.55.193 2.218.579.687.396 1.02.834 1.002 1.313-.025.418-.31.783-.852 1.097-.543.313-1.195.437-1.956.373zm-1.638-2.113c-.294.169-.45.363-.468.583-.038.274.124.515.486.724.368.213.787.31 1.255.292a2.17 2.17 0 001.02-.275c.306-.177.465-.38.477-.611.019-.263-.15-.497-.505-.703a2.277 2.277 0 00-1.198-.291 2.22 2.22 0 00-1.067.28z" fill="#090909"/><defs><linearGradient id="paint0_linear_222_58357" x1="39.029" y1="72.231" x2="40.942" y2="75.543" gradientUnits="userSpaceOnUse"><stop stop-color="#F7F6F3"/><stop offset="1" stop-color="#F0EFEC"/></linearGradient></defs></svg>