<svg width="170" height="170" fill="none" xmlns="http://www.w3.org/2000/svg"><path d="M120.016 119.553c-6.63-3.76-17.216-3.859-23.747 0-6.53 3.759-6.53 9.892.1 13.751 6.628 3.759 17.215 3.858 23.746 0 6.53-3.859 6.53-9.992-.099-13.751z" fill="#D5D3D3"/><path d="M106.757 40.112s-3.76-1.286-7.52 1.583c-3.76 2.869-9.795 6.826-9.795 6.826s-2.176-1.187-2.374-1.385c-.198-.198-3.562-5.144-3.562-5.144s-4.552.593-4.849 2.176c-.296 1.583 1.88 6.43 1.88 6.43s4.057 5.046 5.244 5.244c1.188.198 8.51-1.88 10.983-2.87 2.474-.89 5.343-4.55 5.343-4.55l4.65-8.31z" fill="#BCBCBC"/><path d="M74.304 40.112c0 .099-.099.198-.099.396s.198.395.297.593c.198.297.099.693.198 1.089.099.099.099.197.198.395.099.297.198.594.198.89.098.297.197.693.494.891.297.297.693.594 1.088.396.297-.1.396-.396.495-.693.594-1.484 1.089-3.067 1.089-4.65 0-.197 0-.494-.198-.593-.1-.198-.396-.198-.594-.198-.692-.099-1.385-.099-2.078.297-.494.099-.791.495-1.088 1.187z" fill="#FFAE75"/><path d="M108.538 41.398s-2.077 1.583-2.473 2.473c-.396.792 0 1.88 1.781 2.177 1.682.296 3.661.197 6.728-.693 3.067-.99 3.562-1.978 3.265-2.77-.297-.791-.396-1.682-1.979-1.682-1.682 0-7.322.495-7.322.495z" fill="#157A2C"/><path d="M109.33 118.168s.989.494.89 1.583c-.099 1.088-.791 2.176-2.078 2.77-1.286.593-3.759 1.187-4.65 1.978-.89.792-4.65 2.671-6.233 2.375-1.583-.198-1.781-1.286-1.98-1.781-.098-.495.1-2.177.1-2.177l13.951-4.748zm-.891 8.706s-.989.395-1.286.593c-.297.297-.198 1.979.099 2.276.297.296 2.078 1.583 4.749 1.286 2.672-.297 3.067-1.286 3.661-2.375.594-1.187 1.781-3.363 2.078-3.759.297-.396.989-1.484 1.088-1.88.099-.296.297-1.879-.396-1.978-.791-.099-9.993 5.837-9.993 5.837z" fill="#9F7A2C"/><path d="M102.799 116.387l-.989 1.583-1.781 1.484c-.594.396-2.968 1.088-3.66 1.88-.693.89-1.09 1.582-1.09 2.572 0 .989.594 1.879 2.474 1.78 1.781-.098 4.156-1.088 5.739-1.978 1.484-.89 3.364-1.781 4.354-2.078 1.088-.296 2.077-1.286 2.077-2.473.099-1.286-.791-2.077-.89-2.077-.099-.099-6.234-.693-6.234-.693zm8.806 4.353s-.791.594-.989 1.682c-.198 1.088-3.463 4.551-3.463 5.045 0 .495.396 1.484 2.276 2.078 1.88.494 4.155 0 5.145-.99.989-.989 2.275-2.572 2.473-3.264.198-.693 1.88-2.671 1.88-3.067 0-.396-.89-2.276-.89-2.276l-6.432.792z" fill="#514018"/><path d="M114.178 39.815s-4.452-1.582-7.223-.692c-2.77.89-5.64 1.187-7.025 3.858-1.385 2.671-2.177 3.957-1.979 8.904.198 4.847 1.485 9.695 1.485 12.663 0 2.869-.1 6.43-.1 6.43s.594 2.77 6.828 3.364c6.134.495 9.3.791 11.675.198 2.375-.594 2.77-3.364 2.77-3.364l.396-12.86s2.672-8.805 2.375-10.388c-.297-1.583-1.88-4.254-4.848-6.035-2.87-1.78-4.354-2.078-4.354-2.078z" fill="#9C9C9C"/><path d="M108.142 39.914s-.89.297-2.77 3.66c-1.88 3.364-4.254 9.003-4.551 13.554-.297 4.55.395 14.74.395 14.74S99.633 70.78 99.534 69c-.099-1.682-.989-11.575-.395-16.126.494-4.55 4.65-12.267 5.54-12.86.792-.792 3.463-.1 3.463-.1z" fill="#157A2C"/><path d="M115.365 40.211s1.682.198 1.781 1.484c.099 1.286-1.88 5.144-6.827 5.738-4.947.593-5.343-1.979-5.343-2.869 0-.791.693-3.265 1.979-3.76 1.286-.593 8.41-.593 8.41-.593z" fill="#BCBCBC"/><path d="M108.044 37.441s.197 4.056 0 4.749c-.198.692-.99 2.176-.99 2.572.099.396 2.474.99 5.343.198 2.869-.792 4.354-2.177 4.156-2.671-.198-.594-.297-3.66-.198-4.65.099-.99 3.067-6.727 2.374-7.618-.791-.89-2.473-2.869-5.54-1.286-2.87 1.682-5.145 8.706-5.145 8.706z" fill="#DE9663"/><path d="M99.435 68.11s-1.088 4.649-1.187 9.002c-.099 4.353-.396 16.125.792 21.962 1.187 5.837 2.77 16.62 2.671 18.104 0 1.484 3.562 1.979 3.958 2.177.396.198 3.364-.297 4.057-.89.593-.594 1.088-14.642.89-17.313-.198-2.671-.89-16.62-.89-16.62l-2.474-11.773c.198 0-7.619 0-7.817-4.65z" fill="#026F1B"/><path d="M120.807 71.869s-8.806 1.78-13.357.989c-4.552-.791-4.156 3.76-3.958 6.925.099 2.177.594 7.024.989 8.112.495.99 4.255 7.717 4.255 10.091 0 2.374 2.177 23.051 2.078 23.446-.099.297 2.572 1.386 4.551 1.188 1.979-.198 3.166-1.089 3.463-2.474.396-1.385.594-13.355.594-14.839s-.891-4.353-.792-5.342c.099-.99.891-9.2 1.386-12.96.593-3.957.791-15.136.791-15.136z" fill="#157A2C"/><path d="M98.94 70.681l.792-16.916s4.552 3.462 9.202 4.451c4.65.99 4.156.693 4.156.693s.296 3.265 3.265 5.342c2.968 2.078 4.551-.198 4.551-.198l-.099 9.794s-11.082 2.968-15.336 1.583c-4.156-1.583-6.53-3.66-6.53-4.749z" fill="#157A2C"/><path d="M121.104 43.871s-1.88-.494-3.463 1.583c-1.484 2.078-3.859 10.289-4.354 14.048-.494 3.76-1.484 14.642-1.484 14.642h-2.968s.198-10.19 1.682-17.51c1.484-7.321 2.968-10.29 4.452-12.268 1.485-1.978 3.562-2.572 3.562-2.572s2.078 1.088 2.573 2.078z" fill="#157A2C"/><path d="M111.606 22.107c-.099 0-3.365-.198-4.453 2.67-1.088 2.87-1.583 11.378-1.187 13.159.396 1.78 4.353.989 5.936.494 1.583-.395 4.057-2.473 4.552-3.76.494-1.186 1.781-5.242 1.979-6.726.395-1.188-1.584-6.134-6.827-5.837z" fill="#FFAE75"/><path d="M83.506 39.815s-.693.594 0 1.089c.692.494 2.275 2.869 2.275 2.869l-4.749-2.375s-.593.396-.297.693c.297.395 3.562 3.264 3.562 3.264h-1.385l-2.77-1.978s-.99.494-.297 1.187c.692.791 3.067 2.275 3.067 2.275l.693 1.089-3.661-.99s-.297.99.198 1.286c.395.297 1.484.594 1.484.594s1.187-.099 1.979-.396c.791-.296 1.978-1.681 2.671-2.473.693-.791 1.583-1.88 1.188-2.671-.396-.495-3.958-3.463-3.958-3.463z" fill="#555"/><path d="M84.941 40.864c-.388-3.107-2.719-4.272-5.826-3.107-2.719-.388-4.272 1.942-3.884 4.66.388 3.496 3.107 5.826 5.826 5.05 2.719-.39 4.272-2.72 3.884-6.603z" fill="#39CB74"/><path opacity=".3" d="M76.391 41.25c.388 0 .388 0 .777-.388v-.777c-.389 0-.389 0-.777.388-.388.389-.388.777 0 .777z" fill="#fff"/><path d="M80.278 39.309c-.388.388-1.165.388-1.553.388-.389 0-.777-.777 0-1.166.388-.388 1.165-.388 1.553-.388.389.389.389.777 0 1.166z" fill="#128742"/><path d="M79.121 39.309c0-1.942-1.165-3.108-1.165-3.108 0-.388.777 0 .777 0 0 .389.777.777.388 3.108z" fill="#603913"/><path opacity=".3" d="M83 41.638c0-.777-1.554-4.274-3.884-2.72-1.553 1.943 2.33 1.554 3.884 2.72z" fill="#000"/><path d="M83.385 40.084c-.777-.776-2.33-2.329-4.273-1.164l-.388.388v.388c.388 1.165 5.05.777 5.05.777l-.39-.389c.39.389 0 .389 0 0z" fill="#306947"/><path d="M83.772 40.473s-2.33-3.495-4.273-1.553c-2.33 1.553 4.273 1.553 4.273 1.553z" fill="#4CB979"/><path d="M79.505 38.92c-.389 0 4.272 1.554 4.272 1.554s-4.272-1.943-4.272-1.554z" fill="#306947"/><path d="M93.499 50.599s-2.375-1.286-2.672-2.177c-.296-.89-2.572-4.65-2.671-4.847-.198-.198-.792-1.385-2.078-2.573-1.187-1.187-1.682-1.681-1.979-1.583-.297.1-.791.495-.593.89.296.397 1.682 1.782 1.682 1.782l1.484 2.473s-1.583-1.484-1.98-1.682c-.395-.198-2.572-1.682-2.967-1.78-.396 0-.89.593-.594.989.297.395 2.573 2.077 2.573 2.077l1.583 1.88s-1.287-.396-2.276-.89c-.89-.594-2.375-1.682-2.672-1.583-.296.098-.692.593-.395.989.296.396 2.374 1.682 2.374 1.682l1.88 1.78s-1.187-.197-1.78-.494c-.595-.297-2.178-1.187-2.375-.297-.198.791 1.187 1.484 1.78 1.682.594.198 2.573 1.088 2.77 1.286.199.198 1.287 1.583 2.079 2.176.791.495 4.254 2.375 4.254 2.375l2.573-4.155z" fill="#FFAE75"/><path d="M120.807 44.465s-4.057 2.374-6.728 5.342c-2.672 2.968-6.926 7.618-6.926 7.618s-8.41-3.562-9.795-4.551c-1.386-.99-4.75-3.66-4.75-3.66s-.099 1.385-.99 2.473c-.89 1.187-2.868 1.978-2.868 1.978s7.618 6.332 9.3 7.42c1.781 1.187 6.332 4.353 8.509 4.452 2.177.099 9.499-3.562 10.686-4.353 1.187-.791 4.947-3.957 5.739-6.727.692-2.87 2.869-9.497-2.177-9.992z" fill="#BCBCBC"/><path d="M117.443 30.615s-.198.099-.396.297c-.494.395-1.187.989-1.385 1.286-.198.395-.495 1.088-.495 1.088l-.989-.495s0-2.176-.396-2.77c-.297-.692 0-5.144 0-5.144s-3.562 0-4.65-.198c-.99-.297-1.583-.791-1.583-.791 0-.1-.99 3.165-.99 3.165s.099-2.176.297-2.968c.297-.791 2.177-4.155 7.223-3.561 5.046.495 6.332 2.572 6.332 2.572s1.781.396 1.484 3.265c-.296 2.869-1.385 6.133-2.473 7.914-.99 1.78-3.067 3.364-3.067 3.364s.296-2.473.395-2.671c.297-.297 2.177-3.067.693-4.353z" fill="#272727"/><path d="M117.641 30.813s1.088.791.594 1.78c-.495.99-1.583 2.276-1.781 2.375-.297.099-.891-.198-.99-.495 0-.396.495-1.88.495-1.88s1.286-2.473 1.682-1.78z" fill="#FFAE75"/><path d="M111.605 75.628s.495 4.946 2.969 7.024c2.473 2.077 3.166 1.978 3.166 1.978s-2.573-2.572-3.364-4.353c-.792-1.681-1.484-4.65-2.771-4.65z" fill="#026F1B"/><path opacity=".3" d="M75.193 149.538L45 131.999l20.647-11.766 29.97 17.317-20.424 11.988z" fill="#000"/><path d="M93.4 137.55l-17.983 10.435L47 131.556l18.205-9.768 28.194 15.762z" fill="#7A4100"/><path d="M47.443 127.338v5.106l-.888-.666v-4.884l.888.444z" fill="#E09A55"/><path d="M66.094 116.681v4.885l-18.65 10.878v-5.106l18.65-10.657z" fill="#A86732"/><path d="M65.203 116.015l.888.666-18.648 10.657-.888-.444 18.648-10.879z" fill="#E9B579"/><path d="M47.443 119.568v4.884l-.888-.666v-4.884l.888.666z" fill="#E09A55"/><path d="M66.094 108.691v5.106l-18.65 10.656v-4.884l18.65-10.878z" fill="#A86732"/><path d="M65.203 108.245l.888.444-18.648 10.878-.888-.666 18.648-10.656z" fill="#E9B579"/><path d="M50.996 131.778l-1.11.666-.666-11.322v-3.109l.666-.444 1.11-.888v15.097z" fill="#A86732"/><path d="M49.887 132.444l-1.332-.666v-15.097l1.332.888v14.875z" fill="#E09A55"/><path d="M50.997 116.681l-1.11.888-1.332-.888 1.332-.666 1.11.666z" fill="#E9B579"/><path d="M92.067 132.888v4.884l1.11-.444v-5.106l-1.11.666z" fill="#A86732"/><path d="M65.207 117.125v5.106l26.863 15.54v-4.884l-26.863-15.762z" fill="#E09A55"/><path d="M66.095 116.681l-.888.444 26.863 15.763 1.11-.666-27.085-15.541z" fill="#E9B579"/><path d="M92.067 124.898v4.884l1.11-.444v-5.106l-1.11.666z" fill="#A86732"/><path d="M65.207 109.357v4.884l26.863 15.54v-4.884l-26.863-15.54z" fill="#E09A55"/><path d="M66.095 108.691l-.888.666 26.863 15.54 1.11-.666-27.085-15.54z" fill="#E9B579"/><path d="M92.069 137.773l-1.11.666-.666-11.322v-3.109l.666-.443 1.11-.888v15.096z" fill="#A86732"/><path d="M90.96 138.439l-1.332-.666v-15.096l1.332.888v14.874z" fill="#E09A55"/><path d="M92.07 122.677l-1.11.888-1.332-.888 1.332-.667 1.11.667z" fill="#E9B579"/><path d="M66.534 122.898l-1.332.888-.666-11.544v-3.108l.666-.444 1.332-.888v15.096z" fill="#A86732"/><path d="M65.204 123.786l-1.332-.888v-15.096l1.332.888v15.096z" fill="#E09A55"/><path d="M66.536 107.801l-1.332.889-1.332-.889 1.332-.666 1.332.666z" fill="#E9B579"/><path d="M91.62 131.334c-.445-1.776-1.999-2.22-3.553-1.332-1.554 0-2.442 1.332-1.776 2.886.666 1.776 2.22 2.886 3.774 2.442 1.332-.444 1.998-1.776 1.554-3.996z" fill="#16A851"/><path opacity=".3" d="M86.735 132.222c.222 0 .222-.222.222-.444s0-.444-.222-.444-.222.222-.222.444c.222.222.222.444.222.444z" fill="#fff"/><path d="M88.958 130.89c-.222.222-.666.444-.888.222-.222 0-.444-.222-.222-.444s.666-.444.888-.222c.222 0 .444.222.222.444z" fill="#128742"/><path d="M88.29 130.891a1.764 1.764 0 00-.888-1.555c0-.222.445 0 .445 0s.444.222.444 1.555z" fill="#603913"/><path opacity=".3" d="M90.731 132c0-.444-1.332-2.22-2.442-1.11-.888.888 1.554.444 2.442 1.11z" fill="#000"/><path d="M90.731 131.113c-.444-.444-1.554-1.111-2.442-.222l-.222.222v.222c.222.666 2.886 0 2.886 0l-.222-.222c.222 0 .222 0 0 0z" fill="#306947"/><path d="M90.936 131.113s-1.555-1.776-2.665-.444c-1.11 1.11 2.665.444 2.665.444z" fill="#4CB979"/><path d="M88.287 130.669c0 .222 2.442.444 2.442.444s-2.22-.666-2.442-.444z" fill="#306947"/><path d="M87.847 133.776c-.222-1.776-1.555-2.442-3.33-1.776-1.555-.222-2.443 1.11-2.22 2.664.221 1.776 1.775 3.108 3.33 2.886 1.553-.222 2.442-1.332 2.22-3.774z" fill="#39CB74"/><path opacity=".3" d="M82.96 134.219c.222 0 .222 0 .444-.222v-.444c-.222 0-.222 0-.444.222-.222 0-.222.222 0 .444z" fill="#fff"/><path d="M85.181 133.11c-.222.222-.666.222-.888.222-.222-.222-.444-.444 0-.666.222-.222.666-.222.888-.222.222 0 .222.444 0 .666z" fill="#128742"/><path d="M84.517 132.889c0-1.11-.444-1.777-.444-1.777 0-.222.445 0 .445 0-.222.223.221.445 0 1.777z" fill="#603913"/><path opacity=".3" d="M86.737 134.442c0-.444-.888-2.442-2.22-1.554-.888.888 1.332.666 2.22 1.554z" fill="#000"/><path d="M86.957 133.555c-.444-.444-1.332-1.332-2.442-.666l-.222.222v.222c.222.666 2.886.444 2.886.444l-.222-.222c.222 0 0 0 0 0z" fill="#306947"/><path d="M87.161 133.555s-1.332-1.998-2.664-.888c-1.11 1.11 2.664.888 2.664.888z" fill="#4CB979"/><path d="M84.734 132.666c-.222 0 2.22.888 2.22.888l-2.22-.888z" fill="#306947"/><path d="M84.29 136.221c-.444-1.776-1.998-2.22-3.552-1.332-1.554 0-2.442 1.332-1.776 2.886.666 1.776 2.22 2.886 3.774 2.442 1.554-.444 2.22-1.776 1.554-3.996z" fill="#16A851"/><path opacity=".3" d="M79.63 137.33c.223 0 .223-.222.223-.444s0-.444-.222-.444-.222.222-.222.444 0 .444.222.444z" fill="#fff"/><path d="M81.63 135.775c-.223.223-.667.445-.889.223-.222 0-.444-.223-.222-.445s.666-.444.888-.222c.444 0 .444.222.222.444z" fill="#128742"/><path d="M80.961 135.776c0-1.11-.888-1.554-.888-1.554 0-.222.444 0 .444 0 .222 0 .666.222.444 1.554z" fill="#603913"/><path opacity=".3" d="M83.4 136.885c0-.444-1.331-2.22-2.441-1.11-.666 1.11 1.554.444 2.442 1.11z" fill="#000"/><path d="M83.402 135.998c-.444-.444-1.554-1.11-2.442-.222l-.222.222v.222c.222.667 2.886 0 2.886 0l-.222-.222c.222.223.222 0 0 0z" fill="#306947"/><path d="M83.624 136.22s-1.554-1.776-2.664-.444c-.888 1.11 2.664.444 2.664.444z" fill="#4CB979"/><path d="M81.183 135.555l2.443.444-2.443-.444z" fill="#306947"/><path d="M80.523 138.884c-.222-1.776-1.554-2.664-3.33-1.776-1.554-.222-2.442 1.11-2.22 2.664.222 1.776 1.776 3.33 3.33 2.886 1.554-.444 2.442-1.554 2.22-3.774z" fill="#39CB74"/><path opacity=".3" d="M75.64 139.105c.222 0 .222 0 .444-.222v-.444c-.222 0-.222 0-.444.222v.444z" fill="#fff"/><path d="M77.858 137.995c-.222.222-.666.222-.888.222-.222 0-.444-.444 0-.666.222-.222.666-.222.888-.222.222.222.444.444 0 .666z" fill="#128742"/><path d="M77.416 137.996c0-1.111-.666-1.777-.666-1.777 0-.222.444 0 .444 0s.444.444.222 1.777z" fill="#603913"/><path opacity=".3" d="M79.638 139.325c0-.444-.888-2.442-2.22-1.554-1.11.888 1.332.666 2.22 1.554z" fill="#000"/><path d="M79.634 138.438c-.444-.444-1.332-1.333-2.442-.666l-.222.222v.222c.222.666 2.886.444 2.886.444l-.222-.222c.222.222.222 0 0 0z" fill="#306947"/><path d="M79.855 138.659s-1.332-1.997-2.442-.887c-1.332.888 2.442.887 2.442.887z" fill="#4CB979"/><path d="M77.41 137.772c-.221 0 2.221.887 2.221.887s-1.998-1.109-2.22-.887z" fill="#306947"/><path d="M56.322 127.784c-.222-1.776-1.554-2.442-3.33-1.776-1.554-.222-2.442 1.11-2.22 2.664.222 1.998 1.776 3.108 3.33 2.886 1.554-.444 2.442-1.554 2.22-3.774z" fill="#39CB74"/><path opacity=".3" d="M51.44 128.006c.221 0 .221 0 .443-.222v-.444c-.222 0-.222 0-.444.222v.444z" fill="#fff"/><path d="M53.657 126.895c-.222.222-.666.222-.888.222-.222-.222-.444-.444 0-.666.222-.222.666-.222.888-.222.222.222.222.444 0 .666z" fill="#128742"/><path d="M52.995 126.674c0-1.11-.665-1.777-.665-1.777 0-.222.444 0 .444 0 .221.222.665.444.221 1.777z" fill="#603913"/><path opacity=".3" d="M55.437 128.227c0-.444-.888-2.442-2.22-1.554-1.11.888 1.332.666 2.22 1.554z" fill="#000"/><path d="M55.433 127.338c-.444-.444-1.332-1.332-2.442-.666l-.222.222v.222c.222.667 2.886.445 2.886.445l-.222-.223c.222 0 .222 0 0 0z" fill="#306947"/><path d="M55.654 127.339s-1.332-1.998-2.442-.888c-1.332 1.11 2.442.888 2.442.888z" fill="#4CB979"/><path d="M53.215 126.453c-.222 0 2.442.888 2.442.888s-2.22-.888-2.442-.888z" fill="#306947"/><path d="M59.875 129.339c-.444-1.776-1.998-2.221-3.552-1.332-1.554 0-2.442 1.332-1.776 2.886.666 1.776 2.22 2.886 3.774 2.442 1.332-.666 1.998-1.776 1.554-3.996z" fill="#16A851"/><path opacity=".3" d="M54.99 130.225c.223 0 .223-.222.223-.444s0-.444-.222-.444-.222.222-.222.444c.222.222.222.444.222.444z" fill="#fff"/><path d="M56.989 128.892c-.222.222-.666.444-.888.222-.222 0-.444-.222-.222-.444s.666-.443.888-.222c.444-.221.444.222.222.444z" fill="#128742"/><path d="M56.546 128.894c0-1.11-.888-1.554-.888-1.554 0-.223.444 0 .444 0s.444 0 .444 1.554z" fill="#603913"/><path opacity=".3" d="M58.989 129.782c0-.444-1.333-2.221-2.443-1.11-.888 1.11 1.332.444 2.443 1.11z" fill="#000"/><path d="M58.987 129.117c-.444-.444-1.554-1.11-2.442-.222l-.222.222v.222c.222.666 2.886 0 2.886 0l-.222-.222c.222 0 0 0 0 0z" fill="#306947"/><path d="M59.192 129.117s-1.554-1.777-2.664-.445c-1.11 1.111 2.664.445 2.664.445z" fill="#4CB979"/><path d="M56.543 128.672c0 .221 2.442.443 2.442.443s-2.22-.665-2.442-.443z" fill="#306947"/><path d="M63.87 131.556c-.221-1.776-1.553-2.664-3.33-1.776-1.553-.222-2.441 1.11-2.22 2.664.223 1.776 1.777 3.33 3.33 2.886 1.555-.222 2.443-1.554 2.22-3.774z" fill="#39CB74"/><path opacity=".3" d="M58.984 131.779c.222 0 .222 0 .444-.222v-.444c-.222 0-.222 0-.444.222s-.222.444 0 .444z" fill="#fff"/><path d="M61.206 130.669c-.222.222-.667.222-.889.222-.221-.222-.444-.444 0-.666.222-.222.667-.222.889-.222.222.222.222.444 0 .666z" fill="#128742"/><path d="M60.544 130.668c0-1.109-.666-1.775-.666-1.775 0-.222.444 0 .444 0 .222 0 .444.444.222 1.775z" fill="#603913"/><path opacity=".3" d="M62.986 132c0-.444-.888-2.442-2.22-1.554-1.11 1.11 1.332.666 2.22 1.554z" fill="#000"/><path d="M62.982 131.113c-.444-.444-1.332-1.332-2.442-.666l-.222.222v.222c.222.666 2.886.444 2.886.444l-.222-.222c.222.222.222.222 0 0z" fill="#306947"/><path d="M63.203 131.335s-1.332-1.998-2.442-.888c-1.332.888 2.442.888 2.442.888z" fill="#4CB979"/><path d="M60.763 130.447c-.222 0 2.443.888 2.443.888s-2.443-1.11-2.443-.888z" fill="#306947"/><path d="M67.424 133.11c-.444-1.776-1.998-2.22-3.552-1.332-1.554 0-2.442 1.332-1.776 2.886.666 1.776 2.22 2.886 3.774 2.442 1.332-.444 1.998-1.776 1.554-3.996z" fill="#16A851"/><path opacity=".3" d="M62.54 134.22c.221 0 .221-.222.221-.444s0-.444-.222-.444-.222.222-.222.444.222.444.222.444z" fill="#fff"/><path d="M64.537 132.667c-.222.222-.666.444-.888.222-.221 0-.444-.222-.221-.444.222-.222.666-.444.888-.222.444 0 .444.222.221.444z" fill="#128742"/><path d="M63.87 132.667c0-1.11-.888-1.555-.888-1.555 0-.222.444 0 .444 0 .222 0 .666.223.444 1.555z" fill="#603913"/><path opacity=".3" d="M66.531 133.775c0-.444-1.332-2.221-2.442-1.111-.888 1.111 1.332.445 2.442 1.111z" fill="#000"/><path d="M66.53 132.887c-.444-.444-1.554-1.11-2.442-.222l-.222.222v.222c.222.666 2.886 0 2.886 0l-.222-.222z" fill="#306947"/><path d="M66.532 132.888s-1.554-1.776-2.664-.444c-.888 1.11 2.664.444 2.664.444z" fill="#4CB979"/><path d="M64.086 132.444l2.442.444-2.442-.444z" fill="#306947"/><path d="M69.865 135.553c-.222-1.776-1.554-2.664-3.33-1.776-1.555-.222-2.443 1.11-2.22 2.664.221 1.776 1.775 3.33 3.33 2.886 1.553-.444 2.442-1.554 2.22-3.774z" fill="#39CB74"/><path opacity=".3" d="M64.982 135.776c.222 0 .222 0 .444-.222v-.444c-.222 0-.222 0-.444.222v.444z" fill="#fff"/><path d="M67.2 134.666c-.223.222-.667.222-.889.222-.222-.222-.444-.444 0-.666.222-.222.666-.222.888-.222.222.222.222.444 0 .666z" fill="#128742"/><path d="M66.532 134.443c0-1.11-.666-1.776-.666-1.776 0-.222.444 0 .444 0 .222.222.666.444.222 1.776z" fill="#603913"/><path opacity=".3" d="M68.98 135.997c0-.444-.888-2.442-2.22-1.554-1.11.888 1.332.666 2.22 1.554z" fill="#000"/><path d="M68.975 135.108c-.444-.444-1.332-1.332-2.442-.666l-.222.222v.222c.222.666 2.886.444 2.886.444l-.222-.222c.222 0 .222 0 0 0z" fill="#306947"/><path d="M69.196 135.11s-1.332-1.999-2.442-.889c-1.332 1.111 2.442.889 2.442.889z" fill="#4CB979"/><path d="M66.757 134.223c-.222 0 2.442.888 2.442.888s-2.22-.888-2.442-.888z" fill="#306947"/><path d="M76.304 139.106c-.222-1.776-1.554-2.443-3.33-1.776-1.554-.223-2.443 1.11-2.22 2.664.222 1.776 1.776 3.33 3.33 2.886 1.554-.222 2.442-1.554 2.22-3.774z" fill="#39CB74"/><path opacity=".3" d="M71.42 139.328c.223 0 .223 0 .445-.222v-.444c-.222 0-.222 0-.444.222v.444z" fill="#fff"/><path d="M73.638 138.218c-.222.222-.666.222-.888.222-.222 0-.444-.444 0-.666.222-.222.666-.222.888-.222.222.222.222.666 0 .666z" fill="#128742"/><path d="M72.977 138.217c0-1.109-.666-1.775-.666-1.775 0-.222.444 0 .444 0 .222.222.666.444.222 1.775z" fill="#603913"/><path opacity=".3" d="M75.419 139.77c0-.444-.888-2.442-2.22-1.554-1.11.888 1.332.666 2.22 1.554z" fill="#000"/><path d="M75.414 138.883c-.444-.444-1.332-1.332-2.442-.666l-.222.222v.222c.222.666 2.886.444 2.886.444l-.222-.222c.222 0 .222 0 0 0z" fill="#306947"/><path d="M75.619 138.883s-1.332-1.999-2.665-.889c-1.11.889 2.665.889 2.665.889z" fill="#4CB979"/><path d="M73.192 137.994c-.223 0 2.22.888 2.22.888s-1.999-.888-2.22-.888z" fill="#306947"/><path d="M73.418 137.108c-.444-1.776-1.998-2.22-3.552-1.332-1.554 0-2.442 1.332-1.776 2.886.666 1.776 2.22 2.886 3.774 2.442 1.332-.666 1.998-1.776 1.554-3.996z" fill="#16A851"/><path opacity=".3" d="M68.533 137.995c.222 0 .222-.223.222-.445s0-.444-.222-.444-.222.222-.222.444.222.445.222.445z" fill="#fff"/><path d="M70.531 136.663c-.222.222-.666.444-.888.222-.222 0-.444-.222-.222-.444s.666-.445.888-.222c.444-.223.444.222.222.444z" fill="#128742"/><path d="M69.864 136.664a1.764 1.764 0 00-.888-1.555c0-.222.444 0 .444 0 .222 0 .666 0 .444 1.555z" fill="#603913"/><path opacity=".3" d="M72.53 137.552c0-.444-1.331-2.221-2.441-1.11-.888 1.11 1.332.444 2.442 1.11z" fill="#000"/><path d="M72.53 136.886c-.444-.444-1.554-1.111-2.442-.222l-.222.222v.222c.222.666 2.886 0 2.886 0l-.222-.222c.222 0 0 0 0 0z" fill="#306947"/><path d="M72.734 136.886s-1.554-1.776-2.664-.444c-1.11 1.11 2.665.444 2.665.444z" fill="#4CB979"/><path d="M70.085 136.442l2.443.444s-2.443-.666-2.443-.444z" fill="#306947"/><path d="M68.753 113.797c-.444-1.776-1.998-2.22-3.552-1.332-1.554 0-2.442 1.332-1.776 2.887.666 1.776 2.22 2.886 3.774 2.442 1.332-.666 1.998-1.998 1.554-3.997z" fill="#16A851"/><path opacity=".3" d="M63.869 114.684c.222 0 .222-.222.222-.444s0-.444-.222-.444-.222.222-.222.444.222.444.222.444z" fill="#fff"/><path d="M65.867 113.351c-.222.222-.666.444-.888.222-.222 0-.444-.222-.222-.444s.666-.444.888-.222c.444-.222.444 0 .222.444z" fill="#128742"/><path d="M65.2 113.353a1.764 1.764 0 00-.889-1.555c0-.222.444 0 .444 0 .222-.222.666 0 .444 1.555z" fill="#603913"/><path opacity=".3" d="M67.86 114.24c0-.444-1.331-2.219-2.441-1.11-.888 1.11 1.332.444 2.442 1.11z" fill="#000"/><path d="M67.86 113.352c-.444-.444-1.554-1.11-2.442-.222l-.222.222v.222c.222.666 2.886 0 2.886 0l-.222-.222c0 .222 0 .222 0 0z" fill="#306947"/><path d="M67.862 113.575s-1.554-1.776-2.664-.444c-.888 1.11 2.664.444 2.664.444z" fill="#4CB979"/><path d="M65.415 113.131l2.442.443s-2.442-.665-2.442-.443z" fill="#306947"/><path d="M64.755 116.238c-.222-1.776-1.554-2.442-3.33-1.776-1.554-.222-2.442 1.11-2.22 2.664.222 1.776 1.776 3.108 3.33 2.886 1.554-.444 2.442-1.554 2.22-3.774z" fill="#39CB74"/><path opacity=".3" d="M59.872 116.46c.222 0 .222 0 .444-.222v-.444c-.222 0-.222 0-.444.222v.444z" fill="#fff"/><path d="M62.09 115.35c-.222.222-.666.222-.888.222-.222 0-.444-.444 0-.666.222-.222.666-.222.888-.222.222.222.444.444 0 .666z" fill="#128742"/><path d="M61.648 115.35c0-1.11-.666-1.776-.666-1.776 0-.222.444 0 .444 0s.444.444.222 1.776z" fill="#603913"/><path opacity=".3" d="M63.865 116.683c0-.444-.888-2.442-2.22-1.554-.888 1.11 1.332.666 2.22 1.554z" fill="#000"/><path d="M64.085 115.795c-.444-.445-1.332-1.333-2.442-.667l-.222.222v.222c.222.667 2.886.445 2.886.445l-.222-.222c0 .222 0 .222 0 0z" fill="#306947"/><path d="M64.087 116.016s-1.332-1.998-2.442-.888c-1.332.888 2.442.888 2.442.888z" fill="#4CB979"/><path d="M61.648 115.128c-.223 0 2.442.888 2.442.888s-2.22-1.11-2.443-.888z" fill="#306947"/><path d="M61.43 118.68c-.444-1.776-1.998-2.22-3.552-1.332-1.554 0-2.442 1.332-1.776 2.886.666 1.776 2.22 2.886 3.774 2.442 1.332-.444 2.22-1.776 1.554-3.996z" fill="#16A851"/><path opacity=".3" d="M56.765 119.57c.222 0 .222-.222.222-.444s0-.444-.222-.444-.222.222-.222.444 0 .444.222.444z" fill="#fff"/><path d="M58.77 118.237c-.223.222-.667.444-.889.222-.222 0-.444-.222-.222-.444s.666-.444.888-.222c.222 0 .444.222.222.444z" fill="#128742"/><path d="M58.102 118.237c0-1.11-.889-1.555-.889-1.555 0-.222.444 0 .444 0s.445.222.445 1.555z" fill="#603913"/><path opacity=".3" d="M60.542 119.346c0-.444-1.332-2.22-2.442-1.11-.888.888 1.554.444 2.442 1.11z" fill="#000"/><path d="M60.542 118.458c-.444-.444-1.554-1.11-2.442-.222l-.222.222v.222c.222.666 2.886 0 2.886 0l-.222-.222c.222 0 .222 0 0 0z" fill="#306947"/><path d="M60.747 118.458s-1.554-1.776-2.664-.444c-1.11 1.11 2.664.444 2.664.444z" fill="#4CB979"/><path d="M58.098 118.013l2.442.445s-2.22-.667-2.442-.445z" fill="#306947"/><path d="M57.651 121.345c-.222-1.776-1.554-2.442-3.33-1.776-1.554-.222-2.442 1.11-2.22 2.664.222 1.776 1.776 3.329 3.33 2.886 1.554-.444 2.442-1.554 2.22-3.774z" fill="#39CB74"/><path opacity=".3" d="M52.764 121.567s.222 0 .444-.222v-.444s-.222 0-.444.222-.222.222 0 .444z" fill="#fff"/><path d="M54.986 120.457c-.222.222-.666.222-.888.222-.222 0-.444-.444 0-.666.222-.222.666-.222.888-.222.222.222.222.444 0 .666z" fill="#128742"/><path d="M54.318 120.234c0-1.11-.665-1.776-.665-1.776 0-.222.443 0 .443 0 .222.222.666.444.222 1.776z" fill="#603913"/><path opacity=".3" d="M56.766 121.788c0-.444-.888-2.442-2.22-1.554-1.11.888 1.332.666 2.22 1.554z" fill="#000"/><path d="M56.762 120.901c-.444-.444-1.332-1.332-2.442-.666l-.222.222v.222c.222.666 2.886.444 2.886.444l-.222-.222c.222 0 .222 0 0 0z" fill="#306947"/><path d="M56.983 120.9s-1.332-1.998-2.442-.888c-1.332 1.11 2.442.888 2.442.888z" fill="#4CB979"/><path d="M54.544 120.012c-.222 0 2.442.888 2.442.888l-2.442-.888z" fill="#306947"/><path d="M72.755 116.461c-.222-1.776-1.554-2.442-3.33-1.776-1.554-.222-2.442 1.11-2.22 2.664.222 1.776 1.776 3.33 3.33 2.886 1.554-.222 2.442-1.554 2.22-3.774z" fill="#39CB74"/><path opacity=".3" d="M67.873 116.683c.222 0 .222 0 .444-.222v-.444c-.222 0-.222 0-.444.222s0 .444 0 .444z" fill="#fff"/><path d="M70.09 115.573c-.223.222-.667.222-.889.222-.222 0-.444-.444 0-.666.222-.222.666-.222.888-.222.222.222.222.444 0 .666z" fill="#128742"/><path d="M69.428 115.572c0-1.11-.666-1.775-.666-1.775 0-.222.444 0 .444 0 .222.222.666.444.222 1.775z" fill="#603913"/><path opacity=".3" d="M71.87 117.127c0-.444-.888-2.443-2.22-1.555-1.11.889 1.332.667 2.22 1.555z" fill="#000"/><path d="M71.865 116.238c-.444-.444-1.332-1.332-2.442-.666l-.222.222v.222c.222.666 2.886.444 2.886.444l-.222-.222c.222 0 .222 0 0 0z" fill="#306947"/><path d="M72.087 116.239s-1.333-1.998-2.443-.888c-1.332.889 2.443.888 2.443.888z" fill="#4CB979"/><path d="M69.647 115.352c-.222 0 2.442.888 2.442.888l-2.442-.888z" fill="#306947"/><path d="M68.308 118.46c-.444-1.776-1.998-2.22-3.552-1.332-1.554 0-2.442 1.332-1.776 2.886.666 1.776 2.22 2.887 3.774 2.443 1.332-.444 1.998-1.777 1.554-3.997z" fill="#16A851"/><path opacity=".3" d="M63.423 119.347c.222 0 .222-.222.222-.444s0-.444-.222-.444c-.221 0-.221.222-.221.444.221.222.221.444.221.444z" fill="#fff"/><path d="M65.647 118.015c-.222.222-.666.444-.888.222-.222 0-.444-.222-.222-.444s.666-.445.888-.222c.222 0 .444.222.222.444z" fill="#128742"/><path d="M64.98 118.015c0-1.11-.889-1.554-.889-1.554 0-.222.445 0 .445 0s.444.222.444 1.554z" fill="#603913"/><path opacity=".3" d="M67.42 119.125c0-.444-1.332-2.221-2.442-1.11-.888.888 1.554.444 2.442 1.11z" fill="#000"/><path d="M67.42 118.237c-.444-.444-1.554-1.11-2.442-.222l-.222.222v.222c.222.666 2.886 0 2.886 0l-.222-.222c.222 0 .222 0 0 0z" fill="#306947"/><path d="M67.625 118.238s-1.555-1.776-2.665-.444c-1.11 1.11 2.665.444 2.665.444z" fill="#4CB979"/><path d="M64.976 117.794c0 .222 2.442.444 2.442.444s-2.22-.667-2.442-.444z" fill="#306947"/><path d="M64.98 121.568c-.221-1.777-1.553-2.443-3.33-1.777-1.554-.222-2.442 1.111-2.22 2.665.222 1.776 1.776 3.108 3.33 2.886 1.555-.444 2.443-1.554 2.22-3.774z" fill="#39CB74"/><path opacity=".3" d="M60.313 121.789c.222 0 .222.001.444-.221v-.444c-.222 0-.222 0-.444.222s-.222.443 0 .443z" fill="#fff"/><path d="M62.541 120.68c-.222.222-.666.222-.888.222-.222 0-.444-.444 0-.666.222-.222.666-.222.888-.222.222.222.222.444 0 .666z" fill="#128742"/><path d="M61.874 120.457c0-1.11-.666-1.776-.666-1.776 0-.222.444 0 .444 0 0 .222.444.444.222 1.776z" fill="#603913"/><path opacity=".3" d="M64.097 122.01c0-.444-.888-2.441-2.22-1.554-.889.888 1.332.666 2.22 1.554z" fill="#000"/><path d="M64.317 121.123c-.444-.444-1.332-1.332-2.442-.666l-.222.222v.222c.222.667 2.886.445 2.886.445l-.222-.223c.222.223 0 0 0 0z" fill="#306947"/><path d="M64.538 121.345s-1.332-1.997-2.442-.887c-1.332.887 2.442.887 2.442.887z" fill="#4CB979"/><path d="M61.88 120.236c-.223 0 2.441.888 2.441.888s-2.22-.888-2.442-.888z" fill="#306947"/><path d="M60.54 123.342c-.444-1.776-1.998-2.22-3.552-1.332-1.554 0-2.442 1.332-1.776 2.886.666 1.776 2.22 2.885 3.774 2.441 1.554-.444 2.22-1.775 1.554-3.995z" fill="#16A851"/><path opacity=".3" d="M55.874 124.452c.222 0 .222-.222.222-.444s0-.444-.221-.444c-.222 0-.222.222-.222.444s0 .444.221.444z" fill="#fff"/><path d="M57.879 122.898c-.222.222-.666.444-.888.222-.222 0-.444-.222-.222-.444.222-.223.666-.445.888-.223.444 0 .444.223.222.445z" fill="#128742"/><path d="M57.211 122.898c0-1.11-.888-1.554-.888-1.554 0-.222.444 0 .444 0 .222 0 .666.222.444 1.554z" fill="#603913"/><path opacity=".3" d="M59.65 124.009c0-.444-1.331-2.22-2.442-1.11-.666 1.11 1.555.444 2.443 1.11z" fill="#000"/><path d="M59.652 123.12c-.444-.444-1.554-1.11-2.442-.222l-.222.222v.222c.222.667 2.886 0 2.886 0l-.222-.222c.222.222.222 0 0 0z" fill="#306947"/><path d="M59.874 123.343s-1.554-1.776-2.664-.444c-.888.888 2.664.444 2.664.444z" fill="#4CB979"/><path d="M57.433 122.677c0 .222 2.442.444 2.442.444l-2.442-.444z" fill="#306947"/><path d="M75.638 118.68c-.445-1.776-1.999-2.22-3.553-1.332-1.554 0-2.442 1.332-1.776 2.886.666 1.776 2.22 2.886 3.775 2.442 1.331-.444 1.998-1.776 1.553-3.996z" fill="#16A851"/><path opacity=".3" d="M70.753 119.57c.222 0 .222-.222.222-.444s0-.444-.222-.444-.222.222-.222.444.222.444.222.444z" fill="#fff"/><path d="M72.751 118.237c-.222.222-.666.444-.888.222-.222 0-.444-.222-.222-.444s.666-.444.888-.222c.444 0 .444.222.222.444z" fill="#128742"/><path d="M72.084 118.237c0-1.11-.889-1.555-.889-1.555 0-.222.445 0 .445 0 .222 0 .665.222.444 1.555z" fill="#603913"/><path opacity=".3" d="M74.75 119.346c0-.444-1.331-2.22-2.442-1.11-.888.888 1.333.444 2.443 1.11z" fill="#000"/><path d="M74.75 118.458c-.444-.444-1.554-1.11-2.442-.222l-.222.222v.222c.222.666 2.886 0 2.886 0l-.222-.222c.222 0 0 0 0 0z" fill="#306947"/><path d="M74.954 118.458s-1.554-1.776-2.664-.444c-1.11 1.11 2.664.444 2.664.444z" fill="#4CB979"/><path d="M72.305 118.013c0 .223 2.442.445 2.442.445s-2.442-.667-2.442-.445z" fill="#306947"/><path d="M71.645 121.124c-.222-1.776-1.554-2.442-3.33-1.776-1.554-.222-2.442 1.11-2.22 2.664.222 1.776 1.776 3.33 3.33 2.886 1.554-.222 2.442-1.332 2.22-3.774z" fill="#39CB74"/><path opacity=".3" d="M66.978 121.567c.222 0 .222 0 .444-.222v-.444c-.222 0-.222 0-.444.222-.222 0-.222.222 0 .444z" fill="#fff"/><path d="M69.205 120.457c-.222.222-.666.222-.888.222-.222-.222-.444-.444 0-.666.222-.222.666-.222.888-.222.222 0 .222.444 0 .666z" fill="#128742"/><path d="M68.538 120.234c0-1.11-.666-1.776-.666-1.776 0-.222.444 0 .444 0 0 .222.444.444.222 1.776z" fill="#603913"/><path opacity=".3" d="M70.761 121.788c0-.444-.888-2.442-2.22-1.554-.888.888 1.332.666 2.22 1.554z" fill="#000"/><path d="M70.981 120.901c-.444-.444-1.332-1.332-2.442-.666l-.222.222v.222c.222.666 2.886.444 2.886.444l-.222-.222c.222 0 0 0 0 0z" fill="#306947"/><path d="M71.203 120.9s-1.332-1.998-2.443-.888c-1.332 1.11 2.442.888 2.442.888z" fill="#4CB979"/><path d="M68.544 120.012c-.222 0 2.442.888 2.442.888s-2.22-.888-2.442-.888z" fill="#306947"/><path d="M68.308 123.564c-.444-1.776-1.998-2.22-3.552-1.332-1.554 0-2.442 1.332-1.776 2.886.666 1.776 2.22 2.887 3.774 2.443 1.332-.444 2.22-1.777 1.554-3.997z" fill="#16A851"/><path opacity=".3" d="M63.643 124.674c.222 0 .222-.222.222-.444s0-.444-.222-.444-.222.222-.222.444 0 .444.222.444z" fill="#fff"/><path d="M65.647 123.12c-.222.222-.666.444-.888.222-.222 0-.444-.222-.222-.444s.666-.444.888-.222c.222 0 .444.222.222.444z" fill="#128742"/><path d="M64.98 123.12c0-1.11-.889-1.553-.889-1.553 0-.222.445 0 .445 0s.444.221.444 1.553z" fill="#603913"/><path opacity=".3" d="M67.419 124.231c0-.444-1.332-2.219-2.442-1.11-.666 1.11 1.554.444 2.442 1.11z" fill="#000"/><path d="M67.42 123.343c-.444-.444-1.554-1.11-2.442-.222l-.222.222v.222c.222.666 2.886 0 2.886 0l-.222-.222c.222.222.222 0 0 0z" fill="#306947"/><path d="M67.625 123.566s-1.555-1.776-2.665-.444c-1.11.888 2.665.444 2.665.444z" fill="#4CB979"/><path d="M65.201 122.899c0 .222 2.442.444 2.442.444l-2.442-.444z" fill="#306947"/><path d="M64.535 126.227c-.222-1.776-1.554-2.442-3.33-1.776-1.554-.222-2.442 1.11-2.22 2.665.222 1.776 1.776 3.33 3.33 2.886 1.554-.444 2.442-1.554 2.22-3.775z" fill="#39CB74"/><path opacity=".3" d="M59.653 126.449c.222 0 .222 0 .444-.222v-.444c-.222 0-.222 0-.444.222v.444z" fill="#fff"/><path d="M61.87 125.34c-.222.222-.666.222-.888.222-.222 0-.444-.444 0-.666.222-.222.666-.222.888-.222.222.222.222.444 0 .666z" fill="#128742"/><path d="M61.21 125.118c0-1.11-.667-1.776-.667-1.776 0-.222.444 0 .444 0 .222.222.666.444.222 1.776z" fill="#603913"/><path opacity=".3" d="M63.65 126.673c0-.445-.887-2.443-2.22-1.555-1.11.888 1.333.666 2.22 1.555z" fill="#000"/><path d="M63.646 125.785c-.444-.444-1.332-1.332-2.442-.666l-.222.222v.222c.222.666 2.886.444 2.886.444l-.222-.222c.222.222.222 0 0 0z" fill="#306947"/><path d="M63.867 126.007s-1.332-1.998-2.442-.888c-1.332.888 2.442.888 2.442.888z" fill="#4CB979"/><path d="M61.428 124.896c-.222 0 2.442.888 2.442.888s-2.22-.888-2.442-.888z" fill="#306947"/><path d="M79.633 121.567c-.222-1.776-1.554-2.442-3.33-1.776-1.554-.222-2.442 1.11-2.22 2.664.222 1.999 1.776 3.331 3.33 2.887 1.554-.445 2.442-1.554 2.22-3.775z" fill="#39CB74"/><path opacity=".3" d="M74.75 121.789c.222 0 .222.001.444-.221v-.444c-.222 0-.222 0-.444.222v.443z" fill="#fff"/><path d="M76.968 120.68c-.222.222-.666.222-.888.222-.222 0-.444-.444 0-.666.222-.222.666-.222.888-.222.222.222.222.444 0 .666z" fill="#128742"/><path d="M76.307 120.457c0-1.11-.666-1.776-.666-1.776 0-.222.444 0 .444 0 .222.222.666.444.222 1.776z" fill="#603913"/><path opacity=".3" d="M78.748 122.01c0-.444-.888-2.441-2.22-1.554-1.11.888 1.332.666 2.22 1.554z" fill="#000"/><path d="M78.743 121.123c-.444-.444-1.332-1.332-2.442-.666l-.222.222v.222c.222.667 2.887.445 2.887.445l-.222-.223c.222 0 .222 0 0 0z" fill="#306947"/><path d="M78.965 121.123s-1.332-1.998-2.442-.888c-1.332 1.11 2.442.888 2.442.888z" fill="#4CB979"/><path d="M76.525 120.235c-.222 0 2.442.888 2.442.888s-2.22-.888-2.442-.888z" fill="#306947"/><path d="M75.192 123.342c-.444-1.776-1.998-2.22-3.552-1.332-1.554 0-2.442 1.332-1.776 2.886.666 1.776 2.22 2.885 3.774 2.441 1.332-.444 2.22-1.775 1.554-3.995z" fill="#16A851"/><path opacity=".3" d="M70.533 124.452c.222 0 .222-.222.222-.444s0-.444-.222-.444-.222.222-.222.444 0 .444.222.444z" fill="#fff"/><path d="M72.531 122.898c-.222.222-.666.444-.888.222-.222 0-.444-.222-.222-.444.222-.223.666-.445.888-.223.222 0 .444.223.222.445z" fill="#128742"/><path d="M71.864 122.898c0-1.11-.889-1.554-.889-1.554 0-.222.445 0 .445 0s.444.222.444 1.554z" fill="#603913"/><path opacity=".3" d="M74.304 124.009c0-.444-1.332-2.22-2.442-1.11-.888 1.11 1.554.444 2.442 1.11z" fill="#000"/><path d="M74.304 123.12c-.444-.444-1.554-1.11-2.442-.222l-.222.222v.223c.222.666 2.886 0 2.886 0l-.222-.223c.222 0 .222 0 0 0z" fill="#306947"/><path d="M74.509 123.121s-1.554-1.776-2.664-.444c-1.11 1.11 2.664.444 2.664.444z" fill="#4CB979"/><path d="M71.86 122.677c0 .222 2.442.444 2.442.444s-2.22-.444-2.442-.444z" fill="#306947"/><path d="M72.084 126.451c-.222-1.776-1.554-2.664-3.33-1.776-1.554-.222-2.442 1.11-2.22 2.664.222 1.776 1.776 3.33 3.33 2.886 1.332-.444 2.442-1.554 2.22-3.774z" fill="#39CB74"/><path opacity=".3" d="M67.197 126.672c.222 0 .222 0 .444-.222v-.444c-.222 0-.222 0-.444.222s-.222.444 0 .444z" fill="#fff"/><path d="M69.419 125.562c-.222.222-.666.222-.888.222-.222-.222-.444-.444 0-.666.222-.222.666-.222.888-.222.222.222.222.444 0 .666z" fill="#128742"/><path d="M68.751 125.562c0-1.11-.666-1.776-.666-1.776 0-.222.445 0 .445 0s.444.444.221 1.776z" fill="#603913"/><path opacity=".3" d="M70.975 126.895c0-.444-.888-2.442-2.22-1.554-.888 1.11 1.332.666 2.22 1.554z" fill="#000"/><path d="M71.195 126.006c-.444-.444-1.332-1.332-2.442-.666l-.222.222v.222c.221.666 2.885.444 2.885.444l-.221-.222c.222.222 0 .222 0 0z" fill="#306947"/><path d="M71.399 126.229s-1.332-1.999-2.664-.889c-1.11.889 2.664.889 2.664.889z" fill="#4CB979"/><path d="M68.972 125.34c-.222 0 2.22.889 2.22.889s-2.22-1.111-2.22-.889z" fill="#306947"/><path d="M67.644 128.45c-.444-1.776-1.998-2.22-3.552-1.332-1.554 0-2.442 1.332-1.776 2.886.666 1.776 2.22 2.886 3.774 2.442 1.332-.666 1.998-1.776 1.554-3.996z" fill="#16A851"/><path opacity=".3" d="M62.76 129.336c.221 0 .221-.222.221-.444s0-.444-.222-.444-.222.222-.222.444.222.444.222.444z" fill="#fff"/><path d="M64.757 128.004c-.222.222-.666.444-.888.222-.222 0-.444-.222-.222-.444s.666-.444.888-.222c.444-.222.444.222.222.444z" fill="#128742"/><path d="M64.09 128.005c0-1.11-.889-1.554-.889-1.554 0-.222.445 0 .445 0 .222-.222.666 0 .444 1.554z" fill="#603913"/><path opacity=".3" d="M66.75 128.892c0-.443-1.331-2.219-2.441-1.109-.888 1.109 1.332.444 2.442 1.109z" fill="#000"/><path d="M66.75 128.227c-.444-.444-1.554-1.11-2.442-.222l-.222.222v.222c.222.666 2.886 0 2.886 0l-.222-.222z" fill="#306947"/><path d="M66.752 128.228s-1.554-1.777-2.664-.444c-.888 1.11 2.664.444 2.664.444z" fill="#4CB979"/><path d="M64.305 127.783c0 .222 2.442.444 2.442.444s-2.442-.666-2.442-.444z" fill="#306947"/><path d="M83.406 123.342c-.444-1.776-1.998-2.22-3.552-1.332-1.554 0-2.442 1.332-1.776 2.886.666 1.776 2.22 2.885 3.774 2.441 1.332-.444 1.998-1.775 1.554-3.995z" fill="#16A851"/><path opacity=".3" d="M78.521 124.452c.222 0 .222-.222.222-.444s0-.444-.222-.444-.222.222-.222.444c.222.222.222.444.222.444z" fill="#fff"/><path d="M80.745 122.898c-.222.222-.666.444-.888.222-.222 0-.444-.222-.222-.444.222-.223.666-.445.888-.223.222 0 .444.223.222.445z" fill="#128742"/><path d="M80.077 122.898c0-1.11-.888-1.554-.888-1.554 0-.222.444 0 .444 0s.444.222.444 1.554z" fill="#603913"/><path opacity=".3" d="M82.518 124.009c0-.444-1.332-2.22-2.442-1.11-.888 1.11 1.554.444 2.442 1.11z" fill="#000"/><path d="M82.518 123.12c-.444-.444-1.554-1.11-2.442-.222l-.222.222v.222c.222.667 2.886 0 2.886 0l-.222-.222c.222 0 .222 0 0 0z" fill="#306947"/><path d="M82.722 123.121s-1.554-1.776-2.664-.444c-1.11 1.11 2.664.444 2.664.444z" fill="#4CB979"/><path d="M80.073 122.677l2.443.444s-2.22-.444-2.443-.444z" fill="#306947"/><path d="M79.633 126.007c-.222-1.776-1.554-2.664-3.33-1.776-1.554-.222-2.442 1.11-2.22 2.664.222 1.998 1.776 3.108 3.33 2.886 1.554-.444 2.442-1.554 2.22-3.774z" fill="#39CB74"/><path opacity=".3" d="M74.746 126.23c.222 0 .222 0 .444-.222v-.444c-.222 0-.222 0-.444.222s-.222.444 0 .444z" fill="#fff"/><path d="M76.968 125.12c-.222.222-.666.222-.888.222-.222 0-.444-.444 0-.666.222-.222.666-.222.888-.222.222.222.222.444 0 .666z" fill="#128742"/><path d="M76.307 124.898c0-1.11-.666-1.776-.666-1.776 0-.222.444 0 .444 0 0 .222.444.444.222 1.776z" fill="#603913"/><path opacity=".3" d="M78.523 126.451c0-.444-.888-2.442-2.22-1.554-.888.888 1.332.666 2.22 1.554z" fill="#000"/><path d="M78.743 125.564c-.444-.444-1.332-1.332-2.442-.666l-.222.222v.222c.222.666 2.887.444 2.887.444l-.222-.222c.222 0 0 0 0 0z" fill="#306947"/><path d="M78.965 125.564s-1.332-1.998-2.442-.888c-1.332 1.11 2.442.888 2.442.888z" fill="#4CB979"/><path d="M76.525 124.675c-.222 0 2.442.888 2.442.888l-2.442-.888z" fill="#306947"/><path d="M76.077 128.45c-.444-1.776-1.998-2.22-3.552-1.332-1.555 0-2.443 1.332-1.776 2.886.666 1.776 2.22 2.886 3.774 2.442 1.554-.666 2.22-1.776 1.554-3.996z" fill="#16A851"/><path opacity=".3" d="M71.417 129.336c.222 0 .222-.222.222-.444v-.444c-.222 0-.222.222-.222.444-.222.222-.222.444 0 .444z" fill="#fff"/><path d="M73.416 128.004c-.222.222-.666.444-.888.222-.223 0-.445-.222-.223-.444s.666-.444.889-.222c.444-.222.444.222.222.444z" fill="#128742"/><path d="M72.748 128.005c0-1.11-.888-1.554-.888-1.554 0-.222.444 0 .444 0 .222-.222.666 0 .444 1.554z" fill="#603913"/><path opacity=".3" d="M75.187 128.892c0-.443-1.332-2.219-2.442-1.109-.666 1.109 1.554.444 2.442 1.109z" fill="#000"/><path d="M75.189 128.227c-.444-.444-1.554-1.11-2.442-.222l-.222.222v.222c.222.666 2.886 0 2.886 0l-.222-.222c.222 0 .222 0 0 0z" fill="#306947"/><path d="M75.41 128.228s-1.554-1.777-2.664-.444c-.888 1.11 2.664.444 2.664.444z" fill="#4CB979"/><path d="M72.97 127.783l2.442.444s-2.442-.666-2.442-.444z" fill="#306947"/><path d="M72.31 130.89c-.222-1.775-1.555-2.441-3.33-1.775-1.555-.222-2.443 1.109-2.22 2.663.221 1.776 1.775 3.108 3.33 2.886 1.554-.222 2.442-1.554 2.22-3.774z" fill="#39CB74"/><path opacity=".3" d="M67.427 131.112c.222 0 .222 0 .444-.222v-.444c-.222 0-.222 0-.444.222v.444z" fill="#fff"/><path d="M69.644 130.003c-.222.222-.666.222-.888.222-.222 0-.444-.444 0-.666.222-.222.666-.222.888-.222.222.222.444.444 0 .666z" fill="#128742"/><path d="M69.203 130.003c0-1.11-.666-1.776-.666-1.776 0-.222.444 0 .444 0 0 .222.444.444.222 1.776z" fill="#603913"/><path opacity=".3" d="M71.425 131.335c0-.444-.888-2.442-2.22-1.554-1.11 1.11 1.332.666 2.22 1.554z" fill="#000"/><path d="M71.42 130.446c-.444-.444-1.332-1.331-2.442-.666l-.222.222v.222c.222.666 2.886.444 2.886.444l-.222-.222c.222.222.222.222 0 0z" fill="#306947"/><path d="M71.641 130.669s-1.332-1.998-2.442-.888c-1.332.888 2.442.888 2.442.888z" fill="#4CB979"/><path d="M69.202 129.781c-.222 0 2.442.887 2.442.887s-2.22-1.109-2.442-.887z" fill="#306947"/><path d="M87.401 126.228c-.222-1.776-1.554-2.664-3.33-1.776-1.554-.222-2.442 1.11-2.22 2.664.222 1.776 1.776 3.33 3.33 2.886 1.554-.444 2.442-1.554 2.22-3.774z" fill="#39CB74"/><path opacity=".3" d="M82.519 126.45c.222 0 .222 0 .444-.222v-.444c-.222 0-.222 0-.444.222v.444z" fill="#fff"/><path d="M84.736 125.34c-.222.222-.666.222-.888.222-.222-.222-.444-.444 0-.666.222-.222.666-.222.888-.222.222.222.444.444 0 .666z" fill="#128742"/><path d="M84.294 125.34a2.66 2.66 0 00-.665-1.776c0-.222.444 0 .444 0s.444.444.222 1.776z" fill="#603913"/><path opacity=".3" d="M86.511 126.673c0-.444-.888-2.443-2.22-1.555-.888 1.111 1.332.667 2.22 1.555z" fill="#000"/><path d="M86.732 125.784c-.444-.444-1.332-1.332-2.442-.666l-.223.222v.222c.223.666 2.887.444 2.887.444l-.222-.222c0 .222 0 0 0 0z" fill="#306947"/><path d="M86.733 126.006s-1.332-1.998-2.442-.888c-1.332.888 2.442.888 2.442.888z" fill="#4CB979"/><path d="M84.289 125.118c-.222 0 2.22.888 2.22.888s-1.998-1.11-2.22-.888z" fill="#306947"/><path d="M82.96 128.227c-.443-1.776-1.997-2.22-3.551-1.332-1.555 0-2.443 1.332-1.777 2.886.666 1.776 2.22 2.886 3.775 2.442 1.554-.666 2.22-1.998 1.554-3.996z" fill="#16A851"/><path opacity=".3" d="M78.301 129.114c.222 0 .222-.222.222-.445 0-.222 0-.444-.222-.444s-.222.222-.222.444c0 .223 0 .445.222.445z" fill="#fff"/><path d="M80.3 127.782c-.222.222-.666.444-.888.222-.222 0-.444-.222-.222-.445.222-.222.666-.444.888-.222.444-.222.444 0 .222.445z" fill="#128742"/><path d="M79.632 127.782c0-1.11-.888-1.554-.888-1.554 0-.222.444 0 .444 0 0-.222.666 0 .444 1.554z" fill="#603913"/><path opacity=".3" d="M82.071 128.671c0-.444-1.332-2.221-2.442-1.111-.666 1.111 1.554.444 2.442 1.111z" fill="#000"/><path d="M82.073 127.782c-.444-.444-1.554-1.11-2.442-.222l-.222.222v.222c.222.665 2.886 0 2.886 0l-.222-.222c.222.222.222.222 0 0z" fill="#306947"/><path d="M82.294 128.004s-1.554-1.775-2.664-.444c-.888 1.11 2.665.444 2.665.444z" fill="#4CB979"/><path d="M79.854 127.338c0 .222 2.442.444 2.442.444l-2.442-.444z" fill="#306947"/><path d="M79.853 131.114c-.222-1.776-1.555-2.664-3.33-1.776-1.555-.222-2.443 1.11-2.22 2.664.221 1.775 1.775 3.107 3.33 2.885 1.553-.222 2.442-1.332 2.22-3.773z" fill="#39CB74"/><path opacity=".3" d="M74.966 131.558c.222 0 .222 0 .444-.222v-.444c-.222 0-.222 0-.444.222-.222 0-.222.222 0 .444z" fill="#fff"/><path d="M77.187 130.225c-.222.222-.666.223-.888.223-.222 0-.444-.445 0-.667.222-.222.666-.222.888-.222.222.222.222.666 0 .666z" fill="#128742"/><path d="M76.52 130.225a2.66 2.66 0 00-.666-1.776c0-.222.444 0 .444 0 .222.222.444.444.222 1.776z" fill="#603913"/><path opacity=".3" d="M78.742 131.78c0-.445-.889-2.443-2.22-1.555-.889.888 1.553.666 2.22 1.555z" fill="#000"/><path d="M78.963 130.892c-.444-.444-1.332-1.332-2.442-.666l-.222.222v.222c.222.666 2.886.444 2.886.444l-.222-.222c.222 0 .222 0 0 0z" fill="#306947"/><path d="M79.184 130.892s-1.332-1.999-2.442-.888c-1.332.888 2.442.888 2.442.888z" fill="#4CB979"/><path d="M76.74 130.003c-.222 0 2.22.888 2.22.888l-2.22-.888z" fill="#306947"/><path d="M75.412 133.11c-.444-1.776-1.998-2.22-3.552-1.332-1.554 0-2.442 1.332-1.776 2.886.666 1.776 2.22 2.886 3.774 2.442 1.332-.444 1.998-1.776 1.554-3.996z" fill="#16A851"/><path opacity=".3" d="M70.527 134c.222 0 .222-.222.222-.444s0-.444-.222-.444-.222.222-.222.444c.222.222.222.444.222.444z" fill="#fff"/><path d="M72.525 132.667c-.222.222-.666.444-.888.222-.222 0-.444-.222-.222-.444s.666-.444.888-.222c.445 0 .445.222.222.444z" fill="#128742"/><path d="M72.083 132.667c0-1.11-.888-1.555-.888-1.555 0-.222.444 0 .444 0s.444.223.444 1.555z" fill="#603913"/><path opacity=".3" d="M74.525 133.775c0-.444-1.332-2.221-2.442-1.111-.888.889 1.332.445 2.442 1.111z" fill="#000"/><path d="M74.524 132.887c-.444-.444-1.554-1.11-2.442-.222l-.222.222v.222c.222.666 2.886 0 2.886 0l-.222-.222c.222 0 0 0 0 0z" fill="#306947"/><path d="M74.728 132.888s-1.554-1.776-2.664-.444c-1.11 1.11 2.664.444 2.664.444z" fill="#4CB979"/><path d="M72.08 132.443l2.442.444s-2.22-.666-2.443-.444z" fill="#306947"/><path d="M91.18 128.005c-.444-1.776-1.998-2.22-3.552-1.332-1.554 0-2.442 1.332-1.776 2.886.666 1.776 2.22 2.886 3.774 2.442 1.554-.444 2.22-1.776 1.554-3.996z" fill="#16A851"/><path opacity=".3" d="M86.52 129.115c.223 0 .223-.222.223-.444v-.444c-.222 0-.222.222-.222.444-.222.222-.222.444 0 .444z" fill="#fff"/><path d="M88.52 127.56c-.223.222-.667.444-.889.222-.222 0-.444-.222-.222-.444s.666-.444.888-.222c.444 0 .444.222.222.444z" fill="#128742"/><path d="M87.852 127.562a1.764 1.764 0 00-.888-1.555c0-.222.444 0 .444 0s.444.222.444 1.555z" fill="#603913"/><path opacity=".3" d="M90.29 128.672c0-.444-1.331-2.22-2.441-1.11-.666 1.11 1.554.444 2.442 1.11z" fill="#000"/><path d="M90.293 127.783c-.445-.444-1.555-1.11-2.443-.222l-.222.222v.222c.222.666 2.886 0 2.886 0l-.221-.222c.221.222.221 0 0 0z" fill="#306947"/><path d="M90.514 128.006s-1.554-1.775-2.664-.444c-.888 1.11 2.664.444 2.664.444z" fill="#4CB979"/><path d="M88.073 127.34l2.443.444-2.443-.444z" fill="#306947"/><path d="M87.401 130.669c-.222-1.777-1.554-2.665-3.33-1.777-1.554-.222-2.442 1.111-2.22 2.665.222 1.776 1.776 3.33 3.33 2.886 1.554-.444 2.442-1.554 2.22-3.774z" fill="#39CB74"/><path opacity=".3" d="M82.519 130.89c.222 0 .222 0 .444-.222v-.444c-.222 0-.222 0-.444.222v.444z" fill="#fff"/><path d="M84.736 129.78c-.222.222-.666.222-.888.222-.222-.222-.444-.444 0-.666.222-.222.666-.222.888-.222.222.222.222.444 0 .666z" fill="#128742"/><path d="M84.075 129.78a2.66 2.66 0 00-.666-1.776c0-.222.444 0 .444 0 .222 0 .666.444.222 1.776z" fill="#603913"/><path opacity=".3" d="M86.517 131.113c0-.444-.888-2.442-2.22-1.554-1.11 1.11 1.332.666 2.22 1.554z" fill="#000"/><path d="M86.512 130.224c-.444-.444-1.332-1.332-2.442-.666l-.222.222v.222c.222.666 2.886.444 2.886.444l-.222-.222c.222.222.222 0 0 0z" fill="#306947"/><path d="M86.733 130.447s-1.332-1.999-2.442-.889c-1.332.889 2.442.889 2.442.889z" fill="#4CB979"/><path d="M84.294 129.558c-.222 0 2.442.888 2.442.888s-2.22-1.11-2.442-.888z" fill="#306947"/><path d="M84.07 133.11c-.443-1.776-1.997-2.22-3.551-1.332-1.554 0-2.442 1.332-1.776 2.886.666 1.776 2.22 2.886 3.774 2.442 1.332-.444 1.998-1.776 1.554-3.996z" fill="#16A851"/><path opacity=".3" d="M79.186 134c.222 0 .222-.222.222-.444s0-.444-.222-.444-.222.222-.222.444c.222.222.222.444.222.444z" fill="#fff"/><path d="M81.41 132.667c-.222.222-.666.444-.888.222-.222 0-.444-.222-.222-.444s.666-.444.888-.222c.222 0 .222.222.222.444z" fill="#128742"/><path d="M80.742 132.667c0-1.11-.888-1.555-.888-1.555 0-.222.444 0 .444 0s.444.223.444 1.555z" fill="#603913"/><path opacity=".3" d="M83.184 133.775c0-.444-1.332-2.221-2.442-1.111-.889.889 1.331.222 2.442 1.111z" fill="#000"/><path d="M83.183 132.887c-.444-.444-1.554-1.11-2.442-.222l-.222.222v.222c.222.666 2.886 0 2.886 0l-.222-.222c.222 0 0 0 0 0z" fill="#306947"/><path d="M83.387 132.888s-1.554-1.776-2.664-.444c-1.11 1.11 2.664.444 2.664.444z" fill="#4CB979"/><path d="M80.738 132.443c0 .222 2.442.444 2.442.444s-2.22-.666-2.442-.444z" fill="#306947"/><path d="M80.297 135.554c-.222-1.776-1.554-2.442-3.33-1.776-1.554-.222-2.442 1.11-2.22 2.664.222 1.776 1.776 3.329 3.33 2.885 1.332-.221 2.442-1.553 2.22-3.773z" fill="#39CB74"/><path opacity=".3" d="M75.41 135.774c.223 0 .223 0 .445-.222v-.444c-.222 0-.222 0-.444.222s-.222.444 0 .444z" fill="#fff"/><path d="M77.632 134.665c-.222.222-.666.222-.888.222-.222-.222-.444-.445 0-.667.222-.222.666-.222.888-.222.222.222.222.444 0 .667z" fill="#128742"/><path d="M76.971 134.665c0-1.111-.666-1.777-.666-1.777 0-.222.444 0 .444 0 0 .222.444.444.222 1.777z" fill="#603913"/><path opacity=".3" d="M79.188 135.995c0-.444-.888-2.442-2.22-1.554-.888 1.11 1.332.888 2.22 1.554z" fill="#000"/><path d="M79.408 135.331c-.444-.444-1.332-1.332-2.442-.666l-.222.222v.222c.222.444 2.886.444 2.886.444l-.222-.222c.222 0 0 0 0 0z" fill="#306947"/><path d="M79.63 135.33s-1.333-1.998-2.443-.888c-1.332.888 2.442.888 2.442.888z" fill="#4CB979"/><path d="M77.19 134.442c-.222 0 2.442.888 2.442.888l-2.442-.888z" fill="#306947"/><path d="M76.742 146.654l-1.332.666-.666-11.322v-3.108l.666-.444 1.332-.888v15.096z" fill="#A86732"/><path d="M75.411 147.32l-1.332-.666v-15.096l1.332.888v14.874z" fill="#E09A55"/><path d="M76.743 131.558l-1.332.888-1.332-.888 1.332-.666 1.332.666z" fill="#E9B579"/><path d="M74.524 142.877v5.106l.888-.666v-4.884l-.888.444z" fill="#A86732"/><path d="M47.439 127.338v5.106l27.085 15.541v-5.106l-27.085-15.541z" fill="#E09A55"/><path d="M48.549 126.893l-1.11.444 27.085 15.541.888-.444-26.863-15.541z" fill="#E9B579"/><path d="M74.524 135.108v4.884l.888-.444v-5.106l-.888.666z" fill="#A86732"/><path d="M47.439 119.568v4.885l27.085 15.54v-4.884l-27.085-15.541z" fill="#E09A55"/><path d="M48.549 118.902l-1.11.666 27.085 15.541.888-.666-26.863-15.541z" fill="#E9B579"/><path d="M75.412 143.544v4.884l-.888-.444v-5.106l.888.666z" fill="#E09A55"/><path d="M94.063 132.889v4.884l-18.648 10.656v-4.884l18.648-10.656z" fill="#A86732"/><path d="M93.173 132.222l.888.666-18.649 10.657-.888-.666 18.649-10.657z" fill="#E9B579"/><path d="M75.412 135.554v5.106l-.888-.666v-4.884l.888.444z" fill="#E09A55"/><path d="M94.063 124.896v4.884l-18.648 10.879v-5.106l18.648-10.657z" fill="#A86732"/><path d="M93.173 124.232l.888.666-18.649 10.656-.888-.444 18.649-10.878z" fill="#E9B579"/><path d="M93.405 121.786l-17.982 10.212-28.417-16.206 18.204-9.991 28.195 15.985z" fill="#7A4100"/><path d="M47.449 111.574v4.884l-.888-.444v-5.106l.888.666z" fill="#E09A55"/><path d="M66.1 100.696v5.106l-18.65 10.657v-4.885l18.65-10.878z" fill="#A86732"/><path d="M65.21 100.251l.887.444-18.648 10.878-.888-.666 18.648-10.656z" fill="#E9B579"/><path d="M47.449 103.58v4.884l-.888-.444v-5.106l.888.666z" fill="#E09A55"/><path d="M66.1 92.925v4.884l-18.65 10.656v-4.884L66.1 92.925z" fill="#A86732"/><path d="M65.21 92.259l.887.666L47.45 103.58l-.888-.666L65.21 92.258z" fill="#E9B579"/><path d="M51.001 116.012l-1.11.666-.666-11.322v-3.33l.666-.444 1.11-.666v15.096z" fill="#A86732"/><path d="M49.893 116.678l-1.332-.666v-15.096l1.332.666v15.096z" fill="#E09A55"/><path d="M51.003 100.917l-1.11.666-1.332-.666 1.332-.888 1.11.888z" fill="#E9B579"/><path d="M92.073 116.904v4.885l1.11-.444v-4.885l-1.11.444z" fill="#A86732"/><path d="M65.213 101.361v4.884l26.863 15.541v-4.884l-26.863-15.541z" fill="#E09A55"/><path d="M66.101 100.697l-.888.666 26.863 15.54 1.11-.444L66.1 100.697z" fill="#E9B579"/><path d="M92.073 108.91v5.106l1.11-.666v-4.884l-1.11.444z" fill="#A86732"/><path d="M65.213 93.37v5.106l26.863 15.541v-5.106l-26.863-15.54z" fill="#E09A55"/><path d="M66.101 92.926l-.888.444 26.863 15.541 1.11-.444L66.1 92.927z" fill="#E9B579"/><path d="M92.075 121.786l-1.11.888-.666-11.323v-3.33l.666-.444 1.11-.666v14.875z" fill="#A86732"/><path d="M90.966 122.674l-1.332-.888v-14.875l1.332.666v15.097z" fill="#E09A55"/><path d="M92.076 106.912l-1.11.666-1.332-.666 1.332-.888 1.11.888z" fill="#E9B579"/><path d="M66.54 107.134l-1.331.666-.666-11.322v-3.33l.666-.444 1.332-.666v15.096z" fill="#A86732"/><path d="M65.21 107.8l-1.332-.666V92.038l1.332.666V107.8z" fill="#E09A55"/><path d="M66.542 92.038l-1.332.666-1.332-.666 1.332-.666 1.332.666z" fill="#E9B579"/><path d="M91.625 115.347c-.444-1.776-1.998-2.22-3.552-1.332-1.554 0-2.442 1.332-1.776 2.886.666 1.777 2.22 2.887 3.774 2.443 1.332-.444 1.998-1.776 1.554-3.997z" fill="#16A851"/><path opacity=".3" d="M86.74 116.458c.222 0 .222-.222.222-.444s0-.444-.222-.444-.222.222-.222.444c.222.222.222.444.222.444z" fill="#fff"/><path d="M88.964 114.903c-.222.223-.666.445-.888.222-.222 0-.444-.222-.222-.444s.666-.444.888-.222c.222 0 .444.222.222.444z" fill="#128742"/><path d="M88.296 114.903c0-1.109-.888-1.553-.888-1.553 0-.222.444 0 .444 0s.444.222.444 1.553z" fill="#603913"/><path opacity=".3" d="M90.737 116.013c0-.444-1.332-2.22-2.442-1.11-.889 1.11 1.554.444 2.442 1.11z" fill="#000"/><path d="M90.737 115.126c-.444-.444-1.554-1.11-2.442-.222l-.222.222v.222c.222.666 2.886 0 2.886 0l-.222-.222c.222.222.222 0 0 0z" fill="#306947"/><path d="M90.941 115.348s-1.554-1.776-2.664-.444c-1.11 1.11 2.664.444 2.664.444z" fill="#4CB979"/><path d="M88.292 114.682c0 .222 2.442.444 2.442.444s-2.22-.444-2.442-.444z" fill="#306947"/><path d="M87.852 118.011c-.222-1.776-1.554-2.664-3.33-1.776-1.554-.222-2.442 1.11-2.22 2.664.222 1.776 1.776 3.108 3.33 2.886 1.554-.444 2.442-1.554 2.22-3.774z" fill="#39CB74"/><path opacity=".3" d="M82.966 118.234c.222 0 .222 0 .444-.222v-.444c-.222 0-.222 0-.444.222s-.222.444 0 .444z" fill="#fff"/><path d="M85.187 117.125c-.222.222-.666.222-.888.222-.222-.223-.444-.444 0-.666.222-.222.666-.223.888-.223.222.223.222.445 0 .667z" fill="#128742"/><path d="M84.523 117.125c0-1.11-.444-1.777-.444-1.777 0-.222.444 0 .444 0-.222 0 .222.445 0 1.777z" fill="#603913"/><path opacity=".3" d="M86.743 118.455c0-.444-.888-2.442-2.22-1.554-.888.888 1.332.666 2.22 1.554z" fill="#000"/><path d="M86.963 117.568c-.444-.444-1.332-1.332-2.442-.666l-.222.222v.222c.222.666 2.886.444 2.886.444l-.222-.222c.222.222 0 0 0 0z" fill="#306947"/><path d="M87.168 117.79s-1.333-1.997-2.665-.888c-1.11.888 2.665.888 2.665.888z" fill="#4CB979"/><path d="M84.74 116.902c-.222 0 2.22.889 2.22.889s-2.22-1.111-2.22-.889z" fill="#306947"/><path d="M84.296 120.456c-.444-1.776-1.998-2.22-3.552-1.332-1.554 0-2.442 1.332-1.776 2.886.666 1.776 2.22 2.886 3.774 2.442 1.554-.444 2.22-1.776 1.554-3.996z" fill="#16A851"/><path opacity=".3" d="M79.637 121.342c.222 0 .222-.222.222-.444s0-.444-.222-.444-.222.222-.222.444 0 .444.222.444z" fill="#fff"/><path d="M81.635 120.01c-.222.222-.666.444-.888.222-.222 0-.444-.222-.222-.444s.666-.444.888-.222c.444 0 .444.222.222.444z" fill="#128742"/><path d="M80.967 120.011c0-1.11-.888-1.554-.888-1.554 0-.222.444 0 .444 0 .222 0 .666.222.444 1.554z" fill="#603913"/><path opacity=".3" d="M83.407 121.122c0-.444-1.332-2.221-2.442-1.11-.666.888 1.554.222 2.442 1.11z" fill="#000"/><path d="M83.408 120.233c-.444-.444-1.554-1.11-2.442-.222l-.222.222v.222c.222.666 2.886 0 2.886 0l-.222-.222c.222 0 .222 0 0 0z" fill="#306947"/><path d="M83.63 120.234s-1.554-1.777-2.664-.444c-.888 1.11 2.664.444 2.664.444z" fill="#4CB979"/><path d="M81.19 119.789l2.441.444s-2.442-.666-2.442-.444z" fill="#306947"/><path d="M80.53 122.897c-.223-1.776-1.555-2.443-3.331-1.776-1.554-.222-2.442 1.11-2.22 2.664.222 1.998 1.776 3.33 3.33 2.886 1.554-.222 2.442-1.554 2.22-3.774z" fill="#39CB74"/><path opacity=".3" d="M75.646 123.118c.222 0 .222 0 .444-.222v-.444c-.222 0-.222 0-.444.222v.444z" fill="#fff"/><path d="M77.864 122.009c-.222.222-.666.222-.888.222-.222 0-.444-.444 0-.666.222-.222.666-.222.888-.222.222.222.444.444 0 .666z" fill="#128742"/><path d="M77.422 122.009c0-1.11-.666-1.777-.666-1.777 0-.222.444 0 .444 0 0 .223.444.445.222 1.777z" fill="#603913"/><path opacity=".3" d="M79.644 123.342c0-.444-.888-2.443-2.22-1.555-1.11 1.111 1.332.888 2.22 1.555z" fill="#000"/><path d="M79.64 122.674c-.444-.444-1.332-1.333-2.442-.667l-.222.222v.223c.222.666 2.886.444 2.886.444l-.222-.222c.222 0 .222 0 0 0z" fill="#306947"/><path d="M79.861 122.675s-1.332-1.998-2.442-.888c-1.332.888 2.442.888 2.442.888z" fill="#4CB979"/><path d="M77.417 121.788c-.222 0 2.22.888 2.22.888s-1.998-.888-2.22-.888z" fill="#306947"/><path d="M56.328 111.796c-.222-1.776-1.554-2.442-3.33-1.776-1.554-.222-2.442 1.11-2.22 2.664.222 1.777 1.776 3.109 3.33 2.887 1.554-.444 2.442-1.555 2.22-3.775z" fill="#39CB74"/><path opacity=".3" d="M51.445 112.018c.222 0 .222 0 .444-.222v-.444c-.222 0-.222 0-.444.222v.444z" fill="#fff"/><path d="M53.663 110.908c-.222.222-.666.222-.888.222-.222-.222-.444-.444 0-.666.222-.222.666-.222.888-.222.222.222.222.444 0 .666z" fill="#128742"/><path d="M53.001 110.908c0-1.11-.666-1.776-.666-1.776 0-.222.444 0 .444 0 .222 0 .666.444.222 1.776z" fill="#603913"/><path opacity=".3" d="M55.443 112.24c0-.444-.888-2.441-2.22-1.554-1.11 1.11 1.332.666 2.22 1.554z" fill="#000"/><path d="M55.438 111.352c-.444-.444-1.332-1.332-2.442-.666l-.222.222v.222c.222.666 2.886.444 2.886.444l-.222-.222c.222.222.222 0 0 0z" fill="#306947"/><path d="M55.66 111.574s-1.332-1.998-2.442-.888c-1.333.888 2.442.888 2.442.888z" fill="#4CB979"/><path d="M53.22 110.686c-.222 0 2.442.888 2.442.888s-2.22-1.11-2.442-.888z" fill="#306947"/><path d="M59.881 113.349c-.444-1.776-1.998-2.22-3.552-1.332-1.554 0-2.442 1.332-1.776 2.886.666 1.776 2.22 2.886 3.774 2.442 1.332-.444 1.998-1.776 1.554-3.996z" fill="#16A851"/><path opacity=".3" d="M54.997 114.46c.222 0 .222-.223.222-.445s0-.444-.222-.444-.222.222-.222.444c.222.222.222.222.222.445z" fill="#fff"/><path d="M56.995 112.905c-.222.221-.666.443-.889.221-.221 0-.444-.221-.221-.443.221-.222.666-.444.888-.222.443 0 .443.222.221.444z" fill="#128742"/><path d="M56.552 112.906c0-1.11-.888-1.554-.888-1.554 0-.222.444 0 .444 0s.444.222.444 1.554z" fill="#603913"/><path opacity=".3" d="M58.994 114.017c0-.445-1.332-2.221-2.442-1.111-.888 1.111 1.332.444 2.442 1.111z" fill="#000"/><path d="M58.993 113.128c-.444-.444-1.554-1.111-2.442-.222l-.222.222v.222c.222.666 2.886 0 2.886 0l-.222-.222c.222 0 0 0 0 0z" fill="#306947"/><path d="M59.197 113.128s-1.553-1.776-2.664-.444c-1.11 1.11 2.664.444 2.664.444z" fill="#4CB979"/><path d="M56.549 112.684c0 .222 2.442.444 2.442.444s-2.22-.666-2.442-.444z" fill="#306947"/><path d="M63.877 115.793c-.223-1.776-1.555-2.442-3.33-1.776-1.555-.222-2.443 1.11-2.22 2.664.221 1.998 1.775 3.33 3.33 2.886 1.554-.444 2.442-1.554 2.22-3.774z" fill="#39CB74"/><path opacity=".3" d="M58.99 116.015c.222 0 .222 0 .444-.222v-.444c-.222 0-.222 0-.444.222s-.222.444 0 .444z" fill="#fff"/><path d="M61.211 114.905c-.222.222-.666.222-.888.222-.222-.222-.444-.444 0-.666.222-.222.666-.222.888-.222.222.222.222.444 0 .666z" fill="#128742"/><path d="M60.55 114.682c0-1.11-.666-1.776-.666-1.776 0-.222.444 0 .444 0 .222.222.444.444.222 1.776z" fill="#603913"/><path opacity=".3" d="M62.992 116.235c0-.444-.889-2.442-2.22-1.554-1.11.888 1.331.666 2.22 1.554z" fill="#000"/><path d="M62.987 115.347c-.444-.444-1.332-1.332-2.442-.666l-.222.222v.222c.222.666 2.886.444 2.886.444l-.222-.222c.222 0 .222 0 0 0z" fill="#306947"/><path d="M63.208 115.347s-1.332-1.998-2.442-.888c-1.332 1.11 2.442.888 2.442.888z" fill="#4CB979"/><path d="M60.77 114.459c-.223 0 2.441.888 2.441.888l-2.442-.888z" fill="#306947"/><path d="M67.43 117.346c-.444-1.776-1.998-2.22-3.552-1.332-1.554 0-2.442 1.332-1.776 2.886.666 1.776 2.22 2.886 3.774 2.442 1.332-.666 1.998-1.776 1.554-3.996z" fill="#16A851"/><path opacity=".3" d="M62.545 118.235c.222 0 .222-.222.222-.444s0-.444-.222-.444-.222.222-.222.444.222.444.222.444z" fill="#fff"/><path d="M64.543 116.903c-.222.222-.666.444-.888.222-.222 0-.444-.222-.222-.444s.666-.444.888-.222c.444-.222.444.222.222.444z" fill="#128742"/><path d="M63.882 116.902c0-1.11-.888-1.554-.888-1.554 0-.222.444 0 .444 0 .222 0 .666 0 .444 1.554z" fill="#603913"/><path opacity=".3" d="M66.537 118.012c0-.444-1.332-2.221-2.442-1.11-.888.888 1.332.222 2.442 1.11z" fill="#000"/><path d="M66.536 117.123c-.444-.444-1.554-1.11-2.442-.222l-.222.222v.222c.222.665 2.886 0 2.886 0l-.222-.222z" fill="#306947"/><path d="M66.538 117.124s-1.554-1.777-2.664-.444c-.888 1.11 2.664.444 2.664.444z" fill="#4CB979"/><path d="M64.092 116.679l2.442.444s-2.442-.666-2.442-.444z" fill="#306947"/><path d="M69.87 119.566c-.222-1.776-1.554-2.664-3.33-1.776-1.554-.222-2.442 1.11-2.22 2.664.222 1.777 1.776 3.331 3.33 2.887 1.554-.444 2.442-1.554 2.22-3.775z" fill="#39CB74"/><path opacity=".3" d="M64.987 119.788c.223 0 .223 0 .445-.222v-.444c-.222 0-.222 0-.445.222v.444z" fill="#fff"/><path d="M67.205 118.678c-.222.222-.666.222-.888.222-.222-.222-.444-.444 0-.666.222-.222.666-.222.888-.222.222.222.222.444 0 .666z" fill="#128742"/><path d="M66.538 118.678c0-1.11-.666-1.776-.666-1.776 0-.222.444 0 .444 0 .222 0 .666.444.222 1.776z" fill="#603913"/><path opacity=".3" d="M68.986 120.011c0-.444-.888-2.443-2.22-1.555-1.11 1.111 1.332.667 2.22 1.555z" fill="#000"/><path d="M68.981 119.122c-.444-.444-1.332-1.333-2.442-.666l-.222.222v.222c.222.666 2.886.444 2.886.444l-.222-.222c.222.222.222 0 0 0z" fill="#306947"/><path d="M69.202 119.344s-1.332-1.998-2.442-.888c-1.332.888 2.442.888 2.442.888z" fill="#4CB979"/><path d="M66.763 118.456c-.222 0 2.442.888 2.442.888s-2.22-1.11-2.442-.888z" fill="#306947"/><path d="M76.31 123.341c-.222-1.776-1.555-2.442-3.33-1.776-1.555-.222-2.443 1.11-2.22 2.664.221 1.776 1.775 3.108 3.33 2.886 1.553-.444 2.441-1.554 2.22-3.774z" fill="#39CB74"/><path opacity=".3" d="M71.427 123.563c.222 0 .222 0 .444-.222v-.444c-.222 0-.222 0-.444.222v.444z" fill="#fff"/><path d="M73.644 122.452c-.222.222-.666.222-.888.222-.222 0-.444-.444 0-.666.222-.222.666-.222.888-.222.222.222.222.444 0 .666z" fill="#128742"/><path d="M72.983 122.231c0-1.11-.666-1.776-.666-1.776 0-.222.444 0 .444 0 .222.222.666.444.222 1.776z" fill="#603913"/><path opacity=".3" d="M75.425 123.783c0-.444-.888-2.442-2.22-1.554-1.11.888 1.332.666 2.22 1.554z" fill="#000"/><path d="M75.42 122.896c-.444-.444-1.332-1.332-2.442-.666l-.222.222v.222c.222.667 2.886.444 2.886.444l-.222-.222c.222.222.222 0 0 0z" fill="#306947"/><path d="M75.624 123.118s-1.331-1.998-2.664-.888c-1.11.888 2.665.888 2.665.888z" fill="#4CB979"/><path d="M73.197 122.009c-.222 0 2.22.888 2.22.888s-1.998-.888-2.22-.888z" fill="#306947"/><path d="M73.424 121.12c-.444-1.776-1.998-2.22-3.552-1.332-1.554 0-2.442 1.332-1.776 2.887.666 1.776 2.22 2.886 3.774 2.442 1.332-.444 1.998-1.776 1.554-3.997z" fill="#16A851"/><path opacity=".3" d="M68.54 122.231c.221 0 .221-.222.221-.444s0-.444-.222-.444-.222.222-.222.444.222.222.222.444z" fill="#fff"/><path d="M70.537 120.676c-.222.222-.666.444-.888.222-.222 0-.444-.222-.222-.444s.666-.444.888-.222c.444 0 .444.222.222.444z" fill="#128742"/><path d="M69.87 120.676c0-1.109-.888-1.553-.888-1.553 0-.222.444 0 .444 0 .222 0 .666.222.444 1.553z" fill="#603913"/><path opacity=".3" d="M72.537 121.787c0-.444-1.332-2.219-2.442-1.11-.888 1.11 1.332.444 2.442 1.11z" fill="#000"/><path d="M72.536 120.899c-.444-.444-1.554-1.11-2.442-.222l-.222.222v.222c.222.666 2.886 0 2.886 0l-.222-.222c.222 0 0 0 0 0z" fill="#306947"/><path d="M72.74 120.9s-1.554-1.777-2.664-.444c-1.11 1.11 2.665.444 2.665.444z" fill="#4CB979"/><path d="M70.091 120.455l2.442.444s-2.442-.666-2.442-.444z" fill="#306947"/><path d="M68.76 97.81c-.445-1.777-1.999-2.22-3.553-1.333-1.554 0-2.442 1.332-1.776 2.886.666 1.776 2.22 2.886 3.774 2.442 1.332-.444 1.998-1.776 1.554-3.996z" fill="#16A851"/><path opacity=".3" d="M63.875 98.92c.222 0 .222-.222.222-.444s0-.444-.222-.444-.222.222-.222.444c0 0 .222.222.222.444z" fill="#fff"/><path d="M65.873 97.365c-.222.221-.666.443-.888.221-.222 0-.444-.221-.222-.443s.666-.444.888-.222c.444 0 .444.222.222.444z" fill="#128742"/><path d="M65.205 97.366c0-1.11-.888-1.554-.888-1.554 0-.222.444 0 .444 0 .222 0 .666.222.444 1.554z" fill="#603913"/><path opacity=".3" d="M67.867 98.477c0-.445-1.332-2.22-2.442-1.11-.888 1.11 1.332.444 2.442 1.11z" fill="#000"/><path d="M67.866 97.588c-.444-.444-1.554-1.11-2.442-.222l-.222.222v.222c.222.666 2.886 0 2.886 0l-.222-.222z" fill="#306947"/><path d="M67.868 97.588s-1.554-1.776-2.664-.444c-.888 1.11 2.664.444 2.664.444z" fill="#4CB979"/><path d="M65.421 97.144l2.442.444s-2.442-.666-2.442-.444z" fill="#306947"/><path d="M64.76 100.473c-.221-1.776-1.553-2.442-3.33-1.776-1.553-.222-2.441 1.11-2.22 2.664.223 1.776 1.777 3.108 3.33 2.886 1.555-.444 2.443-1.554 2.22-3.774z" fill="#39CB74"/><path opacity=".3" d="M59.878 100.695c.222 0 .222 0 .444-.222v-.444c-.222 0-.222 0-.444.222v.444z" fill="#fff"/><path d="M62.096 99.585c-.222.222-.666.222-.888.222-.222 0-.444-.444 0-.666.221-.222.666-.222.888-.222.222.222.444.444 0 .666z" fill="#128742"/><path d="M61.654 99.363c0-1.11-.666-1.775-.666-1.775 0-.222.444 0 .444 0 0 .222.444.444.222 1.775z" fill="#603913"/><path opacity=".3" d="M63.87 100.917c0-.444-.887-2.442-2.22-1.554-.887.888 1.333.666 2.22 1.554z" fill="#000"/><path d="M64.091 100.03c-.444-.444-1.332-1.332-2.442-.666l-.222.222v.222c.222.666 2.886.444 2.886.444l-.222-.222z" fill="#306947"/><path d="M64.093 100.03s-1.332-1.998-2.442-.888c-1.332 1.11 2.442.888 2.442.888z" fill="#4CB979"/><path d="M61.653 99.141c-.222 0 2.442.888 2.442.888s-2.22-.888-2.442-.888z" fill="#306947"/><path d="M61.436 102.695c-.444-1.776-1.998-2.22-3.552-1.332-1.554 0-2.442 1.332-1.776 2.886.666 1.775 2.22 2.885 3.774 2.441 1.332-.444 2.22-1.775 1.554-3.995z" fill="#16A851"/><path opacity=".3" d="M56.77 103.804c.222 0 .223-.222.223-.444s0-.444-.223-.444c-.222 0-.222.222-.222.444s0 .444.222.444z" fill="#fff"/><path d="M58.775 102.249c-.222.222-.666.444-.888.222-.222 0-.444-.222-.222-.444s.666-.444.888-.222c.222 0 .444.222.222.444z" fill="#128742"/><path d="M58.107 102.25c0-1.11-.888-1.554-.888-1.554 0-.222.444 0 .444 0s.444.222.444 1.554z" fill="#603913"/><path opacity=".3" d="M60.548 103.359c0-.444-1.332-2.22-2.442-1.11-.888 1.11 1.554.444 2.442 1.11z" fill="#000"/><path d="M60.548 102.472c-.444-.444-1.554-1.11-2.442-.222l-.222.222v.222c.222.666 2.886 0 2.886 0l-.222-.222c.222.222.222 0 0 0z" fill="#306947"/><path d="M60.752 102.694s-1.554-1.776-2.664-.444c-1.11 1.11 2.664.444 2.664.444z" fill="#4CB979"/><path d="M58.103 102.028l2.443.444s-2.22-.444-2.443-.444z" fill="#306947"/><path d="M57.657 105.358c-.222-1.776-1.554-2.442-3.33-1.776-1.554-.222-2.442 1.11-2.22 2.664.222 1.776 1.776 3.331 3.33 2.887 1.554-.444 2.442-1.555 2.22-3.775z" fill="#39CB74"/><path opacity=".3" d="M52.77 105.58s.222 0 .444-.222v-.444s-.222 0-.444.222-.222.444 0 .444z" fill="#fff"/><path d="M54.992 104.47c-.222.222-.666.222-.888.222-.222 0-.444-.444 0-.666.222-.222.666-.222.888-.222.222.222.222.444 0 .666z" fill="#128742"/><path d="M54.325 104.471a2.66 2.66 0 00-.666-1.777c0-.222.444 0 .444 0 .221 0 .666.444.221 1.777z" fill="#603913"/><path opacity=".3" d="M56.772 105.803c0-.444-.888-2.442-2.22-1.554-1.11 1.11 1.332.666 2.22 1.554z" fill="#000"/><path d="M56.768 104.914c-.444-.444-1.332-1.332-2.442-.666l-.222.222v.222c.222.666 2.886.444 2.886.444l-.222-.222c.222.222.222 0 0 0z" fill="#306947"/><path d="M56.99 105.136s-1.333-1.997-2.443-.888c-1.332.888 2.442.888 2.442.888z" fill="#4CB979"/><path d="M54.55 104.248c-.222 0 2.442.889 2.442.889s-2.442-1.111-2.442-.889z" fill="#306947"/><path d="M72.76 100.694c-.221-1.776-1.553-2.664-3.33-1.776-1.554-.222-2.442 1.11-2.22 2.664.223 1.776 1.777 3.33 3.33 2.886 1.555-.444 2.443-1.554 2.22-3.774z" fill="#39CB74"/><path opacity=".3" d="M67.879 100.917c.222 0 .222 0 .444-.222v-.444c-.222 0-.222 0-.444.222s0 .444 0 .444z" fill="#fff"/><path d="M70.095 99.807c-.222.222-.666.222-.888.222-.222 0-.444-.444 0-.666.222-.222.666-.222.888-.222.222.222.222.444 0 .666z" fill="#128742"/><path d="M69.434 99.585a2.66 2.66 0 00-.666-1.776c0-.222.444 0 .444 0 .222.222.666.444.222 1.776z" fill="#603913"/><path opacity=".3" d="M71.876 101.137c0-.444-.888-2.442-2.22-1.554-1.11.888 1.332.666 2.22 1.554z" fill="#000"/><path d="M71.871 100.25c-.444-.445-1.332-1.332-2.442-.666l-.222.221v.223c.222.666 2.886.444 2.886.444l-.222-.222c.222.222.222 0 0 0z" fill="#306947"/><path d="M72.092 100.472s-1.332-1.998-2.442-.888c-1.332.888 2.442.888 2.442.888z" fill="#4CB979"/><path d="M69.653 99.36c-.222 0 2.442.889 2.442.889l-2.442-.888z" fill="#306947"/><path d="M68.314 102.472c-.444-1.776-1.998-2.22-3.552-1.332-1.554 0-2.442 1.332-1.776 2.886.666 1.776 2.22 2.886 3.774 2.442 1.332-.444 1.998-1.776 1.554-3.996z" fill="#16A851"/><path opacity=".3" d="M63.43 103.583c.221 0 .221-.222.221-.444s0-.444-.222-.444-.222.222-.222.444c.222.222.222.444.222.444z" fill="#fff"/><path d="M65.653 102.028c-.222.222-.666.444-.888.222-.222 0-.444-.222-.222-.444s.666-.444.888-.222c.222 0 .444.222.222.444z" fill="#128742"/><path d="M64.985 102.029c0-1.11-.888-1.554-.888-1.554 0-.222.444 0 .444 0s.444.222.444 1.554z" fill="#603913"/><path opacity=".3" d="M67.426 103.14c0-.444-1.332-2.221-2.442-1.11-.888 1.11 1.554.444 2.442 1.11z" fill="#000"/><path d="M67.426 102.251c-.444-.444-1.554-1.11-2.442-.222l-.222.222v.222c.222.666 2.886 0 2.886 0l-.222-.222c.222.222.222 0 0 0z" fill="#306947"/><path d="M67.63 102.474s-1.554-1.776-2.664-.444c-1.11 1.109 2.665.444 2.665.444z" fill="#4CB979"/><path d="M64.982 101.807c0 .222 2.442.444 2.442.444s-2.22-.444-2.442-.444z" fill="#306947"/><path d="M64.987 105.582c-.222-1.776-1.554-2.442-3.33-1.776-1.555-.222-2.443 1.11-2.22 2.664.221 1.998 1.776 3.331 3.33 2.887 1.554-.222 2.442-1.555 2.22-3.775z" fill="#39CB74"/><path opacity=".3" d="M60.32 105.803c.221 0 .221 0 .443-.222v-.444c-.222 0-.222 0-.444.222s-.222.444 0 .444z" fill="#fff"/><path d="M62.547 104.693c-.222.222-.666.222-.888.222-.222 0-.444-.444 0-.666.222-.222.666-.222.888-.222.222.222.222.444 0 .666z" fill="#128742"/><path d="M61.88 104.692c0-1.109-.666-1.775-.666-1.775 0-.222.444 0 .444 0 0 .222.444.444.221 1.775z" fill="#603913"/><path opacity=".3" d="M64.103 106.022c0-.444-.888-2.441-2.22-1.553-.889 1.109 1.332.887 2.22 1.553z" fill="#000"/><path d="M64.323 105.136c-.444-.444-1.332-1.333-2.442-.666l-.222.222v.222c.222.666 2.886.444 2.886.444l-.222-.222c.222.222 0 .222 0 0z" fill="#306947"/><path d="M64.544 105.358s-1.332-1.999-2.442-.888c-1.332.888 2.442.888 2.442.888z" fill="#4CB979"/><path d="M61.885 104.47c-.222 0 2.442.888 2.442.888s-2.22-1.111-2.442-.888z" fill="#306947"/><path d="M60.546 107.577c-.444-1.776-1.998-2.22-3.552-1.332-1.554 0-2.443 1.332-1.776 2.886.666 1.776 2.22 2.886 3.774 2.442 1.554-.444 2.22-1.776 1.554-3.996z" fill="#16A851"/><path opacity=".3" d="M55.88 108.465c.223 0 .223-.222.223-.444s0-.444-.222-.444-.222.222-.222.444 0 .444.222.444z" fill="#fff"/><path d="M57.885 107.133c-.222.222-.666.444-.888.222-.222 0-.444-.222-.222-.444s.666-.444.888-.222c.444 0 .444.222.222.444z" fill="#128742"/><path d="M57.217 107.134c0-1.11-.888-1.554-.888-1.554 0-.222.444 0 .444 0 .222 0 .666.222.444 1.554z" fill="#603913"/><path opacity=".3" d="M59.656 108.244c0-.444-1.332-2.221-2.442-1.111-.666.889 1.554.222 2.442 1.111z" fill="#000"/><path d="M59.658 107.356c-.444-.444-1.554-1.11-2.442-.222l-.222.222v.222c.222.666 2.886 0 2.886 0l-.222-.222c.222 0 .222 0 0 0z" fill="#306947"/><path d="M59.88 107.357s-1.554-1.776-2.664-.444c-.889 1.11 2.664.444 2.664.444z" fill="#4CB979"/><path d="M57.439 106.912c0 .222 2.442.444 2.442.444s-2.442-.666-2.442-.444z" fill="#306947"/><path d="M75.644 102.695c-.445-1.776-1.999-2.22-3.553-1.332-1.554 0-2.442 1.332-1.776 2.886.666 1.775 2.22 2.885 3.774 2.441 1.332-.444 1.999-1.775 1.555-3.995z" fill="#16A851"/><path opacity=".3" d="M70.759 103.804c.222 0 .222-.222.222-.444s0-.444-.222-.444-.222.222-.222.444.222.444.222.444z" fill="#fff"/><path d="M72.757 102.249c-.222.222-.666.444-.888.222-.222 0-.444-.222-.222-.444s.666-.444.888-.222c.444 0 .444.222.222.444z" fill="#128742"/><path d="M72.09 102.25c0-1.11-.889-1.554-.889-1.554 0-.222.445 0 .445 0 .222 0 .665.222.444 1.554z" fill="#603913"/><path opacity=".3" d="M74.757 103.359c0-.444-1.333-2.22-2.443-1.11-.887 1.11 1.333.444 2.443 1.11z" fill="#000"/><path d="M74.756 102.472c-.444-.444-1.555-1.11-2.442-.222l-.222.222v.222c.222.666 2.886 0 2.886 0l-.222-.222c.222.222 0 0 0 0z" fill="#306947"/><path d="M74.96 102.694s-1.554-1.776-2.664-.444c-1.11.888 2.664.444 2.664.444z" fill="#4CB979"/><path d="M72.311 102.028c0 .222 2.442.444 2.442.444l-2.442-.444z" fill="#306947"/><path d="M71.651 105.357c-.222-1.776-1.554-2.664-3.33-1.776-1.554-.222-2.442 1.11-2.22 2.664.222 1.776 1.776 3.109 3.33 2.887 1.554-.444 2.442-1.555 2.22-3.775z" fill="#39CB74"/><path opacity=".3" d="M66.984 105.58c.222 0 .222 0 .444-.222v-.444c-.222 0-.222 0-.444.222s-.222.444 0 .444z" fill="#fff"/><path d="M69.211 104.47c-.222.222-.666.222-.888.222-.222-.222-.444-.444 0-.666.222-.222.666-.222.888-.222.222.222.222.444 0 .666z" fill="#128742"/><path d="M68.544 104.248a2.66 2.66 0 00-.666-1.776c0-.222.444 0 .444 0 0 .222.444.444.222 1.776z" fill="#603913"/><path opacity=".3" d="M70.767 105.8c0-.444-.888-2.442-2.22-1.554-.888.888 1.332.666 2.22 1.554z" fill="#000"/><path d="M70.987 104.913c-.444-.444-1.332-1.332-2.442-.666l-.222.222v.222c.222.666 2.886.444 2.886.444l-.222-.222c.222.222 0 0 0 0z" fill="#306947"/><path d="M71.208 105.135s-1.332-1.998-2.442-.888c-1.332.888 2.442.888 2.442.888z" fill="#4CB979"/><path d="M68.55 104.247c-.222 0 2.442.887 2.442.887s-2.22-1.109-2.443-.887z" fill="#306947"/><path d="M68.314 107.8c-.444-1.776-1.998-2.22-3.552-1.332-1.554 0-2.442 1.332-1.776 2.886.666 1.776 2.22 2.886 3.774 2.442 1.332-.666 2.22-1.776 1.554-3.996z" fill="#16A851"/><path opacity=".3" d="M63.649 108.688c.222 0 .222-.222.222-.444s0-.444-.222-.444-.222.222-.222.444 0 .444.222.444z" fill="#fff"/><path d="M65.653 107.356c-.222.222-.666.444-.888.222-.222 0-.444-.222-.222-.444s.666-.444.888-.222c.222 0 .444.222.222.444z" fill="#128742"/><path d="M64.985 107.357c0-1.11-.888-1.554-.888-1.554 0-.222.444 0 .444 0s.444.222.444 1.554z" fill="#603913"/><path opacity=".3" d="M67.424 108.468c0-.444-1.332-2.221-2.442-1.11-.666.888 1.554.222 2.442 1.11z" fill="#000"/><path d="M67.426 107.579c-.444-.444-1.554-1.11-2.442-.222l-.222.222v.222c.222.666 2.886 0 2.886 0l-.222-.222c.222 0 .222 0 0 0z" fill="#306947"/><path d="M67.63 107.579s-1.554-1.776-2.664-.444c-1.11 1.111 2.665.444 2.665.444z" fill="#4CB979"/><path d="M65.207 107.135c0 .222 2.442.444 2.442.444s-2.442-.666-2.442-.444z" fill="#306947"/><path d="M64.541 110.242c-.222-1.777-1.554-2.665-3.33-1.777-1.554-.222-2.442 1.111-2.22 2.665.222 1.776 1.776 3.33 3.33 2.886 1.554-.222 2.442-1.554 2.22-3.774z" fill="#39CB74"/><path opacity=".3" d="M59.658 110.465c.222 0 .222 0 .444-.222v-.444c-.222 0-.221 0-.444.222v.444z" fill="#fff"/><path d="M61.876 109.355c-.222.222-.666.222-.888.222-.222 0-.444-.444 0-.666.222-.222.666-.222.888-.222.222.222.222.444 0 .666z" fill="#128742"/><path d="M61.215 109.354c0-1.109-.666-1.775-.666-1.775 0-.222.444 0 .444 0 .222.222.666.444.222 1.775z" fill="#603913"/><path opacity=".3" d="M63.657 110.686c0-.444-.888-2.442-2.22-1.554-1.11 1.11 1.332.888 2.22 1.554z" fill="#000"/><path d="M63.652 110.021c-.444-.444-1.332-1.332-2.442-.666l-.222.222v.222c.222.666 2.886.444 2.886.444l-.222-.222c.222 0 .222 0 0 0z" fill="#306947"/><path d="M63.873 110.021s-1.332-1.999-2.442-.888c-1.332.888 2.442.888 2.442.888z" fill="#4CB979"/><path d="M61.434 109.133c-.222 0 2.442.888 2.442.888s-2.22-1.11-2.442-.888z" fill="#306947"/><path d="M79.639 105.582c-.222-1.776-1.554-2.442-3.33-1.776-1.554-.222-2.442 1.11-2.22 2.665.222 1.776 1.776 3.33 3.33 2.886 1.554-.444 2.442-1.554 2.22-3.775z" fill="#39CB74"/><path opacity=".3" d="M74.756 105.803c.222 0 .222 0 .444-.222v-.444c-.222 0-.222 0-.444.222v.444z" fill="#fff"/><path d="M76.974 104.693c-.222.222-.666.222-.889.222-.221 0-.444-.444 0-.666.223-.222.667-.222.889-.222.222.222.222.444 0 .666z" fill="#128742"/><path d="M76.312 104.692c0-1.109-.666-1.775-.666-1.775 0-.222.444 0 .444 0 .222 0 .666.444.222 1.775z" fill="#603913"/><path opacity=".3" d="M78.754 106.022c0-.444-.888-2.441-2.22-1.553-1.11 1.109 1.332.665 2.22 1.553z" fill="#000"/><path d="M78.75 105.136c-.445-.444-1.333-1.333-2.443-.666l-.222.222v.222c.222.666 2.886.444 2.886.444l-.222-.222c.223.222.223.222 0 0z" fill="#306947"/><path d="M78.97 105.358s-1.332-1.999-2.442-.888c-1.332.888 2.442.888 2.442.888z" fill="#4CB979"/><path d="M76.531 104.47c-.222 0 2.442.888 2.442.888s-2.22-1.111-2.442-.888z" fill="#306947"/><path d="M75.198 107.577c-.444-1.776-1.998-2.22-3.552-1.332-1.554 0-2.442 1.332-1.776 2.886.666 1.776 2.22 2.886 3.774 2.442 1.332-.666 2.22-1.776 1.554-3.996z" fill="#16A851"/><path opacity=".3" d="M70.539 108.465c.222 0 .222-.222.222-.444s0-.444-.222-.444-.222.222-.222.444 0 .444.222.444z" fill="#fff"/><path d="M72.537 107.133c-.222.222-.666.444-.888.222-.222 0-.444-.222-.222-.444s.666-.444.888-.222c.222-.222.444.222.222.444z" fill="#128742"/><path d="M71.87 107.134c0-1.11-.888-1.554-.888-1.554 0-.222.444 0 .444 0s.444 0 .444 1.554z" fill="#603913"/><path opacity=".3" d="M74.31 108.022c0-.444-1.332-2.22-2.442-1.11-.888 1.11 1.554.444 2.442 1.11z" fill="#000"/><path d="M74.31 107.356c-.444-.444-1.554-1.11-2.442-.222l-.222.222v.222c.222.666 2.886 0 2.886 0l-.222-.222c.222 0 .222 0 0 0z" fill="#306947"/><path d="M74.515 107.357s-1.554-1.776-2.664-.444c-1.11 1.11 2.664.444 2.664.444z" fill="#4CB979"/><path d="M71.866 106.912c0 .222 2.442.444 2.442.444s-2.22-.666-2.442-.444z" fill="#306947"/><path d="M72.09 110.685c-.222-1.776-1.554-2.664-3.33-1.776-1.554-.222-2.442 1.11-2.22 2.664.222 1.776 1.776 3.33 3.33 2.886 1.332-.444 2.442-1.554 2.22-3.774z" fill="#39CB74"/><path opacity=".3" d="M67.203 110.908c.222 0 .222 0 .444-.222v-.444c-.222 0-.222 0-.444.222s-.222.222 0 .444z" fill="#fff"/><path d="M69.425 109.798c-.222.222-.666.222-.888.222-.222-.222-.444-.444 0-.666.222-.222.666-.222.888-.222.222.222.222.444 0 .666z" fill="#128742"/><path d="M68.757 109.576c0-1.11-.666-1.777-.666-1.777 0-.222.444 0 .444 0 0 .223.444.445.222 1.777z" fill="#603913"/><path opacity=".3" d="M70.98 111.129c0-.444-.887-2.442-2.22-1.554-.887.888 1.333.666 2.22 1.554z" fill="#000"/><path d="M71.2 110.242c-.444-.444-1.332-1.332-2.442-.666l-.222.222v.222c.222.666 2.886.444 2.886.444l-.221-.222c.222 0 0 0 0 0z" fill="#306947"/><path d="M71.405 110.242s-1.332-1.998-2.664-.888c-1.11 1.11 2.664.888 2.664.888z" fill="#4CB979"/><path d="M68.978 109.353c-.222 0 2.22.888 2.22.888l-2.22-.888z" fill="#306947"/><path d="M67.65 112.462c-.445-1.776-1.999-2.22-3.553-1.332-1.554 0-2.442 1.332-1.776 2.886.666 1.776 2.22 2.886 3.774 2.442 1.332-.444 1.998-1.776 1.554-3.996z" fill="#16A851"/><path opacity=".3" d="M62.765 113.572c.222 0 .222-.222.222-.444s0-.444-.222-.444-.222.222-.222.444.222.222.222.444z" fill="#fff"/><path d="M64.763 112.017c-.222.222-.666.444-.888.222-.222 0-.444-.222-.222-.444s.666-.444.888-.222c.444 0 .444.222.222.444z" fill="#128742"/><path d="M64.101 112.019a1.764 1.764 0 00-.888-1.555c0-.222.444 0 .444 0 .222 0 .666.222.444 1.555z" fill="#603913"/><path opacity=".3" d="M66.757 113.127c0-.444-1.333-2.219-2.443-1.11-.888 1.11 1.333.444 2.443 1.11z" fill="#000"/><path d="M66.756 112.242c-.444-.444-1.554-1.11-2.442-.222l-.222.222v.222c.222.666 2.886 0 2.886 0l-.222-.222z" fill="#306947"/><path d="M66.758 112.241s-1.554-1.776-2.664-.444c-.888 1.111 2.664.444 2.664.444z" fill="#4CB979"/><path d="M64.311 111.797c0 .222 2.442.443 2.442.443s-2.442-.665-2.442-.443z" fill="#306947"/><path d="M83.412 107.577c-.444-1.776-1.998-2.22-3.552-1.332-1.555 0-2.442 1.332-1.776 2.886.666 1.776 2.22 2.886 3.774 2.442 1.332-.666 1.998-1.776 1.554-3.996z" fill="#16A851"/><path opacity=".3" d="M78.527 108.465c.222 0 .222-.222.222-.444s0-.444-.222-.444-.222.222-.222.444c.222.222.222.444.222.444z" fill="#fff"/><path d="M80.75 107.133c-.221.222-.665.444-.887.222-.222 0-.444-.222-.222-.444s.666-.444.888-.222c.222-.222.444.222.222.444z" fill="#128742"/><path d="M80.083 107.134c0-1.11-.888-1.554-.888-1.554 0-.222.444 0 .444 0s.444 0 .444 1.554z" fill="#603913"/><path opacity=".3" d="M82.524 108.022c0-.444-1.332-2.22-2.442-1.11-.888 1.11 1.554.444 2.442 1.11z" fill="#000"/><path d="M82.524 107.133c-.444-.443-1.554-1.109-2.442-.221l-.222.221v.222c.222.666 2.886 0 2.886 0l-.222-.222c.222.222.222.222 0 0z" fill="#306947"/><path d="M82.728 107.357s-1.554-1.776-2.664-.444c-1.11 1.11 2.664.444 2.664.444z" fill="#4CB979"/><path d="M80.08 106.912l2.442.444s-2.22-.666-2.443-.444z" fill="#306947"/><path d="M79.639 110.021c-.222-1.776-1.554-2.442-3.33-1.776-1.554-.222-2.442 1.11-2.22 2.664.222 1.998 1.776 3.33 3.33 2.886 1.554-.222 2.442-1.554 2.22-3.774z" fill="#39CB74"/><path opacity=".3" d="M74.752 110.242c.222 0 .222 0 .444-.222v-.444c-.222 0-.222 0-.444.222s-.222.444 0 .444z" fill="#fff"/><path d="M76.974 109.132c-.222.222-.666.222-.889.222-.221 0-.444-.444 0-.666.223-.222.667-.222.889-.222.222.222.222.444 0 .666z" fill="#128742"/><path d="M76.312 109.133c0-1.111-.666-1.777-.666-1.777 0-.222.444 0 .444 0 0 .222.444.444.222 1.777z" fill="#603913"/><path opacity=".3" d="M78.53 110.463c0-.444-.889-2.442-2.22-1.554-.889 1.11 1.331.888 2.22 1.554z" fill="#000"/><path d="M78.75 109.576c-.445-.444-1.333-1.332-2.443-.666l-.222.222v.222c.222.665 2.886.443 2.886.443l-.222-.221c.223.221 0 .221 0 0z" fill="#306947"/><path d="M78.97 109.798s-1.332-1.998-2.442-.888c-1.332.888 2.442.888 2.442.888z" fill="#4CB979"/><path d="M76.531 108.91c-.222 0 2.442.888 2.442.888s-2.442-1.11-2.442-.888z" fill="#306947"/><path d="M76.083 112.462c-.444-1.776-1.998-2.22-3.552-1.332-1.555 0-2.443 1.332-1.777 2.886.666 1.776 2.22 2.886 3.775 2.442 1.554-.444 2.22-1.776 1.554-3.996z" fill="#16A851"/><path opacity=".3" d="M71.423 113.572c.222 0 .222-.222.222-.444v-.444c-.222 0-.222.222-.222.444-.222 0-.222.222 0 .444z" fill="#fff"/><path d="M73.422 112.017c-.222.222-.666.444-.888.222-.222 0-.444-.222-.222-.444s.666-.444.888-.222c.444 0 .444.222.222.444z" fill="#128742"/><path d="M72.754 112.019a1.764 1.764 0 00-.888-1.555c0-.222.444 0 .444 0 .222 0 .666.222.444 1.555z" fill="#603913"/><path opacity=".3" d="M75.193 113.127c0-.444-1.332-2.219-2.442-1.11-.666 1.11 1.554.444 2.442 1.11z" fill="#000"/><path d="M75.195 112.242c-.444-.444-1.554-1.11-2.442-.222l-.222.222v.222c.221.666 2.886 0 2.886 0l-.222-.222c.222 0 .222 0 0 0z" fill="#306947"/><path d="M75.416 112.241s-1.554-1.776-2.664-.444c-.888 1.111 2.664.444 2.664.444z" fill="#4CB979"/><path d="M72.976 111.797l2.442.443s-2.442-.665-2.442-.443z" fill="#306947"/><path d="M72.316 115.127c-.222-1.776-1.555-2.442-3.33-1.776-1.555-.222-2.443 1.11-2.22 2.664.221 1.776 1.775 3.108 3.33 2.886 1.554-.444 2.442-1.554 2.22-3.774z" fill="#39CB74"/><path opacity=".3" d="M67.433 115.349c.222 0 .222 0 .444-.222v-.444c-.222 0-.222 0-.444.222v.444z" fill="#fff"/><path d="M69.65 114.239c-.222.222-.666.222-.888.222-.222 0-.444-.444 0-.666.222-.222.666-.222.888-.222.222.222.444.444 0 .666z" fill="#128742"/><path d="M69.209 114.016a2.66 2.66 0 00-.666-1.776c0-.222.444 0 .444 0 0 .222.444.444.222 1.776z" fill="#603913"/><path opacity=".3" d="M71.43 115.568c0-.444-.887-2.442-2.22-1.554-1.11.888 1.333.666 2.22 1.554z" fill="#000"/><path d="M71.426 114.681c-.444-.444-1.332-1.332-2.442-.666l-.222.222v.222c.222.666 2.886.444 2.886.444l-.222-.222c.222 0 .222 0 0 0z" fill="#306947"/><path d="M71.647 114.681s-1.332-1.998-2.442-.888c-1.332 1.11 2.442.888 2.442.888z" fill="#4CB979"/><path d="M69.208 113.792c-.222 0 2.442.889 2.442.889s-2.22-.889-2.442-.889z" fill="#306947"/><path d="M87.407 110.242c-.222-1.777-1.554-2.665-3.33-1.777-1.554-.222-2.442 1.111-2.22 2.665.222 1.776 1.776 3.33 3.33 2.886 1.554-.222 2.442-1.332 2.22-3.774z" fill="#39CB74"/><path opacity=".3" d="M82.524 110.686c.222 0 .222 0 .444-.222v-.444c-.222 0-.222 0-.444.222v.444z" fill="#fff"/><path d="M84.742 109.355c-.222.222-.666.222-.888.222-.222-.222-.444-.444 0-.666.222-.222.666-.222.888-.222.222.222.444.666 0 .666z" fill="#128742"/><path d="M84.3 109.354c0-1.109-.666-1.775-.666-1.775 0-.222.444 0 .444 0 0 .222.444.444.222 1.775z" fill="#603913"/><path opacity=".3" d="M86.517 110.908c0-.444-.888-2.442-2.22-1.554-.888.888 1.332.666 2.22 1.554z" fill="#000"/><path d="M86.737 110.021c-.444-.444-1.332-1.332-2.442-.666l-.222.222v.222c.222.666 2.886.444 2.886.444l-.222-.222z" fill="#306947"/><path d="M86.739 110.021s-1.332-1.999-2.442-.888c-1.332.888 2.442.888 2.442.888z" fill="#4CB979"/><path d="M84.295 109.132c-.222 0 2.22.889 2.22.889s-1.998-.889-2.22-.889z" fill="#306947"/><path d="M82.967 112.239c-.444-1.776-1.998-2.22-3.552-1.332-1.555 0-2.443 1.332-1.777 2.886.666 1.777 2.22 2.887 3.775 2.443 1.554-.444 2.22-1.776 1.554-3.997z" fill="#16A851"/><path opacity=".3" d="M78.307 113.127c.222 0 .222-.222.222-.444s0-.444-.222-.444-.222.222-.222.444 0 .444.222.444z" fill="#fff"/><path d="M80.305 111.794c-.222.222-.665.444-.887.222-.222 0-.444-.221-.222-.443s.666-.444.888-.222c.444 0 .444.222.221.443z" fill="#128742"/><path d="M79.638 111.795c0-1.11-.888-1.553-.888-1.553 0-.222.444 0 .444 0s.666.221.444 1.553z" fill="#603913"/><path opacity=".3" d="M82.077 112.907c0-.444-1.332-2.221-2.442-1.111-.666.889 1.554.444 2.442 1.111z" fill="#000"/><path d="M82.079 112.018c-.444-.444-1.554-1.11-2.442-.222l-.222.222v.222c.221.666 2.886 0 2.886 0l-.222-.222c.222 0 .222 0 0 0z" fill="#306947"/><path d="M82.3 112.018s-1.554-1.776-2.664-.444c-.888 1.111 2.664.444 2.664.444z" fill="#4CB979"/><path d="M79.86 111.574c0 .222 2.442.444 2.442.444s-2.442-.666-2.442-.444z" fill="#306947"/><path d="M79.859 115.348c-.222-1.776-1.554-2.664-3.33-1.776-1.555-.222-2.443 1.11-2.22 2.664.221 1.998 1.775 3.33 3.33 2.886 1.553-.444 2.442-1.554 2.22-3.774z" fill="#39CB74"/><path opacity=".3" d="M74.972 115.571c.222 0 .222 0 .444-.222v-.444c-.222 0-.222 0-.444.222s-.222.444 0 .444z" fill="#fff"/><path d="M77.193 114.462c-.222.222-.666.222-.888.222-.222 0-.444-.445 0-.667.222-.222.666-.221.888-.221.222.222.222.444 0 .666z" fill="#128742"/><path d="M76.526 114.239c0-1.11-.666-1.776-.666-1.776 0-.222.444 0 .444 0 .222.222.444.444.222 1.776z" fill="#603913"/><path opacity=".3" d="M78.748 115.791c0-.444-.889-2.442-2.22-1.554-.889.888 1.553.666 2.22 1.554z" fill="#000"/><path d="M78.969 114.904c-.444-.444-1.332-1.333-2.442-.666l-.222.222v.222c.222.666 2.886.444 2.886.444l-.222-.222c.222.222.222 0 0 0z" fill="#306947"/><path d="M79.19 115.126s-1.332-1.998-2.442-.888c-1.332.888 2.442.888 2.442.888z" fill="#4CB979"/><path d="M76.746 114.016c-.222 0 2.22.888 2.22.888l-2.22-.888z" fill="#306947"/><path d="M75.418 117.126c-.444-1.776-1.998-2.22-3.552-1.332-1.554 0-2.442 1.332-1.776 2.886.666 1.776 2.22 2.886 3.774 2.442 1.332-.444 1.998-1.776 1.554-3.996z" fill="#16A851"/><path opacity=".3" d="M70.533 118.236c.222 0 .222-.223.222-.445s0-.444-.222-.444-.222.222-.222.444c.222.222.222.445.222.445z" fill="#fff"/><path d="M72.531 116.68c-.222.222-.666.444-.888.222-.222 0-.444-.222-.222-.444s.666-.443.888-.222c.445 0 .445.222.222.444z" fill="#128742"/><path d="M72.09 116.682a1.764 1.764 0 00-.889-1.555c0-.222.444 0 .444 0s.444.222.444 1.555z" fill="#603913"/><path opacity=".3" d="M74.531 117.791c0-.444-1.332-2.221-2.442-1.11-.888 1.11 1.332.444 2.442 1.11z" fill="#000"/><path d="M74.53 116.903c-.444-.444-1.554-1.11-2.442-.222l-.222.222v.222c.222.666 2.886 0 2.886 0l-.222-.222c.222.222 0 0 0 0z" fill="#306947"/><path d="M74.734 117.125s-1.554-1.776-2.664-.444c-1.11 1.111 2.664.444 2.664.444z" fill="#4CB979"/><path d="M72.086 116.46l2.442.444s-2.22-.444-2.442-.444z" fill="#306947"/><path d="M91.186 112.239c-.444-1.776-1.998-2.22-3.552-1.332-1.554 0-2.442 1.332-1.776 2.886.666 1.777 2.22 2.887 3.774 2.443 1.554-.444 2.22-1.776 1.554-3.997z" fill="#16A851"/><path opacity=".3" d="M86.526 113.127c.222 0 .222-.222.222-.444v-.444c-.222 0-.222.222-.222.444-.222.222-.222.444 0 .444z" fill="#fff"/><path d="M88.525 111.794c-.222.222-.666.444-.888.222-.222 0-.444-.221-.222-.443s.666-.444.888-.222c.444 0 .444.222.222.443z" fill="#128742"/><path d="M87.857 111.795c0-1.11-.888-1.553-.888-1.553 0-.222.444 0 .444 0s.444.221.444 1.553z" fill="#603913"/><path opacity=".3" d="M90.296 112.907c0-.444-1.332-2.221-2.442-1.111-.665.889 1.555.222 2.442 1.111z" fill="#000"/><path d="M90.298 112.018c-.444-.444-1.554-1.11-2.442-.222l-.222.222v.222c.222.666 2.886 0 2.886 0l-.222-.222c.222 0 .222 0 0 0z" fill="#306947"/><path d="M90.52 112.018s-1.554-1.776-2.664-.444c-.888 1.111 2.664.444 2.664.444z" fill="#4CB979"/><path d="M88.079 111.574l2.442.444s-2.442-.666-2.442-.444z" fill="#306947"/><path d="M87.407 114.681c-.222-1.776-1.554-2.442-3.33-1.776-1.554-.222-2.442 1.11-2.22 2.664.222 1.776 1.776 3.33 3.33 2.886 1.554-.222 2.442-1.332 2.22-3.774z" fill="#39CB74"/><path opacity=".3" d="M82.524 114.904c.222 0 .222 0 .444-.222v-.444c-.222 0-.222 0-.444.222v.444z" fill="#fff"/><path d="M84.742 113.794c-.222.222-.666.222-.888.222-.222-.222-.444-.444 0-.666.222-.222.666-.222.888-.222.222.222.222.666 0 .666z" fill="#128742"/><path d="M84.08 113.794a2.66 2.66 0 00-.665-1.776c0-.223.444 0 .444 0 .222.222.666.444.222 1.776z" fill="#603913"/><path opacity=".3" d="M86.522 115.347c0-.444-.888-2.442-2.22-1.554-1.11.888 1.332.666 2.22 1.554z" fill="#000"/><path d="M86.518 114.46c-.444-.444-1.332-1.332-2.442-.666l-.222.222v.222c.222.666 2.886.444 2.886.444l-.222-.222c.222 0 .222 0 0 0z" fill="#306947"/><path d="M86.739 114.46s-1.332-1.998-2.442-.888c-1.332.888 2.442.888 2.442.888z" fill="#4CB979"/><path d="M84.3 113.571c-.222 0 2.442.889 2.442.889s-2.22-.889-2.442-.889z" fill="#306947"/><path d="M84.077 117.126c-.444-1.776-1.998-2.22-3.552-1.332-1.554 0-2.442 1.332-1.776 2.886.666 1.776 2.22 2.886 3.774 2.442 1.332-.444 1.998-1.776 1.554-3.996z" fill="#16A851"/><path opacity=".3" d="M79.192 118.236c.222 0 .222-.223.222-.445s0-.444-.222-.444-.222.222-.222.444c.222.222.222.445.222.445z" fill="#fff"/><path d="M81.416 116.68c-.222.222-.666.444-.888.222-.222 0-.444-.222-.222-.444s.666-.443.888-.222c.222 0 .222.222.222.444z" fill="#128742"/><path d="M80.748 116.682a1.764 1.764 0 00-.888-1.555c0-.222.444 0 .444 0s.444.222.444 1.555z" fill="#603913"/><path opacity=".3" d="M83.19 117.792c0-.444-1.332-2.22-2.442-1.11-.888 1.11 1.332.444 2.442 1.11z" fill="#000"/><path d="M83.189 116.903c-.444-.444-1.554-1.109-2.442-.222l-.222.222v.222c.222.666 2.886 0 2.886 0l-.222-.222c.222 0 0 0 0 0z" fill="#306947"/><path d="M83.393 116.904s-1.554-1.776-2.664-.444c-1.11 1.11 2.664.444 2.664.444z" fill="#4CB979"/><path d="M80.744 116.46c0 .222 2.442.444 2.442.444s-2.22-.444-2.442-.444z" fill="#306947"/><path d="M80.303 119.788c-.222-1.776-1.554-2.442-3.33-1.776-1.554-.222-2.442 1.11-2.22 2.664.222 1.776 1.776 3.108 3.33 2.886 1.332-.444 2.442-1.554 2.22-3.774z" fill="#39CB74"/><path opacity=".3" d="M75.416 120.01c.222 0 .222 0 .445-.222v-.444c-.223 0-.223 0-.445.222s-.222.444 0 .444z" fill="#fff"/><path d="M77.638 118.9c-.222.222-.666.222-.888.222-.222-.222-.444-.444 0-.666.222-.222.666-.222.888-.222.222.222.222.444 0 .666z" fill="#128742"/><path d="M76.977 118.678c0-1.11-.666-1.776-.666-1.776 0-.222.444 0 .444 0 0 .222.444.444.222 1.776z" fill="#603913"/><path opacity=".3" d="M79.194 120.231c0-.444-.888-2.442-2.22-1.554-.888.888 1.332.666 2.22 1.554z" fill="#000"/><path d="M79.414 119.343c-.444-.444-1.332-1.332-2.442-.666l-.222.222v.222c.222.666 2.886.444 2.886.444l-.222-.222c.222 0 0 0 0 0z" fill="#306947"/><path d="M79.635 119.344s-1.332-1.998-2.442-.888c-1.332 1.109 2.442.888 2.442.888z" fill="#4CB979"/><path d="M77.196 118.457c-.222 0 2.442.888 2.442.888l-2.442-.888z" fill="#306947"/><path d="M76.754 130.665l-1.332.888-.666-11.322v-3.33l.666-.444 1.332-.666v14.874z" fill="#A86732"/><path d="M75.424 131.553l-1.332-.888v-14.874l1.332.666v15.096z" fill="#E09A55"/><path d="M76.756 115.792l-1.332.666-1.332-.666 1.332-.888 1.332.888z" fill="#E9B579"/><path d="M74.536 127.114v4.884l.888-.444v-5.106l-.888.666z" fill="#A86732"/><path d="M47.451 111.573v4.884l27.085 15.541v-4.885l-27.085-15.54z" fill="#E09A55"/><path d="M48.561 110.908l-1.11.666 27.085 15.541.888-.666-26.863-15.541z" fill="#E9B579"/><path d="M74.536 119.124v5.106l.888-.666v-4.884l-.888.444z" fill="#A86732"/><path d="M47.451 103.582v4.884l27.085 15.763v-5.107l-27.085-15.54z" fill="#E09A55"/><path d="M48.561 102.916l-1.11.666 27.085 15.54.888-.444-26.863-15.762z" fill="#E9B579"/><path d="M75.424 127.558v5.106l-.888-.666v-4.884l.888.444z" fill="#E09A55"/><path d="M94.075 116.902v4.884l-18.648 10.879v-5.106l18.648-10.657z" fill="#A86732"/><path d="M93.185 116.459l.888.444-18.648 10.656-.889-.444 18.649-10.656z" fill="#E9B579"/><path d="M75.424 119.788v4.884l-.888-.444v-5.106l.888.666z" fill="#E09A55"/><path d="M94.075 108.91v5.106l-18.648 10.656v-4.884l18.648-10.878z" fill="#A86732"/><path d="M93.185 108.466l.888.444-18.648 10.878-.889-.666 18.649-10.656z" fill="#E9B579"/></svg>