<svg width="170" height="170" fill="none" xmlns="http://www.w3.org/2000/svg"><path d="M40.691 61.332c-2.033.924-3.882 2.034-5.915 2.959l-1.479-2.59c2.033-1.11 4.067-2.219 6.1-3.144l1.294 2.775zm9.613-4.069c-2.034.74-4.252 1.48-6.1 2.404l-1.11-2.774c2.034-.925 4.252-1.665 6.285-2.59l.925 2.96zm9.982-2.959c-2.218.554-4.252 1.11-6.285 1.85l-.924-2.775c2.218-.74 4.251-1.295 6.47-1.85l.74 2.775zM70.638 51.9l-6.655 1.294-.554-2.775 6.655-1.48.554 2.96zm10.352-1.295c-2.218.184-4.436.37-6.655.74l-.37-2.96c2.219-.37 4.437-.555 6.656-.925l.37 3.145zm10.537-.74c-2.218 0-4.436.185-6.655.37l-.185-2.96c2.219-.184 4.437-.37 6.84-.37v2.96zm10.352.185c-2.218 0-4.437-.185-6.655-.185v-2.96c2.218 0 4.622.185 6.84.185l-.185 2.96zm10.352 1.294c-2.218-.37-4.251-.74-6.47-.925l.37-2.959c2.218.185 4.437.555 6.84.925l-.74 2.96zm10.167 2.59l-3.142-.925-3.143-.74.555-2.96 3.327.74 3.328 1.11-.925 2.775zm9.613 3.884c-.924-.555-1.849-.925-2.958-1.48l-2.958-1.295 1.11-2.774 3.142 1.295c1.109.554 2.034.924 3.143 1.48l-1.479 2.774zm8.318 5.918c-1.478-1.48-3.142-2.774-4.991-4.069l1.664-2.404a58.263 58.263 0 015.546 4.439l-2.219 2.034zm4.992 8.323a15.673 15.673 0 00-2.773-5.549l2.403-1.664a16.278 16.278 0 013.143 6.473l-2.773.74zm0 9.617c.554-2.034.924-4.069.739-6.103l2.958-.185c.185 2.404-.185 4.809-.924 7.213l-2.773-.925zm-4.806 8.878c1.294-1.665 2.588-3.514 3.512-5.364l2.588 1.295c-1.109 2.034-2.403 4.069-3.697 5.918l-2.403-1.85zm-7.395 7.028c1.664-1.295 3.328-2.774 4.807-4.439l2.033 2.034a61.519 61.519 0 01-5.176 4.624l-1.664-2.22zm-8.688 5.918c1.848-1.109 3.697-2.219 5.546-3.514l1.663 2.405a100.317 100.317 0 01-5.73 3.699l-1.479-2.59z" fill="#3CB56E"/><path d="M144.405 121.822c.085-15.73-21.861-28.602-49.018-28.749-27.157-.147-49.241 12.485-49.326 28.216-.086 15.73 21.86 28.602 49.017 28.749 27.157.147 49.242-12.485 49.327-28.216z" fill="#DBDBDB"/><path d="M80.805 134.017c28.689 0 51.945-23.268 51.945-51.97 0-28.704-23.256-51.972-51.945-51.972-28.688 0-51.945 23.268-51.945 51.971 0 28.703 23.257 51.971 51.945 51.971z" fill="url(#paint0_linear_514_10980)"/><path d="M80.805 131.428c27.259 0 49.357-22.109 49.357-49.382 0-27.273-22.098-49.382-49.357-49.382s-49.357 22.11-49.357 49.382c0 27.273 22.098 49.382 49.357 49.382z" fill="url(#paint1_linear_514_10980)"/><path d="M66.756 34.884c4.067-1.11 8.319-1.85 12.57-2.035l.185.185-1.479 1.11v1.11l-.37.924-1.478.925-1.294 1.11-.924 2.034-1.294 1.85-.37 2.59-.185.554h-.74l-.184-.185-.185-.555h-.555l-.924.185-.74.185-.37-.925-.184-.74v-1.294l-.37-.925-.185-.925v-1.11l-.554-.924v-1.295c-.185-2.034-1.664 0-.37-1.85zm62.112 49.566l-1.294.74-1.848-.74.185-1.11.184-1.479-.369-.185-.37.555s-.739 1.295-.739.37v-1.11l.369-.555-.554-1.11-.74-1.479v-1.48l.37-.184.185-.74.554.74.37-.555.924 2.959.74.925.554.74.555.554.739.74.555-.74.37.555v-.185c0-17.755-9.243-33.106-23.292-41.984l-.74.555-.369.925-.555.37-.555.555-.739-.74s.739-.37-.185-.37l-.924.185-1.664 1.11-.185-.185v-1.11h-.74l-.923.555-.37.185.185-.37.184-.185v-.37h-.554l-.185-.185.185-.185-.185-.37v-.37l.185-.37.37-.554.184-.37s-.184 0 0-.37v-.37l.185-.185.185-.37v-.37l-.185-.185h-.184l-.185.37-.37.185h-.185l-.185.185-.185.185v.185l-.184.185h-.555v.74l-.185.37v.37l.185.37-.185.184-.185.37s.185.185.37.185.185-.185.185-.185h.185l-.37.555h-.185v.185h.37l-.185.37s0-.185-.185 0l-.185.37h-.185v-.37s0-.185-.184 0l-.185.185h-.37v.185h-.74s.185 0 0-.185l-.184-.185h-.37l-.185.185v.185l-.37.185v.37l-.184.37h-.37l-.185.37-.185.184h-.37l-.554.37-.185.185h-.555l-.184.37.184.185-.184.37-.185.185-.37.37h-.739l-.185.185v.37h-.185l-.185-.185-.185-.185h-.185v-.185l.185-.185v-.185h-.37l-.184-.185v-.185l-.185-.185v.925h.184v.74l-.184.185h-.185l-.37-.185h-.185v-.37l-.185-.185h-1.478v.37h.184l-.184.185v.185l-.37.37h.739l.185.184v.186h.185v.369h.37v.37l.184.185h.185v.185l-.184.185v.37l.184.185.185.185v.185h.185l.185.185v.185l-.185.185-.185.185.185.185v.185l-.185.184v.37l-.185.185-.184.37v.37l-.185.37-.185.37-.37-.37h-.739l-.185-.185h-.185l-.185.185h-.185l-.185-.185h-1.109l-.185-.185-.185-.185h-.554l-.185-.185-.185-.185h-.37v-.185s.185 0 0-.185l-.37-.184h-.184l-.185.184-.185.185v.185h-.185l-.37.185-.184.185v.185l.185.185v.185h-.185l-.185.37.185.37v.74l-.185.554-.185.555-.185.185-.37.555-.184.37-.185.555.185.555h.37l.184.185v.185l-.185.185-.554.185v.37l-.185.184v.185l-.185.37v.185l.185-.185.37-.185h.184l.185.185h.37l.185-.185h.185v.185l.37.185v.74l.184.185v.185l.185.185h.185l.185-.185h.185l.185-.185.184-.185h1.294l.37.185h.555l.185-.185v-.185l.184-.37.555-.185h.555v-.74l.184-.184.185-.185h.555v-.185h.185v-.185l-.185-.185-.185.37v-.555l.185-.185.37-.185.739-.74v-.555h.739l.185-.185h.555l.185-.185.37-.185.184-.185v-.923l.185-.37.185-.185.185-.185h.554l.185.185.37.185h.185l.185.185.37.185.184.185.37-.185.185-.185h.185l.185.185s0 .185.184.185h.185l.185-.185.185-.185.185-.185v-.185h.185l.185-.185h.37v.185l.184.185s-.185.185 0 .185l.185.185h.185l.185.185h-.185v.37l.185.184v.37h-.37l-.185.185v.185h.37l.185-.37v.185l.185.185v.554h.554l.185.185.185.185h.185v.37l.185.185h.37v.185h.184l.185.185.185.37.185.185.185.184-.185.185h.369l.185.185v.37l.185.185v.185h.37v.74l-.185.185.185.37v.185h-.185v.37h-.37l-.184.185h-.37l-.37.185h-.37l-.37-.185s.185-.185-.184-.185l-.37-.185h-.185s0-.185-.185 0l-.184.185v.74l.37.184.184.37.185.185.185.185.185.185.184.37.185.185h.185l.185-.37.185-.37-.185-.185v-.37l.185-.37.555-.184.184.184v.186h.37v-.37l.185-.185h.37v-.185s-.185 0 0-.37l.184-.37h.185v.185l.185-.185v-.185l.185-.37v-.185h-.185l-.185-.185v-.37l.37-.555v-.185h.185v.37h.37v.74l.185.185.184-.185v-.74l-.369-.555h-.555v-.184l-.37-.185-.37-.185-.184-.37v-.185h.185v-.37l-.185-.185h-.74l-.184-.185-.555-.925v-.37l-.185-.37v-.554l-.37-.185-.184-.37-.185-.185v-.555h.184v-.37h-.184v-.37h.369l.185-.185h.37v.185s-.37 0 0 .185l.185.185v.185l-.185.185.185.185h.185l.184-.185v.555h.37v-.37l.185.37.185.185-.185.185.185.37v.369l.37.185.184.185v.74h.185s.185-.185.185 0v.185h.185l.37.185h.185l.369.185s.185 0 .185.185v.185l.37.37s.185-.185.185.185v.555l.185.185h.184l-.184.37h-.185v.738l-.185.185v.37h.185v.185h.185v.37h-.185v-.185l-.185.185v.37l.185.185h.369v.185l.185.185v.185s-.185-.185-.185.185l.185.37v.184l.37.185v-.184l.37.184.37.185h.184l.185.185h.37v.556l.185.185h.185l.185.37h.184l-.184-.37-.185-.185v-.185l.185.37.369.185.185-.185v-.37h-.37v-.37l-.184-.185-.185-.185v-.184l-.185-.185-.185-.74-.185-.185-.185-.37v-.555h.185v.185l.185.185v.185h.37l.185-.185.184-.185.185-.185.555-.185v-.185l.185-.185h.369l.185.185.185.185.185.185h.37v.185s-.37 0 0 .185l.369.185h.185v.185l-.185.185-.184-.185h-.185v.925h-.37l-.185.184.185.186v.184l.185.185h.185l.185-.185-.185-.184.185-.185h.369l-.185.37-.184.184.184.185-.184.185h-.185l-.185-.185h-.37l-.185-.185-.185.185v.185s-.184.185 0 .37h.37v-.185h.185v.555s0 .185.185.185h.37l.184.185-.184.185h-.185l-.185-.185h-.185v.37l.185.185h.185v.185h.185l-.185.185v.185l-.185.185h-.185v.185l-.185.184h.37l.185-.184h.185l.184-.185h.555l-.185.185h-.185l-.185.184v.185h.185v.185s0-.184-.185 0l-.184.185v.37l.184.185.37-.185v-.185l.185-.185v-.37l.185-.184v.184l.185.185.185-.184v.184l-.185.185v.185l.185.185h.184l.185.185h.185l.185-.185.185-.185v-.37l.185-.184h.185l.184.184.555.37v.185l.185.37.554.37.185-.185.185.185.37.185.185-.37.185-.185.369-.185.185.37.185.185h.185l.185-.185.185-.185h.369v.185h-.185v.37l-.184.37v.37l.184.555-.184.185v.185l.184.184-.184.186-.37.74-.185.37-.185.37-.554 1.664-.37.37h-.37s0-.185-.554 0l-.555.184-.37-.74-.369-.184-.37-.185h-.555l-.369.185-.37.185-.185.185h-.37l-.185-.37h-.369l-.925-.74-1.294-.37-.554-.925-1.109-.37-.555-1.11-1.109.186-.924.185v1.11l-.185 1.109-.74.185-.74-.555-.554-.74h-1.109l-.554-1.11.184-.74-.924-.37-.924-.184-1.479-.74-.74-1.294.555-1.11.37-.37-.185-.925.74-1.294-.555-.37-.37.184-.185-.554s.37-.37-.74 0l-1.108.37-.925-.37-1.293-.37-2.773.185-1.849.555-.924.554-1.11-.37-.924-.554-.37.37-.37-.555h-.554l-.554.925-.555.74-1.294.74-1.479.924-.554 1.664.185 1.11-.925 1.295-1.294.555-1.479.554-.739 1.11-1.11.555-.554 1.665-1.294.924-.74 1.665-1.108 1.11.185.924.739.185-.37.925-.185.74.185 1.294-.554 1.295-.37.925-.185.555-.924 1.11.37 1.294-.37.925-.185.925.37.924.554-.185.185.925.555 1.295.37.185-.185 2.034 1.109 1.85 1.109 1.48.924 1.849 1.11.925 1.108-.185.555-.555 1.849.185.739.924.924.185.37-.554.37.184 1.109-.74h.924l2.218-.184 1.11.37.184 1.48v1.109l.74.37.37-.185 1.294.185.739.74.185 1.294-.37 1.85-.554.555v.924l-.74.74-.37 1.665 1.48 4.254.554 1.294-.74.74.925 2.219-.37 1.11.555 2.405-.555 1.849-.924.37-1.11.925-.184 1.849-.555 1.85-.185 1.479.37 1.295.185.74c9.428-.555 17.931-3.699 25.325-8.878v-1.479l.555-.37-.37-1.11 1.109-2.219.925-1.665.924-.555.739-.555.555-1.294 1.664-1.11 1.663-1.295 1.664-1.294 1.479-1.85.924-1.11 1.109-2.034.925-1.48.369-.924.555-.37.37-.555-.37-.185.37-.925.185-.185-.74-.185-.185-.185-.185.555-.369.185-.555.185h-.37l-.739-.185h-.924l-.555.74-.739-.555-.555.37-.924-.185v-.74l-.185-.37h-.555l.185-.37.37-.185.37-.185-.185-.37.185-.74-.555-.184-.37-.37v-.555l-.369-.555-.185-.555-.555-.37-.554-.37-.37-.74v-1.294l-.185-.37.185-1.11-.555-.37h-.369l-.925-4.438v-4.439l-1.478-2.96-.555-3.328.739-.37 1.479 2.22.555 1.109s.739 1.48.924 3.884l.37 2.404 1.109 3.514 2.033 3.7-.739 2.959.739 2.959 2.773-.37 3.143-1.11 1.479-.74v-1.11l2.218.186.924-.74.37-.37c.739-3.144 1.109-6.473 1.109-9.987l-1.479.554zm-71.91-45.497l.925.554.74.185s.37.555.739-.37l.554-.924.555-.555.924-.37-.554 1.665.554.74.555.554-1.11 1.11.37.74.74.185.185.555 1.109.37.185.37-.185.554v.37l.74.37-.555 1.11.184.74s-.924-.37-1.478.37l-.555.554h-.554l-1.295.555-.37.37h-1.478l-.185-.555-1.664-.185-.924.555-.554.555-1.85.37-.369.74-.554.554-1.11.925h1.11l1.109-.925.74-.74.739-.37.74-.184h1.477l.555.185-.74.925-1.109.74v.74l.74.739.924.37.184-.185.74-.555.37-.925h.924s-.924.555-.555.925l.37.37-.185.74-.924.185-.185.554-1.294.185-.74-.184-.369.554-.924.555h-.74v-.555l1.11-.554.184-.555s0-.74-.554-.185l-.37.37-.74.37-1.109.37-.554-.186s-.185-.37-.74.74c-.554 1.11-.554.925-.554.925l.185.37-.555.185.37.555.554-.185v.555l-.37.184-.554.185H48.64l-1.11.185-.184.555.555.37-.555.37h-.74v.925l-.924.37-.184.555-.37-.555-.37-.185.185.555.37.37-.185.184-.37.555-.37.555s-.37.185 0-.37c.185-.555.37-.185.185-.555l-.185-.37s.185-1.664-.184 0c-.185.925-.37.925-.555.74 0 0 0 .185.185.185 0 .185.185.185.185.37.184 0 .184 0 .37.555v.74l-.555.37v.555l-.37.37-.37-.37v.37l-.37.37h-.37l-.369.37-.185.37h-.554l-.185.37-.37.739-1.109.74s-.37-.37-.554.555c-.185 1.11-.185.924-.185.924l-.37.555.185.74.185.925-.37.37.37.37-.185.554v.925l.37.37-.37.74-.37.555v.555h-.554l-.185-.37-.185-.74-.37-.37v-.925s-.37-.37-.185-.74v-.37l.37-.924v-.74h-.37l-.554-.555-.185-.185-.37.185v.555h-.37l-.184-.555-.185-.185-.555-.185v.185l-.37-.185-.37.185-.37-.185.186-.555s-.37-.185-.37 0v.185h-.185c3.328-13.316 12.2-24.598 24.032-31.071zm4.068 88.406c-12.94-5.734-23.108-16.831-27.36-30.517l.186-.185.37-.185v-.185l-.186-.185v-.185h.185l.185-.185v-.74l.185-.184.37-.185.184-.185v-.37l.555-.555h-.185l-.185.185-.184-.185v-.185c-.185-.185 0 .185 0-.185v-.185h.369v-.37l.185-.185v-.37c0-.37-.185-.37-.185-.37v-.554h.185v-.185l-.185-.185v-.185l.185-.185v-.555l-.185-.37-.554-.555v-.925l-.185-.184-.185-.186h-.37l-.185.74h-.369l-.185.185.185.185.184.185v.37l-.184.185h-.74l-.185-.185c-.184-.185 0-.37 0-.37h-.37v.185h-.184l-.185-.185v-.37h.185l.185-.185v-.185h-.185l-.185-.185-.185-.184c0-.555-.185-.925-.185-1.48l.185.185c.185.185 0 .185 0 .185v.185h.555v.185h.184l.37-.185.185-.185h.37l.185-.185v-.37h.554v.185h.37l.554.185.185.37.37.555.185.37v.37c0 .37.185.184.185.184l.185-.185v-.185l-.185-.184v-.37l.37-.185.184-.37.37-.185h.185v-.555l.185-.925.37-.185.184-.185h.185l.185.185h.185v-.37l.37-.185.184.185h.37l.185-.37.185-.184h.37v-.186l.184-.554.555.185.185.37-.185.37-.185.37h-.37v.37l.185.184.185-.37.185.37.185-.37h.554v-.185l-.184-.555v-.184l.184-.185c.185-.185.185 0 .185 0l.185.37c.185.37-.185.184-.185.184v.185l.555.185.74.37.184.37.185.37h.924l.37-.185.924.74h.37l.37-.555-.555-.555.37-.37h1.109l.74.37-.74.555.37.37h1.109l.554.555-.37.37-.369.554 1.11.555.739 1.85.74.37 1.478.74.924 1.48v2.034l-.74 2.589v1.48s0-1.48.925 1.849l.555.925 1.478.74-.739 1.109-.37 1.295.37 1.295h1.294l.185 1.294.185 1.665.37.555.924.37v2.219l.74 3.514-1.11 2.034.555.185 1.109 1.11-.37 1.295-1.479.925.555.739 1.479.925 1.109 1.11.185 2.589c.184.37.184.74.184.925z" fill="url(#paint2_linear_514_10980)"/><path d="M113.71 47.46c-18.3-18.125-46.584-19.05-63.406-2.034-16.637 17.015-15.528 45.313 2.773 63.438 18.3 18.125 46.584 19.05 63.406 2.034 16.822-17.015 15.528-45.498-2.773-63.438zM69.344 92.773C53.077 80.197 48.27 58.743 58.807 45.056c10.537-13.686 32.35-14.426 48.803-1.85 16.267 12.577 21.074 34.031 10.537 47.718-10.722 13.686-32.535 14.611-48.803 1.85z" fill="#131517" fill-opacity=".1"/><path d="M117.962 90.924c-10.537 13.686-32.35 14.426-48.803 1.85-16.267-12.578-21.074-34.032-10.537-47.718 10.537-13.686 32.35-14.426 48.803-1.85 16.452 12.762 21.258 34.031 10.537 47.718z" fill="#C9FF56" fill-opacity=".1"/><path d="M112.046 56.893c-2.218 2.959-8.318 2.034-13.495-1.85-5.175-4.069-7.579-9.617-5.175-12.576 2.218-2.96 8.318-2.035 13.494 1.85 5.176 3.883 7.394 9.617 5.176 12.576z" fill="#fff" fill-opacity=".3"/><path d="M80.805 32.85c-27.174 0-49.357 22.008-49.357 49.381 0 27.188 21.998 49.382 49.357 49.382 27.359 0 49.357-22.009 49.357-49.382-.185-27.373-22.183-49.382-49.357-49.382zm-27.728 75.829c-18.301-18.125-19.595-46.423-2.773-63.438s45.105-16.09 63.406 2.034c18.301 18.125 19.595 46.423 2.773 63.438-16.637 17.016-45.106 16.091-63.406-2.034z" fill="#424832" fill-opacity=".3"/><path d="M137.557 120.701L159 108.309V83.711l-21.443 12.391v24.599z" fill="#C99A6B"/><path d="M159 83.71l-21.443 12.392 11.461-6.288L159 83.711z" fill="#87623F"/><path d="M137.556 120.701l-21.628-12.392V83.711l21.628 12.391v24.599z" fill="#AE835B"/><path d="M137.557 96.102l-21.629-12.391 21.629-12.392L159 83.711l-21.443 12.391z" fill="#E8B687"/><path d="M147.169 100.171l3.512-1.85V88.52l-3.512 2.035v9.617z" fill="#D9AF84"/><path d="M147.169 90.554l-21.444-12.577 3.328-1.85 21.628 12.392-3.512 2.035z" fill="#EBCBAB"/><path d="M115.928 83.71l21.628 12.392-11.646-6.288-9.982-6.103z" fill="#87623F"/><path d="M128.129 100.356l-3.513-1.85v-9.802l3.513 2.035v9.617z" fill="#9C754E"/><path d="M128.129 90.739l21.443-12.392-3.327-2.034-21.629 12.391 3.513 2.035z" fill="#fff" fill-opacity=".4"/><path d="M126.465 89.814l21.628-12.392-.369-.185L126.28 89.63l.185.185z" fill="#D1A986"/><path d="M148.833 89.629l-21.629-12.392.185-.185 21.629 12.392-.185.185z" fill="#D1A986"/><path d="M128.129 90.739v.37l-2.034-1.11-1.479-.925v-.37l3.513 2.035zm20.889-.925l-1.849 1.11v-.37l3.512-2.035v.37l-1.663.925z" fill="#AE835B"/><path d="M118.701 106.46c2.033-.925 3.882-2.035 5.915-2.96l1.479 2.59c-2.033 1.109-4.067 2.219-6.1 3.144l-1.294-2.774zm-9.797 4.068c2.033-.739 4.251-1.479 6.1-2.404l1.109 2.774c-2.033.925-4.252 1.665-6.285 2.59l-.924-2.96zm-9.983 3.145c2.219-.555 4.252-1.11 6.286-1.85l.924 2.774c-2.218.74-4.252 1.295-6.47 1.85l-.74-2.774zm-10.167 2.219l6.47-1.295.555 2.775-6.655 1.479-.37-2.959zm-10.537 1.48c2.219-.185 4.437-.37 6.655-.74l.37 2.959c-2.218.37-4.437.555-6.655.925l-.37-3.144zm-10.352.554c2.219 0 4.437-.184 6.655-.369l.185 2.959c-2.218.185-4.437.37-6.84.37v-2.96zm-10.537-.185c2.219 0 4.437.185 6.655.185v2.96c-2.218 0-4.621-.185-6.84-.185l.185-2.96zm-10.352-1.294c2.218.37 4.252.74 6.47.925l-.37 2.959c-2.218-.185-4.436-.555-6.84-.925l.74-2.959zm-10.166-2.59l3.142 1.11 3.142.74-.554 2.774-3.328-.74-3.327-.924.924-2.96zm-9.613-3.883c.924.554 1.848.924 2.957 1.479l2.958 1.295-.924 2.774-3.143-1.295c-1.109-.554-2.033-.924-3.142-1.479l1.294-2.774zm-8.134-5.919c1.479 1.48 3.142 2.774 4.99 4.069l-1.663 2.404a58.22 58.22 0 01-5.546-4.438l2.219-2.035zm-5.176-8.323a15.667 15.667 0 002.773 5.549l-2.403 1.664a16.268 16.268 0 01-3.143-6.473l2.773-.74zm.185-9.617c-.555 2.034-.925 4.069-.74 6.103l-2.958.185c-.184-2.404.185-4.808.925-7.213l2.773.925zm4.621-8.693c-1.294 1.665-2.588 3.514-3.512 5.364l-2.588-1.295c1.109-2.034 2.403-4.069 3.697-5.918l2.403 1.85zm7.394-7.212c-1.663 1.294-3.327 2.774-4.806 4.438l-2.218-2.22a61.566 61.566 0 015.176-4.623l1.848 2.404zm8.689-5.92c-1.849 1.11-3.698 2.22-5.546 3.515L27.566 65.4a99.839 99.839 0 015.73-3.699l1.48 2.59zm66.363 63.069l-2.403 4.809-2.588-1.665 2.219-4.439 2.772 1.295zm3.143-7.768l-1.849 4.994-2.773-1.11 1.849-4.624 2.773.74z" fill="#3CB56E"/><path d="M106.131 111.453c-.185 1.85-.74 3.514-1.11 5.179l-2.772-.74c.369-1.665.924-3.144 1.109-4.809l2.773.37zm.739-8.323c-.185 1.85 0 3.514-.37 5.364l-2.958-.37c.185-1.664.185-3.329.185-4.994h3.143zm-.37-8.322c.37 1.664.37 3.514.37 5.178l-2.958.185c-.185-1.664-.185-3.329-.37-4.993l2.958-.37zm-1.663-8.138c.369 1.664.924 3.329 1.109 5.178l-2.958.555c-.185-1.664-.739-3.329-1.109-4.993l2.958-.74zm-2.588-7.953c.739 1.665 1.109 3.33 1.664 4.994l-2.773.924c-.555-1.664-.925-3.144-1.664-4.808l2.773-1.11zm-3.328-7.583c.74 1.665 1.479 3.144 2.218 4.809l-2.772 1.11a50.273 50.273 0 01-2.034-4.624l2.588-1.295zm-3.881-7.213c.924 1.48 1.848 2.96 2.587 4.624l-2.588 1.294c-.74-1.48-1.663-2.959-2.403-4.438l2.403-1.48zm-4.437-7.028c.924 1.48 2.033 2.959 2.773 4.439l-2.589 1.664c-.924-1.48-1.848-2.774-2.772-4.254l2.588-1.85zm-5.176-6.473c1.294 1.294 2.403 2.774 3.512 4.069l-2.403 1.664c-1.11-1.295-2.034-2.59-3.143-3.699l2.034-2.034zm-6.655-5.549a36.079 36.079 0 014.251 3.144l-1.848 2.22c-1.294-1.11-2.588-2.035-3.882-2.96l1.479-2.404zm-7.395-3.699c.74.37 1.664.74 2.404 1.11l2.403 1.295-1.48 2.404-2.217-1.11c-.74-.37-1.48-.555-2.219-.925l1.11-2.774zm-8.134-2.219c1.85.185 3.513.74 5.177 1.294l-.925 2.775c-1.663-.555-3.142-.925-4.806-1.11l.554-2.96zm-8.503-.555c.924 0 1.849-.185 2.773 0 .924 0 1.849 0 2.773.185l-.37 2.774c-.74-.185-1.664-.185-2.403-.185H55.11l-.37-2.774zm-8.503 2.219c.924-.37 1.663-.74 2.588-1.11.924-.184 1.848-.554 2.588-.74l.554 2.96c-.74.185-1.479.37-2.403.555-.74.185-1.479.555-2.218.925l-1.11-2.59z" fill="#3CB56E"/><path d="M85.125 19.303c-1.479-.555-3.143-.37-5.176.74C75.512 22.633 72 28.735 72 33.729c0 6.843 7.949 14.611 7.949 14.611l2.218.925 5.176-29.037-2.218-.925z" fill="#2A5039"/><path d="M82.167 20.968c4.437-2.59 7.949-.555 7.949 4.438 0 6.843-7.949 23.859-7.949 23.859s-7.949-7.768-7.949-14.611c0-4.994 3.513-11.097 7.95-13.686z" fill="#128742"/><path d="M77.546 32.804c0 2.96 2.033 4.07 4.621 2.59 2.588-1.48 4.622-4.994 4.622-7.953 0-2.96-2.034-4.069-4.622-2.59-2.588 1.48-4.621 4.994-4.621 7.953z" fill="#363636"/><path d="M136.263 101.836l-4.437-2.59v-5.178l4.437 2.59v5.178zm-4.252-2.775l3.882 2.22v-4.439l-3.882-2.22v4.44z" fill="#87623F"/><path d="M134.414 100.171l-.924-.555v-2.589l.924.555v2.589z" fill="#87623F"/><path d="M135.338 98.692l-2.772-1.665 1.478-.925 1.294 2.59z" fill="#87623F"/><defs><linearGradient id="paint0_linear_514_10980" x1="42.014" y1="114.952" x2="118.015" y2="50.551" gradientUnits="userSpaceOnUse"><stop offset=".086" stop-color="#379ED6"/><stop offset=".301" stop-color="#58AEE5"/><stop offset=".544" stop-color="#76BDF3"/><stop offset=".751" stop-color="#88C6FC"/><stop offset=".898" stop-color="#8FC9FF"/></linearGradient><linearGradient id="paint1_linear_514_10980" x1="43.98" y1="113.284" x2="116.122" y2="52.154" gradientUnits="userSpaceOnUse"><stop offset=".086" stop-color="#28739C"/><stop offset=".096" stop-color="#29749E"/><stop offset=".345" stop-color="#4B86C8"/><stop offset=".57" stop-color="#6493E6"/><stop offset=".762" stop-color="#739BF8"/><stop offset=".898" stop-color="#789EFF"/></linearGradient><linearGradient id="paint2_linear_514_10980" x1="48.669" y1="116.352" x2="116.123" y2="42.541" gradientUnits="userSpaceOnUse"><stop offset=".086" stop-color="#76A120"/><stop offset=".198" stop-color="#83AF2D"/><stop offset=".482" stop-color="#A1CD49"/><stop offset=".726" stop-color="#B3DF5A"/><stop offset=".898" stop-color="#B9E660"/></linearGradient></defs></svg>