<svg width="170" height="170" fill="none" xmlns="http://www.w3.org/2000/svg"><path fill-rule="evenodd" clip-rule="evenodd" d="M116.644 136.32c-.424 0-.847 0-1.059-.211-.635-.424-1.27-.847-1.482-.847-16.938-10.374-39.591-23.078-53.353-30.488-1.482-.635-1.482-2.54 0-3.387l10.374-5.505c1.059-.635 2.117-.847 3.176-.847.847 0 1.905.212 2.752.424 15.244 7.198 35.357 19.266 49.966 29.64 1.482 1.059 2.964 1.906 2.964 3.388 0 .635-.424 1.058-1.059 1.482l-11.433 6.14c-.211.211-.635.211-.846.211z" fill="#000" fill-opacity=".302"/><path fill-rule="evenodd" clip-rule="evenodd" d="M117.067 134.838c-.423 0-.635-.211-1.059-.423-.635-.424-1.27-.635-1.482-.847-16.937-10.374-39.38-23.077-52.93-30.487-1.481-.636-1.481-2.541 0-3.388l9.74-5.505c1.058-.635 2.117-.846 3.176-.846.847 0 1.693.211 2.54.635 15.032 6.986 35.145 19.054 49.754 29.429 1.482 1.058 2.964 1.905 2.964 3.387 0 .635-.423 1.059-.847 1.482l-11.009 6.14c-.212.212-.635.423-.847.423z" fill="#D9D9D9"/><path fill-rule="evenodd" clip-rule="evenodd" d="M113.68 131.239c-15.88-9.739-37.898-22.23-50.178-28.794-.211-1.058-.211-2.117.847-2.54 14.185 6.14 36.204 19.054 50.601 29.217.635 1.058 1.27 2.329 1.058 3.599-.635-.423-1.905-1.058-2.328-1.482z" fill="#E5E5E5"/><path fill-rule="evenodd" clip-rule="evenodd" d="M127.441 126.158l-11.433 6.563c.212-1.27-.423-2.541-1.058-3.599l9.104-5.081 2.54-1.482c.635 1.058 1.271 2.328.847 3.599z" fill="#BFBFBF"/><path fill-rule="evenodd" clip-rule="evenodd" d="M126.594 122.559l-2.54 1.482-9.104 5.081c-14.397-10.163-36.416-23.077-50.6-29.217l11.644-6.775c14.185 6.351 36.203 19.055 50.6 29.429z" fill="#D1D1D1"/><path fill-rule="evenodd" clip-rule="evenodd" d="M101.4 115.784l-16.303-9.316V93.553l16.303 9.316v12.915z" fill="#B2B2B2"/><path fill-rule="evenodd" clip-rule="evenodd" d="M104.576 114.09l-3.176 1.694v-12.915l3.176-1.694v12.915z" fill="#999"/><path fill-rule="evenodd" clip-rule="evenodd" d="M53.763 8.443c-.847-.424-1.694-.636-2.329-.212l-2.752 1.482c.635-.212 1.482-.212 2.329.212l84.475 48.906 2.753-1.693L53.763 8.443z" fill="#A3A3A3"/><path fill-rule="evenodd" clip-rule="evenodd" d="M138.239 57.138l-2.752 1.693c1.693.847 3.175 3.6 3.175 5.505l2.753-1.482c0-2.117-1.482-4.658-3.176-5.716z" fill="#CCC"/><path fill-rule="evenodd" clip-rule="evenodd" d="M138.662 64.336v56.529c0 1.058-.211 1.694-.847 2.117l2.541-1.482c.635-.423 1.059-1.059 1.059-2.117V62.854l-2.753 1.482z" fill="#999"/><path fill-rule="evenodd" clip-rule="evenodd" d="M51.011 74.075c-1.694-1.058-3.176-3.599-3.176-5.716V11.83c0-1.905 1.482-2.964 3.176-1.905l84.476 48.906c1.693.847 3.175 3.6 3.175 5.505v56.529c0 2.117-1.482 2.964-3.175 1.905L51.011 74.075z" fill="#C2C2C2"/><path fill-rule="evenodd" clip-rule="evenodd" d="M135.486 59.467L51.011 10.77c-1.482-.846-2.54-.211-2.54 1.482v56.53c0 1.693 1.058 3.598 2.54 4.445l84.475 48.695c1.482.847 2.541.212 2.541-1.482V64.124c0-1.693-1.059-3.81-2.541-4.657z" fill="#333"/><path fill-rule="evenodd" clip-rule="evenodd" d="M52.493 68.994V15.429l81.935 47.425v53.565L52.493 68.994z" fill="#1D9F3A"/><path fill-rule="evenodd" clip-rule="evenodd" d="M52.493 15.43l-.424-.212v54.2l.424-.424V15.43z" fill="gray"/><path fill-rule="evenodd" clip-rule="evenodd" d="M52.493 68.994l-.424.424 82.359 47.424v-.423L52.493 68.994z" fill="#C2C2C2"/><path fill-rule="evenodd" clip-rule="evenodd" d="M93.99 37.871c0 .636-.212.847-.635.636-.636-.424-.847-1.06-.847-1.483 0-.423.211-.635.847-.423.423.212.635.847.635 1.27z" fill="#666"/><path fill-rule="evenodd" clip-rule="evenodd" d="M101.4 160.668c-.212 0-.424 0-.635-.212l-79.606-45.943c-.212-.211-.212-.635 0-.847l23.077-13.338h1.694l79.394 45.943c.423.212.423.635 0 .847l-23.077 13.338c-.212.212-.635.212-.847.212z" fill="#000" fill-opacity=".302"/><path fill-rule="evenodd" clip-rule="evenodd" d="M122.572 142.248c.211.212.423.212.423.424 0 .211-.423.211-.423.211l-.424-.423.424-.212z" fill="gray"/><path fill-rule="evenodd" clip-rule="evenodd" d="M101.823 157.492l1.482-.847v-.423l-1.905 1.058v.424l.423.212v-.424z" fill="#333"/><path fill-rule="evenodd" clip-rule="evenodd" d="M103.517 156.857l-1.694 1.059v-.424l1.694-1.058v.423z" fill="#4D4D4D"/><path fill-rule="evenodd" clip-rule="evenodd" d="M120.031 146.906l1.482-.847v-.423l-1.905 1.059v.423h.211l.212.212v-.424z" fill="#333"/><path fill-rule="evenodd" clip-rule="evenodd" d="M121.725 146.483l-1.482.847h-.212v-.424l1.906-1.058v.423l-.212.212z" fill="#4D4D4D"/><path fill-rule="evenodd" clip-rule="evenodd" d="M101.4 156.433l-77.7-44.037v1.059l77.065 44.461.635-1.483z" fill="#BFBFBF"/><path fill-rule="evenodd" clip-rule="evenodd" d="M100.976 156.857l.424-.423c-.424.211-1.059.211-1.482 0l.847.635c0-.212 0-.212.211-.212z" fill="#B3B3B3"/><path fill-rule="evenodd" clip-rule="evenodd" d="M122.783 145.424l-21.807 12.492h-.211v-.847c0-.212 0-.212.211-.212l21.807-14.185c0-.212.212 0 .212 0v2.329c0 .212-.212.212-.212.423z" fill="gray"/><path fill-rule="evenodd" clip-rule="evenodd" d="M24.123 111.973l20.96-13.55c.212-.212.847-.212 1.27 0l76.007 43.614c.423.211.423.635 0 .847l-20.96 13.549c-.424.212-1.059.212-1.482 0l-75.795-43.402c-.424-.423-.424-.635 0-1.058z" fill="#B3B3B3"/><path fill-rule="evenodd" clip-rule="evenodd" d="M91.873 134.627l.211.635s0 .211.212.211l1.27.847c.424.212-1.058 1.271-1.058 1.271l-2.33 1.27v.423s0 .212.213.212l2.963 1.694c.212.212.636.212.847 0l6.987-4.446c.212 0 .212-.212.212-.212v-.423l-9.528-1.482z" fill="#D6D6D6"/><path fill-rule="evenodd" clip-rule="evenodd" d="M101.188 135.685l-5.505-2.964c-.211-.212-.635-.212-.846 0l-2.753 1.694c-.212.212-.212.423 0 .635l1.482.847c.212 0 .212.212 0 .423l-3.387 2.118c-.212.211-.212.423.212.635l2.964 1.693c.211.212.635.212.846 0l6.987-4.446c.212-.211.212-.423 0-.635z" fill="#F7F7F7"/><path fill-rule="evenodd" clip-rule="evenodd" d="M77.052 141.401v.636s0 .211.212.211l7.622 4.446c.423.212.635.212.847 0l2.964-1.693v-.847l-11.645-2.753z" fill="#D6D6D6"/><path fill-rule="evenodd" clip-rule="evenodd" d="M88.485 143.942l-7.622-4.446c-.212-.212-.635-.212-.847 0l-2.964 1.694c-.211.212-.211.423.212.635l7.622 4.446h.847l2.752-1.905c.424 0 .212-.424 0-.424z" fill="#F7F7F7"/><path fill-rule="evenodd" clip-rule="evenodd" d="M34.074 106.68v.423s0 .212.211.212l7.622 4.446c.424.212.635.212 1.059 0l2.752-1.694c0-.211.212-.211 0-.423v-.423l-11.645-2.541z" fill="#D6D6D6"/><path fill-rule="evenodd" clip-rule="evenodd" d="M45.506 109.009l-7.622-4.446c-.211-.212-.635-.212-.846 0l-2.753 1.693c-.423.212-.211.424 0 .635l7.622 4.447h.847l2.964-1.906c.212 0 .212-.423-.212-.423z" fill="#F7F7F7"/><path fill-rule="evenodd" clip-rule="evenodd" d="M25.605 111.973v.423c0 .212.211.212.211.424l7.834 4.446h.847l2.752-1.906.212-.211-.212-.424-11.644-2.752z" fill="#D6D6D6"/><path fill-rule="evenodd" clip-rule="evenodd" d="M37.25 114.302l-7.834-4.446h-.847l-2.752 1.905c-.212.212-.212.423 0 .423l7.621 4.447c.424.211.847.211 1.059 0l2.752-1.694c.212-.212.212-.424 0-.635z" fill="#F7F7F7"/><path fill-rule="evenodd" clip-rule="evenodd" d="M41.907 121.288v.635l.212.212 26.465 15.244h.846l2.753-1.906c.211 0 .211-.211.211-.211v-.424l-30.487-13.55z" fill="#D6D6D6"/><path fill-rule="evenodd" clip-rule="evenodd" d="M68.584 136.744l-26.465-15.032c-.212-.212-.212-.424 0-.635l2.752-1.694c.212-.212.635-.212.847 0l26.465 15.032c.211.211.211.423 0 .635l-2.753 1.694c-.211.211-.635.211-.847 0z" fill="#F7F7F7"/><path fill-rule="evenodd" clip-rule="evenodd" d="M83.615 140.131v.424c0 .211 0 .211.212.423l5.293 2.964c.212.212.635.212.847 0l2.964-1.694v-.846l-9.316-1.271z" fill="#D6D6D6"/><path fill-rule="evenodd" clip-rule="evenodd" d="M92.72 141.19l-5.293-3.176h-.847l-2.964 1.906c-.212 0-.212.423.211.423l5.293 3.176c.212.212.635.212.847 0l2.752-1.906c.212 0 .212-.211 0-.423z" fill="#F7F7F7"/><path fill-rule="evenodd" clip-rule="evenodd" d="M70.066 137.591v.423s0 .212.211.212l5.293 3.176h.847l2.964-1.906v-.635l-9.315-1.27z" fill="#D6D6D6"/><path fill-rule="evenodd" clip-rule="evenodd" d="M79.17 138.649l-5.294-3.176c-.423-.211-.635-.211-.846 0l-2.964 1.694c-.212.212-.212.424.211.635l5.293 2.964c.212.212.635.212.847 0l2.752-1.693c.212-.212.212-.424 0-.424z" fill="#F7F7F7"/><path fill-rule="evenodd" clip-rule="evenodd" d="M38.308 103.927v.424c0 .212 0 .212.212.212l5.293 3.175c.423.212.635.212.846 0l2.965-1.693v-.847l-9.316-1.271z" fill="#D6D6D6"/><path fill-rule="evenodd" clip-rule="evenodd" d="M47.412 104.986l-5.293-3.176c-.212-.211-.635-.211-.847 0l-2.964 1.906c-.212 0-.212.211.212.423l5.292 3.176h.847l2.753-1.906c.211-.211.211-.423 0-.423z" fill="#F7F7F7"/><path fill-rule="evenodd" clip-rule="evenodd" d="M29.84 109.22v.636s0 .211.21.211l5.505 3.176h.847l2.753-1.905.211-.212-.211-.635-9.316-1.271z" fill="#D6D6D6"/><path fill-rule="evenodd" clip-rule="evenodd" d="M38.943 110.279l-5.293-2.964c-.212-.212-.635-.212-.847 0l-2.752 1.694c-.212.211-.212.423 0 .635l5.293 2.964c.423.212.635.212.847 0l2.964-1.694c.212-.212.212-.423-.212-.635z" fill="#F7F7F7"/><path fill-rule="evenodd" clip-rule="evenodd" d="M34.92 117.266v.635l.212.211 5.505 3.176h.847l2.752-1.905c.212 0 .212-.212.212-.212v-.423l-9.528-1.482z" fill="#D6D6D6"/><path fill-rule="evenodd" clip-rule="evenodd" d="M44.236 118.324l-5.505-2.964c-.212-.212-.635-.212-.847 0l-2.752 1.694c-.212.212-.212.423 0 .635l5.505 2.964c.211.212.635.212.847 0l2.752-1.694c.212-.211.212-.423 0-.635z" fill="#F7F7F7"/><path fill-rule="evenodd" clip-rule="evenodd" d="M103.94 153.47v-.636h-6.986v.636s0 .211.212.211l2.964 1.694c.211.212.635.212.846 0l2.753-1.694.211-.211z" fill="#D6D6D6"/><path fill-rule="evenodd" clip-rule="evenodd" d="M100.129 154.952l-2.964-1.694c-.423-.212-.423-.424-.211-.635l2.752-1.694c.423-.212.635-.212 1.059 0l2.964 1.694c.211.211.211.423 0 .423l-2.753 1.906c-.211.211-.635.211-.847 0z" fill="#F7F7F7"/><path fill-rule="evenodd" clip-rule="evenodd" d="M99.283 150.717v-.423h-6.987v.423s0 .212.212.212l2.964 1.905h.847l2.752-1.905c.212 0 .212-.212.212-.212z" fill="#D6D6D6"/><path fill-rule="evenodd" clip-rule="evenodd" d="M95.472 152.199l-3.176-1.693c-.212-.212-.212-.424 0-.636l2.752-1.693c.212-.212.635-.212 1.059 0l2.964 1.693c.212.212.212.424 0 .636l-2.752 1.693c-.212.212-.636.212-.847 0z" fill="#F7F7F7"/><path fill-rule="evenodd" clip-rule="evenodd" d="M94.625 147.965v-.424h-7.198l.211.424c0 .212 0 .212.212.423l2.964 1.694c.212.212.635.212.847 0l2.752-1.905c.212 0 .212 0 .212-.212z" fill="#D6D6D6"/><path fill-rule="evenodd" clip-rule="evenodd" d="M90.814 149.659l-3.176-1.906c-.212 0-.212-.423 0-.423l2.753-1.906h.846l3.176 1.906c.212 0 .212.211 0 .423l-2.752 1.906h-.847z" fill="#F7F7F7"/><path fill-rule="evenodd" clip-rule="evenodd" d="M103.517 147.965v-.424h-7.198l.211.424c0 .212 0 .212.212.212l2.964 1.905h.847l2.752-1.905c.212 0 .212 0 .212-.212z" fill="#D6D6D6"/><path fill-rule="evenodd" clip-rule="evenodd" d="M99.706 149.447l-3.176-1.694c-.211-.212-.211-.423 0-.423l2.753-1.906h.847l3.175 1.906c.212 0 .212.211 0 .423l-2.752 1.694c-.212.212-.635.212-.847 0z" fill="#F7F7F7"/><path fill-rule="evenodd" clip-rule="evenodd" d="M116.644 145.212v-.423h-7.199v.423c0 .212.212.212.212.424l3.176 1.694c.211.211.635.211.847 0l2.752-1.906c.212 0 .212 0 .212-.212z" fill="#D6D6D6"/><path fill-rule="evenodd" clip-rule="evenodd" d="M112.833 146.906l-3.176-1.905c-.212 0-.212-.424 0-.424l2.752-1.905h.847l3.176 1.905c.211 0 .211.212 0 .424l-2.753 1.905h-.846z" fill="#F7F7F7"/><path fill-rule="evenodd" clip-rule="evenodd" d="M111.986 142.672v-.635h-7.199v.635l.212.212 3.176 1.693c.212.212.635.212.847 0l2.752-1.693.212-.212z" fill="#D6D6D6"/><path fill-rule="evenodd" clip-rule="evenodd" d="M108.175 144.154l-3.176-1.694c-.212-.212-.212-.423 0-.635l2.752-1.694c.212-.212.636-.212.847 0l3.176 1.694c.212.212.212.423 0 .423l-2.752 1.906c-.212.212-.635.212-.847 0z" fill="#F7F7F7"/><path fill-rule="evenodd" clip-rule="evenodd" d="M107.328 139.92v-.424h-7.198v.424l.211.211 3.176 1.906h.847l2.752-1.906c.212 0 .212-.211.212-.211z" fill="#D6D6D6"/><path fill-rule="evenodd" clip-rule="evenodd" d="M103.517 141.402l-3.176-1.694c-.212-.212-.212-.424 0-.635l2.753-1.694c.211-.212.635-.212.846 0l3.176 1.694c.212.211.212.423 0 .635l-2.752 1.694c-.212.211-.635.211-.847 0z" fill="#F7F7F7"/><path fill-rule="evenodd" clip-rule="evenodd" d="M120.878 142.46v-.423h-7.198v.635l.211.212 3.176 1.693c.212.212.635.212.847 0l2.752-1.693c.212-.212.212-.212.212-.424z" fill="#D6D6D6"/><path fill-rule="evenodd" clip-rule="evenodd" d="M117.067 144.154l-3.176-1.694c-.212-.212-.212-.423 0-.635l2.753-1.694c.211-.212.635-.212.846 0l3.176 1.694c.212.212.212.423 0 .423l-2.752 1.906h-.847z" fill="#F7F7F7"/><path fill-rule="evenodd" clip-rule="evenodd" d="M116.22 139.92v-.636l-7.198.212v.424l.211.211 3.176 1.694c.212.212.635.212.847 0l2.752-1.694.212-.211z" fill="#D6D6D6"/><path fill-rule="evenodd" clip-rule="evenodd" d="M112.409 141.402l-3.176-1.694c-.211-.212-.211-.424 0-.635l2.753-1.694c.211-.212.635-.212.847 0l3.175 1.694c.212.211.212.423 0 .635l-2.752 1.694c-.212.211-.635.211-.847 0z" fill="#F7F7F7"/><path fill-rule="evenodd" clip-rule="evenodd" d="M111.562 137.167l-.211-.423h-6.987v.423c0 .212.212.212.212.424l3.175 1.693h.847l2.753-1.905s.211 0 .211-.212z" fill="#D6D6D6"/><path fill-rule="evenodd" clip-rule="evenodd" d="M107.54 138.649l-2.964-1.694c-.212-.211-.212-.423 0-.423l2.752-1.905h.847l2.964 1.905c.423 0 .423.212.212.423l-2.753 1.694c-.423.212-.635.212-1.058 0z" fill="#F7F7F7"/><path fill-rule="evenodd" clip-rule="evenodd" d="M105.634 133.78v-.424h-7.198l.211.424c0 .211 0 .211.212.423l2.964 1.694c.212.212.635.212.847 0l2.753-1.906c.211 0 .211 0 .211-.211z" fill="#D6D6D6"/><path fill-rule="evenodd" clip-rule="evenodd" d="M101.823 135.473l-3.175-1.905c-.212 0-.212-.423 0-.423l2.752-1.906h.847l3.176 1.906c.211 0 .211.211 0 .423l-2.753 1.905h-.847z" fill="#F7F7F7"/><path fill-rule="evenodd" clip-rule="evenodd" d="M100.976 131.239v-.635h-7.198l.212.635v.212l3.175 1.694c.212.211.636.211.847 0l2.753-1.694.211-.212z" fill="#D6D6D6"/><path fill-rule="evenodd" clip-rule="evenodd" d="M97.165 132.721l-3.175-1.694c-.212-.211-.212-.423 0-.635l2.752-1.694c.212-.211.635-.211.847 0l3.176 1.694c.211.212.211.424 0 .424l-2.753 1.905c-.211.212-.635.212-.847 0z" fill="#F7F7F7"/><path fill-rule="evenodd" clip-rule="evenodd" d="M96.319 128.487v-.424H89.12v.424c0 .212.212.212.212.212l3.176 1.905h.847l2.752-1.905c.212 0 .212-.212.212-.212z" fill="#D6D6D6"/><path fill-rule="evenodd" clip-rule="evenodd" d="M92.508 129.969l-3.176-1.694c-.212-.212-.212-.423 0-.635l2.752-1.694c.212-.212.635-.212.847 0l3.176 1.694c.212.212.212.423 0 .635l-2.752 1.694c-.212.212-.636.212-.847 0z" fill="#F7F7F7"/><path fill-rule="evenodd" clip-rule="evenodd" d="M91.66 125.734v-.423h-7.198v.423c0 .212.212.212.212.424l3.176 1.694c.212.211.635.211.847 0l2.752-1.906c.212 0 .212 0 .212-.212z" fill="#D6D6D6"/><path fill-rule="evenodd" clip-rule="evenodd" d="M87.85 127.428l-3.176-1.905c-.212 0-.212-.424 0-.424l2.752-1.905h.847l3.176 1.905c.212 0 .212.212 0 .424l-2.752 1.905h-.847z" fill="#F7F7F7"/><path fill-rule="evenodd" clip-rule="evenodd" d="M87.003 123.194v-.635h-7.198v.635l.211.211 3.176 1.694c.212.212.635.212.847 0l2.752-1.694.212-.211z" fill="#D6D6D6"/><path fill-rule="evenodd" clip-rule="evenodd" d="M83.192 124.676l-3.176-1.694c-.211-.212-.211-.423 0-.635l2.753-1.694c.212-.212.635-.212.847 0l3.175 1.694c.212.212.212.423 0 .423l-2.752 1.906c-.212.212-.635.212-.847 0z" fill="#F7F7F7"/><path fill-rule="evenodd" clip-rule="evenodd" d="M82.345 120.441l-.212-.423h-6.986v.423l.212.212 3.175 1.906h.847l2.752-1.906.212-.212z" fill="#D6D6D6"/><path fill-rule="evenodd" clip-rule="evenodd" d="M78.323 121.923l-2.964-1.693c-.212-.212-.212-.424 0-.636l2.752-1.693c.212-.212.635-.212.847 0l3.175 1.693c.212.212.212.424 0 .636l-2.752 1.693c-.423.212-.635.212-1.058 0z" fill="#F7F7F7"/><path fill-rule="evenodd" clip-rule="evenodd" d="M77.687 117.689l-.211-.423h-6.987v.423c0 .212.212.212.212.423l3.175 1.694c.212.212.636.212.847 0l2.753-1.905s.211 0 .211-.212z" fill="#D6D6D6"/><path fill-rule="evenodd" clip-rule="evenodd" d="M73.665 119.383l-2.964-1.906c-.212 0-.212-.423 0-.423l2.752-1.906h.847l2.964 1.906c.424 0 .424.212.212.423l-2.964 1.906h-.847z" fill="#F7F7F7"/><path fill-rule="evenodd" clip-rule="evenodd" d="M73.03 115.149l-.212-.636H65.83v.636s0 .211.212.211l3.176 1.694c.211.212.635.212.847 0l2.752-1.694c0-.211.212-.211.212-.211z" fill="#D6D6D6"/><path fill-rule="evenodd" clip-rule="evenodd" d="M69.007 116.631l-2.964-1.694c-.212-.212-.212-.424 0-.635l2.752-1.694c.212-.212.635-.212.847 0l2.964 1.694c.424.211.424.423.212.423l-2.964 1.906c-.212.211-.424.211-.847 0z" fill="#F7F7F7"/><path fill-rule="evenodd" clip-rule="evenodd" d="M68.16 112.396v-.423h-6.987v.423s0 .212.212.212l2.964 1.905h1.059l2.752-1.905v-.212z" fill="#D6D6D6"/><path fill-rule="evenodd" clip-rule="evenodd" d="M64.35 113.878l-2.965-1.694c-.212-.211-.212-.423 0-.635l2.753-1.693c.211-.212.635-.212.846 0l2.964 1.693c.424.212.424.424.212.635l-2.964 1.694c-.212.212-.635.212-.847 0z" fill="#F7F7F7"/><path fill-rule="evenodd" clip-rule="evenodd" d="M63.502 109.644v-.424h-6.986v.424c0 .212 0 .212.211.423l2.964 1.694c.424.212.636.212.847 0l2.964-1.905v-.212z" fill="#D6D6D6"/><path fill-rule="evenodd" clip-rule="evenodd" d="M59.691 111.338l-2.964-1.906c-.211 0-.423-.423 0-.423l2.753-1.906h.847l2.964 1.906c.211 0 .423.211 0 .423l-2.753 1.906h-.847z" fill="#F7F7F7"/><path fill-rule="evenodd" clip-rule="evenodd" d="M58.844 107.103v-.635h-6.986v.635s0 .212.212.212l2.964 1.694c.423.211.635.211.846 0l2.964-1.694v-.212z" fill="#D6D6D6"/><path fill-rule="evenodd" clip-rule="evenodd" d="M55.033 108.585l-2.964-1.694c-.211-.211-.423-.423-.211-.635l2.964-1.693c.211-.212.635-.212.847 0l2.964 1.693c.211.212.211.424 0 .424l-2.753 1.905c-.211.212-.635.212-.847 0z" fill="#F7F7F7"/><path fill-rule="evenodd" clip-rule="evenodd" d="M54.187 104.351v-.424H47.2v.424s0 .212.212.212l2.964 1.905h.847l2.964-1.905v-.212z" fill="#D6D6D6"/><path fill-rule="evenodd" clip-rule="evenodd" d="M50.376 105.833l-2.964-1.694c-.424-.212-.424-.423-.212-.635l2.964-1.694c.212-.211.635-.211.847 0l2.964 1.694c.212.212.212.423 0 .635l-2.752 1.694c-.212.212-.636.212-.847 0z" fill="#F7F7F7"/><path fill-rule="evenodd" clip-rule="evenodd" d="M49.529 101.598v-.423h-6.987v.423c0 .212 0 .212.212.424l2.964 1.694c.212.211.635.211.847 0l2.752-1.906c.212 0 .212 0 .212-.212z" fill="#D6D6D6"/><path fill-rule="evenodd" clip-rule="evenodd" d="M45.718 103.292l-2.964-1.905c-.424 0-.424-.424-.212-.424l2.964-1.905h.847l2.964 1.905c.212 0 .212.212 0 .424l-2.752 1.905h-.847z" fill="#F7F7F7"/><path fill-rule="evenodd" clip-rule="evenodd" d="M94.413 132.509v-.423h-7.198l.212.423c0 .212 0 .212.211.212l2.964 1.906h.847l2.752-1.906c.212 0 .212-.212.212-.212z" fill="#D6D6D6"/><path fill-rule="evenodd" clip-rule="evenodd" d="M90.602 133.991l-3.175-1.693c-.212-.212-.212-.424 0-.424l2.752-1.905c.212-.212.635-.212.847 0l3.175 1.694c.212.211.212.423 0 .635l-2.752 1.693c-.212.212-.635.212-.847 0z" fill="#F7F7F7"/><path fill-rule="evenodd" clip-rule="evenodd" d="M89.755 129.757v-.423h-7.198l.212.423v.423l3.175 1.694c.212.212.636.212.847 0l2.753-1.694c.211-.211.211-.211.211-.423z" fill="#D6D6D6"/><path fill-rule="evenodd" clip-rule="evenodd" d="M85.945 131.451l-3.176-1.906c-.212 0-.212-.211 0-.423l2.752-1.905h.847l3.176 1.905c.211 0 .211.423 0 .423l-2.753 1.906h-.846z" fill="#F7F7F7"/><path fill-rule="evenodd" clip-rule="evenodd" d="M85.098 127.216v-.635h-7.199v.635l.212.212 3.176 1.694c.211.212.635.212.847 0l2.752-1.694c.212 0 .212-.212.212-.212z" fill="#D6D6D6"/><path fill-rule="evenodd" clip-rule="evenodd" d="M81.287 128.699l-3.176-1.694c-.212-.212-.212-.424 0-.635l2.752-1.694c.212-.212.635-.212.847 0l3.176 1.694c.212.211.212.423 0 .635l-2.752 1.694c-.212.211-.636.211-.847 0z" fill="#F7F7F7"/><path fill-rule="evenodd" clip-rule="evenodd" d="M80.44 124.464v-.423h-7.2v.423c0 .212.212.212.212.212l3.176 1.905h.847l2.752-1.905c.212 0 .212-.212.212-.212z" fill="#D6D6D6"/><path fill-rule="evenodd" clip-rule="evenodd" d="M76.629 125.946l-3.176-1.694c-.212-.211-.212-.423 0-.423l2.752-1.905c.212-.212.636-.212.847 0l3.176 1.693c.212.212.212.424 0 .635l-2.752 1.694c-.212.212-.635.212-.847 0z" fill="#F7F7F7"/><path fill-rule="evenodd" clip-rule="evenodd" d="M75.782 121.712v-.424h-7.198v.424c0 .211.211.211.211.423l3.176 1.694c.212.212.635.212.847 0l2.752-1.694c.212-.212.212-.212.212-.423z" fill="#D6D6D6"/><path fill-rule="evenodd" clip-rule="evenodd" d="M71.971 123.406l-3.176-1.906c-.212 0-.212-.212 0-.423l2.753-1.906h.846l3.176 1.906c.212 0 .212.423 0 .423l-2.752 1.906h-.847z" fill="#F7F7F7"/><path fill-rule="evenodd" clip-rule="evenodd" d="M71.124 119.171l-.212-.635h-6.986v.635l.212.212 3.175 1.694c.212.211.635.211.847 0l2.752-1.694.212-.212z" fill="#D6D6D6"/><path fill-rule="evenodd" clip-rule="evenodd" d="M67.102 120.653l-2.965-1.694c-.211-.211-.211-.423 0-.635l2.753-1.694c.212-.211.635-.211.847 0l3.175 1.694c.212.212.212.424 0 .635l-2.752 1.694c-.423.212-.635.212-1.058 0z" fill="#F7F7F7"/><path fill-rule="evenodd" clip-rule="evenodd" d="M66.466 116.419l-.211-.424h-6.987v.424c0 .212.212.212.212.212l3.175 1.905h.847l2.753-1.905.211-.212z" fill="#D6D6D6"/><path fill-rule="evenodd" clip-rule="evenodd" d="M62.444 117.901l-2.964-1.694c-.212-.212-.212-.423 0-.423l2.752-1.906c.212-.211.635-.211.847 0l2.964 1.694c.423.212.423.423.212.635l-2.753 1.694c-.423.212-.635.212-1.058 0z" fill="#F7F7F7"/><path fill-rule="evenodd" clip-rule="evenodd" d="M61.809 113.667l-.212-.424H54.61v.424c0 .211 0 .211.212.423l3.176 1.694c.211.211.635.211.847 0l2.752-1.694c0-.212.212-.212.212-.423z" fill="#D6D6D6"/><path fill-rule="evenodd" clip-rule="evenodd" d="M57.786 115.36l-2.964-1.905c-.212 0-.212-.212 0-.424l2.752-1.905h.847l2.964 1.905c.424 0 .424.424.212.424l-2.964 1.905h-.847z" fill="#F7F7F7"/><path fill-rule="evenodd" clip-rule="evenodd" d="M56.94 111.126v-.635h-6.988v.635s0 .212.212.212l2.964 1.693c.424.212.635.212 1.059 0l2.752-1.693v-.212z" fill="#D6D6D6"/><path fill-rule="evenodd" clip-rule="evenodd" d="M53.128 112.608l-2.964-1.694c-.212-.212-.212-.423 0-.635l2.752-1.694c.212-.211.636-.211.847 0l2.964 1.694c.424.212.424.423.212.635l-2.964 1.694c-.212.212-.635.212-.847 0z" fill="#F7F7F7"/><path fill-rule="evenodd" clip-rule="evenodd" d="M52.281 108.374v-.424h-6.986v.424c0 .211 0 .211.211.211l2.964 1.906h.847l2.964-1.906v-.211z" fill="#D6D6D6"/><path fill-rule="evenodd" clip-rule="evenodd" d="M48.47 109.856l-2.964-1.694c-.212-.212-.423-.424 0-.424l2.753-1.905c.211-.212.635-.212.846 0l2.965 1.694c.211.211.423.423 0 .635l-2.753 1.694c-.212.211-.635.211-.847 0z" fill="#F7F7F7"/><path fill-rule="evenodd" clip-rule="evenodd" d="M92.508 136.532v-.423H85.52v.423c0 .212 0 .212.212.424l2.964 1.693h.847l2.752-1.905c.212 0 .212 0 .212-.212z" fill="#D6D6D6"/><path fill-rule="evenodd" clip-rule="evenodd" d="M88.697 138.014l-3.176-1.694c-.212-.211-.212-.423 0-.423l2.752-1.906h1.059l2.964 1.906c.212 0 .212.212 0 .423l-2.752 1.694c-.212.212-.635.212-.847 0z" fill="#F7F7F7"/><path fill-rule="evenodd" clip-rule="evenodd" d="M87.85 133.78v-.424h-7.198l.211.635.212.212 2.964 1.694c.212.212.635.212.847 0l2.752-1.694c.212-.212.212-.212.212-.423z" fill="#D6D6D6"/><path fill-rule="evenodd" clip-rule="evenodd" d="M84.039 135.474l-3.176-1.906c-.212 0-.212-.212 0-.423l2.753-1.694c.211-.212.635-.212.846 0l3.176 1.694c.212.211.212.423 0 .423l-2.752 1.906h-.847z" fill="#F7F7F7"/><path fill-rule="evenodd" clip-rule="evenodd" d="M83.192 131.239v-.635l-7.198.212.211.423s0 .212.212.212l2.964 1.694c.212.211.635.211.847 0l2.752-1.694c.212 0 .212-.212.212-.212z" fill="#D6D6D6"/><path fill-rule="evenodd" clip-rule="evenodd" d="M79.381 132.721l-3.176-1.694c-.211-.211-.211-.423 0-.635l2.753-1.694c.211-.211.635-.211.847 0l3.175 1.694c.212.212.212.424 0 .635l-2.752 1.694c-.212.212-.635.212-.847 0z" fill="#F7F7F7"/><path fill-rule="evenodd" clip-rule="evenodd" d="M78.534 128.487v-.424h-7.198l.212.424v.212l3.175 1.905h.847l2.753-1.905c.211 0 .211 0 .211-.212z" fill="#D6D6D6"/><path fill-rule="evenodd" clip-rule="evenodd" d="M74.723 129.969l-3.175-1.694c-.212-.212-.212-.423 0-.423l2.752-1.906h.847l3.175 1.906c.212 0 .212.211 0 .423l-2.752 1.694c-.211.212-.635.212-.847 0z" fill="#F7F7F7"/><path fill-rule="evenodd" clip-rule="evenodd" d="M73.876 125.734v-.423h-7.198v.635s.212 0 .212.212l3.176 1.694c.211.211.635.211.846 0l2.753-1.694c.211-.212.211-.212.211-.424z" fill="#D6D6D6"/><path fill-rule="evenodd" clip-rule="evenodd" d="M70.066 127.428l-3.176-1.905c-.212 0-.212-.212 0-.424l2.752-1.693c.212-.212.635-.212.847 0l3.176 1.693c.211.212.211.424 0 .424l-2.753 1.905h-.846z" fill="#F7F7F7"/><path fill-rule="evenodd" clip-rule="evenodd" d="M69.219 123.194v-.635l-7.199.211v.424l.212.211 3.176 1.694c.212.212.635.212.847 0l2.752-1.694c.212 0 .212-.211.212-.211z" fill="#D6D6D6"/><path fill-rule="evenodd" clip-rule="evenodd" d="M65.408 124.676l-3.176-1.694c-.212-.212-.212-.423 0-.635l2.752-1.694c.212-.212.636-.212.847 0l3.176 1.694c.212.212.212.423 0 .635l-2.752 1.694c-.212.212-.635.212-.847 0z" fill="#F7F7F7"/><path fill-rule="evenodd" clip-rule="evenodd" d="M64.56 120.441v-.423h-7.198v.423c0 .212.212.212.212.212l3.176 1.906h.847l2.752-1.906c.212 0 .212 0 .212-.212z" fill="#D6D6D6"/><path fill-rule="evenodd" clip-rule="evenodd" d="M60.75 121.923l-3.176-1.693c-.212-.212-.212-.424 0-.424l2.753-1.905h.846l3.176 1.694c.212.211.212.423 0 .635l-2.752 1.693c-.212.212-.635.212-.847 0z" fill="#F7F7F7"/><path fill-rule="evenodd" clip-rule="evenodd" d="M59.903 117.689l-.212-.423h-6.986v.635s.212 0 .212.211l3.175 1.694c.212.212.635.212.847 0l2.752-1.694c0-.211.212-.211.212-.423z" fill="#D6D6D6"/><path fill-rule="evenodd" clip-rule="evenodd" d="M55.88 119.383l-2.964-1.906c-.211 0-.211-.211 0-.423l2.753-1.694c.211-.212.635-.212.847 0l3.175 1.694c.212.212.212.423 0 .423l-2.752 1.906H55.88z" fill="#F7F7F7"/><path fill-rule="evenodd" clip-rule="evenodd" d="M55.245 115.149l-.211-.636-6.987.212v.424l.212.211 3.175 1.694c.212.212.636.212.847 0l2.753-1.694.211-.211z" fill="#D6D6D6"/><path fill-rule="evenodd" clip-rule="evenodd" d="M51.223 116.631l-2.964-1.694c-.212-.212-.212-.424 0-.635l2.752-1.694c.212-.212.635-.212.847 0l2.964 1.694c.423.211.423.423.212.635l-2.753 1.694c-.423.211-.635.211-1.058 0z" fill="#F7F7F7"/><path fill-rule="evenodd" clip-rule="evenodd" d="M50.587 112.396l-.211-.423h-6.987v.423c0 .212 0 .212.212.212l3.176 1.905h.846l2.753-1.905s.212 0 .212-.212z" fill="#D6D6D6"/><path fill-rule="evenodd" clip-rule="evenodd" d="M46.565 113.878l-2.964-1.694c-.212-.211-.212-.423 0-.423l2.752-1.905c.212 0 .635-.212.847 0l2.964 1.693c.423.212.423.424.212.635l-2.964 1.694c-.212.212-.424.212-.847 0z" fill="#F7F7F7"/><path fill-rule="evenodd" clip-rule="evenodd" d="M85.944 138.014v-.635h-6.986v.635s0 .212.212.212l2.963 1.694c.212.211.636.211.847 0l2.753-1.694.211-.212z" fill="#D6D6D6"/><path fill-rule="evenodd" clip-rule="evenodd" d="M82.133 139.496l-2.963-1.694c-.424-.211-.424-.423-.212-.635l2.964-1.694c.212-.211.423-.211.847 0l2.964 1.694c.212.212.212.424 0 .424l-2.753 1.905c-.211.212-.635.212-.847 0z" fill="#F7F7F7"/><path fill-rule="evenodd" clip-rule="evenodd" d="M81.287 135.262v-.424H74.3v.424s0 .211.212.211l2.964 1.906h.847l2.752-1.906c.212 0 .212-.211.212-.211z" fill="#D6D6D6"/><path fill-rule="evenodd" clip-rule="evenodd" d="M77.476 136.744L74.3 135.05c-.212-.212-.212-.423 0-.635l2.752-1.694c.424-.212.635-.212 1.059 0l2.964 1.694c.212.212.212.423 0 .635l-2.752 1.694c-.212.212-.636.212-.847 0z" fill="#F7F7F7"/><path fill-rule="evenodd" clip-rule="evenodd" d="M76.629 132.509v-.423H69.43l.212.423c0 .212 0 .212.212.424l2.964 1.694c.212.211.635.211.847 0l2.752-1.906c.212 0 .212 0 .212-.212z" fill="#D6D6D6"/><path fill-rule="evenodd" clip-rule="evenodd" d="M72.818 134.203l-3.176-1.905c-.212 0-.212-.424 0-.424l2.752-1.905h.847l3.176 1.905c.212 0 .212.212 0 .424l-2.752 1.905h-.847z" fill="#F7F7F7"/><path fill-rule="evenodd" clip-rule="evenodd" d="M71.971 129.969v-.635h-7.198l.211.635s0 .211.212.211l2.964 1.694c.212.212.635.212.847 0l2.752-1.694.212-.211z" fill="#D6D6D6"/><path fill-rule="evenodd" clip-rule="evenodd" d="M68.16 131.451l-3.176-1.694c-.211-.212-.211-.423 0-.635l2.753-1.694c.211-.212.635-.212.847 0l3.175 1.694c.212.212.212.423 0 .423l-2.752 1.906c-.212.212-.635.212-.847 0z" fill="#F7F7F7"/><path fill-rule="evenodd" clip-rule="evenodd" d="M67.313 127.217v-.424h-7.198l.212.424v.211l3.175 1.906h.847l2.752-1.906c.212 0 .212-.211.212-.211z" fill="#D6D6D6"/><path fill-rule="evenodd" clip-rule="evenodd" d="M63.502 128.699l-3.175-1.694c-.212-.212-.212-.424 0-.635l2.752-1.694c.212-.212.635-.212.847 0l3.175 1.694c.212.211.212.423 0 .635l-2.752 1.694c-.212.211-.635.211-.847 0z" fill="#F7F7F7"/><path fill-rule="evenodd" clip-rule="evenodd" d="M62.655 124.464v-.423h-7.198v.423c0 .212.212.212.212.424l3.175 1.693c.212.212.636.212.847 0l2.753-1.905c.211 0 .211 0 .211-.212z" fill="#D6D6D6"/><path fill-rule="evenodd" clip-rule="evenodd" d="M58.844 126.158l-3.175-1.906c-.212 0-.212-.423 0-.423l2.752-1.905h.847l3.176 1.905c.212 0 .212.212 0 .423l-2.753 1.906h-.847z" fill="#F7F7F7"/><path fill-rule="evenodd" clip-rule="evenodd" d="M57.998 121.923v-.635h-7.199v.635l.212.212 3.176 1.694c.211.212.635.212.846 0l2.753-1.694.212-.212z" fill="#D6D6D6"/><path fill-rule="evenodd" clip-rule="evenodd" d="M54.187 123.405l-3.176-1.693c-.212-.212-.212-.424 0-.635l2.752-1.694c.212-.212.635-.212.847 0l3.176 1.694c.212.211.212.423 0 .423l-2.752 1.905c-.212.212-.636.212-.847 0z" fill="#F7F7F7"/><path fill-rule="evenodd" clip-rule="evenodd" d="M53.34 119.171v-.635l-7.199.212v.423l.212.212 3.176 1.905h.847l2.752-1.905c.212 0 .212-.212.212-.212z" fill="#D6D6D6"/><path fill-rule="evenodd" clip-rule="evenodd" d="M49.529 120.653l-3.176-1.694c-.212-.211-.212-.423 0-.635l2.752-1.694c.212-.211.636-.211.847 0l3.176 1.694c.212.212.212.424 0 .635l-2.752 1.694c-.212.212-.635.212-.847 0z" fill="#F7F7F7"/><path fill-rule="evenodd" clip-rule="evenodd" d="M48.682 116.419l-.212-.424h-6.986v.424c0 .212.211.212.211.423l3.176 1.694c.212.212.635.212.847 0l2.752-1.905s.212 0 .212-.212z" fill="#D6D6D6"/><path fill-rule="evenodd" clip-rule="evenodd" d="M44.66 118.113l-2.965-1.906c-.211 0-.211-.423 0-.423l2.753-1.906h.846l3.176 1.906c.212 0 .212.211 0 .423l-2.752 1.906h-1.059z" fill="#F7F7F7"/><path fill-rule="evenodd" clip-rule="evenodd" d="M44.024 113.878l-.212-.635h-6.986v.635l.212.212 3.175 1.694c.212.211.635.211.847 0l2.752-1.694c0-.212.212-.212.212-.212z" fill="#D6D6D6"/><path fill-rule="evenodd" clip-rule="evenodd" d="M40.002 115.36l-2.964-1.694c-.212-.211-.212-.423 0-.635l2.752-1.694c.212-.211.635-.211.847 0l2.964 1.694c.423.212.423.424.212.424l-2.753 1.905c-.423.212-.635.212-1.058 0z" fill="#F7F7F7"/><path fill-rule="evenodd" clip-rule="evenodd" d="M129.558 162.15c-.847 0-1.693-.212-2.329-.635l-6.351-3.599c-1.27-.847-1.27-2.118 0-2.965l3.599-1.905c-1.482 1.059-2.541 1.694-2.752 2.541v-.212.212c-.212.211-.212.211-.212.423 0 .635.212 1.27.847 1.482l3.599 2.117c.635.424 1.482.635 2.117.635h.212l.212.212.423.212h.635v-.212.212h.424l16.302-9.316c.424-.211.424-.423.424-.847v-.211c.211 0 .423-.212.423-.424h.212c1.27.847 1.27 2.117 0 2.964l-15.244 8.681c-.635.423-1.482.635-2.541.635z" fill="#E5E5E5"/><path fill-rule="evenodd" clip-rule="evenodd" d="M146.919 148.812c.212.211.212.635-.211.847l-4.87 1.905c-1.905.635-3.811 1.694-5.505 2.964l-5.716 4.234c-1.27.847-3.176 1.059-4.658.212l-3.599-2.117c-.635-.424-.847-1.059-.635-1.482-.424.847-.212 1.694.635 2.117l3.599 2.117c1.482.847 3.388.847 4.658-.211l5.716-4.235c1.694-1.27 3.6-2.329 5.505-2.964l4.87-1.905c.635-.212.846-1.271.211-1.482z" fill="#C7C7C7"/><path fill-rule="evenodd" clip-rule="evenodd" d="M146.708 149.659l-4.87 1.905c-1.905.635-3.811 1.694-5.505 2.964l-5.716 4.234c-1.27.847-3.176 1.059-4.658.212l-3.599-2.117c-2.329-1.27 1.059-2.964 6.14-6.775 2.329-1.694 10.374-5.928 12.915-4.446l5.293 2.964c.423.423.423.847 0 1.059z" fill="#EDEDED"/><path fill-rule="evenodd" clip-rule="evenodd" d="M128.076 160.244l.847.424h.635v-.635c-.423 0-1.058.211-1.482.211z" fill="#737373"/><path fill-rule="evenodd" clip-rule="evenodd" d="M146.708 150.294l-4.87 1.905c-1.905.635-3.811 1.694-5.505 2.964l-5.716 4.235c-.212.211-.635.423-1.059.635v.635h.424l16.302-9.316c.424-.211.424-.423.424-.847v-.211z" fill="gray"/><path fill-rule="evenodd" clip-rule="evenodd" d="M128.5 160.456l-.212-.211.212.211z" fill="#C3C3C3"/><path fill-rule="evenodd" clip-rule="evenodd" d="M129.135 160.668c-.212 0-.424-.212-.635-.212l-.212-.212h-.212c.424 0 1.059-.211 1.482-.211v.423c-.211 0-.423.212-.423.212z" fill="#626262"/><path fill-rule="evenodd" clip-rule="evenodd" d="M129.558 160.456v-.423c.424-.212.847-.424 1.059-.635l5.716-4.235c1.694-1.27 3.6-2.329 5.505-2.964l4.87-1.905v.211l-4.658 1.906c-1.906.635-3.811 1.694-5.505 2.964l-5.505 4.234c-.423.212-1.058.635-1.482.847z" fill="#6D6D6D"/><path fill-rule="evenodd" clip-rule="evenodd" d="M143.743 146.906c-2.117.424-5.081 1.482-6.986 2.541v.211h.211c1.906-1.058 4.87-2.328 6.987-2.54l-.212-.212z" fill="#B8B8B8"/><path fill-rule="evenodd" clip-rule="evenodd" d="M136.757 149.659h.211c1.906-1.059 4.87-2.329 6.987-2.541-2.329.212-5.293 1.482-7.198 2.541z" fill="#fff"/><g clip-path="url(#clip0_222_59041)"><path d="M90.663 61.464l7.604-4.391 1.17 2.026-8.774 5.067-5.265-9.12 1.17-.675 4.095 7.093z" fill="#fff"/></g><path d="M67.633 64.852l-.45-.94c.384-.176.836-.114 1.357.187.446.257.799.583 1.06.978.26.39.39.786.39 1.189 0 .484-.181.738-.543.764.265.23.468.504.609.825.141.321.212.642.212.963 0 .48-.164.772-.49.879-.327.107-.748.011-1.264-.287a3.825 3.825 0 01-1.661-1.922l.562-.294c.097.311.25.59.457.837.212.245.432.433.662.566.277.16.487.207.628.14.146-.063.219-.199.219-.408 0-.52-.322-.965-.967-1.337l-.397-.23v-.856l.397.23c.225.13.404.177.537.141.132-.04.198-.163.198-.367a.95.95 0 00-.159-.527 1.348 1.348 0 00-.47-.424c-.38-.22-.675-.255-.887-.107zm5.504 4.232v-.428l.808.466v3.31l-.808-.467v-.428c-.216.232-.51.241-.88.027-.432-.25-.785-.624-1.059-1.123-.269-.497-.403-.993-.403-1.487 0-.5.132-.84.397-1.024.264-.183.606-.154 1.025.088.415.24.722.595.92 1.066zm-.145.474a1.546 1.546 0 00-.57-.596c-.229-.133-.419-.153-.569-.061-.15.091-.225.27-.225.535s.075.532.225.802c.15.265.34.464.57.596.229.133.419.153.569.061.15-.096.225-.277.225-.542a1.6 1.6 0 00-.225-.795zm1.723.009l.807.466v1.284l1.072-.665 1.006.58-1.297.727 1.364 2.621-1.033-.596-.993-1.941-.119.069v1.23l-.807-.466v-3.31zm5.506 3.607v-.428l.808.466v3.31l-.808-.467v-.428c-.216.232-.51.24-.88.027-.432-.25-.785-.624-1.059-1.123-.27-.497-.404-.993-.404-1.487 0-.5.133-.84.397-1.024.265-.183.607-.154 1.026.088.415.24.722.595.92 1.066zm-.145.474a1.546 1.546 0 00-.57-.596c-.229-.133-.419-.153-.569-.061-.15.091-.225.27-.225.534 0 .265.075.533.225.803.15.265.34.464.57.596.229.133.419.153.569.061.15-.097.225-.277.225-.542s-.075-.53-.225-.795zm2.014 1.063l-.371-.794c.3-.102.662-.031 1.086.213.322.186.575.407.76.662.217.293.325.59.325.89 0 .306-.133.466-.397.481.141.123.267.27.377.44.146.237.218.483.218.737 0 .321-.11.512-.33.573-.221.067-.534-.017-.94-.252a3.297 3.297 0 01-1.231-1.26l.397-.337c.216.36.472.624.767.795.186.107.316.144.391.11.075-.032.112-.097.112-.194a.561.561 0 00-.152-.363 1.36 1.36 0 00-.344-.26l-.337-.195v-.672l.324.187c.145.084.251.12.318.107.066-.013.099-.07.099-.172 0-.224-.146-.42-.437-.589-.247-.142-.459-.178-.635-.107zm4.506 2.075c.29-.143.677-.076 1.158.202.48.278.867.656 1.158 1.135.322.522.483 1.048.483 1.578 0 .525-.16.862-.483 1.013-.291.142-.677.075-1.158-.203a3.222 3.222 0 01-1.158-1.135c-.322-.522-.483-1.045-.483-1.57 0-.53.16-.87.483-1.02zm.582 2.292c.155.273.347.475.576.608.23.132.421.151.576.057.154-.094.231-.269.231-.523 0-.26-.077-.526-.231-.799a1.573 1.573 0 00-.576-.608c-.23-.132-.421-.151-.576-.057-.154.094-.231.271-.231.531 0 .255.077.519.231.791zm4.338 5.248v-1.704l-.067-.038a3.153 3.153 0 01-1.006-.91 2.85 2.85 0 01-.569-1.704c0-.601.19-.95.57-1.047.264-.061.6.025 1.005.26l.067.038v-1.743l.807.467v1.742l.066.038c.41.237.746.538 1.006.902.38.535.57 1.103.57 1.704 0 .612-.19.96-.57 1.047-.264.067-.6-.017-1.006-.252l-.066-.038v1.704l-.807-.466zm0-2.53v-1.75c-.199-.125-.369-.172-.51-.141-.199.043-.298.225-.298.546 0 .332.097.627.291.887.133.183.305.336.517.458zm.807-1.284v1.75c.212.123.384.169.516.138.194-.035.291-.219.291-.55 0-.321-.099-.618-.297-.89a1.48 1.48 0 00-.51-.447zm2.604 1.084c.291-.143.677-.076 1.158.202.481.278.867.656 1.158 1.135.323.522.484 1.048.484 1.578 0 .525-.162.862-.484 1.013-.29.142-.677.075-1.158-.203a3.221 3.221 0 01-1.158-1.135c-.322-.522-.483-1.045-.483-1.57 0-.53.16-.87.483-1.02zm.582 2.292c.155.273.347.475.576.608.23.132.422.151.576.057.154-.094.232-.269.232-.523 0-.26-.078-.526-.232-.799a1.574 1.574 0 00-.576-.607c-.23-.133-.421-.152-.576-.058-.154.094-.231.271-.231.531 0 .255.077.519.231.791zm3.65 2.673v2.178l-.808-.467v-5.059l.808.467v.427c.216-.231.527-.23.933.004.397.23.723.566.979 1.01.287.496.43 1.017.43 1.562 0 .56-.15.92-.45 1.077-.264.133-.589.088-.973-.133-.383-.222-.69-.577-.92-1.066zm.714-1.75c-.207-.12-.381-.147-.523-.08-.18.073-.27.258-.27.553 0 .301.087.591.264.872.145.231.322.407.53.527.215.125.396.15.542.076.168-.081.252-.267.252-.558a1.61 1.61 0 00-.245-.836 1.574 1.574 0 00-.55-.554zm1.948 3.715l.523-3.007.596.344.787 2.357.788-1.448.596.344.522 3.61-.807-.465-.238-1.934-.715 1.383-.291-.168-.715-2.208-.238 1.658-.808-.466zm6.97.715v3.309l-.808-.466v-2.515l-.781-.45v1.215c0 .427-.09.701-.271.821-.181.13-.439.098-.774-.096a1.525 1.525 0 01-.239-.168v-.794c.053.04.095.07.126.088.146.084.256.094.331.03.066-.053.099-.175.099-.363v-1.949l2.317 1.338zm2.839 3.886l.741.565a.772.772 0 01-.125.203 1.123 1.123 0 01-.232.195c-.106.066-.249.088-.43.065a1.848 1.848 0 01-.622-.245 3.035 3.035 0 01-1.099-1.1c-.3-.5-.45-1.017-.45-1.552 0-.53.145-.879.437-1.047.273-.153.633-.1 1.078.157.486.28.859.676 1.119 1.188.229.449.344.948.344 1.498v.077l-2.144-1.239c0 .225.046.437.139.639.132.285.324.5.576.645.3.174.522.157.668-.05zm-1.357-1.815l1.357.783a1.397 1.397 0 00-.245-.63 1.335 1.335 0 00-.437-.428c-.159-.092-.304-.118-.436-.077-.128.044-.208.16-.239.352zm2.743 3.677V91.68l.808.466v1.17l1.125.65v-1.17l.807.466v3.31l-.807-.467V94.76l-1.125-.65v1.346l-.808-.467zm4.37.972l-.82-.474v-3.546l.82.474v3.546zm-.781 1.032a1.042 1.042 0 01-.145-.512c0-.168.048-.28.145-.337.102-.058.225-.045.371.039a.985.985 0 01.364.386.99.99 0 01.152.508c0 .168-.051.281-.152.34-.097.056-.218.042-.364-.042a1.045 1.045 0 01-.371-.382z" fill="#fff"/><defs><clipPath id="clip0_222_59041"><path fill="#fff" transform="matrix(.86603 .5 0 1 82.389 42.194)" d="M0 0h22.927v22.927H0z"/></clipPath></defs></svg>