<svg width="170" height="170" fill="none" xmlns="http://www.w3.org/2000/svg"><path d="M20.718 99.051c7.767-4.57 20.408-4.57 28.175 0 7.767 4.419 7.767 11.733-.152 16.304-7.767 4.571-20.408 4.571-28.175 0-7.615-4.419-7.615-11.732.152-16.304z" fill="#F5F2E8"/><path d="M119.711 134.249l-38.379-22.246-2.436 1.371 2.436-1.371-7.462-4.267-32.897 18.895 7.463 4.266 38.379 22.247 10.813 4.723 3.503-1.981-8.224-6.247-8.833-5.181 20.407-11.885 8.834 5.181 10.813 4.724 3.503-1.981-7.92-6.248zm-52.847.305l-12.336-7.161 20.408-11.886 12.336 7.162-20.408 11.885z" fill="#D8D5CC"/><path d="M13.712 93.87c7.767-4.57 20.408-4.57 28.175 0 7.767 4.42 7.767 11.733-.152 16.304-7.767 4.572-20.408 4.572-28.175 0-7.615-4.418-7.615-11.732.152-16.303z" fill="#000" fill-opacity=".1"/><path d="M45.695 39.473s-1.066 1.981-3.199 1.981h-.913c-1.219-.152-1.371-.61-1.676-1.219-.304-.762-4.264-17.218-.913-18.285 0 0 1.675 0 2.436 1.524.457 1.067 1.371 4.724 2.133 7.923.456 1.981.761 3.657.913 4.42.305 1.523.914 2.894 1.066 3.504l.153.152z" fill="#FFAE75"/><path d="M48.74 51.206v.61s-.456-1.22-2.589-3.048c-2.132-1.828-4.112-5.028-4.416-6.095v-1.219c-1.219-.152-1.37-.61-1.675-1.219-.305-.762-4.265-17.218-.914-18.285 0 0 1.675 0 2.437 1.524.456 1.067 1.37 4.724 2.132 7.924-.153.457-1.98 1.066-1.98 1.066s.304 5.79.304 6.247c0 .458.914 1.372.914 1.372-.152.152-.457.61-.457 1.371 0 .152 0 .457.152.61.457 1.219 3.351 5.333 4.265 6.704.914 1.371 2.132 1.98 2.132 1.98s-.152.153-.305.458z" fill="url(#paint0_linear_222_59403)"/><path d="M43.563 30.94s-1.371.915-2.59.61c-1.218-.457-4.112-10.819-4.112-10.819s.305-.457 1.98-.152c1.828.457 2.59 2.133 2.894 3.047.152.762 1.828 7.314 1.828 7.314z" fill="#1D9F3A"/><path d="M40.973 103.013s2.437 1.066 2.894 1.524c.457.457 3.503 2.895 3.655 3.352.153.457 1.066 1.219 1.219 1.981 0 .914-1.066 1.676-1.98 1.676-.914 0-3.655-.915-4.874-1.981-1.218-1.067-1.827-1.981-1.98-1.981-.152 0-.152 0-.761.152-.457.153-2.59-.914-2.742-1.371-.304-.609-.761-2.895-.456-3.505.304-.761 5.025.153 5.025.153z" fill="#2F2F2F"/><path d="M41.278 102.403s2.284 2.286 2.437 2.743c.152.457-.762 1.067-2.285 1.067-1.523 0-3.198-1.372-3.198-1.372s-1.523-2.133-.914-3.199c.914-1.219 3.96.761 3.96.761z" fill="#FFAE75"/><path d="M41.887 56.844s.457-.153 1.37 7.923c.915 7.467.762 12.8.61 15.39-.152 2.59-1.523 21.789-1.523 22.856 0 .914-2.132 1.524-3.503 1.371-1.37-.152-2.437-1.219-2.437-1.981 0-.609-1.523-17.065-.457-22.55.305-1.524-4.112-12.8-4.112-12.8s-.913-8.38-.152-10.057c.762-1.676 10.204-.152 10.204-.152z" fill="#799FCD"/><path d="M38.994 104.384c-1.37 0-2.437-1.219-2.59-1.981 0-.609-1.522-17.066-.456-22.55.304-1.677-4.112-12.8-4.112-12.8s0-.305-.152-.915l4.264-.914s-.914 1.524 0 4.571c.914 3.048 1.066 9.143 1.066 10.057.152.914-1.066 1.22-.762 7.771.61 5.333.457 13.561 2.742 16.761z" fill="#5A8AC3"/><path d="M21.48 97.528s1.675 2.285 1.827 2.742c.152.457 2.437 4.114 2.589 4.724.152.457 0 .914-.457 1.371-.305.305-1.828.914-2.741.61-.914-.305-2.437-1.067-3.198-1.981-.762-.762-1.676-3.2-1.676-3.2s-.914-1.067-1.218-1.676c-.305-.457-.914-1.219-1.066-1.98 0-.763-.153-1.22.609-1.83.61-.457 5.33 1.22 5.33 1.22z" fill="#2F2F2F"/><path d="M21.48 97.07s.913 2.59 1.066 3.048c0 .457-1.067.914-2.285.762-1.066-.153-1.523-1.22-1.828-1.524-.304-.305-1.675-2.59-1.37-3.352.304-.762 4.416 1.066 4.416 1.066z" fill="#FFAE75"/><path d="M36.252 58.063s.305 3.504.305 4.876c.152 1.371.152 3.352.152 3.352l-2.589 3.352s-1.523 1.371-3.96 13.409c-1.98 3.81-8.072 14.932-8.072 14.932s-1.827 1.829-3.807.762c-1.828-.914-2.437-2.285-2.437-2.59 0-.762 3.96-10.666 4.57-12.19.456-1.371 2.588-4.876 2.588-4.876s0-5.333-.152-7.009c-.305-3.2-3.046-11.276-2.132-12.8.914-1.98 15.534-1.218 15.534-1.218z" fill="#799FCD"/><path d="M16.758 97.07l-.304-.152c3.046-10.361 5.33-13.409 6.7-15.085.458-.61.762-1.067.915-1.524 1.675-4.57-.457-12.647-.914-14.323-1.066-3.657-.61-6.247-.61-6.247h.305s-.457 2.438.61 6.095c.456 1.676 2.74 9.904.913 14.475-.152.61-.609 1.067-1.066 1.676-1.218 1.829-3.503 4.724-6.549 15.085z" fill="#5A8AC3"/><path d="M19.804 58.672s2.437 2.59 6.092 3.048c7.615.762 15.687-2.895 16.6-4.114 0 0-.913-7.771-.913-11.428 0-3.657-.305-9.295 0-12.952.304-3.657.304-7.924-2.133-11.733-1.523-2.285-6.396-.152-7.767-.305-1.523-.152-3.503-1.37-5.482.305-2.133 1.676-6.092 3.2-7.006 5.638-1.066 2.743-.762 6.4 1.066 14.628 2.132 8.99-.457 16.913-.457 16.913z" fill="#148B2E"/><path d="M35.186 21.798c0 1.524.305 2.133 0 2.59-.305.457-2.894 1.067-3.96.61-.304-.153-.761-.305-1.066-.457-2.132-1.067-2.589-1.981-2.893-2.438-.305-.458 0-.915 0-.915s1.675-2.133 1.37-3.961c0-.457-.152-1.372-.152-2.438 0-1.22-.152-2.438-.152-2.438s.913-1.981 1.827-1.829c.914.153 5.178 4.724 5.178 4.724l-.304 3.657c0 1.066-.153 1.98-.153 2.59.305.152.305.305.305.305z" fill="#FFAE75"/><path d="M35.338 18.903c0 1.067-.152 1.98-.152 2.59-.305 0-.761-.152-1.37-.304-2.742-1.067-3.504-.915-4.265-.305-.761.61-.457 2.59.61 3.657-2.133-1.067-2.59-1.981-2.895-2.438-.304-.457 0-.915 0-.915s1.676-2.133 1.371-3.961c0-.457-.152-1.372-.152-2.438 3.198-.762 5.178-.305 5.178-.305l1.675 4.419z" fill="url(#paint1_linear_222_59403)"/><path d="M29.399 12.35s.152 4.572.609 5.638c.457.915 3.655 3.505 6.853 3.048.914-.457 2.133-2.743 2.285-4.876.152-2.133 0-2.895 0-3.047 0-.153.609-1.372.609-1.981-.152-.61-.305-3.81-1.37-5.333-1.067-1.372-4.265-2.286-7.006-1.22-2.59 1.22-1.98 7.772-1.98 7.772z" fill="#FFAE75"/><path d="M30.465 14.027s.304-1.829-.914-2.133c-1.218-.305-1.066 1.676-1.066 1.676l.304 3.2v.457s-1.218-2.286-1.523-3.048c-.456-.762-.609-1.066-.761-1.828-.152-.762-.761-4.267-.61-5.486.153-1.219 2.285-3.047 3.808-3.2.762-.914 2.132-1.219 3.655-1.37 1.371 0 2.437 0 4.265 1.218 1.675 1.371 1.675 2.438 1.827 2.743.152.305.305 1.828.305 1.828l-.153-.762s-.609.458-2.74.305c-2.133-.152-3.2-1.066-3.2-1.066s.458 1.523.306 1.98c-.153.61-.457 2.286-.457 2.286s-1.066.61-1.371.914c-.305.305-.457.915-.457.915l-.152 1.523-1.066-.152z" fill="#302E2F"/><path d="M39.755 7.932l-.305.305s-5.635 1.676-6.091 1.828c-.305 0-.762.305-1.371.457a8.495 8.495 0 01-3.198.61l-2.59.152s-.76-2.438-.456-4.723c.304-1.829 2.284-3.353 4.721-3.962.61-.152 1.218-.305 1.828-.305 3.046-.305 5.178 1.067 6.244 2.438 1.066 1.676 1.218 3.2 1.218 3.2z" fill="#3C6597"/><path d="M31.988 10.675a8.493 8.493 0 01-3.198.61l-2.59.152s-.76-2.438-.456-4.724c.304-1.829 2.284-3.352 4.721-3.962-.61.305-2.437.762-1.98 4.42.61 2.894 2.742 3.351 3.503 3.504z" fill="#4D75A6"/><path d="M31.988 10.675s4.416 3.809 5.94 2.285c1.065-1.066 3.807-2.133 4.873-1.828l1.218.305s.305 0 .153-.305c0-.305-4.57-3.2-4.57-3.2s-1.522-1.829-7.614 2.743z" fill="#5A8AC3"/><path d="M29.856 12.96s-.61-1.676-1.828-1.066c-1.218.61.61 3.961 1.37 3.961.762 0 .61-.762.61-.762s-.914-1.371-.152-2.133z" fill="url(#paint2_linear_222_59403)"/><path d="M21.023 49.682s-1.067-1.98-1.371-5.942c-.457-3.962-1.523-16 .152-17.676 1.676-1.676 4.112 0 4.874 1.677.761 1.676 1.218 10.36 1.066 13.256-.152 2.895 0 5.028-.762 6.4-.609 1.676-1.675 2.59-3.96 2.285z" fill="#FFAE75"/><path d="M21.175 25.302c-.914 0-2.59.915-2.59 4.115 0 3.657.458 7.161.458 8.38.913.457 2.589.61 4.112.457 1.523-.152 2.893-.457 2.893-.61 0-.152-.304-6.399-.913-8.99-.61-2.59-2.894-3.352-3.96-3.352z" fill="#1D9F3A"/><path d="M69.3 104.232l2.742 1.524v4.723l-2.741-1.676v-4.571z" fill="#A25900"/><path d="M63.057 105.908c0-1.981-1.371-4.266-3.046-5.333-.762-.457-1.523-.457-2.132-.305l-1.371.762.457.914v.305c0 1.981 1.37 4.267 3.046 5.333.152.152.304.152.457.305l.456.762 1.219-.762c.61-.457.914-1.067.914-1.981z" fill="#3B4549"/><path d="M55.746 103.013c0 1.981 1.371 4.266 3.046 5.333 1.676.914 3.046.152 3.046-1.676 0-1.981-1.37-4.267-3.046-5.333-1.675-.914-3.046-.153-3.046 1.676z" fill="#5C6467"/><path d="M61.229 106.975c0-1.981-1.37-4.267-3.046-5.333-.761-.458-1.523-.458-2.132-.305l-1.37.762.456.914v.305c0 1.981 1.37 4.266 3.046 5.333.152.152.305.152.457.305l.457.761 1.218-.761c.61-.458.914-1.067.914-1.981z" fill="#3B4549"/><path d="M53.919 104.08c0 1.98 1.37 4.266 3.046 5.333 1.675.914 3.045.152 3.045-1.676 0-1.981-1.37-4.267-3.045-5.334-1.676-1.066-3.046-.152-3.046 1.677z" fill="#5C6467"/><path d="M60.772 110.632v3.047l-1.523.914-4.417-11.123 3.046.609 2.894 6.553z" fill="#CE7400"/><path d="M59.25 111.546v3.047l-6.093-4.419v-5.79l3.046.61 3.046 6.552z" fill="#EDA600"/><path d="M53.005 106.975l7.615-4.419v-.914l-10.966 2.59v.762l3.351 1.981z" fill="#EDA600"/><path d="M53.005 106.06l7.615-4.418-3.35-1.829-7.616 4.419 3.351 1.828z" fill="#FECB4C"/><path d="M54.376 110.936c0-1.98-1.371-4.266-3.046-5.333a2.748 2.748 0 00-2.133-.304l-1.37.761.457.915v.304c0 1.981 1.37 4.267 3.046 5.333.152.153.304.153.457.305l.456.762 1.219-.762c.61-.457.914-1.066.914-1.981z" fill="#3B4549"/><path d="M47.065 108.041c0 1.981 1.371 4.267 3.046 5.333 1.676.915 3.046.153 3.046-1.676 0-1.828-1.37-4.266-3.046-5.333-1.675-1.067-3.046-.152-3.046 1.676z" fill="#5C6467"/><path d="M52.548 112.003c0-1.981-1.37-4.266-3.046-5.333-.762-.457-1.523-.457-2.132-.305l-1.37.762.456.914v.305c0 1.981 1.37 4.266 3.046 5.333.152.152.305.152.457.305l.457.762 1.218-.762c.61-.457.914-1.067.914-1.981z" fill="#3B4549"/><path d="M45.238 109.108c0 1.981 1.37 4.266 3.046 5.333 1.675.914 3.046.152 3.046-1.676 0-1.829-1.371-4.267-3.046-5.333-1.675-1.067-3.046-.152-3.046 1.676z" fill="#5C6467"/><path d="M60.62 101.642v.914l-7.615 4.419v-.915l7.615-4.418z" fill="#CE7400"/><path d="M51.39 70.667l-1.5.263 5.899 33.617 1.5-.264-5.898-33.616z" fill="#FFC536"/><path d="M47.37 73.605c-.914 0-1.828-.305-2.437-1.067l-3.503-3.657c-.457-.457-.761-1.066-.914-1.828l-.609-3.657c-.457-2.286 1.219-5.333 3.655-6.857l7.92-4.571c1.523-.914 3.046-1.067 4.112-.457.914.457 1.523 1.371 1.827 2.438l.61 3.657c.152.61.152 1.371-.153 2.133l-1.675 6.552c-.457 1.98-1.828 3.81-3.655 4.724l-2.59 1.523c-.913.762-1.827 1.067-2.588 1.067zm6.853-20.266c-.457 0-1.066.153-1.675.457l-7.92 4.572c-1.827 1.066-3.045 3.2-2.74 4.723l.608 3.657c0 .305.153.61.305.762l3.503 3.657c.457.61 1.675.457 2.741-.153l2.59-1.523c1.37-.762 2.436-2.133 2.74-3.505l1.676-6.552c.152-.457.152-.914.152-1.219l-.61-3.657c-.152-.457-.304-.762-.608-.914-.305-.152-.61-.305-.762-.305z" fill="#5C6467"/><path d="M57.726 93.109c.761-1.22 1.675-2.134 2.741-2.743 1.066-.61 1.98-.762 2.742-.305l2.741 1.676-.305.153 11.575 7.923v4.267l-33.658 19.503v-4.266l14.164-26.208z" fill="#FECB4C"/><path d="M46.304 120.688v4.571l7.92-4.571.152-3.352 17.818-10.361v3.352l7.92-4.571v-4.572L65.95 91.433c-.761-.305-1.675-.305-2.741.304-1.066.61-1.98 1.524-2.742 2.743l-14.163 26.208z" fill="#ED9600"/><path d="M113.162 132.269l6.245-3.657-45.69-20.876v1.829l39.445 22.704z" fill="#EDA600"/><path d="M113.162 132.269l6.244-3.657 8.377 6.399-3.503 2.134-11.118-4.876zm-27.413 15.846l6.396-3.657-45.841-21.027v1.828l39.445 22.856z" fill="#EDA600"/><path d="M85.749 148.115l6.396-3.657 8.377 6.4-3.656 2.133-11.117-4.876z" fill="#EDA600"/><path d="M113.162 130.44l6.245-3.657-39.293-22.704-6.397 3.657 39.445 22.704z" fill="#FECB4C"/><path d="M113.162 130.44l6.244-3.657 8.377 6.4-3.503 2.133-11.118-4.876zm-27.413 15.847l6.396-3.657L52.7 119.774l-6.396 3.657 39.445 22.856z" fill="#FECB4C"/><path d="M85.749 146.287l6.396-3.657 8.377 6.4-3.656 2.133-11.117-4.876z" fill="#FECB4C"/><path d="M43.562 119.012l2.742 1.676v4.572l-2.742-1.524v-4.724z" fill="#EDA600"/><path d="M127.783 133.183v1.828l-3.503 2.133v-1.828l3.503-2.133zm-27.262 15.847v1.828l-3.655 2.133v-1.828l3.655-2.133z" fill="#ED9600"/><path d="M48.929 55.277l-1.948.357 2.88 15.737 1.948-.357-2.88-15.737z" fill="#5C6467"/><path d="M55.594 52.425s-.457 2.133-.457 2.438c0 .305-.457.457-.457.457s-.152.305-.61.457c-.304.153-.76.153-.76.153s-3.351-.458-3.656-1.22c-.304-.609-.914-2.59-.914-2.895 0 0-.457-1.218-2.589-3.047-2.132-1.828-4.112-5.028-4.416-6.095v-1.981s.609-.152 1.218-.457c1.066-.457 2.59-.914 2.741-.914.153.152.914.762 2.133 3.352 1.37 2.59 3.655 7.466 3.96 7.619.152.152 3.197.762 3.654 1.219.153.152.153.914.153.914z" fill="#FFAE75"/><path d="M48.74 51.206v.61s-.457-1.22-2.589-3.048c-2.132-1.829-4.112-5.028-4.416-6.095v-1.981s.609-.152 1.218-.457c-.152.152-.61.914-.457 1.676 0 .152.152.61.152.914.457 1.22 3.199 5.029 4.265 6.248a35.565 35.565 0 002.132 1.98s-.152-.152-.305.153z" fill="url(#paint3_linear_222_59403)"/><path d="M50.72 54.1l.61-.913c.152-.61.456-.914.456-.914l.305 1.218v1.067l.305.61.457.304h-1.067c0 .153-1.218-.61-1.066-1.371z" fill="#FFAE75"/><path d="M49.045 51.358s.761-.152 1.218.915c.457 1.066.762 1.98 1.066 2.285.305.305.914.61.914.61s1.066.457 1.218.61c.153.151.153.456.153.761s-.457.305-.457.152l-.61-.152s-.609 0-.76-.152c-.153-.153-1.828-1.372-2.133-1.676-.152-.458-.762-1.677-.762-2.438-.304-.762-.152-.762.153-.915zM22.85 45.72s1.827-.457 2.893.458c1.219.914 10.052 8.228 12.489 9.142.152.152 1.523.762 2.284.762.762.152 3.199 0 3.503.152.305.153 1.066 1.981 1.218 2.438.153.305 0 1.22 0 1.372 0 .152-.913.152-.913.152l-.305.61c-.152.304-1.066.152-1.066.152s-.152.152-.61.152c-.304 0-.608-.152-.608-.152s-.305.457-1.066.152c-.762-.304-.762-.762-.762-.762l-.152-.914s-1.828 0-2.742-.457c-.913-.457-1.218-1.219-1.98-1.676-.609-.457-13.402-4.571-14.315-7.771-.762-2.895 2.132-3.81 2.132-3.81z" fill="#FFAE75"/><path d="M78.286 140.497l31.221-18.133v-18.285L78.286 122.06v18.437z" fill="#C99A6B"/><path d="M78.286 140.497l-25.738-14.78v-18.438l25.738 14.781v18.437z" fill="#AE835B"/><path d="M78.286 122.06l-25.738-14.781L83.92 89.147l25.586 14.933-31.221 17.98z" fill="#87623F"/><path d="M67.168 127.393l-4.112-2.438v-11.581l4.112 2.438v11.581z" fill="#9C754E"/><path d="M67.168 115.812L98.541 97.68l-4.112-2.438-31.373 18.132 4.112 2.438z" fill="#54493E"/><path d="M52.548 107.279l25.738 14.781-13.86-7.314-11.878-7.467z" fill="#87623F"/><path d="M65.34 114.593l31.374-17.98-.305-.152-31.373 17.98.305.152z" fill="#D1A986"/><path d="M76.61 129.373l-5.482-3.047v-6.247l5.483 3.047v6.247zm-5.177-3.352l4.72 2.743v-5.333l-4.72-2.743v5.333z" fill="#87623F"/><path d="M74.479 127.393l-1.219-.61v-3.2l1.219.762v3.048z" fill="#87623F"/><path d="M75.545 125.564l-3.503-1.981 1.828-1.219 1.675 3.2z" fill="#87623F"/><path d="M78.286 121.298l31.221-17.98V84.88l-31.221 18.133v18.285z" fill="#C99A6B"/><path d="M78.286 121.298l-25.738-14.78V88.08l25.738 14.933v18.285z" fill="#AE835B"/><path d="M78.286 103.013L52.548 88.08 83.92 70.1l25.586 14.78-31.221 18.133z" fill="#E8B687"/><path d="M67.168 108.194l-4.112-2.286V94.175l4.112 2.438v11.581z" fill="#9C754E"/><path d="M67.168 96.613l31.373-18.132-4.112-2.286-31.373 17.98 4.112 2.438z" fill="#54493E"/><path d="M52.548 88.08l25.738 14.933-13.86-7.466-11.878-7.467z" fill="#87623F"/><path d="M65.34 95.547l31.374-18.133-.305-.152-31.373 18.132.305.153z" fill="#D1A986"/><path d="M76.61 110.175l-5.482-3.2v-6.248l5.483 3.2v6.248zm-5.177-3.2l4.72 2.742v-5.333l-4.72-2.742v5.333z" fill="#87623F"/><path d="M74.479 108.194l-1.219-.61v-3.2l1.219.762v3.048z" fill="#87623F"/><path d="M75.545 106.365l-3.503-1.981 1.828-1.066 1.675 3.047z" fill="#87623F"/><path fill-rule="evenodd" clip-rule="evenodd" d="M139.968 64.368c.677.676 1.353 1.353 1.353 2.029.676 0 .676 0 .676.676l.677.676.676.677c0 1.352-1.353 2.028-2.029 1.352-.676 0-1.353-.676-2.029-1.352-.676 0-.676 0-1.352-.677-.677 0-1.353-.676-2.029-1.352 0 0-.676 0-1.353-.676v-.677h.677-.677s-.676-.676 0-.676v-.676h-.676c0-.676.676-.676.676-.676h2.029c.676 0 .676 0 1.353.676h.676c.676 0 1.352 0 1.352.676z" fill="#FFAE75"/><path opacity=".1" d="M161.959 154.234c.762 4.614-15.42 8.991-28.99 11.209-13.57 2.218-15.531-2.28-16.294-6.893-.762-4.614 9.62-10.152 23.19-12.37 13.57-2.218 21.331 3.441 22.094 8.054z" fill="#000"/><path fill-rule="evenodd" clip-rule="evenodd" d="M138.616 63.016h.676l.676.676.677.676c0 .676 1.352 2.029 0 2.029-.677 0-1.353-.676-1.353-.676v-1.353c-.676-.676-.676-.676-1.352-.676 0-.676 0-1.353.676-1.353v.677h.676-.676zm-23.67 16.906c.677.677.677.677 1.353.677 0 .676 0 .676.676.676.676 1.353 2.705 2.705 3.382 3.381l2.028-2.705c0-.676 0-1.352-.676-2.705v-1.352c-.676 0-.676-.677-1.352-.677-.677-.676-.677-1.352-1.353-1.352 0 0-.676-.676-.676 0-.677.676.676 1.352.676 1.352s0 .677.676.677l-.676.676c0-.676 0-.676-.676-.676l-.677-.677s-.676 0-.676-.676 0-1.352-.676-2.029h-.676v2.029-.676c0-.676-.677-.676-.677-1.353-.676 0-.676.677-.676.677v.676h-.676v1.352s.676 0 .676.677l-.676-.677v1.353c.676 0 .676.676.676.676l.676.677z" fill="#FFAE75"/><path fill-rule="evenodd" clip-rule="evenodd" d="M154.847 148.903c0 .676.676 5.41.676 5.41-.676 1.352-1.353 2.029-2.705 1.352-1.353 0-2.705-1.352-3.382-1.352-.676-.676-4.057-2.029-6.086-2.705-1.353-.676-2.705-2.705-2.029-3.382 0-1.352 2.029-2.028 2.705-2.028 1.353.676 2.705.676 4.058.676.676.676.676.676 2.029.676.676 0 2.705-.676 2.705.676l2.029.677z" fill="#1E160D"/><path fill-rule="evenodd" clip-rule="evenodd" d="M156.199 104.269c-.676 3.381 0 6.762-.676 10.144 0 4.057.676 8.115-.676 12.173-.677.676-2.706 2.705-4.734 2.705-1.353 0-4.058-.677-4.058-1.353.676-.676-.676-2.705-.676-3.381.676-1.353 0-10.821 0-13.526v-6.762s-.677-5.41 5.41-4.734c5.41.676 5.41 4.057 5.41 4.734z" fill="#515159"/><path fill-rule="evenodd" clip-rule="evenodd" d="M155.523 127.262c-.677-2.029-.677-4.058-.677-6.087s-8.791 0-8.791 4.058c0 0 2.029 16.231.676 21.641v.676s0 2.029 2.705 3.381c1.353 1.353 4.734 2.029 6.087 0 1.352-3.381.676-16.906 0-23.669z" fill="#515159"/><path fill-rule="evenodd" clip-rule="evenodd" d="M144.026 154.989c.676.676 2.029 3.381 1.353 5.41-.677.677-1.353 1.353-2.705 1.353-.677 0-2.705-2.029-3.382-2.029-1.352 0-4.734-1.353-5.41-2.029-.676-.676-1.352-.676-2.029-1.352-.676-1.353-1.352-2.706-.676-3.382 0-.676.676-1.352 1.353-1.352 2.028.676 3.381.676 4.733.676 1.353.676 1.353.676 2.706.676.676 0 2.705 0 2.705.676l1.352 1.353z" fill="#1E160D"/><path fill-rule="evenodd" clip-rule="evenodd" d="M148.084 108.326c-.677 3.381 0 6.763-.677 10.144 0 4.058 0 8.792-1.352 12.173-.676 1.353-2.705 3.382-4.734 2.705-1.353 0-3.381-.676-4.058-1.352v-16.907c0-2.705 0-8.792.677-12.173 0 0 0-2.705 6.086-2.029 4.734.676 4.734 7.439 4.058 7.439z" fill="#626265"/><path fill-rule="evenodd" clip-rule="evenodd" d="M146.731 134.024v-6.086c0-2.029-9.468-2.029-9.468 2.029 0 0 1.353 17.583 0 22.317v1.352s-.676.677 0 2.029c.677.677 1.353 1.353 2.706 2.029 1.352 0 4.733 0 5.41-1.352 1.352-5.411 2.029-14.878 1.352-22.318zm13.526-66.274c.676 6.762 1.352 13.525-.676 14.201-.677.676-3.382 2.029-4.058 0-.676-5.41-2.705-8.791-4.058-12.85-.676-6.762-.676-7.438 1.353-8.114 2.705 0 6.086.676 7.439 6.762z" fill="#626265"/><path fill-rule="evenodd" clip-rule="evenodd" d="M143.35 64.368c-.676 0-3.382 1.353-5.41 4.734-2.029 2.029-2.029 6.763-1.353 7.439 0 2.029.676 20.965.676 22.993 0 3.382-.676 6.763 0 7.439 1.353 4.058 8.116 2.029 9.468 2.029 4.734-.676 10.821-4.057 10.144-6.086-.676-4.058-.676-21.641 0-23.67 0-2.705 2.705-12.85-.676-16.907-.676-.676-2.029-1.352-2.705-1.352-4.058.676-9.468 3.381-10.144 3.381z" fill="#7A8389"/><path fill-rule="evenodd" clip-rule="evenodd" d="M141.997 78.57c-1.352 3.381-2.705 11.497-4.734 15.554-2.028 3.382-4.734 3.382-5.41 2.705-.676 0-2.705-1.352-1.352-3.381 1.352-4.734 2.705-14.202 4.057-18.26 2.029-6.762 4.058-7.439 6.087-6.762 2.705 1.352 3.381 3.381 1.352 10.144z" fill="#93999E"/><path fill-rule="evenodd" clip-rule="evenodd" d="M140.645 47.461c0 1.353-.676 2.705-.676 3.382-.677.676-.677 1.352 0 1.352v3.381c-.677.677 0 2.03 0 3.382.676.676.676 2.029 1.352 2.029 2.029 1.352 4.058.676 6.087 0 2.028-.677 2.028-4.058 2.705-6.087 1.352-2.705 0-6.763-3.382-8.115-1.352-.676-3.381-.676-5.41-.676 0 .676-.676 1.352-.676 1.352z" fill="#FFAE75"/><path fill-rule="evenodd" clip-rule="evenodd" d="M143.35 59.634s1.353 4.058.676 5.41c0 .677 1.353 1.353 2.705 1.353 2.705.676 6.087-.677 4.734-3.382 0-.676-1.352-2.028-.676-6.762 0-1.353-7.439 3.381-7.439 3.381z" fill="#FFAE75"/><path fill-rule="evenodd" clip-rule="evenodd" d="M150.789 44.756c-2.705-2.029-6.763-2.029-8.792.676-1.352 1.353-1.352 2.706-1.352 2.706-.676.676 1.352.676 1.352 3.38 2.705 12.174 8.116 8.116 8.792 7.44 1.353-3.381 2.029-2.705 2.705-4.734 1.353-3.381 2.029-6.763-2.705-9.468z" fill="#60573A"/><path fill-rule="evenodd" clip-rule="evenodd" d="M144.026 56.253c0 .676-.676 2.029-.676 2.029-.676-.677-1.353-1.353-.676-2.706 0-.676.676-2.028 1.352-2.028s.676 1.352 0 2.705z" fill="#FFAE75"/><path fill-rule="evenodd" clip-rule="evenodd" d="M130.501 96.153c-3.382-2.705-12.173-10.82-10.821-12.173 1.353-1.352 2.705-2.705 3.382-2.029 2.028.677 8.791 7.44 12.173 10.145.676 0 2.705.676 1.352 2.705-1.352 1.352-4.058 3.381-6.086 1.352zm22.317-33.813c0 .675.676 1.352 0 1.352 0 1.352-.677 2.029-1.353 2.705 0 .676-3.381 1.352-5.41 1.352-2.029 0-3.381-1.352-4.058-1.352 0 0-.676-.677-1.352-.677.676 0 2.029-2.028 3.381-2.028h.676c0 .676.677.676 1.353 1.352.676 0 2.029 0 3.381-.676 2.029-2.029 1.353-2.705 1.353-3.381.676-.677 1.352.676 2.029 1.352z" fill="#93999E"/><defs><linearGradient id="paint0_linear_222_59403" x1="44.673" y1="37.447" x2="57.774" y2="54.024" gradientUnits="userSpaceOnUse"><stop offset=".122" stop-color="#FCA4B5"/><stop offset=".99" stop-color="#FFADB7"/></linearGradient><linearGradient id="paint1_linear_222_59403" x1="31.197" y1="19.189" x2="35.344" y2="24.436" gradientUnits="userSpaceOnUse"><stop offset=".122" stop-color="#DE9663"/><stop offset=".99" stop-color="#FFADB7"/></linearGradient><linearGradient id="paint2_linear_222_59403" x1="29.963" y1="13.738" x2="27.709" y2="14.119" gradientUnits="userSpaceOnUse"><stop offset=".122" stop-color="#FFAE75"/><stop offset="1" stop-color="#D39061"/></linearGradient><linearGradient id="paint3_linear_222_59403" x1="45.693" y1="46.281" x2="51.546" y2="53.686" gradientUnits="userSpaceOnUse"><stop offset=".122" stop-color="#FCA4B5"/><stop offset=".99" stop-color="#FFADB7"/></linearGradient></defs></svg>