<svg width="120" height="161" fill="none" xmlns="http://www.w3.org/2000/svg"><g clip-path="url(#clip0)" fill-rule="evenodd" clip-rule="evenodd"><path opacity=".1" d="M24.262 145.14L0 130.702l7.452-4.15 2.88-1.694 13.168 7.58.254-.127 1.61.931v-1.863L81.51 98.944l11.348 6.563-68.596 39.633z" fill="#000"/><path d="M7.41 122.826v9.908l-1.863 1.059v-9.866l1.863-1.101z" fill="#FCC53E"/><path d="M5.547 123.927v9.866l-1.524-.847v-9.909l1.524.89z" fill="#DC9A3D"/><path d="M71.01 20.737v30.826l-1.864 1.1V21.838l1.863-1.101z" fill="#FCC53E"/><path d="M69.146 21.838v30.825l-1.524-.889V20.95l1.524.889z" fill="#DC9A3D"/><path d="M69.146 21.838l-1.524-.89 1.863-1.058 1.524.847-1.863 1.1z" fill="#FCE05E"/><path d="M88.92 31.11v30.827l-1.863 1.058V32.17l1.863-1.058z" fill="#FCC53E"/><path d="M87.057 32.17v30.825l-1.524-.847V31.323l1.524.846z" fill="#DC9A3D"/><path d="M87.057 32.17l-1.524-.847 1.905-1.101 1.525.889-1.906 1.058z" fill="#FCE05E"/><path d="M88.963 29.205v1.906l-1.906 1.058v-1.863l1.906-1.1z" fill="#FCC53E"/><path d="M87.057 30.306v1.863L67.622 20.95v-1.864l19.435 11.221z" fill="#DC9A3D"/><path d="M87.057 30.306l-19.435-11.22 1.863-1.101 19.478 11.22-1.906 1.101z" fill="#FCE05E"/><path d="M71.01 86.157v9.908l-1.864 1.059v-9.866l1.863-1.101z" fill="#FCC53E"/><path d="M69.146 87.258v9.866l-1.524-.847v-9.909l1.524.89z" fill="#DC9A3D"/><path d="M69.146 87.258l-1.524-.89 1.863-1.1 1.524.889-1.863 1.1z" fill="#FCE05E"/><path d="M88.92 96.53v9.867l-1.863 1.101v-9.909l1.863-1.058z" fill="#FCC53E"/><path d="M87.057 97.59v9.908l-1.524-.89V96.7l1.524.89z" fill="#DC9A3D"/><path d="M87.057 97.59l-1.524-.89 1.905-1.058 1.525.889-1.906 1.058z" fill="#FCE05E"/><path d="M88.963 94.625v1.906l-1.906 1.058v-1.863l1.906-1.1z" fill="#FCC53E"/><path d="M87.057 95.726v1.863L67.622 86.37v-1.864l19.435 11.221z" fill="#DC9A3D"/><path d="M87.057 95.726l-19.435-11.22 1.863-1.102 19.478 11.221-1.906 1.101z" fill="#FCE05E"/><path d="M87.057 95.726v1.863l-61.694 35.653v-1.863l61.694-35.653z" fill="#FCC53E"/><path d="M25.363 131.379v1.863L5.928 122.021v-1.863l19.435 11.221z" fill="#DC9A3D"/><path d="M25.363 131.379L5.928 120.158l61.694-35.653 19.435 11.221-61.694 35.653z" fill="#FCE05E"/><path d="M25.363 133.242v9.908l-1.863 1.059v-9.866l1.863-1.101z" fill="#FCC53E"/><path d="M23.5 134.343v9.866l-1.524-.847v-9.908l1.524.889z" fill="#DC9A3D"/><path d="M23.5 134.343l-1.524-.889 1.863-1.101 1.524.889-1.863 1.101z" fill="#FCE05E"/><path d="M25.363 131.379v1.863l-1.863 1.101v-1.905l1.863-1.059z" fill="#FCC53E"/><path d="M23.5 132.438v1.905L4.065 123.122v-1.905L23.5 132.438z" fill="#DC9A3D"/><path d="M23.5 132.438L4.065 121.217l1.863-1.059 19.435 11.221-1.863 1.059z" fill="#FCE05E"/><path d="M71.01 53.468v30.826l-1.864 1.058V54.526l1.863-1.058z" fill="#FCC53E"/><path d="M69.146 54.526v30.826l-1.524-.847V53.68l1.524.846z" fill="#DC9A3D"/><path d="M69.146 54.526l-1.524-.846 1.863-1.101 1.524.889-1.863 1.058z" fill="#FCE05E"/><path d="M88.92 63.8v30.825l-1.863 1.101V64.901L88.92 63.8z" fill="#FCC53E"/><path d="M87.057 64.9v30.826l-1.524-.889V64.011l1.524.89z" fill="#DC9A3D"/><path d="M87.057 64.9l-1.524-.889 1.905-1.1 1.525.889-1.906 1.1z" fill="#FCE05E"/><path d="M88.963 61.937V63.8l-1.906 1.1v-1.905l1.906-1.058z" fill="#FCC53E"/><path d="M87.057 62.995v1.906L67.622 53.68v-1.906l19.435 11.221z" fill="#DC9A3D"/><path d="M87.057 62.995l-19.435-11.22 1.863-1.06 19.478 11.221-1.906 1.06z" fill="#FCE05E"/><path d="M70.84 101.951h-3.938l-5.335-3.091 1.947-1.144 7.326 4.235z" fill="#BDB751"/><path d="M70.84 101.951l11.771-6.818v-8.468L70.84 93.482v8.469z" fill="#DFAD61"/><path d="M70.84 101.951l-11.814-6.818v-8.468l11.814 6.817v8.469z" fill="#B38052"/><path d="M70.84 93.482l-11.814-6.817L70.84 79.89l11.771 6.775-11.771 6.817z" fill="#E2BB84"/><path d="M65.759 95.896l-1.906-1.101V89.46l1.906 1.1v5.336z" fill="#9D7753"/><path d="M76.937 83.404l-1.27-.72 1.27.72z" fill="#EBF0FA"/><path d="M65.759 90.56l-1.906-1.1.381-.212 1.906 1.1-.381.212zm5.08-2.921v-2.202l4.828-2.752 1.27.72.593.338-6.69 3.896z" fill="#F0CBA5"/><path d="M59.026 86.665l11.814 6.817-6.352-3.387-5.462-3.43z" fill="#8A6547"/><path d="M64.87 90.052l11.813-6.817-.127-.042-11.814 6.775.127.084z" fill="#8D5A2F"/><path d="M55.512 110.8h-3.938l-5.335-3.091 1.947-1.143 7.326 4.234z" fill="#BDB751"/><path d="M55.512 110.8l11.771-6.817v-8.469l-11.771 6.818v8.468z" fill="#DFAD61"/><path d="M55.512 110.8l-11.814-6.817v-8.469l11.814 6.818v8.468z" fill="#B38052"/><path d="M55.512 102.332l-11.814-6.817 11.814-6.775 11.771 6.775-11.771 6.817z" fill="#E2BB84"/><path d="M50.43 104.745l-1.905-1.058v-5.378l1.906 1.101v5.335z" fill="#9D7753"/><path d="M62.202 92.593l-1.863-1.059 1.863 1.059z" fill="#C9A684"/><path d="M50.43 99.41l-.931-.55-.974-.55.381-.213 1.906 1.101-.381.212zm5.082-2.922v-2.16l4.827-2.794 1.863 1.059-6.69 3.895z" fill="#F0CBA5"/><path d="M43.698 95.514l11.814 6.818-6.394-3.388-5.42-3.43z" fill="#8A6547"/><path d="M49.541 98.902l11.814-6.775-.127-.085-11.814 6.775.127.085z" fill="#8D5A2F"/><path d="M40.141 119.65h-3.895l-5.378-3.091 1.99-1.143 7.283 4.234z" fill="#BDB751"/><path d="M40.141 119.65l11.814-6.817v-8.426l-11.814 6.774v8.469z" fill="#DFAD61"/><path d="M40.141 119.65l-11.771-6.817v-8.426l11.771 6.774v8.469z" fill="#B38052"/><path d="M40.141 111.181l-11.771-6.774 11.771-6.818 11.814 6.818-11.814 6.774z" fill="#E2BB84"/><path d="M35.102 113.595l-1.905-1.059v-5.377l1.905 1.101v5.335z" fill="#9D7753"/><path d="M46.874 101.485l-.932-.551.932.551z" fill="#C9A684"/><path d="M35.102 108.26l-1.143-.635-.762-.466.381-.212 1.905 1.101-.38.212zm5.04-2.922v-2.159l4.869-2.795.931.55.932.551-6.733 3.853z" fill="#F0CBA5"/><path d="M28.37 104.407l11.771 6.774-6.351-3.387-5.42-3.387z" fill="#8A6547"/><path d="M34.213 107.752l11.814-6.775-.17-.085-11.77 6.817.126.043z" fill="#8D5A2F"/><path d="M24.813 128.5h-3.896l-11.77-6.817 3.895-2.245v2.245l11.771 6.817z" fill="#BDB751"/><path d="M24.813 128.5l11.814-6.818v-8.426l-11.814 6.775v8.469z" fill="#DFAD61"/><path d="M24.813 128.5l-11.771-6.818v-8.426l11.771 6.775v8.469z" fill="#B38052"/><path d="M24.813 120.031l-11.771-6.775 11.771-6.817 11.814 6.817-11.814 6.775z" fill="#E2BB84"/><path d="M19.774 122.445l-1.905-1.059v-5.377l1.905 1.1v5.336z" fill="#9D7753"/><path d="M29.894 109.361l-.254-.127.254.127zm-10.12 7.748l-1.905-1.1 1.905 1.1z" fill="#C9A684"/><path d="M19.774 117.109l-1.905-1.1.38-.212 1.906 1.101-.38.211zm5.039-2.921v-2.16l4.827-2.794.254.127 1.652.974-6.733 3.853z" fill="#F0CBA5"/><path d="M13.042 113.256l11.771 6.775-6.351-3.387-5.42-3.388z" fill="#8A6547"/><path d="M18.885 116.601l11.771-6.775-.127-.084-11.771 6.817.127.042z" fill="#8D5A2F"/><path d="M70.84 93.059l11.77-6.819v-8.468L70.84 84.59v8.469z" fill="#DFAD61"/><path d="M70.84 93.059L59.026 86.24v-8.468L70.84 84.59v8.469z" fill="#B38052"/><path d="M70.84 84.59l-11.814-6.817 11.814-6.775 11.771 6.775L70.84 84.59z" fill="#E2BB84"/><path d="M65.759 87.004l-1.906-1.059v-5.377l1.906 1.1v5.336z" fill="#9D7753"/><path d="M77.022 74.555l-1.355-.762 1.355.762z" fill="#EBF0FA"/><path d="M65.759 81.668l-1.694-.974-.212-.127 11.814-6.774 1.355.762.508.296-11.771 6.817z" fill="#F0CBA5"/><path d="M65.759 81.668l-1.906-1.1.212.127 1.694.973z" fill="#BD9E7B"/><path d="M59.026 77.773L70.84 84.59l-6.352-3.387-5.462-3.43z" fill="#8A6547"/><path d="M64.87 81.16l11.813-6.775-.127-.084-11.814 6.775.127.084z" fill="#8D5A2F"/><path d="M55.512 101.908l11.771-6.817v-8.426L55.512 93.44v8.468z" fill="#DFAD61"/><path d="M55.512 101.908l-11.814-6.817v-8.426l11.814 6.775v8.468z" fill="#B38052"/><path d="M55.512 93.44l-11.814-6.775 11.814-6.817 11.771 6.817-11.771 6.775z" fill="#E2BB84"/><path d="M50.43 95.853l-1.905-1.058v-5.378l1.906 1.101v5.335z" fill="#9D7753"/><path d="M62.202 83.743l-1.863-1.1 1.863 1.1z" fill="#C9A684"/><path d="M50.43 90.518l-.635-.381-1.27-.72 11.814-6.775 1.863 1.101-11.771 6.775z" fill="#F0CBA5"/><path d="M50.43 90.518l-1.905-1.1 1.27.719.636.381z" fill="#BD9E7B"/><path d="M43.698 86.665l11.814 6.775-6.394-3.388-5.42-3.387z" fill="#8A6547"/><path d="M49.541 90.01l11.814-6.775-.127-.085-11.814 6.818.127.042z" fill="#8D5A2F"/><path d="M40.141 110.758l11.814-6.817v-8.427L40.14 102.29v8.469z" fill="#DFAD61"/><path d="M40.141 110.758l-11.771-6.817v-8.427l11.771 6.775v8.469z" fill="#B38052"/><path d="M40.141 102.289L28.37 95.514l11.771-6.817 11.814 6.817-11.814 6.775z" fill="#E2BB84"/><path d="M35.102 104.703l-1.905-1.059v-5.377l1.905 1.1v5.336z" fill="#9D7753"/><path d="M46.874 92.593l-.932-.55.932.55zm-11.772 6.775l-1.312-.762 1.312.762z" fill="#C9A684"/><path d="M35.102 99.368l-1.312-.762-.593-.34 11.814-6.774.931.55.932.55-11.772 6.776z" fill="#F0CBA5"/><path d="M35.102 99.368l-1.905-1.101.593.339 1.312.762z" fill="#BD9E7B"/><path d="M28.37 95.514l11.771 6.775-6.351-3.387-5.42-3.388z" fill="#8A6547"/><path d="M34.213 98.86l11.814-6.775-.17-.085-11.77 6.817.126.043z" fill="#8D5A2F"/><path d="M24.813 119.608l11.814-6.818v-8.426l-11.814 6.775v8.469z" fill="#DFAD61"/><path d="M24.813 119.608l-11.771-6.818v-8.426l11.771 6.775v8.469z" fill="#B38052"/><path d="M24.813 111.139l-11.771-6.775 11.771-6.817 11.814 6.817-11.814 6.775z" fill="#E2BB84"/><path d="M19.774 113.595l-1.905-1.101v-5.335l1.905 1.058v5.378z" fill="#9D7753"/><path d="M30.233 100.638l-.593-.296.593.296zm-10.459 7.579l-1.905-1.058 1.905 1.058z" fill="#C9A684"/><path d="M19.774 108.217l-1.905-1.058 11.771-6.817.593.296 1.313.805-11.772 6.774z" fill="#F0CBA5"/><path d="M13.042 104.364l11.771 6.775-6.351-3.387-5.42-3.388z" fill="#8A6547"/><path d="M18.885 107.709l11.771-6.775-.127-.084-11.771 6.817.127.042z" fill="#8D5A2F"/><path d="M87.057 62.995v1.906l-61.694 35.652v-1.905l61.694-35.653z" fill="#FCC53E"/><path d="M25.363 98.648v1.905L5.928 89.333v-1.906l19.435 11.22z" fill="#DC9A3D"/><path d="M25.363 98.648L5.928 87.427l61.694-35.653 19.435 11.221-61.694 35.653z" fill="#FCE05E"/><path d="M7.452 90.18v30.825l-1.863 1.101V91.28l1.863-1.1z" fill="#FCC53E"/><path d="M5.59 91.28v30.826l-1.525-.889V90.391l1.524.89z" fill="#DC9A3D"/><path d="M5.59 91.28l-1.525-.889 1.863-1.059 1.524.847L5.59 91.28z" fill="#FCE05E"/><path d="M25.363 100.553v30.826l-1.863 1.059v-30.826l1.863-1.059z" fill="#FCC53E"/><path d="M23.5 101.612v30.826l-1.524-.847v-30.826l1.524.847z" fill="#DC9A3D"/><path d="M23.5 101.612l-1.524-.847 1.863-1.1 1.524.888-1.863 1.059z" fill="#FCE05E"/><path d="M25.363 98.648v1.905l-1.863 1.059v-1.863l1.863-1.101z" fill="#FCC53E"/><path d="M23.5 99.749v1.863L4.065 90.391v-1.863L23.5 99.748z" fill="#DC9A3D"/><path d="M23.5 99.749L4.065 88.528l1.863-1.1 19.435 11.22-1.863 1.1z" fill="#FCE05E"/><path d="M70.84 68.584h-3.938l-5.335-3.09 1.947-1.144 7.326 4.234z" fill="#BDB751"/><path d="M70.84 68.584l11.771-6.817V53.3L70.84 60.116v8.468z" fill="#DFAD61"/><path d="M70.84 68.584l-11.814-6.817V53.3l11.814 6.817v8.468z" fill="#B38052"/><path d="M70.84 60.116l-11.814-6.817 11.814-6.775 11.771 6.775-11.771 6.817z" fill="#E2BB84"/><path d="M65.759 62.53l-1.906-1.102v-5.335l1.906 1.101v5.335z" fill="#9D7753"/><path d="M65.759 57.194l-1.906-1.1.381-.212 1.906 1.1-.381.212zm5.08-2.922v-2.201l4.828-2.795 1.863 1.1-6.69 3.897z" fill="#F0CBA5"/><path d="M59.026 53.299l11.814 6.817-6.352-3.388-5.462-3.43z" fill="#8A6547"/><path d="M64.87 56.686l11.813-6.817-.127-.042L64.742 56.6l.127.085z" fill="#8D5A2F"/><path d="M55.512 77.434h-3.938l-11.772-6.817 3.896-2.244v2.244l11.814 6.817z" fill="#BDB751"/><path d="M55.512 77.434l11.771-6.817v-8.469l-11.771 6.818v8.468z" fill="#DFAD61"/><path d="M55.512 77.434l-11.814-6.817v-8.469l11.814 6.818v8.468z" fill="#B38052"/><path d="M55.512 68.966l-11.814-6.818 11.814-6.775 11.771 6.775-11.771 6.818z" fill="#E2BB84"/><path d="M50.43 71.379l-1.905-1.1v-5.336l1.906 1.1v5.336z" fill="#9D7753"/><path d="M50.43 66.044l-1.905-1.101 1.906 1.1z" fill="#C9A684"/><path d="M50.43 66.044l-1.905-1.101.381-.212 1.906 1.101-.381.212z" fill="#F0CBA5"/><path d="M62.202 59.227l-1.694-.974 1.694.974z" fill="#C9A684"/><path d="M55.512 63.122V60.92l4.827-2.752.17.085 1.693.974-6.69 3.895z" fill="#F0CBA5"/><path d="M43.698 62.148l11.814 6.818-6.394-3.388-5.42-3.43z" fill="#8A6547"/><path d="M49.541 65.536l11.814-6.818-.127-.042-11.814 6.775.127.085z" fill="#8D5A2F"/><path d="M24.813 95.133h-3.896l-11.77-6.817 3.895-2.244v2.244l11.771 6.817z" fill="#BDB751"/><path d="M24.813 95.133l11.814-6.817V79.89l-11.814 6.775v8.468z" fill="#DFAD61"/><path d="M24.813 95.133l-11.771-6.817V79.89l11.771 6.775v8.468z" fill="#B38052"/><path d="M24.813 86.665L13.042 79.89l11.771-6.817 11.814 6.817-11.814 6.775z" fill="#E2BB84"/><path d="M19.774 89.078L17.87 88.02v-5.378l1.905 1.101v5.335z" fill="#9D7753"/><path d="M30.995 76.63l-1.355-.763 1.355.763z" fill="#FCEA86"/><path d="M19.774 83.743l-.423-.254-1.482-.847.38-.212 1.906 1.101-.38.212zm5.039-2.921v-2.16l4.827-2.795 1.355.763.55.338-6.732 3.853z" fill="#F0CBA5"/><path d="M19.774 83.743l-1.905-1.1 1.482.846.423.254z" fill="#BD9E7B"/><path d="M13.042 79.89l11.771 6.775-6.351-3.388-5.42-3.387z" fill="#8A6547"/><path d="M18.885 83.235l11.771-6.775-.127-.084-11.771 6.774.127.085z" fill="#8D5A2F"/><path d="M70.84 59.692l11.771-6.817v-8.468L70.84 51.224v8.468z" fill="#DFAD61"/><path d="M70.84 59.692l-11.814-6.817v-8.468l11.814 6.817v8.468z" fill="#B38052"/><path d="M70.84 51.224l-11.814-6.817 11.814-6.775 11.771 6.775-11.771 6.817z" fill="#E2BB84"/><path d="M65.759 53.637l-1.906-1.1V47.2l1.906 1.101v5.335z" fill="#9D7753"/><path d="M76.937 41.146l-1.27-.72 1.27.72z" fill="#FEFEFE"/><path d="M65.759 48.302l-1.906-1.1 11.814-6.776 1.27.72.593.339-11.771 6.817z" fill="#F0CBA5"/><path d="M59.026 44.407l11.814 6.817-6.352-3.388-5.462-3.43z" fill="#8A6547"/><path d="M64.87 47.794l11.813-6.817-.127-.043-11.814 6.775.127.085z" fill="#8D5A2F"/><path d="M55.512 68.542l11.771-6.817v-8.469l-11.771 6.818v8.468z" fill="#DFAD61"/><path d="M55.512 68.542l-11.814-6.817v-8.469l11.814 6.818v8.468z" fill="#B38052"/><path d="M55.512 60.073l-11.814-6.817 11.814-6.775 11.771 6.775-11.771 6.817z" fill="#E2BB84"/><path d="M50.43 62.487l-1.905-1.059v-5.377l1.906 1.1v5.336z" fill="#9D7753"/><path d="M62.202 50.335l-1.863-1.059 1.863 1.059z" fill="#C9A684"/><path d="M50.43 57.152l-1.905-1.101 11.814-6.775 1.863 1.059-11.771 6.817z" fill="#F0CBA5"/><path d="M43.698 53.256l11.814 6.818-6.394-3.388-5.42-3.43z" fill="#8A6547"/><path d="M49.541 56.644l11.814-6.775-.127-.085-11.814 6.775.127.085z" fill="#8D5A2F"/><path d="M24.813 86.241l11.814-6.817v-8.426l-11.814 6.775v8.468z" fill="#DFAD61"/><path d="M24.813 86.241l-11.771-6.817v-8.426l11.771 6.775v8.468z" fill="#B38052"/><path d="M24.813 77.773l-11.771-6.775 11.771-6.817 11.814 6.817-11.814 6.775z" fill="#E2BB84"/><path d="M19.774 80.186l-1.905-1.058V73.75l1.905 1.101v5.335z" fill="#9D7753"/><path d="M30.953 67.695l-1.313-.72 1.313.72z" fill="#FEFEFE"/><path d="M19.774 74.851l-.635-.339-1.27-.762 11.771-6.775 1.313.72.593.381-11.772 6.775z" fill="#F0CBA5"/><path d="M19.774 74.851l-1.905-1.1 1.27.761.635.34z" fill="#BD9E7B"/><path d="M13.042 70.998l11.771 6.775-6.351-3.388-5.42-3.387z" fill="#8A6547"/><path d="M18.885 74.343l11.771-6.775-.127-.084L18.758 74.3l.127.042z" fill="#8D5A2F"/><path d="M87.057 30.306v1.863L25.363 67.822V65.96l61.694-35.653z" fill="#FCC53E"/><path d="M25.363 65.96v1.862L5.928 56.602v-1.864L25.363 65.96z" fill="#DC9A3D"/><path d="M25.363 65.96L5.928 54.737l61.694-35.653 19.435 11.221L25.363 65.96z" fill="#FCE05E"/><path d="M7.452 57.49v30.826L5.59 89.375V58.549l1.863-1.059z" fill="#FCC53E"/><path d="M5.59 58.55v30.825l-1.525-.847V57.702l1.524.847z" fill="#DC9A3D"/><path d="M5.59 58.55l-1.525-.848 1.863-1.1 1.524.889-1.863 1.058z" fill="#FCE05E"/><path d="M25.363 67.822v30.826l-1.863 1.1V68.924l1.863-1.1z" fill="#FCC53E"/><path d="M23.5 68.923V99.75l-1.524-.89V68.035l1.524.89z" fill="#DC9A3D"/><path d="M23.5 68.923l-1.524-.89 1.863-1.1 1.524.89-1.863 1.1z" fill="#FCE05E"/><path d="M25.363 65.96v1.862L23.5 68.923v-1.905l1.863-1.059z" fill="#FCC53E"/><path d="M23.5 67.018v1.905L4.065 57.703v-1.906L23.5 67.017z" fill="#DC9A3D"/><path d="M23.5 67.018L4.065 55.797l1.863-1.059L25.363 65.96 23.5 67.018z" fill="#FCE05E"/><path d="M70.84 35.81h-3.938l-5.335-3.09 1.947-1.143 7.326 4.234z" fill="#BDB751"/><path d="M70.84 35.811l11.771-6.817v-8.427L70.84 27.343v8.469z" fill="#DFAD61"/><path d="M70.84 35.811l-11.814-6.817v-8.427l11.814 6.775v8.469z" fill="#B38052"/><path d="M70.84 27.342l-11.814-6.774L70.84 13.75l11.771 6.817-11.771 6.775z" fill="#E2BB84"/><path d="M65.759 29.756l-1.906-1.059V23.32l1.906 1.1v5.336z" fill="#9D7753"/><path d="M65.759 24.42l-1.906-1.1 11.814-6.775 1.863 1.1-11.771 6.776z" fill="#F0CBA5"/><path d="M59.026 20.567l11.814 6.775-6.352-3.387-5.462-3.387z" fill="#8A6547"/><path d="M64.87 23.913l11.813-6.775-.127-.085-11.814 6.817.127.043z" fill="#8D5A2F"/><path d="M55.512 44.66h-3.938l-5.335-3.09 1.947-1.144 7.326 4.235z" fill="#BDB751"/><path d="M55.512 44.66l11.771-6.817v-8.426l-11.771 6.775v8.469z" fill="#DFAD61"/><path d="M55.512 44.66l-11.814-6.817v-8.426l11.814 6.775v8.469z" fill="#B38052"/><path d="M55.512 36.192l-11.814-6.775L55.512 22.6l11.771 6.817-11.771 6.775z" fill="#E2BB84"/><path d="M50.43 38.606l-1.905-1.059v-5.378l1.906 1.101v5.336z" fill="#9D7753"/><path d="M62.202 26.495l-1.694-1.016 1.694 1.017z" fill="#C9A684"/><path d="M50.43 33.27l-.931-.55-.974-.55.381-.212 1.906 1.1-.381.212zm5.082-2.921v-2.16l4.827-2.794.17.084 1.693 1.017-6.69 3.853z" fill="#F0CBA5"/><path d="M50.43 33.27l-1.905-1.1.974.55.931.55z" fill="#BD9E7B"/><path d="M43.698 29.417l11.814 6.775-6.394-3.387-5.42-3.388z" fill="#8A6547"/><path d="M49.541 32.762l11.814-6.775-.127-.084-11.814 6.817.127.042z" fill="#8D5A2F"/><path d="M40.141 53.51h-3.895l-5.378-3.09 1.99-1.144 7.283 4.234z" fill="#BDB751"/><path d="M40.141 53.51l11.814-6.817v-8.426L40.14 45.042v8.468z" fill="#DFAD61"/><path d="M40.141 53.51L28.37 46.693v-8.426l11.771 6.775v8.468z" fill="#B38052"/><path d="M40.141 45.042L28.37 38.267l11.77-6.817 11.814 6.817-11.814 6.775z" fill="#E2BB84"/><path d="M35.102 47.498l-1.905-1.101v-5.335l1.905 1.058v5.378z" fill="#9D7753"/><path d="M46.874 35.345l-.636-.38.636.38zM35.102 42.12l-1.27-.72 1.27.72z" fill="#C9A684"/><path d="M35.102 42.12l-1.27-.72-.635-.338 11.814-6.818 1.227.72.636.381-11.772 6.775z" fill="#F0CBA5"/><path d="M35.102 42.12l-1.905-1.058.635.338 1.27.72z" fill="#BD9E7B"/><path d="M28.37 38.267l11.771 6.775-6.351-3.388-5.42-3.387z" fill="#8A6547"/><path d="M34.213 41.612l11.814-6.775-.17-.085-11.77 6.818.126.042z" fill="#8D5A2F"/><path d="M24.813 62.36h-3.896l-11.77-6.817 3.895-2.244v2.244l11.771 6.817z" fill="#BDB751"/><path d="M24.813 62.36l11.814-6.817v-8.426L24.813 53.89v8.469z" fill="#DFAD61"/><path d="M24.813 62.36l-11.771-6.817v-8.426l11.771 6.774v8.469z" fill="#B38052"/><path d="M24.813 53.891l-11.771-6.774 11.771-6.818 11.814 6.818-11.814 6.774z" fill="#E2BB84"/><path d="M19.774 56.347l-1.905-1.1V49.91l1.905 1.059v5.377z" fill="#9D7753"/><path d="M30.318 43.475l-.678-.381.678.381z" fill="#C9A684"/><path d="M19.774 50.97l-1.904-1.06 11.771-6.817.677.381 1.229.72-11.772 6.775z" fill="#F0CBA5"/><path d="M13.042 47.117l11.771 6.774-6.351-3.387-5.42-3.387z" fill="#8A6547"/><path d="M18.885 50.462l11.771-6.775-.127-.085-11.771 6.817.127.043z" fill="#8D5A2F"/><path d="M55.512 35.769l11.771-6.818v-8.426L55.512 27.3v8.469z" fill="#DFAD61"/><path d="M55.512 35.769L43.698 28.95v-8.426L55.512 27.3v8.469z" fill="#B38052"/><path d="M55.512 27.3l-11.814-6.775 11.814-6.817 11.771 6.817L55.512 27.3z" fill="#E2BB84"/><path d="M50.43 29.756l-1.905-1.101V23.32l1.906 1.058v5.378z" fill="#9D7753"/><path d="M62.202 17.604l-1.863-1.101 1.863 1.1z" fill="#FEFEFE"/><path d="M50.43 24.378l-1.905-1.058 1.906 1.058z" fill="#C9A684"/><path d="M50.43 24.378l-1.905-1.058 11.814-6.817 1.863 1.1-11.771 6.775z" fill="#F0CBA5"/><path d="M43.698 20.525L55.512 27.3l-6.394-3.387-5.42-3.388z" fill="#8A6547"/><path d="M49.541 23.87l11.814-6.775-.127-.084-11.814 6.817.127.042z" fill="#8D5A2F"/><path opacity=".1" d="M99.04 120.54c7.178 0 12.983 3.279 12.983 7.267 0 3.989-5.805 7.224-12.984 7.224s-12.984-3.235-12.984-7.224c0-3.988 5.805-7.267 12.984-7.267z" fill="#000"/><path opacity=".1" d="M107.016 115c7.179 0 12.984 3.235 12.984 7.224 0 3.988-5.805 7.267-12.984 7.267-7.18 0-12.985-3.279-12.985-7.267 0-3.989 5.806-7.224 12.985-7.224z" fill="#000"/><path d="M101.255 68.913s-1.906.266-2.437 1.95c-.532 1.684-.62 6.736-.798 7.755-.177 1.02-.576 2.083-.62 2.216-.09.088-.4.354.398 1.418.798 1.108 1.861 1.684 2.393 1.108.488-.532 1.02-4.875 1.064-6.736.089-1.861 0-7.711 0-7.711z" fill="#F6BDBE"/><path d="M89.689 91.868l.443.62c.088.045.354.355.576.31.222-.044.399-.31.399-.31s.354.355.62.355c.222 0 .443-.177.443-.177s.355 0 .488-.133l.133-.089s.398-.133.487-.31c.133-.222-.089-.886-.089-.886s.355-.798.4-1.108c.044-.177 0-.355 0-.488l-.045-.133s5.938-4.874 6.426-5.894c.31-.709-.665-1.55-1.374-2.038-.355-.222-.62-.399-.62-.399s-.532-.266-.71-.177c-.177.089-.93.665-1.728 2.038-.842 1.374-2.304 2.97-3.235 4.166-.93 1.197-2.659 3.5-2.747 3.722-.089.266.133.931.133.931z" fill="#F6BDBE"/><path d="M96.513 86.462l.355.221c1.462-1.24 2.88-2.57 3.102-3.058.31-.709-.665-1.55-1.374-2.038a20.7 20.7 0 01-.399 2.792c-.089.399-.842 1.24-1.684 2.083z" fill="#F3A4B6"/><path d="M96.513 86.462l.31.266.045-.045-.355-.221zm0 0l.31.266-.31-.266zm-.044.044l.354.266v-.044l-.31-.266-.044.044zm0 0l.31.266h.044l-.354-.266z" fill="#F3A4B6"/><path d="M96.424 86.55l.355.222-.31-.266-.044.044zm0 0l.31.266.045-.044-.355-.222z" fill="#F3A4B6"/><path d="M96.38 86.595l.355.221-.31-.266-.045.045zm0 0l.31.266.045-.045-.355-.221zm0 0l.31.266-.31-.266z" fill="#F3A4B6"/><path d="M96.336 86.639l.31.222h.044l-.31-.266-.044.044zm0 0l.31.266v-.044l-.31-.222z" fill="#F3A4B6"/><path d="M96.292 86.683l.31.222h.044l-.31-.266-.044.044zm0 0l.31.266v-.044l-.31-.222z" fill="#F3A4B6"/><path d="M96.247 86.683l.31.266h.045l-.31-.266h-.045z" fill="#F3A4B6"/><path d="M96.247 86.728l.31.221-.31-.266v.044z" fill="#F3A4B6"/><path d="M96.247 86.728l.31.265v-.044l-.31-.221zm-.044.044l.31.221h.044l-.31-.265-.044.044zm0 0l.31.266v-.045l-.31-.221z" fill="#F3A4B6"/><path d="M96.159 86.816l.31.222h.044l-.31-.266-.044.044zm0 0l.31.222-.31-.222zm-.045 0l.31.266.045-.044-.31-.222h-.045z" fill="#F3A4B6"/><path d="M96.114 86.86l.31.222-.31-.266v.044zm-.044 0l.31.266.044-.044-.31-.221h-.044z" fill="#F3A4B6"/><path d="M96.07 86.905l.31.221-.31-.266v.045z" fill="#F3A4B6"/><path d="M96.07 86.905l.266.221h.044l-.31-.221z" fill="#F3A4B6"/><path d="M96.026 86.95l.31.22v-.044l-.266-.221-.044.044z" fill="#F3A4B6"/><path d="M96.026 86.95l.266.22h.044l-.31-.22z" fill="#F3A4B6"/><path d="M95.981 86.95l.31.265v-.044l-.265-.222h-.045z" fill="#F3A4B6"/><path d="M95.981 86.993l.31.222-.31-.266v.044z" fill="#F3A4B6"/><path d="M95.937 86.993l.31.222h.045l-.31-.222h-.045zm0 .045l.31.221v-.044l-.31-.222v.045z" fill="#F3A4B6"/><path d="M95.937 87.038l.266.221h.044l-.31-.221z" fill="#F3A4B6"/><path d="M95.893 87.082l.31.222v-.045l-.266-.221-.044.044z" fill="#F3A4B6"/><path d="M95.893 87.082l.266.222h.044l-.31-.222zm-.045 0l.31.222-.265-.222h-.045z" fill="#F3A4B6"/><path d="M95.848 87.126l.266.222.045-.044-.31-.222v.044z" fill="#F3A4B6"/><path d="M95.804 87.126l.31.222-.266-.222h-.044z" fill="#F3A4B6"/><path d="M95.804 87.17l.266.222.044-.044-.31-.222v.045z" fill="#F3A4B6"/><path d="M95.76 87.17l.31.222-.266-.221h-.044z" fill="#F3A4B6"/><path d="M95.76 87.17l.266.222h.044l-.31-.221z" fill="#F3A4B6"/><path d="M95.76 87.215l.266.222v-.045l-.266-.221v.044z" fill="#F3A4B6"/><path d="M95.715 87.215l.266.222h.045l-.266-.222h-.045z" fill="#F3A4B6"/><path d="M95.715 87.26l.266.22v-.043l-.266-.222v.044z" fill="#F3A4B6"/><path d="M95.671 87.26l.31.22-.265-.22h-.045z" fill="#F3A4B6"/><path d="M95.671 87.304l.266.177h.044l-.31-.222v.045zm-.044 0l.31.221v-.044l-.266-.177h-.044zm0 0l.266.221h.044l-.31-.221z" fill="#F3A4B6"/><path d="M95.627 87.348l.266.222v-.045l-.266-.221v.044z" fill="#F3A4B6"/><path d="M95.583 87.348l.266.222h.044l-.266-.222h-.044z" fill="#F3A4B6"/><path d="M95.583 87.392l.266.178-.266-.222v.044zm-.045 0l.266.222.044-.044-.266-.178h-.044zm0 0l.266.222-.266-.222zm-.044.045l.266.221.044-.044-.266-.222-.044.045zm0 0l.266.221-.266-.221z" fill="#F3A4B6"/><path d="M95.45 87.48l.266.178h.044l-.266-.221-.044.044z" fill="#F3A4B6"/><path d="M95.45 87.48l.266.222v-.044l-.266-.177zm0 .045l.221.177h.044l-.265-.221v.044zm-.045 0l.266.222v-.044l-.221-.178h-.045zm0 0l.266.222-.266-.222zm-.045.045l.267.177h.044l-.266-.222-.044.044z" fill="#F3A4B6"/><path d="M95.36 87.57l.267.221v-.044l-.266-.177z" fill="#F3A4B6"/><path d="M95.317 87.614l.266.177h.044l-.266-.221-.044.044z" fill="#F3A4B6"/><path d="M95.317 87.614l.266.221v-.044l-.266-.177z" fill="#F3A4B6"/><path d="M95.272 87.614l.266.221h.044l-.265-.221h-.045z" fill="#F3A4B6"/><path d="M95.272 87.658l.266.177-.266-.221v.044z" fill="#F3A4B5"/><path d="M95.272 87.658l.222.222.044-.045-.266-.177zm-.044.045l.266.177-.222-.222-.044.044zm0 0l.222.221.044-.044-.266-.177z" fill="#F3A4B5"/><path d="M95.184 87.703l.266.221-.222-.222h-.044z" fill="#F3A4B5"/><path d="M95.184 87.747l.221.177h.045l-.266-.222v.045z" fill="#F3A4B5"/><path d="M95.14 87.747l.265.221v-.044l-.221-.177h-.045z" fill="#F3A4B5"/><path d="M95.14 87.791l.221.177h.044l-.266-.221v.044z" fill="#F3A4B5"/><path d="M95.095 87.791l.266.222v-.045l-.222-.177h-.044z" fill="#F3A4B5"/><path d="M95.095 87.835l.266.178-.266-.222v.044zm0 0l.222.178h.044l-.266-.178z" fill="#F3A4B5"/><path d="M95.05 87.835l.267.222v-.044l-.222-.178h-.044z" fill="#F3A4B5"/><path d="M95.05 87.88l.222.177h.045l-.266-.222v.045z" fill="#F3A4B5"/><path d="M95.006 87.88l.266.221v-.044l-.221-.177h-.045zm0 .044l.222.177h.044l-.266-.221v.044z" fill="#F3A4B5"/><path d="M94.962 87.924l.266.177-.221-.177h-.045z" fill="#F3A4B5"/><path d="M94.962 87.924l.222.222.044-.045-.266-.177z" fill="#F3A4B5"/><path d="M94.918 87.968l.266.178-.222-.222-.044.044zm0 0l.221.178h.045l-.266-.178zm0 .045l.221.177v-.044l-.221-.178v.045z" fill="#F3A4B5"/><path d="M94.874 88.013l.221.177h.044l-.221-.177h-.044z" fill="#F3A4B5"/><path d="M94.874 88.013l.221.221v-.044l-.221-.177z" fill="#F3A7B6"/><path d="M94.83 88.057l.22.177h.045l-.221-.221-.045.044zm0 0l.22.177-.22-.177z" fill="#F3A7B6"/><path d="M94.785 88.101l.266.178v-.045l-.222-.177-.044.044zm0 0l.222.178h.044l-.266-.178zm-.045.045l.266.177v-.044l-.221-.178-.044.045zm0 0l.222.177h.044l-.266-.177z" fill="#F3A7B6"/><path d="M94.696 88.146l.266.177-.221-.177h-.045zm0 .044l.222.177.044-.044-.266-.177v.044zm0 0l.222.177-.222-.177z" fill="#F3A7B6"/><path d="M94.652 88.234l.222.178.044-.045-.222-.177-.044.044zm0 0l.222.178-.222-.178z" fill="#F3A7B6"/><path d="M94.608 88.234l.221.178h.045l-.222-.178h-.044zm0 .045l.221.177v-.044l-.221-.178v.045zm-.045 0l.222.177h.044l-.221-.177h-.045z" fill="#F3A7B6"/><path d="M94.563 88.323l.222.177v-.044l-.222-.177v.044z" fill="#F3A7B6"/><path d="M94.519 88.323l.222.177h.044l-.222-.177h-.044zm0 0l.222.177-.222-.177zm0 .044l.177.177.045-.044-.222-.177v.044zm-.044 0l.221.177-.177-.177h-.044zm0 .045l.221.177v-.044l-.221-.178v.044zm-.045 0l.222.177h.044l-.221-.177h-.045z" fill="#F3A7B6"/><path d="M94.43 88.456l.222.133-.222-.177v.044zm-.044 0l.222.177.044-.044-.222-.133h-.044zm0 0l.222.177-.222-.177z" fill="#F3A7B6"/><path d="M94.342 88.5l.221.177.045-.044-.222-.177-.044.044zm0 0l.221.177-.221-.177z" fill="#F3A7B6"/><path d="M94.342 88.544l.177.133h.044l-.221-.177v.044zm-.045 0l.222.178v-.045l-.177-.133h-.045z" fill="#F3A7B6"/><path d="M94.297 88.544l.178.178h.044l-.222-.177z" fill="#F3A7B6"/><path d="M94.253 88.589l.222.133-.178-.177-.044.044zm0 0l.177.177.045-.044-.222-.133z" fill="#F3A7B6"/><path d="M94.209 88.633l.221.133-.177-.177-.044.044zm0 0l.177.177.044-.044-.221-.133z" fill="#F3A7B6"/><path d="M94.165 88.633l.221.177-.177-.177h-.044z" fill="#F3A7B6"/><path d="M94.165 88.677l.177.133h.044l-.221-.177v.044zm-.045 0l.222.178v-.045l-.178-.133h-.044z" fill="#F4A8B7"/><path d="M94.12 88.722l.177.133h.045l-.222-.178v.045zm0 0l.177.177v-.044l-.177-.133zm-.044 0l.221.177-.177-.177h-.044zm0 .044l.177.133h.044l-.221-.177v.044zm-.045 0l.222.177V88.9l-.177-.133h-.044z" fill="#F4A8B7"/><path d="M94.031 88.81l.178.133h.044l-.222-.177v.044z" fill="#F4A8B7"/><path d="M93.987 88.81l.222.178v-.045l-.177-.133h-.045z" fill="#F4A8B7"/><path d="M93.987 88.81l.178.178h.044l-.222-.178zm-.044.045l.221.133-.177-.178-.044.045zm-.044 0l.221.177.044-.044-.221-.133h-.044zm0 0l.221.177-.221-.177z" fill="#F4A8B7"/><path d="M93.854 88.899l.222.177.044-.044-.221-.177-.045.044zm0 0l.222.177-.222-.177z" fill="#F4A8B7"/><path d="M93.81 88.899l.221.177h.045l-.222-.177h-.044z" fill="#F4A8B7"/><path d="M93.81 88.943l.221.178v-.045l-.221-.177v.044z" fill="#F4A8B7"/><path d="M93.766 88.943l.221.178h.044l-.221-.178h-.044z" fill="#F4A8B7"/><path d="M93.721 88.943l.266.178-.221-.178h-.045zm0 0l.222.222.044-.044-.266-.178z" fill="#F4A8B7"/><path d="M93.677 88.988l.266.177-.222-.222-.044.045z" fill="#F4A8B7"/><path d="M93.677 88.988l.266.221v-.044l-.266-.177zm-.044 0l.266.221h.044l-.266-.221h-.044zm-.045 0l.31.221-.265-.221h-.045z" fill="#F4A8B7"/><path d="M93.588 89.032l.266.222.045-.045-.31-.221v.044z" fill="#F4A8B7"/><path d="M93.544 89.032l.31.222-.266-.222h-.044zm-.044 0l.31.266.044-.044-.31-.222H93.5z" fill="#F4A8B7"/><path d="M93.455 89.032l.355.266-.31-.266h-.045zm0 0l.31.266h.045l-.355-.266z" fill="#F4A8B7"/><path d="M93.411 89.076l.355.266v-.044l-.31-.266-.045.044z" fill="#F4A8B7"/><path d="M93.367 89.076l.354.266h.045l-.355-.266h-.044z" fill="#F4A8B7"/><path d="M93.322 89.076l.4.31v-.044l-.355-.266h-.045zm0 0l.355.31h.044l-.399-.31z" fill="#F4A8B7"/><path d="M93.278 89.076l.399.31-.355-.31h-.044zm-.044 0l.399.355.044-.045-.399-.31h-.044z" fill="#F4A8B7"/><path d="M93.19 89.12l.443.31-.4-.354-.044.045z" fill="#F4A8B7"/><path d="M93.145 89.12l.443.31h.045l-.444-.31h-.044zm0 0l.443.355v-.044l-.443-.31z" fill="#F4A8B7"/><path d="M93.1 89.12l.444.355h.044l-.443-.354h-.044z" fill="#F4A8B7"/><path d="M93.057 89.12l.133.09c.133.088.221.176.265.22l.09.09v-.045l-.444-.354h-.044z" fill="#F4A8B7"/><path d="M93.012 89.12l.089.045c0 .044.044.044.088.044l-.132-.088h-.045zm.532.4l-.089-.09.089.09z" fill="#F4A8B7"/><path d="M92.968 89.12l.044.045h.089l-.089-.044h-.044z" fill="#F4A8B7"/><path d="M92.924 89.12l.044.045h.044l-.044-.044h-.044zm-.044 0l.088.045-.044-.044h-.045z" fill="#F4A8B7"/><path d="M93.19 91.248s-.045-.178-.222-.222c-.222-.044-.31-.044-.31-.044s-.089-.133-.31-.133c-.222-.044-.31.044-.31.044s-.267-.044-.4.044l-.753.266.443 1.374-.399.089-.221-.71-.089-.22-.221.132h-.089s-.221-.399-.221-.532c.044-.133.132-.487.132-.487s.355.088.488.088 1.152-.265 1.152-.265l.62-.222.222-.443.044.753.222.177s.266.045.221.31z" fill="#F2969A"/><path d="M102.629 67.495s-2.97-.31-3.723 2.747c-.443 1.729-1.24 6.559-1.24 6.559s1.284 1.33 3.19 1.374c1.861.044 1.773-10.68 1.773-10.68z" fill="#148B2E"/><path d="M100.014 122.268s-1.595.709-1.905.975c-.31.266-2.26 1.906-2.393 2.171-.133.222-.754.754-.754 1.33-.044.532.665 1.063 1.24 1.063.577 0 2.438-.62 3.147-1.329.754-.753 1.197-1.241 1.33-1.285.133-.044.133.044.443.088.354.045 1.684-.576 1.861-.93.133-.355.488-1.861.266-2.26-.177-.443-3.235.177-3.235.177z" fill="#474747"/><path d="M99.792 121.781s-1.506 1.506-1.64 1.861c-.132.31.532.665 1.463.709.931.044 2.083-.931 2.083-.931s.975-1.418.532-2.171c-.399-.709-2.438.532-2.438.532z" fill="#F6BDBE"/><path d="M97.887 98.781c.177 5.318.088 6.825.177 8.464.133 1.596 1.02 14.27 1.02 14.89 0 .621 1.373.975 2.215.931h.044c.842-.045 1.596-.798 1.64-1.241 0-.443.975-11.167.266-14.757-.177-1.064 1.861-8.198 1.861-8.198s.045-.266.045-.62c.177-1.419.443-5.052.088-5.983-.487-1.152-6.647-.133-6.647-.133s-.886 1.285-.71 6.647z" fill="#5A8AC3"/><path d="M101.299 123.066h.044c.842-.045 1.596-.798 1.64-1.241 0-.31.532-6.248.532-10.769 0-1.639-.089-3.057-.266-3.988v-.177c0-.842.532-3.102 1.064-5.052-.488-1.241-.754-1.462-.754-1.462l-1.196-1.551c0 .443-.089 1.019-.266 1.683-.621 1.95.399 5.939.31 6.515-.044.576.665.797.487 5.096-.177 3.545-.088 8.907-1.595 10.946z" fill="#3E699D"/><path d="M111.979 118.767s-1.064 1.507-1.196 1.773c-.133.266-1.64 2.747-1.684 3.058-.089.354 0 .62.221.886.266.221 1.152.532 1.817.399.62-.178 1.595-.709 2.127-1.285.532-.532 1.108-2.039 1.108-2.039s.665-.709.842-1.064c.133-.354.576-.797.62-1.285.045-.487.089-.797-.354-1.196-.488-.399-3.501.753-3.501.753z" fill="#474747"/><path d="M111.935 118.413s-.532 1.551-.576 1.905c0 .31.753.621 1.462.532.709-.089 1.019-.753 1.196-.975.222-.222 1.064-1.64.842-2.127-.221-.488-2.924.665-2.924.665z" fill="#F6BDBE"/><path d="M101.21 96.255c-.044.886.71 1.95.71 1.95l1.639 2.172s1.019.93 2.615 8.73c1.285 2.481 5.318 9.749 5.318 9.749s1.152 1.196 2.525.532a3.877 3.877 0 001.197-.931c.31-.355.399-.665.399-.798 0-.531-2.615-7.001-2.969-7.932-.355-.931-1.684-3.191-1.684-3.191s0-3.456.088-4.653c.222-2.083 2.039-7.356 1.418-8.375-.088-.177-.398-.266-.842-.355-2.614-.532-10.148-.133-10.148-.133s-.177 2.349-.266 3.235z" fill="#799FCD"/><path d="M115.081 118.457l.266-.044c-1.994-6.781-3.501-8.73-4.387-9.927-.31-.399-.532-.665-.665-1.019-1.108-2.925.355-8.287.62-9.306.71-2.438.399-4.033.399-4.121l-.266.044c0 .044.311 1.64-.354 3.988-.31 1.064-1.773 6.47-.621 9.484.133.398.355.664.665 1.107.887 1.153 2.393 3.058 4.343 9.794z" fill="#A0ABCD"/><path d="M115.303 118.324c.221-.31.31-.532.31-.62v-.045c0-.531-2.615-7.001-2.969-7.932-.355-.931-1.684-3.191-1.684-3.191v-.31c0-.842 0-3.368.088-4.343.178-1.772 1.551-5.894 1.551-7.71 0-.133 0-.31-.044-.444-.133.133-.354.266-.532.443-.088.045-.177.09-.31.178 0 .443-.133 1.152-.354 2.127-.709 3.013-1.596 7.976-.931 10.591.886.931 1.773 2.881 2.526 4.742.399.842.842 1.861 1.285 3.19.399 1.02.753 1.906.886 2.748.045.177.133.354.178.576z" fill="#3E699D"/><path d="M115.214 118.457c.044-.044.044-.089.089-.133-.045-.222-.133-.399-.178-.576a3.4 3.4 0 01.089.709zm-.975-3.457a27.666 27.666 0 00-1.285-3.19c.31.709.576 1.418.842 2.083.133.398.31.753.443 1.107z" fill="#948CA2"/><path d="M98.197 92.621c.399.532 3.013 1.817 6.204 2.394.975.177 2.039.31 3.102.31.532 0 1.019 0 1.551-.045 1.241-.133 2.26-.664 2.969-1.108a8.877 8.877 0 001.02-.841s-1.773-5.23-.355-11.168c.177-.665.31-1.285.443-1.861.975-4.476.886-6.071.266-7.71-.532-1.552-3.191-2.571-4.52-3.679-1.374-1.108-2.792-1.02-3.767-.93-.266.044-.665-.045-1.152-.09-1.241-.177-2.836-.354-3.855 1.02-.754.975-1.507 5.273-1.33 7.71.177 2.394 0 6.116 0 8.465 0 2.393-.576 7.534-.576 7.534z" fill="#1D9F3A"/><path d="M103.604 96.255s3.279-.709 3.899-.93c-1.063 0-2.127-.133-3.102-.31l-.797 1.24z" fill="#68749F"/><path d="M107.503 95.325c.621-.222.842-1.374 2.127-2.172 1.285-.842 1.596-1.462 1.596-1.462s.576.975.797 2.481c.621-.443 1.02-.841 1.02-.841s-.887-2.66-.887-6.338c0-1.506.133-3.146.532-4.83.177-.665.31-1.285.443-1.861-1.152-2.127-2.481-3.678-3.9-3.723 0 0-2.215.754-1.728 3.723.488 2.969 0 5.766 0 5.766l-3.102 8.946c.975.178 2.039.31 3.102.31z" fill="#148B2E"/><path d="M102.983 69.223c0 .975-.089 1.33.133 1.64.177.31 1.64.576 2.349.31.266-.133.532-.222.753-.31 1.241-.62 1.817-1.374 1.95-1.64.177-.354-.044-.62-.044-.62s-.709-.665-.887-2.349c0-.133.045-2.216.089-2.925v-.221s-.62-1.285-1.241-1.197c-.31 0-1.241.887-2.083 1.684-.664.71-1.285 1.33-1.285 1.33s.177 2.703.222 3.944c.044.133.044.266.044.354z" fill="#F4ABB7"/><path d="M102.939 64.703l5.273 4.166c0-.133-.088-.266-.088-.266s-.709-.665-.887-2.349c0-.133.045-2.216.089-2.925-1.285.222-2.393.222-3.324.266-.443.443-.842.886-1.063 1.108z" fill="#F3A4B6"/><path d="M102.939 64.703l5.273 4.21v-.044l-5.273-4.166z" fill="#F3A4B6"/><path d="M102.894 64.747l5.318 4.21v-.044l-5.273-4.21-.045.044zm0 0l5.318 4.21-5.318-4.21z" fill="#F3A4B6"/><path d="M102.894 64.747l5.318 4.255v-.045l-5.318-4.21zm-.044.045l5.362 4.21-5.318-4.255-.044.045zm0 0l5.362 4.254v-.044l-5.362-4.21zm0 0l5.362 4.254-5.362-4.254z" fill="#F3A4B6"/><path d="M102.806 64.836l5.406 4.254v-.044l-5.362-4.254-.044.044zm0 0l5.406 4.254-5.406-4.254z" fill="#F3A4B6"/><path d="M102.806 64.836l5.406 4.299v-.045l-5.406-4.254z" fill="#F3A4B6"/><path d="M102.806 64.88l5.406 4.255-5.406-4.299v.044zm-.045 0l5.407 4.255h.044l-5.406-4.255h-.045z" fill="#F3A4B6"/><path d="M102.761 64.88l5.407 4.299v-.044l-5.407-4.255z" fill="#F3A4B6"/><path d="M102.761 64.925l5.407 4.254-5.407-4.299v.045z" fill="#F3A4B6"/><path d="M102.717 64.925l5.451 4.298v-.044l-5.406-4.254h-.045zm0 0l5.451 4.298-5.451-4.298z" fill="#F3A4B6"/><path d="M102.717 64.969l5.407 4.299.044-.045-5.451-4.298v.044z" fill="#F3A4B6"/><path d="M102.717 65.013l5.407 4.254-5.407-4.298v.044zm0 0l5.407 4.254-5.407-4.254zm0 .045l5.407 4.254v-.044l-5.407-4.255v.045zm0 0l5.407 4.254-5.407-4.254z" fill="#F3A4B6"/><path d="M102.717 65.102l5.362 4.21h.045l-5.407-4.254v.044z" fill="#F3A4B6"/><path d="M102.717 65.146l5.362 4.21v-.044l-5.362-4.21v.044zm0 0l5.362 4.21-5.362-4.21z" fill="#F3A4B6"/><path d="M102.717 65.19l5.362 4.21v-.044l-5.362-4.21v.044z" fill="#F3A4B6"/><path d="M102.762 65.19l5.273 4.21h.044l-5.362-4.21h.045z" fill="#F3A4B6"/><path d="M102.761 65.235l5.274 4.165-5.274-4.21v.045z" fill="#F3A4B6"/><path d="M102.761 65.28l5.274 4.165V69.4l-5.274-4.166v.044z" fill="#F3A4B6"/><path d="M102.761 65.28l3.368 2.702c.045 0 .045 0 .089.045l1.817 1.418-5.274-4.166z" fill="#F3A4B6"/><path d="M102.761 65.323l3.28 2.615c.044 0 .088 0 .088.044l-3.368-2.703v.044zm3.546 2.792l1.684 1.33h.044l-1.817-1.418.089.088z" fill="#F3A4B6"/><path d="M102.761 65.323l3.235 2.57c.045 0 .045.045.045.045l-3.28-2.615zm3.59 2.837l1.64 1.33v-.045l-1.684-1.33.044.045z" fill="#F3A4B6"/><path d="M102.761 65.368l3.191 2.526h.044l-3.235-2.57v.044zm3.634 2.88l1.596 1.241-1.64-1.33.044.09zm-3.634-2.836l3.191 2.482-3.191-2.526v.044zm3.634 2.88l1.551 1.197h.045l-1.596-1.24v.044zm-3.634-2.88l3.147 2.482h.044l-3.191-2.482zm3.679 2.925l1.506 1.196v-.044l-1.551-1.196.045.044zm-3.679-2.881l3.103 2.438h.044l-3.147-2.482v.044zm3.679 2.925l1.506 1.152-1.506-1.196v.044z" fill="#F3A4B6"/><path d="M102.761 65.456l3.103 2.438-3.103-2.438zm3.723 2.925l1.462 1.152-1.506-1.152h.044z" fill="#F3A4B6"/><path d="M102.761 65.5l3.058 2.394h.045l-3.103-2.438v.045zm3.723 2.925l1.418 1.153.044-.045-1.462-1.152v.044z" fill="#F3A4B6"/><path d="M102.761 65.545l3.014 2.393.044-.044-3.058-2.393v.044zm3.723 2.925l1.418 1.108-1.418-1.153v.045zm-3.723-2.925l3.014 2.393-3.014-2.393zm3.767 2.97l1.374 1.107v-.044l-1.418-1.108.044.044z" fill="#F3A4B6"/><path d="M102.761 65.59l2.97 2.348h.044l-3.014-2.393v.044zm3.767 2.968l1.33 1.064h.044l-1.374-1.108v.044z" fill="#F3A4B6"/><path d="M102.761 65.59l2.97 2.348-2.97-2.349zm3.767 3.013l1.33 1.019-1.33-1.064v.045z" fill="#F3A4B6"/><path d="M102.761 65.634l2.925 2.304h.045l-2.97-2.349v.045zm3.812 2.969l1.285 1.063v-.044l-1.33-1.02h.045z" fill="#F3A4B6"/><path d="M102.761 65.678l2.925 2.26-2.925-2.304v.044zm3.812 2.97l1.285 1.018-1.285-1.063v.044z" fill="#F3A4B6"/><path d="M102.761 65.678l2.881 2.26h.044l-2.925-2.26zm3.812 3.013l1.24.975h.045l-1.285-1.019v.044z" fill="#F3A4B6"/><path d="M102.761 65.722l2.881 2.26v-.044l-2.881-2.26v.044zm3.812 3.014l1.24.975v-.045l-1.24-.975v.045z" fill="#F3A4B6"/><path d="M102.761 65.722l2.837 2.26h.044l-2.881-2.26zm3.856 3.014l1.196.975-1.24-.975h.044z" fill="#F3A4B6"/><path d="M102.761 65.767l2.837 2.215-2.837-2.26v.045zm3.856 3.013l1.152.93h.044l-1.196-.974v.044z" fill="#F3A4B6"/><path d="M102.761 65.767l2.792 2.215h.045l-2.837-2.215zm3.856 3.057l1.152.931v-.044l-1.152-.931v.044z" fill="#F3A4B6"/><path d="M102.761 65.81l2.792 2.172-2.792-2.215v.044zm3.856 3.014l1.152.931-1.152-.93z" fill="#F3A4B6"/><path d="M102.761 65.855l2.748 2.172.044-.045-2.792-2.171v.044zm3.856 3.014l1.108.886h.044l-1.152-.93v.044z" fill="#F3A4B6"/><path d="M102.806 65.855l2.703 2.172-2.748-2.172h.045zm3.811 3.058l1.108.842-1.108-.886v.044z" fill="#F3A4B6"/><path d="M102.806 65.9l2.659 2.127h.044l-2.703-2.172v.045zm3.811 3.057l1.108.842v-.044l-1.108-.842v.044z" fill="#F3A4B6"/><path d="M102.806 65.9l2.659 2.127-2.659-2.127zm3.855 3.057l1.064.842-1.108-.842h.044z" fill="#F3A4B6"/><path d="M102.806 65.944l2.614 2.083h.045l-2.659-2.127v.044zm3.855 3.058l1.019.797h.045l-1.064-.842v.045z" fill="#F3A4B6"/><path d="M102.806 65.988l2.614 2.083v-.044l-2.614-2.083v.044zm3.855 3.014l1.019.842v-.045l-1.019-.797z" fill="#F3A4B6"/><path d="M102.806 65.988l2.614 2.083-2.614-2.083zm3.855 3.058l1.019.798-1.019-.842v.044zm-3.855-3.014l2.57 2.039h.044l-2.614-2.083v.044zm3.855 3.058l.975.754h.044l-1.019-.798v.044z" fill="#F3A4B6"/><path d="M102.806 66.032l2.57 2.039-2.57-2.038zm3.855 3.058l.975.798v-.044l-.975-.754z" fill="#F3A4B6"/><path d="M102.806 66.077l2.526 1.994h.044l-2.57-2.038v.044zm3.855 3.058l.975.753-.975-.798v.045z" fill="#F3A4B6"/><path d="M102.806 66.121l2.526 1.994v-.044l-2.526-1.994v.044zm3.855 3.058l.931.709h.044l-.975-.753v.044z" fill="#F3A4B6"/><path d="M102.806 66.121l2.481 1.994h.045l-2.526-1.994zm3.855 3.058l.931.753v-.044l-.931-.71zm-3.855-3.014l2.481 1.95-2.481-1.994v.044zm3.855 3.058l.931.71-.931-.754v.044z" fill="#F3A4B6"/><path d="M102.806 66.165l2.481 1.95-2.481-1.95zm3.855 3.058l.887.71h.044l-.931-.71z" fill="#F3A4B6"/><path d="M102.806 66.21l2.437 1.95.044-.045-2.481-1.95v.045zm3.855 3.058l.887.709v-.045l-.887-.709v.044z" fill="#F3A4B6"/><path d="M102.806 66.254l2.437 1.906-2.437-1.95v.044zm3.855 3.058l.887.665-.887-.71v.045z" fill="#F3A4B5"/><path d="M102.806 66.254l2.393 1.906h.044l-2.437-1.906zm3.855 3.058l.842.665h.045l-.887-.665z" fill="#F3A4B5"/><path d="M102.806 66.298l2.393 1.862-2.393-1.906v.044zm3.9 3.058l.797.62-.842-.664.045.044z" fill="#F3A4B5"/><path d="M102.806 66.298l2.349 1.862h.044l-2.393-1.862zm3.9 3.058l.797.665v-.044l-.797-.62z" fill="#F3A4B5"/><path d="M102.806 66.343l2.349 1.86v-.043l-2.349-1.862v.045zm3.9 3.057l.753.62h.044l-.797-.664v.044z" fill="#F3A4B5"/><path d="M102.806 66.387l2.349 1.817-2.349-1.861v.044zm3.9 3.058l.753.576-.753-.62v.044z" fill="#F3A4B5"/><path d="M102.806 66.387l2.304 1.817h.045l-2.349-1.817zm3.9 3.058l.753.62v-.044l-.753-.576z" fill="#F3A4B5"/><path d="M102.806 66.431l2.304 1.773-2.304-1.817v.044zm3.9 3.058l.709.576h.044l-.753-.62v.044z" fill="#F3A4B5"/><path d="M102.806 66.431l2.26 1.817.044-.044-2.304-1.773zm3.9 3.058l.709.576-.709-.576zm-3.9-3.013l2.26 1.772-2.26-1.817v.045zm3.9 3.057l.709.576v-.044l-.709-.576v.044z" fill="#F3A4B5"/><path d="M102.806 66.52l2.216 1.728h.044l-2.26-1.772v.044zm3.855 3.013l.709.576h.045l-.709-.576h-.045zm-3.855-3.013l2.216 1.728-2.216-1.728zm3.855 3.058l.709.531-.709-.576v.045z" fill="#F3A4B5"/><path d="M102.85 66.564l2.172 1.729v-.045l-2.216-1.728.044.044zm3.811 3.014l.709.531-.709-.531z" fill="#F3A4B5"/><path d="M102.85 66.564l2.127 1.729h.045l-2.172-1.729zm3.811 3.058l.665.532.044-.044-.709-.532v.044z" fill="#F3A4B5"/><path d="M102.85 66.609l2.127 1.684-2.127-1.729v.045zm3.811 3.057l.665.488-.665-.532v.044zm-3.811-3.013l2.083 1.64h.044l-2.127-1.684v.044zm3.811 3.013l.621.488h.044l-.665-.488zm-3.811-3.013l2.083 1.64-2.083-1.64zm3.811 3.058l.621.487v-.044l-.621-.488v.045zm-3.811-3.014l2.039 1.64.044-.044-2.083-1.64v.044zm3.811 3.014l.621.487-.621-.487z" fill="#F3A4B5"/><path d="M102.85 66.697l2.039 1.64-2.039-1.64zm3.811 3.058l.576.443h.045l-.621-.487v.044zm-3.811-3.013l2.039 1.595-2.039-1.64v.044zm3.811 3.013l.576.443-.576-.443z" fill="#F3A4B5"/><path d="M102.85 66.786l1.994 1.55h.045l-2.039-1.594v.044zm3.811 3.013l.576.443v-.044l-.576-.443v.044z" fill="#F3A4B5"/><path d="M102.85 66.786l1.994 1.595v-.044l-1.994-1.551zm3.811 3.013l.532.443h.044l-.576-.443z" fill="#F3A7B6"/><path d="M102.85 66.83l1.95 1.551h.044l-1.994-1.595v.044zm3.811 3.014l.532.398-.532-.443v.045z" fill="#F3A7B6"/><path d="M102.85 66.83l1.95 1.551-1.95-1.55zm3.811 3.014l.532.398-.532-.398z" fill="#F3A7B6"/><path d="M102.85 66.874l1.95 1.507-1.95-1.55v.043zm3.811 3.014l.488.399.044-.045-.532-.398v.044z" fill="#F3A7B6"/><path d="M102.85 66.919l1.906 1.507.044-.045-1.95-1.507v.045zm3.811 2.969l.488.399-.488-.4z" fill="#F3A7B6"/><path d="M102.85 66.919l1.906 1.507-1.906-1.507zm3.811 3.013l.443.355h.045l-.488-.4v.045z" fill="#F3A7B6"/><path d="M102.85 66.963l1.861 1.463h.045l-1.906-1.507v.044zm3.767 2.97l.487.398v-.044l-.443-.355h-.044z" fill="#F3A7B6"/><path d="M102.85 66.963l1.861 1.463-1.861-1.463zm3.767 3.014l.487.354-.487-.399v.044z" fill="#F3A7B6"/><path d="M102.85 67.007l1.817 1.463.044-.044-1.861-1.463v.044zm3.767 2.97l.443.354h.044l-.487-.355z" fill="#F3A7B6"/><path d="M102.85 67.052l1.817 1.418-1.817-1.463v.045zm3.767 2.969l.443.31-.443-.355v.045z" fill="#F3A7B6"/><path d="M102.85 67.052l1.817 1.418-1.817-1.418zm3.767 2.969l.443.354v-.044l-.443-.31zm-3.767-2.925l1.773 1.374h.044l-1.817-1.418v.044zm3.767 2.97l.399.31h.044l-.443-.355v.044zm-3.767-2.97l1.773 1.374-1.773-1.374zm3.767 2.97l.399.31-.399-.31z" fill="#F3A7B6"/><path d="M102.85 67.14l1.728 1.374.045-.044-1.773-1.374v.044zm3.767 2.97l.354.265h.045l-.399-.31v.044z" fill="#F3A7B6"/><path d="M102.85 67.185l1.728 1.33-1.728-1.375v.045zm3.767 2.924l.354.31v-.044l-.354-.266z" fill="#F3A7B6"/><path d="M102.85 67.185l1.684 1.33h.044l-1.728-1.33zm3.723 2.924l.398.31-.354-.31h-.044z" fill="#F3A7B6"/><path d="M102.85 67.229l1.684 1.285-1.684-1.33v.045zm3.723 2.925l.354.266h.044l-.398-.31v.044z" fill="#F3A7B6"/><path d="M102.85 67.229l1.684 1.33v-.045l-1.684-1.285zm3.723 2.925l.354.31v-.044l-.354-.266z" fill="#F3A7B6"/><path d="M102.894 67.273l1.596 1.285h.044l-1.684-1.329.044.044zm3.679 2.925l.31.266h.044l-.354-.31v.044zm-3.679-2.925l1.596 1.285-1.596-1.285zm3.679 2.925l.31.266-.31-.266z" fill="#F3A7B6"/><path d="M102.894 67.318l1.551 1.24h.045l-1.596-1.285v.045zm3.679 2.924l.31.222-.31-.266v.044z" fill="#F3A7B6"/><path d="M102.894 67.362l1.551 1.196-1.551-1.24v.044zm3.679 2.88l.265.266.045-.044-.31-.222z" fill="#F3A7B6"/><path d="M102.894 67.362l1.507 1.24.044-.044-1.551-1.196zm3.634 2.925l.31.221-.265-.266-.045.045z" fill="#F3A7B6"/><path d="M102.894 67.406l1.507 1.197-1.507-1.241v.044zm3.634 2.88l.31.222-.31-.221z" fill="#F3A7B6"/><path d="M102.894 67.406l1.463 1.197h.044l-1.507-1.197zm3.634 2.88l.266.222h.044l-.31-.221z" fill="#F3A7B6"/><path d="M102.894 67.45l1.463 1.153-1.463-1.197v.045zm3.634 2.881l.266.222v-.045l-.266-.221v.044z" fill="#F3A7B6"/><path d="M102.894 67.495l1.463 1.152v-.044l-1.463-1.152v.044zm3.634 2.836l.222.222h.044l-.266-.222z" fill="#F3A7B6"/><path d="M102.894 67.495l1.419 1.152h.044l-1.463-1.152zm3.59 2.88l.266.178-.222-.222-.044.044z" fill="#F3A7B6"/><path d="M102.894 67.54l1.419 1.107-1.419-1.152v.044zm3.59 2.835l.266.178-.266-.178z" fill="#F3A7B6"/><path d="M102.894 67.54l1.374 1.107h.045l-1.419-1.108zm3.59 2.88l.222.177.044-.044-.266-.178v.045z" fill="#F3A7B6"/><path d="M102.894 67.584l1.374 1.063-1.374-1.108v.044zm3.59 2.836l.222.177-.222-.177z" fill="#F3A7B6"/><path d="M102.894 67.628l1.33 1.063.044-.044-1.374-1.064v.045zm3.59 2.792l.177.177h.045l-.222-.177z" fill="#F3A7B6"/><path d="M102.894 67.628l1.33 1.063-1.33-1.063zm3.59 2.836l.177.133-.177-.177v.044zm-3.59-2.792l1.286 1.02h.044l-1.33-1.064v.044zm3.546 2.792l.177.177.044-.044-.177-.133h-.044z" fill="#F3A7B6"/><path d="M102.894 67.672l1.286 1.02-1.286-1.02zm3.546 2.836l.177.133-.177-.177v.044z" fill="#F3A7B6"/><path d="M102.894 67.716l1.241.975h.045l-1.286-1.019v.044zm3.546 2.792l.177.133-.177-.133zm-3.546-2.748l1.241.976v-.045l-1.241-.975v.045zm3.546 2.748l.133.133h.044l-.177-.133z" fill="#F4A8B7"/><path d="M102.894 67.76l1.197.976h.044l-1.241-.975zm3.546 2.793l.133.088-.133-.133v.045z" fill="#F4A8B7"/><path d="M102.894 67.805l1.197.93-1.197-.974v.044zm3.501 2.748l.133.133.045-.045-.133-.088h-.045z" fill="#F4A8B7"/><path d="M102.894 67.805l1.197.93-1.197-.93zm3.501 2.792l.133.089-.133-.133v.044z" fill="#F4A8B7"/><path d="M102.894 67.85l1.153.886h.044l-1.197-.93v.043zm3.501 2.747l.133.089-.133-.09z" fill="#F4A8B7"/><path d="M102.894 67.894l1.153.886v-.044l-1.153-.887v.045zm3.501 2.703l.089.089h.044l-.133-.09z" fill="#F4A8B7"/><path d="M102.894 67.894l1.108.886h.045l-1.153-.886zm3.457 2.747l.133.089v-.044l-.089-.09-.044.045z" fill="#F4A8B7"/><path d="M102.894 67.938l1.108.842-1.108-.886v.044zm3.457 2.703l.089.089h.044l-.133-.089z" fill="#F4A8B7"/><path d="M102.894 67.938l1.064.842h.044l-1.108-.842zm3.457 2.748l.089.044-.089-.089v.045z" fill="#F4A8B7"/><path d="M102.894 67.982l1.064.798-1.064-.842v.044zm3.457 2.704l.044.044h.045l-.089-.044z" fill="#F4A8B7"/><path d="M102.894 67.982l1.02.798h.044l-1.064-.798zm3.413 2.704l.088.088v-.044l-.044-.044h-.044z" fill="#F4A8B7"/><path d="M102.894 68.027l1.02.797v-.044l-1.02-.798v.045zm3.413 2.703l.088.044-.088-.088v.044z" fill="#F4A8B7"/><path d="M102.894 68.071l.975.753h.045l-1.02-.797v.044zm3.413 2.659l.044.044h.044l-.088-.044z" fill="#F4A8B7"/><path d="M102.939 68.071l.93.753-.975-.753h.045zm3.368 2.659l.044.044-.044-.044z" fill="#F4A8B7"/><path d="M102.939 68.115l.886.71h.044l-.93-.754v.044zm3.323 2.66l.045.043.044-.044-.044-.044-.045.044z" fill="#F4A8B7"/><path d="M102.939 68.115l.886.71-.886-.71zm3.323 2.66l.045.043-.045-.044z" fill="#F4A8B7"/><path d="M102.939 68.16l.842.664h.044l-.886-.709v.045zm3.323 2.614v.044h.045l-.045-.044z" fill="#F4A8B7"/><path d="M102.939 68.204l.797.665.045-.045-.842-.664v.044zm3.323 2.615v-.045.044zm-3.323-2.615l.797.665-.797-.665zm3.279 2.615h.044-.044z" fill="#F4A8B7"/><path d="M102.939 68.248l.753.62h.044l-.797-.664v.044zm3.279 2.615l.044-.044h-.044v.044zm-3.279-2.615l.753.62-.753-.62zm0 .045l.709.576h.044l-.753-.62v.044z" fill="#F4A8B7"/><path d="M102.939 68.337l.709.532-.709-.576v.044z" fill="#F4A8B7"/><path d="M102.939 68.337l.664.532h.045l-.709-.532z" fill="#F4A8B7"/><path d="M102.939 68.381l.664.488-.664-.532v.044z" fill="#F4A8B7"/><path d="M102.939 68.381l.62.532.044-.044-.664-.488zm0 .044l.576.488h.044l-.62-.532v.044zm0 .045l.576.443-.576-.487v.044z" fill="#F4A8B7"/><path d="M102.939 68.47l.532.443h.044l-.576-.443z" fill="#F4A8B7"/><path d="M102.939 68.514l.532.399-.532-.443v.044z" fill="#F4A8B7"/><path d="M102.939 68.514l.487.399h.045l-.532-.399zm0 .044l.443.355h.044l-.487-.399v.044zm0 0l.443.355-.443-.355z" fill="#F4A8B7"/><path d="M102.939 68.603l.399.31h.044l-.443-.355v.045zm0 .044l.354.266h.045l-.399-.31v.044zm0 0l.354.266-.354-.266z" fill="#F4A8B7"/><path d="M102.939 68.691l.31.222h.044l-.354-.266v.044z" fill="#F4A8B7"/><path d="M102.939 68.691l.266.222h.044l-.31-.222zm0 .045l.266.177-.266-.222v.045z" fill="#F4A8B7"/><path d="M102.939 68.78l.221.133h.045l-.266-.177v.044z" fill="#F4A8B7"/><path d="M102.939 68.78l.177.133h.044l-.221-.133zm0 .044l.133.089h.044l-.177-.133v.044z" fill="#F4A8B7"/><path d="M102.939 68.824l.088.089h.045l-.133-.089z" fill="#F4A8B7"/><path d="M102.939 68.869h.044l.044.044-.088-.089v.045z" fill="#F4A8B7"/><path d="M106.706 63.02s-.133 3.012-.444 3.677c-.266.62-2.437 2.26-4.475 1.994-.577-.31-1.418-1.817-1.507-3.19-.089-1.33 0-1.817-.044-1.95 0-.133-.444-.93-.355-1.33.044-.354.177-2.525.886-3.456.754-.93 2.792-1.507 4.609-.754 1.817.754 1.33 5.008 1.33 5.008z" fill="#F6BDBE"/><path d="M106.085 64.083s-.177-1.197.576-1.418c.754-.222.443 1.462.443 1.462l.089 1.817.044.31s.709-1.55.975-2.038c.266-.488.399-.665.488-1.197.088-.532.487-2.747.399-3.545-.089-.798-1.463-1.994-2.482-2.039-.488-.664-1.463-.974-2.393-.974-.931 0-1.595.044-2.703.93-1.108.886-1.153 1.551-1.241 1.773-.089.221-.089 1.063-.089 1.063l.089-.443s.443.31 1.817.177c1.418-.133 2.171-.664 2.171-.664s-.266.975-.221 1.33c.044.354.266 1.462.266 1.462s.709.443.974.62c.222.133.311.532.311.532l.088.975.399-.133z" fill="#774B59"/><path d="M106.528 63.374l-.044.088v-.088h.044z" fill="#F6B9B9"/><path d="M106.528 63.33l-.044.132.044-.088v-.045z" fill="#F6B9B9"/><path d="M106.528 63.285v.222l-.044-.045.044-.133v-.044z" fill="#F6B9B9"/><path d="M106.573 63.24l-.045.267v-.222l.045-.044z" fill="#F6B9B9"/><path d="M106.573 63.24l-.045.267.045-.266zm.044-.044l-.089.355v-.044l.045-.266.044-.045z" fill="#F6B9B9"/><path d="M106.617 63.152l-.089.399.089-.355v-.044z" fill="#F6B9B9"/><path d="M106.617 63.152l-.044.399h-.045l.089-.399z" fill="#F6B9B9"/><path d="M106.661 63.108l-.088.487v-.044l.044-.399.044-.044zm0 0l-.088.487.088-.487z" fill="#F6B9B9"/><path d="M106.661 63.063l-.088.532.088-.487v-.045zm-.266 1.773l-.044.089c0-.045.044-.089.044-.089z" fill="#F6B9B9"/><path d="M106.706 63.063l-.089.576-.044-.044.088-.532h.045zm-.311 1.773l-.044.133v-.044l.044-.089z" fill="#F6B9B9"/><path d="M106.706 63.02l-.089.62.089-.577v-.044zm-.311 1.772l-.044.221v-.044l.044-.133v-.044z" fill="#F6B9B9"/><path d="M106.706 63.02l-.089.664v-.044l.089-.62zm-.266 1.727l-.045.31-.044-.044.044-.221.045-.045z" fill="#F6B9B9"/><path d="M106.75 62.975l-.133.709.089-.665.044-.044zm-.31 1.728l-.045.399v-.044l.045-.31v-.045z" fill="#F6B9B9"/><path d="M106.75 62.975l-.133.753v-.044l.133-.71zm-.266 1.684l-.089.487v-.044l.045-.399.044-.044z" fill="#F6B9B9"/><path d="M106.75 62.975l-.133.797v-.044l.133-.753zm-.266 1.684l-.089.487.089-.487z" fill="#F6B9B9"/><path d="M106.794 62.93l-.133.842h-.044l.133-.797.044-.044zm-.266 1.684l-.133.576v-.044l.089-.487.044-.045z" fill="#F6B9B9"/><path d="M106.794 62.93l-.133.887v-.045l.133-.841zm-.266 1.596l-.088.665h-.045l.133-.577v-.088z" fill="#F6BABC"/><path d="M106.794 62.93l-.133.931v-.044l.133-.886zm-.266 1.551l-.088.71.088-.665v-.044z" fill="#F6BABC"/><path d="M106.838 62.886l-.177 1.02v-.045l.133-.93.044-.045zm-.265 1.551l-.133.798v-.044l.088-.71.045-.044z" fill="#F6BABC"/><path d="M106.838 62.886l-.177 1.108v-.089l.177-1.019zm-.221 1.462l-.177.887.133-.798.044-.088z" fill="#F6BABC"/><path d="M106.838 62.886l-.398 2.349.177-.886c0-.133.044-.222.044-.355l.177-1.108z" fill="#F6BABC"/><path d="M106.883 62.842l-.399 2.437-.044-.044.398-2.349.045-.044zm0 0l-.399 2.437.399-2.437z" fill="#F6BABC"/><path d="M106.883 62.842l-.399 2.437.399-2.437zm.044 0l-.443 2.437.399-2.437h.044zm0 0l-.399 2.481-.044-.044.443-2.437z" fill="#F6BDBE"/><path d="M106.927 62.797l-.399 2.526.399-2.481v-.044z" fill="#F6BDBE"/><path d="M106.971 62.797l-.443 2.526.399-2.525h.044z" fill="#F6BDBE"/><path d="M106.971 62.797l-.443 2.526.443-2.525z" fill="#F6BDBE"/><path d="M106.971 62.797l-.398 2.526h-.045l.443-2.525z" fill="#F6BDBE"/><path d="M107.016 62.797l-.443 2.526.398-2.525h.045z" fill="#F7BEBF"/><path d="M107.016 62.753l-.443 2.57.443-2.525v-.045z" fill="#F7BEBF"/><path d="M107.016 62.753l-.443 2.615v-.044l.443-2.57z" fill="#F7BEBF"/><path d="M107.06 62.753l-.443 2.615h-.044l.443-2.615h.044z" fill="#F7BEBF"/><path d="M107.06 62.753l-.443 2.615.443-2.615z" fill="#F7BEBF"/><path d="M107.06 62.753l-.443 2.615.443-2.615z" fill="#F7C1C0"/><path d="M107.06 62.753l-.443 2.615.443-2.615z" fill="#F7C1C0"/><path d="M107.104 62.753l-.443 2.615h-.044l.443-2.615h.044z" fill="#F7C1C2"/><path d="M107.104 62.709l-.443 2.659.443-2.615v-.044z" fill="#F7C1C2"/><path d="M107.104 62.709l-.443 2.659.443-2.66z" fill="#F7C1C2"/><path d="M107.149 62.709l-.443 2.659h-.045l.443-2.66h.045z" fill="#F7C1C2"/><path d="M107.149 62.709l-.443 2.659.443-2.66z" fill="#F7C1C2"/><path d="M107.149 62.709l-.443 2.659.443-2.66z" fill="#F7C3C3"/><path d="M107.193 62.709l-.487 2.659.443-2.66h.044z" fill="#F7C3C3"/><path d="M107.193 62.709l-.443 2.659h-.044l.487-2.66z" fill="#F7C3C4"/><path d="M107.193 62.709l-.443 2.659.443-2.66z" fill="#F7C3C4"/><path d="M107.193 62.709l-.443 2.659.443-2.66z" fill="#F7C3C4"/><path d="M107.237 62.709l-.487 2.659.443-2.66h.044z" fill="#F7C5C5"/><path d="M107.237 62.709l-.443 2.659h-.044l.487-2.66z" fill="#F7C5C5"/><path d="M107.237 62.709l-.443 2.659.443-2.66z" fill="#F7C5C5"/><path d="M107.282 62.709l-.488 2.659.443-2.66h.045z" fill="#F7C5C5"/><path d="M107.282 62.709l-.444 2.659h-.044l.488-2.66z" fill="#F7C5C5"/><path d="M107.282 62.709l-.443 2.659.443-2.66zm0-.044l-.443 2.703.443-2.66v-.043z" fill="#F8C7C8"/><path d="M107.326 62.665l-.487 2.703.443-2.703h.044z" fill="#F8C7C8"/><path d="M107.326 62.665l-.443 2.703h-.044l.487-2.703z" fill="#F8C7C8"/><path d="M107.326 62.665l-.443 2.703.443-2.703zm.044 0l-.487 2.703.443-2.703h.044z" fill="#F8C7C8"/><path d="M107.37 62.665l-.443 2.703h-.044l.487-2.703z" fill="#F8C9C9"/><path d="M107.37 62.709l-.443 2.614v.045l.443-2.703v.044z" fill="#F8C9C9"/><path d="M107.37 62.709l-.443 2.614.443-2.614z" fill="#F8C9C9"/><path d="M107.415 62.709l-.444 2.614h-.044l.443-2.614h.045z" fill="#F8C9C9"/><path d="M107.415 62.709l-.444 2.614.444-2.614z" fill="#F8C9CB"/><path d="M107.415 62.709l-.444 2.614.444-2.614z" fill="#F8C9CB"/><path d="M107.415 62.709l-.444 2.57v.044l.444-2.614z" fill="#F8CBCC"/><path d="M107.459 62.709l-.443 2.57h-.045l.444-2.57h.044z" fill="#F8CBCC"/><path d="M107.459 62.709l-.443 2.57.443-2.57z" fill="#F8CBCC"/><path d="M107.459 62.709l-.443 2.57.443-2.57z" fill="#F8CBCC"/><path d="M107.503 62.709l-.443 2.57h-.044l.443-2.57h.044z" fill="#F8CBCC"/><path d="M107.503 62.709l-.443 2.526v.044l.443-2.57z" fill="#F8CBCC"/><path d="M107.503 62.709l-.443 2.526.443-2.526z" fill="#F8CDCD"/><path d="M107.503 62.709l-.399 2.526h-.044l.443-2.526z" fill="#F8CDCF"/><path d="M107.548 62.709l-.444 2.481v.045l.399-2.526h.045z" fill="#F8CDCF"/><path d="M107.548 62.709l-.444 2.481.444-2.481z" fill="#F8CDCF"/><path d="M107.548 62.709l-.399 2.481h-.045l.444-2.481z" fill="#F8CDCF"/><path d="M107.547 62.709l-.398 2.437v.044l.398-2.481z" fill="#F8CDCF"/><path d="M107.592 62.709l-.443 2.437.398-2.437h.045zm0 .044l-.399 2.393h-.044l.443-2.437v.044z" fill="#F8CDCF"/><path d="M107.592 62.753l-.399 2.349v.044l.399-2.393zm0 0l-.399 2.349.399-2.349z" fill="#F9CFD0"/><path d="M107.636 62.753l-.399 2.349h-.044l.399-2.349h.044z" fill="#F9CFD0"/><path d="M107.636 62.753l-.399 2.305v.044l.399-2.349z" fill="#F9D1D1"/><path d="M107.636 62.753l-.399 2.305.399-2.305z" fill="#F9D1D1"/><path d="M107.636 62.753l-.354 2.26-.045.045.399-2.305zm.044 0l-.398 2.26.354-2.26h.044zm0 0l-.398 2.26.398-2.26zm0 .044l-.354 2.172-.044.044.398-2.26v.044zm0 0l-.354 2.172.354-2.171z" fill="#F9D1D2"/><path d="M107.725 62.797l-.355 2.128-.044.044.354-2.171h.045z" fill="#F9D3D3"/><path d="M107.725 62.797l-.355 2.128.355-2.127z" fill="#F9D3D3"/><path d="M107.725 62.797l-.355 2.083v.045l.355-2.127z" fill="#F9D3D3"/><path d="M107.725 62.797l-.31 2.083h-.045l.355-2.082z" fill="#F9D3D3"/><path d="M107.769 62.797l-.354 2.039v.044l.31-2.082h.044z" fill="#F9D3D3"/><path d="M107.769 62.842l-.354 1.994.354-2.038v.044zm0 0l-.31 1.95-.044.044.354-1.994z" fill="#F9D3D3"/><path d="M107.769 62.842l-.31 1.95.31-1.95zm.044 0l-.31 1.905-.044.045.31-1.95h.044z" fill="#F9D4D6"/><path d="M107.813 62.842l-.31 1.861v.044l.31-1.905z" fill="#F9D4D6"/><path d="M107.813 62.886l-.31 1.817.31-1.861v.044z" fill="#F9D4D6"/><path d="M107.813 62.886l-.266 1.773-.044.044.31-1.817zm.045 0l-.31 1.773.265-1.773h.045z" fill="#FAD7D7"/><path d="M107.858 62.886l-.31 1.728v.045l.31-1.773z" fill="#FAD7D7"/><path d="M107.858 62.93l-.266 1.64-.044.044.31-1.728v.044z" fill="#FAD7D7"/><path d="M107.858 62.93l-.266 1.596v.044l.266-1.64z" fill="#FAD7D7"/><path d="M107.902 62.93l-.266 1.596h-.044l.266-1.595h.044z" fill="#FAD7D7"/><path d="M107.902 62.975l-.266 1.506v.045l.266-1.595v.044z" fill="#FAD8D8"/><path d="M107.902 62.975l-.266 1.462v.044l.266-1.506z" fill="#FAD8D8"/><path d="M107.902 63.02l-.222 1.373-.044.044.266-1.462v.044z" fill="#FAD8D9"/><path d="M107.902 63.02l-.222 1.373.222-1.374z" fill="#FAD8D9"/><path d="M107.946 63.02l-.221 1.328-.045.045.222-1.374h.044z" fill="#FAD8D9"/><path d="M107.946 63.063l-.221 1.241v.044l.221-1.329v.044z" fill="#FAD8D9"/><path d="M107.946 63.063l-.177 1.197-.044.044.221-1.24z" fill="#FADADA"/><path d="M107.946 63.108l-.177 1.108v.044l.177-1.197v.045z" fill="#FADADA"/><path d="M107.946 63.152l-.177 1.02v.044l.177-1.108v.044z" fill="#FADADA"/><path d="M107.991 63.196l-.178.887-.044.088.177-1.019.045.044z" fill="#FADADA"/><path d="M107.991 63.196l-.178.842v.045l.178-.887z" fill="#FADADA"/><path d="M107.991 63.24l-.133.754-.045.044.178-.842v.045z" fill="#FADADC"/><path d="M107.991 63.33l-.089.575-.044.089.133-.753v.088z" fill="#FADCDD"/><path d="M107.991 63.374l-.089.443v.088l.089-.576v.045z" fill="#FADCDD"/><path d="M107.946 63.55v.045c0 .089 0 .133-.044.222l.089-.443c0 .088 0 .133-.045.177z" fill="#FADEDE"/><path opacity=".1" d="M77.059 147.173l22.778-12.896-11.256-6.514-22.822 12.896 11.3 6.514z" fill="#000"/><path d="M97.931 131.574l-6.78-3.899c.665.841 1.551 1.595 2.748 2.304 1.196.665 2.57 1.196 4.032 1.595z" fill="#7D97AE"/><path d="M94.209 91.248l-4.476 1.33-.355-1.463 4.343-1.33.488 1.463z" fill="#5F686B"/><path d="M93.455 90.096c-.044.354.089.797.355 1.019.221.266.487.177.576-.177.089-.31-.044-.798-.31-1.02-.266-.221-.532-.133-.62.177zm10.902 6.337c-.089.31.089.753.354 1.019.222.221.488.133.577-.222.044-.31-.089-.753-.355-1.02-.222-.22-.487-.132-.576.223z" fill="#5F686B"/><path d="M89.201 90.672l.399-.09v-.043h.044c.178 0 .355.044.532.221.399.355.62 1.108.532 1.64-.089.266-.222.399-.355.443h-.044l-.355.133-.088-.222-.133-.088c-.399-.355-.62-1.108-.487-1.64l.044-.089-.089-.265z" fill="#414A4E"/><path d="M88.847 91.159c-.133.532.088 1.285.487 1.64.399.354.842.221.975-.31.089-.488-.133-1.241-.532-1.596-.399-.399-.797-.266-.93.266z" fill="#5F686B"/><path d="M89.112 91.425c-.088.31.045.798.31 1.02.267.22.532.132.621-.178.044-.355-.089-.798-.354-1.02-.222-.265-.488-.177-.576.178z" fill="#9E261F"/><path d="M87.118 121.382c0 1.905-1.33 4.21-3.013 5.185-1.64.975-2.97.177-2.97-1.729 0-1.905 1.33-4.21 2.97-5.185 1.684-.93 3.013-.177 3.013 1.729z" fill="#414A4E"/><path d="M86.143 119.388l1.418.797-4.342 7.312-1.374-.797 1.196-4.964 3.102-2.348z" fill="#414A4E"/><path d="M88.403 122.135c0 1.906-1.329 4.21-3.013 5.185-1.64.931-2.969.177-2.969-1.728 0-1.906 1.33-4.21 2.97-5.185 1.683-.975 3.012-.177 3.012 1.728z" fill="#5F686B"/><path d="M87.296 122.756c0 1.196-.842 2.658-1.906 3.279-1.02.62-1.861.133-1.861-1.064 0-1.241.842-2.659 1.861-3.279 1.064-.62 1.906-.133 1.906 1.064z" fill="#FCC53E"/><path d="M80.826 128.472l5.007-4.919-.443-.221-4.564 1.196v3.944z" fill="#F8F090"/><path d="M81.269 128.738l4.564-4.121v-1.064l-4.564 1.197v3.988z" fill="#FCE05E"/><path d="M66.157 129.27l11.522 6.647v.62l-11.522-6.691v-.576z" fill="#9E261F"/><path d="M81.269 128.339l3.146-30.621c.177-2.438.753-3.058 1.64-3.723.753-.665 1.817-1.152 2.57-1.374l1.02-.31-.222-.842-1.02.355c-.443.088-1.86.576-2.88 1.506-1.152.887-1.773 1.729-1.994 4.299l-3.102 30.622.842.088z" fill="#C24038"/><path d="M81.89 116.862l-.045-.133c0-.089.088-.266.177-.311h.133l11.61 6.692-.221.443-11.655-6.691zm1.373-11.434l-.044-.133c0-.088.088-.265.177-.31h.133l11.61 6.692-.221.443-11.655-6.692z" fill="#C24038"/><path d="M85.169 124.085l-.045-.222c0-.177.133-.443.31-.531h.222v-.045.045l10.503 6.071-.4.797-10.546-6.115h-.044z" fill="#9E261F"/><path d="M91.949 134.898l4.564-4.077v-1.064l-4.564 1.197v3.944z" fill="#E1625A"/><path d="M77.68 135.917l14.712-1.374-11.566-6.647-14.668 1.374 11.521 6.647z" fill="#C24038"/><path d="M92.746 131.175l-.354 3.368-11.566-6.647.399-3.412 11.521 6.691z" fill="#9E261F"/><path d="M92.392 135.164l4.564-4.122v-1.063l-4.564 1.196v3.989z" fill="#C24038"/><path d="M77.68 135.917l14.712-1.374v.621l-14.713 1.373v-.62z" fill="#9E261F"/><path d="M99.97 128.827c0 1.905-1.374 4.21-3.014 5.185-1.64.93-3.013.177-3.013-1.729 0-1.905 1.374-4.21 3.013-5.185 1.64-.975 3.014-.177 3.014 1.729z" fill="#414A4E"/><path d="M94.74 134.144l1.374.798 1.463-3.146 2.88-4.122-1.418-.842-4.299 7.312z" fill="#414A4E"/><path d="M101.255 129.536c0 1.905-1.33 4.254-3.013 5.185-1.64.974-3.014.221-3.014-1.684 0-1.906 1.374-4.255 3.014-5.185 1.683-.975 3.013-.222 3.013 1.684z" fill="#5F686B"/><path d="M100.147 130.2c0 1.197-.842 2.659-1.906 3.235-1.063.621-1.905.133-1.905-1.063 0-1.197.842-2.659 1.905-3.235 1.064-.621 1.906-.133 1.906 1.063z" fill="#C24038"/><path d="M98.685 130.998c0 .31-.178.665-.444.798-.266.177-.443.044-.443-.222 0-.31.177-.665.443-.798.266-.177.444-.044.444.222z" fill="#5F686B"/><path d="M79.94 135.297l-10.06-5.806 1.02-10.857 10.059 5.805-1.02 10.858z" fill="#DFAD61"/><path d="M79.94 135.297l11.078-1.064.975-10.857-11.034 1.063-1.02 10.858z" fill="#B38052"/><path d="M80.959 124.439l11.034-1.063-10.06-5.805-11.034 1.063 10.06 5.805z" fill="#8A6547"/><path d="M75.907 126.965l-2.083-1.196.665-5.052 2.038 1.197-.62 5.051z" fill="#D9B085"/><path d="M76.527 121.914l11.079-1.064-2.039-1.197-11.078 1.064 2.038 1.197z" fill="#E8C9A9"/><path d="M75.597 121.337l11.078-1.063-.133-.044-11.078 1.063.133.044z" fill="#8D5A2F"/><path d="M91.993 123.376l-11.034 1.063 4.431-.088 6.603-.975z" fill="#8A6547"/><path d="M80.959 124.174l-10.06-5.806 1.02-10.857 10.015 5.805-.975 10.858z" fill="#DFAD61"/><path d="M80.959 124.174l11.078-1.064.975-10.813-11.079 1.019-.974 10.858z" fill="#B38052"/><path d="M81.934 113.316l11.078-1.019-10.06-5.805-11.034 1.019 10.016 5.805z" fill="#E2BB84"/><path d="M76.926 115.887l-2.083-1.197.665-5.096 2.038 1.196-.62 5.097z" fill="#D9B085"/><path d="M77.546 110.79l11.08-1.063-2.04-1.197-11.078 1.064 2.038 1.196z" fill="#E8C9A9"/><path d="M76.616 110.259l11.079-1.064-.133-.088-11.08 1.063.134.089z" fill="#8D5A2F"/><path d="M93.012 112.297l-11.079 1.019 4.476-.088 6.603-.931z" fill="#8A6547"/><path d="M113.929 86.329c-.177 1.063-.665 1.95-1.773 3.279-1.108 1.33-5.805 4.786-6.115 5.76-.355 1.02-.133 2.128-.31 2.527-.178.399-.576.975-.798 1.108l-.133.088a5.09 5.09 0 01-.709.133l-.576-.044-1.152.133s-.532-.044-.576-.222c-.089-.177-.045-.487-.045-.487s-.177.177-.399.266v.044a.816.816 0 01-.31.089c-.221-.089-.133-.443-.044-.754.133-.31.487-1.684.665-1.86.177-.178 2.57-1.862 3.19-2.793.621-.93 5.761-7.533 5.761-7.533s.488-1.463.133-2.393c-.354-.93-3.102-10.193.621-11.788 1.329-.177 2.26.798 2.526 3.368.31 2.615.265 10.06.044 11.079z" fill="#F6BDBE"/><path d="M104.8 99.091a5.09 5.09 0 01-.709.133l-.576-.044-1.152.133s-.532-.044-.576-.222c-.089-.177-.045-.487-.045-.487s-.177.177-.399.266c.178-.177.355-.399.355-.399s.089-.443.177-.62l.621-.62c.133 0 .31.797.31.797l-.089.532-.532-.178s-.044-.266 0-.398c.045-.09.355-.488.355-.488l-.532.31s-.133.31-.177.488c-.089.177.044.797.044.797s.133.089.532.045c.354-.045 1.241-.222 1.241-.222l.177.089.62.044.355.044z" fill="#F2969A"/><path d="M102.375 97.063l-2.139.433.443 1.418 2.071-.539c.224-.931.048-1.112-.375-1.313z" fill="#5F686B"/><path d="M100.103 97.053l.398-.133h.045c.133-.044.354 0 .532.177.398.355.664 1.108.531 1.64a.608.608 0 01-.354.487l-.399.133-.089-.221-.088-.089c-.399-.399-.665-1.108-.532-1.64l.044-.132-.088-.222z" fill="#414A4E"/><path d="M99.748 97.54c-.133.532.133 1.241.532 1.64.399.354.798.222.931-.31.088-.532-.133-1.285-.532-1.64-.399-.354-.842-.221-.93.31z" fill="#5F686B"/><path d="M100.014 97.762c-.089.355.089.798.31 1.02.266.265.532.177.621-.178.044-.31-.089-.798-.355-1.02-.266-.22-.532-.132-.576.178z" fill="#9E261F"/><path d="M92.835 134.986l3.102-30.621.177-1.064c.222-1.772.31-2.171.975-2.836.443-.62 1.33-1.152 2.57-1.55l1.02-.311-.266-.842-1.02.355c-1.462.443-2.437 1.063-2.969 1.772-.842.842-.93 1.462-1.196 3.324l-.133 1.063-3.146 30.622.886.088z" fill="#C24038"/><path d="M111.624 80.834c-.753.088-1.772.266-1.772.266s-.665-2.704-.621-4.21c.045-1.507-.044-4.166 1.95-5.052 1.995-.887 2.659 2.171 2.748 2.747.044.576.399 5.717.399 5.717s-.975.266-2.704.532z" fill="#1D9F3A"/><path d="M91.904 92.799s.355-.266.178-.532c-.178-.222-.444-.71-.444-.71l.045-.797s.753-.177.886-.842c.133-.62-.399-1.33-.753-1.24-.355.044-1.418 1.55-1.463 1.639l.444 1.462.487.754c.089.133.354.487.62.266z" fill="#F7C5C5"/><path d="M99.97 60.006l.221.221s3.634 1.064 3.989 1.197c.177.044.443.133.797.266a9.644 9.644 0 002.216.443l1.64.133s.531-1.596.266-3.058c-.178-1.108-1.419-2.083-2.881-2.57h-.044c-.443-.133-.931-.266-1.418-.31-1.994-.178-3.368.664-4.033 1.64a5.532 5.532 0 00-.753 2.038z" fill="#1D9F3A"/><path d="M108.833 62.266s.354-1.02.354-2.216c0-.266-.044-.532-.088-.842-.178-1.108-1.419-2.083-2.881-2.57.133.088 1.462.753 1.462 1.994-.044 1.285-.797 2.792-2.703 3.058a9.644 9.644 0 002.216.443c1.462.133 1.64.133 1.64.133z" fill="#148B2E"/><path d="M105.066 61.69s-2.925 2.526-3.944 1.506c-.709-.709-2.437-1.373-3.19-1.152l-.798.222S97 62.22 97 62.044c.044-.177 2.969-2.038 2.969-2.038s1.152-1.241 5.096 1.684z" fill="#474747"/><path d="M83.662 127.807l-2.438.222.222-2.748 2.437-.265-.221 2.791zm-2.615.444l2.748-.311.044-.044.222-3.058-2.748.266-.044.089-.222 3.058z" fill="#8A6547"/><path d="M82.2 127.63l.62-.044.089-1.551-.621.044-.089 1.551z" fill="#8A6547"/><path d="M81.712 126.744l1.773-.177-.887-1.153-.886 1.33zm3.013-10.015l-2.437.266.222-2.792 2.437-.222-.222 2.748zm-2.614.443l2.747-.266.045-.089.221-3.057-2.747.31-.045.044-.221 3.058z" fill="#8A6547"/><path d="M83.263 116.596l.62-.089.089-1.507-.62.045-.089 1.551z" fill="#8A6547"/><path d="M82.775 115.709l1.773-.221-.886-1.108-.887 1.329z" fill="#8A6547"/></g><defs><clipPath id="clip0"><path fill="#fff" transform="translate(0 13.693)" d="M0 0h120v133.494H0z"/></clipPath></defs></svg>