<svg width="120" height="161" fill="none" xmlns="http://www.w3.org/2000/svg"><path fill-rule="evenodd" clip-rule="evenodd" d="M88.29 125.46c-.374 0-.748 0-.935-.187-.562-.374-1.124-.749-1.31-.749-14.977-9.172-35.007-20.404-47.175-26.957-1.31-.561-1.31-2.246 0-2.995l9.173-4.867c.936-.561 1.872-.749 2.808-.749.748 0 1.684.188 2.433.375 13.479 6.364 31.263 17.035 44.18 26.208 1.31.936 2.62 1.685 2.62 2.995 0 .562-.374.936-.936 1.31l-10.108 5.429c-.188.187-.562.187-.75.187z" fill="#000" fill-opacity=".302"/><path fill-rule="evenodd" clip-rule="evenodd" d="M88.665 124.15c-.374 0-.562-.187-.936-.374-.561-.375-1.123-.562-1.31-.749-14.976-9.173-34.82-20.405-46.8-26.957-1.31-.562-1.31-2.246 0-2.995l8.61-4.868c.937-.561 1.873-.748 2.809-.748.749 0 1.497.187 2.246.561 13.291 6.178 31.075 16.848 43.992 26.021 1.31.936 2.621 1.685 2.621 2.995 0 .562-.374.936-.749 1.311l-9.734 5.429c-.187.187-.562.374-.749.374z" fill="#D9D9D9"/><path fill-rule="evenodd" clip-rule="evenodd" d="M85.67 120.968c-14.04-8.612-33.509-19.656-44.367-25.46-.187-.936-.187-1.872.75-2.246 12.542 5.429 32.01 16.848 44.74 25.834.562.936 1.123 2.059.936 3.182-.561-.374-1.685-.936-2.06-1.31z" fill="#E5E5E5"/><path fill-rule="evenodd" clip-rule="evenodd" d="M97.838 116.475l-10.109 5.803c.187-1.123-.374-2.246-.936-3.182l8.05-4.493 2.246-1.311c.562.936 1.123 2.06.749 3.183z" fill="#BFBFBF"/><path fill-rule="evenodd" clip-rule="evenodd" d="M97.09 113.292l-2.247 1.311-8.05 4.493c-12.73-8.986-32.198-20.405-44.74-25.834l10.295-5.99c12.543 5.615 32.011 16.848 44.741 26.02z" fill="#D1D1D1"/><path fill-rule="evenodd" clip-rule="evenodd" d="M74.812 107.302l-14.414-8.237v-11.42l14.414 8.238v11.419z" fill="#B2B2B2"/><path fill-rule="evenodd" clip-rule="evenodd" d="M77.62 105.804l-2.808 1.498v-11.42l2.808-1.497v11.419z" fill="#999"/><path fill-rule="evenodd" clip-rule="evenodd" d="M32.692 12.391c-.749-.374-1.497-.561-2.06-.187l-2.433 1.31c.562-.187 1.31-.187 2.06.188l74.692 43.243 2.434-1.498-74.693-43.056z" fill="#A3A3A3"/><path fill-rule="evenodd" clip-rule="evenodd" d="M107.385 55.447l-2.433 1.498c1.497.749 2.808 3.182 2.808 4.867l2.433-1.31c0-1.872-1.31-4.119-2.808-5.055z" fill="#CCC"/><path fill-rule="evenodd" clip-rule="evenodd" d="M107.76 61.812v49.983c0 .936-.188 1.497-.749 1.872l2.246-1.311c.562-.374.936-.936.936-1.872V60.502l-2.433 1.31z" fill="#999"/><path fill-rule="evenodd" clip-rule="evenodd" d="M30.259 70.424c-1.498-.937-2.808-3.183-2.808-5.055V15.386c0-1.684 1.31-2.62 2.808-1.684l74.693 43.243c1.497.749 2.808 3.182 2.808 4.867v49.983c0 1.872-1.311 2.621-2.808 1.685L30.258 70.424z" fill="#C2C2C2"/><path fill-rule="evenodd" clip-rule="evenodd" d="M104.952 57.507L30.258 14.45c-1.31-.75-2.246-.188-2.246 1.31v49.982c0 1.498.936 3.183 2.247 3.932l74.693 43.056c1.31.749 2.246.187 2.246-1.311V61.625c0-1.498-.936-3.37-2.246-4.118z" fill="#333"/><path fill-rule="evenodd" clip-rule="evenodd" d="M31.569 65.93V18.57l72.447 41.933v47.362L31.569 65.931z" fill="#1D9F3A"/><path fill-rule="evenodd" clip-rule="evenodd" d="M31.569 18.569l-.374-.187v47.923l.374-.374V18.569z" fill="gray"/><path fill-rule="evenodd" clip-rule="evenodd" d="M31.569 65.93l-.374.375 72.82 41.933v-.374L31.569 65.931z" fill="#C2C2C2"/><path fill-rule="evenodd" clip-rule="evenodd" d="M68.26 38.412c0 .562-.187.749-.561.562-.562-.375-.75-.936-.75-1.31 0-.375.188-.562.75-.375.374.187.561.749.561 1.123z" fill="#666"/><path fill-rule="evenodd" clip-rule="evenodd" d="M74.812 146.988c-.187 0-.374 0-.561-.187L3.863 106.179c-.187-.187-.187-.562 0-.749l20.405-11.794h1.498l70.2 40.623c.374.187.374.561 0 .749L75.56 146.801c-.187.187-.562.187-.749.187z" fill="#000" fill-opacity=".302"/><path fill-rule="evenodd" clip-rule="evenodd" d="M93.532 130.702c.188.187.375.187.375.374 0 .188-.375.188-.375.188l-.374-.375.374-.187z" fill="gray"/><path fill-rule="evenodd" clip-rule="evenodd" d="M75.187 144.18l1.31-.748v-.375l-1.685.936v.375l.375.187v-.375z" fill="#333"/><path fill-rule="evenodd" clip-rule="evenodd" d="M76.684 143.619l-1.497.936v-.375l1.497-.936v.375z" fill="#4D4D4D"/><path fill-rule="evenodd" clip-rule="evenodd" d="M91.286 134.82l1.31-.748v-.375l-1.684.936v.375h.187l.187.187v-.375z" fill="#333"/><path fill-rule="evenodd" clip-rule="evenodd" d="M92.784 134.446l-1.31.749h-.188v-.375l1.685-.936v.375l-.188.187z" fill="#4D4D4D"/><path fill-rule="evenodd" clip-rule="evenodd" d="M74.812 143.244L6.11 104.307v.936l68.14 39.312.562-1.311z" fill="#BFBFBF"/><path fill-rule="evenodd" clip-rule="evenodd" d="M74.438 143.619l.374-.375c-.374.188-.936.188-1.31 0l.749.562c0-.187 0-.187.187-.187z" fill="#B3B3B3"/><path fill-rule="evenodd" clip-rule="evenodd" d="M93.72 133.51l-19.282 11.045h-.187v-.749c0-.187 0-.187.187-.187l19.281-12.543c0-.187.188 0 .188 0v2.06c0 .187-.188.187-.188.374z" fill="gray"/><path fill-rule="evenodd" clip-rule="evenodd" d="M6.484 103.932l18.533-11.98c.187-.188.749-.188 1.123 0l67.205 38.563c.374.187.374.561 0 .749l-18.533 11.98c-.374.188-.936.188-1.31 0L6.484 104.868c-.374-.374-.374-.561 0-.936z" fill="#B3B3B3"/><path fill-rule="evenodd" clip-rule="evenodd" d="M66.388 123.963l.187.561s0 .188.188.188l1.123.748c.374.188-.936 1.124-.936 1.124l-2.06 1.123v.374s0 .187.188.187l2.62 1.498c.188.187.562.187.75 0l6.177-3.931c.187 0 .187-.187.187-.187v-.375l-8.424-1.31z" fill="#D6D6D6"/><path fill-rule="evenodd" clip-rule="evenodd" d="M74.625 124.899l-4.867-2.621c-.187-.187-.562-.187-.749 0l-2.434 1.498c-.187.187-.187.374 0 .561l1.31.749c.188 0 .188.187 0 .374l-2.994 1.872c-.188.188-.188.375.187.562l2.62 1.498c.188.187.562.187.75 0l6.177-3.932c.187-.187.187-.374 0-.561z" fill="#F7F7F7"/><path fill-rule="evenodd" clip-rule="evenodd" d="M53.284 129.953v.562s0 .187.187.187l6.74 3.931c.374.187.561.187.748 0l2.621-1.497v-.749l-10.296-2.434z" fill="#D6D6D6"/><path fill-rule="evenodd" clip-rule="evenodd" d="M63.393 132.2l-6.74-3.932c-.186-.187-.56-.187-.748 0l-2.62 1.498c-.188.187-.188.374.186.562l6.74 3.931h.748l2.434-1.685c.374 0 .187-.374 0-.374z" fill="#F7F7F7"/><path fill-rule="evenodd" clip-rule="evenodd" d="M15.283 99.252v.375s0 .187.187.187l6.739 3.931c.374.187.561.187.936 0l2.433-1.497c0-.188.188-.188 0-.375v-.374l-10.295-2.247z" fill="#D6D6D6"/><path fill-rule="evenodd" clip-rule="evenodd" d="M25.391 101.312l-6.739-3.932c-.187-.187-.562-.187-.749 0l-2.433 1.498c-.375.187-.188.374 0 .561l6.739 3.932h.749l2.62-1.685c.188 0 .188-.374-.187-.374z" fill="#F7F7F7"/><path fill-rule="evenodd" clip-rule="evenodd" d="M7.794 103.932v.375c0 .187.188.187.188.374l6.926 3.931h.749l2.433-1.684.188-.188-.188-.374-10.296-2.434z" fill="#D6D6D6"/><path fill-rule="evenodd" clip-rule="evenodd" d="M18.09 105.992l-6.926-3.932h-.749l-2.433 1.685c-.188.187-.188.375 0 .375l6.739 3.931c.374.187.749.187.936 0l2.433-1.498c.188-.187.188-.374 0-.561z" fill="#F7F7F7"/><path fill-rule="evenodd" clip-rule="evenodd" d="M22.209 112.169v.562l.187.187 23.4 13.478h.749l2.434-1.684c.187 0 .187-.188.187-.188v-.374l-26.957-11.981z" fill="#D6D6D6"/><path fill-rule="evenodd" clip-rule="evenodd" d="M45.796 125.835l-23.4-13.291c-.187-.188-.187-.375 0-.562l2.434-1.498c.187-.187.561-.187.748 0l23.4 13.292c.188.187.188.374 0 .561l-2.433 1.498c-.187.187-.562.187-.749 0z" fill="#F7F7F7"/><path fill-rule="evenodd" clip-rule="evenodd" d="M59.087 128.83v.374c0 .188 0 .188.188.375l4.68 2.621c.187.187.561.187.748 0l2.621-1.498v-.749l-8.237-1.123z" fill="#D6D6D6"/><path fill-rule="evenodd" clip-rule="evenodd" d="M67.137 129.766l-4.68-2.808h-.749l-2.62 1.685c-.188 0-.188.374.187.374l4.68 2.808c.187.187.561.187.748 0l2.434-1.685c.187 0 .187-.187 0-.374z" fill="#F7F7F7"/><path fill-rule="evenodd" clip-rule="evenodd" d="M47.107 126.584v.374s0 .187.187.187l4.68 2.808h.749l2.62-1.685v-.561l-8.236-1.123z" fill="#D6D6D6"/><path fill-rule="evenodd" clip-rule="evenodd" d="M55.156 127.52l-4.68-2.808c-.374-.188-.561-.188-.749 0l-2.62 1.497c-.188.187-.188.375.187.562l4.68 2.621c.187.187.561.187.749 0l2.433-1.498c.187-.187.187-.374 0-.374z" fill="#F7F7F7"/><path fill-rule="evenodd" clip-rule="evenodd" d="M19.026 96.819v.374c0 .187 0 .187.188.187l4.68 2.808c.374.188.561.188.748 0l2.621-1.497v-.749l-8.237-1.123z" fill="#D6D6D6"/><path fill-rule="evenodd" clip-rule="evenodd" d="M27.076 97.755l-4.68-2.808c-.187-.188-.562-.188-.749 0l-2.62 1.684c-.188 0-.188.188.187.375l4.68 2.808h.748l2.434-1.685c.187-.187.187-.374 0-.374z" fill="#F7F7F7"/><path fill-rule="evenodd" clip-rule="evenodd" d="M11.539 101.499v.561s0 .188.187.188l4.867 2.808h.749l2.433-1.685.188-.187-.188-.562-8.236-1.123z" fill="#D6D6D6"/><path fill-rule="evenodd" clip-rule="evenodd" d="M19.588 102.435l-4.68-2.621c-.187-.187-.561-.187-.749 0l-2.433 1.498c-.188.187-.188.374 0 .561l4.68 2.621c.374.187.561.187.748 0l2.621-1.498c.188-.187.188-.374-.187-.561z" fill="#F7F7F7"/><path fill-rule="evenodd" clip-rule="evenodd" d="M16.031 108.612v.562l.188.187 4.867 2.808h.748l2.434-1.685c.187 0 .187-.187.187-.187v-.374l-8.424-1.311z" fill="#D6D6D6"/><path fill-rule="evenodd" clip-rule="evenodd" d="M24.268 109.548l-4.867-2.62c-.187-.188-.562-.188-.749 0l-2.434 1.497c-.187.187-.187.375 0 .562l4.868 2.621c.187.187.561.187.748 0l2.434-1.498c.187-.187.187-.374 0-.562z" fill="#F7F7F7"/><path fill-rule="evenodd" clip-rule="evenodd" d="M77.059 140.624v-.562H70.88v.562s0 .187.187.187l2.621 1.497c.187.188.562.188.749 0l2.433-1.497.188-.187z" fill="#D6D6D6"/><path fill-rule="evenodd" clip-rule="evenodd" d="M73.689 141.934l-2.62-1.498c-.375-.187-.375-.374-.188-.561l2.434-1.498c.374-.187.561-.187.936 0l2.62 1.498c.188.187.188.374 0 .374l-2.433 1.685c-.187.187-.562.187-.749 0z" fill="#F7F7F7"/><path fill-rule="evenodd" clip-rule="evenodd" d="M72.94 138.19v-.374h-6.177v.374s0 .187.187.187l2.62 1.685h.75l2.433-1.685c.187 0 .187-.187.187-.187z" fill="#D6D6D6"/><path fill-rule="evenodd" clip-rule="evenodd" d="M69.57 139.5l-2.807-1.497c-.188-.187-.188-.375 0-.562l2.433-1.497c.187-.188.562-.188.936 0l2.621 1.497c.187.187.187.375 0 .562l-2.434 1.497c-.187.188-.561.188-.748 0z" fill="#F7F7F7"/><path fill-rule="evenodd" clip-rule="evenodd" d="M68.822 135.756v-.374h-6.365l.187.374c0 .188 0 .188.187.375l2.621 1.497c.187.188.562.188.749 0l2.434-1.684c.187 0 .187 0 .187-.188z" fill="#D6D6D6"/><path fill-rule="evenodd" clip-rule="evenodd" d="M65.452 137.254l-2.808-1.685c-.187 0-.187-.374 0-.374l2.434-1.685h.749l2.808 1.685c.187 0 .187.187 0 .374l-2.434 1.685h-.749z" fill="#F7F7F7"/><path fill-rule="evenodd" clip-rule="evenodd" d="M76.684 135.756v-.374H70.32l.188.374c0 .188 0 .188.187.188l2.62 1.684h.75l2.433-1.684c.187 0 .187 0 .187-.188z" fill="#D6D6D6"/><path fill-rule="evenodd" clip-rule="evenodd" d="M73.315 137.067l-2.808-1.498c-.188-.187-.188-.374 0-.374l2.433-1.685h.749l2.808 1.685c.187 0 .187.187 0 .374l-2.434 1.498c-.187.187-.561.187-.748 0z" fill="#F7F7F7"/><path fill-rule="evenodd" clip-rule="evenodd" d="M88.29 133.323v-.375h-6.364v.375c0 .187.187.187.187.374l2.808 1.498c.187.187.562.187.749 0l2.433-1.685c.188 0 .188 0 .188-.187z" fill="#D6D6D6"/><path fill-rule="evenodd" clip-rule="evenodd" d="M84.921 134.82l-2.808-1.684c-.187 0-.187-.375 0-.375l2.434-1.685h.749l2.807 1.685c.188 0 .188.187 0 .375l-2.433 1.684h-.749z" fill="#F7F7F7"/><path fill-rule="evenodd" clip-rule="evenodd" d="M84.172 131.076v-.561h-6.365v.561l.188.188 2.808 1.497c.187.187.561.187.749 0l2.433-1.497.187-.188z" fill="#D6D6D6"/><path fill-rule="evenodd" clip-rule="evenodd" d="M80.803 132.387l-2.808-1.498c-.188-.187-.188-.374 0-.561l2.433-1.498c.187-.187.562-.187.749 0l2.808 1.498c.187.187.187.374 0 .374l-2.434 1.685c-.187.187-.561.187-.748 0z" fill="#F7F7F7"/><path fill-rule="evenodd" clip-rule="evenodd" d="M80.054 128.643v-.375h-6.365v.375l.187.187 2.808 1.685h.749l2.434-1.685c.187 0 .187-.187.187-.187z" fill="#D6D6D6"/><path fill-rule="evenodd" clip-rule="evenodd" d="M76.684 129.953l-2.808-1.497c-.187-.188-.187-.375 0-.562l2.434-1.498c.187-.187.561-.187.749 0l2.808 1.498c.187.187.187.374 0 .562l-2.434 1.497c-.187.187-.562.187-.749 0z" fill="#F7F7F7"/><path fill-rule="evenodd" clip-rule="evenodd" d="M92.035 130.889v-.374H85.67v.561l.187.188 2.808 1.497c.187.187.562.187.749 0l2.433-1.497c.188-.188.188-.188.188-.375z" fill="#D6D6D6"/><path fill-rule="evenodd" clip-rule="evenodd" d="M88.665 132.387l-2.808-1.498c-.187-.187-.187-.374 0-.561l2.434-1.498c.187-.187.561-.187.749 0l2.807 1.498c.188.187.188.374 0 .374l-2.433 1.685h-.749z" fill="#F7F7F7"/><path fill-rule="evenodd" clip-rule="evenodd" d="M87.916 128.643v-.562l-6.364.187v.375l.187.187 2.808 1.498c.187.187.561.187.749 0l2.433-1.498.187-.187z" fill="#D6D6D6"/><path fill-rule="evenodd" clip-rule="evenodd" d="M84.547 129.953l-2.808-1.497c-.188-.188-.188-.375 0-.562l2.433-1.498c.188-.187.562-.187.75 0l2.807 1.498c.187.187.187.374 0 .562l-2.433 1.497c-.188.187-.562.187-.75 0z" fill="#F7F7F7"/><path fill-rule="evenodd" clip-rule="evenodd" d="M83.798 126.209l-.187-.374h-6.178v.374c0 .187.187.187.187.375l2.808 1.497h.75l2.433-1.685s.187 0 .187-.187z" fill="#D6D6D6"/><path fill-rule="evenodd" clip-rule="evenodd" d="M80.241 127.52l-2.62-1.498c-.188-.187-.188-.374 0-.374l2.433-1.685h.749l2.62 1.685c.375 0 .375.187.188.374l-2.434 1.498c-.374.187-.562.187-.936 0z" fill="#F7F7F7"/><path fill-rule="evenodd" clip-rule="evenodd" d="M78.556 123.214v-.374h-6.365l.188.374c0 .187 0 .187.187.374l2.62 1.498c.188.187.562.187.75 0l2.433-1.685c.187 0 .187 0 .187-.187z" fill="#D6D6D6"/><path fill-rule="evenodd" clip-rule="evenodd" d="M75.187 124.712l-2.808-1.685c-.188 0-.188-.375 0-.375l2.433-1.684h.749l2.808 1.684c.187 0 .187.188 0 .375l-2.434 1.685h-.748z" fill="#F7F7F7"/><path fill-rule="evenodd" clip-rule="evenodd" d="M74.438 120.968v-.562h-6.365l.187.562v.187l2.808 1.497c.187.188.562.188.749 0l2.434-1.497.187-.187z" fill="#D6D6D6"/><path fill-rule="evenodd" clip-rule="evenodd" d="M71.068 122.278l-2.808-1.498c-.187-.187-.187-.374 0-.561l2.434-1.498c.187-.187.561-.187.749 0l2.808 1.498c.187.187.187.374 0 .374l-2.434 1.685c-.187.187-.562.187-.749 0z" fill="#F7F7F7"/><path fill-rule="evenodd" clip-rule="evenodd" d="M70.32 118.534v-.374h-6.365v.374c0 .187.187.187.187.187l2.808 1.685h.749l2.433-1.685c.187 0 .187-.187.187-.187z" fill="#D6D6D6"/><path fill-rule="evenodd" clip-rule="evenodd" d="M66.95 119.844l-2.808-1.497c-.187-.187-.187-.375 0-.562l2.433-1.497c.188-.188.562-.188.75 0l2.807 1.497c.187.187.187.375 0 .562l-2.433 1.497c-.188.188-.562.188-.75 0z" fill="#F7F7F7"/><path fill-rule="evenodd" clip-rule="evenodd" d="M66.201 116.1v-.374h-6.365v.374c0 .188.187.188.187.375l2.808 1.497c.188.188.562.188.75 0l2.433-1.684c.187 0 .187 0 .187-.188z" fill="#D6D6D6"/><path fill-rule="evenodd" clip-rule="evenodd" d="M62.831 117.598l-2.808-1.685c-.187 0-.187-.374 0-.374l2.434-1.685h.749l2.808 1.685c.187 0 .187.187 0 .374l-2.434 1.685h-.749z" fill="#F7F7F7"/><path fill-rule="evenodd" clip-rule="evenodd" d="M62.083 113.854v-.562h-6.365v.562l.187.187 2.808 1.498c.187.187.562.187.749 0l2.433-1.498.188-.187z" fill="#D6D6D6"/><path fill-rule="evenodd" clip-rule="evenodd" d="M58.713 115.164l-2.808-1.497c-.187-.187-.187-.375 0-.562l2.434-1.497c.187-.188.561-.188.748 0l2.808 1.497c.188.187.188.375 0 .375l-2.433 1.684c-.187.188-.562.188-.749 0z" fill="#F7F7F7"/><path fill-rule="evenodd" clip-rule="evenodd" d="M57.964 111.42l-.187-.374h-6.178v.374l.188.188 2.808 1.684h.748l2.434-1.684.187-.188z" fill="#D6D6D6"/><path fill-rule="evenodd" clip-rule="evenodd" d="M54.407 112.731l-2.62-1.498c-.188-.187-.188-.374 0-.561l2.433-1.498c.187-.187.562-.187.749 0l2.808 1.498c.187.187.187.374 0 .561l-2.434 1.498c-.374.187-.561.187-.936 0z" fill="#F7F7F7"/><path fill-rule="evenodd" clip-rule="evenodd" d="M53.846 108.987l-.187-.375H47.48v.375c0 .187.187.187.187.374l2.808 1.498c.187.187.562.187.749 0l2.434-1.685s.187 0 .187-.187z" fill="#D6D6D6"/><path fill-rule="evenodd" clip-rule="evenodd" d="M50.289 110.484l-2.62-1.684c-.188 0-.188-.375 0-.375l2.433-1.685h.749l2.62 1.685c.375 0 .375.187.188.375l-2.621 1.684h-.749z" fill="#F7F7F7"/><path fill-rule="evenodd" clip-rule="evenodd" d="M49.727 106.74l-.187-.561h-6.177v.561s0 .188.187.188l2.808 1.497c.187.187.561.187.749 0l2.433-1.497c0-.188.187-.188.187-.188z" fill="#D6D6D6"/><path fill-rule="evenodd" clip-rule="evenodd" d="M46.17 108.051l-2.62-1.498c-.187-.187-.187-.374 0-.561l2.433-1.498c.188-.187.562-.187.75 0l2.62 1.498c.374.187.374.374.187.374l-2.62 1.685c-.188.187-.375.187-.75 0z" fill="#F7F7F7"/><path fill-rule="evenodd" clip-rule="evenodd" d="M45.422 104.307v-.375h-6.178v.375s0 .187.187.187l2.621 1.685h.936l2.434-1.685v-.187z" fill="#D6D6D6"/><path fill-rule="evenodd" clip-rule="evenodd" d="M42.052 105.617l-2.62-1.497c-.188-.188-.188-.375 0-.562l2.433-1.498c.187-.187.562-.187.749 0l2.62 1.498c.375.187.375.374.188.562l-2.621 1.497c-.187.187-.562.187-.749 0z" fill="#F7F7F7"/><path fill-rule="evenodd" clip-rule="evenodd" d="M41.303 101.873v-.374h-6.177v.374c0 .187 0 .187.187.375l2.62 1.497c.375.187.562.187.75 0l2.62-1.685v-.187z" fill="#D6D6D6"/><path fill-rule="evenodd" clip-rule="evenodd" d="M37.934 103.371l-2.621-1.685c-.187 0-.375-.374 0-.374l2.434-1.685h.748l2.621 1.685c.187 0 .375.187 0 .374l-2.433 1.685h-.75z" fill="#F7F7F7"/><path fill-rule="evenodd" clip-rule="evenodd" d="M37.185 99.627v-.562h-6.178v.562s0 .187.188.187l2.62 1.498c.375.187.562.187.75 0l2.62-1.498v-.187z" fill="#D6D6D6"/><path fill-rule="evenodd" clip-rule="evenodd" d="M33.815 100.937l-2.62-1.498c-.188-.187-.375-.374-.188-.561l2.621-1.498c.187-.187.562-.187.749 0l2.62 1.498c.188.187.188.374 0 .374l-2.433 1.685c-.187.187-.562.187-.749 0z" fill="#F7F7F7"/><path fill-rule="evenodd" clip-rule="evenodd" d="M33.066 97.193v-.374H26.89v.374s0 .187.187.187l2.62 1.685h.75l2.62-1.685v-.187z" fill="#D6D6D6"/><path fill-rule="evenodd" clip-rule="evenodd" d="M29.697 98.504l-2.62-1.498c-.375-.187-.375-.374-.188-.562l2.62-1.497c.188-.188.562-.188.75 0l2.62 1.497c.188.188.188.375 0 .562l-2.433 1.498c-.188.187-.562.187-.75 0z" fill="#F7F7F7"/><path fill-rule="evenodd" clip-rule="evenodd" d="M28.948 94.76v-.375H22.77v.374c0 .188 0 .188.188.375l2.62 1.498c.188.187.562.187.75 0l2.433-1.685c.187 0 .187 0 .187-.188z" fill="#D6D6D6"/><path fill-rule="evenodd" clip-rule="evenodd" d="M25.578 96.257l-2.62-1.685c-.375 0-.375-.374-.188-.374l2.621-1.685h.75l2.62 1.685c.187 0 .187.187 0 .374l-2.434 1.685h-.749z" fill="#F7F7F7"/><path fill-rule="evenodd" clip-rule="evenodd" d="M68.635 122.091v-.375H62.27l.187.375c0 .187 0 .187.187.187l2.621 1.685h.749l2.433-1.685c.188 0 .188-.187.188-.187z" fill="#D6D6D6"/><path fill-rule="evenodd" clip-rule="evenodd" d="M65.265 123.401l-2.808-1.497c-.187-.188-.187-.375 0-.375l2.434-1.685c.187-.187.561-.187.748 0l2.808 1.498c.188.187.188.374 0 .562l-2.433 1.497c-.187.187-.562.187-.749 0z" fill="#F7F7F7"/><path fill-rule="evenodd" clip-rule="evenodd" d="M64.516 119.657v-.374h-6.365l.188.374v.375l2.808 1.497c.187.187.561.187.748 0l2.434-1.497c.187-.188.187-.188.187-.375z" fill="#D6D6D6"/><path fill-rule="evenodd" clip-rule="evenodd" d="M61.147 121.155l-2.808-1.685c-.188 0-.188-.187 0-.374l2.433-1.685h.749l2.808 1.685c.187 0 .187.374 0 .374l-2.434 1.685h-.748z" fill="#F7F7F7"/><path fill-rule="evenodd" clip-rule="evenodd" d="M60.398 117.411v-.562h-6.365v.562l.187.187 2.808 1.498c.187.187.562.187.749 0l2.434-1.498c.187 0 .187-.187.187-.187z" fill="#D6D6D6"/><path fill-rule="evenodd" clip-rule="evenodd" d="M57.028 118.721l-2.808-1.497c-.187-.188-.187-.375 0-.562l2.434-1.498c.187-.187.561-.187.749 0l2.808 1.498c.187.187.187.374 0 .562l-2.434 1.497c-.187.187-.562.187-.749 0z" fill="#F7F7F7"/><path fill-rule="evenodd" clip-rule="evenodd" d="M56.28 114.977v-.374h-6.365v.374c0 .187.187.187.187.187l2.808 1.685h.749l2.433-1.685c.187 0 .187-.187.187-.187z" fill="#D6D6D6"/><path fill-rule="evenodd" clip-rule="evenodd" d="M52.91 116.288l-2.808-1.498c-.187-.187-.187-.374 0-.374l2.433-1.685c.188-.187.562-.187.75 0l2.807 1.497c.187.188.187.375 0 .562l-2.433 1.498c-.188.187-.562.187-.75 0z" fill="#F7F7F7"/><path fill-rule="evenodd" clip-rule="evenodd" d="M52.161 112.544v-.375h-6.365v.375c0 .187.187.187.187.374l2.808 1.498c.188.187.562.187.75 0l2.433-1.498c.187-.187.187-.187.187-.374z" fill="#D6D6D6"/><path fill-rule="evenodd" clip-rule="evenodd" d="M48.791 114.041l-2.808-1.685c-.187 0-.187-.187 0-.374l2.434-1.685h.749l2.808 1.685c.187 0 .187.374 0 .374l-2.434 1.685h-.749z" fill="#F7F7F7"/><path fill-rule="evenodd" clip-rule="evenodd" d="M48.043 110.297l-.188-.561h-6.177v.561l.187.187 2.808 1.498c.187.187.562.187.749 0l2.433-1.498.188-.187z" fill="#D6D6D6"/><path fill-rule="evenodd" clip-rule="evenodd" d="M44.486 111.608l-2.621-1.498c-.187-.187-.187-.374 0-.562l2.434-1.497c.187-.187.561-.187.748 0l2.808 1.497c.188.188.188.375 0 .562l-2.433 1.498c-.375.187-.562.187-.936 0z" fill="#F7F7F7"/><path fill-rule="evenodd" clip-rule="evenodd" d="M43.924 107.864l-.187-.375h-6.178v.375c0 .187.188.187.188.187l2.808 1.685h.748l2.434-1.685.187-.187z" fill="#D6D6D6"/><path fill-rule="evenodd" clip-rule="evenodd" d="M40.367 109.174l-2.62-1.498c-.188-.187-.188-.374 0-.374l2.433-1.685c.187-.187.562-.187.749 0l2.62 1.498c.375.187.375.374.188.561l-2.434 1.498c-.374.187-.561.187-.936 0z" fill="#F7F7F7"/><path fill-rule="evenodd" clip-rule="evenodd" d="M39.806 105.43l-.187-.374H33.44v.374c0 .187 0 .187.187.374l2.808 1.498c.187.187.562.187.749 0l2.434-1.498c0-.187.187-.187.187-.374z" fill="#D6D6D6"/><path fill-rule="evenodd" clip-rule="evenodd" d="M36.249 106.928l-2.62-1.685c-.188 0-.188-.187 0-.375l2.433-1.684h.748l2.621 1.684c.375 0 .375.375.188.375l-2.621 1.685h-.75z" fill="#F7F7F7"/><path fill-rule="evenodd" clip-rule="evenodd" d="M35.5 103.184v-.562h-6.177v.562s0 .187.187.187l2.62 1.497c.375.188.562.188.936 0l2.434-1.497v-.187z" fill="#D6D6D6"/><path fill-rule="evenodd" clip-rule="evenodd" d="M32.13 104.494l-2.62-1.498c-.188-.187-.188-.374 0-.561l2.433-1.498c.187-.187.562-.187.75 0l2.62 1.498c.374.187.374.374.187.561l-2.62 1.498c-.188.187-.562.187-.75 0z" fill="#F7F7F7"/><path fill-rule="evenodd" clip-rule="evenodd" d="M31.382 100.75v-.374h-6.178v.374c0 .187 0 .187.187.187l2.621 1.685h.749l2.62-1.685v-.187z" fill="#D6D6D6"/><path fill-rule="evenodd" clip-rule="evenodd" d="M28.012 102.06l-2.62-1.497c-.188-.187-.375-.375 0-.375l2.433-1.684c.187-.188.562-.188.749 0l2.62 1.497c.188.187.375.375 0 .562l-2.433 1.497c-.187.188-.562.188-.749 0z" fill="#F7F7F7"/><path fill-rule="evenodd" clip-rule="evenodd" d="M66.95 125.648v-.375h-6.178v.375c0 .187 0 .187.187.374l2.621 1.498h.749l2.434-1.685c.187 0 .187 0 .187-.187z" fill="#D6D6D6"/><path fill-rule="evenodd" clip-rule="evenodd" d="M63.58 126.958l-2.808-1.498c-.187-.187-.187-.374 0-.374l2.434-1.685h.936l2.62 1.685c.188 0 .188.187 0 .374l-2.433 1.498c-.187.187-.562.187-.749 0z" fill="#F7F7F7"/><path fill-rule="evenodd" clip-rule="evenodd" d="M62.831 123.214v-.374h-6.364l.187.561.187.187 2.62 1.498c.188.187.562.187.75 0l2.433-1.498c.187-.187.187-.187.187-.374z" fill="#D6D6D6"/><path fill-rule="evenodd" clip-rule="evenodd" d="M59.462 124.712l-2.808-1.685c-.187 0-.187-.187 0-.375l2.433-1.497c.188-.187.562-.187.75 0l2.807 1.497c.187.188.187.375 0 .375l-2.433 1.685h-.75z" fill="#F7F7F7"/><path fill-rule="evenodd" clip-rule="evenodd" d="M58.713 120.968v-.562l-6.365.187.187.375s0 .187.188.187l2.62 1.497c.188.188.562.188.75 0l2.433-1.497c.187 0 .187-.187.187-.187z" fill="#D6D6D6"/><path fill-rule="evenodd" clip-rule="evenodd" d="M55.343 122.278l-2.808-1.498c-.187-.187-.187-.374 0-.561l2.434-1.498c.187-.187.562-.187.749 0l2.808 1.498c.187.187.187.374 0 .561l-2.434 1.498c-.187.187-.561.187-.749 0z" fill="#F7F7F7"/><path fill-rule="evenodd" clip-rule="evenodd" d="M54.595 118.534v-.374H48.23l.187.374v.187l2.808 1.685h.749l2.433-1.685c.188 0 .188 0 .188-.187z" fill="#D6D6D6"/><path fill-rule="evenodd" clip-rule="evenodd" d="M51.225 119.844l-2.808-1.497c-.187-.187-.187-.375 0-.375l2.434-1.684h.748l2.808 1.684c.188 0 .188.188 0 .375l-2.433 1.497c-.187.188-.562.188-.749 0z" fill="#F7F7F7"/><path fill-rule="evenodd" clip-rule="evenodd" d="M50.476 116.1v-.374h-6.365v.562s.188 0 .188.187l2.808 1.497c.187.188.561.188.748 0l2.434-1.497c.187-.187.187-.187.187-.375z" fill="#D6D6D6"/><path fill-rule="evenodd" clip-rule="evenodd" d="M47.107 117.598l-2.808-1.685c-.188 0-.188-.187 0-.374l2.433-1.498c.187-.187.562-.187.749 0l2.808 1.498c.187.187.187.374 0 .374l-2.434 1.685h-.748z" fill="#F7F7F7"/><path fill-rule="evenodd" clip-rule="evenodd" d="M46.358 113.854v-.562l-6.365.188v.374l.187.187 2.808 1.498c.187.187.562.187.749 0l2.434-1.498c.187 0 .187-.187.187-.187z" fill="#D6D6D6"/><path fill-rule="evenodd" clip-rule="evenodd" d="M42.988 115.164l-2.808-1.497c-.187-.187-.187-.375 0-.562l2.434-1.497c.187-.188.561-.188.749 0l2.808 1.497c.187.187.187.375 0 .562l-2.434 1.497c-.187.188-.562.188-.749 0z" fill="#F7F7F7"/><path fill-rule="evenodd" clip-rule="evenodd" d="M42.24 111.42v-.374h-6.366v.374c0 .188.188.188.188.188l2.808 1.684h.749l2.433-1.684c.187 0 .187 0 .187-.188z" fill="#D6D6D6"/><path fill-rule="evenodd" clip-rule="evenodd" d="M38.87 112.731l-2.808-1.498c-.188-.187-.188-.374 0-.374l2.433-1.685h.75l2.807 1.498c.187.187.187.374 0 .561l-2.433 1.498c-.188.187-.562.187-.75 0z" fill="#F7F7F7"/><path fill-rule="evenodd" clip-rule="evenodd" d="M38.121 108.987l-.187-.375h-6.178v.562s.187 0 .187.187l2.808 1.498c.188.187.562.187.75 0l2.433-1.498c0-.187.187-.187.187-.374z" fill="#D6D6D6"/><path fill-rule="evenodd" clip-rule="evenodd" d="M34.564 110.484l-2.62-1.684c-.188 0-.188-.188 0-.375l2.433-1.497c.187-.188.561-.188.749 0l2.808 1.497c.187.187.187.375 0 .375l-2.434 1.684h-.936z" fill="#F7F7F7"/><path fill-rule="evenodd" clip-rule="evenodd" d="M34.002 106.74l-.187-.561-6.177.187v.374l.187.188 2.808 1.497c.187.187.562.187.749 0l2.433-1.497.188-.188z" fill="#D6D6D6"/><path fill-rule="evenodd" clip-rule="evenodd" d="M30.446 108.051l-2.621-1.498c-.187-.187-.187-.374 0-.561l2.434-1.498c.187-.187.561-.187.748 0l2.621 1.498c.374.187.374.374.187.561l-2.433 1.498c-.375.187-.562.187-.936 0z" fill="#F7F7F7"/><path fill-rule="evenodd" clip-rule="evenodd" d="M29.884 104.307l-.187-.375h-6.178v.375c0 .187 0 .187.188.187l2.808 1.685h.748l2.434-1.685s.187 0 .187-.187z" fill="#D6D6D6"/><path fill-rule="evenodd" clip-rule="evenodd" d="M26.327 105.617l-2.62-1.497c-.188-.188-.188-.375 0-.375l2.433-1.685c.187 0 .562-.187.749 0l2.62 1.498c.375.187.375.374.188.562l-2.62 1.497c-.188.187-.375.187-.75 0z" fill="#F7F7F7"/><path fill-rule="evenodd" clip-rule="evenodd" d="M61.147 126.958v-.562h-6.178v.562s0 .187.187.187l2.621 1.498c.187.187.562.187.749 0l2.433-1.498.188-.187z" fill="#D6D6D6"/><path fill-rule="evenodd" clip-rule="evenodd" d="M57.777 128.268l-2.62-1.497c-.375-.187-.375-.375-.188-.562l2.62-1.497c.188-.188.375-.188.75 0l2.62 1.497c.188.187.188.375 0 .375l-2.433 1.684c-.187.188-.562.188-.749 0z" fill="#F7F7F7"/><path fill-rule="evenodd" clip-rule="evenodd" d="M57.028 124.524v-.374h-6.177v.374s0 .188.187.188l2.62 1.684h.75l2.433-1.684c.187 0 .187-.188.187-.188z" fill="#D6D6D6"/><path fill-rule="evenodd" clip-rule="evenodd" d="M53.659 125.835l-2.808-1.498c-.188-.187-.188-.374 0-.561l2.433-1.498c.375-.187.562-.187.936 0l2.621 1.498c.187.187.187.374 0 .561l-2.434 1.498c-.187.187-.561.187-.748 0z" fill="#F7F7F7"/><path fill-rule="evenodd" clip-rule="evenodd" d="M52.91 122.091v-.375h-6.365l.187.375c0 .187 0 .187.187.374l2.621 1.498c.187.187.562.187.749 0l2.434-1.685c.187 0 .187 0 .187-.187z" fill="#D6D6D6"/><path fill-rule="evenodd" clip-rule="evenodd" d="M49.54 123.588l-2.808-1.684c-.187 0-.187-.375 0-.375l2.434-1.685h.749l2.808 1.685c.187 0 .187.187 0 .375l-2.434 1.684h-.749z" fill="#F7F7F7"/><path fill-rule="evenodd" clip-rule="evenodd" d="M48.791 119.844v-.561h-6.364l.187.561s0 .188.187.188l2.62 1.497c.188.187.562.187.75 0l2.433-1.497.187-.188z" fill="#D6D6D6"/><path fill-rule="evenodd" clip-rule="evenodd" d="M45.422 121.155l-2.808-1.498c-.187-.187-.187-.374 0-.561l2.433-1.498c.188-.187.562-.187.75 0l2.807 1.498c.187.187.187.374 0 .374l-2.433 1.685c-.188.187-.562.187-.75 0z" fill="#F7F7F7"/><path fill-rule="evenodd" clip-rule="evenodd" d="M44.673 117.411v-.375h-6.365l.187.375v.187l2.808 1.685h.75l2.433-1.685c.187 0 .187-.187.187-.187z" fill="#D6D6D6"/><path fill-rule="evenodd" clip-rule="evenodd" d="M41.303 118.721l-2.808-1.497c-.187-.188-.187-.375 0-.562l2.434-1.498c.187-.187.562-.187.749 0l2.808 1.498c.187.187.187.374 0 .562l-2.434 1.497c-.187.187-.561.187-.749 0z" fill="#F7F7F7"/><path fill-rule="evenodd" clip-rule="evenodd" d="M40.555 114.977v-.374H34.19v.374c0 .187.187.187.187.375l2.808 1.497c.187.187.562.187.749 0l2.433-1.685c.188 0 .188 0 .188-.187z" fill="#D6D6D6"/><path fill-rule="evenodd" clip-rule="evenodd" d="M37.185 116.475l-2.808-1.685c-.187 0-.187-.374 0-.374l2.434-1.685h.748l2.808 1.685c.188 0 .188.187 0 .374l-2.433 1.685h-.749z" fill="#F7F7F7"/><path fill-rule="evenodd" clip-rule="evenodd" d="M36.436 112.731v-.562h-6.365v.562l.188.187 2.807 1.498c.188.187.562.187.75 0l2.433-1.498.187-.187z" fill="#D6D6D6"/><path fill-rule="evenodd" clip-rule="evenodd" d="M33.066 114.041l-2.808-1.497c-.187-.188-.187-.375 0-.562l2.434-1.498c.187-.187.562-.187.749 0l2.808 1.498c.187.187.187.374 0 .374l-2.434 1.685c-.187.187-.561.187-.748 0z" fill="#F7F7F7"/><path fill-rule="evenodd" clip-rule="evenodd" d="M32.318 110.297v-.561l-6.365.187v.374l.187.187 2.808 1.685h.749l2.433-1.685c.188 0 .188-.187.188-.187z" fill="#D6D6D6"/><path fill-rule="evenodd" clip-rule="evenodd" d="M28.948 111.608l-2.808-1.498c-.187-.187-.187-.374 0-.562l2.434-1.497c.187-.187.561-.187.748 0l2.808 1.497c.188.188.188.375 0 .562l-2.433 1.498c-.187.187-.562.187-.749 0z" fill="#F7F7F7"/><path fill-rule="evenodd" clip-rule="evenodd" d="M28.2 107.864l-.188-.375h-6.178v.375c0 .187.188.187.188.374l2.808 1.498c.187.187.561.187.748 0l2.434-1.685s.187 0 .187-.187z" fill="#D6D6D6"/><path fill-rule="evenodd" clip-rule="evenodd" d="M24.642 109.361l-2.62-1.685c-.188 0-.188-.374 0-.374l2.433-1.685h.75l2.807 1.685c.187 0 .187.187 0 .374l-2.434 1.685h-.936z" fill="#F7F7F7"/><path fill-rule="evenodd" clip-rule="evenodd" d="M24.08 105.617l-.186-.561h-6.178v.561l.187.187 2.808 1.498c.188.187.562.187.75 0l2.433-1.498c0-.187.187-.187.187-.187z" fill="#D6D6D6"/><path fill-rule="evenodd" clip-rule="evenodd" d="M20.524 106.928l-2.62-1.498c-.188-.187-.188-.374 0-.562l2.433-1.497c.187-.187.561-.187.749 0l2.62 1.497c.375.188.375.375.188.375l-2.434 1.685c-.374.187-.562.187-.936 0z" fill="#F7F7F7"/><path fill-rule="evenodd" clip-rule="evenodd" d="M99.71 148.299c-.749 0-1.498-.187-2.06-.562l-5.615-3.182c-1.123-.749-1.123-1.872 0-2.621l3.182-1.685c-1.31.936-2.246 1.498-2.433 2.247v-.188.188c-.188.187-.188.187-.188.374 0 .562.188 1.123.75 1.31l3.181 1.872c.562.375 1.31.562 1.873.562h.187l.187.187.374.187h.562v-.187.187h.374l14.415-8.236c.374-.188.374-.375.374-.749v-.187a.404.404 0 00.375-.375h.187c1.123.749 1.123 1.872 0 2.621l-13.479 7.675c-.561.375-1.31.562-2.246.562z" fill="#E5E5E5"/><path fill-rule="evenodd" clip-rule="evenodd" d="M115.06 136.505c.188.187.188.562-.187.749l-4.305 1.685c-1.685.561-3.37 1.497-4.868 2.621l-5.054 3.744c-1.123.748-2.808.936-4.118.187l-3.183-1.872c-.561-.375-.749-.936-.561-1.311-.375.749-.188 1.498.561 1.872l3.183 1.872c1.31.749 2.995.749 4.118-.187l5.054-3.744c1.498-1.123 3.183-2.059 4.868-2.621l4.305-1.684c.562-.188.749-1.124.187-1.311z" fill="#C7C7C7"/><path fill-rule="evenodd" clip-rule="evenodd" d="M114.873 137.254l-4.305 1.685c-1.685.561-3.37 1.497-4.868 2.621l-5.054 3.744c-1.123.748-2.808.936-4.118.187l-3.183-1.872c-2.06-1.123.936-2.621 5.429-5.991 2.059-1.497 9.173-5.241 11.419-3.931l4.68 2.621c.375.374.375.749 0 .936z" fill="#EDEDED"/><path fill-rule="evenodd" clip-rule="evenodd" d="M98.4 146.614l.748.374h.562v-.561c-.374 0-.936.187-1.31.187z" fill="#737373"/><path fill-rule="evenodd" clip-rule="evenodd" d="M114.873 137.816l-4.305 1.684c-1.685.562-3.37 1.498-4.868 2.621l-5.054 3.744c-.187.187-.562.375-.936.562v.561h.374l14.415-8.236c.374-.188.374-.375.374-.749v-.187z" fill="gray"/><path fill-rule="evenodd" clip-rule="evenodd" d="M98.774 146.801l-.187-.187.187.187z" fill="#C3C3C3"/><path fill-rule="evenodd" clip-rule="evenodd" d="M99.335 146.988c-.187 0-.374-.187-.561-.187l-.187-.187h-.188c.375 0 .936-.187 1.31-.187v.374c-.186 0-.374.187-.374.187z" fill="#626262"/><path fill-rule="evenodd" clip-rule="evenodd" d="M99.71 146.801v-.374c.374-.187.749-.375.936-.562l5.054-3.744c1.498-1.123 3.183-2.059 4.868-2.621l4.305-1.684v.187l-4.118 1.685c-1.685.561-3.37 1.497-4.868 2.62l-4.867 3.744c-.374.188-.936.562-1.31.749z" fill="#6D6D6D"/><path fill-rule="evenodd" clip-rule="evenodd" d="M112.252 134.82c-1.872.375-4.492 1.311-6.177 2.247v.187h.187c1.685-.936 4.306-2.059 6.178-2.246l-.188-.188z" fill="#B8B8B8"/><path fill-rule="evenodd" clip-rule="evenodd" d="M106.075 137.254h.187c1.685-.936 4.306-2.059 6.178-2.246-2.06.187-4.68 1.31-6.365 2.246z" fill="#fff"/><path fill-rule="evenodd" clip-rule="evenodd" d="M60.21 64.246l7.114 3.931c1.872 1.123 4.867 1.123 6.552 0 .936-.374 1.498-1.123 1.498-1.872v10.296c0 .562-.562 1.31-1.498 1.872-1.685.936-4.68.936-6.552 0l-7.113-4.118c-.75-.562-1.31-1.31-1.31-1.872V62.187c0 .748.56 1.497 1.31 2.059z" fill="#3E4651"/><path fill-rule="evenodd" clip-rule="evenodd" d="M66.763 60.315l7.113 4.118c1.872 1.123 1.872 2.808 0 3.744-1.685 1.123-4.68 1.123-6.552 0l-7.113-3.931c-1.685-1.123-1.685-2.808 0-3.931 1.872-.936 4.867-.936 6.552 0z" fill="#5C6D7F"/><path fill-rule="evenodd" clip-rule="evenodd" d="M60.96 56.383c0-1.872.935-3.556 2.62-4.492 1.685-.936 3.557-.936 5.055 0 2.808 1.684 4.492 4.68 4.492 7.862v6.552c0 .374-.187.749-.748 1.123-.936.562-2.434.562-3.557 0-.375-.374-.749-.749-.749-1.123v-6.552c0-1.31-.749-2.62-1.872-3.37v5.804c0 .374-.374.748-.749 1.123-1.123.561-2.62.561-3.744 0-.374-.375-.749-.749-.749-1.123v-5.804z" fill="#F5B659"/><path fill-rule="evenodd" clip-rule="evenodd" d="M63.955 57.694c0-1.123 1.31-1.872 2.246-1.31v5.803c0 .374-.374.748-.749 1.123-.374.187-.936.374-1.497.374v-5.99zm-2.434 11.793l.936-.936v2.996h-.936l-.374-.75.374-1.31z" fill="#E69245"/><path fill-rule="evenodd" clip-rule="evenodd" d="M60.023 68.739l.936-1.124 1.498.936-.936.936-.374 1.31.374.75-1.498-.936-.374-.562.374-1.31z" fill="#F5C959"/><path fill-rule="evenodd" clip-rule="evenodd" d="M61.147 70.798l-1.498-.749.374.562 1.498.936-.374-.75z" fill="#F5B659"/><path fill-rule="evenodd" clip-rule="evenodd" d="M63.955 70.798l.936-.936v3.182l-.936-.187-.562-.561.562-1.498z" fill="#E69245"/><path fill-rule="evenodd" clip-rule="evenodd" d="M62.27 70.049l1.123-1.123 1.498.936-.936.936-.562 1.497.562.562-1.685-.936-.375-.562.375-1.31z" fill="#F5C959"/><path fill-rule="evenodd" clip-rule="evenodd" d="M63.393 72.296l-1.498-.937.375.562 1.685.936-.562-.561z" fill="#F5B659"/><path fill-rule="evenodd" clip-rule="evenodd" d="M66.201 72.295l.936-1.123v3.183l-.936-.188-.374-.561.374-1.31z" fill="#E69245"/><path fill-rule="evenodd" clip-rule="evenodd" d="M64.703 71.36l.936-1.124 1.498.936-.936 1.123-.374 1.31.374.562-1.498-.936-.374-.561.374-1.31z" fill="#F5C959"/><path fill-rule="evenodd" clip-rule="evenodd" d="M65.827 73.606l-1.498-.936.374.561 1.498.937-.374-.562z" fill="#F5B659"/><path fill-rule="evenodd" clip-rule="evenodd" d="M69.57 79.035v-10.11c.937.188 2.247.188 3.183-.186v10.108c-.936.375-2.246.375-3.182.188zm3.557-.188V68.552c.375 0 .562-.187.75-.374.374 0 .56-.187.748-.374V78.1c-.187 0-.374.187-.749.374-.187 0-.374.187-.749.374z" fill="#4A5461"/><path fill-rule="evenodd" clip-rule="evenodd" d="M71.443 65.369c.374 0 .748-.374.748-.936v-4.68c0-.374-.374-.749-.748-.749-.562 0-.936.375-.936.749v4.68c0 .562.374.936.936.936zm-1.123-8.237c.187 0 .374 0 .374-.187.561-.187.561-.749.374-1.123-.749-.936-1.497-1.685-2.433-2.247-.375-.374-.936-.187-1.124.188-.374.561-.187 1.123.188 1.31.748.374 1.31.936 1.872 1.685.187.187.374.374.748.374z" fill="#F5C959"/><path fill-rule="evenodd" clip-rule="evenodd" d="M104.016 84.09l-17.41-10.11v2.06l-.749-.188-2.06-9.173 20.219 11.607v5.803z" fill="#fff"/><path fill-rule="evenodd" clip-rule="evenodd" d="M104.016 72.857l-17.41-10.296V60.69l-.749-.749-2.06 6.927 20.219 11.793v-5.803zM31.569 47.96l18.158 10.483V56.57l.75.187 1.871 9.173-20.78-12.168v-5.804z" fill="#fff"/><path fill-rule="evenodd" clip-rule="evenodd" d="M31.569 59.191l18.158 10.67v2.06l.75.562 1.871-6.74-20.78-12.355v5.803z" fill="#fff"/></svg>