<svg width="120" height="162" fill="none" xmlns="http://www.w3.org/2000/svg"><path opacity=".1" d="M34.75 140.503l10.75-5.25 8.75-2.25 31.75 7.5 13.75 6.5-27.375 14.875-37.625-21.375z" fill="#000"/><path opacity=".1" fill-rule="evenodd" clip-rule="evenodd" d="M21.706 114.254c6.682 0 12.047 3.565 12.047 7.948 0 4.384-5.365 7.949-12.047 7.949-6.633 0-11.998-3.565-11.998-7.949 0-4.383 5.365-7.948 11.998-7.948z" fill="#000"/><path opacity=".1" fill-rule="evenodd" clip-rule="evenodd" d="M33.07 103.03c8.877 0 16.095 4.769 16.095 10.646 0 5.877-7.218 10.646-16.095 10.646-8.877 0-16.095-4.769-16.095-10.646 0-5.877 7.218-10.646 16.095-10.646zm53.602 15.078c-5.12 0-10.242-1.108-14.144-3.324-7.804-4.48-7.804-11.706 0-16.138 2.39-1.349 5.17-2.312 8.194-2.842.439.048.927.097 1.366.097 1.219 0 2.487-.193 3.463-.578.39-.049.731-.049 1.121-.049.78 0 1.61.049 2.39.097.05.144.05.289.05.433.194 1.686.39 3.228.633 4.577.195 1.252.488 2.312.78 3.034.147.434.683.771 1.415.916l.146 2.264s-1.17 2.023-5.17 4.769c-1.22.819-1.317 4.094 2.488 4.094 1.512 0 5.853-1.782 8.34-3.324.293-.192.537-.385.78-.53.537-.385.878-.77 1.025-1.011 0-.723-.05-1.397-.147-1.975-.097-.964-.341-1.783-.683-2.361l-.195-1.734-.097-1.108c.78-.481 1.317-1.156 1.317-1.878l-.147-3.517c.439.193.83.386 1.22.626 7.804 4.432 7.804 11.658 0 16.138-3.902 2.216-9.023 3.324-14.145 3.324z" fill="#000"/><path fill-rule="evenodd" clip-rule="evenodd" d="M65.505 41.467c5.462-3.71 6.584-3.228 11.998-8.478 1.22-1.446 2.146-2.65 3.024-3.95 1.463-2.072 2.877-4.288 5.072-7.804 4.341-6.552-2.682-9.683-7.56-4.191-1.95 2.216-4.39 7.033-6.925 11.61-5.22 5.009-.976 2.022-8.78 9.537-1.024 1.493 2 4.143 3.17 3.276z" fill="#1D9F3A"/><path fill-rule="evenodd" clip-rule="evenodd" d="M65.505 41.467c.439-2.505 8.584-5.588 9.023-8.141.146-.723 3.024-7.13 3.853-9.105-.147 1.927-.195 3.95-.195 6.022 0 .626 0 1.252.048 1.878-.243.29-.487.578-.731.867-5.414 5.251-6.536 4.77-11.998 8.479z" fill="#148B2E"/><path fill-rule="evenodd" clip-rule="evenodd" d="M85.94 93.396l.391 3.757c.585 1.012.78 2.601.83 4.335-.635 1.494-8.146 4.914-10.195 4.866-3.755 0-3.658-3.276-2.438-4.095 4-2.746 5.17-4.769 5.17-4.769l-.293-4.094h6.536z" fill="#1E1D1F"/><path fill-rule="evenodd" clip-rule="evenodd" d="M79.551 52.594l-1.755 17.198c-.098 3.372-.244 6.888-.342 10.164 0 .867-.049 1.734-.049 2.601v1.493c-.048.916-.048 1.783-.048 2.65 0 3.468.195 6.214.585 7.707.585 2.12 9.072 2.12 9.413-.963.146-1.927.244-3.854.342-5.78.048-.82.097-1.59.097-2.361.049-.626.049-1.204.098-1.782v-2.313c.049-3.757-.195-7.177-.83-9.923 1.561-5.54 2.293-10.935 2.342-16.186l-9.853-2.505z" fill="#232246"/><path fill-rule="evenodd" clip-rule="evenodd" d="M79.551 52.594l-1.755 17.198c-.098 3.372-.244 6.888-.342 10.164 0 .867-.049 1.734-.049 2.601v1.493c-.048.916-.048 1.783-.048 2.65 0 3.468.195 6.214.585 7.707.585 2.12 9.072 2.12 9.413-.963.146-1.927.244-3.854.342-5.78.048-.82.097-1.59.097-2.361.049-.626.049-1.204.098-1.782v-2.313c.049-3.757-.195-7.177-.83-9.923 1.561-5.54 2.293-10.935 2.342-16.186l-9.853-2.505z" fill="#148B2E"/><path fill-rule="evenodd" clip-rule="evenodd" d="M89.404 115.458c1.463 0 5.804-1.782 8.34-3.324.927-.626 1.61-1.156 1.805-1.541-.05-1.782-.244-3.324-.83-4.384l-.292-2.794-.098-.915h-6.535l.146 1.831.146 2.264s-1.17 2.023-5.17 4.769c-1.22.819-1.317 4.094 2.488 4.094z" fill="#1E1D1F"/><path fill-rule="evenodd" clip-rule="evenodd" d="M79.21 55.388c.439 3.228 2.878 4.866 5.95 5.877l2.634 17.68c.244 3.371.488 6.888.732 10.115.049.915.146 1.782.195 2.602.049.481.097 1.011.146 1.493.049.915.146 1.782.244 2.65.195 1.685.39 3.227.634 4.576.195 1.252.488 2.312.78 3.034.147.434.683.771 1.415.916 1.317.337 3.365.24 4.975-.289.585-.193 1.073-.386 1.463-.627.83-.481 1.366-1.156 1.366-1.878a223.395 223.395 0 00-.244-5.83c-.049-.77-.098-1.589-.147-2.36 0-.578-.097-1.204-.097-1.734-.098-.819-.146-1.59-.244-2.312-.341-3.757-.878-7.13-1.853-9.779.975-5.684.536-11.802 0-17.004.78-2.36 1.17-5.347.731-8.671l-.292-1.734-.293-.048-.537-.145-2.438-.626-13.9-3.42-.781-.193-.293-.096c0 .578-.048 1.156-.048 1.734-.05 1.927 0 3.805-.098 6.07z" fill="#1D9F3A"/><path fill-rule="evenodd" clip-rule="evenodd" d="M79.259 49.174l.049.145c.926 2.697 8.242 5.443 13.607 5.636 2.146.096 3.951-.241 4.975-1.108.05-.578 0-1.975 0-2.312v-.097a6.011 6.011 0 01-1.121.482c-.83.24-1.854.433-2.927.433-4.438.145-10.291-1.637-13.413-4.48a6.701 6.701 0 01-1.121-1.252l-.05.386c-.048.867.05 1.493 0 2.167z" fill="#663C1E"/><path fill-rule="evenodd" clip-rule="evenodd" d="M78.966 45.706c0 .433.098.867.293 1.3.097.241.244.482.39.675 2.292 3.083 9.462 4.913 13.998 5.01.78 0 1.463-.049 2.097-.097.683-.144 1.17-.289 1.561-.53a2.07 2.07 0 00.585-.53c.634-.77.83-1.974 1.073-3.805.244-2.457.488-4.673.683-6.696.878-9.538.927-14.981.683-17.004-2.048-2.409-5.658-4.962-8.633-6.84-4.048-1.783-7.706-2.891-9.852-2.65-5.853.674-2.878 31.167-2.878 31.167z" fill="#533AAB"/><path fill-rule="evenodd" clip-rule="evenodd" d="M78.966 45.706c0 .433.098.867.293 1.3.097.241.244.482.39.675 2.292 3.083 9.462 4.913 13.998 5.01.78 0 1.463-.049 2.097-.097.683-.144 1.17-.289 1.561-.53a2.07 2.07 0 00.585-.53c.634-.77.83-1.974 1.073-3.805.244-2.457.488-4.673.683-6.696.878-9.538.927-14.981.683-17.004-2.048-2.409-5.658-4.962-8.633-6.84-4.048-1.783-7.706-2.891-9.852-2.65-5.853.674-2.878 31.167-2.878 31.167z" fill="#533AAB"/><path fill-rule="evenodd" clip-rule="evenodd" d="M78.966 45.706c0 .433.098.867.293 1.3.097.241.244.482.39.675 2.292 3.083 9.462 4.913 13.998 5.01.78 0 1.463-.049 2.097-.097.683-.144 1.17-.289 1.561-.53a2.07 2.07 0 00.585-.53c.634-.77.83-1.974 1.073-3.805.244-2.457.488-4.673.683-6.696.878-9.538.927-14.981.683-17.004-2.048-2.409-5.658-4.962-8.633-6.84-4.048-1.783-7.706-2.891-9.852-2.65-5.853.674-2.878 31.167-2.878 31.167z" fill="#323065"/><path fill-rule="evenodd" clip-rule="evenodd" d="M78.966 45.706c0 .433.098.867.293 1.3.097.241.244.482.39.675 2.292 3.083 9.462 4.913 13.998 5.01.78 0 1.463-.049 2.097-.097.683-.144 1.17-.289 1.561-.53a2.07 2.07 0 00.585-.53c.634-.77.83-1.974 1.073-3.805.244-2.457.488-4.673.683-6.696.878-9.538.927-14.981.683-17.004-2.048-2.409-5.658-4.962-8.633-6.84-4.048-1.783-7.706-2.891-9.852-2.65-5.853.674-2.878 31.167-2.878 31.167z" fill="#1D9F3A"/><path fill-rule="evenodd" clip-rule="evenodd" d="M97.744 112.134c.293-.192.537-.385.78-.53-.243.145-.487.338-.78.53zm1.658-3.516c-.146-.964-.341-1.783-.683-2.409l-.195-1.686.195 1.734c.342.578.586 1.397.683 2.361z" fill="#3A8B97"/><path fill-rule="evenodd" clip-rule="evenodd" d="M97.744 112.134c-.488-2.697-.78-5.395-.83-8.093.586-.192 1.074-.385 1.464-.626l.146 1.108.195 1.686c.342.626.537 1.445.683 2.409.098.578.147 1.252.147 1.975-.147.241-.488.626-1.025 1.011-.243.145-.487.338-.78.53z" fill="#08080A"/><path fill-rule="evenodd" clip-rule="evenodd" d="M96.915 104.042V102.5c.049-1.108.146-2.216.244-3.372.146-1.59.39-3.18.39-4.817.049-4.576-1.61-9.008-3.366-13.296-.34-.818-.731-1.686-.78-2.6-.097-.627 0-1.301.098-1.88.439-3.468 2.438-16.137-2.341-21.725.585.097 1.17.145 1.755.145h.586c1.853 0 3.463-.337 4.39-1.108.146.963.194 1.878.194 2.794 0 2.216-.341 4.19-.926 5.877.292 2.938.585 6.214.585 9.538 0 2.505-.195 5.01-.585 7.466.975 2.65 1.512 6.022 1.853 9.779.098.723.146 1.493.244 2.312 0 .53.097 1.156.097 1.734.05.771.098 1.59.147 2.36.097 1.928.195 3.855.244 5.83 0 .722-.537 1.397-1.317 1.878h-.049c-.39.241-.878.434-1.463.627z" fill="#148B2E"/><path fill-rule="evenodd" clip-rule="evenodd" d="M93.5 54.955h-.585c-.585 0-1.17-.048-1.755-.145-1.317-1.541-3.122-2.553-5.658-2.697.195-.241.439-.434.683-.675 2.536.771 5.267 1.204 7.462 1.253h.293c.683 0 1.268-.049 1.804-.097.683-.144 1.17-.289 1.561-.53a2.07 2.07 0 00.585-.53c0 .193.05.82.05 1.35 0 .385-.05.722-.05.963-.926.77-2.536 1.108-4.39 1.108z" fill="#522F15"/><path fill-rule="evenodd" clip-rule="evenodd" d="M93.94 52.69h-.293c-2.195-.047-4.926-.481-7.462-1.252 2.975-2.89 9.462-4.769 9.462-8.623 0-4.335-1.073-10.5-.878-14.836 1.17 3.709 3.511 8.622 4.633 12.332.098.192.147.481.244.722-.195 2.023-.439 4.24-.683 6.696-.243 1.83-.439 3.035-1.073 3.806a2.07 2.07 0 01-.585.53c-.39.24-.878.385-1.56.53-.537.047-1.123.096-1.805.096z" fill="#148B2E"/><path fill-rule="evenodd" clip-rule="evenodd" d="M102.67 27.786c1.366 4.913 2.244 9.634 2.878 12.91l-7.414 2.12c-1.56-4.48-3.219-8.912-3.511-11.562-.78-7.322 6.096-10.983 8.047-3.468z" fill="#1D9F3A"/><path fill-rule="evenodd" clip-rule="evenodd" d="M85.21 54.04c-.391.24-.83.53-1.318.626a3.995 3.995 0 01-1.073 0l-2.682-.145c-.293 0-.586-.048-.83-.096-.633-.096-1.17-.434-1.609-.867a.77.77 0 01-.244-.53l.147-.24c.292-.338.829-.386 1.268-.483.829-.144 1.61-.578 2.34-1.06.684-.481 1.366-1.06 2.098-1.493-.488.386-1.024.723-1.658.867-.634.145-1.317 0-1.756-.481l-.049-.193.049-.145c.146-.289.439-.53.78-.626.244-.048.537-.048.78-.144.342-.049.586-.29.879-.434a5.586 5.586 0 013.999-.819c.244.048.488.097.732.193.585.289.975.819 1.316 1.349.098.096.147.24.195.337v.337c-.146.915-.633 1.686-1.219 2.36-.634.675-1.365 1.157-2.146 1.686z" fill="#FFAE75"/><path fill-rule="evenodd" clip-rule="evenodd" d="M64.92 49.56l9.315 5.347c.195.096.488.096.732 0l13.169-7.563c.487-.241.487-.964 0-1.205l-9.316-5.347c-.195-.096-.488-.096-.732 0L64.92 48.355c-.487.241-.487.964 0 1.205z" fill="#878583"/><path fill-rule="evenodd" clip-rule="evenodd" d="M66.675 48.307l8.584 4.913 11.706-6.647-8.584-4.914-11.706 6.648z" fill="#fff"/><path fill-rule="evenodd" clip-rule="evenodd" d="M85.94 48.644c.196 1.638 1.903 2.65 1.903 2.65 1.463.385 3.121.096 5.024-.578 4.145-1.783 11.559-6.07 11.413-6.118 1.414-1.06 2.048-3.083 1.024-4.576-3.804-5.444-7.072-1.301-15.998 5.491-1.95 1.927-3.511 2.023-3.365 3.131z" fill="#1D9F3A"/><path fill-rule="evenodd" clip-rule="evenodd" d="M67.748 50.138l4.731 2.697c.342.193.244.53-.195.626l-.78.193c-.342.096-.732.048-.976-.096l-.683-.386-1.316.097-1.61-.916.195-.722-.634-.386c-.244-.144-.341-.385-.195-.578l.341-.433c.195-.24.78-.29 1.122-.096z" fill="#DAD6D3"/><path fill-rule="evenodd" clip-rule="evenodd" d="M67.553 51.294v.096l2.731 1.59h.195v-.145l-2.73-1.541h-.196zm.39-.193v.096l2.732 1.542h.195v-.096L68.138 51.1h-.195zm.391-.241v.096l2.73 1.542h.196v-.096l-2.731-1.542h-.195z" fill="#535753"/><path fill-rule="evenodd" clip-rule="evenodd" d="M71.796 52.931v.241h.44v-.24h-.44zm-4.731-2.697v.24h.39v-.24h-.39z" fill="#878583"/><path fill-rule="evenodd" clip-rule="evenodd" d="M79.893 49.8c.146-.289.439-.53.78-.626.244-.048.537-.048.78-.144.342-.049.586-.29.879-.434a5.586 5.586 0 013.999-.819c.244.048.488.097.732.193.585.289.975.819 1.316 1.349.098.096.147.24.195.337v.337c-.146.915-.633 1.686-1.219 2.36-.634.675-1.365 1.157-2.146 1.686-.244.145-.488.29-.78.434l-1.22-3.516s-.39-.578-.634-.675c-.292.145-.634.241-.926.337-2.146.482-1.805-.77-1.756-.819zM61.749 38.143c1.22 0 2.097-.578 3.024.433.83.867 1.073 1.686.146 2.505-.536.482-2.585 3.131-3.316 3.228-.44.048-.732-.048-1.122.096-.342.145-.683.337-.927.578-.244.241-.634.434-.927.241-.097-.096-.39-.77 1.025-1.927.292-.24-2.293 1.156-4.39 2.794-.39.29-1.317.096-.878-.867.634-.915 1.463-1.493 2.39-2.168-.293-.433-.732-1.397-.683-1.926.098-.627 1.756-2.554 2.39-2.843.488-.289 2.731-.144 3.268-.144zm30.484-23.604v.385c0 .337.048.82.097 1.3.049.386.049.82.098 1.109.048.289.048.53.048.626 0 1.06-.877 1.686-1.61 2.12-1.365.867-3.608 1.686-4.828 1.011l-.097-.096-.147-.145-.097-.096-.098-.145-.195-.337c0-.24-.195-1.108-.244-1.445l-.243.048c-.683.097-1.22-.048-1.659-.385l-.244-.193c-.487-.53-.731-1.204-.926-1.927-.147-.337-.244-.722-.342-1.06v-.096c-.146-.578-.292-1.204-.439-1.83a41.615 41.615 0 01-.683-4.191c-.146-1.494-.146-3.131.78-4.336.098-.192.196-.289.293-.337.586-.626 1.415-1.011 2.244-1.349 1.853-.722 4-.963 5.804-.048 1.22.675 1.805 1.638 2.439 2.939.585 1.252.634 3.13.585 4.48-.098 2.649-.39 2.36-.536 3.998z" fill="#FFAE75"/><path fill-rule="evenodd" clip-rule="evenodd" d="M85.99 21.042c-.244-.145-.44-.434-.586-.77l.195.337.098.144.097.096.147.145.049.048zm-.732-1.542c-.049-.288-.098-.53-.098-.674 0 .145.05.386.098.674z" fill="#A43A5E"/><path fill-rule="evenodd" clip-rule="evenodd" d="M86.087 21.09c-.049 0-.049-.048-.097-.048l-.05-.048-.145-.145-.098-.096-.098-.145-.195-.337a2.9 2.9 0 00-.146-.77c-.049-.29-.098-.53-.098-.675.44-.144.83-.193 1.269-.337a6.593 6.593 0 003.853-3.083 5.052 5.052 0 01-.78 3.565c-.732 1.011-1.854 1.782-3.073 2.071l-.342.048z" fill="#E89F6C"/><path fill-rule="evenodd" clip-rule="evenodd" d="M82.38 4.567c-.244.53.293 1.108.83 1.205.536.096 1.121-.145 1.609-.482.439-.29.878-.674 1.463-.819 1.366-.434 2.878.674 3.366 2.071.536 1.35.292 2.842.048 4.288.39 0 .634-.386.83-.675.243-.337.682-.578.926-.337.147.096.147.29.195.434.05.674 0 1.348-.097 1.975-.049.289-.147.578-.293.77-.195.193-.488.29-.732.145-.146.867.634 1.686 1.512 1.782h.196v-.385c.146-1.638.438-1.349.536-3.998.049-1.35 0-3.228-.585-4.48-.634-1.301-1.22-2.264-2.439-2.939-1.805-.915-3.95-.674-5.804.048-.927.338-1.853.82-2.487 1.59.292-.24.585-.337.926-.193z" fill="#000"/><path fill-rule="evenodd" clip-rule="evenodd" d="M85.014 14.539c-1.268 0-2.439-.77-3.707-1.156a41.648 41.648 0 01-.683-4.191c-.048-.434-.048-.915-.048-1.349 0-1.108.146-2.168.829-2.987.049-.096.097-.192.146-.24 0 .048-.049.096-.097.144.097-.096.244-.145.341-.193.195.048.341.097.537.193-.05.434.39.915.877 1.012h.244c.342 0 .683-.097.976-.241 1.853.674 3.658 1.397 5.511 2.12.049.722 0 1.493-.097 2.263-.44 1.108-1.122 2.168-1.951 3.083-.634.723-1.512 1.397-2.488 1.542h-.39z" fill="#E59C69"/><path fill-rule="evenodd" clip-rule="evenodd" d="M89.843 9.914c.097-.77.146-1.541.097-2.264.147.048.342.145.488.193a7.723 7.723 0 01-.585 2.071zm-6.39-4.142h-.244c-.487-.097-.926-.578-.877-1.012.682.24 1.414.482 2.097.77a2.238 2.238 0 01-.976.242zm-2-1.012c.05-.048.098-.096.098-.145.049-.048.098-.048.147-.096.048 0 .048 0 .097.048-.097.048-.244.097-.341.193z" fill="#000"/><path fill-rule="evenodd" clip-rule="evenodd" d="M92.525 6.446v.77l-.195.242-.585.722a4.42 4.42 0 01-1.024.867l-.342.29h-.097l-.147.144-.146.048a1.468 1.468 0 01-.39.193l-.342.144-.195.097-.195.096h-.097l-.244.096-.195.048-.147.049c-.146.048-.341.048-.487.096h-.098l-.341.048A31.44 31.44 0 0085.16 9.24c-1.414-.77-2.78-1.252-4.048-1.493-.244-.049-.439-.097-.634-.097l.146-1.734.098-1.204a2.317 2.317 0 01.878-1.686c2.78-2.12 5.804-2.409 9.072-.53 1.268.963 1.853 2.312 1.853 3.95z" fill="#1D9F3A"/><path fill-rule="evenodd" clip-rule="evenodd" d="M89.989 9.529s-3.073 2.023-4.585 3.18c-.634.481-1.804.77-2.585.192l-.146-.144a9.994 9.994 0 00-2.39-1.108l-.097-.049a10.11 10.11 0 00-2.049-.337c-.537 0-1.073.048-1.512.241l-.049-.144c.488-.53 1.951-1.831 2.39-2.313.732-.722 1.317-1.3 1.512-1.397 2.975-1.83 7.804 2.072 9.511 1.879z" fill="#148B2E"/><path fill-rule="evenodd" clip-rule="evenodd" d="M83.55 19.26c-.487-.193-.877-.627-1.12-1.06-.294-.482-.44-1.012-.635-1.493-.146-.482-.293-1.06 0-1.494.293-.385.83-.433 1.268-.433.683.096 1.366.337 1.902.722.634.434 1.22 1.156 2 1.253.78.096 1.56-.482 1.902-1.204.342-.675.39-1.494.44-2.313 0-.77.34-1.83.487-2.842.049-.337.244-.096.585-.096-.146 1.878.44 3.805-.195 5.54a5.358 5.358 0 01-1.902 2.36 7.855 7.855 0 01-2.878 1.156c-.585.096-1.268.144-1.853-.096z" fill="#000"/><path fill-rule="evenodd" clip-rule="evenodd" d="M83.014 16.418l1.025.289.243.048.196-.097-.147-.433a2.316 2.316 0 00-1.22-.53l-.34.048-.196.241.147.289.292.145zM45.02 60.735v1.686l-.293 1.253c-.195.482-.39.963-.731.867-.537-.145-.44-.53-.196-1.06a2.83 2.83 0 01.05-1.108c-.098-.385-.147-.722-.098-1.156 0-.145.048-.337.048-.482h1.22zm-4.195 3.421c-.293-.145-.293-.53-.146-.964-.147-.337-.147-.77-.098-1.156a3.009 3.009 0 01-.536-1.397v-.145l.195-.048 1.073-.144.195.867.146.723v1.204c-.049.482-.244 1.108-.585 1.108l-.244-.048z" fill="#FFAE75"/><path fill-rule="evenodd" clip-rule="evenodd" d="M43.8 60.88l.147 1.638-.195 1.3c-.196.482-.342.964-.683.916-.537-.049-.488-.482-.293-1.012-.049-.385-.097-.723-.049-1.156-.146-.434-.243-.964-.146-1.59l1.22-.096z" fill="#FFAE75"/><path fill-rule="evenodd" clip-rule="evenodd" d="M41.606 64.445c-.098-.193-.05-.482.097-.868l-.049-.289a2.313 2.313 0 010-.819c-.195-.481-.244-1.011-.146-1.637l1.17-.097.147 1.686v.723l-.049.289v.289c-.146.482-.439.963-.78.915-.195-.048-.293-.096-.39-.192z" fill="#FFAE75"/><path fill-rule="evenodd" clip-rule="evenodd" d="M45.069 60.88c-.244.096-.44.193-.683.24-.196.049-.44.049-.634.097-.732.096-1.561.048-2.244-.048-.537-.048-.976-.193-1.22-.337l-.243-.193c-.683-.819-1.122-2.216-1.268-3.565.097-.626.195-1.156.439-1.397l-.342-2.023c.098.29.342.53.732.723 1.024.481 2.829.481 3.17-.434l.146 1.3.927 2.458 1.17 3.034.05.145z" fill="#FFAE75"/><path fill-rule="evenodd" clip-rule="evenodd" d="M40.825 64.156c-.195-.097-.244-.29-.244-.482 0-.145.05-.337.098-.482a2.159 2.159 0 01-.147-.77c0-.145 0-.242.05-.386a3.009 3.009 0 01-.537-1.397l.244.193a2.44 2.44 0 00.585 1.348c-.244.338-.195.675-.049 1.06-.146.193-.195.626 0 .916z" fill="#E89F6C"/><path fill-rule="evenodd" clip-rule="evenodd" d="M39.07 58.616a9.45 9.45 0 01-.293-1.542c0-.192.048-.337.097-.53-.049.193-.097.338-.097.53a9.45 9.45 0 00.292 1.542z" fill="#46ABBA"/><path fill-rule="evenodd" clip-rule="evenodd" d="M40.289 60.832l-.244-.193c-.44-.482-.78-1.253-.976-2.023a9.447 9.447 0 01-.292-1.542c0-.192.048-.337.097-.53a.97.97 0 01.146-.53c.147.145.342.29.586.338-.293.578-.39 1.156-.244 1.83.146.723.341 1.397.683 1.879l3.17.53-2.975-.145.049.386zm3.804 3.708h-.098c.05-.48.293-1.01.39-1.396.147-.53.196-1.204.098-1.734l-.097-.29.439-.144a.371.371 0 00.195.096v1.349l-.293 1.253c-.195.433-.39.867-.634.867z" fill="#E89F6C"/><path fill-rule="evenodd" clip-rule="evenodd" d="M44.386 61.12l-.293-.385-.244-.385c-.146-.434-.049-1.012-.292-1.349-.244-.337-.878-.433-1.269-.626-.243-.096-.487-.193-.634-.434 0-.048-.048-.144-.097-.24h.097c.488.385 1.317.819 2.098.819h.146l.39.626.098.819c0 .337.048.578.195.77.097.097.146.193.244.241l-.44.145z" fill="#E89F6C"/><path fill-rule="evenodd" clip-rule="evenodd" d="M44.58 60.735c-.146-.192-.194-.433-.194-.77l-.098-.82-.39-.626c-1.073.049-2.39-.77-2.683-1.252-.097-.193-.146-.337-.146-.53 0-.674.732-1.204 1.756-1.686l.634.482 1.707 1.734.39 1.734c-.195.53-.195 1.108-.097 1.686 0 .241-.098.386-.244.434l-.195-.049c-.147-.048-.293-.144-.44-.337z" fill="#FFAE75"/><path fill-rule="evenodd" clip-rule="evenodd" d="M36.777 117.77c-1.415.049-5.56-1.686-7.999-3.179l-.293-.193c-.243-.144-.39-.289-.585-.385-.146-.145-.341-.289-.439-.385-.195-.193-.292-.338-.39-.482.049-.723.098-1.445.195-2.071.098-.819.293-1.542.585-2.072l.342-2.697.097-.868h6.195l-.147 1.783-.146 2.119s.049.097.195.289c.488.675 1.853 2.264 4.731 4.288 1.17.77 1.268 3.853-2.341 3.853z" fill="#393C39"/><path fill-rule="evenodd" clip-rule="evenodd" d="M37.07 27.352c.926 2.939 1.268 8.575 1.804 13.97 2.927 6.937.098 2.36 4.439 12.717.39 1.88-3.61 3.132-4.39 1.88-3.707-5.83-4.975-5.781-7.999-13.055-1.366-4.866-1.756-7.66-2.877-14.548-1.366-8.045 6.633-8.237 9.023-.963z" fill="#726B85"/><path fill-rule="evenodd" clip-rule="evenodd" d="M38.874 55.87l-1.122-1.59c.05.048.098.048.147.048.292.434.634.964.975 1.494v.048z" fill="#3D8B97"/><path fill-rule="evenodd" clip-rule="evenodd" d="M38.874 55.822c-.341-.53-.683-1.06-.975-1.494.292.097.585.145.926.241 0 .434.05.867.05 1.253zm-1.707-6.503a2.102 2.102 0 00-.341-.29l-1.22-.192c.05-.24.05-.53.098-.819h-.049c.293-4.624.488-10.79.098-15.945.048.145.146.29.195.53.244.77 1.365 13.103 1.56 13.97.196 1.204.293 1.83.39 2.457a2.316 2.316 0 00-.73.289z" fill="#585365"/><path fill-rule="evenodd" clip-rule="evenodd" d="M34.826 61.506l1.61 19.895c-.39 10.646-1.512 15.318-1.951 27.602-.098 2.505-7.853 3.517-7.658 1.638-.536-8.237-.927-18.45.244-25.82-1.61-5.78-2.731-14.74-2.78-20.184l10.535-3.131z" fill="#0A1214"/><path fill-rule="evenodd" clip-rule="evenodd" d="M23.706 127.405c-1.415.048-5.56-1.686-8-3.131l-.292-.241a6.092 6.092 0 01-.585-.386l-.293-.241-.146-.144c-.195-.193-.342-.337-.39-.482.048-.722.048-1.445.195-2.071v-.097c.097-.77.292-1.445.585-1.975l.293-2.697.097-.867h6.243l-.146 1.782-.146 2.12s.048.096.195.289l.097.192c.585.723 1.951 2.216 4.634 4.095 1.17.771 1.268 3.854-2.341 3.854z" fill="#393C39"/><path fill-rule="evenodd" clip-rule="evenodd" d="M34.924 64.878c-.488 3.372-2.976 5.058-6.195 6.166l-2.78 18.45c-2.146 10.742-2.877 15.607-4.243 29.192l-.049.24c0 .193-.097.338-.244.53-.731 1.06-3.414 1.927-5.414 1.783-.731-.048-1.365-.241-1.804-.627-.147-.096-.244-.24-.342-.385a1.58 1.58 0 01-.195-.722c.147-2.794.147-15.223.537-19.221.048-.241.048-.53.097-.77.05-.386.098-.723.147-1.109v-.289l.048-.337c.098-.77.244-1.59.342-2.36.049-.241.097-.434.146-.675.049-.192.049-.433.098-.626.048-.192.097-.433.146-.626.049-.193.098-.386.146-.626a3.98 3.98 0 01.195-.723c.195-.722.39-1.397.635-2.071-1.025-5.925-.586-12.332-.05-17.727-.243-.867-.487-1.783-.633-2.746l-.05-.241c-.097-.53-.146-1.06-.194-1.59-.049-.867-.098-1.782-.049-2.697.049-.771.146-1.59.293-2.36.048-.434.146-.82.195-1.253l.292-.048 3.073-.771 15.364-3.806.292-.048c.147 2.65.05 5.01.196 8.093z" fill="#191733"/><path fill-rule="evenodd" clip-rule="evenodd" d="M15.414 60.783c0 .049-.049 1.831 0 2.505 3.853 3.276 18.29-.915 19.412-4.865 0-.819.098-1.59 0-2.698-3.658 4.962-14.925 7.563-19.412 5.058z" fill="#000"/><path fill-rule="evenodd" clip-rule="evenodd" d="M30.583 61.313l-2.536.964v-1.542l2.536-.963v1.541z" fill="#fff"/><path fill-rule="evenodd" clip-rule="evenodd" d="M35.655 48.018c-.195 3.95-.488 6.744-.488 6.744v.24c-.048.675-.292 1.253-.731 1.831-2.39 3.228-9.852 5.155-14.584 5.251-.829 0-1.56-.048-2.194-.144a4.775 4.775 0 01-1.659-.53c-1.17-.723-1.365-2.12-1.707-4.48-.244-2.553-.487-4.914-.682-7.033-.78-8.334-.976-13.681-.83-16.427 0-.578.05-.963.05-1.349 2.194-2.505 5.95-5.154 9.071-7.08 4.195-1.928 7.999-3.084 10.243-2.795 4.291.482 4.048 16.379 3.511 25.772z" fill="#726B85"/><path fill-rule="evenodd" clip-rule="evenodd" d="M15.56 92.143c.147-.722.39-1.397.635-2.071-1.074-5.925-.586-12.332-.05-17.727-.243-.867-.487-1.783-.633-2.746l-.05-.241c-.097-.53-.146-1.06-.194-1.59-.049-.819-.098-1.686-.049-2.6-.049.914 0 1.781.049 2.6.048.53.097 1.06.195 1.59l.049.24c.146.964.39 1.88.634 2.747-.537 5.395-.976 11.802.049 17.727a25.748 25.748 0 00-.635 2.071zm-.341-26.976v-.048.048zm.195-4.287c-.244-.29-.439-.675-.585-1.108.146.433.341.819.585 1.108z" fill="#3D8B97"/><path fill-rule="evenodd" clip-rule="evenodd" d="M16 121.239c-.732-.048-1.366-.241-1.805-.626-.147-.097-.244-.241-.342-.386a1.58 1.58 0 01-.195-.722c.147-2.794.147-15.223.537-19.221.048-.241.048-.53.097-.77.05-.386.098-.723.147-1.108 0-.241.048-.434.048-.627.098-.77.244-1.59.342-2.36.049-.241.097-.434.146-.675.049-.192.049-.433.098-.626.048-.192.097-.433.146-.626.049-.193.098-.385.146-.626.05-.241.098-.482.195-.723.195-.722.39-1.397.635-2.071-1.025-5.925-.586-12.332-.05-17.727-.243-.867-.487-1.783-.633-2.746l-.05-.241c-.097-.53-.146-1.06-.194-1.59-.049-.819-.098-1.686-.049-2.6v-.097a19.94 19.94 0 01.195-1.783c.976.82 2.634 1.157 4.585 1.157h.585c-1.073 1.493-2.195 3.564-2.341 5.154-.78 9.73.78 21.147.78 21.147-.195 2.505-3.316 7.37-3.268 14.789.05 1.975.537 4.769.635 8.526v1.012c0 1.83-.098 3.902-.39 6.166z" fill="#1A192C"/><path fill-rule="evenodd" clip-rule="evenodd" d="M19.999 64.445c-1.951 0-3.61-.338-4.585-1.157 0-.192.049-.385.098-.578.048-.433.146-.819.195-1.252l.292-.048c.44.24.976.433 1.659.53a9.946 9.946 0 001.755.144h.44c.292.578.682 1.204 1.121 1.782-.146.193-.244.386-.39.579H20z" fill="#090908"/><path fill-rule="evenodd" clip-rule="evenodd" d="M35.606 48.837c.05-.24.05-.53.05-.819h.048c-.049.29-.049.578-.098.819z" fill="#46434F"/><path fill-rule="evenodd" clip-rule="evenodd" d="M19.413 62.084a9.973 9.973 0 01-1.755-.144 4.774 4.774 0 01-1.659-.53 2.07 2.07 0 01-.585-.53c-.244-.29-.439-.675-.585-1.108-.244-.723-.342-1.686-.537-2.842-.244-2.553-.487-4.914-.682-7.033-.39-4.24-.635-7.66-.78-10.405-.098-2.65-.098-4.673-.05-6.022.05 1.397.586 3.324 1.268 5.395 1.805-.963 4.975-1.348 6.78-2.312 1.073 3.035 5.024 8.478 5.609 8.96 1.17 1.012 3.073 1.156 4.585 1.445 1.512.337 3.072.723 4.633 1.06 0 .29 0 .578-.049.819l-13.559-1.975h-.146c-1.853 0-4.097 3.372-4.097 3.372-.195 1.83 1.463 4.094 3.95 4.287l13.462-.193c0 .29-.049.434-.049.434v.24h-.146c-4.146 0-8.34.53-12.486.53-.585 0-1.414-.144-2.146-.144-1.073 0-2.049.241-2.195 1.397-.097 1.156.342 2.602.878 3.854.244.53.537 1.012.78 1.445h-.439z" fill="#585365"/><path fill-rule="evenodd" clip-rule="evenodd" d="M12.146 39.733c2.097 6.406 3.56 8.333 6.194 12.669.342.433.683.77 1.025 1.156l6.243-5.3c-1.902-4.96-3.756-10.212-5.414-12.716-4.243-6.407-10.974-4.818-8.048 4.19z" fill="#726B85"/><path fill-rule="evenodd" clip-rule="evenodd" d="M19.852 26.34c-.146.29-.048.627.05.964.292 1.012.828 1.638 1.658 2.313 1.268 1.011 2.829 1.878 4.145 2.793a28.415 28.415 0 001.61-3.612c.732.626 1.902 1.493 2.634 2.12.146-1.109-.342-2.554-.586-3.662-.195-1.06-.78-2.12-1.755-2.746-.83-.53-1.854-.722-2.83-.674-.194.048-.536-.048-.926-.096-.878-.193-2-.338-2.536.53-.342.53-1.17 1.541-1.463 2.07z" fill="#575266"/><path fill-rule="evenodd" clip-rule="evenodd" d="M34.924 19.067c-.44 2.409-1.122 3.902-2.341 6.021-.39.627-.78 1.253-1.366 1.638l-.293.145c-.536.24-1.22.24-1.902-.097a31.335 31.335 0 00-.634 1.35 1.418 1.418 0 01-.439.48l-.341.145c-1.317.386-3.317-.915-4.439-2.023-.585-.626-1.317-1.445-1.073-2.456.098-.386 1.024-2.89 1.073-3.276.195-1.638-.244-.482-.244-3.661.049-1.349.39-3.083 1.22-4.191.926-1.156 1.61-2.12 2.926-2.457 1.951-.53 4.195-.289 5.853.867.829.578 1.365 1.445 1.804 2.36.586 1.398.586 3.324.196 5.155z" fill="#FFAE75"/><path fill-rule="evenodd" clip-rule="evenodd" d="M27.608 28.75l.34-.145a2.292 2.292 0 00-.34.145zm.34-.145z" fill="#4E4A5B"/><path fill-rule="evenodd" clip-rule="evenodd" d="M27.608 28.75l-.342-.145c-1.17-.53-2.048-1.542-2.487-2.698a4.87 4.87 0 01.048-3.613 6.482 6.482 0 003.024 3.854c.44.241.732.386 1.17.626a31.209 31.209 0 00-.633 1.35c-.049.096-.098.192-.195.24a.584.584 0 01-.244.24l-.341.145z" fill="#DD9868"/><path fill-rule="evenodd" clip-rule="evenodd" d="M28.876 33.181c-.05.29-.244.675-.537.82-.244.096-.439 0-.439-.29 0-.337.244-.674.488-.819.292-.144.488 0 .488.29zm.341 8.093c-.049.29-.244.675-.537.819-.243.144-.438 0-.438-.289 0-.337.243-.674.487-.819.293-.145.488 0 .488.29z" fill="#575266"/><path fill-rule="evenodd" clip-rule="evenodd" d="M29.558 49.367c-.048.289-.243.674-.536.819-.244.144-.439 0-.439-.29 0-.288.244-.674.488-.818.292-.145.487 0 .487.289z" fill="#130D4F"/><path fill-rule="evenodd" clip-rule="evenodd" d="M29.9 57.46c0 .337-.244.674-.537.819-.244.144-.439 0-.439-.29 0-.288.244-.674.488-.818.293-.097.488 0 .488.289z" fill="#575266"/><path fill-rule="evenodd" clip-rule="evenodd" d="M36.826 49.03c2.292 1.782 1.073 5.298-.878 5.298l-14.193.193c-2.488-.193-4.146-2.456-3.951-4.287 0 0 2.39-3.565 4.243-3.372l14.779 2.168z" fill="#726B85"/><path fill-rule="evenodd" clip-rule="evenodd" d="M45.946 51.92l-.097.24a2.1 2.1 0 01-.78 1.06c-.244.193-.244.145-.488.29-.78.433-1.415.53-2.195.915a4.015 4.015 0 01-.927.433 4.3 4.3 0 01-1.122 0l-.341-.048c-.878-.144-3.073-.722-3.902-1.06-.146-.048-.244-.192-.341-.433-.39-.867-.195-2.746.146-3.131.146-.193.341-.337.537-.482a5.804 5.804 0 013.901-.867c.293.048.634.144.927.048l.585-.096s-.146.481-.292 1.06c-.098.289-.147.674-.195.915.487.289 2.731.192 3.56 0l.244-.048c.39-.097.78-.193 1.073-.049.488.241-.195.916-.293 1.253z" fill="#FFAE75"/><path fill-rule="evenodd" clip-rule="evenodd" d="M40.874 54.907c-.195 0-.342 0-.537-.049l-.341-.048a26.652 26.652 0 01-1.17-.24c-.293-.097-.635-.145-.927-.241-.39-.097-.732-.193-1.025-.29a6.771 6.771 0 01-.78-.288c-.146-.049-.244-.193-.341-.434a22.08 22.08 0 004.682 1.108c.049-.819.049-1.59.049-2.409.292.337.244.82.244 1.253.048.433.146.915.536 1.06a.537.537 0 00.244.048c.195 0 .39-.048.536-.097a12.225 12.225 0 003.805-2.12c-.146.434-.39.772-.78 1.06-.244.193-.244.145-.488.29-.78.433-1.415.53-2.195.915-.098.096-.195.144-.293.193a3.41 3.41 0 01-.634.24c-.195.049-.39.049-.585.049zm1.805-3.662c-.196 0-.39 0-.586-.048-1.268-.096-2.536-.481-3.755-.867.292.048.536.048.78.048a5.98 5.98 0 002.439-.53c-.098.29-.147.675-.195.916.243.144.878.192 1.56.192.78 0 1.561-.096 2-.192l.244-.048c-.78.337-1.61.53-2.487.53z" fill="#E89F6C"/><path fill-rule="evenodd" clip-rule="evenodd" d="M46.95 48.736c-.638 2.017-1.154 2.51-2.886 2.51-1.732 0-3.463-.229-3.463-2.51 0-1.711 1.731-2.852 3.463-2.852s2.886 1.14 2.886 2.852z" fill="#FF2C38"/><path opacity=".2" d="M77.321 157.544l-36.96-21.076 25.14-14.45 36.96 21.077-25.14 14.449z" fill="#000"/><path d="M100.061 143.372l-22.13 12.474-34.94-19.852 22.24-12.02 34.83 19.398z" fill="#7A4100"/><path d="M43.571 130.897v6.035l-1.17-.672v-6.034l1.17.671z" fill="#D29142"/><path d="M66.401 117.88v6.035l-22.83 13.017v-6.035l22.83-13.017z" fill="#DFAD61"/><path d="M65.231 117.218l1.17.662-22.83 13.017-1.17-.671 22.83-13.008z" fill="#ECBD7A"/><path d="M43.571 121.297v6.035l-1.17-.672v-6.034l1.17.671z" fill="#D29142"/><path d="M66.401 108.28v6.035l-22.83 13.017v-6.035l22.83-13.017z" fill="#DFAD61"/><path d="M65.231 107.609l1.17.671-22.83 13.017-1.17-.671 22.83-13.017z" fill="#ECBD7A"/><path d="M47.961 136.26l-1.6.909-.81-13.788v-3.891l.81-.573 1.6-.899v18.242z" fill="#DFAD61"/><path d="M46.361 137.169l-1.61-.909v-18.242l1.61.899v18.252z" fill="#D29142"/><path d="M47.961 118.018l-1.6.899-1.61-.899 1.61-.918 1.6.918z" fill="#ECBD7A"/><path d="M98.411 137.465v6.035l1.17-.662v-6.034l-1.17.661z" fill="#DFAD61"/><path d="M65.231 118.552v6.034l33.18 18.914v-6.035l-33.18-18.913z" fill="#D29142"/><path d="M66.401 117.88l-1.17.672 33.18 18.913 1.17-.661-33.18-18.924z" fill="#ECBD7A"/><path d="M98.411 127.865v6.045l1.17-.672v-6.034l-1.17.661z" fill="#DFAD61"/><path d="M65.231 108.952v6.034l33.18 18.924v-6.045l-33.18-18.913z" fill="#D29142"/><path d="M66.401 108.28l-1.17.672 33.18 18.913 1.17-.661-33.18-18.924z" fill="#ECBD7A"/><path d="M98.411 143.5l-1.61.918-.8-13.797v-3.891l.8-.554 1.61-.918V143.5z" fill="#DFAD61"/><path d="M96.801 144.418l-1.6-.918v-18.242l1.6.918v18.242z" fill="#D29142"/><path d="M98.411 125.258l-1.61.918-1.6-.918 1.6-.919 1.61.919z" fill="#ECBD7A"/><path d="M66.801 125.515l-1.6.918-.8-13.807v-3.882l.8-.563 1.6-.918v18.252z" fill="#DFAD61"/><path d="M65.211 126.433l-1.62-.918v-18.252l1.61.918.01 18.252z" fill="#D29142"/><path d="M66.801 107.263l-1.6.918-1.61-.918 1.61-.909 1.6.909z" fill="#ECBD7A"/><path d="M46.451 131.776c-.4 2.075.52 4.168 2.58 4.8 2.06.623 4.02-.592 4.86-2.528.98-2.262.28-4.109-2.63-4.612-2.33-1.511-4.36.079-4.81 2.34z" fill="#FF3F4A"/><path d="M52.501 136.093c.67 1.995 2.53 3.377 4.63 2.933 2.1-.454 3.21-2.469 2.98-4.563-.27-2.449-1.8-3.724-4.59-2.746-2.78-.197-3.76 2.183-3.02 4.376z" fill="#9C251F"/><path d="M57.831 138.996c.9 1.916 2.9 3.072 4.94 2.39 2.04-.681 2.9-2.805 2.44-4.859-.54-2.4-2.21-3.486-4.87-2.212-2.78.118-3.49 2.587-2.51 4.681z" fill="#E31B25"/><path d="M62.131 140.991c-.41 2.074.52 4.168 2.58 4.8 2.06.632 4.02-.592 4.86-2.518.99-2.262.28-4.109-2.62-4.622-2.34-1.531-4.38.059-4.82 2.34z" fill="#FF3F4A"/><path d="M68.181 145.297c.68 1.996 2.53 3.378 4.63 2.924 2.1-.445 3.21-2.459 2.98-4.553-.27-2.459-1.8-3.724-4.59-2.746-2.78-.197-3.76 2.183-3.02 4.375z" fill="#9C251F"/><path d="M73.511 148.201c.9 1.906 2.9 3.072 4.94 2.39 2.04-.681 2.9-2.805 2.44-4.859-.55-2.41-2.21-3.496-4.87-2.222-2.79.138-3.49 2.597-2.51 4.691z" fill="#E31B25"/><path d="M96.791 137.623c.4 2.074-.52 4.168-2.58 4.8-2.06.623-4.02-.592-4.86-2.528-.99-2.262-.28-4.109 2.63-4.612 2.32-1.511 4.36.079 4.81 2.34z" fill="#FF3F4A"/><path d="M90.741 141.949c-.68 1.995-2.53 3.368-4.64 2.924-2.1-.455-3.2-2.469-2.97-4.563.27-2.45 1.8-3.724 4.59-2.746 2.78-.187 3.76 2.183 3.02 4.385z" fill="#9C251F"/><path d="M85.401 144.843c-.9 1.916-2.9 3.072-4.94 2.4-2.04-.681-2.91-2.805-2.44-4.869.54-2.4 2.21-3.486 4.87-2.212 2.79.118 3.5 2.577 2.51 4.681zm-22.34-27.654c.9 1.916 2.9 3.081 4.94 2.39 2.03-.672 2.9-2.805 2.44-4.849-.55-2.41-2.21-3.497-4.87-2.223-2.79.119-3.5 2.588-2.51 4.682z" fill="#E31B25"/><path d="M58.031 117.218c-.4 2.065.52 4.168 2.58 4.791 2.05.632 4.02-.583 4.86-2.519.98-2.262.28-4.118-2.63-4.622-2.33-1.511-4.36.079-4.81 2.35z" fill="#FF3F4A"/><path d="M54.061 122.512c.68 1.995 2.53 3.368 4.64 2.924 2.09-.455 3.2-2.469 2.97-4.563-.27-2.459-1.8-3.724-4.58-2.756-2.8-.178-3.77 2.193-3.03 4.395z" fill="#9C251F"/><path d="M51.601 125.643c.9 1.916 2.9 3.072 4.94 2.39 2.04-.681 2.9-2.805 2.44-4.859-.54-2.41-2.21-3.496-4.87-2.222-2.78.128-3.49 2.587-2.51 4.691z" fill="#E31B25"/><path d="M46.581 125.653c-.41 2.064.52 4.168 2.58 4.8 2.05.622 4.02-.593 4.86-2.528.98-2.262.28-4.109-2.63-4.613-2.34-1.521-4.37.079-4.81 2.341z" fill="#FF3F4A"/><path d="M67.651 119.362c.67 1.995 2.53 3.368 4.64 2.923 2.1-.454 3.2-2.469 2.97-4.563-.27-2.449-1.8-3.723-4.59-2.746-2.78-.187-3.76 2.193-3.02 4.386z" fill="#9C251F"/><path d="M62.661 123.421c.9 1.916 2.9 3.072 4.94 2.4 2.04-.682 2.91-2.805 2.44-4.869-.55-2.4-2.22-3.487-4.87-2.213-2.78.119-3.49 2.578-2.51 4.682z" fill="#E31B25"/><path d="M57.811 124.497c-.41 2.065.53 4.168 2.58 4.8 2.05.623 4.02-.592 4.86-2.528.99-2.252.28-4.109-2.62-4.612-2.33-1.521-4.38.069-4.82 2.34z" fill="#FF3F4A"/><path d="M52.621 129.969c.68 1.995 2.53 3.378 4.64 2.924 2.09-.455 3.2-2.46 2.97-4.563-.27-2.45-1.8-3.724-4.58-2.746-2.79-.188-3.77 2.192-3.03 4.385z" fill="#9C251F"/><path d="M73.111 123.352c.9 1.906 2.9 3.071 4.94 2.39 2.03-.682 2.9-2.805 2.44-4.859-.55-2.41-2.22-3.497-4.87-2.213-2.79.109-3.5 2.588-2.51 4.682z" fill="#E31B25"/><path d="M64.111 128.665c.67 1.995 2.53 3.368 4.63 2.924 2.1-.455 3.2-2.469 2.98-4.563-.27-2.45-1.81-3.724-4.59-2.746-2.79-.187-3.77 2.183-3.02 4.385z" fill="#9C251F"/><path d="M61.651 131.796c.9 1.916 2.9 3.072 4.94 2.4 2.04-.681 2.9-2.805 2.44-4.859-.55-2.41-2.21-3.496-4.87-2.222-2.79.118-3.49 2.578-2.51 4.681z" fill="#E31B25"/><path d="M56.621 131.816c-.4 2.074.52 4.168 2.58 4.81 2.05.622 4.02-.593 4.86-2.529.98-2.261.28-4.108-2.63-4.612-2.33-1.531-4.36.059-4.81 2.331z" fill="#FF3F4A"/><path d="M77.701 125.515c.68 2.005 2.53 3.378 4.64 2.933 2.09-.454 3.2-2.469 2.97-4.563-.27-2.459-1.8-3.733-4.58-2.746-2.79-.197-3.78 2.183-3.03 4.376z" fill="#9C251F"/><path d="M72.711 129.584c.9 1.906 2.9 3.072 4.94 2.39 2.04-.681 2.91-2.805 2.44-4.859-.55-2.4-2.22-3.497-4.87-2.222-2.79.128-3.49 2.587-2.51 4.691z" fill="#E31B25"/><path d="M67.861 130.651c-.4 2.074.53 4.167 2.58 4.809 2.06.623 4.02-.602 4.86-2.528.98-2.262.28-4.118-2.63-4.622-2.33-1.511-4.36.079-4.81 2.341z" fill="#FF3F4A"/><path d="M62.681 136.122c.67 2.005 2.53 3.378 4.63 2.933 2.09-.454 3.2-2.469 2.98-4.562-.27-2.46-1.81-3.724-4.59-2.746-2.79-.198-3.77 2.192-3.02 4.375z" fill="#9C251F"/><path d="M84.001 129.258c.9 1.906 2.9 3.072 4.94 2.39 2.04-.681 2.91-2.805 2.44-4.859-.55-2.41-2.21-3.496-4.86-2.222-2.81.118-3.51 2.577-2.52 4.691z" fill="#E31B25"/><path d="M78.961 129.268c-.41 2.064.52 4.158 2.58 4.8 2.05.622 4.02-.593 4.86-2.529.99-2.261.28-4.118-2.62-4.612-2.33-1.521-4.37.069-4.82 2.341z" fill="#FF3F4A"/><path d="M74.991 134.562c.67 2.005 2.53 3.377 4.63 2.933 2.1-.454 3.2-2.469 2.98-4.563-.27-2.449-1.8-3.723-4.59-2.746-2.78-.187-3.76 2.183-3.02 4.376z" fill="#9C251F"/><path d="M72.541 137.702c.9 1.907 2.9 3.072 4.94 2.391 2.04-.682 2.91-2.796 2.44-4.86-.54-2.4-2.21-3.486-4.86-2.212-2.8.109-3.51 2.578-2.52 4.681z" fill="#E31B25"/><path d="M67.511 137.712c-.41 2.074.52 4.168 2.58 4.81 2.06.622 4.02-.602 4.86-2.528.99-2.262.29-4.119-2.63-4.622-2.33-1.512-4.37.069-4.81 2.34z" fill="#FF3F4A"/><path d="M88.581 131.421c.67 1.995 2.53 3.378 4.63 2.923 2.1-.454 3.21-2.459 2.98-4.553-.27-2.459-1.8-3.733-4.59-2.755-2.78-.188-3.76 2.182-3.02 4.385z" fill="#9C251F"/><path d="M83.601 135.48c.9 1.906 2.9 3.072 4.94 2.38 2.04-.671 2.9-2.795 2.43-4.849-.54-2.41-2.21-3.496-4.87-2.222-2.79.128-3.49 2.597-2.5 4.691z" fill="#E31B25"/><path d="M78.751 136.557c-.41 2.074.52 4.168 2.58 4.8 2.05.632 4.02-.593 4.86-2.519.99-2.262.28-4.118-2.63-4.622-2.33-1.521-4.37.069-4.81 2.341z" fill="#FF3F4A"/><path d="M73.561 142.028c.68 1.995 2.53 3.368 4.64 2.934 2.1-.455 3.2-2.469 2.98-4.573-.27-2.45-1.8-3.714-4.59-2.736-2.79-.188-3.78 2.173-3.03 4.375z" fill="#9C251F"/><path d="M79.531 154.255l-1.6.919-.8-13.798v-3.881l.8-.573 1.6-.909v18.242z" fill="#DFAD61"/><path d="M77.931 155.174l-1.6-.919v-18.242l1.6.909v18.252z" fill="#D29142"/><path d="M79.531 136.013l-1.6.909-1.6-.909 1.6-.908 1.6.908z" fill="#ECBD7A"/><path d="M76.761 149.811v6.035l1.17-.672v-6.035l-1.17.672z" fill="#DFAD61"/><path d="M43.571 130.897v6.035l33.19 18.914v-6.035l-33.19-18.914z" fill="#D29142"/><path d="M44.751 130.226l-1.18.671 33.19 18.914 1.17-.672-33.18-18.913z" fill="#ECBD7A"/><path d="M76.761 140.211v6.035l1.17-.672v-6.035l-1.17.672z" fill="#DFAD61"/><path d="M43.571 121.297v6.035l33.19 18.914v-6.035l-33.19-18.914z" fill="#D29142"/><path d="M44.751 120.626l-1.18.671 33.19 18.914 1.17-.672-33.18-18.913z" fill="#ECBD7A"/><path d="M77.931 150.483v6.034l-1.17-.671v-6.035l1.17.672z" fill="#D29142"/><path d="M100.751 137.465v6.035l-22.82 13.017v-6.034l22.82-13.018z" fill="#DFAD61"/><path d="M99.581 136.804l1.17.661-22.82 13.018-1.17-.672 22.82-13.007z" fill="#ECBD7A"/><path d="M77.931 140.883v6.034l-1.17-.671v-6.035l1.17.672z" fill="#D29142"/><path d="M100.751 127.865v6.045l-22.82 13.007v-6.034l22.82-13.018z" fill="#DFAD61"/><path d="M99.581 127.204l1.17.661-22.82 13.018-1.17-.672 22.82-13.007z" fill="#ECBD7A"/></svg>